<?xml version="1.0" encoding="utf-8" ?>
<svg baseProfile="full" height="200mm" version="1.1" viewBox="0,0,200,200" width="200mm" xmlns="http://www.w3.org/2000/svg" xmlns:ev="http://www.w3.org/2001/xml-events" xmlns:xlink="http://www.w3.org/1999/xlink"><defs /><rect fill="#1a1a1a" height="200" width="200" x="0" y="0" /><text alignment-baseline="middle" fill="#e1ed5e" style="dominant-baseline: central; font-size:9.0px; font-family:Arial;" text-anchor="middle" x="100.0" y="100.0">2021</text><line stroke="#e1ed5e" stroke-width="0.3" x1="100.0" x2="100.0" y1="15.0" y2="10.0" /><path d="M 100.0 14.0 a86.0,86.0 0 0,1 42.46469731375804,11.215312516191453" fill="none" id="id25" stroke="none" /><text fill="#e1ed5e" style="font-size:6.75px; font-family:Arial;" text-anchor="middle"><textPath startOffset="22.20632615414155" xlink:href="#id25">January</textPath></text><path d="M 100.0 79.0 l 0.0 -23.640385073371462 a44.64038507337146,44.64038507337146 0 0,0 0.7684108472015494,0.006613954757826117 l -0.40693036792902104 23.636882495222196" fill="#d3ff1c" stroke="none" /><path d="M 100.72285384407766 79.0124445844662 l 0.9779430427835637 -28.39389175531686 a49.41072793167362,49.41072793167362 0 0,0 0.8497684462304976,0.03659281683009507 l -1.4665523214033929 28.372851211962573" fill="#9dff22" stroke="none" /><path d="M 101.44485096284872 79.0497635885617 l 0.7175340655646438 -10.404193022926846 a31.42890634695534,31.42890634695534 0 0,0 0.539394580240709,0.041867400702827566 l -0.8965188351676939 10.390300360035553" fill="#ff850c" stroke="none" /><path d="M 101.80526077348638 79.07773832637324 l 2.282147559826763 -26.449191787573433 a47.54746586212449,47.54746586212449 0 0,0 0.8148161063958573,0.07737660740577414 l -2.7370887933128643 26.40598963565248" fill="#b2ff20" stroke="none" /><path d="M 102.88285421437855 79.19881850522331 l 1.4227608720985592 -10.265904871838453 a31.364026791590764,31.364026791590764 0 0,0 0.5341308990161695,0.0787170100399991 l -1.5992607515433845 10.239893377637484" fill="#ff850c" stroke="none" /><path d="M 103.59715602781102 79.31037775812273 l 0.7000864793290245 -4.026660139837632 a25.087066547084415,25.087066547084415 0 0,0 0.42481348863616286,0.0776319497087748 l -0.7692950890680883 4.014012708778118" fill="#ff2e04" stroke="none" /><path d="M 103.95276090670814 79.375362276772 l 1.6845443518017842 -8.789582219774566 a29.94955000384737,29.94955000384737 0 0,0 0.5054822163194045,0.10139497726387516 l -1.835592977588314 8.759283286433483" fill="#ff720a" stroke="none" /><path d="M 104.66035177308747 79.52364482259891 l 2.000495846649788 -8.789650541718428 a30.014429559211948,30.014429559211948 0 0,0 0.5027793032506014,0.11899161693163526 l -2.151498836862913 8.753913012645924" fill="#ff720a" stroke="none" /><path d="M 105.01212808612495 79.60689891045804 l 2.88902044582817 -11.75470478590213 a33.104524928311875,33.104524928311875 0 0,0 0.5522009917472694,0.14076832806434644 l -3.090930326260464 11.703233461668914" fill="#ff9c0e" stroke="none" /><path d="M 105.36241919743992 79.69619591428918 l 4.280299747709808 -16.206559820445854 a37.7622655731239,37.7622655731239 0 0,0 0.6270372244306238,0.17139295990526676 l -4.558634861364142 16.130480319714295" fill="#ffd714" stroke="none" /><path d="M 106.0581310904928 79.89281104454417 l 3.5138915114496956 -11.662752016141008 a33.180608283014415,33.180608283014415 0 0,0 0.5454491105548799,0.16947369375962126 l -3.714125994715294 11.600538187498866" fill="#ff9d0e" stroke="none" /><path d="M 106.40334571778207 80.00007090966166 l 2.30672903749512 -7.204736275977057 a28.564999911355116,28.564999911355116 0 0,0 0.4669931024862873,0.15396028364293016 l -2.430404962223825 7.16396226807489" fill="#ff5f08" stroke="none" /><path d="M 106.74666289553966 80.11325718540242 l 6.213378424284479 -18.314811432953825 a40.34007211124147,40.34007211124147 0 0,0 0.6556567889977125,0.22874577952277433 l -6.527717217345465 18.205144800258843" fill="#fff717" stroke="none" /><path d="M 107.08798089147638 80.2323363322302 l 5.774077513686605 -16.103319694251407 a38.107217082545205,38.107217082545205 0 0,0 0.6155543595247871,0.2267138654899142 l -6.050414198983969 16.001542560955166" fill="#ffdc14" stroke="none" /><path d="M 107.76421540070413 80.48803036053334 l 5.6746351268523965 -14.260720832159489 a36.34827815996618,36.34827815996618 0 0,0 0.5793502387061337,0.2363315089864067 l -5.919269235146918 14.160928436989503" fill="#ffc612" stroke="none" /><path d="M 108.09893153111575 80.62456947434976 l 2.595132895135651 -6.208450697644471 a27.729009942665954,27.729009942665954 0 0,0 0.4388000183019874,0.18787126779842753 l -2.7016166712279537 6.162859901883253" fill="#ff5307" stroke="none" /><path d="M 109.08828744355905 81.06846463323043 l 5.02342972470837 -10.464153789853668 a32.60747004031423,32.60747004031423 0 0,0 0.5039076637227848,0.24726530214181447 l -5.202808655441586 10.376133327577023" fill="#ff950d" stroke="none" /><path d="M 109.41281617654863 81.2277094730956 l 3.5298260659513234 -7.039648833743051 a28.875044619447518,28.875044619447518 0 0,0 0.4423925131768558,0.22661062786761973 l -3.650479066716935 6.977845680562932" fill="#ff6309" stroke="none" /><path d="M 110.05341064243156 81.56283822128135 l 5.144902884939976 -9.43534589396739 a31.7468961953799,31.7468961953799 0 0,0 0.47752760737386524,0.26574359649538537 l -5.3065545813858765 9.345386899911825" fill="#ff8a0c" stroke="none" /><path d="M 110.36928655335952 81.73862282372117 l 6.001275889394254 -10.568862379411277 a33.15385388654808,33.15385388654808 0 0,0 0.4938397060513959,0.28606383289239334 l -6.182312327910978 10.463994389128835" fill="#ff9c0e" stroke="none" /><line stroke="#e1ed5e" stroke-width="0.3" x1="143.23703022742887" x2="145.7803849466894" y1="26.81831364943548" y2="22.513508569990506" /><path d="M 143.74570117128098 25.957352633546492 a86.0,86.0 0 0,1 28.547481713284135,27.462654790039103" fill="none" id="id26" stroke="none" /><text fill="#e1ed5e" style="font-size:6.75px; font-family:Arial;" text-anchor="middle"><textPath startOffset="19.985693538727396" xlink:href="#id26">February</textPath></text><path d="M 110.68208982089419 81.91981866633111 l 1.9504359339065775 -3.3012487215523882 a24.834376540433308,24.834376540433308 0 0,0 0.36617452565490216,0.22061605455234642 l -2.0069725257791173 3.267186057541427" fill="#ff2b04" stroke="none" /><path d="M 110.99172775467656 82.1063720568725 l 3.7533237291018153 -6.11010205652933 a28.170828833310882,28.170828833310882 0 0,0 0.4110001150631274,0.2573682343473073 l -3.857942996537206 6.044589480859078" fill="#ff5908" stroke="none" /><path d="M 111.2981086023043 82.29822771554956 l 2.353817625025253 -3.6879397307992674 a25.375083641473303,25.375083641473303 0 0,0 0.36616605080230064,0.2381645850131595 l -2.416950701611834 3.64687622162658" fill="#ff3204" stroke="none" /><path d="M 111.60114157652 82.49532879139004 l 6.774960458385619 -10.222567709663979 a33.2638077199275,33.2638077199275 0 0,0 0.4745562209073196,0.3204224787299461 l -6.94992137369948 10.104433318635362" fill="#ff9e0e" stroke="none" /><path d="M 112.19680574252982 82.90503203632743 l 16.724790477053297 -23.44136353729118 a49.796113296567945,49.796113296567945 0 0,0 0.6934812648075559,0.5038436312576338 l -17.12581705821464 23.150000671216873" fill="#99ff23" stroke="none" /><path d="M 112.48926042617603 83.11751280151076 l 7.2654783279313175 -9.821185616813777 a33.21649959086274,33.21649959086274 0 0,0 0.4567329531211769,0.3440017912237359 l -7.433457434810878 9.694667236084195" fill="#ff9d0e" stroke="none" /><path d="M 113.34407831869373 83.78471172551755 l 2.4501471915721202 -2.977338867278525 a24.855874478114675,24.855874478114675 0 0,0 0.3280294416142721,0.27471522373023427 l -2.5010341701455094 2.934722486154471" fill="#ff2b04" stroke="none" /><path d="M 113.6212207817346 84.01681056812373 l 6.440509072361071 -7.557316498334867 a30.929410343377377,30.929410343377377 0 0,0 0.40223875090358463,0.3488174810571176 l -6.569641621911421 7.445334023858078" fill="#ff7f0b" stroke="none" /><path d="M 113.89432698308785 84.25364557470407 l 20.195001779613822 -22.886870017406945 a51.522891672845915,51.522891672845915 0 0,0 0.6599567498703625,0.5925156861935429 l -20.585969517080176 22.535855322444107" fill="#86ff25" stroke="none" /><path d="M 114.16331599549186 84.49514656593476 l 6.996319865932744 -7.659005428788997 a31.373468842420287,31.373468842420287 0 0,0 0.3955927241657574,0.3676603238595138 l -7.127120473893348 7.537440518854843" fill="#ff850c" stroke="none" /><path d="M 114.42810811169701 84.74124197986012 l 17.447724957995085 -18.452219173501096 a46.39502901429266,46.39502901429266 0 0,0 0.5755563081576794,0.5536847124350224 l -17.762764509765184 18.149151374303774" fill="#bfff1e" stroke="none" /><path d="M 114.68862486808459 84.99185889309783 l 11.883827427308942 -12.142331941954241 a37.99004353469003,37.99004353469003 0 0,0 0.4634137668415454,0.46142372085431765 l -12.09107699431781 11.935972370449806" fill="#ffda14" stroke="none" /><path d="M 114.94478906791727 85.2469230424477 l 7.932232180476761 -7.830477317004737 a32.1461510117671,32.1461510117671 0 0,0 0.3853492854313446,0.3971363117954907 l -8.065845729611215 7.692776809659132" fill="#ff8f0d" stroke="none" /><path d="M 115.19652480421416 85.50635884689758 l 7.501374390432748 -7.154413918362096 a31.366110951590937,31.366110951590937 0 0,0 0.3692727433301628,0.3939144157871766 l -7.623414455733373 7.024230085696864" fill="#ff850c" stroke="none" /><path d="M 115.68641384162765 86.03803664274999 l 4.678315299885599 -4.164015271439967 a27.263038976880868,27.263038976880868 0 0,0 0.30899167143294776,0.3532308950591422 l -4.749298834896395 4.082868820177877" fill="#ff4d07" stroke="none" /><path d="M 115.9244219780498 86.31012108654704 l 2.9066564223073663 -2.4987892508278886 a24.833092651814415,24.833092651814415 0 0,0 0.2758712833313982,0.32654458518236895 l -2.949238319125882 2.448385716016413" fill="#ff2b04" stroke="none" /><path d="M 116.15771136456269 86.58626213691792 l 10.489828867538339 -8.708400062545527 a34.633515369103584,34.633515369103584 0 0,0 0.3768481184064304,0.4619712341431929 l -10.638175478021179 8.526544658794235" fill="#ffb010" stroke="none" /><path d="M 116.38621287248628 86.86637796730983 l 7.193834694308255 -5.765890299114747 a30.21936812099716,30.21936812099716 0 0,0 0.32183039844237443,0.4086919236331558 l -7.292019173344594 5.641205981528553" fill="#ff750a" stroke="none" /><path d="M 116.60985879189232 87.15038557335679 l 9.862424032933676 -7.629706412502224 a33.469155053425446,33.469155053425446 0 0,0 0.3485956890739924,0.45871106489400393 l -9.992295662231783 7.458810571727186" fill="#ffa00e" stroke="none" /><path d="M 116.82858285166822 87.43820079747576 l 9.790902401347104 -7.308479333127132 a33.2178410529623,33.2178410529623 0 0,0 0.3380902173617987,0.461154676528065 l -9.91525523122253 7.138862212927574" fill="#ff9d0e" stroke="none" /><path d="M 117.04232023915458 87.72973835380427 l 2.905407650194503 -2.091857890033041 a24.580120535108033,24.580120535108033 0 0,0 0.24426480758935598,0.345495247648295 l -2.940985077587742 2.0415361420529528" fill="#ff2703" stroke="none" /><path d="M 117.2510076193507 88.02491185347247 l 7.4567180101831525 -5.17621100321 a30.077213439880218,30.077213439880218 0 0,0 0.29157070462948426,0.4278440311085199 l -7.54471318048137 5.047088948831073" fill="#ff730a" stroke="none" /><path d="M 117.45458315368197 88.32363383020206 l 10.10184021154589 -6.757697062156265 a33.15375025428287,33.15375025428287 0 0,0 0.3132293143310845,0.47706973515428003 l -10.216666161234897 6.582809263024311" fill="#ff9c0e" stroke="none" /><path d="M 117.65298651832404 88.62581576622439 l 18.501494917483704 -11.920895740405385 a43.00938593953249,43.00938593953249 0 0,0 0.3956298317107089,0.6257913830567475 l -18.703952345440367 11.600656709634432" fill="#e7ff1a" stroke="none" /><line stroke="#e1ed5e" stroke-width="0.3" x1="172.23445277983987" x2="176.4835382374775" y1="55.19839476539836" y2="52.563006222186495" /><path d="M 173.08426987136738 54.67131705675599 a86.0,86.0 0 0,1 12.851231095245387,41.99856678651699" fill="none" id="id27" stroke="none" /><text fill="#e1ed5e" style="font-size:6.75px; font-family:Arial;" text-anchor="middle"><textPath startOffset="22.20632615414155" xlink:href="#id27">March</textPath></text><path d="M 117.84615892207809 88.93136811851018 l 3.6786836053627443 -2.2816111194582254 a25.328794563016366,25.328794563016366 0 0,0 0.22661334984974102,0.3724927631846054 l -3.717412753498709 2.2179505830665387" fill="#ff3204" stroke="none" /><path d="M 118.03404312379186 89.2402003453031 l 12.16535490030022 -7.258315872763258 a35.166121881413616,35.166121881413616 0 0,0 0.3056778731356851,0.522502572127296 l -12.288492447906233 7.047833888282066" fill="#ffb610" stroke="none" /><path d="M 118.21658344932153 89.55222093294921 l 9.493711173697179 -5.444939614781267 a31.944309903241823,31.944309903241823 0 0,0 0.26946144778789277,0.4793418482983222 l -9.586030262777504 5.280714256548151" fill="#ff8c0c" stroke="none" /><path d="M 118.3937258080291 89.86733742301442 l 3.3600921352044546 -1.8509942025311674 a24.83619586242241,24.83619586242241 0 0,0 0.20305588932389537,0.37623172407220357 l -3.391456123746815 1.792881495126505" fill="#ff2b04" stroke="none" /><path d="M 118.56541770881063 90.18545643968196 l 8.166078145076218 -4.316968835760506 a30.236939547296977,30.236939547296977 0 0,0 0.2392901963270752,0.46223249476415573 l -8.23917777456341 4.175763618736006" fill="#ff750a" stroke="none" /><path d="M 118.73160827565052 90.50648371742162 l 21.80059938188364 -11.048936223533811 a45.44064493995817,45.44064493995817 0 0,0 0.347599267359222,0.7007389122013888 l -21.987558662196268 10.672037722833473" fill="#caff1d" stroke="none" /><path d="M 118.89224826269711 90.83032412892265 l 24.000722076774803 -11.649161023909608 a47.678410986555406,47.678410986555406 0 0,0 0.3520069978147907,0.7414165103746216 l -24.197687268431352 11.234302097894446" fill="#b1ff20" stroke="none" /><path d="M 119.04729006885535 91.15688171328212 l 22.146884809714418 -10.282172495228318 a45.4173622243761,45.4173622243761 0 0,0 0.32310708028372376,0.7119236219386909 l -22.320594206961488 9.899426864447564" fill="#caff1d" stroke="none" /><path d="M 119.196687751892 91.48605970444005 l 19.999568776068564 -8.87002678259485 a42.878302638747975,42.878302638747975 0 0,0 0.2934290683507229,0.6772747459022491 l -20.149288554261968 8.524452892105998" fill="#e8ff1a" stroke="none" /><path d="M 119.34039704204932 91.81776055985345 l 3.531016651840755 -1.493848531118069 a24.8340138275051,24.8340138275051 0 0,0 0.16316930170304772,0.3951274065468453 l -3.55620764043 1.4328465541179205" fill="#ff2b04" stroke="none" /><path d="M 119.47837535516314 92.15188598940014 l 12.114332557740656 -4.881036602997228 a34.060688023199006,34.060688023199006 0 0,0 0.2144306024825725,0.545702494254264 l -12.196556710104929 4.67178510384718" fill="#ffa80f" stroke="none" /><path d="M 119.61058180528143 92.48833698450437 l 6.456286495359853 -2.473024460272639 a27.913717183344485,27.913717183344485 0 0,0 0.16800789380181333,0.4501776271193098 l -6.497898977663292 2.361523696123996" fill="#ff5607" stroke="none" /><path d="M 119.85752413597 93.16781622104841 l 11.209970338663025 -3.856904666761001 a32.85492086022457,32.85492086022457 0 0,0 0.1793921018451273,0.5363595510592251 l -11.274699734279922 3.6633720127794622" fill="#ff980e" stroke="none" /><path d="M 120.18372546131832 94.20196356495316 l 11.675991470988324 -3.354079706138887 a33.14819441339843,33.14819441339843 0 0,0 0.15281827385976873,0.5497686393456057 l -11.731996515414455 3.1525997633743295" fill="#ff9c0e" stroke="none" /><path d="M 120.37134235888165 94.90015583598534 l 2.903834710749498 -0.7269577154999021 a23.993446767102842,23.993446767102842 0 0,0 0.09685034735897156,0.40150721606446743 l -2.9159178583692893 0.6768652677760285" fill="#ff1f03" stroke="none" /><path d="M 120.6074358757038 95.95851677861258 l 11.922423815146125 -2.3381985074616836 a33.14954163284605,33.14954163284605 0 0,0 0.104996084020416,0.5608932792484607 l -11.9609056230764 2.1326271507506602" fill="#ff9c0e" stroke="none" /><path d="M 120.73433829027371 96.67025291283417 l 11.302292607716678 -1.8150459089641728 a32.447104867262055,32.447104867262055 0 0,0 0.08381258161933211,0.5522201942793643 l -11.33186108277531 1.6202266022927263" fill="#ff930d" stroke="none" /><path d="M 120.78858239683441 97.02765380044208 l 3.9202827209516964 -0.5605210217983745 a24.96015156630025,24.96015156630025 0 0,0 0.05715161673478727,0.425845927880539 l -3.92935033674432 0.49295675185317117" fill="#ff2c04" stroke="none" /><path d="M 120.87857604477298 97.74499172005257 l 16.530205294741368 -1.7853588160867282 a37.626340342615215,37.626340342615215 0 0,0 0.064005763195092,0.6445293005372175 l -16.55848818361869 1.5005539848450757" fill="#ffd614" stroke="none" /><path d="M 120.91429891909075 98.10471618934814 l 12.103680576779736 -1.0968529203497372 a33.1532781517414,33.1532781517414 0 0,0 0.046612745262191994,0.5687935579529606 l -12.120767805861423 0.8883454451890079" fill="#ff9c0e" stroke="none" /><path d="M 120.94382443527127 98.46500227214037 l 8.618134196699373 -0.6316332745820977 a29.641249772219204,29.641249772219204 0 0,0 0.03291506793231692,0.5091815323590411 l -8.627729855636105 0.4831926779700214" fill="#ff6d0a" stroke="none" /><path d="M 120.96714384426684 98.82574320788733 l 3.4829595908869213 -0.1950618065402955 a24.488417495100315,24.488417495100315 0 0,0 0.019948022067280233,0.42107121780284495 l -3.485801221187698 0.13507948211445078" fill="#ff2603" stroke="none" /><path d="M 120.98425023603335 99.18683210126433 l 9.216998592324341 -0.3571710827723511 a30.223916425969918,30.223916425969918 0 0,0 0.01567082079966707,0.5200382507826123 l -9.221781107579654 0.1984626845647397" fill="#ff750a" stroke="none" /><line stroke="#e1ed5e" stroke-width="0.3" x1="184.98032266829074" x2="189.97916517819016" y1="98.17113171792111" y2="98.06355123074" /><path d="M 185.9800911702706 98.14961562048488 a86.0,86.0 0 0,1 -9.607161424134198,41.387399972396054" fill="none" id="id28" stroke="none" /><text fill="#e1ed5e" style="font-size:6.75px; font-family:Arial;" text-anchor="middle"><textPath startOffset="21.466115282336823" xlink:href="#id28">April</textPath></text><path d="M 120.99513854157772 99.54816195383933 l 6.6778468507442925 -0.1437144731207726 a27.679393117026414,27.679393117026414 0 0,0 0.006151406222053116,0.4764331909855162 l -6.679331264084061 0.028745024074793683" fill="#ff5307" stroke="none" /><path d="M 120.99824983174949 100.27111621757518 l 14.787379608914316 0.1909253609010541 a35.78861211174227,35.78861211174227 0 0,0 -0.013255313409319729,0.6159223283771857 l -14.781902232819988 -0.44543750506835467" fill="#ffbe11" stroke="none" /><path d="M 120.9764740272857 100.99374915477107 l 12.136120470346375 0.5749421682556761 a33.14973162533226,33.14973162533226 0 0,0 -0.0319084306308114,0.5697464637844052 l -12.124425688828033 -0.7837603483755047" fill="#ff9c0e" stroke="none" /><path d="M 120.95626037817324 101.35467743843564 l 12.184562334653254 0.7876477670204587 a33.209993787547276,33.209993787547276 0 0,0 -0.041786777266807885,0.570147376056484 l -12.16919899872211 -0.997268279573713" fill="#ff9d0e" stroke="none" /><path d="M 120.89721153311464 102.0752229133903 l 3.5415537261282215 0.3516982842336508 a24.55897379565874,24.55897379565874 0 0,0 -0.0453963257258785,0.4203135958521322 l -3.534975098901291 -0.4126082019705744" fill="#ff2703" stroke="none" /><path d="M 120.8583938346157 102.4346265915055 l 6.094987365144025 0.7114171125412129 a27.136365804715506,27.136365804715506 0 0,0 -0.058147405035125596,0.4634920298721001 l -6.081838450862051 -0.8162268967007079" fill="#ff4b07" stroke="none" /><path d="M 120.81339534386255 102.79330883721812 l 24.298822860246737 3.26107852698524 a45.51667647852811,45.51667647852811 0 0,0 -0.11090018793305861,0.775635656106861 l -24.239088621297075 -3.67885965507251" fill="#c9ff1d" stroke="none" /><path d="M 120.76222939487914 103.15116336523771 l 13.183033521313238 2.0008396730896774 a34.33400660797339,34.33400660797339 0 0,0 -0.09371262021509358,0.5835485755350693 l -13.146639146736856 -2.2274674783179518" fill="#ffac0f" stroke="none" /><path d="M 120.70491114924044 103.5080841355445 l 7.459015548090926 1.2637993914790344 a28.565322322846857,28.565322322846857 0 0,0 -0.0863129203386868,0.48408869495062024 l -7.436156185413051 -1.3920068371628729" fill="#ff5f08" stroke="none" /><path d="M 120.64145759157962 103.86396538481128 l 8.49421749888049 1.5900699958379612 a29.641762176197147,29.641762176197147 0 0,0 -0.09819901815797427,0.5007146779772637 l -8.46558854774685 -1.7360484008831698" fill="#ff6d0a" stroke="none" /><path d="M 120.5718875245553 104.21870165774334 l 3.7549500430631197 0.7700321106901558 a24.833092651814415,24.833092651814415 0 0,0 -0.08947713461640507,0.4180073844559179 l -3.7411388697222714 -0.8345533145622427" fill="#ff2b04" stroke="none" /><path d="M 120.49622156327973 104.57218783832717 l 9.614692168329656 2.144794271742931 a30.851012534751995,30.851012534751995 0 0,0 -0.12008306214571661,0.5173146888580226 l -9.576348540253386 -2.3099776179495186" fill="#ff7e0b" stroke="none" /><path d="M 120.23288151984713 105.62410040840565 l 26.750843992803784 7.435887591075093 a48.76508740476844,48.76508740476844 0 0,0 -0.23176737075661066,0.8068126226263075 l -26.618883985161077 -7.895257689205983" fill="#a5ff21" stroke="none" /><path d="M 120.02730092923936 106.31721596034902 l 8.24167104773602 2.5996721209043034 a29.641957926031417,29.641957926031417 0 0,0 -0.15767792358990884,0.4852827496086434 l -8.195700873129864 -2.741153770490742" fill="#ff6d0a" stroke="none" /><path d="M 119.9155931802556 106.66101706037122 l 3.6358348495237136 1.2160500439113142 a24.833806562974694,24.833806562974694 0 0,0 -0.1390801597327617,0.4042320461630872 l -3.614363858847721 -1.2784547931637018" fill="#ff2b04" stroke="none" /><path d="M 119.79798401119884 107.00284435728193 l 9.584459807454266 3.390167415139873 a31.166371275110034,31.166371275110034 0 0,0 -0.18325193928474692,0.5042306333354033 l -9.524683607164292 -3.5546458454814074" fill="#ff820c" stroke="none" /><path d="M 119.54520255179757 107.68017299344265 l 13.50319367960709 5.306000955912628 a35.5082695623264,35.5082695623264 0 0,0 -0.22843211381495712,0.5669497729074202 l -13.40985895153474 -5.537650096662862" fill="#ffbb11" stroke="none" /><path d="M 119.41010516605496 108.01547362559984 l 3.542280007087288 1.462797430946045 a24.832430556786733,24.832430556786733 0 0,0 -0.16655349897778748,0.39368327247525137 l -3.5165755269171917 -1.5235552290874599" fill="#ff2b04" stroke="none" /><path d="M 119.12269723197855 108.67885076344098 l 6.122356008630123 2.7786359567885808 a27.72339652830084,27.72339652830084 0 0,0 -0.20096212662008975,0.432854542309599 l -6.073619265170202 -2.88361056637701" fill="#ff5307" stroke="none" /><path d="M 118.97047184881838 109.00673069616215 l 5.511304706513732 2.6166369330002754 a27.100923570016388,27.100923570016388 0 0,0 -0.20370440610764845,0.419691411833824 l -5.46544704379137 -2.711117300799375" fill="#ff4a06" stroke="none" /><path d="M 118.81262510543309 109.33194174019688 l 0.7831388831390731 0.38847350600879565 a21.874195730460336,21.874195730460336 0 0,0 -0.1702242935060639,0.3358686802703734 l -0.7763359198467401 -0.4018963979818634" fill="#ff0000" stroke="none" /><path d="M 118.64920377521936 109.65438752849418 l 8.186524651616224 4.2380298081838195 a30.21846421735067,30.21846421735067 0 0,0 -0.2431111302293912,0.4598746395724859 l -8.112361013161939 -4.37831946284244" fill="#ff750a" stroke="none" /><line stroke="#e1ed5e" stroke-width="0.3" x1="174.80103733775053" x2="179.2010983576182" y1="140.37084112569926" y2="142.7455964860345" /><path d="M 175.68104954172406 140.8457921977663 a86.0,86.0 0 0,1 -30.038265399797805,32.042727171017184" fill="none" id="id29" stroke="none" /><text fill="#e1ed5e" style="font-size:6.75px; font-family:Arial;" text-anchor="middle"><textPath startOffset="22.206326154141568" xlink:href="#id29">May</textPath></text><path d="M 118.48025628344425 109.97397251340804 l 2.5586668284280187 1.3809371594360658 a23.907535619250304,23.907535619250304 0 0,0 -0.19857324780359836,0.3604681242623445 l -2.534517171172911 -1.4247758020962153" fill="#ff1d03" stroke="none" /><path d="M 118.12598468904814 110.60418214915192 l 14.679631172986612 8.587973867967191 a38.00720043192905,38.00720043192905 0 0,0 -0.3352219229125647,0.5618512247304387 l -14.529628374375822 -8.839387186583734" fill="#ffdb14" stroke="none" /><path d="M 117.94076556474637 110.91462005526583 l 8.72990439898136 5.311010240327074 a31.21851557655089,31.21851557655089 0 0,0 -0.28324910068616366,0.4566877387831803 l -8.637190658627233 -5.460494310475528" fill="#ff830c" stroke="none" /><path d="M 117.75023020441432 111.22182372390056 l 11.513019682271496 7.27861418789476 a34.620860718052796,34.620860718052796 0 0,0 -0.322790293061679,0.5009777030640048 l -11.386024525832767 -7.475713490880218" fill="#ffaf10" stroke="none" /><path d="M 117.35343817320211 111.8261652097733 l 7.1395912053957264 4.86554792672963 a29.639868008683177,29.639868008683177 0 0,0 -0.2909493096735224,0.419134180609614 l -7.0547809885600685 -4.987723369526264" fill="#ff6d0a" stroke="none" /><path d="M 117.14729908036423 112.12312394758627 l 7.762154568424925 5.487835809727972 a30.506176172292022,30.506176172292022 0 0,0 -0.3068343269018076,0.4261660435779963 l -7.666540449147514 -5.6206354587571" fill="#ff790b" stroke="none" /><path d="M 116.93607887273984 112.41649034213515 l 5.805755896772993 4.2564227860976 a28.198884390440316,28.198884390440316 0 0,0 -0.2903662400571598,0.38899302952935144 l -5.731628390020742 -4.355728695136267" fill="#ff5a08" stroke="none" /><path d="M 116.71984013943494 112.70617746262583 l 10.187061827771783 7.741618001545332 a33.7948770203037,33.7948770203037 0 0,0 -0.3559617338021398,0.46012852506386553 l -10.052293276751575 -7.91582452072245" fill="#ffa50f" stroke="none" /><path d="M 116.498646956653 112.99209946851258 l 1.907730000235221 1.5022697307991615 a23.428219120646418,23.428219120646418 0 0,0 -0.2522238426491493,0.3146880248935331 l -1.8815882455312178 -1.5348855892709448" fill="#ff1702" stroke="none" /><path d="M 116.27256486870786 113.27417163493432 l 6.759807421797513 5.514240973074594 a29.723637423054868,29.723637423054868 0 0,0 -0.32682413231892093,0.39368072127878895 l -6.663887289585048 -5.629782951467154" fill="#ff6f0a" stroke="none" /><path d="M 116.0416608686014 113.55231037782055 l 5.321643635383344 4.49582913250779 a27.96651782246495,27.96651782246495 0 0,0 -0.31383425743267523,0.3650601424688057 l -5.24346686837989 -4.586766374138124" fill="#ff5608" stroke="none" /><path d="M 115.32070863581623 114.36230785411682 l 7.043435591992864 6.602827109860745 a30.654393340923285,30.654393340923285 0 0,0 -0.36419382428631697,0.38185576873648164 l -6.928735216327582 -6.723089995179734" fill="#ff7b0b" stroke="none" /><path d="M 115.07121518719521 114.62390073753431 l 2.4111670643982785 2.3396035006739595 a24.359683192327047,24.359683192327047 0 0,0 -0.2945890436842168,0.2984171459450268 l -2.370537395658526 -2.3807611405996507" fill="#ff2403" stroke="none" /><path d="M 114.81725581225074 114.88116024355365 l 4.737036874626047 4.757466949625739 a27.713643580675708,27.713643580675708 0 0,0 -0.3409438637575159,0.3336853298578274 l -4.6544430584927365 -4.838302382406138" fill="#ff5307" stroke="none" /><path d="M 114.29624159901734 115.38237550388516 l 7.258902732379004 7.810386163542926 a31.6627295239916,31.6627295239916 0 0,0 -0.4024188940505803,0.3676001184553196 l -7.123384288861559 -7.934179048584829" fill="#ff890c" stroke="none" /><path d="M 113.75828350139079 115.86535959552629 l 0.688115472171599 0.7935001054560465 a22.050307250475164,22.050307250475164 0 0,0 -0.2888952750804364,0.24620282087269243 l -0.6743547205141153 -0.8052273165516858" fill="#ff0300" stroke="none" /><path d="M 113.48314897796784 116.09983520530334 l 7.281651435637615 8.694807743190518 a32.341169662833245,32.341169662833245 0 0,0 -0.429875549080999,0.3537583111152828 l -7.130905758011925 -8.81886117316298" fill="#ff920d" stroke="none" /><path d="M 112.63410532772338 116.77436683061366 l 5.576087618375063 7.403400301327152 a30.268391939785815,30.268391939785815 0 0,0 -0.4188785532839688,0.3098763397475864 l -5.447824094672531 -7.498286589814508" fill="#ff760a" stroke="none" /><path d="M 112.34349029814194 116.9893568818739 l 2.2533703557514713 3.1014982177820207 a24.833662629273025,24.833662629273025 0 0,0 -0.3479937267245461,0.24828428421145926 l -2.1996493011780407 -3.1398267638376995" fill="#ff2b04" stroke="none" /><path d="M 112.04921762599082 117.19931262002967 l 4.2285686360820565 6.035949898551793 a28.369768238410504,28.369768238410504 0 0,0 -0.4023685787930934,0.2767527774864762 l -4.12404317266608 -6.107843465403363" fill="#ff5c08" stroke="none" /><path d="M 111.7513745106137 117.40417183066458 l 5.156430458587659 7.636842962759545 a30.21467012497466,30.21467012497466 0 0,0 -0.433544979899076,0.2873299721919267 l -5.024210779948619 -7.72447095604279" fill="#ff750a" stroke="none" /><path d="M 111.45004920935366 117.60387380957326 l 4.98464193304567 7.663635847395327 a30.14209875259286,30.14209875259286 0 0,0 -0.43737361973397915,0.27915253773081816 l -4.85198651126476 -7.748302813949954" fill="#ff740a" stroke="none" /><path d="M 111.1453310114006 117.79835938074945 l 12.893011642820213 20.589290213486777 a45.29297471939326,45.29297471939326 0 0,0 -0.6643418243101537,0.4080930089790432 l -12.536690618577751 -20.8081716892942" fill="#ccff1d" stroke="none" /><line stroke="#e1ed5e" stroke-width="0.3" x1="143.8653032363475" x2="146.44561519142675" y1="172.8068346515853" y2="177.08958963109032" /><path d="M 144.38136562736335 173.6633856474863 a86.0,86.0 0 0,1 -40.68145358897372,12.25698825130547" fill="none" id="id30" stroke="none" /><text fill="#e1ed5e" style="font-size:6.75px; font-family:Arial;" text-anchor="middle"><textPath startOffset="21.466115282336833" xlink:href="#id30">June</textPath></text><path d="M 110.8373102113329 117.98757091392108 l 7.5347879427057975 12.506104355954253 a35.60053682244467,35.60053682244467 0 0,0 -0.5276205175134253,0.3117275018104794 l -7.31839955416399 -12.633950430058484" fill="#ffbc11" stroke="none" /><path d="M 110.5260780823613 118.17145234162733 l 1.760617883005926 3.0394021118340464 a24.5125119967598,24.5125119967598 0 0,0 -0.36693039866858784,0.20835265665918168 l -1.708038717416139 -3.0692579342878563" fill="#ff2603" stroke="none" /><path d="M 110.21172684928248 118.3499491758327 l 5.7418457911274725 10.317802267699818 a32.807871811822814,32.807871811822814 0 0,0 -0.4958319097242927,0.2703670910906216 l -5.563391069534531 -10.41511001055021" fill="#ff980e" stroke="none" /><path d="M 109.57404056367764 118.69057910512821 l 7.2226888651178065 14.100236643801885 a36.84247164597463,36.84247164597463 0 0,0 -0.5669286068431142,0.2842697727159566 l -6.978906350591932 -14.222474257427145" fill="#ffcc13" stroke="none" /><path d="M 109.2508944713604 118.85261126421891 l 5.534612772103415 11.279115053520076 a33.56385191442789,33.56385191442789 0 0,0 -0.5208587691441994,0.2500438617244904 l -5.339641334958983 -11.372713191744126" fill="#ffa20e" stroke="none" /><path d="M 108.92500713936063 119.00905698771935 l 1.6284906645577837 3.468464659263623 a24.83173967501872,24.83173967501872 0 0,0 -0.3884772001912185,0.17833082900434158 l -1.5685454685991456 -3.4959825586020385" fill="#ff2b04" stroke="none" /><path d="M 108.59647513512805 119.15986991738527 l 4.023678457191203 8.967996139969129 a30.829290060496017,30.829290060496017 0 0,0 -0.4860447882861637,0.21306775164499628 l -3.868712994247286 -9.03592844490858" fill="#ff7d0b" stroke="none" /><path d="M 107.93186726928326 119.44442032107085 l 7.874471701431535 19.30371908288984 a41.84804247424135,41.84804247424135 0 0,0 -0.6693274036191649,0.2663391872433913 l -7.541023221770504 -19.4364051145393" fill="#f4ff19" stroke="none" /><path d="M 106.91757812671514 119.82793768551818 l 2.9847003325294814 8.555082590941728 a30.060787725845685,30.060787725845685 0 0,0 -0.4900341662050516,0.1662461951413944 l -2.836996433387203 -8.605191772981245" fill="#ff730a" stroke="none" /><path d="M 106.57524785965236 119.94407469862006 l 1.2004008417844445 3.6410618379488926 a24.83383534971503,24.83383534971503 0 0,0 -0.40713140144918797,0.13035061795812564 l -1.1375480952443162 -3.6611853025667247" fill="#ff2b04" stroke="none" /><path d="M 106.2309692047433 120.05430185196036 l 2.750279611968389 8.85174291564785 a30.269163424426765,30.269163424426765 0 0,0 -0.49890071256914714,0.15031469215213414 l -2.597503924958996 -8.89777297690571" fill="#ff760a" stroke="none" /><path d="M 105.88484417918355 120.15858648285463 l 4.843990012368354 16.5931312050405 a38.28572365935581,38.28572365935581 0 0,0 -0.6342099984595221,0.1792340805171086 l -4.557648845804226 -16.674054078896127" fill="#ffde14" stroke="none" /><path d="M 104.83641907484287 120.43548508189849 l 2.813608683139964 11.888435923529826 a33.21684503174674,33.21684503174674 0 0,0 -0.5575365987824068,0.12689351469955185 l -2.6085519349646953 -11.935106171807062" fill="#ff9d0e" stroke="none" /><path d="M 104.13013068566511 120.58985236759428 l 0.7677396555742703 3.8273961208751137 a24.903637437676707,24.903637437676707 0 0,0 -0.42102846692094137,0.08069110774159521 l -0.7017435740816245 -3.840044426965177" fill="#ff2c04" stroke="none" /><path d="M 103.7750983002368 120.6578951692458 l 1.657107669300502 9.067937784405675 a30.218107261770534,30.218107261770534 0 0,0 -0.5124861895927377,0.08910229314540653 l -1.5007725082357142 -9.095118656072088" fill="#ff750a" stroke="none" /><path d="M 103.41894727170886 120.7198165907248 l 1.8146378078683498 10.997233817775252 a32.1459437472367,32.1459437472367 0 0,0 -0.5467322969986184,0.08538834067359927 l -1.6250696472612143 -11.026840465795958" fill="#ff8f0d" stroke="none" /><path d="M 102.34483914955558 120.86867818915974 l 1.032511860429912 9.189183721146174 a30.247009149065782,30.247009149065782 0 0,0 -0.5178970733417221,0.053682149205244535 l -0.8741821904825873 -9.205595238807176" fill="#ff760a" stroke="none" /><path d="M 101.26447882468166 120.96189622390904 l 0.2308280311658008 3.8265514142436428 a24.833507180875223,24.833507180875223 0 0,0 -0.4269139235921662,0.022066573465113263 l -0.16492603916015505 -3.829957794470958" fill="#ff2b04" stroke="none" /><path d="M 100.90346689309514 120.98055641714683 l 0.6820434281025126 15.838599877441299 a36.85327818829599,36.85327818829599 0 0,0 -0.6340161611192278,0.021836798531248012 l -0.4093069153086326 -15.84799347439864" fill="#ffcc13" stroke="none" /><line stroke="#e1ed5e" stroke-width="0.3" x1="102.19456741930631" x2="102.32365962044197" y1="184.97166512339345" y2="189.96999836594603" /><path d="M 102.22038585953345 185.97133177190398 a86.0,86.0 0 0,1 -42.740103519485714,-10.115201625700543" fill="none" id="id31" stroke="none" /><text fill="#e1ed5e" style="font-size:6.75px; font-family:Arial;" text-anchor="middle"><textPath startOffset="22.20632615414155" xlink:href="#id31">July</textPath></text><path d="M 100.18074693466247 120.99922214144158 l 0.07433650863841536 8.636433370404834 a29.636753283379047,29.636753283379047 0 0,0 -0.5101668866017357,0.0 l 0.0743365086384094 -8.636433370404834" fill="#ff6d0a" stroke="none" /><path d="M 98.37488393609728 120.93702456842531 l -1.2551069729269149 16.170048473378326 a37.21868555539858,37.21868555539858 0 0,0 -0.6383105280460764,-0.05507611823044383 l 1.5332618187145328 -16.14604810286922" fill="#ffd113" stroke="none" /><path d="M 98.01472825383883 120.90594882070398 l -0.2746528878750618 2.892238419489616 a23.90524995206779,23.90524995206779 0 0,0 -0.40931184060758474,-0.04242684585411723 l 0.32439732508823993 -2.887082205179738" fill="#ff1d03" stroke="none" /><path d="M 97.65516085044442 120.86867818915974 l -1.0322129306374224 9.186523295742687 a30.24433198221473,30.24433198221473 0 0,0 -0.5168505407879372,-0.06258340263534147 l 1.190190894476749 -9.167394364381996" fill="#ff760a" stroke="none" /><path d="M 97.2962882734958 120.8252237178851 l -1.69591406184789 13.062705390546279 a34.17233451691006,34.17233451691006 0 0,0 -0.582673141090708,-0.0807531880254151 l 1.9205157941254292 -13.03157763702826" fill="#ffaa0f" stroke="none" /><path d="M 96.93821686468263 120.77559828337769 l -0.8266626268127242 5.609283836088133 a26.669870920256344,26.669870920256344 0 0,0 -0.4535962578526514,-0.07084240679838576 l 0.9230947482738927 -5.594223121942642" fill="#ff4406" stroke="none" /><path d="M 96.58105272829116 120.7198165907248 l -1.139837911828559 6.907749842084641 a28.001159785782786,28.001159785782786 0 0,0 -0.47488770750866727,-0.08256531509505277 l 1.2585745908092765 -6.887105948468582" fill="#ff5708" stroke="none" /><path d="M 96.22490169976321 120.6578951692458 l -0.6233956785583187 3.4113131771458294 a24.467806189021232,24.467806189021232 0 0,0 -0.41366017130884053,-0.07927895635084264 l 0.6820234644388543 -3.4000770224465184" fill="#ff2503" stroke="none" /><path d="M 95.86986931433489 120.58985236759428 l -1.5928265002666921 7.940683959834966 a29.098861525543708,29.098861525543708 0 0,0 -0.4902583652581554,-0.10273840713264866 l 1.7292763269542344 -7.912089571975776" fill="#ff6609" stroke="none" /><path d="M 95.51606077576429 120.51570834832081 l -0.859315232862408 3.931690376485753 a25.024501445642684,25.024501445642684 0 0,0 -0.4200301205275346,-0.09559748793139791 l 0.9268655027828052 -3.916316154976668" fill="#ff2d04" stroke="none" /><path d="M 95.16358092515715 120.4354850818985 l -2.906098992832258 12.279238357042816 a33.618443088797136,33.618443088797136 0 0,0 -0.5619830484937881,-0.13812176034013396 l 3.1170353260692565 -12.227395338388652" fill="#ffa20f" stroke="none" /><path d="M 94.81253420990036 120.34920634021253 l -2.7571366703706897 10.815597689457155 a32.16149434436508,32.16149434436508 0 0,0 -0.5352737927057063,-0.1413706736813729 l 2.942900905887885 -10.7665356664722" fill="#ff8f0d" stroke="none" /><path d="M 94.46302465271185 120.25689768951611 l -5.39270531933692 19.729089091397093 a41.452829316197025,41.452829316197025 0 0,0 -0.6866736815706798,-0.19406084140988789 l 5.731510169012213 -19.633339456648685" fill="#f9ff18" stroke="none" /><path d="M 94.11515582081647 120.15858648285463 l -3.42137279543219 11.71994317721677 a33.20913018533726,33.20913018533726 0 0,0 -0.5473576682960506,-0.1649143754141811 l 3.6226054381684865 -11.659313432696862" fill="#ff9d0e" stroke="none" /><path d="M 93.08242187328487 119.8279376855182 l -3.036991162346962 8.704964427641345 a30.21952932674303,30.21952932674303 0 0,0 -0.489672129374618,-0.17557900389385836 l 3.186382852351307 -8.65139788270753" fill="#ff750a" stroke="none" /><path d="M 92.7421414339146 119.70592522655815 l -2.1592268156032106 5.862550473810855 a27.247540195885087,27.247540195885087 0 0,0 -0.4387240357742829,-0.16588789020636943 l 2.2598210721377767 -5.824514333497853" fill="#ff4d07" stroke="none" /><path d="M 92.40401165467489 119.57807347666478 l -3.4689691015243778 8.941000021376048 a30.590371630420655,30.590371630420655 0 0,0 -0.4892695765097791,-0.1946904618665171 l 3.622359754076015 -8.879962715103465" fill="#ff7a0b" stroke="none" /><path d="M 92.06813273071674 119.44442032107085 l -1.4644666043913923 3.5900379110265597 a24.877245754138574,24.877245754138574 0 0,0 -0.39510816514765673,-0.1651552450759421 l 1.5260462290365113 -3.5642976229306447" fill="#ff2b04" stroke="none" /><path d="M 91.7346041902142 119.30500536409082 l -5.669531977019863 13.241996844079678 a35.4046545691685,35.4046545691685 0 0,0 -0.5581785308921883,-0.24468906458818493 l 5.896631182569795 -13.142443226197042" fill="#ffba11" stroke="none" /><path d="M 91.40352486487194 119.15986991738527 l -2.35754006119153 5.254497941007699 a26.75914435937988,26.75914435937988 0 0,0 -0.4186302537112393,-0.19217261696150043 l 2.4476383106701887 -5.213138253712124" fill="#ff4606" stroke="none" /><path d="M 91.07499286063937 119.00905698771935 l -3.4694018785683496 7.389356332518388 a29.163292007759075,29.163292007759075 0 0,0 -0.45256892498754614,-0.21726058656230468 l 3.596083471556138 -7.328541469456521" fill="#ff6709" stroke="none" /><path d="M 90.7491055286396 118.85261126421891 l -1.673392864730644 3.4102459247322083 a24.79868673976732,24.79868673976732 0 0,0 -0.38159993878834064,-0.1913421311932552 l 1.731846711201745 -3.380935952629651" fill="#ff2a04" stroke="none" /><path d="M 90.10565033884886 118.52300852407294 l -3.6670950193429825 6.865093172174471 a28.783128557561326,28.783128557561326 0 0,0 -0.43500516224867836,-0.23719949849935404 l 3.7847229934603015 -6.800953021915351" fill="#ff6209" stroke="none" /><line stroke="#e1ed5e" stroke-width="0.3" x1="58.666819895761336" x2="56.23545636021788" y1="174.27360380694188" y2="178.64263932499728" /><path d="M 58.180547188652646 175.14741091055294 a86.0,86.0 0 0,1 -31.652253787137756,-30.449443065178592" fill="none" id="id32" stroke="none" /><text fill="#e1ed5e" style="font-size:6.75px; font-family:Arial;" text-anchor="middle"><textPath startOffset="22.20632615414155" xlink:href="#id32">August</textPath></text><path d="M 89.7882731507175 118.34994917583269 l -7.419519599760846 13.33249601895415 a36.25793961145028,36.25793961145028 0 0,0 -0.542748953607419,-0.30818702073586884 l 7.647917320289472 -13.202805832423648" fill="#ffc412" stroke="none" /><path d="M 89.1626897886671 117.98757091392108 l -5.203501200581489 8.636676907915247 a31.08308547797595,31.08308547797595 0 0,0 -0.4559160408332661,-0.28006086947582876 l 5.351396441347064 -8.54582757161104" fill="#ff810b" stroke="none" /><path d="M 88.54995079064634 117.60387380957326 l -1.9463320924723335 2.992387536589434 a24.56967670571489,24.56967670571489 0 0,0 -0.35254596358148965,-0.23364824091799047 l 1.9975527547937848 -2.958441274580125" fill="#ff2703" stroke="none" /><path d="M 87.95078237400918 117.19931262002967 l -17.03487531457631 24.315947729803884 a50.68926221686413,50.68926221686413 0 0,0 -0.7103078400916696,-0.506785784062554 l 17.450910482516868 -24.01911768389711" fill="#8fff24" stroke="none" /><path d="M 87.07902340077011 116.55440617244103 l -5.3147449736130445 6.809272218740314 a29.637864451555938,29.637864451555938 0 0,0 -0.3994654983272131,-0.31735955126037424 l 5.431167964657615 -6.716778753474809" fill="#ff6d0a" stroke="none" /><path d="M 85.97065885151581 115.62618273729859 l -8.84693526927563 9.853907301818625 a34.24264900884968,34.24264900884968 0 0,0 -0.4352084975195402,-0.3975526437902175 l 9.015243316262024 -9.70016189144183" fill="#ffab0f" stroke="none" /><path d="M 85.70375840098266 115.38237550388516 l -7.39936404314182 7.961518795917445 a31.869055606660904,31.869055606660904 0 0,0 -0.3986123285560116,-0.3769128367767841 l 7.5353122060886495 -7.83297132239473" fill="#ff8b0c" stroke="none" /><path d="M 85.18274418774928 114.88116024355367 l -2.703628962052346 2.7152892771244024 a24.831762704410988,24.831762704410988 0 0,0 -0.30029804453245407,-0.3042003336631488 l 2.749967631640333 -2.6683484494805887" fill="#ff2b04" stroke="none" /><path d="M 84.67929136418377 114.36230785411682 l -2.8053495699376056 2.629858390992862 a24.845275200323726,24.845275200323726 0 0,0 -0.2898066383168539,-0.31452786838673075 l 2.8502026162501886 -2.5811792678047873" fill="#ff2b04" stroke="none" /><path d="M 84.43433777217949 114.09645910891817 l -7.274880901937373 6.588223466208987 a30.814712455190925,30.814712455190925 0 0,0 -0.35266873520172687,-0.3962270626147364 l 7.387208486787438 -6.462022233853387" fill="#ff7d0b" stroke="none" /><path d="M 84.19399662182784 113.82643327865904 l -9.87947397772793 8.642152257789775 a34.12595907823212,34.12595907823212 0 0,0 -0.3829541845174515,-0.4454622331628523 l 10.02677067181616 -8.470812925465392" fill="#ffa90f" stroke="none" /><path d="M 83.95833913139862 113.55231037782056 l -6.889384540144961 5.82028746056788 a30.018833930483037,30.018833930483037 0 0,0 -0.33006994443238896,-0.3975905110635869 l 6.9885504844708874 -5.700835692390532" fill="#ff730a" stroke="none" /><path d="M 83.72743513129214 113.27417163493432 l -2.524565351702832 2.0593873216971703 a24.257991153423454,24.257991153423454 0 0,0 -0.26115701377717554,-0.3258335294135984 l 2.5596402775348683 -2.0156259587053125" fill="#ff2203" stroke="none" /><path d="M 83.28015986056508 112.70617746262583 l -3.6650908287545807 2.7852715156624694 a25.60332794823285,25.60332794823285 0 0,0 -0.2636395811388666,-0.3531883023001158 l 3.7124916765885323 -2.721770333853046" fill="#ff3605" stroke="none" /><path d="M 82.6465618267979 111.8261652097733 l -18.378281017195057 12.524583624968438 a43.24019802352982,43.24019802352982 0 0,0 -0.41386407257878893,-0.6186706346905303 l 18.591148195184577 -12.206376076072086" fill="#e4ff1a" stroke="none" /><path d="M 82.44556493220864 111.52570212397912 l -10.69329210631881 7.020886691378693 a33.79215955201617,33.79215955201617 0 0,0 -0.31506383315579417,-0.4889860657078964 l 10.81256080285165 -6.835779025749348" fill="#ffa50f" stroke="none" /><path d="M 82.05923443525364 110.91462005526583 l -8.845034773554612 5.381052083901284 a31.35327782275008,31.35327782275008 0 0,0 -0.27653460296761034,-0.4634879008143602 l 8.936350252220453 -5.228002089200813" fill="#ff840c" stroke="none" /><line stroke="#e1ed5e" stroke-width="0.3" x1="26.63291911575756" x2="22.317208475507996" y1="142.92168965132927" y2="145.44649492493687" /><path d="M 25.769776987707644 143.4266507060508 a86.0,86.0 0 0,1 -11.730757126820373,-40.83630448921669" fill="none" id="id33" stroke="none" /><text fill="#e1ed5e" style="font-size:6.75px; font-family:Arial;" text-anchor="middle"><textPath startOffset="21.46611528233685" xlink:href="#id33">September</textPath></text><path d="M 81.87401531095188 110.60418214915194 l -5.520969410114072 3.2299136443670915 a27.39636188606336,27.39636188606336 0 0,0 -0.23462766656645664,-0.409093113483493 l 5.575749072832905 -3.1344006850252915" fill="#ff4f07" stroke="none" /><path d="M 81.69416730710424 110.29060199501025 l -3.3437751998123515 1.8796992368125716 a24.835896480322937,24.835896480322937 0 0,0 -0.20628410659944615,-0.37446557274714265 l 3.375635715863314 -1.8218631456676062" fill="#ff2b04" stroke="none" /><path d="M 81.51974371655577 109.97397251340807 l -10.137881265781703 5.471512274409656 a32.52015985688146,32.52015985688146 0 0,0 -0.2616285447593272,-0.4949026093932489 l 10.230562318765916 -5.29619464993028" fill="#ff940d" stroke="none" /><path d="M 81.35079622478065 109.6543875284942 l -9.06683559297247 4.69375237285009 a31.20974137809711,31.20974137809711 0 0,0 -0.24287321198262968,-0.47921188862932634 l 9.146287474741365 -4.536986272518079" fill="#ff830c" stroke="none" /><path d="M 81.18737489456691 109.33194174019688 l -10.939068976477467 5.426289728752494 a33.21097253671863,33.21097253671863 0 0,0 -0.24963065997995434,-0.5143130977178343 l 11.03085289307214 -5.237187675069374" fill="#ff9d0e" stroke="none" /><path d="M 80.87730276802145 108.67885076344099 l -11.120196471402755 5.046909673079738 a33.21188219771318,33.21188219771318 0 0,0 -0.23178559185377903,-0.5226153200210925 l 11.205423147987814 -4.85474601656595" fill="#ff9d0e" stroke="none" /><path d="M 80.73074385275274 108.34839909993369 l -3.5200674896538064 1.5250681208329773 a24.836236163858878,24.836236163858878 0 0,0 -0.1665790235502702,-0.3937436050247627 l 3.5457974943963833 -1.4642499901420558" fill="#ff2b04" stroke="none" /><path d="M 80.58989483394504 108.01547362559985 l -4.725379679525712 1.9513627498743749 a26.11243872308234,26.11243872308234 0 0,0 -0.16798677175488472,-0.41692939100073895 l 4.758269065537984 -1.8697339910308306" fill="#ff3d05" stroke="none" /><path d="M 80.45479744820244 107.68017299344265 l -12.679190092211917 4.9822135670820025 a34.622933363356836,34.622933363356836 0 0,0 -0.21318777814927548,-0.5565660166940599 l 12.7630721499547 -4.763223983554785" fill="#ffaf10" stroke="none" /><path d="M 80.32549172779594 107.34259656027581 l -8.21055507947983 3.064208398525327 a29.76370856559968,29.76370856559968 0 0,0 -0.17500456716012155,-0.4815374073538282 l 8.262083907645176 -2.9224231941653813" fill="#ff6f0a" stroke="none" /><path d="M 80.20201598880116 107.00284435728193 l -16.285094758265398 5.7602826566185685 a38.27382897824984,38.27382897824984 0 0,0 -0.21435015346442604,-0.6230018810503658 l 16.381835742673054 -5.479108072478906" fill="#ffde14" stroke="none" /><path d="M 79.97269907076064 106.31721596034903 l -6.8623479909544765 2.1645919441214083 a28.195643003478718,28.195643003478718 0 0,0 -0.14201638865442326,-0.4641177751359124 l 6.89859115211503 -2.046147196433448" fill="#ff5a08" stroke="none" /><path d="M 79.86692584326677 105.97154293290107 l -4.418679721444545 1.3105964572489757 a25.60894711994603,25.60894711994603 0 0,0 -0.12171245162690537,-0.4236970112868264 l 4.440584809957555 -1.2343419704575531" fill="#ff3605" stroke="none" /><path d="M 79.67330655649465 105.27499134158121 l -3.7095487639751057 0.9626670302047653 a24.832424799438666,24.832424799438666 0 0,0 -0.10380980647664359,-0.41466857416290215 l 3.725569884746808 -0.8986706166444713" fill="#ff2b04" stroke="none" /><path d="M 79.50377843672027 104.57218783832718 l -3.5214662152869036 0.7855499099141482 a24.608020643839666,24.608020643839666 0 0,0 -0.08866616843356832,-0.4142188204342418 l 3.534466422444913 -0.7248172700637425" fill="#ff2703" stroke="none" /><path d="M 79.35854240842038 103.8639653848113 l -8.508376442690635 1.5927204709085945 a29.656167061060238,29.656167061060238 0 0,0 -0.08960901460036373,-0.5025749420073636 l 8.534531899630187 -1.4460267781680172" fill="#ff6e0a" stroke="none" /><path d="M 79.23777060512086 103.15116336523772 l -6.067137811674823 0.9208328277460281 a27.136619128030443,27.136619128030443 0 0,0 -0.06611766047079948,-0.4624267633385223 l 6.082089523162222 -0.8162605924271054" fill="#ff4b07" stroke="none" /><path d="M 79.18660465613746 102.79330883721812 l -5.853248533931864 0.7855484694421647 a26.905726441160176,26.905726441160176 0 0,0 -0.05765319440330382,-0.4595526848782848 l 5.865903237582016 -0.6846780302764713" fill="#ff4806" stroke="none" /><path d="M 79.1416061653843 102.43462659150553 l -1.7195548695398915 0.20070931847048323 a22.731228806333593,22.731228806333593 0 0,0 -0.04201780887213627,-0.3890327257654708 l 1.7227549799130797 -0.17108027082023028" fill="#ff0c01" stroke="none" /><path d="M 79.07016306316243 101.71520430193888 l -3.8206703661968184 0.3131046968099959 a24.83347839413489,24.83347839413489 0 0,0 -0.031246950452758045,-0.4263398131101387 l 3.825493875313912 -0.24729174720309655" fill="#ff2b04" stroke="none" /><path d="M 79.04373962182676 101.35467743843564 l -10.088093261534755 0.652125526769535 a31.109148992674278,31.109148992674278 0 0,0 -0.029944258186924602,-0.5346748453424323 l 10.097823870609211 -0.47837896509166505" fill="#ff810b" stroke="none" /><path d="M 79.0235259727143 100.99374915477108 l -13.342078071877514 0.632073759849794 a34.3570417575886,34.3570417575886 0 0,0 -0.02290120505468903,-0.590978343244344 l 13.350981409783405 -0.40231816959145317" fill="#ffac0f" stroke="none" /><path d="M 79.0095281055655 100.63252640178507 l -7.561567524795194 0.22786010349685082 a28.564999911355116,28.564999911355116 0 0,0 -0.010579846605394651,-0.49160389904370505 l 7.564369434085596 -0.09766638866301691" fill="#ff5f08" stroke="none" /><line stroke="#e1ed5e" stroke-width="0.3" x1="15.007084014347285" x2="10.007500721073583" y1="101.09737516637583" y2="101.16192664675087" /><path d="M 14.007167355692545 101.11028546245083 a86.0,86.0 0 0,1 10.666146001902534,-42.60595125391555" fill="none" id="id34" stroke="none" /><text fill="#e1ed5e" style="font-size:6.75px; font-family:Arial;" text-anchor="middle"><textPath startOffset="22.20632615414155" xlink:href="#id34">October</textPath></text><path d="M 79.00175016825051 100.2711162175752 l -11.297243696204541 0.14586291736129464 a32.298185302166644,32.298185302166644 0 0,0 -0.002392684496129266,-0.5559756122835525 l 11.298080677990173 0.04862217312593322" fill="#ff910d" stroke="none" /><path d="M 79.00019446554 99.90962569577889 l -9.977518466083716 -0.04293903044702086 a30.977610861392485,30.977610861392485 0 0,0 0.006884394733347436,-0.5332039589669283 l 9.975301064232653 0.21467924747442108" fill="#ff7f0b" stroke="none" /><path d="M 79.03285615573316 98.82574320788736 l -19.16031595889793 -1.07306609430794 a40.19034076006864,40.19034076006864 0 0,0 0.0446292854217164,-0.6903952920846421 l 19.1390060824718 1.4027204506455937" fill="#fff517" stroke="none" /><path d="M 79.05617556472873 98.46500227214037 l -11.772811559252174 -0.862843319271629 a32.804388616242406,32.804388616242406 0 0,0 0.046122214613351,-0.5628078415685582 l 11.756214860819327 1.0653650780479658" fill="#ff980e" stroke="none" /><path d="M 79.08570108090925 98.10471618934814 l -8.602894252212042 -0.7796066348695098 a29.638146561611208,29.638146561611208 0 0,0 0.05041713260152969,-0.5076936448942813 l 8.588199993928283 0.9275758104682214" fill="#ff6d0a" stroke="none" /><path d="M 79.16333360222342 97.38593545837743 l -3.2320799236519773 -0.405480673482892 a24.257415418616777,24.257415418616777 0 0,0 0.055542551706823075,-0.4138565244480149 l 3.2246213728873205 0.4610555399955663" fill="#ff2203" stroke="none" /><path d="M 79.21141760316559 97.0276538004421 l -21.495308152797495 -3.073393667575079 a42.713913079397116,42.713913079397116 0 0,0 0.11033228822396189,-0.7269519260849313 l 21.439219971134232 3.442944706052103" fill="#eaff1a" stroke="none" /><path d="M 79.3925641242962 95.95851677861259 l -2.641991223633982 -0.5181412799618799 a23.692320191165887,23.692320191165887 0 0,0 0.0819310939852313,-0.399525111507771 l 2.632680833733756 0.5635420476330534" fill="#ff1a02" stroke="none" /><path d="M 79.46518482838121 95.60439243477599 l -5.631063077118001 -1.2053648038791784 a26.758626198053868,26.758626198053868 0 0,0 0.10028828942386506,-0.4495727369297991 l 5.609480400692099 1.302115710358937" fill="#ff4606" stroke="none" /><path d="M 79.62865764111835 94.90015583598534 l -10.154840141814503 -2.5422037154638195 a31.468217519555335,31.468217519555335 0 0,0 0.13606807525136583,-0.52432579960468 l 10.10957573469283 2.716625940617363" fill="#ff860c" stroke="none" /><path d="M 79.71946130924805 94.55025226153421 l -19.78223317560647 -5.315844029316905 a41.48401687067479,41.48401687067479 0 0,0 0.1912476972918857,-0.6880197221349486 l 19.687798707748225 5.655575054870796" fill="#f9ff18" stroke="none" /><path d="M 79.81627453868168 94.20196356495316 l -16.066731962934398 -4.61537675449242 a37.7165061706891,37.7165061706891 0 0,0 0.18462068647127405,-0.6224491749216028 l 15.984905379351416 4.891255316160563" fill="#ffd714" stroke="none" /><path d="M 79.91906864156998 93.8553929516997 l -8.814922940917596 -2.697297085787211 a30.218366342433537,30.218366342433537 0 0,0 0.15648007758205362,-0.4960846079723619 l 8.767187379567337 2.848631860185987" fill="#ff750a" stroke="none" /><path d="M 80.02781315780177 93.51064311812611 l -9.567139813831933 -3.108552162128013 a31.059486108250205,31.059486108250205 0 0,0 0.16958879672523855,-0.5070489165389837 l 9.512213723334922 3.272774181589319" fill="#ff810b" stroke="none" /><path d="M 80.2630227832202 92.82701384747504 l -5.770769076601098 -2.097263741110632 a27.140056264826313,27.140056264826313 0 0,0 0.1633513609372239,-0.4377004341246926 l 5.7338131271622474 2.1962873122646656" fill="#ff4b07" stroke="none" /><path d="M 80.38941819471856 92.48833698450439 l -10.218757772838316 -3.914206400845553 a31.94276117661186,31.94276117661186 0 0,0 0.20109709819698998,-0.5117701802022874 l 10.149867124759634 4.089525585943604" fill="#ff8c0c" stroke="none" /><path d="M 80.52162464483688 92.15188598940014 l -8.908008191619116 -3.5891629882085083 a30.60388988368146,30.60388988368146 0 0,0 0.2010796714700412,-0.48693037396117284 l 8.844906833262876 3.7419679326229924" fill="#ff7a0b" stroke="none" /><path d="M 80.65960295795068 91.81776055985345 l -6.005200264754245 -2.5405883005100987 a27.520507582427403,27.520507582427403 0 0,0 0.18833107663998877,-0.43469409078581667 l 5.960578478271575 2.643581535882515" fill="#ff5007" stroke="none" /><path d="M 81.43458229118936 90.18545643968196 l -6.335470692359129 -3.3492245669090535 a28.166274770990057,28.166274770990057 0 0,0 0.23028196444600407,-0.4266775063492733 l 6.276880628694653 3.4577830565907997" fill="#ff5908" stroke="none" /><path d="M 81.6062741919709 89.86733742301443 l -14.56202135753457 -8.02186845638129 a37.625367350791926,37.625367350791926 0 0,0 0.3173831580837167,-0.5645892236664717 l 14.421780558158424 8.271341189982547" fill="#ffd614" stroke="none" /><line stroke="#e1ed5e" stroke-width="0.3" x1="26.266209847984243" x2="21.928928074336255" y1="57.711370442889674" y2="55.22380399835377" /><path d="M 25.398753493254645 57.213857153982495 a86.0,86.0 0 0,1 29.58750427330803,-30.492523968695096" fill="none" id="id35" stroke="none" /><text fill="#e1ed5e" style="font-size:6.75px; font-family:Arial;" text-anchor="middle"><textPath startOffset="21.46611528233685" xlink:href="#id35">November</textPath></text><path d="M 81.78341655067845 89.55222093294921 l -4.9970799056317565 -2.8659812626052026 a26.76061248313691,26.76061248313691 0 0,0 0.23261385304977603,-0.39761247775038844 l 4.947006378111656 2.951573152709483" fill="#ff4606" stroke="none" /><path d="M 81.96595687620814 89.24020034530311 l -8.456480785408422 -5.045459767962269 a30.847270258508583,30.847270258508583 0 0,0 0.27598641655091466,-0.45364910306754236 l 8.36837857057129 5.190276644236886" fill="#ff7e0b" stroke="none" /><path d="M 82.15384107792192 88.93136811851018 l -7.856886681021016 -4.87303664539346 a30.245385576910948,30.245385576910948 0 0,0 0.27821780163617044,-0.44007374803884186 l 7.771841283138882 5.007558041146518" fill="#ff760a" stroke="none" /><path d="M 82.34701348167596 88.62581576622439 l -6.356930893723306 -4.095902020405171 a28.562207597542727,28.562207597542727 0 0,0 0.2698494328075262,-0.41099919947129765 l 6.28548482555786 4.204719283854135" fill="#ff5f08" stroke="none" /><path d="M 82.54541684631803 88.32363383020206 l -8.996532272655164 -6.018293542104268 a31.82392951251346,31.82392951251346 0 0,0 0.3085034978585843,-0.45269081577528447 l 8.89160430912784 6.172262381149968" fill="#ff8b0c" stroke="none" /><path d="M 82.7489923806493 88.02491185347247 l -10.533289151926638 -7.311866579068334 a33.822385629366785,33.822385629366785 0 0,0 0.3361097642369291,-0.4754034253975284 l 10.405866767885831 7.492096504797649" fill="#ffa50f" stroke="none" /><path d="M 82.95767976084542 87.72973835380427 l -15.285424708378939 -11.005318402251712 a39.83510662700006,39.83510662700006 0 0,0 0.40544055336646867,-0.5530204591486098 l 15.093721542498837 11.266801305071821" fill="#fff116" stroke="none" /><path d="M 83.17141714833178 87.43820079747576 l -9.50777718434294 -7.097138773049906 a32.864535631496096,32.864535631496096 0 0,0 0.34229831695096463,-0.45042446134976366 l 9.384202927167866 7.259748010280696" fill="#ff990e" stroke="none" /><path d="M 83.39014120810768 87.1503855733568 l -5.110527285349909 -3.9535739560675998 a27.46128750021247,27.46128750021247 0 0,0 0.2924573757646814,-0.3713911677096399 l 5.041715828991257 4.040957517730288" fill="#ff4f07" stroke="none" /><path d="M 83.6137871275137 86.86637796730984 l -5.885516381989242 -4.717267389955753 a28.54267291555213,28.54267291555213 0 0,0 0.3105735143511415,-0.38072640596879936 l 5.803444375561708 4.817877965532634" fill="#ff5e08" stroke="none" /><path d="M 83.84228863543731 86.58626213691792 l -14.43853832214379 -11.986522336577435 a39.76560967848592,39.76560967848592 0 0,0 0.44175688981925987,-0.5229008202502713 l 14.230070818837406 12.233282106456821" fill="#fff016" stroke="none" /><path d="M 84.07557802195018 86.31012108654704 l -4.583371081655483 -3.940224342822248 a27.04422520625471,27.04422520625471 0 0,0 0.3065116972534187,-0.3503958558650552 l 4.514867520824221 4.018535754890246" fill="#ff4a06" stroke="none" /><path d="M 84.31358615837235 86.03803664274999 l -8.119246706953373 -7.226675654197412 a31.869544981246584,31.869544981246584 0 0,0 0.3682546552558329,-0.4066359880339301 l 7.993648411081495 7.3653644295008975" fill="#ff8b0c" stroke="none" /><path d="M 84.5562425177563 85.77008943001954 l -10.58747510328621 -9.755321789718327 a35.39655973778661,35.39655973778661 0 0,0 0.4167231550955105,-0.4445312066741617 l 10.417984626220242 9.936122413270537" fill="#ffb911" stroke="none" /><path d="M 84.80347519578584 85.50635884689758 l -4.798939627632483 -4.576974655351467 a27.631630157464382,27.631630157464382 0 0,0 0.3312318458463055,-0.3413635332458684 l 4.719443518083058 4.658902384147459" fill="#ff5207" stroke="none" /><path d="M 85.05521093208273 85.24692304244772 l -3.9986175645621427 -3.947323203138844 a26.61874566942331,26.61874566942331 0 0,0 0.32470331833131516,-0.3233089390920258 l 3.9300784460635145 4.015567992880979" fill="#ff4406" stroke="none" /><path d="M 85.31137513191541 84.99185889309783 l -4.227180272959436 -4.319132566230579 a27.043505537746363,27.043505537746363 0 0,0 0.3354898259068112,-0.3227409467141082 l 4.152207203440197 4.391256599707" fill="#ff4a06" stroke="none" /><path d="M 85.57189188830299 84.74124197986013 l -5.458054243262794 -5.772283400844916 a28.944155825641182,28.944155825641182 0 0,0 0.3649611558496653,-0.33919161945862236 l 5.357885203618272 5.865379606378186" fill="#ff6409" stroke="none" /><path d="M 85.83668400450813 84.49514656593479 l -13.139457741409142 -14.38401618296784 a40.48192165291087,40.48192165291087 0 0,0 0.5185329583635122,-0.46554400981439864 l 12.88991379544966 14.608059201551518" fill="#fff917" stroke="none" /><path d="M 86.10567301691215 84.25364557470407 l -8.906665018600892 -10.093868116173153 a34.46160671317751,34.46160671317751 0 0,0 0.4481751667602266,-0.3886530882230369 l 8.731596053193892 10.24568619781587" fill="#ffad10" stroke="none" /><path d="M 86.37877921826538 84.01681056812374 l -7.028861610180626 -8.247691481266273 a31.836480531299046,31.836480531299046 0 0,0 0.4201543156665499,-0.351867156379473 l 6.885849757554966 8.367459795039558" fill="#ff8b0c" stroke="none" /><path d="M 86.65592168130627 83.78471172551755 l -3.8436226538521203 -4.6706447505806095 a27.048831084708137,27.048831084708137 0 0,0 0.362063547176874,-0.292763541985072 l 3.7626557081107457 4.736114389829816" fill="#ff4a06" stroke="none" /><path d="M 86.93701828274178 83.55741782278169 l -6.565028910620769 -8.263505966335583 a31.5539156455294,31.5539156455294 0 0,0 0.4281827960105493,-0.3342034640092016 l 6.4218135594507935 8.375287819568005" fill="#ff870c" stroke="none" /><path d="M 87.22198572758235 83.33499621200491 l -3.5033917957092435 -4.569100980920955 a26.75764169153445,26.75764169153445 0 0,0 0.3679224740374016,-0.2771115796121549 l 3.424223167913452 4.628729150038964" fill="#ff4606" stroke="none" /><path d="M 87.51073957382395 83.11751280151077 l -6.9172388950729315 -9.350449354887566 a32.630954263078635,32.630954263078635 0 0,0 0.4544321621944229,-0.33016429192767915 l 6.755261416524727 9.468132881631913" fill="#ff950d" stroke="none" /><path d="M 87.80319425747018 82.90503203632743 l -7.0862075081381874 -9.931984889547985 a33.20076475859622,33.20076475859622 0 0,0 0.46808155176326455,-0.32792104013150425 l 6.914194816791262 10.052490772443432" fill="#ff9d0e" stroke="none" /><path d="M 88.09926311788651 82.69761687909137 l -8.221434428112152 -11.9530756530231 a35.50751534972965,35.50751534972965 0 0,0 0.5065659481936544,-0.3420355894820283 l 8.014463785511959 12.092823154803794" fill="#ffbb11" stroke="none" /><path d="M 88.39885842347998 82.49532879139004 l -12.61234519603316 -19.03045095776491 a43.83044710468448,43.83044710468448 0 0,0 0.6324795593970008,-0.4113822989953288 l 12.282898610851873 19.244732180919772" fill="#ddff1b" stroke="none" /><path d="M 88.70189139769569 82.29822771554957 l -4.6475843464650195 -7.281792260088612 a29.638549575975883,29.638549575975883 0 0,0 0.4324135210259434,-0.2707773071967543 l 4.521551673066834 7.3607139086082976" fill="#ff6d0a" stroke="none" /><path d="M 89.00827224532344 82.1063720568725 l -4.4180293941705475 -7.192188160542284 a29.440767397837686,29.440767397837686 0 0,0 0.43409420885872657,-0.26153690372413163 l 4.293573119094171 7.267171673725035" fill="#ff6b09" stroke="none" /><line stroke="#e1ed5e" stroke-width="0.3" x1="56.762969772571076" x2="54.21961505331055" y1="26.818313649435495" y2="22.513508569990535" /><path d="M 56.25429882871897 25.957352633546506 a86.0,86.0 0 0,1 42.265352541879196,-11.944610805530505" fill="none" id="id36" stroke="none" /><text fill="#e1ed5e" style="font-size:6.75px; font-family:Arial;" text-anchor="middle"><textPath startOffset="22.20632615414155" xlink:href="#id36">December</textPath></text><path d="M 89.3179101791058 81.91981866633112 l -2.257361546456203 -3.8207417069034553 a25.437763889876372,25.437763889876372 0 0,0 0.3789055077870961,-0.2194865267685324 l 2.191259306203787 3.8590323910620348" fill="#ff3304" stroke="none" /><path d="M 90.26544431104013 81.39251694778311 l -29.20366706687963 -55.822449156650684 a84.0,84.0 0 0,0 1.286958049644945,-0.6592298987499792 l 28.23844852964592 56.31687158071317" fill="#4dd2ff" stroke="none" /><path d="M 91.90106846888425 80.62456947434976 l -3.3324450710724127 -7.972355082524558 a29.640812213766132,29.640812213766132 0 0,0 0.4724408555452033,-0.192720487260316 l 3.1947203459388294 8.028536455968451" fill="#ff6d0a" stroke="none" /><path d="M 92.57280143429618 80.3572730644239 l -6.787601057883443 -17.951182124480837 a40.19157283255494,40.19157283255494 0 0,0 0.6492234218953176,-0.23911446530588598 l 6.477595310215556 18.065359857593045" fill="#fff517" stroke="none" /><path d="M 92.91201910852362 80.23233633223022 l -2.660615718192629 -7.420188833982396 a28.88277098055314,28.88277098055314 0 0,0 0.46943854800864276,-0.1637778917327012 l 2.5324951661207007 7.464887578887307" fill="#ff6309" stroke="none" /><path d="M 93.25333710446033 80.11325718540243 l -2.776652302849164 -8.184575261471466 a29.64274668271657,29.64274668271657 0 0,0 0.48461257771873506,-0.15976914760683988 l 2.6353569028880193 8.23115813333754" fill="#ff6d0a" stroke="none" /><path d="M 93.59665428221793 80.00007090966166 l -1.6424968001943527 -5.130102446877232 a26.386626667414816,26.386626667414816 0 0,0 0.4337642614482263,-0.13477266748819408 l 1.5539471660353976 5.157615249247951" fill="#ff4106" stroke="none" /><path d="M 93.94186890950719 79.89281104454417 l -1.1063794763057968 -3.6721194794596737 a24.835171054466525,24.835171054466525 0 0,0 0.4103832047815247,-0.11980211092416283 l 1.0430060538008508 3.6906199193025353" fill="#ff2b04" stroke="none" /><path d="M 94.63758080256005 79.69619591428918 l -2.205729202838793 -8.351583856396463 a29.63795081177694,29.63795081177694 0 0,0 0.49437670128365085,-0.12602762891363284 l 2.0616436128701427 8.38831448147896" fill="#ff6d0a" stroke="none" /><path d="M 94.98787191387505 79.60689891045804 l -4.128276663404762 -16.79692974237202 a38.29680655438437,38.29680655438437 0 0,0 0.6415194957528759,-0.15182693798108496 l 3.838533480689352 16.86550259249397" fill="#ffde14" stroke="none" /><path d="M 95.33964822691252 79.52364482259891 l -3.0994687790597912 -13.618247435267719 a34.96650886659018,34.96650886659018 0 0,0 0.5880322389136545,-0.12852107158151924 l 2.864593815992616 13.669582004945106" fill="#ffb410" stroke="none" /><path d="M 95.692805502759 79.44645832069477 l -1.2421657812334108 -5.927502501579995 a27.056258063714285,27.056258063714285 0 0,0 0.45664984247171414,-0.0915996624611502 l 1.1399495292945603 5.948006120118356" fill="#ff4a06" stroke="none" /><path d="M 96.40284397218896 79.31037775812273 l -1.47993634980077 -8.512092270302036 a29.639787405810242,29.639787405810242 0 0,0 0.5034117382811903,-0.08306725021461482 l 1.333195405380694 8.536305783456276" fill="#ff6d0a" stroke="none" /><path d="M 96.75951476605007 79.25152402106235 l -2.27977627887599 -14.597160593122876 a35.7741151093101,35.7741151093101 0 0,0 0.609234917181212,-0.08978539002481255 l 2.0281723812661294 14.634240467308658" fill="#ffbe11" stroke="none" /><path d="M 97.11714578562143 79.19881850522333 l -1.5913782121902178 -11.482560184104758 a32.59231094285439,32.59231094285439 0 0,0 0.5563744493764512,-0.07223337158268095 l 1.393489034305909 11.508251878851576" fill="#ff950d" stroke="none" /><path d="M 97.83486435360386 79.11191278185805 l -1.6622841688431425 -16.03684127501508 a37.1227623792579,37.1227623792579 0 0,0 0.6361690187283234,-0.06041191382873712 l 1.3859900230245825 16.063078733359" fill="#ffcf13" stroke="none" /><path d="M 98.55514903715128 79.0497635885617 l -0.6598202438940763 -9.567346705004878 a30.590072248321185,30.590072248321185 0 0,0 0.5256218569491488,-0.03170694582219866 l 0.4950363381053046 9.577286920207383" fill="#ff7a0b" stroke="none" /><path d="M 98.91598698831166 79.02799685794201 l -0.19794677537690647 -3.8296038427611356 a24.83471622396925,24.83471622396925 0 0,0 0.42710883044267056,-0.018392204686154514 l 0.13199711254491178 3.8324437739714825" fill="#ff2b04" stroke="none" /><path d="M 99.27714615592234 79.0124445844662 l -0.2974318711905309 -8.635726198457501 a29.64084675785453,29.64084675785453 0 0,0 0.5100672632647072,-0.013173532565120077 l 0.14873797273094458 8.63956652316498" fill="#ff6d0a" stroke="none" /><path d="M 99.63851952072746 79.00311137660856 l -0.5707778253601973 -33.154095767239994 a54.15900863218386,54.15900863218386 0 0,0 0.9322583046327249,-0.008024241552424512 l 8.121614756860684e-15 33.15900863218386" fill="#6bff28" stroke="none" /></svg>