<?xml version="1.0" encoding="utf-8" ?>
<svg baseProfile="full" height="200mm" version="1.1" viewBox="0,0,200,200" width="200mm" xmlns="http://www.w3.org/2000/svg" xmlns:ev="http://www.w3.org/2001/xml-events" xmlns:xlink="http://www.w3.org/1999/xlink"><defs /><rect fill="#1a1a1a" height="200" width="200" x="0" y="0" /><text alignment-baseline="middle" fill="#e1ed5e" style="dominant-baseline: central; font-size:9.0px; font-family:Arial;" text-anchor="middle" x="100.0" y="100.0">2022</text><line stroke="#e1ed5e" stroke-width="0.3" x1="100.0" x2="100.0" y1="15.0" y2="10.0" /><path d="M 100.0 14.0 a86.0,86.0 0 0,1 42.46469731375804,11.215312516191453" fill="none" id="id85" stroke="none" /><text fill="#e1ed5e" style="font-size:6.75px; font-family:Arial;" text-anchor="middle"><textPath startOffset="22.20632615414155" xlink:href="#id85">January</textPath></text><path d="M 100.0 79.0 l 0.0 -17.225609139362575 a38.225609139362575,38.225609139362575 0 0,0 0.6579910243895774,0.005663536482101278 l -0.296510545117049 17.223056979489034" fill="#ffda14" stroke="none" /><path d="M 100.36148047927253 79.00311137660856 l 0.31901142080364514 -18.53003870550375 a39.532784537518104,39.532784537518104 0 0,0 0.6802902556399628,0.01756989025142701 l -0.6379283116384757 18.52180202310996" fill="#ffeb16" stroke="none" /><path d="M 100.72285384407766 79.0124445844662 l 0.6452108236419387 -18.733244661880168 a39.7443525513368,39.7443525513368 0 0,0 0.6835255849840832,0.029434049523676543 l -0.9675772410153535 18.719362885832297" fill="#ffed16" stroke="none" /><path d="M 101.44485096284872 79.0497635885617 l 0.4100108403670344 -5.945128084356792 a26.959249686716134,26.959249686716134 0 0,0 0.46268467021536785,0.0359132353134097 l -0.5122856999447435 5.9371895868549185" fill="#ff4406" stroke="none" /><path d="M 102.52436894288641 79.15227682838746 l 7.57310682865922 -62.54316951483763 a84.0,84.0 0 0,0 1.4339410859686157,0.1861667073434532 l -8.648562643135682 62.40354448433004" fill="#4dd2ff" stroke="none" /><path d="M 102.88285421437855 79.19881850522331 l 3.5263342294779596 -25.444199693749187 a46.687396348275044,46.687396348275044 0 0,0 0.7950886265316693,0.11717539560557765 l -3.963791836438285 25.37972981398264" fill="#beff1f" stroke="none" /><path d="M 103.59715602781102 79.31037775812273 l 2.554136818869915 -14.690529275886263 a35.9109109478656,35.9109109478656 0 0,0 0.6080997685095362,0.1111263458192162 l -2.806631708482352 14.644387448716307" fill="#ffbd11" stroke="none" /><path d="M 103.95276090670814 79.375362276772 l 1.110749396957194 -5.79564624681907 a26.901125286003403,26.901125286003403 0 0,0 0.45403154402347096,0.0910744564241057 l -1.2103473504477904 5.775667834317756" fill="#ff4406" stroke="none" /><path d="M 104.66035177308747 79.52364482259891 l 3.097349218783491 -13.608934647059767 a34.956957921088765,34.956957921088765 0 0,0 0.585572846308896,0.138586173621442 l -3.3311457520549106 13.553602561297456" fill="#ffb110" stroke="none" /><path d="M 105.01212808612495 79.60689891045804 l 4.796561921143219 -19.516016043346323 a41.09681289328017,41.09681289328017 0 0,0 0.6855165838043192,0.17475344087516956 l -5.131787393632564 19.430559606302285" fill="#fffe18" stroke="none" /><path d="M 105.36241919743992 79.69619591428918 l 2.13715677588454 -8.091947100802019 a29.369411387122,29.369411387122 0 0,0 0.48767503537841067,0.13330000920010665 l -2.276129700486661 8.053960550775617" fill="#ff6609" stroke="none" /><path d="M 106.0581310904928 79.89281104454417 l 2.1888305519173383 -7.264819602194604 a28.5873963279532,28.5873963279532 0 0,0 0.4699422556440641,0.14601334639029462 l -2.313558180272121 7.2260661209217885" fill="#ff5b08" stroke="none" /><path d="M 106.40334571778207 80.00007090966166 l 11.530154147088329 -36.012777617496965 a58.81355056567564,58.81355056567564 0 0,0 0.9615096282909825,0.31699460721999606 l -12.148346597621728 35.80896928601773" fill="#3dff2e" stroke="none" /><path d="M 107.4271985657038 80.35727306442388 l 8.156019780346634 -21.570241862966164 a44.06070234585806,44.06070234585806 0 0,0 0.7071046882139443,0.2743456334965639 l -8.526107633560246 21.426653525579052" fill="#ddff1b" stroke="none" /><path d="M 107.76421540070413 80.48803036053334 l 2.5363887626211534 -6.374107102394418 a27.860212045406893,27.860212045406893 0 0,0 0.4440601127755044,0.18114326968654412 l -2.645732744985045 6.329502946524294" fill="#ff5107" stroke="none" /><path d="M 108.09893153111575 80.62456947434976 l 3.3467495963091483 -8.006576428125769 a29.677902912559844,29.677902912559844 0 0,0 0.46964043678884504,0.2010755254987371 l -3.4840737908883086 7.94778137466424" fill="#ff6a09" stroke="none" /><path d="M 108.43124777332544 80.76684994638697 l 2.3973953473484473 -5.46887788059869 a26.971275385073913,26.971275385073913 0 0,0 0.42360042427400735,0.19005716271575493 l -2.4911778900892347 5.426800387366404" fill="#ff4506" stroke="none" /><path d="M 109.41281617654863 81.2277094730956 l 3.1909201698772995 -6.363757599594336 a28.118945309308426,28.118945309308426 0 0,0 0.43080836920644483,0.22067677939538238 l -3.2999890266725003 6.307888294886453" fill="#ff5507" stroke="none" /><path d="M 109.73455568895987 81.39251694778311 l 6.092236866441971 -11.645235577723891 a34.142559176108776,34.142559176108776 0 0,0 0.5184059103572641,0.2769144837792413 l -6.291787823327547 11.538642367442895" fill="#ffa60f" stroke="none" /><path d="M 110.05341064243156 81.56283822128135 l 6.8232147125204765 -12.513237346012422 a35.25262670144686,35.25262670144686 0 0,0 0.5302597891391897,0.2950889985558677 l -7.037598590731703 12.393932949896376" fill="#ffb410" stroke="none" /><path d="M 110.36928655335952 81.73862282372117 l 12.028327419980045 -21.18311830671391 a45.35990890209735,45.35990890209735 0 0,0 0.6756537009357689,0.39138223401076777 l -12.39117785338114 20.972931915313094" fill="#cdff1d" stroke="none" /><line stroke="#e1ed5e" stroke-width="0.3" x1="143.23703022742887" x2="145.7803849466894" y1="26.81831364943548" y2="22.513508569990506" /><path d="M 143.74570117128098 25.957352633546492 a86.0,86.0 0 0,1 28.547481713284135,27.462654790039103" fill="none" id="id86" stroke="none" /><text fill="#e1ed5e" style="font-size:6.75px; font-family:Arial;" text-anchor="middle"><textPath startOffset="19.985693538727396" xlink:href="#id86">February</textPath></text><path d="M 110.68208982089419 81.91981866633111 l 21.83886509446429 -36.96380087135359 a63.93318766957901,63.93318766957901 0 0,0 0.9426733395299267,0.5679501394227934 l -22.471900500211852 36.582404122472184" fill="#34ff5c" stroke="none" /><path d="M 110.99172775467656 82.1063720568725 l 9.803189010891465 -15.95878470902045 a39.72926384490667,39.72926384490667 0 0,0 0.5796326444013572,0.3629659087485289 l -10.076440807665085 15.787674458948977" fill="#ffed16" stroke="none" /><path d="M 111.2981086023043 82.29822771554956 l 7.459584373427394 -11.687607949539888 a34.86526518341536,34.86526518341536 0 0,0 0.503110714540483,0.3272372036721199 l -7.659662113752158 11.55747182170824" fill="#ffaf10" stroke="none" /><path d="M 111.60114157652 82.49532879139004 l 7.940754079546799 -11.981604430396997 a35.37408849556549,35.37408849556549 0 0,0 0.5046624215675702,0.3407503198069312 l -8.145821195520911 11.843142198291396" fill="#ffb610" stroke="none" /><path d="M 111.90073688211348 82.69761687909136 l 3.375228050706763 -4.907216202850357 a26.955915987973206,26.955915987973206 0 0,0 0.3800384441922891,0.2662412168136955 l -3.4591976344827033 4.848390143272726" fill="#ff4406" stroke="none" /><path d="M 112.19680574252982 82.90503203632743 l 15.532568686955205 -21.77035280402588 a47.74339079523647,47.74339079523647 0 0,0 0.6648942024389676,0.48307391469611277 l -15.905008205747961 21.499759654513092" fill="#b2ff20" stroke="none" /><path d="M 112.48926042617603 83.11751280151076 l 7.017479516053415 -9.485950653020875 a32.79950331792726,32.79950331792726 0 0,0 0.45099917799362743,0.3396832306712903 l -7.179724847805425 9.363750832843738" fill="#ff940d" stroke="none" /><path d="M 112.77801427241765 83.33499621200491 l 10.5047053494916 -13.700168954962958 a38.263935353046485,38.263935353046485 0 0,0 0.5192369470048761,0.40527267313728244 l -10.738974851655906 13.517317892602449" fill="#ffdb14" stroke="none" /><path d="M 113.34407831869373 83.78471172551755 l 10.283077040128164 -12.495659465727167 a37.18280503796014,37.18280503796014 0 0,0 0.49071115099948626,0.4109564768648481 l -10.496645728086769 12.3168018314685" fill="#ffcd13" stroke="none" /><path d="M 114.16331599549186 84.49514656593476 l 9.653688286711935 -10.56807756257527 a35.31355863877345,35.31355863877345 0 0,0 0.44527390108074244,0.41383356335173366 l -9.834170071587524 10.400339413148895" fill="#ffb510" stroke="none" /><path d="M 114.68862486808459 84.99185889309783 l 8.305202916830414 -8.485862932484322 a32.87376373348568,32.87376373348568 0 0,0 0.4010038753465204,0.3992818372671668 l -8.450042592344253 8.341645244567037" fill="#ff950d" stroke="none" /><path d="M 115.19652480421416 85.50635884689758 l 10.454126034986505 -9.970592176336401 a35.44650336594303,35.44650336594303 0 0,0 0.41731114066405217,0.4451584286825785 l -10.624204497621019 9.789164330775767" fill="#ffb711" stroke="none" /><path d="M 115.4437574822437 85.77008943001954 l 13.447792406496953 -12.390824158442614 a39.28594115526139,39.28594115526139 0 0,0 0.45395159312897065,0.5012646872402287 l -13.65908764024196 12.157506683932837" fill="#ffe815" stroke="none" /><path d="M 115.68641384162765 86.03803664274999 l 12.74668171566982 -11.345404044385733 a38.064468573353096,38.064468573353096 0 0,0 0.431412058525873,0.4931785600100548 l -12.94008563777354 11.12430992817273" fill="#ffd814" stroke="none" /><path d="M 115.9244219780498 86.31012108654704 l 15.926625571724927 -13.691773294965108 a42.002905943288944,42.002905943288944 0 0,0 0.4666110552032474,0.5523203126576024 l -16.159947240415292 13.4155940326784" fill="#f5ff19" stroke="none" /><path d="M 116.60985879189232 87.15038557335679 l 0.9422561495807771 -0.7289422724747344 a22.19130327290049,22.19130327290049 0 0,0 0.2311319973127006,0.3041426154753242 l -0.9546640871175912 0.7126148811183767" fill="#ff0000" stroke="none" /><path d="M 116.82858285166822 87.43820079747576 l 11.162169768268827 -8.332070295484206 a34.9290139401375,34.9290139401375 0 0,0 0.35550648509714833,0.4849104461462866 l -11.303938865879601 8.138697405666427" fill="#ffb010" stroke="none" /><path d="M 117.04232023915458 87.72973835380427 l 3.664178289838487 -2.63816344862081 a25.515097886132985,25.515097886132985 0 0,0 0.25355613968117036,0.3586371779727019 l -3.7090470493235403 2.574699770316315" fill="#ff3004" stroke="none" /><path d="M 117.2510076193507 88.02491185347247 l 15.150179211101728 -10.5167614258732 a39.44261914743222,39.44261914743222 0 0,0 0.38235963182681726,0.5610655790054032 l -15.328963308597277 10.254417823597391" fill="#ffe915" stroke="none" /><path d="M 117.45458315368197 88.32363383020206 l 13.724089598867582 -9.180826267380079 a37.51175963577357,37.51175963577357 0 0,0 0.35440282501820275,0.5397798166829619 l -13.88008905924371 8.943228386719442" fill="#ffd113" stroke="none" /><line stroke="#e1ed5e" stroke-width="0.3" x1="172.23445277983987" x2="176.4835382374775" y1="55.19839476539836" y2="52.563006222186495" /><path d="M 173.08426987136738 54.67131705675599 a86.0,86.0 0 0,1 12.851231095245387,41.99856678651699" fill="none" id="id87" stroke="none" /><text fill="#e1ed5e" style="font-size:6.75px; font-family:Arial;" text-anchor="middle"><textPath startOffset="22.20632615414155" xlink:href="#id87">March</textPath></text><path d="M 117.84615892207809 88.93136811851018 l 7.9459172329469805 -4.928255609304804 a30.35014994657776,30.35014994657776 0 0,0 0.27153874736219835,0.4463383043571708 l -8.029571778595402 4.790749531740552" fill="#ff730a" stroke="none" /><path d="M 118.21658344932153 89.55222093294921 l 3.919599253388357 -2.248012485146 a25.518497365334504,25.518497365334504 0 0,0 0.21525746733181567,0.38291901530963895 l -3.9577143620126076 2.1802099599015667" fill="#ff3004" stroke="none" /><path d="M 118.3937258080291 89.86733742301442 l 11.775933941426336 -6.487079692427492 a34.44450903264013,34.44450903264013 0 0,0 0.2816115822524162,0.5217834925266533 l -11.885853622897217 6.28341521656838" fill="#ffaa0f" stroke="none" /><path d="M 118.56541770881063 90.18545643968196 l 13.562973242428395 -7.170018675748359 a36.34155829716815,36.34155829716815 0 0,0 0.2876011511071929,0.5555538823312794 l -13.684383826695704 6.935492071156736" fill="#ffc212" stroke="none" /><path d="M 118.73160827565052 90.50648371742162 l 21.355488245507065 -10.82334588667838 a44.941630988440785,44.941630988440785 0 0,0 0.34378204856361144,0.6930436320392862 l -21.538630307024082 10.454142666140143" fill="#d2ff1c" stroke="none" /><path d="M 119.04729006885535 91.15688171328212 l 12.330637455737472 -5.724766367159826 a34.59476259533061,34.59476259533061 0 0,0 0.24611320842597437,0.5422778312246036 l -12.427352981126793 5.511666527093159" fill="#ffac0f" stroke="none" /><path d="M 119.196687751892 91.48605970444005 l 17.38818796933742 -7.7118509261745745 a40.021612065346886,40.021612065346886 0 0,0 0.2738798790886955,0.6321525217666049 l -17.518358558268794 7.411399259821367" fill="#fff116" stroke="none" /><path d="M 119.34039704204932 91.81776055985345 l 3.1917801578360088 -1.3503295426118975 a24.46566738877321,24.46566738877321 0 0,0 0.16074911978601425,0.38926674406764106 l -3.2145509645082204 1.2951882280909532" fill="#ff2103" stroke="none" /><path d="M 119.7369772167798 92.82701384747503 l 10.047238866608259 -3.651456069981222 a31.690188972777158,31.690188972777158 0 0,0 0.18191212615348726,0.5142900771862657 l -10.108604073571556 3.4779683663683416" fill="#ff850c" stroke="none" /><path d="M 119.85752413597 93.16781622104841 l 18.00567217396385 -6.195035217569763 a40.04160423344592,40.04160423344592 0 0,0 0.21863231919650752,0.6536828063507143 l -18.109641786932126 5.884179308296734" fill="#fff116" stroke="none" /><path d="M 119.97218684219823 93.5106431181261 l 3.2590484421739463 -1.0589290298394853 a24.426766323908478,24.426766323908478 0 0,0 0.12648937557145237,0.40100588690039035 l -3.276793301513605 1.0026729765126758" fill="#ff2003" stroke="none" /><path d="M 120.08093135843002 93.85539295169968 l 17.082426953334153 -5.227088285198877 a38.86425936212471,38.86425936212471 0 0,0 0.19023888931179692,0.6413909619415942 l -17.16987173975765 4.932267936510753" fill="#ffe215" stroke="none" /><path d="M 120.18372546131832 94.20196356495316 l 2.644506703459126 -0.7596687860606757 a23.7514564087325,23.7514564087325 0 0,0 0.10949786660388787,0.39392208545233454 l -2.657191340629377 0.7140353971893892" fill="#ff1702" stroke="none" /><path d="M 120.28053869075195 94.5502522615342 l 13.851587048183692 -3.722172095183252 a35.34297838175778,35.34297838175778 0 0,0 0.15282247998534287,0.5888873555965121 l -13.913605860039336 3.4831883140378896" fill="#ffb610" stroke="none" /><path d="M 120.37134235888165 94.90015583598534 l 15.186646658923534 -3.801886491819559 a36.65530509570712,36.65530509570712 0 0,0 0.1479603604070671,0.6133912166029385 l -15.24983981959142 3.539910043557214" fill="#ffc612" stroke="none" /><path d="M 120.45610955862082 95.25157060432595 l 18.67907304961967 -4.335930021228192 a40.175715348899395,40.175715348899395 0 0,0 0.1505740144841321,0.6749937823351569 l -18.75094145110584 4.013758069343071" fill="#fff316" stroke="none" /><path d="M 120.53481517161879 95.60439243477599 l 9.167340725394315 -1.9623274866979425 a30.375012807485835,30.375012807485835 0 0,0 0.10504070555574323,0.5122157847370897 l -9.199760726865055 1.804236045797441" fill="#ff740a" stroke="none" /><path d="M 120.6074358757038 95.95851677861258 l 8.88705112133835 -1.7429081527240047 a30.056346198225476,30.056346198225476 0 0,0 0.09519886234712478,0.508556129314489 l -8.915735707595335 1.589673945946953" fill="#ff6f0a" stroke="none" /><path d="M 120.67395015179393 96.31383870115 l 14.864809101959978 -2.6503925773315915 a36.099242711198684,36.099242711198684 0 0,0 0.10380790799328313,0.6126801492051017 l -14.908228871473483 2.3941266398106524" fill="#ffbf11" stroke="none" /><path d="M 120.73433829027371 96.67025291283417 l 15.73810702066269 -2.5273975603136503 a36.939753794262685,36.939753794262685 0 0,0 0.09541733053057197,0.6286809901946387 l -15.779280244632563 2.256117457726929" fill="#ffca12" stroke="none" /><path d="M 120.83666639777658 97.38593545837742 l 14.517404052164814 -1.8212813146166908 a35.631202481026065,35.631202481026065 0 0,0 0.07110910085892616,0.609219350563212 l -14.54660350602733 1.5711182257286262" fill="#ffb911" stroke="none" /><path d="M 120.87857604477298 97.74499172005257 l 23.521771818881373 -2.5404888770606924 a44.65856786100949,44.65856786100949 0 0,0 0.07596820985288114,0.7649895058715055 l -23.56201715441648 2.135223840484752" fill="#d6ff1c" stroke="none" /><path d="M 120.91429891909075 98.10471618934814 l 5.046858139899294 -0.4573535342595916 a26.06753878520604,26.06753878520604 0 0,0 0.03665035896135948,0.44722721128364007 l -5.053982982680148 0.3704124057681827" fill="#ff3805" stroke="none" /><path d="M 120.96714384426684 98.82574320788733 l 23.692658588102816 -1.326898192568731 a44.72978570880581,44.72978570880581 0 0,0 0.03643643990317061,0.7691156582182405 l -23.711988636239482 0.9188714277274909" fill="#d5ff1c" stroke="none" /><path d="M 120.98425023603335 99.18683210126433 l 14.600118865160335 -0.5657742280678046 a35.61107700869297,35.61107700869297 0 0,0 0.01846401367781916,0.6127307240756208 l -14.607694573293799 0.3143733565671848" fill="#ffb911" stroke="none" /><line stroke="#e1ed5e" stroke-width="0.3" x1="184.98032266829074" x2="189.97916517819016" y1="98.17113171792111" y2="98.06355123074" /><path d="M 185.9800911702706 98.14961562048488 a86.0,86.0 0 0,1 -9.607161424134198,41.387399972396054" fill="none" id="id88" stroke="none" /><text fill="#e1ed5e" style="font-size:6.75px; font-family:Arial;" text-anchor="middle"><textPath startOffset="21.466115282336823" xlink:href="#id88">April</textPath></text><path d="M 120.99513854157772 99.54816195383933 l 10.27731251490426 -0.22117885992134823 a31.279692243305917,31.279692243305917 0 0,0 0.006951528621883657,0.5384035526182132 l -10.27959705064386 0.04423904924267237" fill="#ff800b" stroke="none" /><path d="M 120.99824983174949 100.27111621757518 l 15.166582972039643 0.19582139663384557 a36.16784708082009,36.16784708082009 0 0,0 -0.013395773686326416,0.622448965521626 l -15.16096513566831 -0.45686017794558637" fill="#ffc011" stroke="none" /><path d="M 120.9904718944345 100.63252640178507 l 21.752620514116888 0.6554929709245177 a42.7624945781983,42.7624945781983 0 0,0 -0.028503986574131595,0.7355612388612107 l -21.738114394691554 -1.0298314567997346" fill="#ecff1a" stroke="none" /><path d="M 120.9764740272857 100.99374915477107 l 17.248947013166337 0.8171595708949055 a38.268292412028615,38.268292412028615 0 0,0 -0.03683532547381769,0.65771948090703 l -17.23232533680499 -1.113950768137359" fill="#ffdb14" stroke="none" /><path d="M 120.95626037817324 101.35467743843564 l 4.545781304058027 0.29385335272336194 a25.555269197010233,25.555269197010233 0 0,0 -0.03215515030686944,0.4387314785513714 l -4.54004959508682 -0.37205796777150363" fill="#ff3104" stroke="none" /><path d="M 120.8583938346157 102.4346265915055 l 25.289797456102317 2.9518674289404827 a46.46148810829247,46.46148810829247 0 0,0 -0.0995569925246988,0.7935671854205638 l -25.23523895433077 -3.3867523686484415" fill="#c1ff1e" stroke="none" /><path d="M 120.81339534386255 102.79330883721812 l 18.05064588862759 2.422527792567319 a39.21248082778371,39.21248082778371 0 0,0 -0.09554018064508948,0.6682078009097041 l -18.006271656965897 -2.7328810654574323" fill="#ffe715" stroke="none" /><path d="M 120.70491114924044 103.5080841355445 l 4.485608415813916 0.7600076913326415 a25.54953783926515,25.54953783926515 0 0,0 -0.07720043202337576,0.432981021163171 l -4.471861541451352 -0.8371074632290307" fill="#ff3104" stroke="none" /><path d="M 120.64145759157962 103.86396538481128 l 8.416990133643212 1.5756134651054248 a29.563193370540496,29.563193370540496 0 0,0 -0.09793873067818593,0.4993874777254845 l -8.388621469989362 -1.7202646698988542" fill="#ff6909" stroke="none" /><path d="M 120.5718875245553 104.21870165774334 l 13.283327164848014 2.724027839633194 a34.5597606261868,34.5597606261868 0 0,0 -0.12452369091588414,0.5817332278877256 l -13.234469435207687 -2.9522748869370887" fill="#ffab0f" stroke="none" /><path d="M 120.41448212921028 104.9243191809786 l 24.081694744871506 5.8089130349754186 a45.772393756621085,45.772393756621085 0 0,0 -0.19134753759346318,0.7643382959327362 l -23.978135892982984 -6.222579170305551" fill="#c9ff1d" stroke="none" /><path d="M 120.32669344350535 105.2749913415812 l 31.32031568836401 8.127952267834216 a53.357777780418914,53.357777780418914 0 0,0 -0.23836170360519401,0.8870325718451673 l -31.175765908417038 -8.66587577285493" fill="#75ff27" stroke="none" /><path d="M 120.02730092923936 106.31721596034902 l 17.226386746341433 5.433722980327037 a39.06304918227988,39.06304918227988 0 0,0 -0.20779263298067238,0.6395199656709195 l -17.130301862344513 -5.729441845975751" fill="#ffe515" stroke="none" /><path d="M 119.9155931802556 106.66101706037122 l 23.884898099322577 7.9886003035323085 a46.18543412420401,46.18543412420401 0 0,0 -0.25865859666065655,0.7517829573011353 l -23.74384867171869 -8.398555963922744" fill="#c4ff1e" stroke="none" /><path d="M 119.79798401119884 107.00284435728193 l 10.236833473840752 3.6209217811354084 a31.85835319540893,31.85835319540893 0 0,0 -0.18732065256950542,0.5154259848522356 l -10.17298856026602 -3.796595562993775" fill="#ff880c" stroke="none" /><path d="M 119.54520255179757 107.68017299344265 l 18.205616794070348 7.153790607195605 a40.56070558298285,40.56070558298285 0 0,0 -0.2609354899112697,0.6476204867959844 l -18.079778689901687 -7.466110461834403" fill="#fff717" stroke="none" /><path d="M 119.41010516605496 108.01547362559984 l 16.16778064032836 6.676543903207239 a38.4920944807999,38.4920944807999 0 0,0 -0.25817017807016746,0.6102380387201504 l -16.050459481065882 -6.953856467593553" fill="#ffde14" stroke="none" /><path d="M 119.26925614724726 108.34839909993367 l 30.630596274285285 13.27069609810577 a54.38180347204955,54.38180347204955 0 0,0 -0.37953038701050856,0.8557408296126907 l -30.397624802543504 -13.795985264211147" fill="#6aff28" stroke="none" /><path d="M 118.81262510543309 109.33194174019688 l 11.519560345667688 5.714240591942009 a33.85895859313954,33.85895859313954 0 0,0 -0.26348933585440476,0.51988945688051 l -11.419492340027015 -5.911684260525214" fill="#ffa20f" stroke="none" /><path d="M 118.64920377521936 109.65438752849418 l 28.346039429849437 14.674280620890682 a52.919155112553135,52.919155112553135 0 0,0 -0.4257408820535085,0.8053413042047529 l -28.089246039571037 -15.16003694018157" fill="#79ff26" stroke="none" /><line stroke="#e1ed5e" stroke-width="0.3" x1="174.80103733775053" x2="179.2010983576182" y1="140.37084112569926" y2="142.7455964860345" /><path d="M 175.68104954172406 140.8457921977663 a86.0,86.0 0 0,1 -30.038265399797805,32.042727171017184" fill="none" id="id89" stroke="none" /><text fill="#e1ed5e" style="font-size:6.75px; font-family:Arial;" text-anchor="middle"><textPath startOffset="22.206326154141568" xlink:href="#id89">May</textPath></text><path d="M 118.12598468904814 110.60418214915192 l 13.823105779293055 8.086883778467753 a37.01486630078347,37.01486630078347 0 0,0 -0.3264695772561102,0.5471817899762393 l -13.681855326338717 -8.323627662330097" fill="#ffcb12" stroke="none" /><path d="M 117.94076556474637 110.91462005526583 l 27.18844080932531 16.540626444168414 a52.82457598786996,52.82457598786996 0 0,0 -0.47928331524932755,0.7727573113117873 l -26.89969285440802 -17.006180086845475" fill="#7aff26" stroke="none" /><path d="M 117.55443506779139 111.5257021239791 l 1.422617667886079 0.9340470036799495 a22.701847476733775,22.701847476733775 0 0,0 -0.21728575448871174,0.32481272124231175 l -1.406328807986646 -0.9583966391280682" fill="#ff0701" stroke="none" /><path d="M 117.35343817320211 111.8261652097733 l 4.7900766110971364 3.2643812024400014 a26.79663855825283,26.79663855825283 0 0,0 -0.2630397506429696,0.3789283792328288 l -4.73317595329203 -3.3463508438598497" fill="#ff4206" stroke="none" /><path d="M 117.14729908036423 112.12312394758627 l 22.147263473685058 15.658093961794405 a48.12336973698524,48.12336973698524 0 0,0 -0.48402991178245974,0.672275213013405 l -21.874453769526994 -16.03700278025894" fill="#aeff20" stroke="none" /><path d="M 116.71984013943494 112.70617746262583 l 3.6806363460690643 2.7970852710631693 a25.622853007137817,25.622853007137817 0 0,0 -0.2698857337429714,0.3488636918258152 l -3.6319437951080245 -2.860026957002237" fill="#ff3204" stroke="none" /><path d="M 116.498646956653 112.99209946851258 l 7.0268946439397535 5.533430372119673 a29.944053891839296,29.944053891839296 0 0,0 -0.3223721059718574,0.4022087691771779 l -6.930604625913042 -5.653566974875101" fill="#ff6e0a" stroke="none" /><path d="M 116.27256486870786 113.27417163493432 l 4.418315265950901 3.6041936628113063 a26.701905098156576,26.701905098156576 0 0,0 -0.2935988903632067,0.35365877698422254 l -4.3556203756941505 -3.679713696909299" fill="#ff4106" stroke="none" /><path d="M 116.0416608686014 113.55231037782055 l 2.0729220913312667 1.7512453230917542 a23.71364444582925,23.71364444582925 0 0,0 -0.2661094256683289,0.309545381187754 l -2.0424701560921568 -1.7866678034410362" fill="#ff1602" stroke="none" /><path d="M 115.80600337817218 113.82643327865902 l 11.992943967497842 10.490927757885922 a36.933934549530576,36.933934549530576 0 0,0 -0.4227021103165397,0.4749103019749281 l -11.81058300753297 -10.695812229601716" fill="#ffca12" stroke="none" /><path d="M 115.56566222782051 114.09645910891815 l 8.803302453325632 7.972381209387155 a32.87674181888781,32.87674181888781 0 0,0 -0.3834893334254168,0.416201931370086 l -8.66476671190449 -8.122734395558576" fill="#ff950d" stroke="none" /><path d="M 115.07121518719521 114.62390073753431 l 3.5167042199786587 3.412328256047337 a25.900121702349317,25.900121702349317 0 0,0 -0.3132180342149614,0.3172882149993834 l -3.4574455607081616 -3.472356965027385" fill="#ff3505" stroke="none" /><path d="M 114.81725581225074 114.88116024355365 l 4.192020523082958 4.210100030579634 a26.941210174151,26.941210174151 0 0,0 -0.3314410919783642,0.3243848676035922 l -4.118929478728799 -4.281635001105799" fill="#ff4406" stroke="none" /><path d="M 114.29624159901734 115.38237550388516 l 7.719359236098934 8.305825107713604 a32.3391021573964,32.3391021573964 0 0,0 -0.4110152826498195,0.3754527156223182 l -7.575244403982251 -8.437470589922505" fill="#ff8e0d" stroke="none" /><path d="M 114.0293411484842 115.62618273729858 l 7.959153158136007 8.865076439930892 a32.91376092090504,32.91376092090504 0 0,0 -0.4248345996293154,0.37486713950095646 l -7.805376205600104 -9.000766721204137" fill="#ff960d" stroke="none" /><path d="M 113.75828350139079 115.86535959552629 l 13.699473439980169 15.797542794686256 a41.910235074782534,41.910235074782534 0 0,0 -0.5490929787544863,0.4679489488123465 l -13.425514984648636 -16.03101613372155" fill="#f6ff19" stroke="none" /><path d="M 113.48314897796784 116.09983520530334 l 10.162376443834374 12.134597511852864 a36.827897894567855,36.827897894567855 0 0,0 -0.4895126859657126,0.40283561469579426 l -9.95199362932397 -12.307728245405837" fill="#ffc912" stroke="none" /><path d="M 113.20401910651253 116.32954008644616 l 2.662966342745877 3.2933166251840627 a25.235247824662814,25.235247824662814 0 0,0 -0.34012608648531306,0.2702167336877422 l -2.605882763543213 -3.338667272876931" fill="#ff2c04" stroke="none" /><path d="M 112.63410532772338 116.77436683061366 l 20.840184198151466 27.66962008700812 a55.63987807675202,55.63987807675202 0 0,0 -0.7699897530087031,0.5696200114206628 l -20.3608094747242 -28.02425004716855" fill="#5dff2a" stroke="none" /><path d="M 112.34349029814194 116.9893568818739 l 19.843252014015906 27.311893315444685 a54.75935673211174,54.75935673211174 0 0,0 -0.7673420109921282,0.5474781506488686 l -19.370182675174892 -27.64941572793777" fill="#66ff29" stroke="none" /><path d="M 112.04921762599082 117.19931262002967 l 8.409828836382781 12.004370717471676 a35.65708488683022,35.65708488683022 0 0,0 -0.5057246308552295,0.34784201254561287 l -8.201947320904667 -12.147353519382383" fill="#ffba11" stroke="none" /><path d="M 111.7513745106137 117.40417183066458 l 11.633165089790394 17.229099793759104 a41.78875681010358,41.78875681010358 0 0,0 -0.5996195111946112,0.3973951157672061 l -11.334870879855819 -17.426792930617626" fill="#f8ff18" stroke="none" /><line stroke="#e1ed5e" stroke-width="0.3" x1="143.8653032363475" x2="146.44561519142675" y1="172.8068346515853" y2="177.08958963109032" /><path d="M 144.38136562736335 173.6633856474863 a86.0,86.0 0 0,1 -40.68145358897372,12.25698825130547" fill="none" id="id90" stroke="none" /><text fill="#e1ed5e" style="font-size:6.75px; font-family:Arial;" text-anchor="middle"><textPath startOffset="21.466115282336833" xlink:href="#id90">June</textPath></text><path d="M 110.8373102113329 117.98757091392108 l 12.662192479596104 21.01647740177034 a45.53616597534064,45.53616597534064 0 0,0 -0.6748722800814388,0.39872643865782964 l -12.298552328486283 -21.23132241272192" fill="#cbff1d" stroke="none" /><path d="M 110.5260780823613 118.17145234162733 l 1.9255986984646998 3.3242129408944554 a24.84165615639129,24.84165615639129 0 0,0 -0.3718573925943437,0.21115033239686778 l -1.868092538949158 -3.3568664390859517" fill="#ff2603" stroke="none" /><path d="M 110.21172684928248 118.3499491758327 l 9.219366045845613 16.566727730927454 a39.95925045981438,39.95925045981438 0 0,0 -0.6039121214653451,0.32930104003540794 l -8.932831112511618 -16.72296942272263" fill="#fff016" stroke="none" /><path d="M 109.89434966115114 118.52300852407294 l 7.667184441959069 14.353578318711266 a37.27301225398658,37.27301225398658 0 0,0 -0.5685183292949195,0.2974219200514868 l -7.418975210137654 -14.48342965770747" fill="#ffce13" stroke="none" /><path d="M 109.57404056367764 118.69057910512821 l 3.8184972848514644 7.454525086931381 a29.375611367900692,29.375611367900692 0 0,0 -0.45202923918890414,0.22665684450239043 l -3.6896141379797998 -7.519149772343073" fill="#ff6609" stroke="none" /><path d="M 108.92500713936063 119.00905698771935 l 1.1942909213260455 2.543677985789152 a23.81009403759913,23.81009403759913 0 0,0 -0.3724941864351742,0.1709938113062625 l -1.1503287391234518 -2.563858867429489" fill="#ff1802" stroke="none" /><path d="M 108.2653958097858 119.30500536409082 l 1.515813752850452 3.540398222078485 a24.85124796711755,24.85124796711755 0 0,0 -0.39469526019711443,0.16498265077312727 l -1.4546470331558765 -3.5659659158715855" fill="#ff2703" stroke="none" /><path d="M 107.93186726928326 119.44442032107085 l 2.1249605087591594 5.209192727921589 a26.625935125862824,26.625935125862824 0 0,0 -0.42586144949780386,0.16945905953385046 l -2.0349779832194894 -5.244998631861508" fill="#ff4006" stroke="none" /><path d="M 107.59598834532513 119.57807347666477 l 4.04343817536366 10.421649704655083 a32.17855871051924,32.17855871051924 0 0,0 -0.5181204263352575,0.19590881143744762 l -3.8634475282681273 -10.489706766199163" fill="#ff8c0c" stroke="none" /><path d="M 107.2578585660854 119.70592522655815 l 6.9830430145162214 18.95976922737359 a41.20484444131769,41.20484444131769 0 0,0 -0.6676763128892863,0.23940497101671912 l -6.6556471409972 -19.07716173943027" fill="#ffff18" stroke="none" /><path d="M 106.57524785965236 119.94407469862006 l 3.723164216214362 11.293120324643448 a32.891026803761484,32.891026803761484 0 0,0 -0.5392227841227062,0.17264210738180563 l -3.5282200870007157 -11.355535278684961" fill="#ff950d" stroke="none" /><path d="M 106.2309692047433 120.05430185196036 l 0.6849452797729769 2.2044884096339543 a23.30844518767367,23.30844518767367 0 0,0 -0.3841731517305561,0.11574821919599883 l -0.6468971536021749 -2.2159519979356785" fill="#ff1001" stroke="none" /><path d="M 105.88484417918355 120.15858648285463 l 4.198442771107651 14.381803343930072 a35.98209561862907,35.98209561862907 0 0,0 -0.5960499796190893,0.1684496780226767 l -3.9502616233839554 -14.451941815291267" fill="#ffbe11" stroke="none" /><path d="M 105.18746579009965 120.34920634021253 l 5.156219034855868 20.22663267984614 a41.87350627711669,41.87350627711669 0 0,0 -0.6999788968983973,0.17203778245567602 l -4.80728685321426 -20.312391720615846" fill="#f7ff19" stroke="none" /><path d="M 104.48393922423573 120.51570834832081 l 4.025325394867649 18.417377595538195 a39.85213627234852,39.85213627234852 0 0,0 -0.6714298139731859,0.1407046457078817 l -3.7077041194650855 -18.48393822197262" fill="#ffef16" stroke="none" /><path d="M 104.13013068566511 120.58985236759428 l 0.8710749490650052 4.34255135427268 a25.42905450761041,25.42905450761041 0 0,0 -0.4299113276677656,0.08239352914511083 l -0.7961960068255353 -4.3569020817662585" fill="#ff2f04" stroke="none" /><path d="M 103.7750983002368 120.6578951692458 l 2.1617230237739435 11.82926749411158 a33.0251659397598,33.0251659397598 0 0,0 -0.5600927055596037,0.0973792961699799 l -1.9577813467422898 -11.864725368802567" fill="#ff970d" stroke="none" /><path d="M 103.41894727170886 120.7198165907248 l 1.4061027055326478 8.521392069260113 a29.63662246578808,29.63662246578808 0 0,0 -0.5040542223120771,0.07872290312649767 l -1.2592126196120534 -8.544333279733715" fill="#ff6a09" stroke="none" /><path d="M 103.06178313531738 120.77559828337769 l 0.9832266705670497 6.671642447036516 a27.743704295623715,27.743704295623715 0 0,0 -0.47305844203952224,0.06556158954833692 l -0.868239637340697 -6.687578602077455" fill="#ff4f07" stroke="none" /><path d="M 102.70371172650421 120.8252237178851 l 1.8640231998698409 14.357558822592566 a35.47805504319757,35.47805504319757 0 0,0 -0.6062905256417755,0.07341333922643084 l -1.616605251176685 -14.387517690544348" fill="#ffb711" stroke="none" /><path d="M 102.34483914955558 120.86867818915974 l 1.250947341935604 11.13322315323276 a32.20328197591999,32.20328197591999 0 0,0 -0.5513928800409118,0.057154126525706214 l -1.0591218652890895 -11.153106648214225" fill="#ff8c0c" stroke="none" /><path d="M 101.62511606390274 120.93702456842531 l 0.8436991610632941 10.869715988850928 a31.902410465243932,31.902410465243932 0 0,0 -0.5478665349849016,0.037784083913886 l -0.6564698652994623 -10.882628417281099" fill="#ff880c" stroke="none" /><path d="M 100.90346689309514 120.98055641714683 l 0.9841556795727288 22.85433358580932 a43.87551367845293,43.87551367845293 0 0,0 -0.7548252453259742,0.025997707659984246 l -0.5906100825721022 -22.8678880918954" fill="#dfff1b" stroke="none" /><line stroke="#e1ed5e" stroke-width="0.3" x1="102.19456741930631" x2="102.32365962044197" y1="184.97166512339345" y2="189.96999836594603" /><path d="M 102.22038585953345 185.97133177190398 a86.0,86.0 0 0,1 -42.740103519485714,-10.115201625700543" fill="none" id="id91" stroke="none" /><text fill="#e1ed5e" style="font-size:6.75px; font-family:Arial;" text-anchor="middle"><textPath startOffset="22.20632615414155" xlink:href="#id91">July</textPath></text><path d="M 100.54218724476979 120.99299961872073 l 0.4746763243615202 18.379037855396444 a39.38516657805974,39.38516657805974 0 0,0 -0.6778755629334686,0.011670242566478967 l -0.1582410715353836 -18.38448557524208" fill="#ffe915" stroke="none" /><path d="M 100.18074693466247 120.99922214144158 l 0.14321129572989988 16.638322623904557 a37.63893894490748,37.63893894490748 0 0,0 -0.6479164607846992,0.0 l 0.14321129572988842 -16.638322623904557" fill="#ffd313" stroke="none" /><path d="M 99.81925306533755 120.99922214144158 l -0.05728089475802243 6.654908066521989 a27.655154579328997,27.655154579328997 0 0,0 -0.4759851260580418,-0.00819451560562983 l 0.17182571070873212 -6.6529360736372" fill="#ff4e07" stroke="none" /><path d="M 99.45781275523022 120.99299961872073 l -0.1465187855134669 5.673074824409951 a26.674966582973184,26.674966582973184 0 0,0 -0.45891059743748575,-0.015805808865197505 l 0.2441497346255957 -5.66971221711866" fill="#ff4006" stroke="none" /><path d="M 99.09653310690486 120.98055641714683 l -0.20850868838640887 4.84204604904729 a25.8465333811114,25.8465333811114 0 0,0 -0.44432890193953634,-0.022966728924701807 l 0.29182565873943417 -4.837739513360386" fill="#ff3505" stroke="none" /><path d="M 98.73552117531835 120.96189622390904 l -0.6784976680792013 11.247794291866649 a32.26824012513653,32.26824012513653 0 0,0 -0.5541490015834186,-0.038217359593246625 l 0.87200943044155 -11.234448587757118" fill="#ff8d0d" stroke="none" /><path d="M 97.65516085044442 120.86867818915974 l -2.4920555473808212 22.178879629187936 a43.31844623752377,43.31844623752377 0 0,0 -0.7402763062223812,-0.08963715131861943 l 2.8734592766545917 -22.132696949143966" fill="#e5ff1a" stroke="none" /><path d="M 97.2962882734958 120.8252237178851 l -1.368181888471064 10.538362368612605 a31.62680587439756,31.62680587439756 0 0,0 -0.5392692826526735,-0.0747378087427626 l 1.5493797623105683 -10.513249994377237" fill="#ff850c" stroke="none" /><path d="M 96.22490169976321 120.6578951692458 l -2.578867512459249 14.111943713999507 a35.34564439242476,35.34564439242476 0 0,0 -0.5975642115782454,-0.11452460336377798 l 2.8213993386091896 -14.06546191228726" fill="#ffb610" stroke="none" /><path d="M 95.86986931433489 120.58985236759428 l -3.4680833124862995 17.28936172660383 a38.633763942383354,38.633763942383354 0 0,0 -0.6509026457112718,-0.13640297801668236 l 3.765177419626958 -17.227102767860607" fill="#ffdf14" stroke="none" /><path d="M 95.51606077576429 120.51570834832081 l -3.4983808139928465 16.006407955601112 a37.38425353688241,37.38425353688241 0 0,0 -0.6274855286542694,-0.1428136634042202 l 3.7733864920399784 -15.943817558619205" fill="#ffd013" stroke="none" /><path d="M 95.16358092515715 120.4354850818985 l -3.5873792168117244 15.157874727936136 a36.57659962613849,36.57659962613849 0 0,0 -0.6114331025723158,-0.15027538051879769 l 3.8477656041272508 -15.09387808910331" fill="#ffc512" stroke="none" /><path d="M 94.81253420990036 120.34920634021253 l -3.4457271472175663 13.516775926430798 a34.949059718074594,34.949059718074594 0 0,0 -0.5816681136294795,-0.15362383550876252 l 3.6778857036585353 -13.455460741618454" fill="#ffb010" stroke="none" /><path d="M 94.46302465271185 120.25689768951611 l -1.5843121978459112 5.796169946058251 a27.008796150963374,27.008796150963374 0 0,0 -0.44740563656839183,-0.12644130190833852 l 1.6838490025189168 -5.768039850811392" fill="#ff4506" stroke="none" /><path d="M 93.76903079525671 120.05430185196036 l -5.186849356594586 16.69381427509072 a38.48104234018179,38.48104234018179 0 0,0 -0.6308667379226837,-0.20198360736788293 l 5.473437439608211 -16.60205782106313" fill="#ffde14" stroke="none" /><path d="M 93.08242187328487 119.8279376855182 l -1.9647634566114638 5.631625212012548 a26.9645199277906,26.9645199277906 0 0,0 -0.4369285089731942,-0.15666701814603765 l 2.0614115262143846 -5.596970652826552" fill="#ff4506" stroke="none" /><path d="M 92.7421414339146 119.70592522655815 l -3.1342362410859796 8.509813803456565 a30.068647516826125,30.068647516826125 0 0,0 -0.48414786413815636,-0.183063295331098 l 3.2802543259844192 -8.454602258018832" fill="#ff6f0a" stroke="none" /><path d="M 92.40401165467489 119.57807347666478 l -4.851369351219604 12.504029930360787 a34.41217913246432,34.41217913246432 0 0,0 -0.5503964618127114,-0.21901411104369345 l 5.065886889074173 -12.418668974911025" fill="#ffa90f" stroke="none" /><path d="M 91.7346041902142 119.30500536409082 l -1.167776703526588 2.7275082820535035 a23.966985651797103,23.966985651797103 0 0,0 -0.3778558780992634,-0.1656409127980489 l 1.2145532562835948 -2.707002815961002" fill="#ff1a02" stroke="none" /><path d="M 91.07499286063937 119.00905698771935 l -2.715658047049817 5.783984009140712 a27.389778528752142,27.389778528752142 0 0,0 -0.42504675470472814,-0.20404827230701814 l 2.8148174697547867 -5.736381460334132" fill="#ff4a06" stroke="none" /><path d="M 90.7491055286396 118.85261126421891 l -5.39330609325149 10.991142912698395 a33.24307858109486,33.24307858109486 0 0,0 -0.5115414733369394,-0.2564975141579302 l 5.58170147427119 -10.896677557631163" fill="#ff9a0e" stroke="none" /><path d="M 90.42595943632237 118.69057910512821 l -0.9131925677605158 1.7827476092692458 a23.003025138176817,23.003025138176817 0 0,0 -0.35086086767475,-0.1835538232587417 l 0.9437443379617615 -1.7667643670657873" fill="#ff0c01" stroke="none" /><path d="M 90.10565033884886 118.52300852407294 l -10.513537192913395 19.682176768739318 a43.31417815342243,43.31417815342243 0 0,0 -0.6546158127882843,-0.3569487352758417 l 10.85077581757032 -19.498287381703708" fill="#e5ff1a" stroke="none" /><line stroke="#e1ed5e" stroke-width="0.3" x1="58.666819895761336" x2="56.23545636021788" y1="174.27360380694188" y2="178.64263932499728" /><path d="M 58.180547188652646 175.14741091055294 a86.0,86.0 0 0,1 -31.652253787137756,-30.449443065178592" fill="none" id="id92" stroke="none" /><text fill="#e1ed5e" style="font-size:6.75px; font-family:Arial;" text-anchor="middle"><textPath startOffset="22.20632615414155" xlink:href="#id92">August</textPath></text><path d="M 89.4739219176387 118.17145234162733 l -3.0019571396928098 5.1823595330293 a26.989039739234688,26.989039739234688 0 0,0 -0.39999315699721955,-0.2363230076033907 l 3.0907181677184115 -5.129917953132159" fill="#ff4506" stroke="none" /><path d="M 88.8546689885994 117.79835938074946 l -3.0392294305767047 4.853449178909313 a26.726507178371392,26.726507178371392 0 0,0 -0.38781205261777596,-0.24752000067286942 l 3.122323285241404 -4.800414749412639" fill="#ff4106" stroke="none" /><path d="M 88.54995079064634 117.60387380957326 l -3.6396466886117427 5.5957734195073385 a27.675305849201763,27.675305849201763 0 0,0 -0.3971080891654485,-0.2631815878566001 l 3.7354294765171527 -5.53229381055942" fill="#ff4e07" stroke="none" /><path d="M 88.24862548938628 117.40417183066458 l -9.375702318834454 13.885723243929986 a37.75461440852684,37.75461440852684 0 0,0 -0.5354739035855743,-0.36830383359789887 l 9.613333107042921 -13.72227862096699" fill="#ffd413" stroke="none" /><path d="M 87.95078237400918 117.19931262002967 l -7.564919623312312 10.79832911857183 a34.18453338803357,34.18453338803357 0 0,0 -0.4790273326826506,-0.34177328290454856 l 7.749674283843847 -10.666511573823064" fill="#ffa60f" stroke="none" /><path d="M 87.36589467227662 116.77436683061367 l -2.4832419804912518 3.2970131900464312 a25.127564258617213,25.127564258617213 0 0,0 -0.3432560147014827,-0.26319407488574176 l 2.539626723686221 -3.253779773333323" fill="#ff2a04" stroke="none" /><path d="M 87.07902340077011 116.55440617244103 l -5.537197579705471 7.094279374901525 a29.99940869645608,29.99940869645608 0 0,0 -0.4043384692591248,-0.32123093408250114 l 5.658493541681954 -6.997914526813894" fill="#ff6f0a" stroke="none" /><path d="M 86.79598089348748 116.32954008644616 l -7.430836467411858 9.189788426660122 a32.818186913913415,32.818186913913415 0 0,0 -0.4362160140322394,-0.35897608211349086 l 7.587922609988786 -9.060517225689452" fill="#ff940d" stroke="none" /><path d="M 86.24171649860922 115.8653595955263 l -10.313572542381772 11.893092411047679 a36.74215441687354,36.74215441687354 0 0,0 -0.4742496154943127,-0.41847014561643975 l 10.516764510782671 -11.71379912365895" fill="#ffc812" stroke="none" /><path d="M 85.97065885151581 115.62618273729859 l -8.145214469210263 9.07231554092759 a33.19226919090899,33.19226919090899 0 0,0 -0.4218586476795701,-0.38535787248328923 l 8.30017266635669 -8.930764901857723" fill="#ff990e" stroke="none" /><path d="M 85.70375840098266 115.38237550388516 l -13.197865308308728 14.200551845462543 a40.386575804198344,40.386575804198344 0 0,0 -0.5051479159724701,-0.4776488842951342 l 13.440349058672012 -13.97126832442148" fill="#fff517" stroke="none" /><path d="M 85.44109423537348 115.13401014063109 l -9.234262196676735 9.599033058192 a34.31964841762859,34.31964841762859 0 0,0 -0.4222134668162069,-0.41322474143480875 l 9.398125615868736 -9.43865821383462" fill="#ffa80f" stroke="none" /><path d="M 85.18274418774928 114.88116024355367 l -2.00921727218832 2.0178827017908154 a23.84759629249767,23.84759629249767 0 0,0 -0.28839622135098525,-0.2921438496169754 l 2.0436541185948385 -1.9829983581931754" fill="#ff1802" stroke="none" /><path d="M 84.9287848128048 114.62390073753433 l -6.659110042470683 6.461467310489144 a30.278701760604967,30.278701760604967 0 0,0 -0.3597303677153031,-0.3771758523664373 l 6.769346961564944 -6.345884341540207" fill="#ff720a" stroke="none" /><path d="M 84.67929136418377 114.36230785411682 l -3.557915820741262 3.335347179507034 a25.87681307775134,25.87681307775134 0 0,0 -0.3018389672865822,-0.3275865850695439 l 3.6148011960235755 -3.2736093396361485" fill="#ff3505" stroke="none" /><path d="M 84.4343377721795 114.09645910891817 l -10.891518816580845 9.863496161283601 a35.69400349311211,35.69400349311211 0 0,0 -0.4085113266757601,-0.4589668061190481 l 11.05968899290494 -9.674555185423687" fill="#ffba11" stroke="none" /><path d="M 84.19399662182784 113.82643327865904 l -11.221879909663839 9.816433042546528 a35.909491821846785,35.909491821846785 0 0,0 -0.4029686059678559,-0.46874352694475924 l 11.389191025202477 -9.621812416440239" fill="#ffbd11" stroke="none" /><path d="M 83.95833913139862 113.55231037782056 l -2.127901711082582 1.7976931864038892 a23.785617792244864,23.785617792244864 0 0,0 -0.2615330615825148,-0.3150334205479782 l 2.1585307725586333 -1.7607985087421498" fill="#ff1702" stroke="none" /><path d="M 83.50135304334701 112.99209946851258 l -10.75095089998969 8.465992625985416 a34.68415055446368,34.68415055446368 0 0,0 -0.36532845967759603,-0.47223628090524733 l 10.895086176885355 -8.279678350966917" fill="#ffad10" stroke="none" /><path d="M 83.06392112726016 112.41649034213515 l -9.768572542168219 7.161715975561957 a33.11260439485341,33.11260439485341 0 0,0 -0.3330500559650148,-0.46257739835432693 l 9.890402390508841 -6.99250497175649" fill="#ff980e" stroke="none" /><path d="M 82.85270091963577 112.12312394758628 l -13.392678507553978 9.468610815984146 a37.40178125665838,37.40178125665838 0 0,0 -0.36714139327466017,-0.5288945597111815 l 13.553680807990771 -9.236674994085954" fill="#ffd013" stroke="none" /><path d="M 82.6465618267979 111.8261652097733 l -7.504384793818665 5.114150491886878 a30.08131743676894,30.08131743676894 0 0,0 -0.287916732854505,-0.4303964505621797 l 7.5913046320839 -4.984217127118875" fill="#ff700a" stroke="none" /><path d="M 82.44556493220864 111.52570212397912 l -15.857487547525114 10.411538577098618 a39.96997751349028,39.96997751349028 0 0,0 -0.37266320038429723,-0.5783815627607197 l 16.034355611286458 -10.13703541441645" fill="#fff016" stroke="none" /><path d="M 82.05923443525364 110.91462005526583 l -3.9501302540762673 2.40313997395811 a25.623700980665166,25.623700980665166 0 0,0 -0.2259999741432933,-0.3787889561583855 l 3.9909111039177922 -2.3347889239136133" fill="#ff3204" stroke="none" /><line stroke="#e1ed5e" stroke-width="0.3" x1="26.63291911575756" x2="22.317208475507996" y1="142.92168965132927" y2="145.44649492493687" /><path d="M 25.769776987707644 143.4266507060508 a86.0,86.0 0 0,1 -11.730757126820373,-40.83630448921669" fill="none" id="id93" stroke="none" /><text fill="#e1ed5e" style="font-size:6.75px; font-family:Arial;" text-anchor="middle"><textPath startOffset="21.46611528233685" xlink:href="#id93">September</textPath></text><path d="M 81.87401531095188 110.60418214915194 l -11.80422666967232 6.905785913562738 a34.67587826623814,34.67587826623814 0 0,0 -0.29697083275457603,-0.5177936786535972 l 11.921349498579273 -6.701572389050835" fill="#ffad10" stroke="none" /><path d="M 81.69416730710424 110.29060199501025 l -23.833262235058534 13.39783991355265 a48.34093091162501,48.34093091162501 0 0,0 -0.4015142257172289,-0.7288649473673573 l 24.06035287022728 -12.98560444778747" fill="#abff21" stroke="none" /><path d="M 81.51974371655577 109.97397251340807 l -12.127380330594026 6.545264103580226 a34.78092289610876,34.78092289610876 0 0,0 -0.2798166516629146,-0.5293076532877871 l 12.238249490481826 -6.335541435206312" fill="#ffae10" stroke="none" /><path d="M 81.35079622478065 109.6543875284942 l -14.462647769568312 7.487076013457438 a37.28571422252917,37.28571422252917 0 0,0 -0.2901562388673729,-0.5725057864148491 l 14.589382678221952 -7.237016015339904" fill="#ffce13" stroke="none" /><path d="M 81.18737489456691 109.33194174019688 l -8.921033859103826 4.425249946188418 a30.958297153706425,30.958297153706425 0 0,0 -0.23269839935554165,-0.47942762566161046 l 8.995885515074086 -4.271033364561523" fill="#ff7c0b" stroke="none" /><path d="M 80.87730276802145 108.67885076344099 l -23.271264679844297 10.561681272407375 a46.55583829772151,46.55583829772151 0 0,0 -0.32491300763523817,-0.7325930576885301 l 23.449618772210815 -10.159539878226148" fill="#c0ff1e" stroke="none" /><path d="M 80.73074385275274 108.34839909993369 l -9.980707945962953 4.324138544636107 a31.877164394078804,31.877164394078804 0 0,0 -0.21380320606083525,-0.505367622681739 l 10.053662133216095 -4.15169639628821" fill="#ff880c" stroke="none" /><path d="M 80.58989483394504 108.01547362559985 l -10.518837193612002 4.34379213178226 a32.38044225809563,32.38044225809563 0 0,0 -0.20831014753611077,-0.517008702793762 l 10.5920499554055 -4.162084061145693" fill="#ff8f0d" stroke="none" /><path d="M 80.45479744820244 107.68017299344265 l -7.080458930084161 2.7822249123231013 a28.60747488483267,28.60747488483267 0 0,0 -0.1761481023330421,-0.4598671111205634 l 7.1273013120107125 -2.6599342343693797" fill="#ff5b08" stroke="none" /><path d="M 80.32549172779594 107.34259656027581 l -17.791728563810246 6.639936467360523 a39.99037549862786,39.99037549862786 0 0,0 -0.23513529368436395,-0.646991341629115 l 17.903388118499834 -6.332697328725291" fill="#fff016" stroke="none" /><path d="M 80.20201598880116 107.00284435728193 l -37.280150886394246 13.186549404511634 a60.54358020349129,60.54358020349129 0 0,0 -0.33907048378355303,-0.9854975412502754 l 37.50161220112103 -12.542879160172062" fill="#30ff34" stroke="none" /><path d="M 79.86692584326677 105.97154293290107 l -18.317080196003705 5.432912527133724 a40.10580972987844,40.10580972987844 0 0,0 -0.19061214831841894,-0.6635458942610144 l 18.407884981208227 -5.116809157368113" fill="#fff216" stroke="none" /><path d="M 79.76711848015287 105.62410040840567 l -4.432268111882655 1.232030191732721 a25.600315098876685,25.600315098876685 0 0,0 -0.11436260979439937,-0.42558581498004766 l 4.452818798018827 -1.1555534435771344" fill="#ff3104" stroke="none" /><path d="M 79.67330655649465 105.27499134158121 l -11.727511932345566 3.0434130407559774 a33.11597701631821,33.11597701631821 0 0,0 -0.13843848086178798,-0.5529929147989819 l 11.778161727502415 -2.8410922865596033" fill="#ff980e" stroke="none" /><path d="M 79.58551787078972 104.9243191809786 l -13.893121603030572 3.351256463938435 a35.291597103322076,35.291597103322076 0 0,0 -0.13736738926820977,-0.5917751177288557 l 13.948749558229338 -3.111612688861005" fill="#ffb510" stroke="none" /><path d="M 79.50377843672027 104.57218783832718 l -4.361435786002707 0.97292584376296 a25.46863590068456,25.46863590068456 0 0,0 -0.09176708656202456,-0.4287052775815884 l 4.377536911289172 -0.8977067467652078" fill="#ff2f04" stroke="none" /><path d="M 79.4281124754447 104.21870165774334 l -13.436708506469222 2.7554819353933415 a34.71633391924028,34.71633391924028 0 0,0 -0.11501036560003287,-0.5864353763988398 l 13.48214880504492 -2.523782831926547" fill="#ffad10" stroke="none" /><path d="M 79.35854240842038 103.8639653848113 l -13.169765914360728 2.4653065023817087 a34.39852493335528,34.39852493335528 0 0,0 -0.10393851358597687,-0.582942382200818 l 13.210250870285893 -2.2382453694476774" fill="#ffa90f" stroke="none" /><path d="M 79.29508885075956 103.50808413554451 l -11.470477048615116 1.9434712021379663 a32.633955648718356,32.633955648718356 0 0,0 -0.08907243266838008,-0.5546541232522884 l 11.502231235644787 -1.7457378491924644" fill="#ff920d" stroke="none" /><path d="M 79.23777060512086 103.15116336523772 l -10.084849772789601 1.5306164161628342 a31.200342227256968,31.200342227256968 0 0,0 -0.07601881517449913,-0.5316754162754771 l 10.1097026389807 -1.3567955279069566" fill="#ff7f0b" stroke="none" /><path d="M 79.18660465613746 102.79330883721812 l -16.249554281679284 2.1808082163420277 a37.395241347101496,37.395241347101496 0 0,0 -0.08012997247473473,-0.638714721206796 l 16.28468576340087 -1.9007757408478232" fill="#ffd013" stroke="none" /><path d="M 79.1416061653843 102.43462659150553 l -16.692836477697362 1.9484157744116313 a37.80616296782581,37.80616296782581 0 0,0 -0.06988324930891238,-0.6470320964790448 l 16.723902028507325 -1.6607873560478046" fill="#ffd513" stroke="none" /><path d="M 79.10278846688536 102.07522291339032 l -8.438236236563753 0.8379692744636527 a29.479741935283336,29.479741935283336 0 0,0 -0.045799451537440534,-0.5053931313089196 l 8.45141028437827 -0.6925947546061669" fill="#ff6709" stroke="none" /><path d="M 79.0235259727143 100.99374915477108 l -8.475305038468042 0.4015130096435233 a29.48481043936721,29.48481043936721 0 0,0 -0.019653545687513718,-0.5071706856275557 l 8.480960717006756 -0.2555650770019708" fill="#ff6709" stroke="none" /><path d="M 79.0095281055655 100.63252640178507 l -59.652267670300056 1.7975600747603677 a80.67934534184752,80.67934534184752 0 0,0 -0.02988185193731075,-1.3884922410442344 l 59.67437158492237 -0.7704780179260043" fill="#49f1ff" stroke="none" /><line stroke="#e1ed5e" stroke-width="0.3" x1="15.007084014347285" x2="10.007500721073583" y1="101.09737516637583" y2="101.16192664675087" /><path d="M 14.007167355692545 101.11028546245083 a86.0,86.0 0 0,1 10.666146001902534,-42.60595125391555" fill="none" id="id94" stroke="none" /><text fill="#e1ed5e" style="font-size:6.75px; font-family:Arial;" text-anchor="middle"><textPath startOffset="22.20632615414155" xlink:href="#id94">October</textPath></text><path d="M 79.00486145842228 99.54816195383935 l -14.51055177192765 -0.312282738613833 a35.51391171375342,35.51391171375342 0 0,0 0.018413634372123483,-0.611058880185347 l 14.503026443099882 0.5620117662241745" fill="#ffb811" stroke="none" /><path d="M 79.01574976396665 99.18683210126434 l -28.148259263469065 -1.090782876723276 a49.16938598634384,49.16938598634384 0 0,0 0.04005289426670055,-0.8454532939921439 l 28.125312760968868 1.575147277338429" fill="#a2ff22" stroke="none" /><path d="M 79.03285615573316 98.82574320788736 l -42.97856566597999 -2.406997968983553 a64.04591439297863,64.04591439297863 0 0,0 0.07111966058220044,-1.1001896708997434 l 42.93076541439338 3.146446704136308" fill="#34ff5d" stroke="none" /><path d="M 79.05617556472873 98.46500227214037 l -18.100820795358587 -1.3266306198822924 a39.14937085045361,39.14937085045361 0 0,0 0.05504311345245606,-0.6716654032138055 l 18.075303198086633 1.6380099403038764" fill="#ffe615" stroke="none" /><path d="M 79.08570108090925 98.10471618934814 l -11.730809733722518 -1.0630628289369433 a32.7788793858782,32.7788793858782 0 0,0 0.0557597994561482,-0.5614935710089773 l 11.71077280858414 1.264831930650351" fill="#ff940d" stroke="none" /><path d="M 79.12142395522702 97.74499172005258 l -4.676423187132561 -0.5050810450343002 a25.703619955651604,25.703619955651604 0 0,0 0.0512966494700603,-0.4394783663235594 l 4.667036184658912 0.5855031496827213" fill="#ff3304" stroke="none" /><path d="M 79.26566170972629 96.67025291283419 l -19.64425638214457 -3.1546897977770376 a40.89595125968161,40.89595125968161 0 0,0 0.11760144609199347,-0.6940903918711306 l 19.587043074532353 3.4923659779639964" fill="#fffb17" stroke="none" /><path d="M 79.32604984820605 96.31383870115002 l -9.120068394074163 -1.6261064242811847 a30.263901425192252,30.263901425192252 0 0,0 0.09585626166476047,-0.5120679827563094 l 9.090726408499542 1.7828524845000668" fill="#ff720a" stroke="none" /><path d="M 79.3925641242962 95.95851677861259 l -12.478406522689095 -2.4472365652515626 a33.716115607833785,33.716115607833785 0 0,0 0.11659466925963477,-0.5685570150639525 l 12.434432557514466 2.6616692364789176" fill="#ffa00e" stroke="none" /><path d="M 79.46518482838121 95.60439243477599 l -11.743749638760905 -2.5138241724999553 a33.00978632400019,33.00978632400019 0 0,0 0.123716927026771,-0.554598725409451 l 11.698738324732096 2.715601067459365" fill="#ff970d" stroke="none" /><path d="M 79.54389044137918 95.25157060432595 l -17.677571065281278 -4.103453682135928 a39.14758526332098,39.14758526332098 0 0,0 0.15802053234870064,-0.655097124114474 l 17.60431773267176 4.407136037909799" fill="#ffe615" stroke="none" /><path d="M 79.71946130924805 94.55025226153421 l -13.229512195211017 -3.5550093252569117 a34.69883514120455,34.69883514120455 0 0,0 0.15996696607645045,-0.5754862887719583 l 13.166358458568205 3.782206917447813" fill="#ffad10" stroke="none" /><path d="M 79.81627453868168 94.20196356495316 l -10.503119190293273 -3.017156959634079 a31.92788858126652,31.92788858126652 0 0,0 0.15628565065850797,-0.5269175202617955 l 10.449627642523058 3.1975038666424136" fill="#ff890c" stroke="none" /><path d="M 79.91906864156998 93.8553929516997 l -11.437800525188019 -3.4998769962240424 a32.96128838556656,32.96128838556656 0 0,0 0.17068377904119794,-0.5411142231092871 l 11.375861262378617 3.696241385759744" fill="#ff960d" stroke="none" /><path d="M 80.02781315780177 93.51064311812611 l -8.530235627532836 -2.771641568893082 a29.969220526202186,29.969220526202186 0 0,0 0.16363580614689952,-0.4892502324206927 l 8.481262527614163 2.918064904236097" fill="#ff6e0a" stroke="none" /><path d="M 80.2630227832202 92.82701384747504 l -35.326744941237784 -12.83875689241045 a58.58739930729028,58.58739930729028 0 0,0 0.3526275449554483,-0.9448665050953527 l 35.10051280778071 13.444946534535143" fill="#3fff2d" stroke="none" /><path d="M 80.38941819471856 92.48833698450439 l -8.56430751680838 -3.280483601461276 a30.171092405047332,30.171092405047332 0 0,0 0.18994347728870373,-0.4833854315742881 l 8.506570489637985 3.4274180379313277" fill="#ff710a" stroke="none" /><path d="M 80.52162464483688 92.15188598940014 l -12.674204491106916 -5.106616954760432 a34.66429640358557,34.66429640358557 0 0,0 0.22775814966873473,-0.5515344250372269 l 12.584424654551981 5.324025950250971" fill="#ffad10" stroke="none" /><path d="M 80.65960295795067 91.81776055985345 l -8.747792663872874 -3.700882354842333 a30.498442329902907,30.498442329902907 0 0,0 0.208709976101636,-0.481731400457384 l 8.682791977928558 3.850912899886316" fill="#ff750a" stroke="none" /><path d="M 80.803312248108 91.48605970444005 l -4.291730165697263 -1.9034291158795758 a25.69488979789025,25.69488979789025 0 0,0 0.182797952461277,-0.4027710574616133 l 4.258329896272635 1.9770221821832599" fill="#ff3304" stroke="none" /><path d="M 80.95270993114464 91.15688171328213 l -8.984401729641643 -4.171203722073007 a30.905473988185697,30.905473988185697 0 0,0 0.22817335749071796,-0.48059128233648996 l 8.911270178309174 4.32523742005003" fill="#ff7b0b" stroke="none" /><path d="M 81.10775173730289 90.83032412892265 l -8.297779488855864 -4.027469219357991 a30.223537974039743,30.223537974039743 0 0,0 0.23119565469770387,-0.46607633212049016 l 8.227223821204749 4.1697051399774425" fill="#ff720a" stroke="none" /><path d="M 81.26839172434947 90.50648371742162 l -16.709240680277652 -8.468543978358843 a39.73272434070505,39.73272434070505 0 0,0 0.31443828477498603,-0.6073946824893832 l 16.56099296234255 8.754911383108562" fill="#ffed16" stroke="none" /><path d="M 81.43458229118936 90.18545643968196 l -20.011453878975402 -10.578985556963362 a43.63566260936046,43.63566260936046 0 0,0 0.3567566597744074,-0.6610159086155113 l 19.826389119982522 10.921882448911346" fill="#e2ff1b" stroke="none" /><path d="M 81.6062741919709 89.86733742301443 l -4.607422866451575 -2.538118798903843 a26.260265440797635,26.260265440797635 0 0,0 0.22151454097475054,-0.3940496511373823 l 4.563050684184394 2.61705195997601" fill="#ff3b05" stroke="none" /><line stroke="#e1ed5e" stroke-width="0.3" x1="26.266209847984243" x2="21.928928074336255" y1="57.711370442889674" y2="55.22380399835377" /><path d="M 25.398753493254645 57.213857153982495 a86.0,86.0 0 0,1 29.58750427330803,-30.492523968695096" fill="none" id="id95" stroke="none" /><text fill="#e1ed5e" style="font-size:6.75px; font-family:Arial;" text-anchor="middle"><textPath startOffset="21.46611528233685" xlink:href="#id95">November</textPath></text><path d="M 81.78341655067845 89.55222093294921 l -7.7442506335646755 -4.441569402102414 a29.927539225853856,29.927539225853856 0 0,0 0.26014203583759765,-0.44466706552632734 l 7.666648923256755 4.574215879982633" fill="#ff6e0a" stroke="none" /><path d="M 81.96595687620814 89.24020034530311 l -4.014107801335617 -2.3949701926655744 a25.674285364042298,25.674285364042298 0 0,0 0.22970441000928055,-0.37757365334734283 l 3.9722875930401167 2.4637116192199917" fill="#ff3204" stroke="none" /><path d="M 82.15384107792192 88.93136811851018 l -11.678361424685479 -7.243210382314727 a34.74220587125858,34.74220587125858 0 0,0 0.3195826390413642,-0.5055029870266691 l 11.551951189398151 7.443161017055611" fill="#ffae10" stroke="none" /><path d="M 82.34701348167596 88.62581576622439 l -11.478879464635169 -7.396079393848615 a34.655279717520806,34.655279717520806 0 0,0 0.3274154332651691,-0.49867616754456795 l 11.34986739601208 7.592573625370851" fill="#ffad10" stroke="none" /><path d="M 82.54541684631803 88.32363383020206 l -15.649121993340849 -10.468590227635483 a39.82780923306292,39.82780923306292 0 0,0 0.3860936926602029,-0.5665448525194925 l 15.466603835011906 10.736413103425392" fill="#ffee16" stroke="none" /><path d="M 82.7489923806493 88.02491185347247 l -17.053661780038993 -11.838097086454175 a41.75976692393914,41.75976692393914 0 0,0 0.4149874455694056,-0.5869703118222874 l 16.84736171466571 12.12989389860825" fill="#f8ff18" stroke="none" /><path d="M 83.17141714833178 87.43820079747577 l -17.491875006758697 -13.05691771240103 a42.82770696615843,42.82770696615843 0 0,0 0.44606904469192316,-0.5869745751888908 l 17.264530021842667 13.356077063470943" fill="#ebff1a" stroke="none" /><path d="M 83.39014120810768 87.1503855733568 l -3.7946454268889758 -2.9355897140527807 a25.79760574506304,25.79760574506304 0 0,0 0.2747394883489942,-0.3488912499713551 l 3.7435518579460103 3.0004733579771834" fill="#ff3404" stroke="none" /><path d="M 83.6137871275137 86.86637796730984 l -7.103464004627654 -5.69345779196164 a30.1035521909796,30.1035521909796 0 0,0 0.32755747949980263,-0.4015467390344136 l 7.004408033051459 5.814888700604135" fill="#ff700a" stroke="none" /><path d="M 84.07557802195018 86.31012108654704 l -6.911381479829 -5.9415642033323905 a30.11424045886678,30.11424045886678 0 0,0 0.341306392923028,-0.3901722078867426 l 6.808083223328128 6.059651967422076" fill="#ff700a" stroke="none" /><path d="M 84.31358615837235 86.03803664274999 l -14.427040322396472 -12.841036222079376 a40.31402867660728,40.31402867660728 0 0,0 0.46583121098885166,-0.5143824579920052 l 14.203865470791575 13.087471467340938" fill="#fff417" stroke="none" /><path d="M 84.5562425177563 85.77008943001954 l -6.69799451101136 -6.171546205610616 a30.10775016332382,30.10775016332382 0 0,0 0.35445808106299626,-0.3781111670030177 l 6.590769107977906 6.2859267894916835" fill="#ff700a" stroke="none" /><path d="M 84.80347519578584 85.50635884689758 l -6.603591562321422 -6.298156167875972 a30.125469447481418,30.125469447481418 0 0,0 0.361126534888147,-0.372172638120834 l 6.494200763730161 6.410893001546929" fill="#ff700a" stroke="none" /><path d="M 85.05521093208273 85.24692304244772 l -3.3358105120164083 -3.293018655260849 a25.687387719825953,25.687387719825953 0 0,0 0.31334233909719716,-0.31199674751324635 l 3.2786323727518956 3.349951253424207" fill="#ff3204" stroke="none" /><path d="M 85.31137513191541 84.99185889309783 l -13.165447334420584 -13.451830454176411 a39.82234698658247,39.82234698658247 0 0,0 0.4940185080326135,-0.475245413317027 l 12.931945582775542 13.676458954255748" fill="#ffee16" stroke="none" /><path d="M 85.57189188830299 84.74124197986013 l -6.966730973829928 -7.3678171315408125 a31.140023162968987,31.140023162968987 0 0,0 0.39264917295236934,-0.3649246138064688 l 6.838873917082703 7.486646331421931" fill="#ff7e0b" stroke="none" /><path d="M 85.83668400450813 84.49514656593479 l -9.462803199977827 -10.359112000167174 a35.03053262829028,35.03053262829028 0 0,0 0.4487061131271859,-0.40285277871772496 l 9.28308609925467 10.520463787654178" fill="#ffb110" stroke="none" /><path d="M 86.10567301691215 84.25364557470407 l -12.317524104147193 -13.959373521445885 a39.6168071689936,39.6168071689936 0 0,0 0.5152188436031959,-0.4467927041218974 l 12.075411461897223 14.169331218987463" fill="#ffec16" stroke="none" /><path d="M 86.37877921826538 84.01681056812374 l -8.145007119905184 -9.557380634780888 a33.55725549558465,33.55725549558465 0 0,0 0.4428638305208933,-0.37088572197930125 l 7.97928575242518 9.696167514154" fill="#ff9e0e" stroke="none" /><path d="M 86.65592168130627 83.78471172551755 l -10.999629572052688 -13.366390706317171 a38.31046652278032,38.31046652278032 0 0,0 0.5128067589981917,-0.41465406912354186 l 10.767919414489995 13.55375087270485" fill="#ffdb14" stroke="none" /><path d="M 86.93701828274178 83.55741782278169 l -7.8861736936340305 -9.926451849050805 a33.677783001680126,33.677783001680126 0 0,0 0.4570034176135292,-0.3566984163154559 l 7.714137720861076 10.06072865458948" fill="#ffa00e" stroke="none" /><path d="M 87.22198572758235 83.33499621200491 l -18.432059365830543 -24.03897292673774 a51.29212821572514,51.29212821572514 0 0,0 0.7052761573432593,-0.5311993798028048 l 18.015537054728895 24.352688896046395" fill="#8bff24" stroke="none" /><path d="M 87.51073957382395 83.11751280151077 l -5.421701461137558 -7.328841131364764 a30.116290861007293,30.116290861007293 0 0,0 0.41941191982635156,-0.30472059650622013 l 5.294744224957425 7.421080962687652" fill="#ff700a" stroke="none" /><path d="M 88.09926311788651 82.69761687909137 l -21.96176549420385 -31.93002957349499 a59.75365701694058,59.75365701694058 0 0,0 0.852472149253197,-0.5755930005294448 l 21.408888650544114 32.3033344863231" fill="#34ff2f" stroke="none" /><path d="M 88.39885842347998 82.49532879139004 l -3.0592215068747133 -4.6159825116291415 a26.53770085647382,26.53770085647382 0 0,0 0.38294278187543485,-0.24907663757825804 l 2.9793116992149913 4.667958073366935" fill="#ff3f05" stroke="none" /><path d="M 89.00827224532344 82.1063720568725 l -1.192939025141046 -1.942006529922395 a23.279143014373098,23.279143014373098 0 0,0 0.34324313062830414,-0.2068001456299524 l 1.1593338282950951 1.9622532850109664" fill="#ff1001" stroke="none" /><line stroke="#e1ed5e" stroke-width="0.3" x1="56.76296977257108" x2="54.21961505331056" y1="26.818313649435495" y2="22.513508569990535" /><path d="M 56.25429882871898 25.957352633546506 a86.0,86.0 0 0,1 42.26535254187918,-11.944610805530505" fill="none" id="id96" stroke="none" /><text fill="#e1ed5e" style="font-size:6.75px; font-family:Arial;" text-anchor="middle"><textPath startOffset="22.20632615414155" xlink:href="#id96">December</textPath></text><path d="M 89.3179101791058 81.91981866633112 l -8.101892943609235 -13.713018334661884 a36.927571726929315,36.927571726929315 0 0,0 0.5500507189668887,-0.3186248797428775 l 7.864645492177024 13.850447371794807" fill="#ffca12" stroke="none" /><path d="M 89.63071344664047 81.73862282372117 l -4.34661379586 -7.6548327175026225 a29.802812926747283,29.802812926747283 0 0,0 0.4482852705453197,-0.24947026771030775 l 4.2142044362426345 7.728518382773115" fill="#ff6c09" stroke="none" /><path d="M 89.94658935756843 81.56283822128135 l -6.572320265726186 -12.053116729293055 a34.72854750384174,34.72854750384174 0 0,0 0.5273033046893808,-0.2816671636951817 l 6.3638719145085 12.164462619489987" fill="#ffae10" stroke="none" /><path d="M 90.26544431104013 81.39251694778311 l -5.756398178683093 -11.00328407110922 a33.41806669095765,33.41806669095765 0 0,0 0.511995832517852,-0.2622641514416674 l 5.566141858576477 11.100740747863393" fill="#ff9c0e" stroke="none" /><path d="M 90.58718382345135 81.22770947309562 l -3.0367315363733836 -6.0562541096936835 a27.774950351492347,27.774950351492347 0 0,0 0.4292271164961017,-0.21061988195173598 l 2.9320331528668557 6.107629151780249" fill="#ff5007" stroke="none" /><path d="M 90.91171255644093 81.06846463323043 l -8.234244522612473 -17.152504513811863 a40.02659175875989,40.02659175875989 0 0,0 0.6236939500419887,-0.2928326723675431 l 7.937772361270875 17.291702168819416" fill="#fff116" stroke="none" /><path d="M 91.23893434514133 80.91482961587045 l -13.290373881103601 -28.951849008114646 a52.856609971687035,52.856609971687035 0 0,0 0.8301454821852279,-0.3724620796965233 l 12.7900462804516 29.1763314183277" fill="#7aff26" stroke="none" /><path d="M 91.56875222667455 80.76684994638697 l -9.12922855871952 -20.825366240461964 a43.73848484676833,43.73848484676833 0 0,0 0.6921432821058856,-0.29633963191384394 l 8.769401518823326 20.97942540033859" fill="#e0ff1b" stroke="none" /><path d="M 91.90106846888425 80.62456947434976 l -7.045004915515776 -16.854075475142988 a39.26723718523022,39.26723718523022 0 0,0 0.6258751277426435,-0.2553101793947918 l 6.753845918184751 16.972846540721356" fill="#ffe715" stroke="none" /><path d="M 92.23578459929587 80.48803036053334 l -4.983446844731978 -12.523720494087254 a34.47880994258359,34.47880994258359 0 0,0 0.5533304476870081,-0.2146836171982762 l 4.767133232045293 12.607646815176082" fill="#ffaa0f" stroke="none" /><path d="M 92.57280143429618 80.3572730644239 l -11.178277640847648 -29.56321328517211 a52.605972074284495,52.605972074284495 0 0,0 0.8497559760720004,-0.31297229737299836 l 10.667739339003079 29.75124885035143" fill="#7dff26" stroke="none" /><path d="M 92.91201910852362 80.23233633223022 l -3.0827739682021367 -8.597545605753263 a30.133525375342863,30.133525375342863 0 0,0 0.48976735674381733,-0.17087021393378068 l 2.934324607395034 8.649336672859253" fill="#ff700a" stroke="none" /><path d="M 93.25333710446033 80.11325718540243 l -9.222912456754502 -27.18583852029763 a49.70769810062548,49.70769810062548 0 0,0 0.8126431726063377,-0.2679156773169596 l 8.753586461905755 27.340567921873824" fill="#9cff22" stroke="none" /><path d="M 93.59665428221793 80.00007090966166 l -5.287341045569055 -16.514249057982116 a38.34002298963939,38.34002298963939 0 0,0 0.6302636546014502,-0.19582598545093344 l 5.002292018256876 16.602815178315574" fill="#ffdc14" stroke="none" /><path d="M 93.94186890950719 79.89281104454417 l -3.9391627679288623 -13.074244996999383 a34.654775192356716,34.654775192356716 0 0,0 0.5726450473496898,-0.16717079228250264 l 3.7135275028557513 13.140114118200584" fill="#ffad10" stroke="none" /><path d="M 94.28887869178378 79.79150937346287 l -2.4733308618877152 -8.751746083011147 a30.09452720342664,30.09452720342664 0 0,0 0.4997154837451892,-0.13659111856932052 l 2.3223174889188036 8.793023742406763" fill="#ff700a" stroke="none" /><path d="M 94.63758080256005 79.69619591428918 l -3.2746988186299384 -12.399038718366722 a33.82418860951029,33.82418860951029 0 0,0 0.5642053627311211,-0.14382850951659687 l 3.0607845672138176 12.453570224052182" fill="#ffa20e" stroke="none" /><path d="M 94.98787191387505 79.60689891045804 l -7.195715505632386 -29.27757455444397 a51.14887549194867,51.14887549194867 0 0,0 0.8568077541223861,-0.20277871305249268 l 6.690684064547465 29.397099179637333" fill="#8cff24" stroke="none" /><path d="M 95.33964822691252 79.52364482259891 l -2.0231145993730637 -8.889031368956859 a30.116351866865138,30.116351866865138 0 0,0 0.5064670849398151,-0.11069408812939471 l 1.8698047902797275 8.922538955182121" fill="#ff700a" stroke="none" /><path d="M 95.692805502759 79.44645832069477 l -2.79666020778379 -13.345408984980466 a34.63529425037093,34.63529425037093 0 0,0 0.5845672238248197,-0.11725868577633833 l 2.5665265744918337 13.391571626834015" fill="#ffac10" stroke="none" /><path d="M 96.04723909329186 79.375362276772 l -2.571282113481954 -13.416384984172039 a34.6605592034378,34.6605592034378 0 0,0 0.586926855144976,-0.10725713123570074 l 2.3399601372340846 13.458657596758476" fill="#ffad10" stroke="none" /><path d="M 96.40284397218896 79.31037775812273 l -2.0779092089685256 -11.951429477647121 a33.13072022758289,33.13072022758289 0 0,0 0.5627028707029746,-0.09285079509023546 l 1.8718771321266652 11.985426535676982" fill="#ff990e" stroke="none" /><path d="M 96.75951476605007 79.25152402106235 l -5.630220645571056 -36.049692989452836 a57.48670647169486,57.48670647169486 0 0,0 0.9790014022510107,-0.14427935802274486 l 5.008850262891396 36.14126683163655" fill="#4aff2c" stroke="none" /><path d="M 97.11714578562143 79.19881850522333 l -8.5388802089368 -61.61213290021975 a83.20102407305617,83.20102407305617 0 0,0 1.4203019858692287,-0.18439596070576492 l 7.4770634945597125 61.749987184089655" fill="#4cd9ff" stroke="none" /><path d="M 97.83486435360386 79.11191278185805 l -1.4807576513374672 -14.285569138151303 a35.36210739490885,35.36210739490885 0 0,0 0.6059968525982969,-0.05754670309603416 l 1.234635671648934 14.308941385762518" fill="#ffb610" stroke="none" /><path d="M 98.19473922651362 79.07773832637324 l -3.1806312465366617 -36.86226400346462 a57.99922867557605,57.99922867557605 0 0,0 0.9954043344807162,-0.07726253407003168 l 2.545636722693611 36.911551799723114" fill="#45ff2d" stroke="none" /><path d="M 98.55514903715128 79.0497635885617 l -0.9360754138477352 -13.573027061821874 a34.60526739176262,34.60526739176262 0 0,0 0.5946139897619346,-0.03586873968280778 l 0.7022993752461776 13.587129070884988" fill="#ffac0f" stroke="none" /><path d="M 99.27714615592234 79.0124445844662 l -0.27007272216259354 -7.841372455926955 a28.84602200276205,28.84602200276205 0 0,0 0.4963897158276513,-0.012820281867516449 l 0.13505637114006322 7.844859529936831" fill="#ff5f08" stroke="none" /><path d="M 99.63851952072746 79.00311137660856 l -0.31762914670903 -18.449748186717578 a39.4524821210624,39.4524821210624 0 0,0 0.6791096259815612,-0.005845310953383836 l 4.519554633176567e-15 18.452482121062403" fill="#ffea16" stroke="none" /></svg>