<?xml version="1.0" encoding="utf-8" ?>
<svg baseProfile="full" height="200mm" version="1.1" viewBox="0,0,200,200" width="200mm" xmlns="http://www.w3.org/2000/svg" xmlns:ev="http://www.w3.org/2001/xml-events" xmlns:xlink="http://www.w3.org/1999/xlink"><defs /><rect fill="#1a1a1a" height="200" width="200" x="0" y="0" /><text alignment-baseline="middle" fill="#e1ed5e" style="dominant-baseline: central; font-size:9.0px; font-family:Arial;" text-anchor="middle" x="100.0" y="100.0">2019</text><line stroke="#e1ed5e" stroke-width="0.3" x1="100.0" x2="100.0" y1="15.0" y2="10.0" /><path d="M 100.0 14.0 a86.0,86.0 0 0,1 42.46469731375804,11.215312516191453" fill="none" id="id49" stroke="none" /><text fill="#e1ed5e" style="font-size:6.75px; font-family:Arial;" text-anchor="middle"><textPath startOffset="22.20632615414155" xlink:href="#id49">January</textPath></text><path d="M 100.0 79.0 l 0.0 -6.162744983591587 a27.162744983591587,27.162744983591587 0 0,0 0.4675620035726739,0.004024453779342696 l -0.10608152430014556 6.161831906420803" fill="#ff5307" stroke="none" /><path d="M 100.72285384407766 79.0124445844662 l 0.10342309503445223 -3.0028171753740915 a24.00459769774726,24.00459769774726 0 0,0 0.41283240587368425,0.017777431812954766 l -0.15509633329746803 3.0005920170369422" fill="#ff2703" stroke="none" /><path d="M 101.80526077348638 79.07773832637324 l 0.7120614077289086 -8.252511392813298 a29.283174254891065,29.283174254891065 0 0,0 0.5018227911130074,0.047654120715621626 l -0.8540093259321602 8.239031727582498" fill="#ff700a" stroke="none" /><path d="M 102.52436894288641 79.15227682838746 l 0.3469252589224659 -2.8651127956699125 a23.8860402746999,23.8860402746999 0 0,0 0.40775207774991984,0.052937922254928486 l -0.39619206518023187 2.8587165502508474" fill="#ff2603" stroke="none" /><path d="M 102.88285421437855 79.19881850522331 l 0.1733634430031454 -1.2509007304225264 a22.262856888464214,22.262856888464214 0 0,0 0.37913753369487524,0.05587501696938248 l -0.19486995712667646 1.247731229292175" fill="#ff0e01" stroke="none" /><path d="M 103.2404852339499 79.25152402106235 l 0.4210025657578078 -2.695633830137685 a23.728311731924602,23.728311731924602 0 0,0 0.40300932297189473,0.06649999140749094 l -0.4673410948685778 2.6879875757905696" fill="#ff2303" stroke="none" /><path d="M 103.59715602781102 79.31037775812273 l 0.32742124878740525 -1.8832160459543472 a22.91146732901649,22.91146732901649 0 0,0 0.38797283642332153,0.0708995559964008 l -0.35978920631362765 1.8773010086072077" fill="#ff1802" stroke="none" /><path d="M 103.95276090670814 79.375362276772 l 0.37873981063103274 -1.9761810972104472 a23.012147005844433,23.012147005844433 0 0,0 0.38839418519770397,0.07790821972786927 l -0.41270040529586205 1.9693689214053696" fill="#ff1902" stroke="none" /><path d="M 104.307194497241 79.44645832069477 l 1.9100119344398925 -9.11440380220288 a30.31238434877519,30.31238434877519 0 0,0 0.5097637657630801,0.11141461486930668 l -2.0666184243565007 9.080175689237702" fill="#ff7e0b" stroke="none" /><path d="M 105.01212808612495 79.60689891045804 l 0.46223375395270594 -1.8807140418958956 a22.936684112259304,22.936684112259304 0 0,0 0.3825960270268496,0.09753224614504223 l -0.4945386696645806 1.8724787995819856" fill="#ff1802" stroke="none" /><path d="M 105.36241919743992 79.69619591428918 l 0.32382807203705266 -1.2261148354893094 a22.268157013167617,22.268157013167617 0 0,0 0.3697596835042559,0.10106928925467785 l -0.34488564476501943 1.220359005408338" fill="#ff0f01" stroke="none" /><path d="M 106.0581310904928 79.89281104454417 l 0.833227887999624 -2.7655180016253174 a23.88831413295957,23.88831413295957 0 0,0 0.3926950219037581,0.12201225484691529 l -0.8807082826141003 2.7507656118958814" fill="#ff2603" stroke="none" /><path d="M 106.40334571778207 80.00007090966166 l 1.273689237985162 -3.9781850872255666 a25.177109151456676,25.177109151456676 0 0,0 0.4116063837129862,0.13570015327486107 l -1.3419784439405658 3.9556712096914692" fill="#ff3805" stroke="none" /><path d="M 106.74666289553966 80.11325718540242 l 3.44511016135118 -10.154949314577772 a31.723422010043656,31.723422010043656 0 0,0 0.515608324986816,0.17988562035304825 l -3.6194004904012695 10.094142841052516" fill="#ff900d" stroke="none" /><path d="M 107.08798089147638 80.2323363322302 l 0.8481705931329436 -2.36546222043391 a23.51292754996152,23.51292754996152 0 0,0 0.37980955227504093,0.13988706344756344 l -0.888762471180561 2.350511889180022" fill="#ff2003" stroke="none" /><path d="M 107.4271985657038 80.35727306442388 l 1.688670028236323 -4.4660290088520735 a25.774622662805083,25.774622662805083 0 0,0 0.41364198824506776,0.16048666512522985 l -1.7652951814810578 4.436299639836297" fill="#ff4006" stroke="none" /><path d="M 107.76421540070413 80.48803036053334 l 0.46934642397780674 -1.1794975670325538 a22.269448926241804,22.269448926241804 0 0,0 0.35494970338050935,0.14479289626519512 l -0.48957999694670357 1.1712437845837793" fill="#ff0f01" stroke="none" /><path d="M 108.43124777332544 80.76684994638697 l 1.157347746273787 -2.64011252743852 a23.882646000351556,23.882646000351556 0 0,0 0.3750916052020845,0.16829266959631953 l -1.2026214699426516 2.6197995273256693" fill="#ff2603" stroke="none" /><path d="M 108.76106565485865 80.91482961587045 l 0.6106742861187617 -1.3302973929113064 a22.463767139033145,22.463767139033145 0 0,0 0.350030193532559,0.16434386925601377 l -0.6334826909509187 1.3195885410152897" fill="#ff1101" stroke="none" /><path d="M 109.08828744355905 81.06846463323043 l 1.8781156173564837 -3.912245563718947 a25.339698563609794,25.339698563609794 0 0,0 0.391593346151708,0.19215315428541285 l -1.9451802305186234 3.879337249298702" fill="#ff3a05" stroke="none" /><path d="M 109.73455568895987 81.39251694778311 l 1.2390787432806425 -2.368483724645506 a23.67301913310784,23.67301913310784 0 0,0 0.3594409244867381,0.19200089363329848 l -1.2796647142956916 2.3468041045104533" fill="#ff2303" stroke="none" /><path d="M 110.05341064243156 81.56283822128135 l 0.9143732798201972 -1.6768884397330364 a22.90998254812955,22.90998254812955 0 0,0 0.3446053146063892,0.19177248448219852 l -0.9431026834986227 1.660900557690658" fill="#ff1802" stroke="none" /><path d="M 110.36928655335952 81.73862282372117 l 1.9481339995853484 -3.430863789257962 a24.945383684862843,24.945383684862843 0 0,0 0.37157131078720074,0.21523808647653497 l -2.006902042837876 3.3968215453913775" fill="#ff3405" stroke="none" /><line stroke="#e1ed5e" stroke-width="0.3" x1="143.23703022742887" x2="145.7803849466894" y1="26.81831364943548" y2="22.513508569990506" /><path d="M 143.74570117128098 25.957352633546492 a86.0,86.0 0 0,1 28.547481713284135,27.462654790039103" fill="none" id="id50" stroke="none" /><text fill="#e1ed5e" style="font-size:6.75px; font-family:Arial;" text-anchor="middle"><textPath startOffset="19.985693538727396" xlink:href="#id50">February</textPath></text><path d="M 110.68208982089419 81.91981866633111 l 2.921457351020346 -4.9447701293159705 a26.74331478204062,26.74331478204062 0 0,0 0.3943211776953509,0.2375740974716776 l -3.0061405949333344 4.893749422385678" fill="#ff4d07" stroke="none" /><path d="M 110.99172775467656 82.1063720568725 l 5.071300878954952 -8.25566036031663 a30.688860644564592,30.688860644564592 0 0,0 0.4477371017624377,0.28037293204815783 l -5.212657133089654 8.16714308694553" fill="#ff830c" stroke="none" /><path d="M 111.90073688211348 82.69761687909136 l 2.9422059665901585 -4.277648969038089 a26.191806684782414,26.191806684782414 0 0,0 0.36926563606708773,0.25869417627717844 l -3.0154027422408975 4.2263699499969745" fill="#ff4606" stroke="none" /><path d="M 112.19680574252982 82.90503203632743 l 2.1593960525010663 -3.0265962349196194 a24.717966659450674,24.717966659450674 0 0,0 0.3442326247508212,0.25009964140838087 l -2.211173993605676 2.988977358694564" fill="#ff3104" stroke="none" /><path d="M 112.48926042617603 83.11751280151076 l 2.9067384947531862 -3.9292138807655377 a25.887519861614948,25.887519861614948 0 0,0 0.3559581395094081,0.26810029089233967 l -2.9739427880209774 3.8785970003673507" fill="#ff4206" stroke="none" /><path d="M 112.77801427241765 83.33499621200491 l 4.453344208557451 -5.808022789977224 a28.318838935841327,28.318838935841327 0 0,0 0.38428319868563526,0.2999391319732305 l -4.552659962402516 5.730505268780767" fill="#ff6309" stroke="none" /><path d="M 113.06298171725822 83.55741782278167 l 1.18539788301401 -1.4920791076671158 a22.90564115315313,22.90564115315313 0 0,0 0.3066046610406036,0.24791964630321858 l -1.2109059426191047 1.4714533640997698" fill="#ff1802" stroke="none" /><path d="M 113.6212207817346 84.01681056812373 l 4.422354191499891 -5.189206306117412 a27.817996676629093,27.817996676629093 0 0,0 0.3617746381719576,0.3137274012362357 l -4.511022628318612 5.112313911461502" fill="#ff5c08" stroke="none" /><path d="M 114.16331599549186 84.49514656593476 l 2.024348355142642 -2.2160929372731766 a24.001508648929864,24.001508648929864 0 0,0 0.30263858415554407,0.28126958122816625 l -2.062194823093033 2.18091876997037" fill="#ff2703" stroke="none" /><path d="M 114.68862486808459 84.99185889309783 l 44.065874604253764 -45.02442332070654 a84.0,84.0 0 0,0 1.0246567993307192,1.0202565973995252 l -44.8343672037518 44.25923087265689" fill="#4dd2ff" stroke="none" /><path d="M 116.15771136456269 86.58626213691792 l 1.557008738220087 -1.2925906765990605 a23.02362715640123,23.02362715640123 0 0,0 0.2505206439575345,0.3071086875975624 l -1.5790278742540305 1.2655978193933972" fill="#ff1902" stroke="none" /><path d="M 116.38621287248628 86.86637796730983 l 0.35177037189892496 -0.2819455076515395 a21.45081666321332,21.45081666321332 0 0,0 0.2284470292692695,0.290104528012928 l -0.3565714817621585 0.2758485856855731" fill="#ff0300" stroke="none" /><path d="M 116.60985879189232 87.15038557335679 l 2.5822260027897066 -1.9976454293817425 a24.264732514466242,24.264732514466242 0 0,0 0.25272765737809577,0.3325599727065654 l -2.616229600391916 1.9529006807941436" fill="#ff2b04" stroke="none" /><path d="M 116.82858285166822 87.43820079747576 l 1.557551745130854 -1.162644082531018 a22.94363286178346,22.94363286178346 0 0,0 0.23351962606305268,0.3185205075153697 l -1.577333983707533 1.1356611313441547" fill="#ff1802" stroke="none" /><path d="M 117.04232023915458 87.72973835380427 l 1.0227400633210157 -0.7363603075691407 a22.26024749144174,22.26024749144174 0 0,0 0.22121108245267448,0.31288738835853713 l -1.0352637655775732 0.7186464188788104" fill="#ff0e01" stroke="none" /><path d="M 117.2510076193507 88.02491185347247 l 0.9431031613962657 -0.6546715263356971 a22.148058526570114,22.148058526570114 0 0,0 0.21470489756888939,0.31505294398951206 l -0.9542325246338884 0.6383405590757786" fill="#ff0d01" stroke="none" /><path d="M 117.45458315368197 88.32363383020206 l 2.0860217317086156 -1.395458909739002 a23.50973947531025,23.50973947531025 0 0,0 0.2221148292266746,0.33829612333475023 l -2.109733196293215 1.3593447224265778" fill="#ff2003" stroke="none" /><path d="M 117.65298651832404 88.62581576622439 l 2.1015321905199995 -1.3540606448304167 a23.499983555479986,23.499983555479986 0 0,0 0.21616896721869436,0.34192739305020864 l -2.1245287539846496 1.3176856040660019" fill="#ff2003" stroke="none" /><line stroke="#e1ed5e" stroke-width="0.3" x1="172.23445277983987" x2="176.4835382374775" y1="55.19839476539836" y2="52.563006222186495" /><path d="M 173.08426987136738 54.67131705675599 a86.0,86.0 0 0,1 12.851231095245387,41.99856678651699" fill="none" id="id51" stroke="none" /><text fill="#e1ed5e" style="font-size:6.75px; font-family:Arial;" text-anchor="middle"><textPath startOffset="22.20632615414155" xlink:href="#id51">March</textPath></text><path d="M 117.84615892207809 88.93136811851018 l 1.6214076820285337 -1.0056373946099395 a22.90794901419797,22.90794901419797 0 0,0 0.20495436730630806,0.33689109072920964 l -1.6384778476210657 0.9775785306736485" fill="#ff1802" stroke="none" /><path d="M 118.03404312379186 89.2402003453031 l 2.9660805291572503 -1.7696770510283113 a24.45389498543051,24.45389498543051 0 0,0 0.21256295005280823,0.36333898493286476 l -2.9961031536803833 1.7183586537415512" fill="#ff2e04" stroke="none" /><path d="M 118.3937258080291 89.86733742301442 l 0.6538189975586605 -0.3601732111170758 a21.74646099936634,21.74646099936634 0 0,0 0.17779482020251097,0.3294267994817837 l -0.6599219169796363 0.3488654283028334" fill="#ff0701" stroke="none" /><path d="M 118.56541770881063 90.18545643968196 l 2.730538319959952 -1.4434895947235566 a24.088608380297654,24.088608380297654 0 0,0 0.190633308624078,0.3682428748982667 l -2.754981061744146 1.3962739975649452" fill="#ff2803" stroke="none" /><path d="M 118.73160827565052 90.50648371742162 l 3.594351035114319 -1.8216818104998111 a25.029625786885582,25.029625786885582 0 0,0 0.19146470296125437,0.3859811578353487 l -3.6251757510289813 1.7595410641655125" fill="#ff3605" stroke="none" /><path d="M 119.196687751892 91.48605970444005 l 3.250983502151199 -1.441846624631257 a24.556376726419717,24.556376726419717 0 0,0 0.1680466413423568,0.38787481742890756 l -3.2753208533362366 1.3856726626157467" fill="#ff2f04" stroke="none" /><path d="M 119.34039704204932 91.81776055985345 l 1.7682876052582466 -0.7481000805624212 a22.920024683551606,22.920024683551606 0 0,0 0.15059363535062703,0.3646744329815512 l -1.780902927495071 0.7175510771275668" fill="#ff1802" stroke="none" /><path d="M 119.61058180528143 92.48833698450437 l 8.044822535328208 -3.081499391750632 a29.614801688157662,29.614801688157662 0 0,0 0.17824643075321195,0.4776118158687449 l -8.096673554583047 2.942564438852554" fill="#ff740a" stroke="none" /><path d="M 119.7369772167798 92.82701384747503 l 4.500967101662745 -1.6357811198033518 a25.788996212376393,25.788996212376393 0 0,0 0.14803733535283164,0.41852148196442485 l -4.528457517825386 1.5580620114123123" fill="#ff4006" stroke="none" /><path d="M 119.85752413597 93.16781622104841 l 1.1998885023785666 -0.41283388132217946 a22.268922468753633,22.268922468753633 0 0,0 0.12159118643113938,0.36354217101077957 l -1.206816982581476 0.3921186073890859" fill="#ff0f01" stroke="none" /><path d="M 119.97218684219823 93.5106431181261 l 0.9415456806635376 -0.3059267365506017 a21.989999715612417,21.989999715612417 0 0,0 0.11387104195293124,0.36100232105907004 l -0.946672206384675 0.2896742490651125" fill="#ff0b01" stroke="none" /><path d="M 120.08093135843002 93.85539295169968 l 0.5736013433493348 -0.17551749938028827 a21.599854060318734,21.599854060318734 0 0,0 0.10573036288802948,0.3564702222795295 l -0.5765376033490666 0.16561789035422886" fill="#ff0500" stroke="none" /><path d="M 120.18372546131832 94.20196356495316 l 3.106858473420405 -0.8924853175370605 a24.232506707786296,24.232506707786296 0 0,0 0.11171558245966952,0.4019003893403045 l -3.121760826446438 0.8388736247778041" fill="#ff2a04" stroke="none" /><path d="M 120.28053869075195 94.5502522615342 l 0.5492516492304295 -0.1475938572877799 a21.568736600625837,21.568736600625837 0 0,0 0.09326287620286115,0.35937990633115796 l -0.5517108573035933 0.13811752540777153" fill="#ff0500" stroke="none" /><path d="M 120.37134235888165 94.90015583598534 l 2.4267931865717216 -0.6075332126757178 a23.50168378795063,23.50168378795063 0 0,0 0.09486532970763203,0.39327803637888387 l -2.436891316540173 0.5656699446374278" fill="#ff2003" stroke="none" /><path d="M 120.45610955862082 95.25157060432595 l 1.839865523517156 -0.42708372825830315 a22.888784173898667,22.888784173898667 0 0,0 0.08578456138975026,0.38455536804813073 l -1.8469444719089438 0.3953501906602085" fill="#ff1702" stroke="none" /><path d="M 120.53481517161879 95.60439243477599 l 2.996708792631205 -0.6414645434875204 a24.064594646667782,24.064594646667782 0 0,0 0.08321846698862907,0.4058027994735572 l -3.007306555534831 0.5897860878505514" fill="#ff2803" stroke="none" /><path d="M 120.6074358757038 95.95851677861258 l 2.463740493198511 -0.48318315413777846 a23.510673849441336,23.510673849441336 0 0,0 0.07446645007080915,0.3978027539206736 l -2.4716926671791795 0.4407023227545421" fill="#ff2003" stroke="none" /><path d="M 120.67395015179393 96.31383870115 l 3.526916925786607 -0.628848603224743 a24.58254009987017,24.58254009987017 0 0,0 0.07069018265407763,0.4172174595661688 l -3.5372189699609073 0.5680453553427369" fill="#ff2f04" stroke="none" /><path d="M 120.78858239683441 97.02765380044208 l 3.0782469233918897 -0.440126958605796 a24.109552357022345,24.109552357022345 0 0,0 0.05520398753572429,0.4113338281215593 l -3.08536690998545 0.3870747884195723" fill="#ff2904" stroke="none" /><path d="M 120.87857604477298 97.74499172005257 l 1.9505654458988069 -0.21067247218626034 a22.96190938864961,22.96190938864961 0 0,0 0.039060257294608734,0.3933314604211825 l -1.9539028288756441 0.17706548106064288" fill="#ff1802" stroke="none" /><path d="M 120.91429891909075 98.10471618934814 l 3.8681897948539548 -0.35054091571883217 a24.884040579423093,24.884040579423093 0 0,0 0.034986387750671706,0.42692254782872713 l -3.8736506664241213 0.2839044506823363" fill="#ff3404" stroke="none" /><path d="M 120.94382443527127 98.46500227214037 l 1.9114600951930374 -0.14009317696888288 a22.916587017004083,22.916587017004083 0 0,0 0.025447679306305704,0.3936643354590856 l -1.9135883655037584 0.10716977725676206" fill="#ff1802" stroke="none" /><path d="M 120.96714384426684 98.82574320788733 l 4.34295658388823 -0.24322560594611628 a25.34976212969468,25.34976212969468 0 0,0 0.020649664865630094,0.4358817883229352 l -4.346499856987357 0.16843271100018128" fill="#ff3a05" stroke="none" /><path d="M 120.98425023603335 99.18683210126433 l 4.484202671480596 -0.17376888012950167 a25.487568297264698,25.487568297264698 0 0,0 0.013215068152534874,0.43854377596885336 l -4.4865294340887765 0.09655495673564923" fill="#ff3c05" stroke="none" /><line stroke="#e1ed5e" stroke-width="0.3" x1="184.98032266829074" x2="189.97916517819016" y1="98.17113171792111" y2="98.06355123074" /><path d="M 185.9800911702706 98.14961562048488 a86.0,86.0 0 0,1 -9.607161424134198,41.387399972396054" fill="none" id="id52" stroke="none" /><text fill="#e1ed5e" style="font-size:6.75px; font-family:Arial;" text-anchor="middle"><textPath startOffset="21.466115282336823" xlink:href="#id52">April</textPath></text><path d="M 120.99513854157772 99.54816195383933 l 1.9391674704718598 -0.04173297734145298 a22.939616487848568,22.939616487848568 0 0,0 0.005098048898624964,0.3948495054455071 l -1.9395985264882003 0.008347213835483156" fill="#ff1802" stroke="none" /><path d="M 120.99980553446 99.90962569577887 l 3.979084711421303 -0.01712430201515595 a24.979121559136672,24.979121559136672 0 0,0 -0.0018504803388277446,0.4299864612583764 l -3.978789933792972 -0.051371637446905156" fill="#ff3505" stroke="none" /><path d="M 120.99824983174949 100.27111621757518 l 1.8883322059946754 0.0243809598093551 a22.888489595258058,22.888489595258058 0 0,0 -0.00847739225270363,0.39391110670991686 l -1.8876327510569644 -0.05688188230938682" fill="#ff1702" stroke="none" /><path d="M 120.9904718944345 100.63252640178507 l 2.7723709929168128 0.08354256433024407 a23.773629442160836,23.773629442160836 0 0,0 -0.01584667174171865,0.40893218455077207 l -2.770522188323891 -0.13125199589502232" fill="#ff2403" stroke="none" /><path d="M 120.95626037817324 101.35467743843564 l 3.044026744946929 0.1967752966874403 a24.050380196194997,24.050380196194997 0 0,0 -0.030261610010215878,0.4128956256283035 l -3.0401885762723757 -0.24914405881251403" fill="#ff2803" stroke="none" /><path d="M 120.92983693683757 101.71520430193887 l 0.9878916934958701 0.08095792086901066 a21.991203401441688,21.991203401441688 0 0,0 -0.03416532806309472,0.3770115482253804 l -0.9863517691557 -0.09795085764296162" fill="#ff0b01" stroke="none" /><path d="M 120.89721153311464 102.0752229133903 l 0.9707232111473003 0.09639884475210839 a21.975497970233494,21.975497970233494 0 0,0 -0.04062086926537001,0.3760987999483437 l -0.9689200403808784 -0.11309396658524354" fill="#ff0a01" stroke="none" /><path d="M 120.8583938346157 102.4346265915055 l 2.8657496307324046 0.3344950867693093 a23.885205002961786,23.885205002961786 0 0,0 -0.051180865545852994,0.4079618557032516 l -2.8595672559397034 -0.3837746967599558" fill="#ff2603" stroke="none" /><path d="M 120.81339534386255 102.79330883721812 l 1.928010170323527 0.25875296932747655 a22.94529594561001,22.94529594561001 0 0,0 -0.055905611512479324,0.3910037167088618 l -1.9232705077944463 -0.2919021580167476" fill="#ff1802" stroke="none" /><path d="M 120.76222939487914 103.15116336523771 l 4.015505060835142 0.6094486386780408 a25.061490925359696,25.061490925359696 0 0,0 -0.06840384252057657,0.425950792672197 l -4.004419463953277 -0.6784786610434427" fill="#ff3605" stroke="none" /><path d="M 120.70491114924044 103.5080841355445 l 2.184730141702287 0.3701642134712972 a23.21586717494468,23.21586717494468 0 0,0 -0.07014901744909945,0.39343294347766583 l -2.178034681913999 -0.40771590768218136" fill="#ff1c02" stroke="none" /><path d="M 120.64145759157962 103.86396538481128 l 4.02585378421102 0.753617306214297 a25.095782921014234,25.095782921014234 0 0,0 -0.08313882380205447,0.4239230714148815 l -4.012285027433302 -0.8228041046971234" fill="#ff3705" stroke="none" /><path d="M 120.5718875245553 104.21870165774334 l 4.740484949276981 0.9721369363968683 a25.83913709016687,25.83913709016687 0 0,0 -0.09310205459325584,0.4349418037897662 l -4.723048855959282 -1.0535925596028035" fill="#ff4106" stroke="none" /><path d="M 120.49622156327973 104.57218783832717 l 1.8696376605038423 0.417068802024906 a22.915591649385842,22.915591649385842 0 0,0 -0.08919559489463563,0.38425228834048814 l -1.8621814996786539 -0.44918974771395903" fill="#ff1802" stroke="none" /><path d="M 120.41448212921028 104.9243191809786 l 0.968281448541605 0.23356590088644197 a21.996053208240767,21.996053208240767 0 0,0 -0.09195260008796985,0.36730492872683956 l -0.9641175341585743 -0.25019866901067744" fill="#ff0b01" stroke="none" /><path d="M 120.32669344350535 105.2749913415812 l 3.732838919250005 0.9687110711482967 a24.856486423732466,24.856486423732466 0 0,0 -0.11103975270451623,0.4132202276154236 l -3.7156110902037116 -1.0328222319392686" fill="#ff3304" stroke="none" /><path d="M 120.23288151984713 105.62410040840565 l 2.8186343004629566 0.7834910862711209 a23.925501256539228,23.925501256539228 0 0,0 -0.11371148531397599,0.3958445979233469 l -2.804730178262881 -0.8318931596990496" fill="#ff2603" stroke="none" /><path d="M 120.13307415673323 105.97154293290107 l 1.8675515330526438 0.5539225690131082 a22.947967900420682,22.947967900420682 0 0,0 -0.11558479186919815,0.37773778751983955 l -1.8577399686773128 -0.5859873290850048" fill="#ff1802" stroke="none" /><path d="M 120.02730092923936 106.31721596034902 l 9.188976010954864 2.898480734911144 a30.63527221725235,30.63527221725235 0 0,0 -0.1629617761377985,0.501544775608145 l -9.13772198380082 -3.056224410497084" fill="#ff820c" stroke="none" /><path d="M 119.9155931802556 106.66101706037122 l 1.8148312877719264 0.6069928251762536 a22.913649103908906,22.913649103908906 0 0,0 -0.12832643957948148,0.37297670169283126 l -1.804114017249214 -0.6381422299583852" fill="#ff1802" stroke="none" /><path d="M 119.79798401119884 107.00284435728193 l 2.037475691353166 0.7206857597329487 a23.16117911269217,23.16117911269217 0 0,0 -0.13618303366333204,0.37471722035584504 l -2.0247683966846073 -0.7556507770949249" fill="#ff1b02" stroke="none" /><path d="M 119.41010516605496 108.01547362559984 l 1.783047138515292 0.7363158102288312 a22.929097734838884,22.929097734838884 0 0,0 -0.153787662766555,0.3635086066389587 l -1.7701084945564258 -0.7668989425339533" fill="#ff1802" stroke="none" /><path d="M 119.26925614724726 108.34839909993367 l 2.9938610403474626 1.2970893439565272 a24.262766417492365,24.262766417492365 0 0,0 -0.16932974893172292,0.3817938820928431 l -2.9710902066844667 -1.348431562542058" fill="#ff2b04" stroke="none" /><path d="M 119.12269723197855 108.67885076344098 l 0.880158747529064 0.39946072069622607 a21.966565201231184,21.966565201231184 0 0,0 -0.15923184783191638,0.3429712342997553 l -0.8731522828573162 -0.41455202227481197" fill="#ff0a01" stroke="none" /><path d="M 118.97047184881838 109.00673069616215 l 1.7376233319558867 0.824982400386075 a22.923520419622378,22.923520419622378 0 0,0 -0.17230490691254716,0.3549991432674629 l -1.7231651684286253 -0.8547704996188132" fill="#ff1802" stroke="none" /><path d="M 118.81262510543309 109.33194174019688 l 3.6446132048977526 1.8078985735933035 a25.068378382810007,25.068378382810007 0 0,0 -0.1950813210295214,0.38491395376096715 l -3.612953214081962 -1.870366739056965" fill="#ff3605" stroke="none" /><path d="M 118.64920377521936 109.65438752849418 l 0.8832262113640553 0.4572317522297011 a21.9945599105572,21.9945599105572 0 0,0 -0.17694884426599805,0.3347205284382161 l -0.8752248588731641 -0.47236729575405145" fill="#ff0b01" stroke="none" /><line stroke="#e1ed5e" stroke-width="0.3" x1="174.80103733775053" x2="179.2010983576182" y1="140.37084112569926" y2="142.7455964860345" /><path d="M 175.68104954172406 140.8457921977663 a86.0,86.0 0 0,1 -30.038265399797805,32.042727171017184" fill="none" id="id53" stroke="none" /><text fill="#e1ed5e" style="font-size:6.75px; font-family:Arial;" text-anchor="middle"><textPath startOffset="22.206326154141568" xlink:href="#id53">May</textPath></text><path d="M 117.94076556474637 110.91462005526583 l 3.2203942284742197 1.9591906100727172 a24.7695313811384,24.7695313811384 0 0,0 -0.2247367422362336,0.36234718622136664 l -3.186192846570023 -2.014334127659357" fill="#ff3204" stroke="none" /><path d="M 117.75023020441432 111.22182372390056 l 0.8726205485418802 0.5516770126820721 a22.032382752693664,22.032382752693664 0 0,0 -0.20542063767584648,0.3188173914669869 l -0.8629950474889834 -0.5666160040705119" fill="#ff0b01" stroke="none" /><path d="M 117.55443506779139 111.5257021239791 l 1.6888268210631363 1.1088317455612229 a23.020307865526085,23.020307865526085 0 0,0 -0.22033382825999503,0.32936917796230014 l -1.6694898873924202 -1.13773783772933" fill="#ff1902" stroke="none" /><path d="M 117.14729908036423 112.12312394758627 l 1.541914488122448 1.0901320591936867 a22.888355950334518,22.888355950334518 0 0,0 -0.23021349028622684,0.31974640296670404 l -1.5229212054606183 -1.116512067611522" fill="#ff1702" stroke="none" /><path d="M 116.93607887273984 112.41649034213515 l 2.5866883307298454 1.896400631926495 a24.207380843789082,24.207380843789082 0 0,0 -0.24926539858525928,0.33393173577422036 l -2.553661665449494 -1.9406452472100302" fill="#ff2a04" stroke="none" /><path d="M 116.71984013943494 112.70617746262583 l 0.5609433836784081 0.42628674198224376 a21.704540890284175,21.704540890284175 0 0,0 -0.2286141181115493,0.29551456515242763 l -0.5535224483487905 -0.43587930124792407" fill="#ff0601" stroke="none" /><path d="M 116.498646956653 112.99209946851258 l 6.651288452972851 5.237653814996404 a29.465970444691877,29.465970444691877 0 0,0 -0.3172251486412335,0.39578714852635644 l -6.560145392276764 -5.351368797101011" fill="#ff720a" stroke="none" /><path d="M 116.27256486870786 113.27417163493432 l 1.5853283252161487 1.2932147117821358 a23.045891050252283,23.045891050252283 0 0,0 -0.25339944902480194,0.3052359602576275 l -1.5628328762978034 -1.3203119291535337" fill="#ff1a02" stroke="none" /><path d="M 116.0416608686014 113.55231037782055 l 0.9734563845176875 0.8223950855410979 a22.274343363964515,22.274343363964515 0 0,0 -0.24995789800526683,0.29075750558105345 l -0.9591559769416395 -0.8390296902836792" fill="#ff0f01" stroke="none" /><path d="M 115.80600337817218 113.82643327865902 l 1.599873895342477 1.3995030330544638 a23.125607024011483,23.125607024011483 0 0,0 -0.2646683330824522,0.29735767794786433 l -1.575546712611691 -1.4268348807431945" fill="#ff1b02" stroke="none" /><path d="M 115.56566222782051 114.09645910891815 l 1.4224933889077747 1.2882278695220368 a22.91911919517773,22.91911919517773 0 0,0 -0.2673390748777585,0.2901437656712686 l -1.400107906034292 -1.3125228899946402" fill="#ff1802" stroke="none" /><path d="M 115.32070863581623 114.36230785411682 l 1.4075160304332173 1.319467592473364 a22.92927346519718,22.92927346519718 0 0,0 -0.2724144529146117,0.28562546478233997 l -1.384595026139641 -1.343500173838211" fill="#ff1802" stroke="none" /><path d="M 115.07121518719521 114.62390073753431 l 0.9351115979427017 0.9073574371394881 a22.302970152896563,22.302970152896563 0 0,0 -0.2697165885445075,0.2732214802046738 l -0.9193543843426587 -0.9233194113248265" fill="#ff0f01" stroke="none" /><path d="M 114.81725581225074 114.88116024355365 l 1.3726246177462262 1.378544526041049 a22.94537486143949,22.94537486143949 0 0,0 -0.2822827946765784,0.2762731272437133 l -1.3486918706938535 -1.401967756207334" fill="#ff1802" stroke="none" /><path d="M 114.55890576462653 115.13401014063108 l 0.632689715995803 0.6576821591233856 a21.912601829472223,21.912601829472223 0 0,0 -0.2740788226602278,0.2591586339628026 l -0.6212750589447676 -0.6684754298321096" fill="#ff0901" stroke="none" /><path d="M 114.29624159901734 115.38237550388516 l 0.6658449162708219 0.7164314102060756 a21.978071274526332,21.978071274526332 0 0,0 -0.27933129166764065,0.25516251205738844 l -0.6534140751363172 -0.727786688850047" fill="#ff0a01" stroke="none" /><path d="M 114.0293411484842 115.62618273729858 l 1.3065241770870946 1.4552348058103515 a22.955687542874628,22.955687542874628 0 0,0 -0.29630069775157863,0.26145091547436955 l -1.281281126428928 -1.4775088630570097" fill="#ff1802" stroke="none" /><path d="M 113.75828350139079 115.86535959552629 l 2.322813616821223 2.6785516740172133 a24.545433988790442,24.545433988790442 0 0,0 -0.3215855372721621,0.2740621715125736 l -2.276362602972014 -2.718138235752734" fill="#ff2f04" stroke="none" /><path d="M 113.48314897796784 116.09983520530334 l 1.9666936698292898 2.348371588514265 a24.063124729534795,24.063124729534795 0 0,0 -0.3198446148841958,0.2632103431391753 l -1.925978926400403 -2.381877050510619" fill="#ff2803" stroke="none" /><path d="M 113.20401910651253 116.32954008644616 l 2.4208498636220184 2.9938887979786157 a24.850179761629395,24.850179761629395 0 0,0 -0.3349360564836249,0.26609345996507777 l -2.3689563144210424 -3.0351161719488196" fill="#ff3304" stroke="none" /><path d="M 112.63410532772338 116.77436683061366 l 1.9664461971914728 2.610860762097111 a24.26856307350908,24.26856307350908 0 0,0 -0.3358480559765133,0.24845236281837452 l -1.9212131707963953 -2.6443230736552548" fill="#ff2b04" stroke="none" /><path d="M 112.34349029814194 116.9893568818739 l 1.127885717983652 1.5524015105903466 a22.91887379546303,22.91887379546303 0 0,0 -0.3211618206897658,0.2291404316869343 l -1.1009965694450015 -1.5715862041215003" fill="#ff1802" stroke="none" /><path d="M 112.04921762599082 117.19931262002967 l 0.6172879933180799 0.8811301698765195 a22.075841458097468,22.075841458097468 0 0,0 -0.31310178068814576,0.2153542597717703 l -0.6020293280070509 -0.8916252190133839" fill="#ff0c01" stroke="none" /><path d="M 111.7513745106137 117.40417183066458 l 1.3239661524192705 1.9608373806721149 a23.365960609602993,23.365960609602993 0 0,0 -0.33527405332946447,0.2222013606114296 l -1.290017400349842 -1.983336762374863" fill="#ff1e03" stroke="none" /><path d="M 111.45004920935366 117.60387380957326 l 1.9080983120702535 2.933605025426835 a24.49955391639205,24.49955391639205 0 0,0 -0.3554980914312882,0.22689570176149515 l -1.8573184185920346 -2.966015156012139" fill="#ff2e04" stroke="none" /><path d="M 111.1453310114006 117.79835938074945 l 1.8657009325508986 2.979401478571908 a24.515348224605603,24.515348224605603 0 0,0 -0.35958272257528917,0.22088507732446783 l -1.8141390100433006 -3.011075022724754" fill="#ff2e04" stroke="none" /><line stroke="#e1ed5e" stroke-width="0.3" x1="143.8653032363475" x2="146.44561519142675" y1="172.8068346515853" y2="177.08958963109032" /><path d="M 144.38136562736335 173.6633856474863 a86.0,86.0 0 0,1 -40.68145358897372,12.25698825130547" fill="none" id="id54" stroke="none" /><text fill="#e1ed5e" style="font-size:6.75px; font-family:Arial;" text-anchor="middle"><textPath startOffset="21.466115282336833" xlink:href="#id54">June</textPath></text><path d="M 110.8373102113329 117.98757091392108 l 1.8185713881278236 3.0184318034718154 a24.52393706611331,24.52393706611331 0 0,0 -0.3634589116120199,0.21473793146167386 l -1.7663446054874214 -3.0492883072272385" fill="#ff2f04" stroke="none" /><path d="M 110.21172684928248 118.3499491758327 l 1.7119498927286878 3.0762861156387986 a24.520555169356932,24.520555169356932 0 0,0 -0.37058404052714977,0.2020719664808334 l -1.6587430403328882 -3.1052987338794025" fill="#ff2e04" stroke="none" /><path d="M 109.89434966115114 118.52300852407294 l 1.6487289362956226 3.0865515356505457 a24.49930099985772,24.49930099985772 0 0,0 -0.37368328533315,0.19549343352354473 l -1.595354748435977 -3.1144743881188073" fill="#ff2e04" stroke="none" /><path d="M 109.57404056367764 118.69057910512821 l 6.316356099526931 12.33088083857237 a34.85449301241667,34.85449301241667 0 0,0 -0.5363377722219512,0.268930893181596 l -6.103164419622218 -12.437779572663269" fill="#ffb911" stroke="none" /><path d="M 108.59647513512805 119.15986991738527 l 0.7863279890736963 1.7525720421718822 a22.920890540713657,22.920890540713657 0 0,0 -0.3613634750696643,0.15841112797692322 l -0.7560438393462782 -1.7658477234432601" fill="#ff1802" stroke="none" /><path d="M 108.2653958097858 119.30500536409082 l 0.7851778754886497 1.8338944010555052 a22.994911770073955,22.994911770073955 0 0,0 -0.3652123505551152,0.1526587921516368 l -0.7534940654360733 -1.8471382362271151" fill="#ff1902" stroke="none" /><path d="M 107.93186726928326 119.44442032107085 l 1.3309497540009942 3.2627306489660532 a24.52375347255987,24.52375347255987 0 0,0 -0.39223866322752166,0.1560798589816787 l -1.2745900147316063 -3.285157352353801" fill="#ff2f04" stroke="none" /><path d="M 107.59598834532513 119.57807347666477 l 0.3573600259023277 0.9210678751297022 a21.98796367276781,21.98796367276781 0 0,0 -0.3540373953620989,0.1338666491502474 l -0.341452409779954 -0.9270827743865805" fill="#ff0b01" stroke="none" /><path d="M 107.2578585660854 119.70592522655815 l 1.138378761111624 3.0908299661268974 a24.293802678251694,24.293802678251694 0 0,0 -0.3936526594919053,0.1411498382030234 l -1.0850065409899838 -3.109967345369881" fill="#ff2b04" stroke="none" /><path d="M 106.57524785965236 119.94407469862006 l 1.1177863139728024 3.390475038936007 a24.56998140518309,24.56998140518309 0 0,0 -0.40280572139604953,0.1289656718055845 l -1.0592592474858125 -3.4092135574012983" fill="#ff2f04" stroke="none" /><path d="M 106.2309692047433 120.05430185196036 l 1.2744052866228666 4.1016585798905245 a25.29507996905318,25.29507996905318 0 0,0 -0.41691715242021704,0.12561371800066026 l -1.2036131597624036 -4.12298766699691" fill="#ff3905" stroke="none" /><path d="M 105.88484417918355 120.15858648285463 l 0.543903465560023 1.863146196393807 a22.94091337493071,22.94091337493071 0 0,0 -0.380020416111932,0.10739756551456885 l -0.5117518813434853 -1.872232555246895" fill="#ff1802" stroke="none" /><path d="M 105.53697534728816 120.25689768951611 l 0.5352627989920502 1.9582467098208132 a23.030082865429105,23.030082865429105 0 0,0 -0.3832968602052689,0.10123218451116243 l -0.5014754959752838 -1.9671702436355596" fill="#ff1902" stroke="none" /><path d="M 105.18746579009965 120.34920634021253 l 0.8821645234108507 3.460523623531749 a24.571195597469565,24.571195597469565 0 0,0 -0.41074464306779823,0.10095103989854863 l -0.8224665955998414 -3.475195921744328" fill="#ff2f04" stroke="none" /><path d="M 104.83641907484287 120.43548508189849 l 0.5486480157003502 2.318221015705094 a23.38226012911871,23.38226012911871 0 0,0 -0.3924655027223333,0.0893238706616275 l -0.5086623635851547 -2.3273216199444056" fill="#ff1e03" stroke="none" /><path d="M 104.48393922423573 120.51570834832081 l 0.21018692088158417 0.9616842137670032 a21.984385630085253,21.984385630085253 0 0,0 -0.37039349291206886,0.07761955770819962 l -0.19360196654013728 -0.965159752201744" fill="#ff0a01" stroke="none" /><path d="M 103.41894727170886 120.7198165907248 l 0.6673884132143179 4.044568230402663 a25.09926084367356,25.09926084367356 0 0,0 -0.4268836106331061,0.06667044067602958 l -0.5976689389726946 -4.0554569784257986" fill="#ff3705" stroke="none" /><path d="M 103.06178313531738 120.77559828337769 l 0.28552469778430073 1.9374156035824401 a22.95834204725567,22.95834204725567 0 0,0 -0.39146313718454595,0.05425322379354832 l -0.25213296941292435 -1.9420433928685912" fill="#ff1802" stroke="none" /><path d="M 102.34483914955558 120.86867818915974 l 0.1116013433627292 0.9932333825781263 a21.9994835727054,21.9994835727054 0 0,0 -0.37668081829787525,0.03904450697151898 l -0.09448792845925129 -0.9950072580054038" fill="#ff0b01" stroke="none" /><path d="M 101.98527174616119 120.90594882070398 l 0.33440436165080467 3.521452659370231 a24.537294885824018,24.537294885824018 0 0,0 -0.42082124668480614,0.036310227887424266 l -0.2737387972244568 -3.5266871395363184" fill="#ff2f04" stroke="none" /><path d="M 101.62511606390274 120.93702456842531 l 0.27554422875457496 3.5499472408560453 a24.560624950041973,24.560624950041973 0 0,0 -0.4217845702632028,0.029088733439151186 l -0.21439689771244183 -3.5541643188114818" fill="#ff2f04" stroke="none" /><path d="M 101.26447882468166 120.96189622390904 l 0.20207047060072406 3.3498229879137846 a24.355912174870557,24.355912174870557 0 0,0 -0.4187035666572223,0.021642191793615435 l -0.14437883553002212 -3.352804986469602" fill="#ff2c04" stroke="none" /><path d="M 100.90346689309514 120.98055641714683 l 0.08646902968777093 2.008007564599465 a23.009868471463697,23.009868471463697 0 0,0 -0.39585700901823384,0.013634115789499622 l -0.0518916689948848 -2.0091984788150583" fill="#ff1902" stroke="none" /><line stroke="#e1ed5e" stroke-width="0.3" x1="102.19456741930631" x2="102.32365962044197" y1="184.97166512339345" y2="189.96999836594603" /><path d="M 102.22038585953345 185.97133177190398 a86.0,86.0 0 0,1 -42.740103519485714,-10.115201625700543" fill="none" id="id55" stroke="none" /><text fill="#e1ed5e" style="font-size:6.75px; font-family:Arial;" text-anchor="middle"><textPath startOffset="22.20632615414155" xlink:href="#id55">July</textPath></text><path d="M 100.54218724476979 120.99299961872073 l 0.04957438856056118 1.9194754767645776 a22.92011555014321,22.92011555014321 0 0,0 -0.39448827010188786,0.006791473322621529 l -0.01652642856600538 -1.9200444273663588" fill="#ff1802" stroke="none" /><path d="M 100.18074693466247 120.99922214144158 l 0.013154672314962585 1.5283129788930225 a22.528369591053348,22.528369591053348 0 0,0 -0.387803213954835,0.0 l 0.013154672314961532 -1.5283129788930225" fill="#ff1202" stroke="none" /><path d="M 99.81925306533755 120.99922214144158 l -0.016596008901499953 1.9281282874023977 a22.92819970962366,22.92819970962366 0 0,0 -0.3946274101547246,-0.006793868744814195 l 0.049783108948892464 -1.927556941378424" fill="#ff1802" stroke="none" /><path d="M 99.09653310690486 120.98055641714683 l -0.08220299071816736 1.9089404355618114 a22.91070953266213,22.91070953266213 0 0,0 -0.39385902392399275,-0.020358012718787545 l 0.11505008305564902 -1.9072426160808218" fill="#ff1802" stroke="none" /><path d="M 98.73552117531835 120.96189622390904 l -0.2073248061404427 3.4369267291227037 a24.443174250106907,24.443174250106907 0 0,0 -0.4197675656837191,-0.02894962899414613 l 0.2664551326030919 -3.4328487556122727" fill="#ff2d04" stroke="none" /><path d="M 98.37488393609728 120.93702456842531 l -0.2957235220382264 3.8099252009770597 a24.821384884897984,24.821384884897984 0 0,0 -0.425693467039058,-0.03673062356082319 l 0.36126130681882607 -3.8042703251375727" fill="#ff3304" stroke="none" /><path d="M 98.01472825383883 120.90594882070398 l -0.09382288282067845 0.9880039799351316 a21.992448788456333,21.992448788456333 0 0,0 -0.3765603669118909,-0.03903202169286225 l 0.11081584633816266 -0.9862425897865086" fill="#ff0b01" stroke="none" /><path d="M 97.65516085044442 120.86867818915974 l -0.17516906924928205 1.5589755636546496 a22.568785839716178,22.568785839716178 0 0,0 -0.38568182537620277,-0.04670069790360505 l 0.2019783176768742 -1.5557293370256962" fill="#ff1302" stroke="none" /><path d="M 97.2962882734958 120.8252237178851 l -0.14722343147990422 1.1339821723700971 a22.143499149990905,22.143499149990905 0 0,0 -0.3775692350804977,-0.05232765556344917 l 0.166721257747233 -1.131279951314043" fill="#ff0d01" stroke="none" /><path d="M 96.93821686468263 120.77559828337769 l -0.5235060597603962 3.552227939020431 a24.590596318909046,24.590596318909046 0 0,0 -0.4182323379807013,-0.06531928981013223 l 0.5845742613496147 -3.542690341863193" fill="#ff2f04" stroke="none" /><path d="M 95.51606077576429 120.51570834832081 l -0.7589387255425172 3.4724301041637133 a24.55439992367636,24.55439992367636 0 0,0 -0.4121395817545404,-0.09380162699605318 l 0.8185984566899202 -3.4588517435899733" fill="#ff2f04" stroke="none" /><path d="M 95.16358092515715 120.4354850818985 l -0.44011294280975066 1.8596241016255082 a22.91099481992368,22.91099481992368 0 0,0 -0.3829918797523584,-0.09413008589699015 l 0.4720581073053196 -1.851772757414488" fill="#ff1802" stroke="none" /><path d="M 94.81253420990036 120.34920634021253 l -0.31499317289127776 1.235644017769943 a22.27516149472087,22.27516149472087 0 0,0 -0.3707324681105931,-0.09791381436297605 l 0.3362160838133602 -1.2300388541033853" fill="#ff0f01" stroke="none" /><path d="M 94.46302465271185 120.25689768951611 l -0.8395338623585691 3.0714154371323055 a24.18408697957536,24.18408697957536 0 0,0 -0.4006138137162522,-0.11321746537943846 l 0.8922788441794351 -3.0565091784143457" fill="#ff2a04" stroke="none" /><path d="M 94.11515582081647 120.15858648285463 l -0.4541749879816143 1.555780492194285 a22.620718315932905,22.620718315932905 0 0,0 -0.37283793834677503,-0.11233301238763885 l 0.4808879007686352 -1.5477321107009205" fill="#ff1402" stroke="none" /><path d="M 93.76903079525671 120.05430185196036 l -0.30063883282496745 0.9676025837687217 a22.013231695081764,22.013231695081764 0 0,0 -0.3608897999135347,-0.11554551740805642 l 0.3172499778294425 -0.9622842197009586" fill="#ff0b01" stroke="none" /><path d="M 93.42475214034765 119.94407469862007 l -1.5006987069046211 4.551926824582211 a25.792925455841797,25.792925455841797 0 0,0 -0.42046185998231184,-0.14264349150480166 l 1.5788302998241588 -4.525420346179287" fill="#ff4006" stroke="none" /><path d="M 93.08242187328487 119.8279376855182 l -0.6422511409302113 1.8408921977530726 a22.94971039176958,22.94971039176958 0 0,0 -0.37187321597770867,-0.1333405046343162 l 0.6738439175376466 -1.8295641520787986" fill="#ff1802" stroke="none" /><path d="M 92.7421414339146 119.70592522655815 l -0.5203235540958082 1.412738613913124 a22.50551220260351,22.50551220260351 0 0,0 -0.36237066060681344,-0.13701757701663705 l 0.5445644354629046 -1.4035727867898538" fill="#ff1202" stroke="none" /><path d="M 92.06813273071674 119.44442032107085 l -0.7243551532473742 1.775706221915682 a22.917765098907083,22.917765098907083 0 0,0 -0.36398708309611794,-0.15214663025440434 l 0.7548136958409545 -1.7629745486413047" fill="#ff1802" stroke="none" /><path d="M 91.40352486487194 119.15986991738527 l -0.7142739657114343 1.5919776481970986 a22.744872525559476,22.744872525559476 0 0,0 -0.35582945508745767,-0.1633438504979831 l 0.7415714165663114 -1.579446727365041" fill="#ff1502" stroke="none" /><path d="M 91.07499286063937 119.00905698771935 l -1.1188056180537391 2.382904508610583 a23.632481701388492,23.632481701388492 0 0,0 -0.3667393528665998,-0.1760571760897417 l 1.159657638920581 -2.363293056021279" fill="#ff2203" stroke="none" /><path d="M 90.42595943632237 118.69057910512821 l -1.6172253205754845 3.1571704322737397 a24.547272596789544,24.547272596789544 0 0,0 -0.37441498718636884,-0.19587622535078356 l 1.6713312102883489 -3.1288647879782396" fill="#ff2f04" stroke="none" /><path d="M 90.10565033884886 118.52300852407294 l -0.5347325292726347 1.0010617713164316 a22.13492887347776,22.13492887347776 0 0,0 -0.334529594540572,-0.18241220781847628 l 0.5518849356818473 -0.9917089117381895" fill="#ff0d01" stroke="none" /><line stroke="#e1ed5e" stroke-width="0.3" x1="58.666819895761336" x2="56.23545636021788" y1="174.27360380694188" y2="178.64263932499728" /><path d="M 58.180547188652646 175.14741091055294 a86.0,86.0 0 0,1 -31.652253787137756,-30.449443065178592" fill="none" id="id56" stroke="none" /><text fill="#e1ed5e" style="font-size:6.75px; font-family:Arial;" text-anchor="middle"><textPath startOffset="22.20632615414155" xlink:href="#id56">August</textPath></text><path d="M 89.7882731507175 118.34994917583269 l -2.1902367329180086 3.935743026157346 a25.504132559568994,25.504132559568994 0 0,0 -0.38177407231930954,-0.21678128195414695 l 2.2576595721585253 -3.8974585784085662" fill="#ff3c05" stroke="none" /><path d="M 89.4739219176387 118.17145234162733 l -1.7670146065929953 3.0504449481967932 a24.525273748504127,24.525273748504127 0 0,0 -0.3634787220170796,-0.21474963579816975 l 1.819261199638457 -3.019576740104874" fill="#ff2f04" stroke="none" /><path d="M 88.8546689885994 117.79835938074946 l -0.9858416787750142 1.574324214633987 a22.857519999459726,22.857519999459726 0 0,0 -0.3316715382815131,-0.21168846822696397 l 1.0127950191034507 -1.557121317583219" fill="#ff1702" stroke="none" /><path d="M 88.54995079064634 117.60387380957326 l -0.5890546737430304 0.9056418844943109 a22.08035764060283,22.08035764060283 0 0,0 -0.3168271627611445,-0.20997576742094345 l 0.6045565352441368 -0.895368095982049" fill="#ff0c01" stroke="none" /><path d="M 88.24862548938628 117.40417183066458 l -1.0706088113163912 1.585606832523706 a22.913204707869536,22.913204707869536 0 0,0 -0.3249781082602508,-0.22352290617000262 l 1.0977438041995344 -1.5669431369886047" fill="#ff1802" stroke="none" /><path d="M 87.95078237400918 117.19931262002967 l -2.7790686754113265 3.9669024516436773 a25.8435046984089,25.8435046984089 0 0,0 -0.3621446278738425,-0.2583805764517537 l 2.8469406311340535 -3.9184776133477044" fill="#ff4106" stroke="none" /><path d="M 87.65650970185807 116.9893568818739 l -1.4723046930658021 2.026453560960631 a23.504834354593854,23.504834354593854 0 0,0 -0.32527895863176376,-0.2406335972741605 l 1.5069686221161303 -2.000810014946701" fill="#ff2003" stroke="none" /><path d="M 87.36589467227662 116.77436683061367 l -0.7640755477882737 1.0144670471266486 a22.270021587388896,22.270021587388896 0 0,0 -0.30422044805960724,-0.23326326694670532 l 0.7814247243413677 -1.0011644383525764" fill="#ff0f01" stroke="none" /><path d="M 86.79598089348748 116.32954008644616 l -1.1946985396814818 1.4774954154167517 a22.90007823609834,22.90007823609834 0 0,0 -0.30438551877898573,-0.25048855949448723 l 1.2199541870051562 -1.4567117370650837" fill="#ff1802" stroke="none" /><path d="M 86.24171649860922 115.8653595955263 l -1.2438347158206065 1.4343275483383044 a22.898531094347074,22.898531094347074 0 0,0 -0.2955629504918599,-0.26079993929407075 l 1.268340019219054 -1.4127044672719449" fill="#ff1802" stroke="none" /><path d="M 85.97065885151581 115.62618273729859 l -2.047679467485853 2.280749552505206 a24.065095385598276,24.065095385598276 0 0,0 -0.3058564190732972,-0.27939258703775316 l 2.0866354360260075 -2.245164198880875" fill="#ff2803" stroke="none" /><path d="M 85.70375840098266 115.38237550388516 l -2.4525773527592536 2.6389079627096277 a24.6026338846627,24.6026338846627 0 0,0 -0.3077252524334857,-0.2909734334176753 l 2.497638439583554 -2.596299892546024" fill="#ff3004" stroke="none" /><path d="M 85.44109423537348 115.13401014063109 l -1.3246856885190923 1.3770132843298273 a22.910747957891914,22.910747957891914 0 0,0 -0.2818568012394072,-0.27585620300571034 l 1.3481924421342937 -1.3540069784015474" fill="#ff1802" stroke="none" /><path d="M 85.18274418774928 114.88116024355367 l -1.3777649253728395 1.383707002984288 a22.95266004713964,22.95266004713964 0 0,0 -0.27757348566116274,-0.28118047550270847 l 1.4013790360895353 -1.3597860335009149" fill="#ff1802" stroke="none" /><path d="M 84.67929136418377 114.36230785411682 l -2.954327032605738 2.769516433778356 a25.04947768144898,25.04947768144898 0 0,0 -0.2921885493286518,-0.317112962356905 l 3.001561989930121 -2.7182522166201095" fill="#ff3605" stroke="none" /><path d="M 84.4343377721795 114.09645910891817 l -3.888008786263703 3.521029562926274 a26.245403845755305,26.245403845755305 0 0,0 -0.3003738357968037,-0.33747318875887294 l 3.9480414717088403 -3.4535822044265347" fill="#ff4706" stroke="none" /><path d="M 84.19399662182784 113.82643327865904 l -3.089682966475051 2.7027259431799977 a25.1049809204507,25.1049809204507 0 0,0 -0.2817227048088969,-0.32770715216230384 l 3.135748180854729 -2.649141691856163" fill="#ff3705" stroke="none" /><path d="M 83.95833913139862 113.55231037782056 l -3.6649921041299636 3.0962573597755774 a25.797809579516407,25.797809579516407 0 0,0 -0.2836579726616755,-0.34168430122215543 l 3.7177460766851755 -3.032711801439661" fill="#ff4006" stroke="none" /><path d="M 83.72743513129214 113.27417163493432 l -3.1784194367553487 2.592761833903325 a25.101800097919195,25.101800097919195 0 0,0 -0.2702413036818604,-0.3371675778431201 l 3.22257865249207 -2.537666422481945" fill="#ff3705" stroke="none" /><path d="M 83.50135304334701 112.99209946851258 l -0.9925756367669066 0.7816181191572057 a22.26338168377497,22.26338168377497 0 0,0 -0.23450039305348305,-0.30312336899272424 l 1.005882847038458 -0.7644167560512287" fill="#ff0e01" stroke="none" /><path d="M 83.28015986056508 112.70617746262583 l -5.164778492912327 3.9249533212531746 a27.48692496140244,27.48692496140244 0 0,0 -0.2830351350524244,-0.3791718163434506 l 5.231574894659836 -3.835468625400418" fill="#ff5808" stroke="none" /><path d="M 83.06392112726016 112.41649034213515 l -1.0085503436754 0.7394070195291211 a22.250558489738367,22.250558489738367 0 0,0 -0.2237984563791061,-0.3108364819444315 l 1.0211285924301134 -0.7219369321335491" fill="#ff0e01" stroke="none" /><path d="M 82.85270091963577 112.12312394758628 l -3.2391958436726234 2.290108344136691 a24.966987010509424,24.966987010509424 0 0,0 -0.2450796215829143,-0.3530554737921042 l 3.2781363724176718 -2.234011608157577" fill="#ff3505" stroke="none" /><path d="M 82.6465618267979 111.8261652097733 l -2.3650740181174728 1.6117702896934658 a23.862058451169872,23.862058451169872 0 0,0 -0.22839045939013242,-0.34141274836378643 l 2.3924675829183357 -1.570820627123856" fill="#ff2503" stroke="none" /><path d="M 82.05923443525364 110.91462005526583 l -1.7561364499000007 1.0683803902730982 a23.055590399128064,23.055590399128064 0 0,0 -0.2033493459041311,-0.3408252003678474 l 1.7742666715023636 -1.0379930960191397" fill="#ff1a02" stroke="none" /><line stroke="#e1ed5e" stroke-width="0.3" x1="26.63291911575756" x2="22.317208475507996" y1="142.92168965132927" y2="145.44649492493687" /><path d="M 25.769776987707644 143.4266507060508 a86.0,86.0 0 0,1 -11.730757126820373,-40.83630448921669" fill="none" id="id57" stroke="none" /><text fill="#e1ed5e" style="font-size:6.75px; font-family:Arial;" text-anchor="middle"><textPath startOffset="21.46611528233685" xlink:href="#id57">September</textPath></text><path d="M 81.87401531095188 110.60418214915194 l -3.691790652602737 2.1597955205374153 a25.277152664235686,25.277152664235686 0 0,0 -0.21647835474354324,-0.3774482585101968 l 3.7284210034986573 -2.095927416168912" fill="#ff3905" stroke="none" /><path d="M 81.69416730710424 110.29060199501025 l -1.792937285215757 1.007897554495288 a23.05681345509855,23.05681345509855 0 0,0 -0.19150724711642253,-0.3476412805564745 l 1.810020941783696 -0.976885755540991" fill="#ff1a02" stroke="none" /><path d="M 81.35079622478065 109.6543875284942 l -3.2587947748553665 1.6870247122341633 a24.669577055235848,24.669577055235848 0 0,0 -0.19197786181794455,-0.3787905343112799 l 3.287351306459578 -1.6306799662201985" fill="#ff3104" stroke="none" /><path d="M 80.87730276802145 108.67885076344099 l -2.041927159038542 0.926730202760156 a23.24238609332271,23.24238609332271 0 0,0 -0.16220851876638867,-0.365737388019882 l 2.0575767625362107 -0.8914444782475782" fill="#ff1c02" stroke="none" /><path d="M 80.73074385275274 108.34839909993369 l -5.287864977095705 2.290965820269253 a26.762815319410933,26.762815319410933 0 0,0 -0.17950077515573978,-0.42428680879637504 l 5.326516733443752 -2.1996044858067187" fill="#ff4e07" stroke="none" /><path d="M 80.58989483394504 108.01547362559985 l -3.3385053238869786 1.3786479333115116 a24.611964551548894,24.611964551548894 0 0,0 -0.1583339080430523,-0.39297177489356233 l 3.3617418461874187 -1.3209767905751437" fill="#ff3004" stroke="none" /><path d="M 80.45479744820244 107.68017299344265 l -3.3727876028311496 1.325317156025054 a24.623832470998877,24.623832470998877 0 0,0 -0.1516191617538692,-0.39582978745036523 l 3.395101044178528 -1.267063801741531" fill="#ff3004" stroke="none" /><path d="M 80.32549172779594 107.34259656027581 l -3.561048767546522 1.3289960831449195 a24.800960262073144,24.800960262073144 0 0,0 -0.14582461410188308,-0.40124670882871893 l 3.5833976426536296 -1.2675015773100835" fill="#ff3204" stroke="none" /><path d="M 80.20201598880116 107.00284435728193 l -4.006697935818917 1.4172292499737014 a25.24996083462855,25.24996083462855 0 0,0 -0.14141080535603281,-0.41100599329534276 l 4.030499572118178 -1.3480505535890617" fill="#ff3905" stroke="none" /><path d="M 80.0844068197444 106.66101706037122 l -2.2045854206939812 0.7373509272546716 a23.324625403599423,23.324625403599423 0 0,0 -0.12407339998691899,-0.3818586605411025 l 2.2169510716971494 -0.6992933667357657" fill="#ff1e03" stroke="none" /><path d="M 79.97269907076064 106.31721596034903 l -9.27058615704985 2.92422304133872 a30.720846058383014,30.720846058383014 0 0,0 -0.15473538280654736,-0.5056841839411308 l 9.319548312362528 -2.7642118848455413" fill="#ff830c" stroke="none" /><path d="M 79.86692584326677 105.97154293290107 l -3.42704905924461 1.0164752005144368 a24.57461705469694,24.57461705469694 0 0,0 -0.11679655846490844,-0.40658414228531975 l 3.4440382545956223 -0.9573335827245211" fill="#ff2f04" stroke="none" /><path d="M 79.76711848015287 105.62410040840567 l -2.0243582745025606 0.5627075010161617 a23.101110695619543,23.101110695619543 0 0,0 -0.10319807776179628,-0.38403843797887216 l 2.0337444286061293 -0.5277781298617507" fill="#ff1a02" stroke="none" /><path d="M 79.67330655649465 105.27499134158121 l -3.896926747338937 1.0112935932310783 a25.02600953871645,25.02600953871645 0 0,0 -0.1046190707544375,-0.41790118267634185 l 3.9137571323884353 -0.9440645711573447" fill="#ff3605" stroke="none" /><path d="M 79.58551787078972 104.9243191809786 l -3.94952382236876 0.9526921031415243 a25.06280207084305,25.06280207084305 0 0,0 -0.09755329797453433,-0.4202570544672808 l 3.965337686273849 -0.8845663913256693" fill="#ff3605" stroke="none" /><path d="M 79.50377843672027 104.57218783832718 l -3.474408491534581 0.7750525237702943 a24.559806284146696,24.559806284146696 0 0,0 -0.08849244529673717,-0.4134072437743769 l 3.487234975555759 -0.7151314605797536" fill="#ff2f04" stroke="none" /><path d="M 79.4281124754447 104.21870165774334 l -3.943666807812774 0.8087324840682936 a25.025736717897914,25.025736717897914 0 0,0 -0.08290677051416585,-0.42273983669932086 l 3.9570035113026063 -0.7407289203010179" fill="#ff3605" stroke="none" /><path d="M 79.35854240842038 103.8639653848113 l -2.463821486435433 0.46121359868619055 a23.50661810027654,23.50661810027654 0 0,0 -0.07102754985888418,-0.39836021978874603 l 2.471395478633506 -0.41873462816423085" fill="#ff2003" stroke="none" /><path d="M 79.29508885075956 103.50808413554451 l -4.776914421615347 0.8093643859919358 a25.84499557283067,25.84499557283067 0 0,0 -0.07054237165594578,-0.43926741563953353 l 4.790138547632583 -0.7270177406591886" fill="#ff4106" stroke="none" /><path d="M 79.18660465613746 102.79330883721812 l -4.004976861985523 0.5374969857927161 a25.040883897710458,25.040883897710458 0 0,0 -0.05365723726294637,-0.427700974812336 l 4.013635608495318 -0.46847825669297155" fill="#ff3605" stroke="none" /><path d="M 79.1416061653843 102.43462659150553 l -6.233692112425492 0.7276069624777519 a27.276012208748632,27.276012208748632 0 0,0 -0.050418667532039635,-0.4668142434352308 l 6.245293081458583 -0.620196397157739" fill="#ff5507" stroke="none" /><path d="M 79.10278846688536 102.07522291339032 l -3.037390594871824 0.30163175356701627 a24.05233080457799,24.05233080457799 0 0,0 -0.03736747633222354,-0.4123469875445103 l 3.042132667481123 -0.24930337747393977" fill="#ff2803" stroke="none" /><path d="M 79.07016306316243 101.71520430193888 l -3.0371870226480513 0.24889808089570337 a24.047368580466646,24.047368580466646 0 0,0 -0.03025782061728885,-0.41284392237247547 l 3.0410214019296755 -0.19658102202646724" fill="#ff2803" stroke="none" /><path d="M 79.04373962182676 101.35467743843564 l -4.093783129475046 0.2646347937690457 a25.10232761798076,25.10232761798076 0 0,0 -0.024162363922670807,-0.4314352391973018 l 4.097731844285248 -0.19412783823630628" fill="#ff3705" stroke="none" /><path d="M 79.0235259727143 100.99374915477108 l -4.142864889861191 0.1962659919524645 a25.147511282111438,25.147511282111438 0 0,0 -0.01676245343094873,-0.4325644407652795 l 4.14562947614334 -0.12492430417318826" fill="#ff3705" stroke="none" /><path d="M 79.0095281055655 100.63252640178507 l -13.64897138979966 0.41129779285936385 a34.655167002786186,34.655167002786186 0 0,0 -0.012835510313727096,-0.5964157281095621 l 13.654028962798394 -0.17629224895967288" fill="#ffb610" stroke="none" /><line stroke="#e1ed5e" stroke-width="0.3" x1="15.007084014347285" x2="10.007500721073583" y1="101.09737516637583" y2="101.16192664675087" /><path d="M 14.007167355692545 101.11028546245083 a86.0,86.0 0 0,1 10.666146001902534,-42.60595125391555" fill="none" id="id58" stroke="none" /><text fill="#e1ed5e" style="font-size:6.75px; font-family:Arial;" text-anchor="middle"><textPath startOffset="22.20632615414155" xlink:href="#id58">October</textPath></text><path d="M 79.00486145842228 99.54816195383935 l -1.8726480417991127 -0.0403014074271258 a22.873081656494094,22.873081656494094 0 0,0 0.011859481038899422,-0.39355843918462263 l 1.8716768663045682 0.07252999403674286" fill="#ff1702" stroke="none" /><path d="M 79.01574976396665 99.18683210126434 l -4.035044740999771 -0.15636340667101065 a25.03807325055102,25.03807325055102 0 0,0 0.020395766195346655,-0.43052238868254783 l 4.031755366570925 0.2257969019765676" fill="#ff3605" stroke="none" /><path d="M 79.05617556472873 98.46500227214037 l -1.9302950014144746 -0.14147360958011435 a22.935472442245906,22.935472442245906 0 0,0 0.03224674584290525,-0.3934919772955108 l 1.9275737717520722 0.17467950408340346" fill="#ff1802" stroke="none" /><path d="M 79.08570108090925 98.10471618934814 l -13.492645671481721 -1.2227229324277475 a34.547934845785136,34.547934845785136 0 0,0 0.0587691206873588,-0.5917970251265704 l 13.469599425112133 1.4547954882587482" fill="#ffb510" stroke="none" /><path d="M 79.16333360222342 97.38593545837743 l -2.9768228352653754 -0.373457388615192 a24.000157431480666,24.000157431480666 0 0,0 0.05495350440702152,-0.40946743786952755 l 2.9699533318005202 0.42464316854937895" fill="#ff2703" stroke="none" /><path d="M 79.21141760316559 97.0276538004421 l -3.0445785737371276 -0.43531306657451513 a24.075541603943883,24.075541603943883 0 0,0 0.06218839258432594,-0.4097438066138409 l 3.0366342877134995 0.4876559855804481" fill="#ff2803" stroke="none" /><path d="M 79.26566170972629 96.67025291283419 l -3.4492269820997894 -0.5539146384048352 a24.493420701931615,24.493420701931615 0 0,0 0.07043390862817536,-0.41570491575846363 l 3.439181211951391 0.6132053424791268" fill="#ff2e04" stroke="none" /><path d="M 79.32604984820605 96.31383870115002 l -1.2544992597532825 -0.223676974491362 a22.274284027067413,22.274284027067413 0 0,0 0.07055037511840577,-0.3768829249353477 l 1.2504631607250152 0.2452379768892824" fill="#ff0f01" stroke="none" /><path d="M 79.3925641242962 95.95851677861259 l -7.205959474897811 -1.4132163015066286 a28.343230370124147,28.343230370124147 0 0,0 0.09801454026294878,-0.4779537074776065 l 7.180565638719868 1.5370456651476376" fill="#ff6309" stroke="none" /><path d="M 79.46518482838121 95.60439243477599 l -3.4043575209710553 -0.7287243419940636 a24.481478033423,24.481478033423 0 0,0 0.09175379693889088,-0.4113142805654651 l 3.3913093370301266 0.7872167921094878" fill="#ff2e04" stroke="none" /><path d="M 79.54389044137918 95.25157060432595 l -3.387856815832189 -0.7864153663496926 a24.477933716017535,24.477933716017535 0 0,0 0.09880599507181881,-0.4096146383938544 l 3.373818020499556 0.8446152364029438" fill="#ff2e04" stroke="none" /><path d="M 79.91906864156998 93.8553929516997 l -23.154759948017617 -7.085174419390786 a45.214512276804385,45.214512276804385 0 0,0 0.2341347744856048,-0.74227121821615 l 23.029369689763808 7.4826958040333515" fill="#c8ff1d" stroke="none" /><path d="M 80.52162464483688 92.15188598940014 l -1.600490843807617 -0.6448604868780211 a22.725519049054103,22.725519049054103 0 0,0 0.1493156563344746,-0.36157970542555523 l 1.5891535005869404 0.6723147627568876" fill="#ff1502" stroke="none" /><path d="M 80.65960295795067 91.81776055985345 l -2.7621191337971607 -1.1685551266502738 a23.99913707477818,23.99913707477818 0 0,0 0.16423328349545865,-0.379073061756542 l 2.7415951404590237 1.215927332993415" fill="#ff2703" stroke="none" /><path d="M 80.803312248108 91.48605970444005 l -3.6994178970255116 -1.6407321674801347 a25.04693647370906,25.04693647370906 0 0,0 0.17818829887325013,-0.3926142968131339 l 3.67062728118891 1.7041684731353395" fill="#ff3605" stroke="none" /><path d="M 81.10775173730289 90.83032412892265 l -2.185425050473807 -1.0607334328199607 a23.42924639893537,23.42924639893537 0 0,0 0.17922256371601322,-0.36130175214240257 l 2.1668424738043806 1.0981947734613247" fill="#ff1f03" stroke="none" /><path d="M 81.26839172434947 90.50648371742162 l -3.1496630748109475 -1.5963059468963392 a24.531086257927463,24.531086257927463 0 0,0 0.19413500620967153,-0.3750070400656832 l 3.121718635441162 1.650285709222358" fill="#ff2f04" stroke="none" /><path d="M 81.6062741919709 89.86733742301443 l -5.374684874221302 -2.9607850446667046 a27.136243604837187,27.136243604837187 0 0,0 0.22890372374400253,-0.40719418277671154 l 5.322923509184869 3.052862737378201" fill="#ff5307" stroke="none" /><line stroke="#e1ed5e" stroke-width="0.3" x1="26.266209847984243" x2="21.928928074336255" y1="57.711370442889674" y2="55.22380399835377" /><path d="M 25.398753493254645 57.213857153982495 a86.0,86.0 0 0,1 29.58750427330803,-30.492523968695096" fill="none" id="id59" stroke="none" /><text fill="#e1ed5e" style="font-size:6.75px; font-family:Arial;" text-anchor="middle"><textPath startOffset="21.46611528233685" xlink:href="#id59">November</textPath></text><path d="M 81.78341655067845 89.55222093294921 l -2.46993169679185 -1.416582903735893 a23.847326765577474,23.847326765577474 0 0,0 0.2072904186095762,-0.3543265195802023 l 2.445181603711951 1.4588888356699872" fill="#ff2503" stroke="none" /><path d="M 82.15384107792192 88.93136811851018 l -1.0722538772908263 -0.6650385387159999 a22.261746660523706,22.261746660523706 0 0,0 0.20477881496079892,-0.3239109075292012 l 1.0606474660840648 0.6833970939594167" fill="#ff0e01" stroke="none" /><path d="M 82.54541684631803 88.32363383020206 l -1.6219707226760176 -1.0850287232818805 a22.951429310932085,22.951429310932085 0 0,0 0.22249283264948252,-0.32648077773956913 l 1.6030534243577947 1.1127875242918654" fill="#ff1802" stroke="none" /><path d="M 82.7489923806493 88.02491185347247 l -1.5247488343868725 -1.0584310259428849 a22.856107552013793,22.856107552013793 0 0,0 0.2271324384052644,-0.32126272642480963 l 1.5063037761777298 1.0845202526994806" fill="#ff1702" stroke="none" /><path d="M 82.95767976084542 87.72973835380427 l -2.853695709249732 -2.054625926502208 a24.516399706922606,24.516399706922606 0 0,0 0.2495272011394839,-0.3403548219299474 l 2.8179058955966143 2.1034431921036587" fill="#ff2e04" stroke="none" /><path d="M 83.17141714833178 87.43820079747577 l -3.2938086624775287 -2.4586837402934383 a25.110267782005856,25.110267782005856 0 0,0 0.26153427196857537,-0.3441484452078815 l 3.2509984502848446 2.515016961382344" fill="#ff3705" stroke="none" /><path d="M 83.39014120810768 87.1503855733568 l -1.5446254110121138 -1.194943389572292 a22.952884370521424,22.952884370521424 0 0,0 0.24444375847931124,-0.3104187496163951 l 1.5238275719388314 1.2213545331417348" fill="#ff1802" stroke="none" /><path d="M 83.6137871275137 86.86637796730984 l -3.794991151411902 -3.041702179015143 a25.863528552925345,25.863528552925345 0 0,0 0.28142167974136756,-0.3449897036889409 l 3.742070979594142 3.106576052312166" fill="#ff4106" stroke="none" /><path d="M 84.07557802195018 86.31012108654704 l -2.6386473668680503 -2.2683877001951243 a24.47966128884353,24.47966128884353 0 0,0 0.27744564588586923,-0.3171683345769208 l 2.599209857404338 2.313471590974988" fill="#ff2e04" stroke="none" /><path d="M 85.05521093208273 85.24692304244772 l -12.728889988446664 -12.565603484288 a38.88628053180226,38.88628053180226 0 0,0 0.4743463303284962,-0.47230933643929834 l 12.510707857950852 12.782848671377408" fill="#ffeb16" stroke="none" /><path d="M 85.31137513191541 84.99185889309783 l -0.17888233375183224 -0.1827734951767173 a21.255744090582002,21.255744090582002 0 0,0 0.2636894050039397,-0.25366899869295023 l 0.17570968513546498 0.1858255806319764" fill="#ff0000" stroke="none" /><path d="M 85.83668400450813 84.49514656593479 l -1.2835107140201398 -1.4050837747508396 a22.90306599125531,22.90306599125531 0 0,0 0.29336538581009813,-0.2633863399576561 l 1.2591343406140703 1.4269691234777744" fill="#ff1802" stroke="none" /><path d="M 86.65592168130627 83.78471172551755 l -1.2543344525032618 -1.5242262713238148 a22.973985978909262,22.973985978909262 0 0,0 0.307519494290391,-0.24865937783549003 l 1.2279115596483703 1.5455917464234414" fill="#ff1902" stroke="none" /><path d="M 86.93701828274178 83.55741782278169 l -2.6302225763350755 -3.3107028542057493 a25.22833586531496,25.22833586531496 0 0,0 0.34234544805326783,-0.2672060523990942 l 2.572844573122382 3.3554872958280626" fill="#ff3805" stroke="none" /><path d="M 87.22198572758235 83.33499621200491 l -0.7623328866055468 -0.9942296331925262 a22.25285433850807,22.25285433850807 0 0,0 0.30598082286183353,-0.2304584121318181 l 0.7451059099853233 1.0072046348301986" fill="#ff0e01" stroke="none" /><path d="M 87.80319425747018 82.90503203632743 l -1.9696525683548625 -2.7606529337580312 a24.39127348656721,24.39127348656721 0 0,0 0.3438807878700588,-0.24091046787638173 l 1.9218406409011433 2.7941482443983556" fill="#ff2d04" stroke="none" /><path d="M 88.09926311788651 82.69761687909137 l -1.7239938445028111 -2.5065004201973715 a24.04215369965641,24.04215369965641 0 0,0 0.34299601832254806,-0.23159244267262194 l 1.6805931317737235 2.5358047751686588" fill="#ff2803" stroke="none" /><path d="M 88.39885842347998 82.49532879139004 l -1.6825149651474225 -2.538704581287086 a24.045632538405293,24.045632538405293 0 0,0 0.34698188309576555,-0.2256866686944845 l 1.6385660562673696 2.5672901741411054" fill="#ff2803" stroke="none" /><path d="M 89.00827224532344 82.1063720568725 l -26.461148336746504 -43.07657120457691 a71.55475603780802,71.55475603780802 0 0,0 1.0550508005641541,-0.6356563022959248 l 25.715735469964702 43.52567411633145" fill="#3effb3" stroke="none" /><line stroke="#e1ed5e" stroke-width="0.3" x1="56.76296977257108" x2="54.21961505331056" y1="26.818313649435495" y2="22.513508569990535" /><path d="M 56.25429882871898 25.957352633546506 a86.0,86.0 0 0,1 42.26535254187918,-11.944610805530505" fill="none" id="id60" stroke="none" /><text fill="#e1ed5e" style="font-size:6.75px; font-family:Arial;" text-anchor="middle"><textPath startOffset="22.20632615414155" xlink:href="#id60">December</textPath></text><path d="M 91.23893434514133 80.91482961587045 l -1.3330742010370182 -2.9039787240230734 a24.195337111331003,24.195337111331003 0 0,0 0.3800026109067346,-0.1704960947036154 l 1.282889471663509 2.926495149243218" fill="#ff2a04" stroke="none" /><path d="M 91.56875222667455 80.76684994638697 l -1.6510146384746949 -3.76625300740877 a25.112239177415795,25.112239177415795 0 0,0 0.39739071223380085,-0.17014196400353018 l 1.5859401684505858 3.794114499375086" fill="#ff3705" stroke="none" /><path d="M 92.91201910852362 80.23233633223022 l -1.0151555669209382 -2.8311664668127214 a24.007664274458737,24.007664274458737 0 0,0 0.3902022789180818,-0.13613391329193167 l 0.9662712839395713 2.848221233276863" fill="#ff2703" stroke="none" /><path d="M 93.25333710446033 80.11325718540243 l -0.3223524668647156 -0.9501794744225033 a22.0033703934777,22.0033703934777 0 0,0 0.3597207154592234,-0.1185942642182084 l 0.30594892916308286 0.9555874628999456" fill="#ff0b01" stroke="none" /><path d="M 93.94186890950719 79.89281104454417 l -2.3396244648216835 -7.7653108683638585 a29.110110697069555,29.110110697069555 0 0,0 0.48102348452558147,-0.14042394566546698 l 2.2056107625726806 7.8044331429480245" fill="#ff6e0a" stroke="none" /><path d="M 96.04723909329186 79.375362276772 l -0.18478707438611192 -0.9641783439724119 a21.981726103271967,21.981726103271967 0 0,0 0.3722290023287332,-0.06802247094767076 l 0.16816295095448544 0.9672162962708188" fill="#ff0a01" stroke="none" /><path d="M 96.40284397218896 79.31037775812273 l -1.0385377506953142 -5.973317137119113 a27.06292654418806,27.06292654418806 0 0,0 0.459645499748599,-0.07584544585313491 l 0.9355630448078296 5.990308845911875" fill="#ff5207" stroke="none" /><path d="M 96.75951476605007 79.25152402106235 l -0.29668530499241236 -1.8996438741476431 a22.92267236386887,22.92267236386887 0 0,0 0.3903742232757362,-0.057531012921276665 l 0.2639421012880274 1.9044693712298886" fill="#ff1802" stroke="none" /><path d="M 97.11714578562143 79.19881850522333 l -0.42243943914056054 -3.048103993704258 a24.077237890735333,24.077237890735333 0 0,0 0.4110159600971976,-0.05336166785765747 l 0.36990875053550515 3.0549239847260523" fill="#ff2803" stroke="none" /><path d="M 97.83486435360386 79.11191278185805 l -0.3080908071274481 -2.9722976761745223 a23.98822245176441,23.98822245176441 0 0,0 0.4110837383885646,-0.03903735430179855 l 0.25688194164864714 2.9771605749915016" fill="#ff2703" stroke="none" /><path d="M 98.19473922651362 79.07773832637324 l -0.0847486188971006 -0.9822031293679941 a21.98585258317116,21.98585258317116 0 0,0 0.37732937934325494,-0.02928802197987307 l 0.0678290501915115 0.9835164135363293" fill="#ff0b01" stroke="none" /><path d="M 98.55514903715128 79.0497635885617 l -0.295728567641263 -4.288043241141681 a25.29822873095651,25.29822873095651 0 0,0 0.43469338206023483,-0.02622189190200586 l 0.22187313674140513 4.292498402423993" fill="#ff3905" stroke="none" /><path d="M 98.91598698831166 79.02799685794201 l -0.5010717119248662 -9.69405108940329 a30.706992293416764,30.706992293416764 0 0,0 0.5281005607865638,-0.02274112103651109 l 0.3341303187489784 9.701239936963994" fill="#ff830c" stroke="none" /><path d="M 99.63851952072746 79.00311137660856 l -0.05625618901674312 -3.267686646698379 a24.26817086147796,24.26817086147796 0 0,0 0.417736668289278,-0.0035955913881386883 l 8.00470996915126e-16 3.2681708614779588" fill="#ff2b04" stroke="none" /></svg>