<?xml version="1.0" encoding="utf-8" ?>
<svg baseProfile="full" height="200mm" version="1.1" viewBox="0,0,200,200" width="200mm" xmlns="http://www.w3.org/2000/svg" xmlns:ev="http://www.w3.org/2001/xml-events" xmlns:xlink="http://www.w3.org/1999/xlink"><defs /><rect fill="#1a1a1a" height="200" width="200" x="0" y="0" /><text alignment-baseline="middle" fill="#e1ed5e" style="dominant-baseline: central; font-size:9.0px; font-family:Arial;" text-anchor="middle" x="100.0" y="100.0">2017</text><line stroke="#e1ed5e" stroke-width="0.3" x1="100.0" x2="100.0" y1="15.0" y2="10.0" /><path d="M 100.0 14.0 a86.0,86.0 0 0,1 42.46469731375804,11.215312516191453" fill="none" id="id25" stroke="none" /><text fill="#e1ed5e" style="font-size:6.75px; font-family:Arial;" text-anchor="middle"><textPath startOffset="22.20632615414155" xlink:href="#id25">January</textPath></text><path d="M 100.0 79.0 l 0.0 -3.6361058117352734 a24.636105811735273,24.636105811735273 0 0,0 0.42407006363022803,0.0036501049213625873 l -0.06258958435769964 3.63556708342247" fill="#ff1302" stroke="none" /><path d="M 100.36148047927253 79.00311137660856 l 0.410209920130072 -23.827377961087034 a44.83090876737749,44.83090876737749 0 0,0 0.7714617308828144,0.019924580474897407 l -0.8202982862077542 23.81678658846978" fill="#ddff1b" stroke="none" /><path d="M 101.44485096284872 79.0497635885617 l 0.3975076040270736 -5.763832044858154 a26.77752301047716,26.77752301047716 0 0,0 0.45956580940722025,0.03567115168859318 l -0.496663602796635 5.756135630981096" fill="#ff3204" stroke="none" /><path d="M 101.80526077348638 79.07773832637324 l 0.2333389272403992 -2.7043063063619113 a23.714354371410355,23.714354371410355 0 0,0 0.4063904888356292,0.03859167370557391 l -0.2798545431662726 2.6998890881411595" fill="#ff0500" stroke="none" /><path d="M 102.16513564639614 79.11191278185805 l 0.8878091311186411 -8.565114428159056 a29.61100401932063,29.61100401932063 0 0,0 0.5065361231546346,0.056915235429432574 l -1.035111957783001 8.548563239259023" fill="#ff5a08" stroke="none" /><path d="M 102.52436894288641 79.15227682838746 l 1.1682688566269714 -9.648251212093676 a30.71872437992927,30.71872437992927 0 0,0 0.5243909642491233,0.06808099728098206 l -1.3341745493839408 9.626711891648558" fill="#ff6a09" stroke="none" /><path d="M 103.2404852339499 79.25152402106235 l 0.4203154346125626 -2.6912342038372365 a23.723858771022645,23.723858771022645 0 0,0 0.40293369244332644,0.0664875117222498 l -0.4665783331947642 2.683600429175362" fill="#ff0500" stroke="none" /><path d="M 103.59715602781102 79.31037775812273 l 2.399431958240958 -13.800719353645228 a35.0077524392854,35.0077524392854 0 0,0 0.59280607460151,0.10833152101235574 l -2.6366331539453687 13.757372351282134" fill="#ffa50f" stroke="none" /><path d="M 103.95276090670814 79.375362276772 l 1.2470644618150781 -6.506908297640548 a27.62533209475763,27.62533209475763 0 0,0 0.46625455447657177,0.09352627733288547 l -1.3588854257587752 6.484478064230454" fill="#ff3e05" stroke="none" /><path d="M 104.307194497241 79.44645832069477 l 1.3541054810634265 -6.46166860146216 a27.60202717117765,27.60202717117765 0 0,0 0.4641836535054001,0.10145256775266365 l -1.4651318587223547 6.437402535613626" fill="#ff3e05" stroke="none" /><path d="M 104.66035177308747 79.52364482259891 l 2.2871726492362066 -10.049232718493094 a31.30622321502141,31.30622321502141 0 0,0 0.5244184656051659,0.12411290752766525 l -2.459814801803896 10.00837389882456" fill="#ff720a" stroke="none" /><path d="M 105.71112130821622 79.79150937346287 l 0.7536960030008348 -2.666912115837732 a23.771367514160026,23.771367514160026 0 0,0 0.392804622166908,0.11467044062247886 l -0.7994908428911699 2.6535433462965496" fill="#ff0600" stroke="none" /><path d="M 106.40334571778207 80.00007090966166 l 2.5169524341491756 -7.861338810264003 a29.254435016736913,29.254435016736913 0 0,0 0.4782642888970816,0.1576762165926019 l -2.6518995452886744 7.816848869412166" fill="#ff5507" stroke="none" /><path d="M 106.74666289553966 80.11325718540242 l 4.172167800909376 -12.298054507938067 a33.9864979436013,33.9864979436013 0 0,0 0.5523906365246508,0.19271824660897943 l -4.383240441497301 12.224415408156881" fill="#ff970d" stroke="none" /><path d="M 107.08798089147638 80.2323363322302 l 3.5638491528863865 -9.939215764766306 a31.558836621669457,31.558836621669457 0 0,0 0.5097769123869502,0.1877551390164509 l -3.734408391045913 9.87639735794353" fill="#ff760a" stroke="none" /><path d="M 107.4271985657038 80.35727306442388 l 3.2609564524898738 -8.624258066943682 a30.220177015127124,30.220177015127124 0 0,0 0.4849861147994263,0.1881670778308128 l -3.408925732288967 8.566848285222322" fill="#ff6309" stroke="none" /><path d="M 108.09893153111575 80.62456947434976 l 3.9213143807948976 -9.381133062111187 a31.167711837088248,31.167711837088248 0 0,0 0.49321604171311795,0.21116936916669657 l -4.0822141802983305 9.3122441649817" fill="#ff700a" stroke="none" /><path d="M 108.43124777332544 80.76684994638697 l 1.8426325334773999 -4.203366923003136 a25.589508485973873,25.589508485973873 0 0,0 0.40189892753905965,0.18032033371423012 l -1.9147135794832397 4.1710262587723745" fill="#ff2103" stroke="none" /><path d="M 108.76106565485865 80.91482961587045 l 5.6937634717704455 -12.40333656504543 a34.64777272738158,34.64777272738158 0 0,0 0.5398812460161336,0.2534814840217382 l -5.906422929086177 12.303490098383689" fill="#ffa00e" stroke="none" /><path d="M 109.41281617654863 81.2277094730956 l 6.828775799338839 -13.618853363742867 a36.23500396654908,36.23500396654908 0 0,0 0.5551539289722385,0.2843714047151657 l -7.062190215899833 13.4992894337152" fill="#ffb510" stroke="none" /><path d="M 109.73455568895987 81.39251694778311 l 2.3648484251681143 -4.520378576937321 a26.101600783367314,26.101600783367314 0 0,0 0.39631546206272295,0.21169799456028254 l -2.4423089337591484 4.479001855875284" fill="#ff2803" stroke="none" /><path d="M 110.05341064243156 81.56283822128135 l 5.5422419856438525 -10.164034449647048 a32.5768753349531,32.5768753349531 0 0,0 0.4900119129340488,0.2726910990231577 l -5.716377987649937 10.06712795306371" fill="#ff840c" stroke="none" /><path d="M 110.36928655335952 81.73862282372117 l 7.645265972048614 -13.464097535554831 a36.48328176551399,36.48328176551399 0 0,0 0.5434328450781393,0.3147913800323119 l -7.875895549592081 13.330501998132469" fill="#ffb811" stroke="none" /><line stroke="#e1ed5e" stroke-width="0.3" x1="143.23703022742887" x2="145.7803849466894" y1="26.81831364943548" y2="22.513508569990506" /><path d="M 143.74570117128098 25.957352633546492 a86.0,86.0 0 0,1 28.547481713284135,27.462654790039103" fill="none" id="id26" stroke="none" /><text fill="#e1ed5e" style="font-size:6.75px; font-family:Arial;" text-anchor="middle"><textPath startOffset="19.985693538727396" xlink:href="#id26">February</textPath></text><path d="M 110.68208982089419 81.91981866633111 l 2.072213809571164 -3.5073662614122423 a25.073780573898198,25.073780573898198 0 0,0 0.3697044575721037,0.22274279903578256 l -2.132280333360905 3.4711768529178455" fill="#ff1902" stroke="none" /><path d="M 110.99172775467656 82.1063720568725 l 5.103090253075979 -8.307410844477278 a30.749595123387316,30.749595123387316 0 0,0 0.4486231913387203,0.280927801259536 l -5.245332596786962 8.218338701894798" fill="#ff6a09" stroke="none" /><path d="M 111.2981086023043 82.29822771554956 l 1.6884816957557451 -2.64549753740506 a24.138411645612862,24.138411645612862 0 0,0 0.3483206987530207,0.22655747163954634 l -1.733769420293046 2.6160411416059857" fill="#ff0b01" stroke="none" /><path d="M 111.60114157652 82.49532879139004 l 4.259343974141311 -6.426817166219172 a28.71012256569656,28.71012256569656 0 0,0 0.4095913306521667,0.27655789483264553 l -4.36933999920002 6.352547359087857" fill="#ff4e07" stroke="none" /><path d="M 111.90073688211348 82.69761687909136 l 11.362913675218426 -16.520446399746447 a41.0509589904663,41.0509589904663 0 0,0 0.578757649871697,0.4054567196999428 l -11.645602464673775 16.32240483728257" fill="#fff316" stroke="none" /><path d="M 112.19680574252982 82.90503203632743 l 2.2322845555353865 -3.1287563127789317 a24.843463334238514,24.843463334238514 0 0,0 0.3459803433376655,0.25136943328870864 l -2.2858102152268405 3.0898676446735482" fill="#ff1602" stroke="none" /><path d="M 112.48926042617603 83.11751280151076 l 1.6190385421080478 -2.1885521262501824 a23.7223236784309,23.7223236784309 0 0,0 0.32618629542550037,0.24567675516339738 l -1.656470991291931 2.1603587815809377" fill="#ff0500" stroke="none" /><path d="M 112.77801427241765 83.33499621200491 l 7.941357708431307 -10.357067496669186 a34.05120720024867,34.05120720024867 0 0,0 0.4620707385519844,0.3606535406844276 l -8.118461002142721 10.218835566761534" fill="#ff980e" stroke="none" /><path d="M 113.6212207817346 84.01681056812373 l 7.553339023754441 -8.863115163784649 a32.64507367148362,32.64507367148362 0 0,0 0.4245510506340678,0.3681664875143364 l -7.704783873035273 8.731783682850638" fill="#ff850c" stroke="none" /><path d="M 114.42810811169701 84.74124197986012 l 7.735559574053736 -8.180908458481131 a32.259047256752346,32.259047256752346 0 0,0 0.4001915407372745,0.3849839451179193 l -7.875234358403432 8.04654142660091" fill="#ff7f0b" stroke="none" /><path d="M 114.94478906791727 85.2469230424477 l 5.009416806695262 -4.945155888501979 a28.039092519976332,28.039092519976332 0 0,0 0.3361162666958519,0.3463973582840396 l -5.093797337094223 4.858194334667825" fill="#ff4406" stroke="none" /><path d="M 115.19652480421416 85.50635884689758 l 7.205941194161427 -6.872645370181713 a30.95785332679653,30.95785332679653 0 0,0 0.3644663325728343,0.38878727190855716 l -7.323174848704724 6.747588681395101" fill="#ff6d0a" stroke="none" /><path d="M 115.68641384162765 86.03803664274999 l 10.906152059886374 -9.707208860233047 a35.6004813828021,35.6004813828021 0 0,0 0.40348591569772563,0.46125415123557245 l -11.071629839161947 9.518039152794527" fill="#ffad10" stroke="none" /><path d="M 116.15771136456269 86.58626213691792 l 2.1010665547127374 -1.744254205432665 a23.730733125096993,23.730733125096993 0 0,0 0.25821468110557033,0.3165406673878615 l -2.1307797278947165 1.7078293684367025" fill="#ff0500" stroke="none" /><path d="M 116.60985879189232 87.15038557335679 l 17.716876835510742 -13.706018758676246 a43.399613278310014,43.399613278310014 0 0,0 0.45202569566359224,0.5948128296368222 l -17.950178471398445 13.39902115315839" fill="#eeff19" stroke="none" /><path d="M 117.2510076193507 88.02491185347247 l 17.499181314412315 -12.147362250138654 a42.30210685145417,42.30210685145417 0 0,0 0.4100797145534818,0.6017413799282321 l -17.70568549463453 11.844342846940014" fill="#fbff18" stroke="none" /><path d="M 117.65298651832404 88.62581576622439 l 2.9038076509209683 -1.8709833130353495 a24.454370772109428,24.454370772109428 0 0,0 0.2249480754448106,0.3558138339565238 l -2.9355833226117345 1.8207218313646194" fill="#ff1001" stroke="none" /><line stroke="#e1ed5e" stroke-width="0.3" x1="172.23445277983987" x2="176.4835382374775" y1="55.19839476539836" y2="52.563006222186495" /><path d="M 173.08426987136738 54.67131705675599 a86.0,86.0 0 0,1 12.851231095245387,41.99856678651699" fill="none" id="id27" stroke="none" /><text fill="#e1ed5e" style="font-size:6.75px; font-family:Arial;" text-anchor="middle"><textPath startOffset="22.20632615414155" xlink:href="#id27">March</textPath></text><path d="M 117.84615892207809 88.93136811851018 l 14.83422708946679 -9.200556804220842 a38.45578811883224,38.45578811883224 0 0,0 0.34405881199909094,0.5655422227531248 l -14.990401699752104 8.943846808260636" fill="#ffd213" stroke="none" /><path d="M 118.03404312379186 89.2402003453031 l 3.960129837209993 -2.3627648754345274 a25.611429950042393,25.611429950042393 0 0,0 0.2226247028743432,0.38053778206996536 l -4.000214214554661 2.2942476810106665" fill="#ff2103" stroke="none" /><path d="M 118.3937258080291 89.86733742301442 l 7.575227649843447 -4.173011304007242 a29.648589323717765,29.648589323717765 0 0,0 0.24240107888001114,0.4491323848209932 l -7.645936827941923 4.04199793585379" fill="#ff5b08" stroke="none" /><path d="M 118.56541770881063 90.18545643968196 l 13.981200428034843 -7.391113024155922 a36.81462984532768,36.81462984532768 0 0,0 0.29134496199978593,0.5627857333446956 l -14.106354823194746 7.149354568550882" fill="#ffbd11" stroke="none" /><path d="M 118.73160827565052 90.50648371742162 l 4.941599603222916 -2.5044916381346036 a26.540025722328284,26.540025722328284 0 0,0 0.20301854229766814,0.40927299291272606 l -4.983978158473992 2.419059056722928" fill="#ff2f04" stroke="none" /><path d="M 118.89224826269711 90.83032412892265 l 7.379831474298362 -3.5819274477832823 a29.203177239961843,29.203177239961843 0 0,0 0.21560539737347625,0.4541199531001472 l -7.440395065513594 3.454365079042595" fill="#ff5507" stroke="none" /><path d="M 119.04729006885535 91.15688171328212 l 11.95871764638805 -5.55209451434711 a34.18471392341435,34.18471392341435 0 0,0 0.2431960502585198,0.5358502598865859 l -12.052516013609917 5.345422245618461" fill="#ff9a0e" stroke="none" /><path d="M 119.196687751892 91.48605970444005 l 9.10652151572722 -4.038841569295832 a30.961976477500578,30.961976477500578 0 0,0 0.21188207911662973,0.4890530515655441 l -9.17469430468653 3.8814893731436855" fill="#ff6d0a" stroke="none" /><path d="M 119.34039704204932 91.81776055985345 l 4.497889584766915 -1.9028983468068743 a25.88385430116778,25.88385430116778 0 0,0 0.17006716920755113,0.41183113984294295 l -4.529978440860663 1.8251926365106284" fill="#ff2503" stroke="none" /><path d="M 119.47837535516314 92.15188598940014 l 17.912475596561727 -7.217190763121869 a40.31177424548845,40.31177424548845 0 0,0 0.2537845986174439,0.6458541218719561 l -18.034053745060874 6.907787636354129" fill="#ffea16" stroke="none" /><path d="M 119.61058180528143 92.48833698450437 l 12.410430108218309 -4.753707451208337 a34.28971444398431,34.28971444398431 0 0,0 0.2063839317766267,0.5530063295261222 l -12.490418628496561 4.539377984652881" fill="#ff9b0e" stroke="none" /><path d="M 119.85752413597 93.16781622104841 l 6.692035809188319 -2.3024631968534273 a28.077053062138454,28.077053062138454 0 0,0 0.1533043279532574,0.4583604276370699 l -6.730677430913347 2.186929666294043" fill="#ff4506" stroke="none" /><path d="M 119.97218684219823 93.5106431181261 l 8.93810069641127 -2.9041649631770787 a30.3980752387142,30.3980752387142 0 0,0 0.1574106660100784,0.4990348275954242 l -8.986766846189553 2.749879969155235" fill="#ff6609" stroke="none" /><path d="M 120.08093135843002 93.85539295169968 l 6.324029716390327 -1.935103351303459 a27.613469349291172,27.613469349291172 0 0,0 0.13516675282828058,0.4557150955447496 l -6.35640236633031 1.8259588690121795" fill="#ff3e05" stroke="none" /><path d="M 120.37134235888165 94.90015583598534 l 13.863777457701351 -3.470714070446634 a35.29161227977671,35.29161227977671 0 0,0 0.1424557689160738,0.5905711311268471 l -13.921466026878244 3.231557707660381" fill="#ffa80f" stroke="none" /><path d="M 120.45610955862082 95.25157060432595 l 3.464624222328919 -0.8042352068523129 a24.556742227079305,24.556742227079305 0 0,0 0.0920358785816774,0.41257879725941987 l -3.4779544879126343 0.7444782400429292" fill="#ff1101" stroke="none" /><path d="M 120.53481517161879 95.60439243477599 l 9.287081009445739 -1.987958654743027 a30.49746562452191,30.49746562452191 0 0,0 0.10546416316480761,0.5142807144267965 l -9.319924468525542 1.8278022841528185" fill="#ff6709" stroke="none" /><path d="M 120.6074358757038 95.95851677861258 l 2.6389188065059743 -0.5175387245373823 a23.68918924561413,23.68918924561413 0 0,0 0.07503187018258907,0.400823250766895 l -2.647436400598423 0.4720373963079245" fill="#ff0500" stroke="none" /><path d="M 120.96714384426684 98.82574320788733 l 6.616572235490105 -0.37055857229466316 a27.62694060656647,27.62694060656647 0 0,0 0.022504631872659553,0.475037210048438 l -6.621970475596261 0.25661025562322537" fill="#ff3e05" stroke="none" /><path d="M 120.98425023603335 99.18683210126433 l 9.4325770617002 -0.36552503819049603 a30.43965669812504,30.43965669812504 0 0,0 0.015782680133069323,0.5237503174841505 l -9.437471436288916 0.20310457328134643" fill="#ff6609" stroke="none" /><line stroke="#e1ed5e" stroke-width="0.3" x1="184.98032266829074" x2="189.97916517819016" y1="98.17113171792111" y2="98.06355123074" /><path d="M 185.9800911702706 98.14961562048488 a86.0,86.0 0 0,1 -9.607161424134198,41.387399972396054" fill="none" id="id28" stroke="none" /><text fill="#e1ed5e" style="font-size:6.75px; font-family:Arial;" text-anchor="middle"><textPath startOffset="21.466115282336823" xlink:href="#id28">April</textPath></text><path d="M 120.99513854157772 99.54816195383933 l 10.411881458497733 -0.2240749288578198 a31.4142923465568,31.4142923465568 0 0,0 0.006981441846827781,0.5407203648556661 l -10.414195907462277 0.04481830594169098" fill="#ff740a" stroke="none" /><path d="M 120.95626037817324 101.35467743843564 l 13.295102560441526 0.8594365194601598 a34.322851917800506,34.322851917800506 0 0,0 -0.04318704114869651,0.5892528642100204 l -13.278338960628492 -1.0881625201669505" fill="#ff9b0e" stroke="none" /><path d="M 120.92983693683757 101.71520430193887 l 4.279373496668247 0.3506955096324612 a25.293719234470622,25.293719234470622 0 0,0 -0.03929608579423376,0.4336290322493536 l -4.272702814596937 -0.4243059304303854" fill="#ff1c02" stroke="none" /><path d="M 120.89721153311464 102.0752229133903 l 10.385876971412392 1.0313820976819703 a31.43696265667043,31.43696265667043 0 0,0 -0.0581100256252059,0.5380266670275149 l -10.366584644286135 -1.2100050865942766" fill="#ff740a" stroke="none" /><path d="M 120.8583938346157 102.4346265915055 l 13.321771884876272 1.5549394806739583 a34.4122124551186,34.4122124551186 0 0,0 -0.07373798209319772,0.5877642687305342 l -13.293032393536226 -1.7840215036918874" fill="#ff9d0e" stroke="none" /><path d="M 120.76222939487914 103.15116336523771 l 2.7223477239835954 0.4131811787693277 a23.753524253891342,23.753524253891342 0 0,0 -0.06483382561760176,0.4037202940095256 l -2.7148321440047054 -0.4599807024720582" fill="#ff0600" stroke="none" /><path d="M 120.70491114924044 103.5080841355445 l 12.812890461545106 2.1709196158644115 a33.99550129691419,33.99550129691419 0 0,0 -0.10272073817866331,0.5761124509998247 l -12.773623281027254 -2.3911508175974547" fill="#ff970d" stroke="none" /><path d="M 120.64145759157962 103.86396538481128 l 9.73317364328689 1.8219956548688658 a30.90223900624175,30.90223900624175 0 0,0 -0.10237480185077548,0.5220069090633225 l -9.70036890846045 -1.989266291000133" fill="#ff6d0a" stroke="none" /><path d="M 120.5718875245553 104.21870165774334 l 8.745113703210585 1.7933709599010648 a29.92710440635137,29.92710440635137 0 0,0 -0.1078315772905015,0.5037532301206992 l -8.71294808719564 -1.9436380094379329" fill="#ff5f08" stroke="none" /><path d="M 120.49622156327973 104.57218783832717 l 11.903155335087174 2.6552924348899385 a33.195724039432754,33.195724039432754 0 0,0 -0.12920950935756076,0.5566311845853322 l -11.85568525979906 -2.859792276823836" fill="#ff8c0c" stroke="none" /><path d="M 120.41448212921028 104.9243191809786 l 9.384981053587076 2.2638165358685676 a30.65415634243927,30.65415634243927 0 0,0 -0.1281470522236413,0.5118837731453904 l -9.344622687068373 -2.4250281484113536" fill="#ff6909" stroke="none" /><path d="M 120.32669344350535 105.2749913415812 l 6.9495008936920035 1.8034687808138847 a28.179697926430908,28.179697926430908 0 0,0 -0.12588531764695784,0.46846609745196344 l -6.917427499703269 -1.9228258114413965" fill="#ff4606" stroke="none" /><path d="M 120.13307415673323 105.97154293290107 l 2.623933290273886 0.778268145935311 a23.736919293436532,23.736919293436532 0 0,0 -0.11955859830610621,0.39072441687855675 l -2.6101479194616473 -0.8233195353659248" fill="#ff0500" stroke="none" /><path d="M 119.79798401119884 107.00284435728193 l 6.51169366655296 2.3032838708918413 a27.907045026415886,27.907045026415886 0 0,0 -0.164087762276053,0.4514990488939947 l -6.47108164327168 -2.415030716791967" fill="#ff4206" stroke="none" /><path d="M 119.67450827220406 107.3425965602758 l 8.057552937125896 3.0071074540635956 a29.600398512561554,29.600398512561554 0 0,0 -0.18226194542790775,0.47582842619943067 l -8.004596712104481 -3.1453594470961703" fill="#ff5a08" stroke="none" /><path d="M 119.41010516605496 108.01547362559984 l 7.681127787407404 3.1719496967228196 a29.310294156347425,29.310294156347425 0 0,0 -0.1965869606136318,0.4646735040412497 l -7.625389845601461 -3.303697726430233" fill="#ff5608" stroke="none" /><path d="M 119.26925614724726 108.34839909993367 l 2.530259620750966 1.0962341762991987 a23.75752481723904,23.75752481723904 0 0,0 -0.16580366984211514,0.37384350460347127 l -2.5110148661775784 -1.1396260173953576" fill="#ff0600" stroke="none" /><path d="M 118.97047184881838 109.00673069616215 l 7.454357729194856 3.5391524847018956 a29.25185127500361,29.25185127500361 0 0,0 -0.21987187913095416,0.4530011949091625 l -7.392332593449188 -3.6669426355763335" fill="#ff5507" stroke="none" /><path d="M 118.81262510543309 109.33194174019688 l 8.331808592910251 4.132966661683776 a30.30056169569788,30.30056169569788 0 0,0 -0.23579800469210338,0.46525183342002135 l -8.25943191843188 -4.2757727068064915" fill="#ff6409" stroke="none" /><path d="M 118.64920377521936 109.65438752849418 l 6.87704052594103 3.5601313110652213 a28.74391511752694,28.74391511752694 0 0,0 -0.231248207757274,0.43743446091429916 l -6.814739809958864 -3.6779807870656547" fill="#ff4e07" stroke="none" /><line stroke="#e1ed5e" stroke-width="0.3" x1="174.80103733775053" x2="179.2010983576182" y1="140.37084112569926" y2="142.7455964860345" /><path d="M 175.68104954172406 140.8457921977663 a86.0,86.0 0 0,1 -30.038265399797805,32.042727171017184" fill="none" id="id29" stroke="none" /><text fill="#e1ed5e" style="font-size:6.75px; font-family:Arial;" text-anchor="middle"><textPath startOffset="22.206326154141568" xlink:href="#id29">May</textPath></text><path d="M 118.48025628344425 109.97397251340804 l 5.155849443064739 2.7826616600802745 a26.85883857040213,26.85883857040213 0 0,0 -0.2230864314958041,0.4049666729992112 l -5.1071866021174275 -2.870998851477292" fill="#ff3304" stroke="none" /><path d="M 118.30583269289576 110.29060199501023 l 2.336179262254522 1.3132803833713507 a23.680007259455856,23.680007259455856 0 0,0 -0.202800096986202,0.3535990631664958 l -2.3132271691159385 -1.3532992923961604" fill="#ff0400" stroke="none" /><path d="M 118.12598468904814 110.60418214915192 l 2.291228132605331 1.3404292721315358 a23.65452010525993,23.65452010525993 0 0,0 -0.20863188093690108,0.3496790329336164 l -2.2678153759702027 -1.3796703989512564" fill="#ff0400" stroke="none" /><path d="M 117.94076556474637 110.91462005526583 l 6.803376769798997 4.138969001472906 a28.963479130819284,28.963479130819284 0 0,0 -0.2627889015552423,0.42369938311490585 l -6.731123228575791 -4.255464715953085" fill="#ff5107" stroke="none" /><path d="M 117.75023020441432 111.22182372390056 l 8.065706974391338 5.099198198158878 a30.542402803322222,30.542402803322222 0 0,0 -0.2847644728414112,0.44196078563943275 l -7.976737638172875 -5.237280583719763" fill="#ff6809" stroke="none" /><path d="M 117.55443506779139 111.5257021239791 l 8.509780355522965 5.587260036536555 a31.180070550596543,31.180070550596543 0 0,0 -0.2984332073211683,0.4461171529958516 l -8.412344042791075 -5.732914103738213" fill="#ff700a" stroke="none" /><path d="M 117.35343817320211 111.8261652097733 l 9.653082090925649 6.578462576198848 a32.68153088086481,32.68153088086481 0 0,0 -0.3208067203968621,0.46214600762750274 l -9.53841446336665 -6.74364984601337" fill="#ff850c" stroke="none" /><path d="M 117.14729908036423 112.12312394758627 l 6.248936214581095 4.41799188985266 a28.65296388026933,28.65296388026933 0 0,0 -0.28819452284975433,0.4002769860330276 l -6.171961899355738 -4.524902481336819" fill="#ff4d07" stroke="none" /><path d="M 116.93607887273984 112.41649034213515 l 2.2269478209199316 1.6326610379335107 a23.761318283336088,23.761318283336088 0 0,0 -0.24467225558301645,0.3277784701220142 l -2.198514298641823 -1.6707523875648398" fill="#ff0600" stroke="none" /><path d="M 116.498646956653 112.99209946851258 l 4.362493955425709 3.435309304368171 a26.552720371836166,26.552720371836166 0 0,0 -0.2858616410613493,0.3566563504607026 l -4.302714402309506 -3.509893488407124" fill="#ff2f04" stroke="none" /><path d="M 116.27256486870786 113.27417163493432 l 5.121144347951817 4.1775190076341175 a27.608917043790395,27.608917043790395 0 0,0 -0.3035718754294538,0.3656718799528599 l -5.04847647262882 -4.265052144700747" fill="#ff3e05" stroke="none" /><path d="M 116.0416608686014 113.55231037782055 l 4.111709552288809 3.47365303957618 a26.3826035412001,26.3826035412001 0 0,0 -0.29605991150039235,0.3443845625897674 l -4.0513071312176345 -3.5439147013274757" fill="#ff2c04" stroke="none" /><path d="M 115.80600337817218 113.82643327865902 l 7.3597407299845266 6.437994584506271 a30.778218543411946,30.778218543411946 0 0,0 -0.35225106907136267,0.3957578102896128 l -7.24783081126483 -6.563726564536751" fill="#ff6b09" stroke="none" /><path d="M 115.56566222782051 114.09645910891815 l 6.703548089153831 6.070817299024398 a30.043913957006218,30.043913957006218 0 0,0 -0.3504459353160031,0.38033984887270317 l -6.598055745842103 -6.185308402698436" fill="#ff6108" stroke="none" /><path d="M 115.32070863581623 114.36230785411682 l 7.679539106521398 7.1991385938731005 a31.526296470382384,31.526296470382384 0 0,0 -0.3745525918402324,0.39271689510295504 l -7.554479963302201 -7.330262605558563" fill="#ff750a" stroke="none" /><path d="M 115.07121518719521 114.62390073753431 l 3.3134282933839634 3.215085569513554 a25.61688014515123,25.61688014515123 0 0,0 -0.3097927080804699,0.31381837770943455 l -3.2575949602479577 -3.2716444412036534" fill="#ff2103" stroke="none" /><path d="M 114.81725581225074 114.88116024355365 l 5.893477008189118 5.918894622717561 a29.352627419015445,29.352627419015445 0 0,0 -0.3611072710284861,0.3534194677071498 l -5.790719784784837 -6.019464193347282" fill="#ff5708" stroke="none" /><path d="M 114.55890576462653 115.13401014063108 l 6.872144301861882 7.143607028829869 a30.912491547938906,30.912491547938906 0 0,0 -0.38664779996859927,0.3655996282091657 l -6.748160667502474 -7.2608412937849565" fill="#ff6d0a" stroke="none" /><path d="M 114.29624159901734 115.38237550388516 l 6.159091060070595 6.627018072717804 a30.047196870985506,30.047196870985506 0 0,0 -0.3818862086725651,0.34884399718777415 l -6.0441053019311655 -6.7320548364921615" fill="#ff6108" stroke="none" /><path d="M 114.0293411484842 115.62618273729858 l 6.801047046797628 7.575152876634333 a31.18023487141314,31.18023487141314 0 0,0 -0.40245910000310525,0.35512336263555794 l -6.669645593887934 -7.69109938104218" fill="#ff700a" stroke="none" /><path d="M 113.75828350139079 115.86535959552629 l 6.698546134548355 7.724426028951155 a31.22434730402928,31.22434730402928 0 0,0 -0.40909028165175504,0.3486356130477501 l -6.564590376319552 -7.838586032221851" fill="#ff710a" stroke="none" /><path d="M 113.48314897796784 116.09983520530334 l 6.354619436169998 7.58786585254911 a30.89731763534092,30.89731763534092 0 0,0 -0.4106840142793599,0.33796498452657103 l -6.223065293345948 -7.696125955932859" fill="#ff6d0a" stroke="none" /><path d="M 113.20401910651253 116.32954008644616 l 1.9362404941441733 2.3945676321032368 a24.07944498179139,24.07944498179139 0 0,0 -0.32454792769623014,0.2578405021897305 l -1.8947350737305921 -2.4275420482980934" fill="#ff0a01" stroke="none" /><path d="M 112.92097659922987 116.55440617244103 l 8.193884431097837 10.498037045475284 a34.31722658357809,34.31722658357809 0 0,0 -0.4687917345051393,0.35944951171347916 l -8.011963968099204 -10.637525899016135" fill="#ff9b0e" stroke="none" /><path d="M 112.63410532772338 116.77436683061366 l 6.621681873562578 8.791641188793156 a32.00634478958167,32.00634478958167 0 0,0 -0.4429297541818051,0.32766884318879946 l -6.469367148962209 -8.904319980721723" fill="#ff7c0b" stroke="none" /><path d="M 112.34349029814194 116.9893568818739 l 6.77960308881518 9.331323119415735 a32.53414969561324,32.53414969561324 0 0,0 -0.4559005317663098,0.3252729245053879 l -6.617975229199986 -9.446640305765342" fill="#ff830c" stroke="none" /><path d="M 112.04921762599082 117.19931262002967 l 5.8334501736607205 8.326792353201169 a31.16683883131388,31.16683883131388 0 0,0 -0.4420394463797629,0.3040387619508711 l -5.689253842658074 -8.425971904517134" fill="#ff700a" stroke="none" /><path d="M 111.7513745106137 117.40417183066458 l 5.434071883325983 8.048039036809607 a30.710822291194773,30.710822291194773 0 0,0 -0.4406641799446519,0.29204818978402125 l -5.294733004641367 -8.140385247684947" fill="#ff6a09" stroke="none" /><path d="M 111.45004920935366 117.60387380957326 l 5.387225567325571 8.282587903066258 a30.880458576668687,30.880458576668687 0 0,0 -0.44808750902128064,0.28599064878410096 l -5.243856256257359 -8.374092980674167" fill="#ff6c0a" stroke="none" /><line stroke="#e1ed5e" stroke-width="0.3" x1="143.8653032363475" x2="146.44561519142675" y1="172.8068346515853" y2="177.08958963109032" /><path d="M 144.38136562736335 173.6633856474863 a86.0,86.0 0 0,1 -40.68145358897372,12.25698825130547" fill="none" id="id30" stroke="none" /><text fill="#e1ed5e" style="font-size:6.75px; font-family:Arial;" text-anchor="middle"><textPath startOffset="21.466115282336833" xlink:href="#id30">June</textPath></text><path d="M 110.8373102113329 117.98757091392108 l 1.8029313171630836 2.9924726973752835 a24.493630515515903,24.493630515515903 0 0,0 -0.3630097510280096,0.21447255947154517 l -1.751153695106692 -3.023063829140578" fill="#ff1101" stroke="none" /><path d="M 110.5260780823613 118.17145234162733 l 5.116700656323149 8.833098272238148 a31.208048329305377,31.208048329305377 0 0,0 -0.46715659401428544,0.26526370611948785 l -4.963895295387665 -8.919865144152265" fill="#ff710a" stroke="none" /><path d="M 110.21172684928248 118.3499491758327 l 5.952934411015929 10.697117686504034 a33.24196695391615,33.24196695391615 0 0,0 -0.5023924761804366,0.2739444350127608 l -5.767919122966842 -10.798002773276567" fill="#ff8d0d" stroke="none" /><path d="M 109.2508944713604 118.85261126421891 l 1.4025700943742354 2.8583299530567263 a24.18390530483779,24.18390530483779 0 0,0 -0.37529658938707644,0.18016516964197504 l -1.3531608369869264 -2.8820493991982614" fill="#ff0c01" stroke="none" /><path d="M 108.59647513512805 119.15986991738527 l 3.6493213753256346 8.133627066779294 a29.914787477099683,29.914787477099683 0 0,0 -0.47162703122261135,0.2067474306471581 l -3.508773669445269 -8.195239050720907" fill="#ff5f08" stroke="none" /><path d="M 107.93186726928326 119.44442032107085 l 3.170368303367866 7.771937145495813 a29.39370253062004,29.39370253062004 0 0,0 -0.4701297703395301,0.1870743379907946 l -3.0361174569864695 -7.825358327892677" fill="#ff5708" stroke="none" /><path d="M 107.59598834532513 119.57807347666477 l 0.8622702957403133 2.2224351117045775 a23.38384728719216,23.38384728719216 0 0,0 -0.37651310099970153,0.14236503785270618 l -0.823886973980337 -2.236948399663915" fill="#ff0000" stroke="none" /><path d="M 107.2578585660854 119.70592522655815 l 3.563965342344715 9.676578002562202 a31.31203233126744,31.31203233126744 0 0,0 -0.5073748628218873,0.18192657427496237 l -3.396870918893093 -9.736492117877123" fill="#ff720a" stroke="none" /><path d="M 106.91757812671514 119.82793768551818 l 1.0003874663053203 2.867422670178703 a24.036920784642817,24.036920784642817 0 0,0 -0.3918364529320712,0.1329321992426115 l -0.950881280436022 -2.8842178563194376" fill="#ff0a01" stroke="none" /><path d="M 106.57524785965236 119.94407469862006 l 2.7964733061399234 8.4822768207099 a29.93136512606587,29.93136512606587 0 0,0 -0.49070143453304255,0.15710710349691304 l -2.6500505265159404 -8.52915677086652" fill="#ff5f08" stroke="none" /><path d="M 105.88484417918355 120.15858648285463 l 2.954918330496937 10.122099226654308 a31.544592694558787,31.544592694558787 0 0,0 -0.5225419339653405,0.1476755700689053 l -2.780245228426991 -10.171463590061732" fill="#ff750a" stroke="none" /><path d="M 105.53697534728816 120.25689768951611 l 4.178077225510137 15.28539998602446 a36.846128297949726,36.846128297949726 0 0,0 -0.6132416183584363,0.16196268507479863 l -3.914345164340203 -15.355054020402843" fill="#ffbd11" stroke="none" /><path d="M 105.18746579009965 120.34920634021253 l 2.436093718259765 9.556221812888563 a30.861842015631353,30.861842015631353 0 0,0 -0.5159022983981592,0.1267962331057083 l -2.271238135118395 -9.5967393043083" fill="#ff6c09" stroke="none" /><path d="M 104.83641907484287 120.43548508189849 l 2.3785047288519303 10.0499764705063 a31.327599517937422,31.327599517937422 0 0,0 -0.5258260760934681,0.11967630297614758 l -2.2051585033656003 -10.089429507060132" fill="#ff720a" stroke="none" /><path d="M 104.48393922423573 120.51570834832081 l 0.7190219290025847 3.289795747394048 a24.367454319505843,24.367454319505843 0 0,0 -0.41054349530813106,0.08603338108145564 l -0.6622869722650756 -3.3016851092020443" fill="#ff0f01" stroke="none" /><path d="M 104.13013068566511 120.58985236759428 l 2.411292914129425 12.020967106263809 a33.26042347097388,33.26042347097388 0 0,0 -0.5623108326311966,0.10776820938483005 l -2.204014466926524 -12.060692513997108" fill="#ff8d0d" stroke="none" /><path d="M 103.7750983002368 120.6578951692458 l 1.4781256808420695 8.088521922698042 a29.222471795167902,29.222471795167902 0 0,0 -0.49560063742752664,0.0861665234612667 l -1.338676071942493 -8.112767024680315" fill="#ff5507" stroke="none" /><path d="M 103.41894727170886 120.7198165907248 l 0.6345636696133108 3.845640720558239 a24.89764333955902,24.89764333955902 0 0,0 -0.4234545372169882,0.06613488993088859 l -0.5682732687878054 -3.8559939178362335" fill="#ff1602" stroke="none" /><path d="M 103.06178313531738 120.77559828337769 l 1.1576441329199212 7.855144664960187 a28.939989776185886,28.939989776185886 0 0,0 -0.49345632905702874,0.06838855082299351 l -1.022259212676062 -7.873907781275783" fill="#ff5107" stroke="none" /><path d="M 102.70371172650421 120.8252237178851 l 1.1112738093342296 8.559538897711585 a29.631375071258915,29.631375071258915 0 0,0 -0.5063756157311322,0.06131503508868444 l -0.9637707705517171 -8.57739946152562" fill="#ff5b08" stroke="none" /><path d="M 101.62511606390274 120.93702456842531 l 0.21429154207321166 2.760804216295727 a23.76910830155131,23.76910830155131 0 0,0 -0.40819169507705105,0.028151289182442404 l -0.16673708621723024 -2.7640838499944547" fill="#ff0600" stroke="none" /><path d="M 101.26447882468166 120.96189622390904 l 0.3019169806284778 5.005028390066866 a26.014126349481746,26.014126349481746 0 0,0 -0.4472100000934382,0.023115648790182134 l -0.21571891212156005 -5.00948384561925" fill="#ff2703" stroke="none" /><path d="M 100.90346689309514 120.98055641714683 l 0.5785218615774662 13.434593617256807 a34.44704403224591,34.44704403224591 0 0,0 -0.5926198073246463,0.020411024405640906 l -0.3471817025781677 -13.442561440088543" fill="#ff9d0e" stroke="none" /><line stroke="#e1ed5e" stroke-width="0.3" x1="102.19456741930631" x2="102.32365962044197" y1="184.97166512339345" y2="189.96999836594603" /><path d="M 102.22038585953345 185.97133177190398 a86.0,86.0 0 0,1 -42.740103519485714,-10.115201625700543" fill="none" id="id31" stroke="none" /><text fill="#e1ed5e" style="font-size:6.75px; font-family:Arial;" text-anchor="middle"><textPath startOffset="22.20632615414155" xlink:href="#id31">July</textPath></text><path d="M 100.54218724476979 120.99299961872073 l 0.3914456288664826 15.156420621870321 a36.161474722051764,36.161474722051764 0 0,0 -0.6223911732131828,0.010715028479860035 l -0.13049476576063188 -15.160913127629343" fill="#ffb410" stroke="none" /><path d="M 99.81925306533755 120.99922214144158 l -0.07846256200380201 9.115799238208528 a30.116136907975843,30.116136907975843 0 0,0 -0.5183421839644599,-0.00892373077018181 l 0.23536443586092978 -9.113098030159186" fill="#ff6209" stroke="none" /><path d="M 99.09653310690486 120.98055641714683 l -0.15328959238052922 3.559733030264421 a24.56303198777217,24.56303198777217 0 0,0 -0.42226417254889953,-0.021826234447525943 l 0.21454183334291765 -3.556566989054693" fill="#ff1201" stroke="none" /><path d="M 98.73552117531835 120.96189622390904 l -0.818921306825784 13.575666997469797 a34.60034435347002,34.60034435347002 0 0,0 -0.5941986982730364,-0.04097942116082878 l 1.0524827658777505 -13.559559231792683" fill="#ff9f0e" stroke="none" /><path d="M 98.01472825383883 120.90594882070398 l -1.16328113925962 12.24995822787347 a33.305068045061844,33.305068045061844 0 0,0 -0.5702579446112817,-0.0591095676030151 l 1.3739716804764952 -12.228119291814695" fill="#ff8e0d" stroke="none" /><path d="M 96.93821686468263 120.77559828337769 l -0.40148418519264006 2.7242537371370457 a23.75367898914615,23.75367898914615 0 0,0 -0.40399820201328074,-0.06309621051181247 l 0.448318250814438 -2.716939219278127" fill="#ff0600" stroke="none" /><path d="M 96.58105272829116 120.7198165907248 l -1.4945222882275502 9.057240501795677 a30.17971690072068,30.17971690072068 0 0,0 -0.5118351054701918,-0.08898909382505897 l 1.6502063651697918 -9.030172829449612" fill="#ff6209" stroke="none" /><path d="M 96.22490169976321 120.6578951692458 l -2.0122386118261226 11.011266725426813 a32.193618678935586,32.193618678935586 0 0,0 -0.544275106435797,-0.10431161953408884 l 2.2014813328336147 -10.974997907544255" fill="#ff7e0b" stroke="none" /><path d="M 95.16358092515715 120.4354850818985 l -6.237711665402482 26.356414055715085 a48.08449018713466,48.08449018713466 0 0,0 -0.8038048730948071,-0.19755568133130252 l 6.690469823240499 -26.245137116069753" fill="#b6ff1f" stroke="none" /><path d="M 94.46302465271185 120.25689768951611 l -3.827930561087388 14.004396421323609 a35.518132507526175,35.518132507526175 0 0,0 -0.5883643460237462,-0.16627764119891372 l 4.068426075215748 -13.936429986786173" fill="#ffab0f" stroke="none" /><path d="M 94.11515582081647 120.15858648285463 l -0.7656950725764907 2.6228953341922367 a23.73237422003197,23.73237422003197 0 0,0 -0.3911604111191532,-0.11785342313242038 l 0.8107304581358897 -2.609326541954091" fill="#ff0500" stroke="none" /><path d="M 93.76903079525671 120.05430185196036 l -2.145670561423315 6.9058157246054295 a28.231472393666884,28.231472393666884 0 0,0 -0.4628330162758993,-0.1481845160266181 l 2.2642249227901545 -6.8678583619191045" fill="#ff4706" stroke="none" /><path d="M 93.42475214034765 119.94407469862007 l -4.185803234090741 12.696399307880249 a34.36860142646442,34.36860142646442 0 0,0 -0.5602577383283623,-0.19006984353135647 l 4.403730705356329 -12.62246647745077" fill="#ff9c0e" stroke="none" /><path d="M 92.7421414339146 119.70592522655815 l -3.143743771486844 8.535627847842072 a30.09615675203651,30.09615675203651 0 0,0 -0.48459080183476305,-0.18323077646728256 l 3.29020479408189 -8.480248821268155" fill="#ff6109" stroke="none" /><path d="M 92.06813273071674 119.44442032107085 l -1.296525230349122 3.1783413261855524 a24.43261289088513,24.43261289088513 0 0,0 -0.38804636753144794,-0.16220341309963807 l 1.351043057378032 -3.155552870065941" fill="#ff1001" stroke="none" /><path d="M 91.7346041902142 119.30500536409082 l -4.606316318002683 10.758705726162368 a32.703328540362214,32.703328540362214 0 0,0 -0.5155902833137758,-0.2260196284030362 l 4.790827275974203 -10.67782154446488" fill="#ff850c" stroke="none" /><path d="M 91.40352486487194 119.15986991738527 l -2.1291530256677325 4.745467690507472 a26.201226413872057,26.201226413872057 0 0,0 -0.409901972719096,-0.18816589125315616 l 2.210522994154248 -4.708114728920242" fill="#ff2a04" stroke="none" /><path d="M 91.07499286063937 119.00905698771935 l -2.760175710275149 5.87880060525058 a27.494525887844894,27.494525887844894 0 0,0 -0.42667227077085945,-0.20482861880120984 l 2.8609606490462505 -5.830417709949808" fill="#ff3c05" stroke="none" /><line stroke="#e1ed5e" stroke-width="0.3" x1="58.666819895761336" x2="56.23545636021788" y1="174.27360380694188" y2="178.64263932499728" /><path d="M 58.180547188652646 175.14741091055294 a86.0,86.0 0 0,1 -31.652253787137756,-30.449443065178592" fill="none" id="id32" stroke="none" /><text fill="#e1ed5e" style="font-size:6.75px; font-family:Arial;" text-anchor="middle"><textPath startOffset="22.20632615414155" xlink:href="#id32">August</textPath></text><path d="M 89.7882731507175 118.34994917583269 l -1.4513081919587074 2.607926353100908 a23.984556136386892,23.984556136386892 0 0,0 -0.3590273712533688,-0.20386511143647457 l 1.4959843301332834 -2.5825580758698004" fill="#ff0901" stroke="none" /><path d="M 89.4739219176387 118.17145234162733 l -6.733847779927814 11.624822944623428 a34.43432969734933,34.43432969734933 0 0,0 -0.5103366543531732,-0.3015158908026826 l 6.932952305309369 -11.507188481526995" fill="#ff9d0e" stroke="none" /><path d="M 89.1626897886671 117.98757091392108 l -3.1057038265644104 5.154790877864198 a27.0180782026199,27.0180782026199 0 0,0 -0.39629190782202056,-0.24343485714611854 l 3.19397493431874 -5.100567553889701" fill="#ff3505" stroke="none" /><path d="M 88.54995079064634 117.60387380957326 l -5.6972254704986165 8.759197136499084 a31.449014907528458,31.449014907528458 0 0,0 -0.45125637577821165,-0.2990681196077172 l 5.847156545016791 -8.659830995800048" fill="#ff740a" stroke="none" /><path d="M 87.65650970185807 116.9893568818739 l -7.086427977400856 9.753631348815645 a33.0561513746091,33.0561513746091 0 0,0 -0.45745782902764004,-0.33841636564253164 l 7.25327077684706 -9.630205034433345" fill="#ff8a0c" stroke="none" /><path d="M 87.36589467227662 116.77436683061367 l -1.6942264638981144 2.249433217657173 a23.81608826418353,23.81608826418353 0 0,0 -0.3253405486979847,-0.24945725950892073 l 1.7326957410895858 -2.2199366163208856" fill="#ff0601" stroke="none" /><path d="M 86.79598089348748 116.32954008644616 l -4.520662154699953 5.590747277549991 a28.189773392699458,28.189773392699458 0 0,0 -0.3746956106408834,-0.3083489784101447 l 4.616227893885525 -5.512103180282666" fill="#ff4606" stroke="none" /><path d="M 85.97065885151581 115.62618273729859 l -6.531555220396446 7.274987068348457 a30.776842559933414,30.776842559933414 0 0,0 -0.39115967358256376,-0.3573150875113246 l 6.655814443445866 -7.161479214250554" fill="#ff6b09" stroke="none" /><path d="M 85.70375840098266 115.38237550388516 l -2.226765072772648 2.395939958840612 a24.270934266488602,24.270934266488602 0 0,0 -0.3035764141744102,-0.2870504478862921 l 2.2676773213378727 -2.3572548742083916" fill="#ff0d01" stroke="none" /><path d="M 85.44109423537348 115.13401014063109 l -8.866240096759455 9.21647338769417 a33.788807417404485,33.788807417404485 0 0,0 -0.41568285740245553,-0.40683316561237326 l 9.023572906537705 -9.062490119159227" fill="#ff940d" stroke="none" /><path d="M 85.18274418774928 114.88116024355367 l -7.63980264739322 7.672751882368611 a31.827636212004332,31.827636212004332 0 0,0 -0.384901266588595,-0.3899029509363497 l 7.770744539037349 -7.540108437451596" fill="#ff790b" stroke="none" /><path d="M 84.9287848128048 114.62390073753433 l -7.926242160227661 7.69099088116734 a32.04430421152775,32.04430421152775 0 0,0 -0.38070685554265976,-0.3991696159905276 l 8.057455567149278 -7.553414148594313" fill="#ff7c0b" stroke="none" /><path d="M 84.67929136418377 114.36230785411682 l -7.824932688621828 7.335436948980352 a31.725586548712783,31.725586548712783 0 0,0 -0.3700617325499765,-0.4016289226031773 l 7.950040829167536 -7.199656771575833" fill="#ff780b" stroke="none" /><path d="M 84.19399662182784 113.82643327865904 l -4.214701340242925 3.6868451483959213 a26.599690574995734,26.599690574995734 0 0,0 -0.2984960155760591,-0.34721830199159676 l 4.277539865389765 -3.613749747242794" fill="#ff2f04" stroke="none" /><path d="M 83.95833913139862 113.55231037782056 l -3.94884303592754 3.336060205644474 a26.16939638817513,26.16939638817513 0 0,0 -0.2877437288762514,-0.3466058577856529 l 4.005682764697328 -3.26759309074506" fill="#ff2904" stroke="none" /><path d="M 83.50135304334701 112.99209946851258 l -6.391512769780054 5.033089675621293 a29.135319733674095,29.135319733674095 0 0,0 -0.30688257634574245,-0.3966870981144681 l 6.477202163343865 -4.922324583393572" fill="#ff5407" stroke="none" /><path d="M 83.06392112726016 112.41649034213515 l -8.947601712093496 6.559830706876479 a32.09463633027861,32.09463633027861 0 0,0 -0.32281122615765806,-0.44835655926527024 l 9.059192730626762 -6.404840542160068" fill="#ff7d0b" stroke="none" /><path d="M 82.85270091963577 112.12312394758628 l -5.815238035735536 4.111367694791652 a28.121821237158493,28.121821237158493 0 0,0 -0.27604793898935664,-0.39766764474233884 l 5.885146881887027 -4.010658787862303" fill="#ff4506" stroke="none" /><path d="M 82.6465618267979 111.8261652097733 l -2.050114842753827 1.397129294346713 a23.48091538219289,23.48091538219289 0 0,0 -0.22474243209210398,-0.3359594425240775 l 2.0738603802566615 -1.3616329376168121" fill="#ff0100" stroke="none" /><path d="M 82.44556493220864 111.52570212397912 l -4.090234098686603 2.6855219012602105 a25.893060684705112,25.893060684705112 0 0,0 -0.24141596925468023,-0.37468294542881136 l 4.135854931318328 -2.614717355909951" fill="#ff2503" stroke="none" /><path d="M 82.05923443525364 110.91462005526583 l -10.314335905263754 6.274930527466137 a33.073122143469746,33.073122143469746 0 0,0 -0.2917035581589944,-0.4889119422317924 l 10.420820339120981 -6.096456491348233" fill="#ff8a0c" stroke="none" /><line stroke="#e1ed5e" stroke-width="0.3" x1="26.63291911575756" x2="22.317208475507996" y1="142.92168965132927" y2="145.44649492493687" /><path d="M 25.769776987707644 143.4266507060508 a86.0,86.0 0 0,1 -11.730757126820373,-40.83630448921669" fill="none" id="id33" stroke="none" /><text fill="#e1ed5e" style="font-size:6.75px; font-family:Arial;" text-anchor="middle"><textPath startOffset="21.46611528233685" xlink:href="#id33">September</textPath></text><path d="M 81.69416730710424 110.29060199501025 l -12.648192684410681 7.110166418268585 a35.509694851286646,35.509694851286646 0 0,0 -0.29493945120201964,-0.5354007748864 l 12.768708545064218 -6.891395124984362" fill="#ffab0f" stroke="none" /><path d="M 81.51974371655577 109.97397251340807 l -8.683864986156593 4.686765667836846 a30.867891543942434,30.867891543942434 0 0,0 -0.24833585013025347,-0.4697578406378065 l 8.763253344511732 -4.5365928121129135" fill="#ff6c0a" stroke="none" /><path d="M 81.18737489456691 109.33194174019688 l -12.67206713168018 6.285937849606709 a35.14546924067658,35.14546924067658 0 0,0 -0.26417132687563644,-0.5442711783262096 l 12.778391715170535 -6.066877715315215" fill="#ffa60f" stroke="none" /><path d="M 81.02952815118164 109.00673069616217 l -3.2817301190014603 1.5580877289128396 a24.632821210154734,24.632821210154734 0 0,0 -0.17855907843008803,-0.38460036957705784 l 3.308063814271375 -1.5013672920569547" fill="#ff1302" stroke="none" /><path d="M 80.87730276802145 108.67885076344099 l -6.56820682952385 2.9809856928301848 a28.213017167334485,28.213017167334485 0 0,0 -0.196898532976301,-0.44395421216694336 l 6.618546447231431 -2.8674831441705457" fill="#ff4706" stroke="none" /><path d="M 80.73074385275274 108.34839909993369 l -12.812541964337857 5.551029732832801 a34.963350696831775,34.963350696831775 0 0,0 -0.23450255427990663,-0.5542947673830074 l 12.906195499810071 -5.329660439783636" fill="#ffa40f" stroke="none" /><path d="M 80.58989483394504 108.01547362559985 l -7.706554547617904 3.182449769963445 a29.337803639673375,29.337803639673375 0 0,0 -0.1887362178642841,-0.46842781459457755 l 7.760193379739575 -3.0493225875260626" fill="#ff5708" stroke="none" /><path d="M 80.45479744820244 107.68017299344265 l -3.5020623414924876 1.376114908259648 a24.76272944608489,24.76272944608489 0 0,0 -0.15247440810747773,-0.3980625658040414 l 3.5252310291934745 -1.3156287756224487" fill="#ff1402" stroke="none" /><path d="M 80.20201598880116 107.00284435728193 l -13.302096326634002 4.7051512996625 a35.10972060091076,35.10972060091076 0 0,0 -0.19662976503278706,-0.5714981375380644 l 13.381116922610019 -4.475480459035139" fill="#ffa60f" stroke="none" /><path d="M 80.0844068197444 106.66101706037122 l -11.927892501940178 3.9894315339031157 a33.577367908332064,33.577367908332064 0 0,0 -0.1786120088494764,-0.5497112391778365 l 11.994796761805905 -3.783521394747476" fill="#ff910d" stroke="none" /><path d="M 79.97269907076064 106.31721596034903 l -6.062289114742643 1.9122291958967899 a27.356726343674644,27.356726343674644 0 0,0 -0.1377909161446207,-0.45030868648967437 l 6.094306803393394 -1.8075935368550675" fill="#ff3a05" stroke="none" /><path d="M 79.76711848015287 105.62410040840567 l -12.106783941227466 3.365302586363937 a33.56580593902958,33.56580593902958 0 0,0 -0.1499463249656724,-0.5580060565993129 l 12.162918342534912 -3.1564055965890856" fill="#ff910d" stroke="none" /><path d="M 79.4281124754447 104.21870165774334 l -17.568654545887163 3.60282506739286 a38.93426806476796,38.93426806476796 0 0,0 -0.12898379232425125,-0.6576855782206161 l 17.62806827118708 -3.299875762104289" fill="#ffd814" stroke="none" /><path d="M 79.35854240842038 103.8639653848113 l -5.958212206970196 1.1153439925911321 a27.06170643673032,27.06170643673032 0 0,0 -0.08176959760871501,-0.458607328285458 l 5.976528246918099 -1.0126179135724604" fill="#ff3605" stroke="none" /><path d="M 79.29508885075956 103.50808413554451 l -12.727440817088029 2.156441671962747 a33.90883381398397,33.90883381398397 0 0,0 -0.09255213647010015,-0.5763222421472363 l 12.76267470791942 -1.9370402001222968" fill="#ff960d" stroke="none" /><path d="M 79.23777060512086 103.15116336523772 l -7.122031623992132 1.0809381166515701 a28.203593663247133,28.203593663247133 0 0,0 -0.06871731592963211,-0.4806087475627556 l 7.139582990938363 -0.958183897108414" fill="#ff4606" stroke="none" /><path d="M 79.18660465613746 102.79330883721812 l -12.883290685302619 1.7290311902097988 a33.998797165073526,33.998797165073526 0 0,0 -0.0728521218976594,-0.5807030913664504 l 12.911144316447126 -1.5070103445559397" fill="#ff970d" stroke="none" /><path d="M 79.10278846688536 102.07522291339032 l -20.642052135233754 2.049884000195594 a41.743585533074224,41.743585533074224 0 0,0 -0.06485244432661828,-0.7156413190772163 l 20.674279175837448 -1.6942612925698113" fill="#fffc17" stroke="none" /><path d="M 79.07016306316243 101.71520430193888 l -2.8765878073522986 0.23573694324352895 a23.886230988645522,23.886230988645522 0 0,0 -0.03005506777421953,-0.4100775209166786 l 2.8802194337908533 -0.18618628583008973" fill="#ff0701" stroke="none" /><path d="M 79.0235259727143 100.99374915477108 l -11.517506607167283 0.5456356698010709 a32.53042396142923,32.53042396142923 0 0,0 -0.021683645376485643,-0.5595585380547291 l 11.52519238539497 -0.3472998847323451" fill="#ff830c" stroke="none" /><path d="M 79.0095281055655 100.63252640178507 l -7.21884915552309 0.21753263596627043 a28.22212597355563,28.22212597355563 0 0,0 -0.010452853653244698,-0.4857030355665205 l 7.221524071861342 -0.0932397846096211" fill="#ff4706" stroke="none" /><line stroke="#e1ed5e" stroke-width="0.3" x1="15.007084014347285" x2="10.007500721073583" y1="101.09737516637583" y2="101.16192664675087" /><path d="M 14.007167355692545 101.11028546245083 a86.0,86.0 0 0,1 10.666146001902534,-42.60595125391555" fill="none" id="id34" stroke="none" /><text fill="#e1ed5e" style="font-size:6.75px; font-family:Arial;" text-anchor="middle"><textPath startOffset="22.20632615414155" xlink:href="#id34">October</textPath></text><path d="M 79.00175016825051 100.2711162175752 l -13.283177368922777 0.17150404602757563 a34.28428449906377,34.28428449906377 0 0,0 -0.0025398168725068258,-0.5901639949038193 l 13.284161483084786 0.057169427079919115" fill="#ff9b0e" stroke="none" /><path d="M 79.03285615573316 98.82574320788736 l -11.493180708120592 -0.6436711461384323 a32.51119087383606,32.51119087383606 0 0,0 0.03610198842478918,-0.5584817818131697 l 11.480398128691391 0.8414119922046138" fill="#ff830c" stroke="none" /><path d="M 79.05617556472873 98.46500227214037 l -2.7364560176818835 -0.2005581064008335 a23.743795745085716,23.743795745085716 0 0,0 0.03338322978371832,-0.40735995998169294 l 2.732598304078668 0.2476319835903048" fill="#ff0500" stroke="none" /><path d="M 79.08570108090925 98.10471618934814 l -12.136643091372505 -1.0998400307715408 a33.18637573771002,33.18637573771002 0 0,0 0.056452987120978605,-0.5684738761948147 l 12.115912978569298 1.3085894376707858" fill="#ff8c0c" stroke="none" /><path d="M 79.16333360222342 97.38593545837743 l -11.536967071021932 -1.4473705132335208 a32.627402573250066,32.627402573250066 0 0,0 0.07470743124155191,-0.5566571375270396 l 11.510343640722548 1.6457459928252198" fill="#ff840c" stroke="none" /><path d="M 79.21141760316559 97.0276538004421 l -13.715904629061423 -1.9610965394108544 a34.855393874964285,34.855393874964285 0 0,0 0.09003331902707883,-0.5932070813731178 l 13.680115416595042 2.1969027331760644" fill="#ffa30f" stroke="none" /><path d="M 79.26566170972629 96.67025291283419 l -7.101051897153702 -1.1403646713651001 a28.192035152150456,28.192035152150456 0 0,0 0.08106973918070487,-0.47847818973934153 l 7.080370296452775 1.2624286494202697" fill="#ff4606" stroke="none" /><path d="M 79.32604984820605 96.31383870115002 l -10.307949566717886 -1.8379054067727756 a31.47051672813926,31.47051672813926 0 0,0 0.09967803039784634,-0.5324840241470813 l 10.274785812410178 2.0150675083824297" fill="#ff740a" stroke="none" /><path d="M 79.3925641242962 95.95851677861259 l -7.414644208435533 -1.4541430744559392 a28.555890471590676,28.555890471590676 0 0,0 0.0987499462772006,-0.4815398083772284 l 7.3885149662433385 1.58155853899657" fill="#ff4c07" stroke="none" /><path d="M 79.46518482838121 95.60439243477599 l -8.693595378750402 -1.8609192873889058 a29.89053548463794,29.89053548463794 0 0,0 0.11202632943598936,-0.5021920687058026 l 8.660274662312375 2.0102895256446676" fill="#ff5e08" stroke="none" /><path d="M 79.54389044137918 95.25157060432595 l -24.603044622144854 -5.711047839868405 a46.25719446234115,46.25719446234115 0 0,0 0.18671870677921928,-0.7740695845747546 l 24.50109311510482 6.133702656102556" fill="#ccff1d" stroke="none" /><path d="M 79.71946130924805 94.55025226153421 l -3.2606364698448966 -0.8761920232227046 a24.376309027627904,24.376309027627904 0 0,0 0.11237853326843007,-0.4042853761280755 l 3.2450711660101055 0.9321887027697227" fill="#ff0f01" stroke="none" /><path d="M 79.81627453868168 94.20196356495316 l -3.232171246534647 -0.9284830338994627 a24.362887406852106,24.362887406852106 0 0,0 0.11925529308361212,-0.4020695632960834 l 3.215710056339328 0.9839819839420854" fill="#ff0f01" stroke="none" /><path d="M 80.14247586403 93.16781622104843 l -59.572572407909995 -20.496551336854708 a84.0,84.0 0 0,0 0.4821876767607618,-1.3632094942935558 l 59.210931650339425 21.518958457574875" fill="#4dd2ff" stroke="none" /><path d="M 80.65960295795067 91.81776055985345 l -5.309805153007186 -2.2463911701486534 a26.765440490736463,26.765440490736463 0 0,0 0.1831639263653224,-0.4227675955377979 l 5.270350516799186 2.337457910273051" fill="#ff3204" stroke="none" /><path d="M 80.803312248108 91.48605970444005 l -6.055214225894851 -2.6855535216492172 a27.624033290912863,27.624033290912863 0 0,0 0.19652221760902963,-0.4330106564944025 l 6.008089691322469 2.7893861869856904" fill="#ff3e05" stroke="none" /><path d="M 80.95270993114464 91.15688171328213 l -3.239246463421707 -1.503890555156128 a24.571330907753836,24.571330907753836 0 0,0 0.18140873922143572,-0.3820930697968201 l 3.2128795303585194 1.5594260405934803" fill="#ff1202" stroke="none" /><path d="M 81.10775173730289 90.83032412892265 l -9.762613581665248 -4.738451504218568 a31.85179923343341,31.85179923343341 0 0,0 0.24365107696520188,-0.49118570337159706 l 9.679602491746634 4.905796796089127" fill="#ff7a0b" stroke="none" /><path d="M 81.26839172434947 90.50648371742162 l -11.719213451386054 -5.939508347735895 a34.13840642284947,34.13840642284947 0 0,0 0.2701657673535123,-0.521874270490364 l 11.615238250872428 6.140355340486595" fill="#ff990e" stroke="none" /><path d="M 81.6062741919709 89.86733742301443 l -11.15007124141754 -6.142306935407143 a33.729965560732566,33.729965560732566 0 0,0 0.2845240789787261,-0.5061365884532687 l 11.042689521146384 6.333327033795197" fill="#ff930d" stroke="none" /><line stroke="#e1ed5e" stroke-width="0.3" x1="26.266209847984243" x2="21.928928074336255" y1="57.711370442889674" y2="55.22380399835377" /><path d="M 25.398753493254645 57.213857153982495 a86.0,86.0 0 0,1 29.58750427330803,-30.492523968695096" fill="none" id="id35" stroke="none" /><text fill="#e1ed5e" style="font-size:6.75px; font-family:Arial;" text-anchor="middle"><textPath startOffset="21.46611528233685" xlink:href="#id35">November</textPath></text><path d="M 81.78341655067845 89.55222093294921 l -4.462004041690478 -2.559098557287702 a26.143779300667376,26.143779300667376 0 0,0 0.22725209448189826,-0.38844749431830444 l 4.4172922727382575 2.635525463959898" fill="#ff2904" stroke="none" /><path d="M 81.96595687620814 89.24020034530311 l -6.177264526340254 -3.685592202549418 a28.193204217306413,28.193204217306413 0 0,0 0.2522408413391529,-0.4146176208980209 l 6.112907886714882 3.7913775966545136" fill="#ff4606" stroke="none" /><path d="M 82.15384107792192 88.93136811851018 l -11.780884192021402 -7.306797553989472 a34.86284685195672,34.86284685195672 0 0,0 0.32069237752863583,-0.5072583268092586 l 11.653364218246804 7.508503528512946" fill="#ffa30f" stroke="none" /><path d="M 82.95767976084542 87.72973835380427 l -9.294077286666024 -6.6916217080200955 a32.45240907817072,32.45240907817072 0 0,0 0.33029967304795504,-0.4505283828391725 l 9.177515001104435 6.850612534530771" fill="#ff820c" stroke="none" /><path d="M 83.17141714833178 87.43820079747577 l -5.824001660184351 -4.347361869698448 a28.267637206406086,28.267637206406086 0 0,0 0.29441963666938903,-0.3874217303750317 l 5.748306083290853 4.446968375954504" fill="#ff4706" stroke="none" /><path d="M 83.39014120810768 87.1503855733568 l -11.110956879777225 -8.595588536001658 a35.047686822552386,35.047686822552386 0 0,0 0.373251054404014,-0.4739909348550676 l 10.96135174477924 8.785571864809773" fill="#ffa50f" stroke="none" /><path d="M 83.6137871275137 86.86637796730984 l -8.53445506673138 -6.840403452199274 a31.93746052221066,31.93746052221066 0 0,0 0.34751228040837234,-0.4260089654661015 l 8.415444294246617 6.986296587273458" fill="#ff7b0b" stroke="none" /><path d="M 84.07557802195018 86.31012108654704 l -7.272821047724934 -6.252285931621587 a30.590881365285675,30.590881365285675 0 0,0 0.3467085078696627,-0.39634775912073833 l 7.164120676277427 6.376549246945268" fill="#ff6809" stroke="none" /><path d="M 84.5562425177563 85.77008943001954 l -9.743184248582716 -8.977390423514457 a34.24851607230181,34.24851607230181 0 0,0 0.4032072546234752,-0.43011338641950614 l 9.587209671988782 9.143773226812012" fill="#ff9a0e" stroke="none" /><path d="M 84.80347519578584 85.50635884689758 l -2.6051015228598065 -2.484607969662914 a24.599976487050846,24.599976487050846 0 0,0 0.29489015208827785,-0.30391022330314665 l 2.561947107068415 2.5290823885161844" fill="#ff1202" stroke="none" /><path d="M 85.05521093208273 85.24692304244772 l -5.167226219120227 -5.100940918023042 a28.260841896689755,28.260841896689755 0 0,0 0.3447340929077874,-0.34325369515670745 l 5.078656326045124 5.189130463829861" fill="#ff4706" stroke="none" /><path d="M 85.31137513191541 84.99185889309783 l -9.648557207454463 -9.858438713492555 a34.79432745925695,34.79432745925695 0 0,0 0.43164311097012686,-0.4152403307628767 l 9.477430852871908 10.023062131017742" fill="#ffa20e" stroke="none" /><path d="M 85.57189188830299 84.74124197986013 l -7.8841960662883395 -8.338102197979891 a32.47538652401886,32.47538652401886 0 0,0 0.4094869677273793,-0.38057350900067427 l 7.739501214766104 8.472580293055216" fill="#ff820c" stroke="none" /><path d="M 85.83668400450813 84.49514656593479 l -7.839279970215874 -8.581810008721698 a32.62332884664388,32.62332884664388 0 0,0 0.4178722384662188,-0.37516982160525136 l 7.690396744153684 8.715478839096228" fill="#ff840c" stroke="none" /><path d="M 86.37877921826538 84.01681056812374 l -9.395714459892968 -11.02496512365936 a35.48548605293406,35.48548605293406 0 0,0 0.46831119080539435,-0.39219715439066705 l 9.204545732128464 11.18506343544384" fill="#ffab0f" stroke="none" /><path d="M 86.65592168130627 83.78471172551755 l -2.221259155334008 -2.699201599080559 a24.495666103567988,24.495666103567988 0 0,0 0.3278880234100822,-0.2651293118473603 l 2.1744677333594256 2.737037008192056" fill="#ff1101" stroke="none" /><path d="M 86.93701828274178 83.55741782278169 l -3.0735146323817966 -3.868681592737286 a25.94097049793351,25.94097049793351 0 0,0 0.35201581330861115,-0.27475392586968167 l 3.00646626391376 3.921013907830187" fill="#ff2603" stroke="none" /><path d="M 87.51073957382395 83.11751280151077 l -7.07322513825299 -9.561305375481739 a32.89323649557302,32.89323649557302 0 0,0 0.458084813019669,-0.3328180980921744 l 6.9075950088795395 9.68164270839058" fill="#ff880c" stroke="none" /><path d="M 87.80319425747018 82.90503203632743 l -6.258579946506391 -8.771987186000613 a31.77578684543133,31.77578684543133 0 0,0 0.44799147619806534,-0.31384665832593256 l 6.106657330724666 8.87841868709049" fill="#ff790b" stroke="none" /><path d="M 88.39885842347998 82.49532879139004 l -8.278829890803808 -12.49171853258288 a35.98606206640494,35.98606206640494 0 0,0 0.519283972299711,-0.3377567404071505 l 8.06257889271981 12.632374197149565" fill="#ffb210" stroke="none" /><path d="M 88.70189139769569 82.29822771554957 l -2.8128375650743047 -4.407127936435125 a26.22827235476501,26.22827235476501 0 0,0 0.38265906266021854,-0.23962106993262006 l 2.7365593500418437 4.454893347690676" fill="#ff2a04" stroke="none" /><path d="M 89.00827224532344 82.1063720568725 l -7.427933893816666 -12.092064909954898 a35.1912732239737,35.1912732239737 0 0,0 0.5188834822972127,-0.31262149225716196 l 7.218688345301807 12.218133011670679" fill="#ffa70f" stroke="none" /><line stroke="#e1ed5e" stroke-width="0.3" x1="56.76296977257108" x2="54.21961505331056" y1="26.818313649435495" y2="22.513508569990535" /><path d="M 56.25429882871898 25.957352633546506 a86.0,86.0 0 0,1 42.26535254187918,-11.944610805530505" fill="none" id="id36" stroke="none" /><text fill="#e1ed5e" style="font-size:6.75px; font-family:Arial;" text-anchor="middle"><textPath startOffset="22.20632615414155" xlink:href="#id36">December</textPath></text><path d="M 89.3179101791058 81.91981866633112 l -6.988142755182598 -11.827918536327122 a34.738041929940444,34.738041929940444 0 0,0 0.5174368106400955,-0.29973279895787763 l 6.78350921207718 11.946455492675046" fill="#ffa10e" stroke="none" /><path d="M 89.63071344664047 81.73862282372117 l -2.2000801033996784 -3.8745667196545313 a25.45562787117928,25.45562787117928 0 0,0 0.38289617343103716,-0.21308130596148261 l 2.1330598408965957 3.9118634231761984" fill="#ff1f03" stroke="none" /><path d="M 90.58718382345135 81.22770947309562 l -5.355532334121393 -10.68071520963455 a32.948196682811115,32.948196682811115 0 0,0 0.5091731677982846,-0.24984906212382824 l 5.170887899312683 10.771319431893208" fill="#ff890c" stroke="none" /><path d="M 90.91171255644093 81.06846463323043 l -2.4215352009062805 -5.044226382862067 a26.595359910746577,26.595359910746577 0 0,0 0.4144086305297705,-0.19457040864679984 l 2.3343483590769014 5.085161774148873" fill="#ff2f04" stroke="none" /><path d="M 91.23893434514133 80.91482961587045 l -3.0751527465052098 -6.698935544642099 a28.371044827268918,28.371044827268918 0 0,0 0.4455846619911435,-0.19992084935428553 l 2.9593859660472916 6.7508767245129135" fill="#ff4906" stroke="none" /><path d="M 91.56875222667455 80.76684994638697 l -5.780537171965848 -13.18641579608759 a35.397783563583225,35.397783563583225 0 0,0 0.560155162685808,-0.23982920735703575 l 5.552698251489732 13.283964531407413" fill="#ffaa0f" stroke="none" /><path d="M 91.90106846888425 80.62456947434976 l -4.062028672625524 -9.717770058590979 a31.532574796737936,31.532574796737936 0 0,0 0.5025934008513848,-0.20502046757603207 l 3.894151402185759 9.786251412350587" fill="#ff750a" stroke="none" /><path d="M 92.23578459929587 80.48803036053334 l -7.470345730043071 -18.773456371097165 a41.2051659098326,41.2051659098326 0 0,0 0.6612778381235699,-0.25656552762433027 l 7.146084726919824 18.899264602612046" fill="#fff517" stroke="none" /><path d="M 93.25333710446033 80.11325718540243 l -2.323049922241452 -6.847518108490177 a28.230841250319834,28.230841250319834 0 0,0 0.4615301306563037,-0.15215922772154739 l 2.2048369693427388 6.886491060470958" fill="#ff4706" stroke="none" /><path d="M 93.59665428221793 80.00007090966166 l -0.8559782055382524 -2.6735247741035257 a23.80721096572769,23.80721096572769 0 0,0 0.3913617838252732,-0.12159801128605802 l 0.8098310490022506 2.687862920272109" fill="#ff0601" stroke="none" /><path d="M 93.94186890950719 79.89281104454417 l -4.093960628180599 -13.588025530878308 a35.191368906941065,35.191368906941065 0 0,0 0.5815118696386847,-0.1697592608529368 l 3.8594585408184927 13.656483120649945" fill="#ffa70f" stroke="none" /><path d="M 94.28887869178378 79.79150937346287 l -1.9558853733230246 -6.92079350100944 a28.191861391683897,28.191861391683897 0 0,0 0.4681219797139247,-0.12795542046604697 l 1.8364655043853775 6.953435462301782" fill="#ff4606" stroke="none" /><path d="M 94.63758080256005 79.69619591428918 l -6.878690507722533 -26.044883716236363 a47.93793516387821,47.93793516387821 0 0,0 0.7996301229857782,-0.20384352285645813 l 6.429351496051755 26.159430235261684" fill="#b8ff1f" stroke="none" /><path d="M 95.33964822691252 79.52364482259891 l -3.0915906330311884 -13.583632941754018 a34.93100917157659,34.93100917157659 0 0,0 0.587435240076303,-0.12839059075881626 l 2.8573126688013644 13.634837030608702" fill="#ffa40f" stroke="none" /><path d="M 95.692805502759 79.44645832069477 l -1.1325493194331209 -5.404422682966416 a26.521816050640435,26.521816050640435 0 0,0 0.4476296423943153,-0.08979029518326057 l 1.0393532675716692 5.423116934226887" fill="#ff2e04" stroke="none" /><path d="M 96.40284397218896 79.31037775812273 l -1.2306183998330142 -7.078099926608485 a28.184282860318252,28.184282860318252 0 0,0 0.4786909781998052,-0.07898811298554037 l 1.1085982154943232 7.098234302533652" fill="#ff4606" stroke="none" /><path d="M 96.75951476605007 79.25152402106235 l -3.083226337709606 -19.74156429888065 a40.980882002964364,40.980882002964364 0 0,0 0.6979064101739706,-0.10285326311927147 l 2.742950947106986 19.79171204616089" fill="#fff216" stroke="none" /><path d="M 97.47563105711357 79.15227682838746 l -0.3369888057461609 -2.7830517222633877 a23.803379807302505,23.803379807302505 0 0,0 0.40718888551369015,-0.045752415718998796 l 0.2890332167227528 2.7884400914529848" fill="#ff0601" stroke="none" /><path d="M 97.83486435360386 79.11191278185805 l -0.6020371688919572 -5.808137200692317 a26.839255645610443,26.839255645610443 0 0,0 0.45994160545031976,-0.04367699749079063 l 0.5019704363514012 5.817639742698288" fill="#ff3304" stroke="none" /><path d="M 98.55514903715128 79.0497635885617 l -0.24479306230546488 -3.549482028975482 a24.557913196998037,24.557913196998037 0 0,0 0.42197271822757887,-0.025454546720994016 l 0.18365829523826305 3.553169845076782" fill="#ff1101" stroke="none" /></svg>