<?xml version="1.0" encoding="utf-8" ?>
<svg baseProfile="full" height="200mm" version="1.1" viewBox="0,0,200,200" width="200mm" xmlns="http://www.w3.org/2000/svg" xmlns:ev="http://www.w3.org/2001/xml-events" xmlns:xlink="http://www.w3.org/1999/xlink"><defs /><rect fill="#1a1a1a" height="200" width="200" x="0" y="0" /><text alignment-baseline="middle" fill="#e1ed5e" style="dominant-baseline: central; font-size:9.0px; font-family:Arial;" text-anchor="middle" x="100.0" y="100.0">2025</text><line stroke="#e1ed5e" stroke-width="0.3" x1="100.0" x2="100.0" y1="15.0" y2="10.0" /><path d="M 100.0 14.0 a86.0,86.0 0 0,1 42.46469731375804,11.215312516191453" fill="none" id="id121" stroke="none" /><text fill="#e1ed5e" style="font-size:6.75px; font-family:Arial;" text-anchor="middle"><textPath startOffset="22.20632615414155" xlink:href="#id121">January</textPath></text><path d="M 100.36148047927253 79.00311137660856 l 0.10112297341716428 -5.8738104319751985 a26.874680829333062,26.874680829333062 0 0,0 0.46246637330286045,0.011944142013709906 l -0.20221598191489254 5.871199497819129" fill="#ff4306" stroke="none" /><path d="M 101.44485096284872 79.0497635885617 l 3.3051172566346896 -47.923965636912 a69.03780055797753,69.03780055797753 0 0,0 1.1848524107591019,0.0919673509378333 l -4.129559856756132 47.8599730237857" fill="#3aff96" stroke="none" /><path d="M 102.88285421437855 79.19881850522331 l 1.879281443879576 -13.55992065049037 a34.689526901719624,34.689526901719624 0 0,0 0.5907643273480744,0.08706330521747987 l -2.1124147516563063 13.525562861111922" fill="#ffad10" stroke="none" /><path d="M 103.59715602781102 79.31037775812273 l 2.0621639730468635 -11.860868217359892 a33.038800402087844,33.038800402087844 0 0,0 0.5594646959947561,0.10223859718470023 l -2.2660237901445206 11.823614138824453" fill="#ff980e" stroke="none" /><path d="M 103.95276090670814 79.375362276772 l 3.935741186738268 -20.535832564804835 a41.90957861408705,41.90957861408705 0 0,0 0.7073410679005072,0.14188596390156302 l -4.288648664105901 20.465042644826063" fill="#f6ff19" stroke="none" /><path d="M 106.0581310904928 79.89281104454417 l 18.174393271478365 -60.321566866367476 a84.0,84.0 0 0,0 1.380858509157127,0.4290394604699177 l -19.21003715334621 59.99978727101504" fill="#4dd2ff" stroke="none" /><path d="M 108.09893153111575 80.62456947434976 l 5.2404108413226025 -12.536865608977735 a34.58804272452144,34.58804272452144 0 0,0 0.5473413516000473,0.23434300217562234 l -5.455435950712966 12.444803078839321" fill="#ffac0f" stroke="none" /><path d="M 108.76106565485865 80.91482961587045 l 6.786506851063232 -14.783776844974916 a37.26704438555279,37.26704438555279 0 0,0 0.5806947106389457,0.27264395291096116 l -7.039979773001775 14.664767909423952" fill="#ffce13" stroke="none" /><path d="M 109.73455568895987 81.39251694778311 l 5.245217996088086 -10.026169461240267 a32.3153164291589,32.3153164291589 0 0,0 0.4906618436401125,0.26209456417681576 l -5.41702488625651 9.934396170561698" fill="#ff8e0d" stroke="none" /><path d="M 110.05341064243156 81.56283822128135 l 5.413566187445484 -9.928053189876755 a32.30809174913588,32.30809174913588 0 0,0 0.4859689481715507,0.2704411935100516 l -5.58365922468907 9.833396598806523" fill="#ff8e0d" stroke="none" /><path d="M 110.36928655335952 81.73862282372117 l 9.618912495651717 -16.93989149637374 a40.480333711410594,40.480333711410594 0 0,0 0.6029705074201503,0.3492794369510013 l -9.909079735537196 16.771807902032688" fill="#fff617" stroke="none" /><line stroke="#e1ed5e" stroke-width="0.3" x1="143.23703022742887" x2="145.7803849466894" y1="26.81831364943548" y2="22.513508569990506" /><path d="M 143.74570117128098 25.957352633546492 a86.0,86.0 0 0,1 28.547481713284135,27.462654790039103" fill="none" id="id122" stroke="none" /><text fill="#e1ed5e" style="font-size:6.75px; font-family:Arial;" text-anchor="middle"><textPath startOffset="19.985693538727396" xlink:href="#id122">February</textPath></text><path d="M 110.68208982089419 81.91981866633111 l 5.754279725427906 -9.739519384764161 a32.31238140289955,32.31238140289955 0 0,0 0.4764351911038786,0.2870468717703485 l -5.921076982749422 9.639025903535197" fill="#ff8e0d" stroke="none" /><path d="M 110.99172775467656 82.1063720568725 l 6.01201048781824 -9.787058164120769 a32.486112380327796,32.486112380327796 0 0,0 0.4739582212959402,0.296792594694507 l -6.179587861486443 9.682121228103316" fill="#ff900d" stroke="none" /><path d="M 111.2981086023043 82.29822771554956 l 7.476845814521831 -11.714653016135625 a34.89734933800644,34.89734933800644 0 0,0 0.5035736934352892,0.32753833802389776 l -7.677386533741401 11.584215753952199" fill="#ffb010" stroke="none" /><path d="M 111.60114157652 82.49532879139004 l 9.356296453824138 -14.117480773267452 a37.93645614393455,37.93645614393455 0 0,0 0.5412182938845188,0.3654330079772327 l -9.597919442115199 13.95433585299155" fill="#ffd714" stroke="none" /><path d="M 111.90073688211348 82.69761687909136 l 8.409822503602323 -12.22697152097065 a35.83994430975815,35.83994430975815 0 0,0 0.5052900699607386,0.3539879849685847 l -8.619043713146711 12.080398693238129" fill="#ffbc11" stroke="none" /><path d="M 112.19680574252982 82.90503203632743 l 6.576921740429682 -9.218173087743772 a32.32389573668621,32.32389573668621 0 0,0 0.4501559381850326,0.3270574333255766 l -6.734622994968503 9.103596419601521" fill="#ff8e0d" stroke="none" /><path d="M 112.48926042617603 83.11751280151076 l 8.07781482713717 -10.919269897286052 a34.582398443253474,34.582398443253474 0 0,0 0.47551431251188336,0.358147521738402 l -8.264575293407434 10.778605786041801" fill="#ffac0f" stroke="none" /><path d="M 114.16331599549186 84.49514656593476 l 3.809794883670893 -4.1706554668391735 a26.64879669298873,26.64879669298873 0 0,0 0.3360186319360654,0.31229269775113394 l -3.881021399401805 4.104458183013399" fill="#ff4006" stroke="none" /><path d="M 114.68862486808459 84.99185889309783 l 12.014369587149051 -12.275713737246534 a38.176676754699535,38.176676754699535 0 0,0 0.46569037395897067,0.46369055149727734 l -12.223895761275346 12.067087335099139" fill="#ffda14" stroke="none" /><path d="M 116.38621287248628 86.86637796730983 l 17.709589669632074 -14.1943143839856 a43.69599363540093,43.69599363540093 0 0,0 0.46535384147378744,0.5909521212492138 l -17.951297591699824 13.887369868783347" fill="#e1ff1b" stroke="none" /><path d="M 117.04232023915458 87.72973835380427 l 4.036934476122464 -2.906543333035502 a25.974417967091153,25.974417967091153 0 0,0 0.25812063036529553,0.36509332634243075 l -4.086367726291642 2.836623506361278" fill="#ff3705" stroke="none" /><path d="M 117.2510076193507 88.02491185347247 l 4.639704907401393 -3.22073217205496 a26.648006493611213,26.648006493611213 0 0,0 0.2583277219428555,0.3790640559845041 l -4.694457095012982 3.1403900928000494" fill="#ff4006" stroke="none" /><path d="M 117.45458315368197 88.32363383020206 l 14.362225770805907 -9.607711948014234 a38.27951555940203,38.27951555940203 0 0,0 0.36165641351685845,0.550827529606517 l -14.525478819680691 9.359066354430043" fill="#ffdb14" stroke="none" /><line stroke="#e1ed5e" stroke-width="0.3" x1="172.23445277983987" x2="176.4835382374775" y1="55.19839476539836" y2="52.563006222186495" /><path d="M 173.08426987136738 54.67131705675599 a86.0,86.0 0 0,1 12.851231095245387,41.99856678651699" fill="none" id="id123" stroke="none" /><text fill="#e1ed5e" style="font-size:6.75px; font-family:Arial;" text-anchor="middle"><textPath startOffset="22.20632615414155" xlink:href="#id123">March</textPath></text><path d="M 117.84615892207809 88.93136811851018 l 20.815642192288667 -12.9103793039865 a45.494261647377556,45.494261647377556 0 0,0 0.4070310967702472,0.6690521014694896 l -21.03478908734514 12.550159429309929" fill="#ccff1d" stroke="none" /><path d="M 118.03404312379186 89.2402003453031 l 11.6430378129043 -6.9466815277621325 a34.55790226255046,34.55790226255046 0 0,0 0.30039098707755113,0.5134655700846498 l -11.760888474452178 6.745236545323587" fill="#ffab0f" stroke="none" /><path d="M 118.21658344932153 89.55222093294921 l 4.901651361557817 -2.811250014676716 a26.650602862994482,26.650602862994482 0 0,0 0.22480717391092767,0.39990687772897876 l -4.949316176761178 2.7264596270129435" fill="#ff4006" stroke="none" /><path d="M 118.56541770881063 90.18545643968196 l 6.118846473198251 -3.2347069261793586 a27.921243462040863,27.921243462040863 0 0,0 0.22096415608718886,0.4268324180821487 l -6.173620062445556 3.1289017858368653" fill="#ff5207" stroke="none" /><path d="M 118.73160827565052 90.50648371742162 l 6.285891499841609 -3.185802971431987 a28.04711093431669,28.04711093431669 0 0,0 0.2145470255801409,0.4325137117326057 l -6.339798538375159 3.0771296712004315" fill="#ff5407" stroke="none" /><path d="M 119.04729006885535 91.15688171328212 l 9.575709750144112 -4.445731318927244 a31.557402340495297,31.557402340495297 0 0,0 0.22450489487264041,0.4946667766003347 l -9.6508169619801 4.280242533484847" fill="#ff840c" stroke="none" /><path d="M 119.47837535516314 92.15188598940014 l 5.667533025626487 -2.2835295312330266 a27.11027312945831,27.11027312945831 0 0,0 0.1706739510563432,0.43434658914063456 l -5.706000526564531 2.1856339371966076" fill="#ff4706" stroke="none" /><path d="M 119.61058180528143 92.48833698450437 l 14.50250536581921 -5.5550587060661565 a36.5300141375807,36.5300141375807 0 0,0 0.21986791280766474,0.5891366948757113 l -14.595977867128502 5.304598874161112" fill="#ffc512" stroke="none" /><path d="M 119.7369772167798 92.82701384747503 l 5.3686818782205545 -1.9511336688907017 a26.71223841444076,26.71223841444076 0 0,0 0.15333704978736626,0.4335044883380751 l -5.40147200881773 1.8584315541260121" fill="#ff4106" stroke="none" /><path d="M 119.97218684219823 93.5106431181261 l 12.117577283677434 -3.9372395300912384 a33.741174763074575,33.741174763074575 0 0,0 0.1747222727001407,0.5539173516260508 l -12.18355504014578 3.7280720120387683" fill="#ffa10e" stroke="none" /><path d="M 120.08093135843002 93.85539295169968 l 5.394775580690414 -1.650758894865343 a26.64168489859108,26.64168489859108 0 0,0 0.13040990945635136,0.43967738444811544 l -5.422391387258468 1.5576521236706977" fill="#ff4006" stroke="none" /><path d="M 120.18372546131832 94.20196356495316 l 1.2428415739449292 -0.35702233180558723 a22.293104838492923,22.293104838492923 0 0,0 0.10277464159605411,0.3697350679496837 l -1.2488029861073464 0.3355759604369517" fill="#ff0200" stroke="none" /><path d="M 120.28053869075195 94.5502522615342 l 1.1374954480178134 -0.30566561075505494 a22.177848615000887,22.177848615000887 0 0,0 0.09589666692700989,0.36952897638215654 l -1.142588446815126 0.28604020882404796" fill="#ff0000" stroke="none" /><path d="M 120.37134235888165 94.90015583598534 l 9.59833428711833 -2.4028857910328387 a30.894537948384393,30.894537948384393 0 0,0 0.12470683186287589,0.5169903283867232 l -9.638273919242025 2.2373102309867092" fill="#ff7b0b" stroke="none" /><path d="M 120.45610955862082 95.25157060432595 l 5.504254820841507 -1.2776899399010937 a26.650602862994482,26.650602862994482 0 0,0 0.09988343024272538,0.4477578326056517 l -5.52543263808627 1.182753937745478" fill="#ff4006" stroke="none" /><path d="M 120.53481517161879 95.60439243477599 l 2.312455816191252 -0.4949958494851771 a23.364840965655894,23.364840965655894 0 0,0 0.08079862865524069,0.3940028083718633 l -2.3206337407614894 0.455117384949902" fill="#ff1101" stroke="none" /><path d="M 120.6074358757038 95.95851677861258 l 9.31898006785814 -1.8276170704525505 a30.49650323336684,30.49650323336684 0 0,0 0.09659299218323956,0.5160036266451941 l -9.34905878395124 1.6669353663447937" fill="#ff750a" stroke="none" /><path d="M 120.67395015179393 96.31383870115 l 12.96821418791149 -2.3122300723226195 a34.172736508823895,34.172736508823895 0 0,0 0.09826799735846609,0.5799832830420503 l -13.00609404679018 2.088661000964731" fill="#ffa60f" stroke="none" /><path d="M 120.83666639777658 97.38593545837742 l 6.723593689831868 -0.8435086266362775 a27.776298319079284,27.776298319079284 0 0,0 0.05543308844855331,0.474916849410585 l -6.737117131284011 0.7276480389008397" fill="#ff5007" stroke="none" /><path d="M 120.87857604477298 97.74499172005257 l 15.97040641751051 -1.7248972644677951 a37.06328583177892,37.06328583177892 0 0,0 0.06304795721772728,0.6348843250565003 l -15.997731500410467 1.4497374087068597" fill="#ffcc13" stroke="none" /><path d="M 120.96714384426684 98.82574320788733 l 57.27589958049717 -3.2077146322984875 a78.36565266705729,78.36565266705729 0 0,0 0.06383588359811543,1.347474609538766 l -57.32262907232877 2.221328916136722" fill="#46fff7" stroke="none" /><line stroke="#e1ed5e" stroke-width="0.3" x1="184.98032266829074" x2="189.97916517819016" y1="98.17113171792111" y2="98.06355123074" /><path d="M 185.9800911702706 98.14961562048488 a86.0,86.0 0 0,1 -9.607161424134198,41.387399972396054" fill="none" id="id124" stroke="none" /><text fill="#e1ed5e" style="font-size:6.75px; font-family:Arial;" text-anchor="middle"><textPath startOffset="21.466115282336823" xlink:href="#id124">April</textPath></text><path d="M 120.9904718944345 100.63252640178507 l 22.56744556626318 0.6800468904795651 a43.57768950002419,43.57768950002419 0 0,0 -0.029047367060612197,0.7495834747603607 l -22.552396066351367 -1.068407612253932" fill="#e2ff1b" stroke="none" /><path d="M 120.9764740272857 100.99374915477107 l 5.6472043188670735 0.2675332618529608 a26.653537889253826,26.653537889253826 0 0,0 -0.0256554886904438,0.4580959849503403 l -5.6417624792891 -0.36470096313872447" fill="#ff4006" stroke="none" /><path d="M 120.95626037817324 101.35467743843564 l 5.170094824227732 0.3342109081756272 a26.180885775873655,26.180885775873655 0 0,0 -0.03294233806735589,0.44947203011962145 l -5.163575927496039 -0.4231560747920189" fill="#ff3a05" stroke="none" /><path d="M 120.8583938346157 102.4346265915055 l 8.535471516054598 0.9962745017086416 a29.593418230490947,29.593418230490947 0 0,0 -0.06341234079042396,0.5054587480583257 l -8.517057666017324 -1.1430510040543622" fill="#ff6909" stroke="none" /><path d="M 120.81339534386255 102.79330883721812 l 5.602405853112006 0.7518835596324221 a26.65263480425095,26.65263480425095 0 0,0 -0.06493844536511713,0.45417933563589236 l -5.588633356730288 -0.8482083672487238" fill="#ff4006" stroke="none" /><path d="M 120.70491114924044 103.5080841355445 l 11.133944125514928 1.886451599392189 a32.29262641846164,32.29262641846164 0 0,0 -0.0975753348791854,0.547254296757505 l -11.099822348296554 -2.0778246468829122" fill="#ff8e0d" stroke="none" /><path d="M 120.64145759157962 103.86396538481128 l 13.945569317055417 2.6105325592205313 a35.1878040520564,35.1878040520564 0 0,0 -0.11657228030194101,0.5943995458138073 l -13.898567103777813 -2.8501958321022838" fill="#ffb410" stroke="none" /><path d="M 120.5718875245553 104.21870165774334 l 8.836349410775284 1.8120807759200934 a30.020238779975166,30.020238779975166 0 0,0 -0.1081671535718368,0.5053209307880013 l -8.803848218479004 -1.9639155261242638" fill="#ff6f0a" stroke="none" /><path d="M 120.41448212921028 104.9243191809786 l 2.3757216542327995 0.573064339156829 a23.443860903407533,23.443860903407533 0 0,0 -0.0980050350742645,0.39148139789832553 l -2.3655053048634738 -0.6138735764525505" fill="#ff1202" stroke="none" /><path d="M 120.32669344350535 105.2749913415812 l 1.2577639412574932 0.3264030088477673 a22.299426433513055,22.299426433513055 0 0,0 -0.09961676620013722,0.37071104537734545 l -1.2519590987155786 -0.34800498740066105" fill="#ff0200" stroke="none" /><path d="M 120.23288151984713 105.62410040840565 l 5.4424492485212 1.5128285613351637 a26.64879669298873,26.64879669298873 0 0,0 -0.12665457752788759,0.44090119989415005 l -5.415602034107213 -1.6062872367338958" fill="#ff4006" stroke="none" /><path d="M 120.13307415673323 105.97154293290107 l 6.301102750395487 1.8689299659696421 a27.57242687968005,27.57242687968005 0 0,0 -0.13887736099535333,0.4538592511231448 l -6.267998616894001 -1.977116189644844" fill="#ff4d07" stroke="none" /><path d="M 119.9155931802556 106.66101706037122 l 5.361812238091489 1.7933245808536968 a26.653763660504545,26.653763660504545 0 0,0 -0.14927271411178336,0.4338563802174716 l -5.330148693036476 -1.8853536641604687" fill="#ff4006" stroke="none" /><path d="M 119.79798401119884 107.00284435728193 l 5.326530270874443 1.8840737738845033 a26.649925549242322,26.649925549242322 0 0,0 -0.15669615482611354,0.4311605197608414 l -5.293309855043102 -1.9754820906514758" fill="#ff4006" stroke="none" /><path d="M 119.54520255179757 107.68017299344265 l 10.953903572267285 4.3042723228654864 a32.76922952872939,32.76922952872939 0 0,0 -0.21081129724432382,0.5232163512517575 l -10.878189660765567 -4.492188041960057" fill="#ff940d" stroke="none" /><path d="M 119.26925614724726 108.34839909993367 l 20.718057601491218 8.976091869398497 a43.57893124190314,43.57893124190314 0 0,0 -0.3041371853039889,0.6857490629884608 l -20.560479331455955 -9.331389268879645" fill="#e2ff1b" stroke="none" /><path d="M 119.12269723197855 108.67885076344098 l 21.05820871771961 9.557284131490215 a44.12552343989378,44.12552343989378 0 0,0 -0.3198583196562302,0.6889463646075599 l -20.890575781223546 -9.918350563376606" fill="#dcff1b" stroke="none" /><path d="M 118.97047184881838 109.00673069616215 l 5.290202968898134 2.511663065031818 a26.856167586774106,26.856167586774106 0 0,0 -0.20186469492294096,0.41590106188887316 l -5.246185017360479 -2.6023530828859665" fill="#ff4306" stroke="none" /><path d="M 118.64920377521936 109.65438752849418 l 7.225339666907632 3.7404400750887747 a29.136118562159663,29.136118562159663 0 0,0 -0.2344035310066195,0.44340314338744746 l -7.15988362767612 -3.8642582335623565" fill="#ff6309" stroke="none" /><line stroke="#e1ed5e" stroke-width="0.3" x1="174.80103733775053" x2="179.2010983576182" y1="140.37084112569926" y2="142.7455964860345" /><path d="M 175.68104954172406 140.8457921977663 a86.0,86.0 0 0,1 -30.038265399797805,32.042727171017184" fill="none" id="id125" stroke="none" /><text fill="#e1ed5e" style="font-size:6.75px; font-family:Arial;" text-anchor="middle"><textPath startOffset="22.206326154141568" xlink:href="#id125">May</textPath></text><path d="M 118.48025628344425 109.97397251340804 l 12.641703678490892 6.822849373840933 a35.365373140746875,35.365373140746875 0 0,0 -0.29374073163315306,0.5332247506772796 l -12.522386537406229 -7.039444642916018" fill="#ffb610" stroke="none" /><path d="M 118.30583269289576 110.29060199501025 l 16.288470474977824 9.156544232512434 a39.68573179450516,39.68573179450516 0 0,0 -0.3398761735463713,0.5926027568260235 l -16.128442305279073 -9.435566835196774" fill="#ffed16" stroke="none" /><path d="M 118.12598468904814 110.60418214915192 l 7.833589338465525 4.582857684798432 a30.075665622026673,30.075665622026673 0 0,0 -0.26526611663355776,0.4446012695563639 l -7.753542346133741 -4.7170210482409" fill="#ff700a" stroke="none" /><path d="M 117.75023020441432 111.22182372390056 l 13.5372114576291 8.558322846590539 a37.01564809787722,37.01564809787722 0 0,0 -0.34511827983385224,0.5356312343739734 l -13.387888314418198 -8.790075680885964" fill="#ffcb12" stroke="none" /><path d="M 117.14729908036423 112.12312394758627 l 4.790540334059154 3.3869074058558284 a26.866891721183258,26.866891721183258 0 0,0 -0.2702300213128822,0.3753258646180183 l -4.7315305203706695 -3.4688668759249777" fill="#ff4306" stroke="none" /><path d="M 116.71984013943494 112.70617746262583 l 12.517882561859059 9.512916149966603 a36.722371243193265,36.722371243193265 0 0,0 -0.38679705593245695,0.4999873355605536 l -12.352278688708534 -9.72698147964041" fill="#ffc712" stroke="none" /><path d="M 116.498646956653 112.99209946851258 l 24.60948322479822 19.379095435237545 a52.32372909600116,52.32372909600116 0 0,0 -0.5633075201476253,0.7028127438749422 l -24.272257792595738 -19.79983601269074" fill="#80ff26" stroke="none" /><path d="M 116.0416608686014 113.55231037782055 l 3.7154800694807175 3.138910585173033 a25.863902939864214,25.863902939864214 0 0,0 -0.29023916473873135,0.3376137190895363 l -3.6608983951712073 -3.202401403424097" fill="#ff3505" stroke="none" /><path d="M 115.56566222782051 114.09645910891815 l 4.39134266722111 3.9768550438600565 a26.924463390116593,26.924463390116593 0 0,0 -0.3140592390569876,0.34084927654332836 l -4.322237020168401 -4.05185557520472" fill="#ff4406" stroke="none" /><path d="M 115.07121518719521 114.62390073753431 l 9.004781495581653 8.737519113021097 a33.547124373081616,33.547124373081616 0 0,0 -0.4056955589034293,0.41096745926610384 l -8.853045311622688 -8.891227066267865" fill="#ff9e0e" stroke="none" /><path d="M 114.81725581225074 114.88116024355365 l 8.181912329807892 8.217199596291769 a32.59595009380258,32.59595009380258 0 0,0 -0.4010078694804824,0.3924706012551886 l -8.039254507951615 -8.356820300469531" fill="#ff920d" stroke="none" /><path d="M 114.55890576462653 115.13401014063108 l 8.15915110273742 8.481453038028983 a32.768890871853316,32.768890871853316 0 0,0 -0.40986730375209673,0.38755511832481465 l -8.011947964594516 -8.620642793099718" fill="#ff940d" stroke="none" /><line stroke="#e1ed5e" stroke-width="0.3" x1="143.8653032363475" x2="146.44561519142675" y1="172.8068346515853" y2="177.08958963109032" /><path d="M 144.38136562736335 173.6633856474863 a86.0,86.0 0 0,1 -40.68145358897372,12.25698825130547" fill="none" id="id126" stroke="none" /><text fill="#e1ed5e" style="font-size:6.75px; font-family:Arial;" text-anchor="middle"><textPath startOffset="21.466115282336833" xlink:href="#id126">June</textPath></text><line stroke="#e1ed5e" stroke-width="0.3" x1="102.19456741930631" x2="102.32365962044197" y1="184.97166512339345" y2="189.96999836594603" /><path d="M 102.22038585953345 185.97133177190398 a86.0,86.0 0 0,1 -42.740103519485714,-10.115201625700543" fill="none" id="id127" stroke="none" /><text fill="#e1ed5e" style="font-size:6.75px; font-family:Arial;" text-anchor="middle"><textPath startOffset="22.20632615414155" xlink:href="#id127">July</textPath></text><line stroke="#e1ed5e" stroke-width="0.3" x1="58.666819895761336" x2="56.23545636021788" y1="174.27360380694188" y2="178.64263932499728" /><path d="M 58.180547188652646 175.14741091055294 a86.0,86.0 0 0,1 -31.652253787137756,-30.449443065178592" fill="none" id="id128" stroke="none" /><text fill="#e1ed5e" style="font-size:6.75px; font-family:Arial;" text-anchor="middle"><textPath startOffset="22.20632615414155" xlink:href="#id128">August</textPath></text><line stroke="#e1ed5e" stroke-width="0.3" x1="26.63291911575756" x2="22.317208475507996" y1="142.92168965132927" y2="145.44649492493687" /><path d="M 25.769776987707644 143.4266507060508 a86.0,86.0 0 0,1 -11.730757126820373,-40.83630448921669" fill="none" id="id129" stroke="none" /><text fill="#e1ed5e" style="font-size:6.75px; font-family:Arial;" text-anchor="middle"><textPath startOffset="21.46611528233685" xlink:href="#id129">September</textPath></text><line stroke="#e1ed5e" stroke-width="0.3" x1="15.007084014347285" x2="10.007500721073583" y1="101.09737516637583" y2="101.16192664675087" /><path d="M 14.007167355692545 101.11028546245083 a86.0,86.0 0 0,1 10.666146001902534,-42.60595125391555" fill="none" id="id130" stroke="none" /><text fill="#e1ed5e" style="font-size:6.75px; font-family:Arial;" text-anchor="middle"><textPath startOffset="22.20632615414155" xlink:href="#id130">October</textPath></text><line stroke="#e1ed5e" stroke-width="0.3" x1="26.266209847984243" x2="21.928928074336255" y1="57.711370442889674" y2="55.22380399835377" /><path d="M 25.398753493254645 57.213857153982495 a86.0,86.0 0 0,1 29.58750427330803,-30.492523968695096" fill="none" id="id131" stroke="none" /><text fill="#e1ed5e" style="font-size:6.75px; font-family:Arial;" text-anchor="middle"><textPath startOffset="21.46611528233685" xlink:href="#id131">November</textPath></text><line stroke="#e1ed5e" stroke-width="0.3" x1="56.762969772571076" x2="54.21961505331055" y1="26.818313649435495" y2="22.513508569990535" /><path d="M 56.25429882871897 25.957352633546506 a86.0,86.0 0 0,1 42.265352541879196,-11.944610805530505" fill="none" id="id132" stroke="none" /><text fill="#e1ed5e" style="font-size:6.75px; font-family:Arial;" text-anchor="middle"><textPath startOffset="22.20632615414155" xlink:href="#id132">December</textPath></text></svg>