<?xml version="1.0" encoding="utf-8" ?>
<svg baseProfile="full" height="200mm" version="1.1" viewBox="0,0,200,200" width="200mm" xmlns="http://www.w3.org/2000/svg" xmlns:ev="http://www.w3.org/2001/xml-events" xmlns:xlink="http://www.w3.org/1999/xlink"><defs /><rect fill="#1a1a1a" height="200" width="200" x="0" y="0" /><text alignment-baseline="middle" fill="#e1ed5e" style="dominant-baseline: central; font-size:9.0px; font-family:Arial;" text-anchor="middle" x="100.0" y="100.0">2020</text><line stroke="#e1ed5e" stroke-width="0.3" x1="100.0" x2="100.0" y1="15.0" y2="10.0" /><path d="M 100.0 14.0 a86.0,86.0 0 0,1 42.35913384403234,11.155469271406648" fill="none" id="id13" stroke="none" /><text fill="#e1ed5e" style="font-size:6.75px; font-family:Arial;" text-anchor="middle"><textPath startOffset="22.145653131862478" xlink:href="#id13">January</textPath></text><path d="M 100.0 79.0 l 0.0 -11.852016141912344 a32.852016141912344,32.852016141912344 0 0,0 0.5639485421990367,0.004840819973003814 l -0.20345561735018192 11.850269720133776" fill="#ff8c0c" stroke="none" /><path d="M 101.08105385017728 79.02784411241856 l 0.1616447988641271 -3.1358659142089027 a24.140029310834066,24.140029310834066 0 0,0 0.41366313748531147,0.024884947134929863 l -0.21545228848190096 3.132628989249281" fill="#ff1201" stroke="none" /><path d="M 101.44090949804482 79.04949213459386 l 1.7159337767447818 -24.94930051817141 a46.00823914377423,46.00823914377423 0 0,0 0.787466078288963,0.06095485474311334 l -2.1439688498089784 24.916167896433244" fill="#cbff1d" stroke="none" /><path d="M 103.58742460773223 79.30868818359171 l 0.41564111220012545 -2.397307482842988 a23.43307227624786,23.43307227624786 0 0,0 0.3957569915510888,0.07212010721962772 l -0.45673283730226794 2.3898192016919944" fill="#ff0701" stroke="none" /><path d="M 104.29559338865022 79.4440306129975 l 1.5190822438236158 -7.269358450658523 a28.426384258012824,28.426384258012824 0 0,0 0.47680194739515835,0.10391676523896454 l -1.6436466078379084 7.24221022728584" fill="#ff4f07" stroke="none" /><path d="M 104.9986988182912 79.60360301121754 l 2.4575045441034122 -10.027457165423899 a31.324205818788194,31.324205818788194 0 0,0 0.521167224142995,0.132478670368573 l -2.6292770614718015 9.983793263220058" fill="#ff780b" stroke="none" /><path d="M 105.3480935250658 79.69241777938227 l 2.7276494268246196 -10.357329157511366 a31.71047798525779,31.71047798525779 0 0,0 0.5252140013582681,0.14314941159311906 l -2.9050448291175806 10.308979251774105" fill="#ff7d0b" stroke="none" /><path d="M 106.04205211174951 79.88797359093562 l 2.1476185582234666 -7.148723705244642 a28.464349675996733,28.464349675996733 0 0,0 0.4667602590546121,0.14460352139524296 l -2.270019450149709 7.110803596042753" fill="#ff5007" stroke="none" /><path d="M 106.72888874123014 80.10723608172694 l 3.3849108156267027 -10.006887367164476 a31.563873153766217,31.563873153766217 0 0,0 0.511776981940981,0.17802260050182184 l -3.5561935696127023 9.947306334094062" fill="#ff7b0b" stroke="none" /><path d="M 108.07796709384702 80.6158196554323 l 5.687830433260909 -13.648722457860757 a35.78644784149464,35.78644784149464 0 0,0 0.5650252804039285,0.24117569372443246 l -5.921290788835267 13.549072114476923" fill="#ffb310" stroke="none" /><path d="M 108.4095320186766 80.7573450057729 l 5.636079611453529 -12.896453125136565 a35.074228099454935,35.074228099454935 0 0,0 0.5496408748911911,0.2458473721891436 l -5.856633889200352 12.79780200203757" fill="#ffaa0f" stroke="none" /><path d="M 109.06512990194946 81.05736502329252 l 7.3713728357867305 -15.403334140363174 a38.07629468367925,38.07629468367925 0 0,0 0.5871722752088938,0.28721538338260694 l -7.6347053602576915 15.274525006883346" fill="#ffd113" stroke="none" /><path d="M 109.71004243097381 81.37971332152246 l 1.8063078180838992 -3.463833411789153 a24.906518890047494,24.906518890047494 0 0,0 0.3774063271731637,0.20094761172379255 l -1.8655029610436225 3.4323153323427875" fill="#ff1d02" stroke="none" /><line stroke="#e1ed5e" stroke-width="0.3" x1="143.13028292997686" x2="145.6673583964461" y1="26.7553504044142" y2="22.446841604673864" /><path d="M 143.63769802327073 25.89364864446614 a86.0,86.0 0 0,1 29.32050498858742,28.57503671076993" fill="none" id="id14" stroke="none" /><text fill="#e1ed5e" style="font-size:6.75px; font-family:Arial;" text-anchor="middle"><textPath startOffset="20.669276256404974" xlink:href="#id14">February</textPath></text><path d="M 110.65571695917076 81.90426304109057 l 2.644349202632109 -4.490683056023704 a26.211412190099672,26.211412190099672 0 0,0 0.3857661386824272,0.23164148231736142 l -2.72104809787197 4.444627573170422" fill="#ff3004" stroke="none" /><path d="M 111.27062007382361 82.28071324371311 l 5.497001549400021 -8.64219946334576 a31.242296500217126,31.242296500217126 0 0,0 0.45005921774296653,0.2917229474797825 l -5.644546399399994 8.546562674162084" fill="#ff760a" stroke="none" /><path d="M 111.5731344415666 82.4767994020092 l 4.0621538510314155 -6.150618672143303 a28.37097035400138,28.37097035400138 0 0,0 0.4040886925319883,0.2718889062408855 l -4.167138831660405 6.079980091845299" fill="#ff4e07" stroke="none" /><path d="M 111.8722381534696 82.67804972795209 l 6.0047813091771305 -8.761155385152994 a31.62145198425518,31.62145198425518 0 0,0 0.44511697289328833,0.3107262166057295 l -6.15429337324418 8.656784352742138" fill="#ff7c0b" stroke="none" /><path d="M 112.16784306229584 82.88440491214696 l 3.453466210029441 -4.8577327138285575 a26.96020100188033,26.96020100188033 0 0,0 0.3748995550801825,0.271398366448779 l -3.5363467754835916 4.797733576006704" fill="#ff3a05" stroke="none" /><path d="M 112.7482090630111 83.31218511350987 l 7.5260932578774105 -9.851897665400738 a33.39765975238054,33.39765975238054 0 0,0 0.45260199228494585,0.3519460467394501 l -7.694105194797583 9.721250567040498" fill="#ff940d" stroke="none" /><path d="M 113.31354834802062 83.75963576809568 l 3.487338359715566 -4.253985765567362 a26.500720291815735,26.500720291815735 0 0,0 0.3493371209510158,0.29142945090258626 l -3.5598498148284743 4.193494130752906" fill="#ff3404" stroke="none" /><path d="M 113.86319453409587 84.22622945171908 l 8.915369295331615 -10.144053686318802 a34.50502257913921,34.50502257913921 0 0,0 0.44155744367922833,0.39484338891627696 l -9.08819176583422 9.989514767519138" fill="#ffa30f" stroke="none" /><path d="M 114.39649973595853 84.71141617570332 l 8.530908384357224 -9.059529074687054 a33.4439328557091,33.4439328557091 0 0,0 0.414589328724484,0.3971671985280242 l -8.68517019894702 8.91174974585345" fill="#ff940d" stroke="none" /><path d="M 114.65682725009322 84.96080404539774 l 8.68581718444652 -8.91241360997225 a33.44485984319812,33.44485984319812 0 0,0 0.40772163571331776,0.4042368563478317 l -8.8375307402898 8.761996743395757" fill="#ff940d" stroke="none" /><path d="M 114.91283532996326 85.21462403516908 l 2.501662832800883 -2.4802812276675326 a24.52279887267742,24.52279887267742 0 0,0 0.2938218985280777,0.30148715218628896 l -2.5438715324797725 2.4369713834135016" fill="#ff1702" stroke="none" /><path d="M 115.41159269507618 85.73525988315684 l 2.3909836026974687 -2.2130587273442193 a24.257979668297914,24.257979668297914 0 0,0 0.28024007811714585,0.30803293668671555 l -2.428621381656492 2.1716882150998322" fill="#ff1302" stroke="none" /><path d="M 115.6541949942343 86.00192230759917 l 2.4760300233527763 -2.2140813148408416 a24.321578050456093,24.321578050456093 0 0,0 0.27563173728934054,0.3136183200151305 l -2.5136728246007074 2.171250717014413" fill="#ff1402" stroke="none" /><path d="M 115.8921839302757 86.27271002978787 l 2.956156852591563 -2.5534578816223146 a24.906278342661103,24.906278342661103 0 0,0 0.2767033400070432,0.32595583876764717 l -2.9995547561057188 2.5023352604051157" fill="#ff1d02" stroke="none" /><path d="M 116.1254893667686 86.54754324733833 l 9.055848287216486 -7.554710723601278 a32.79330497860451,32.79330497860451 0 0,0 0.3569054362160862,0.4353666001714436 l -9.184200542671201 7.398141841731339" fill="#ff8c0c" stroke="none" /><path d="M 116.35404254752997 86.82634096563983 l 9.900443953472966 -7.975096833262451 a33.71302324294942,33.71302324294942 0 0,0 0.35917785828614984,0.4538094905296523 l -10.035888242400674 7.80396739881812" fill="#ff980e" stroke="none" /><path d="M 116.57777611688842 87.10902102172516 l 14.81924575811751 -11.523535134918813 a39.77237083708907,39.77237083708907 0 0,0 0.4144811768394371,0.5425691655073456 l -15.014878912311255 11.267445056170585" fill="#ffe715" stroke="none" /><path d="M 116.7966241395341 87.39550010848427 l 2.4401573251092157 -1.8311395482874422 a24.05080969852046,24.05080969852046 0 0,0 0.24497236294701252,0.3323520586421709 l -2.471231707640054 1.7889811803763964" fill="#ff1001" stroke="none" /><path d="M 117.01052211995028 87.68569379921539 l 10.560179676577178 -7.644755708007277 a34.03685869512681,34.03685869512681 0 0,0 0.33856123213720074,0.4762287721856615 l -10.68985600724434 7.462349709112111" fill="#ff9c0e" stroke="none" /><path d="M 117.21940702142032 87.97951657250589 l 10.691251134041934 -7.463323615967838 a34.03856012785983,34.03856012785983 0 0,0 0.33035275705173794,0.4819945452502436 l -10.817793627908996 7.278694335647546" fill="#ff9c0e" stroke="none" /><path d="M 117.42321728460499 88.27688183743584 l 10.817681670283273 -7.278619005560449 a34.038425186643074,34.038425186643074 0 0,0 0.3220287248672029,0.4875925336091818 l -10.9410348340712 7.091846593612209" fill="#ff9c0e" stroke="none" /><path d="M 117.62189284568427 88.57770195909679 l 10.937549187858366 -7.089587239849433 a34.03427134397075,34.03427134397075 0 0,0 0.3135728277839184,0.49298856833863997 l -11.057639707268175 6.900784996832121" fill="#ff9c0e" stroke="none" /><path d="M 117.81537515405839 88.88188828441811 l 11.060810237477208 -6.902763642173958 a34.038008628973955,34.038008628973955 0 0,0 0.305097316672207,0.49835353783055353 l -11.177675518604817 6.71187298821885" fill="#ff9c0e" stroke="none" /><line stroke="#e1ed5e" stroke-width="0.3" x1="172.87174338648825" x2="177.1583165268699" y1="56.24261187166439" y2="53.66864786411523" /><path d="M 173.72905801456457 55.72781907015455 a86.0,86.0 0 0,1 12.242430191666344,42.057860355516425" fill="none" id="id15" stroke="none" /><text fill="#e1ed5e" style="font-size:6.75px; font-family:Arial;" text-anchor="middle"><textPath startOffset="22.145653131862474" xlink:href="#id15">March</textPath></text><path d="M 118.00360718960297 89.18935116829356 l 5.438836886624335 -3.265865279941375 a27.344038359438887,27.344038359438887 0 0,0 0.2381877851029271,0.4044949319283746 l -5.49409838185703 3.1720191797194444" fill="#ff4006" stroke="none" /><path d="M 118.53625476483649 90.13048839642627 l 11.506007130214313 -6.126300718410192 a34.035327405667104,34.035327405667104 0 0,0 0.2701625927771733,0.5180723939233296 l -11.609477791966432 5.927882081382365" fill="#ff9c0e" stroke="none" /><path d="M 118.8641267826498 90.77261029715802 l 11.71123466004612 -5.728551729681282 a34.037228316720544,34.037228316720544 0 0,0 0.2522332727445689,0.5270705291882458 l -11.807847190750602 5.526668698427933" fill="#ff9c0e" stroke="none" /><path d="M 119.0197475246899 91.09779779509293 l 16.42762804906927 -7.688959406531456 a39.1380004430989,39.1380004430989 0 0,0 0.27958609909403415,0.6109460837778282 l -16.557198613018354 7.405824340538944" fill="#ffdf14" stroke="none" /><path d="M 119.16976305983485 91.42560881287824 l 7.145766874794064 -3.1962106326101187 a28.828010388145515,28.828010388145515 0 0,0 0.1981803785195724,0.45347548971906204 l -7.1995811353306065 3.073073073115207" fill="#ff5507" stroke="none" /><path d="M 119.4528033332814 92.08871423366111 l 12.074957948880822 -4.91078027744638 a34.0353508737048,34.0353508737048 0 0,0 0.21546212586396146,0.5431053074551366 l -12.15747874971091 4.702773952777678" fill="#ff9c0e" stroke="none" /><path d="M 119.71291397450082 92.76114493625339 l 12.237512662635153 -4.493784156932228 a34.036518408580214,34.036518408580214 0 0,0 0.1966983850648329,0.5502003907719243 l -12.31285121774393 4.283048809779387" fill="#ff9c0e" stroke="none" /><path d="M 120.05942366710727 93.78553927170692 l 9.591970107005062 -2.971616858299309 a31.04173278305131,31.04173278305131 0 0,0 0.15332203608200592,0.5103591928272713 l -9.641568463090696 2.806520061881314" fill="#ff740a" stroke="none" /><path d="M 120.16314734710363 94.1308016681162 l 12.516712943072854 -3.643432717199493 a34.03620745708073,34.03620745708073 0 0,0 0.15848150901027186,0.562394966095247 l -12.577412944157707 3.428029827201233" fill="#ff9c0e" stroke="none" /><path d="M 120.43855184770803 95.1765574152323 l 12.689183766074654 -2.9946128179375435 a34.03775634756872,34.03775634756872 0 0,0 0.12932586921345615,0.5698336419787682 l -12.738720496845778 2.776344842019749" fill="#ff9c0e" stroke="none" /><path d="M 120.592083275326 95.88100663000786 l 12.986457962637841 -2.597655299494704 a34.24371184639536,34.24371184639536 0 0,0 0.11035233079366669,0.5774100251688998 l -13.029136585713664 2.37434270929249" fill="#ff9f0e" stroke="none" /><path d="M 120.65975698304385 96.23510406497455 l 7.58461601707481 -1.382169695163896 a28.709526132824067,28.709526132824067 0 0,0 0.08419435269530659,0.4856106525679725 l -7.607225187262351 1.2517660096753307" fill="#ff5307" stroke="none" /><path d="M 120.7213421655516 96.59031103205396 l 12.862738246917374 -2.1165586836842953 a34.0357146282891,34.0357146282891 0 0,0 0.08991669817072853,0.5773297041431191 l -12.897176437226367 1.8954407976097352" fill="#ff9c0e" stroke="none" /><path d="M 120.86939407059847 97.66154086499901 l 12.958081224729852 -1.4519800292019351 a34.03917616384937,34.03917616384937 0 0,0 0.06008337248995219,0.5812521255986199 l -12.98109698970147 1.2293233813203839" fill="#ff9c0e" stroke="none" /><path d="M 120.93736805541906 98.37931529534042 l 7.2168929674170945 -0.5586331584991594 a28.2384815471844,28.2384815471844 0 0,0 0.033262294104319905,0.4836264562067315 l -7.22541922268648 0.4346632781380937" fill="#ff4d07" stroke="none" /><path d="M 120.96210409425399 98.7389718711861 l 4.601830007218965 -0.2768346658823115 a25.610149330290188,25.610149330290188 0 0,0 0.022632555492857417,0.4390655302256428 l -4.605904152168395 0.19779734227993806" fill="#ff2703" stroke="none" /><path d="M 120.98066250479742 99.09900007780936 l 3.902370647081239 -0.16758458645313357 a24.90596739116162,24.90596739116162 0 0,0 0.014677102005329465,0.4273078107621829 l -3.9046724360834166 0.10057051112683073" fill="#ff1d02" stroke="none" /><path d="M 120.99303781780057 99.45929381324524 l 2.4684120251522246 -0.06357753770766525 a23.46923065532912,23.46923065532912 0 0,0 0.006916235201770875,0.402836027121272 l -2.4691396919526616 0.021194594617326926" fill="#ff0801" stroke="none" /><line stroke="#e1ed5e" stroke-width="0.3" x1="184.99686870605535" x2="189.99668451229388" y1="99.2704041080226" y2="99.22748670261217" /><path d="M 185.99683186730306 99.26182062694052 a86.0,86.0 0 0,1 -10.086455211305974,41.156179273409016" fill="none" id="id16" stroke="none" /><text fill="#e1ed5e" style="font-size:6.75px; font-family:Arial;" text-anchor="middle"><textPath startOffset="21.40746469413373" xlink:href="#id16">April</textPath></text><path d="M 120.99922638620191 99.81974689727618 l 13.043899662517616 -0.11196619068462516 a34.044380201208625,34.044380201208625 0 0,0 0.0,0.5844385868169025 l -13.043899662517616 -0.11196619068462357" fill="#ff9c0e" stroke="none" /><path d="M 120.98066250479742 100.90099992219065 l 13.02585039722754 0.5593860628416939 a34.03785608672892,34.03785608672892 0 0,0 -0.03008040510836248,0.583551823057426 l -13.014328402662604 -0.7829096792758506" fill="#ff9c0e" stroke="none" /><path d="M 120.93736805541906 101.62068470465957 l 4.023814426196 0.3114686849685729 a25.035851245794262,25.035851245794262 0 0,0 -0.03684606974694064,0.4282071823106299 l -4.017874733751319 -0.38049691465486013" fill="#ff1f03" stroke="none" /><path d="M 120.9064616781168 101.97986365728391 l 12.980092358933708 1.2292282417421645 a34.03816703822841,34.03816703822841 0 0,0 -0.060081591257930556,0.581234893794614 l -12.957078375194111 -1.4518676578197098" fill="#ff9c0e" stroke="none" /><path d="M 120.86939407059847 102.33845913500097 l 12.955883118480001 1.4517337268118269 a34.03696430129645,34.03696430129645 0 0,0 -0.07004793272173036,0.5800973686555341 l -12.929053099498608 -1.6739247723907695" fill="#ff9c0e" stroke="none" /><path d="M 120.77682067341334 103.0534771498775 l 12.897878800756185 1.8955440208614036 a34.03642453642943,34.03642453642943 0 0,0 -0.08991857362997925,0.5773417459368815 l -12.86343873498794 -2.1166739487297357" fill="#ff9c0e" stroke="none" /><path d="M 120.7213421655516 103.40968896794604 l 5.848872768682522 0.9624297883295874 a26.927527626397037,26.927527626397037 0 0,0 -0.07896841444545542,0.4554688294818842 l -5.831489536744832 -1.0626916507320596" fill="#ff3a05" stroke="none" /><path d="M 120.592083275326 104.11899336999214 l 12.782454984168638 2.5568489903642346 a34.03566769221371,34.03566769221371 0 0,0 -0.1195175261545266,0.5719346284809012 l -12.736679747189747 -2.7759000701305445" fill="#ff9c0e" stroke="none" /><path d="M 120.51834098615036 104.47187691870673 l 12.737929419731918 2.7761724304447166 a34.036946700268174,34.036946700268174 0 0,0 -0.12932279297248125,0.5698200874934267 l -12.688395765201772 -2.99442685187716" fill="#ff9c0e" stroke="none" /><path d="M 120.35273937422433 105.17358676015961 l 13.07754145769737 3.324259899218605 a34.493435235526434,34.493435235526434 0 0,0 -0.15080286656200442,0.5726230473456477 l -13.018549110330634 -3.548263450937056" fill="#ffa20f" stroke="none" /><path d="M 120.16314734710363 105.8691983318838 l 5.632256345250403 1.6394677367188952 a26.866017899593864,26.866017899593864 0 0,0 -0.13269724968543958,0.4417059867613474 l -5.6032827755613335 -1.735911327070966" fill="#ff3905" stroke="none" /><path d="M 120.05942366710727 106.21446072829308 l 16.309312138251666 5.05266659055786 a38.07404761906979,38.07404761906979 0 0,0 -0.19877423962985952,0.6226574745284483 l -16.22017318284455 -5.331893098777692" fill="#ffd113" stroke="none" /><path d="M 119.83427380445688 106.89939002012753 l 10.377121550070234 3.6097015482420565 a31.98701947446682,31.98701947446682 0 0,0 -0.18485424972487474,0.5170702362449616 l -10.313627130301416 -3.7873067408679395" fill="#ff810b" stroke="none" /><path d="M 119.71291397450082 107.23885506374661 l 9.735827015641393 3.5751305353992606 a31.37149391474714,31.37149391474714 0 0,0 -0.1899757823265634,0.503933333101911 l -9.673020549500388 -3.7417321486953306" fill="#ff780b" stroke="none" /><path d="M 119.4528033332814 107.91128576633889 l 13.86012162768467 5.636790804604867 a35.962499193286206,35.962499193286206 0 0,0 -0.2374794859041088,0.5698643147985677 l -13.761316297244077 -5.873887628844713" fill="#ffb610" stroke="none" /><path d="M 119.31412917781788 108.2440532568976 l 5.408807803819405 2.3086984238576176 a26.880925970540723,26.880925970540723 0 0,0 -0.18479499667410923,0.42284711655319834 l -5.36837892512833 -2.4012076101866606" fill="#ff3905" stroke="none" /><path d="M 119.0197475246899 108.90220220490707 l 11.808240409265363 5.526852744547606 a34.03766247541793,34.03766247541793 0 0,0 -0.2522364900825999,0.5270772521873177 l -11.711624661222851 -5.7287424988000275" fill="#ff9c0e" stroke="none" /><path d="M 118.70294669586154 109.54985784667822 l 13.167048063839703 6.723188560328438 a35.78419490987575,35.78419490987575 0 0,0 -0.2840445976049515,0.544692968591548 l -13.049695397259802 -6.948227772024489" fill="#ffb310" stroke="none" /><path d="M 118.5362547648365 109.86951160357373 l 13.059710973717745 6.953560502358757 a35.79554170610213,35.79554170610213 0 0,0 -0.2934461413211222,0.5399078485031477 l -12.938419482781285 -7.176723184336508" fill="#ffb410" stroke="none" /><line stroke="#e1ed5e" stroke-width="0.3" x1="174.33088141563837" x2="178.70328620479359" y1="141.23008692659167" y2="143.65538615756765" /><path d="M 175.20536237346943 141.71514677278685 a86.0,86.0 0 0,1 -30.301960400862466,31.631185727798858" fill="none" id="id17" stroke="none" /><text fill="#e1ed5e" style="font-size:6.75px; font-family:Arial;" text-anchor="middle"><textPath startOffset="22.145653131862474" xlink:href="#id17">May</textPath></text><path d="M 118.36410011445183 110.18625677009912 l 26.16523444880349 14.513414481747992 a50.920873878947205,50.920873878947205 0 0,0 -0.43056420118359284,0.7607656876264814 l -25.912236882598517 -14.960436939473595" fill="#93ff23" stroke="none" /><path d="M 118.00360718960297 110.81064883170644 l 14.194271433582276 8.523252161322251 a37.5566653929979,37.5566653929979 0 0,0 -0.3366365511995835,0.5498705071655324 l -14.045866917927288 -8.76565978461234" fill="#ffcb12" stroke="none" /><path d="M 117.81537515405839 111.11811171558189 l 2.687056704507486 1.6769221174672793 a24.167387175779048,24.167387175779048 0 0,0 -0.22266485038764736,0.35006612845800084 l -2.6578741624939486 -1.722801920603952" fill="#ff1202" stroke="none" /><path d="M 117.62189284568427 111.42229804090321 l 2.7321115343065667 1.7709216881024104 a24.25585581088636,24.25585581088636 0 0,0 -0.22947836965170473,0.34745949981052515 l -2.7013087257341355 -1.8175610662519965" fill="#ff1302" stroke="none" /><path d="M 117.21940702142032 112.02048342749411 l 6.32048725457244 4.412190977468924 a28.708176720656503,28.708176720656503 0 0,0 -0.2855573650323243,0.4016721952465215 l -6.243814791010156 -4.52004039942495" fill="#ff5307" stroke="none" /><path d="M 116.79662413953412 112.60449989151573 l 6.887813011536254 5.168743292430275 a29.61149669366081,29.61149669366081 0 0,0 -0.30859130947558194,0.40395593001765384 l -6.798069724706369 -5.286220135688806" fill="#ff6008" stroke="none" /><path d="M 116.35404254752997 113.17365903436017 l 10.15237945829629 8.178038242369468 a34.03653014259906,34.03653014259906 0 0,0 -0.37043605838911164,0.4518717591741471 l -10.01049658066855 -8.351112283242108" fill="#ff9c0e" stroke="none" /><path d="M 116.1254893667686 113.45245675266167 l 3.887229314037617 3.2428649478715785 a26.0622845445557,26.0622845445557 0 0,0 -0.2895463176985405,0.3410848341950206 l -3.8309884328319614 -3.3091165645161555" fill="#ff2e04" stroke="none" /><path d="M 115.89218393027572 113.72728997021213 l 9.866329560842921 8.522300485419604 a34.03741019401269,34.03741019401269 0 0,0 -0.38573938274658454,0.4389006083637794 l -9.718579114137752 -8.690413371594678" fill="#ff9c0e" stroke="none" /><path d="M 115.6541949942343 113.99807769240083 l 7.648059169943613 6.838941670036725 a31.25982125736717,31.25982125736717 0 0,0 -0.36112878610995974,0.39694379638682664 l -7.529532682991773 -6.969223041981223" fill="#ff770a" stroke="none" /><path d="M 115.16444852881244 114.52719865689866 l 14.064820747590772 13.473780117075048 a40.477215748282575,40.477215748282575 0 0,0 -0.4849810349968716,0.4976332664040468 l -13.831452911443094 -13.713236075546833" fill="#fff016" stroke="none" /><path d="M 114.65682725009322 115.03919595460226 l 5.381351030264294 5.521740228201895 a28.71028884404921,28.71028884404921 0 0,0 -0.3559084821361997,0.34095227491089997 l -5.285770062262782 -5.613304633418376" fill="#ff5307" stroke="none" /><path d="M 114.13192950727249 115.5334660781643 l 20.530394095044958 22.566499506143927 a51.50809698520462,51.50809698520462 0 0,0 -0.6591441457951339,0.58941075965451 l -20.139984922426446 -22.915605795681824" fill="#8dff24" stroke="none" /><path d="M 113.59037401385872 116.0094264158162 l 6.144929668159454 7.238711697885965 a30.49521498817891,30.49521498817891 0 0,0 -0.4019932473323231,0.3353570643099067 l -6.019762086665236 -7.343130946107743" fill="#ff6c0a" stroke="none" /><path d="M 113.31354834802062 116.24036423190432 l 7.848783959170801 9.57424023576802 a33.38020539934359,33.38020539934359 0 0,0 -0.4462603310118644,0.3594757335518188 l -7.683272857803684 -9.707564263113241" fill="#ff940d" stroke="none" /><path d="M 112.45986205192187 116.90419585922612 l 7.735291239908684 10.4944081726333 a34.03715204559802,34.03715204559802 0 0,0 -0.4733092738144365,0.3426394136712721 l -7.55400095572028 -10.62564835767765" fill="#ff9c0e" stroke="none" /><path d="M 112.16784306229584 117.11559508785304 l 7.553701802444433 10.62522756113118 a34.036635748768695,34.036635748768695 0 0,0 -0.4791141241555602,0.33445886853862533 l -7.370192587115114 -10.753331245474927" fill="#ff9c0e" stroke="none" /><path d="M 111.8722381534696 117.32195027204791 l 1.7241354404533704 2.515565134033359 a24.049706700748715,24.049706700748715 0 0,0 -0.34254078782725295,0.23047672915982456 l -1.6806983645291143 -2.544791537250305" fill="#ff1001" stroke="none" /><path d="M 111.5731344415666 117.5232005979908 l 7.184136277253733 10.877697977608472 a34.03595517567549,34.03595517567549 0 0,0 -0.4903031171665824,0.3178085568731738 l -6.9963475278301415 -10.99942037618554" fill="#ff9c0e" stroke="none" /><path d="M 111.27062007382361 117.71928675628689 l 11.670416069336337 18.34783246558272 a42.744920496900306,42.744920496900306 0 0,0 -0.6225204761897085,0.3884988185577273 l -11.353731464356914 -18.545467080981997" fill="#f2ff19" stroke="none" /><line stroke="#e1ed5e" stroke-width="0.3" x1="143.1302829299769" x2="145.66735839644613" y1="173.24464959558577" y2="177.55315839532614" /><path d="M 143.63769802327073 174.10635135553383 a86.0,86.0 0 0,1 -40.68552437913181,11.842963189579606" fill="none" id="id18" stroke="none" /><text fill="#e1ed5e" style="font-size:6.75px; font-family:Arial;" text-anchor="middle"><textPath startOffset="21.407464694133747" xlink:href="#id18">June</textPath></text><path d="M 110.34350942703117 118.27599006163325 l 6.421068608228827 11.345412975829621 a34.03643040343885,34.03643040343885 0 0,0 -0.5109610713859383,0.2834214930339076 l -6.225363348686795 -11.453967384296671" fill="#ff9c0e" stroke="none" /><path d="M 110.02825361518725 118.45085714620011 l 7.684870869222746 14.139296834324819 a37.09276095782747,37.09276095782747 0 0,0 -0.5620633995303127,0.2992671019030134 l -7.441018653905879 -14.2691344039504" fill="#ffc512" stroke="none" /><path d="M 109.71004243097381 118.62028667847754 l 0.9032990441233378 1.7321950215499171 a22.95357333002794,22.95357333002794 0 0,0 -0.3509413124130043,0.17919313467393036 l -0.8734305099967512 -1.7474461078966836" fill="#ff0000" stroke="none" /><path d="M 109.06512990194946 118.94263497670748 l 5.627057747222653 11.758386482202548 a34.03546821389328,34.03546821389328 0 0,0 -0.5291887857382745,0.24768707203373774 l -5.424380247612873 -11.853249785806819" fill="#ff9c0e" stroke="none" /><path d="M 108.4095320186766 119.2426549942271 l 5.220052469976058 11.944501609415328 a34.03533913968595,34.03533913968595 0 0,0 -0.537377364923755,0.22937444265262177 l -5.014240029881872 -12.032350701727353" fill="#ff9c0e" stroke="none" /><path d="M 108.07796709384702 119.3841803445677 l 1.173772470746269 2.816626632926633 a24.051414000491153,24.051414000491153 0 0,0 -0.38246963845360915,0.15554707231209267 l -1.1252483711022188 -2.836360961818017" fill="#ff1001" stroke="none" /><path d="M 107.06938296918513 119.77432235084164 l 4.388062663974186 12.274192244407496 a34.0349871191205,34.0349871191205 0 0,0 -0.5518436505991696,0.19195986770935553 l -4.1767132413299946 -12.347710544685443" fill="#ff9c0e" stroke="none" /><path d="M 106.72888874123015 119.89276391827305 l 4.448684068440265 13.15174396898798 a34.883773239526995,34.883773239526995 0 0,0 -0.5688999599804969,0.1870087166346118 l -4.222261370812034 -13.226173607024611" fill="#ffa80f" stroke="none" /><path d="M 105.69591212413111 120.21278271476187 l 3.331755706808981 11.823225620895771 a33.28369896132514,33.28369896132514 0 0,0 -0.551270930687593,0.15025134355184552 l -3.1283033751866927 -11.878677458591758" fill="#ff920d" stroke="none" /><path d="M 105.3480935250658 120.30758222061773 l 0.7772011537701903 2.9511593726201526 a24.051783622084876,24.051783622084876 0 0,0 -0.40016980409735886,0.10172159934970086 l -0.7264260564474341 -2.9640662038051238" fill="#ff1001" stroke="none" /><path d="M 104.9986988182912 120.39639698878246 l 1.5939155732449504 6.503719463862461 a27.69618799909741,27.69618799909741 0 0,0 -0.46274770632660545,0.10920719869640023 l -1.4820357131784656 -6.530122806205085" fill="#ff4506" stroke="none" /><path d="M 104.29559338865022 120.5559693870025 l 2.835282477826374 13.567853040209942 a34.860932971838636,34.860932971838636 0 0,0 -0.5868315392006971,0.11738274301591692 l -2.601954453094718 -13.614525179888721" fill="#ffa70f" stroke="none" /><path d="M 103.2317021107853 120.74984581791261 l 2.006111562750469 12.880675320191783 a34.03596104268492,34.03596104268492 0 0,0 -0.5780844195447892,0.08495850224279021 l -1.7847020375979945 -12.913214895733455" fill="#ff9c0e" stroke="none" /><path d="M 102.875027216393 120.80226474461374 l 0.7873420630621432 5.696814954307643 a26.750965844785565,26.750965844785565 0 0,0 -0.4554315988263433,0.0589647385263278 l -0.6894326423450244 -5.709491289034366" fill="#ff3705" stroke="none" /><path d="M 101.80034050326958 120.92268563240118 l 0.9637369890289736 11.200084660179844 a32.24147167319379,32.24147167319379 0 0,0 -0.5518373606391336,0.04271570177685596 l -0.7713306336146042 -11.214978128951753" fill="#ff840c" stroke="none" /><path d="M 101.08105385017728 120.97215588758144 l 0.15702107763451323 3.046166957591438 a24.050211263559195,24.050211263559195 0 0,0 -0.4124888832972283,0.01771404747921011 l -0.10470643373645536 -3.048413573496479" fill="#ff1001" stroke="none" /><path d="M 100.72087961077811 120.9876233191556 l 0.1341036352589023 3.9042810206621223 a24.906583427151162,24.906583427151162 0 0,0 -0.4274286218634068,0.011009045105499974 l -0.06706169932475169 -3.9060077831176674" fill="#ff1d02" stroke="none" /><line stroke="#e1ed5e" stroke-width="0.3" x1="101.45913802915013" x2="101.54496967792366" y1="184.9874750549273" y2="189.98673829345242" /><path d="M 101.47630435890484 185.9873277026323 a86.0,86.0 0 0,1 -42.54439059252881,-10.42667462771756" fill="none" id="id19" stroke="none" /><text fill="#e1ed5e" style="font-size:6.75px; font-family:Arial;" text-anchor="middle"><textPath startOffset="22.145653131862474" xlink:href="#id19">July</textPath></text><path d="M 100.36049292484886 120.99690560180557 l 0.22378786455976102 13.03452118779046 a34.0364421374577,34.0364421374577 0 0,0 -0.5842807894086117,0.00501534786167321 l -1.596503713590725e-15 -13.036442137457698" fill="#ff9c0e" stroke="none" /><path d="M 99.63950707515114 120.99690560180557 l -0.06706673507567315 3.906301090363009 a24.90687677762237,24.90687677762237 0 0,0 -0.42743365613027023,-0.011009174770353838 l 0.13411370527668728 -3.904574198242608" fill="#ff1d02" stroke="none" /><path d="M 99.27912038922189 120.98762331915562 l -0.1712225264196876 4.984957036545603 a25.98789673206644,25.98789673206644 0 0,0 -0.4457224256693323,-0.019141238783803353 l 0.2567707126898586 -4.981283229335971" fill="#ff2c04" stroke="none" /><path d="M 98.91894614982273 120.97215588758144 l -0.7920211872917479 15.364999443298931 a36.385399099591,36.385399099591 0 0,0 -0.6234995888525153,-0.037508186979304144 l 1.0556651282767096 -15.349139278494935" fill="#ffbb11" stroke="none" /><path d="M 97.84075906011543 120.88869738790638 l -1.340511673964303 12.96823443144472 a34.03733392289018,34.03733392289018 0 0,0 -0.5806835595141323,-0.06506680403355754 l 1.5629311350792348 -12.943311866904192" fill="#ff9c0e" stroke="none" /><path d="M 95.00130118170881 120.39639698878247 l -3.102939457983913 12.661051869260795 a34.035738096326796,34.035738096326796 0 0,0 -0.5662812729535195,-0.14394648515909386 l 3.3198260241628113 -12.605920152266437" fill="#ff9c0e" stroke="none" /><path d="M 94.30408787586889 120.21278271476187 l -3.3781303013324457 11.987792696749477 a33.45467534996479,33.45467534996479 0 0,0 -0.5514286148292464,-0.16051283317005413 l 3.583418928543299 -11.928036169276906" fill="#ff950d" stroke="none" /><path d="M 93.95794788825049 120.11202640906438 l -3.8924073464652698 12.956558119502573 a34.528607957024434,34.528607957024434 0 0,0 -0.5662023611383051,-0.17541093881627887 l 4.114250340475209 -12.887830592879643" fill="#ffa30f" stroke="none" /><path d="M 92.93061703081489 119.77432235084164 l -4.3881515414095436 12.274440850412338 a34.035251134544595,34.035251134544595 0 0,0 -0.5484713433383976,-0.2014062743935653 l 4.59821203640206 -12.197303727010054" fill="#ff9c0e" stroke="none" /><path d="M 92.25597844496254 119.51999308798841 l -4.8083431871574165 12.120165873884229 a34.03911749375513,34.03911749375513 0 0,0 -0.5412957824787593,-0.22014028240222488 l 5.015693430826617 -12.035838334902714" fill="#ff9c0e" stroke="none" /><path d="M 91.59046798132341 119.24265499422711 l -20.3421255867046 46.5467642723592 a71.7976705923789,71.7976705923789 0 0,0 -1.1251262427684767,-0.5032546573622851 l 21.138165232328713 -46.19070586408706" fill="#3effb2" stroke="none" /><path d="M 90.93487009805054 118.94263497670748 l -1.6866243395519025 3.5243961810289495 a24.907181862112427,24.907181862112427 0 0,0 -0.384092169800514,-0.18787872735351152 l 1.746876758614486 -3.494923703578217" fill="#ff1d02" stroke="none" /><path d="M 90.6110303473126 118.78422872680471 l -7.229299468598781 14.463441652924955 a37.16953664315237,37.16953664315237 0 0,0 -0.5682917332207494,-0.29017380822142713 l 7.476518423533113 -14.33720989303069" fill="#ffc612" stroke="none" /><line stroke="#e1ed5e" stroke-width="0.3" x1="58.13341422392154" x2="55.67067388415222" y1="173.97424548756322" y2="178.32567169271397" /><path d="M 57.64086615596768 174.84453072859336 a86.0,86.0 0 0,1 -31.369924170532247,-30.572349798747897" fill="none" id="id20" stroke="none" /><text fill="#e1ed5e" style="font-size:6.75px; font-family:Arial;" text-anchor="middle"><textPath startOffset="22.145653131862474" xlink:href="#id20">August</textPath></text><path d="M 89.65649057296885 118.27599006163327 l -7.703531698632547 13.611402373333117 a36.64016224981745,36.64016224981745 0 0,0 -0.5447302206290501,-0.31450013951590866 l 7.936054387121997 -13.477155336541037" fill="#ffbf11" stroke="none" /><path d="M 89.03521579738668 117.91015095944536 l -6.131709882603313 10.015687277345053 a32.74358794074395,32.74358794074395 0 0,0 -0.47686494020990894,-0.2975989914694668 l 6.302738951602934 -9.90895248903404" fill="#ff8b0c" stroke="none" /><path d="M 88.1277618465304 117.32195027204791 l -5.345882594568098 7.7998024691117696 a30.455970562140525,30.455970562140525 0 0,0 -0.4287111619636207,-0.299273686437337 l 5.478988847705484 -7.706883966869303" fill="#ff6c09" stroke="none" /><path d="M 87.54013794807813 116.9041958592261 l -3.5803159649984715 4.857386226110988 a27.03430719791723,27.03430719791723 0 0,0 -0.3712029370184566,-0.2785576042251797 l 3.6631718909276945 -4.795209594621793" fill="#ff3b05" stroke="none" /><path d="M 86.96720088162412 116.46651593811092 l -11.7309840297896 14.821715100625855 a39.90236029789135,39.90236029789135 0 0,0 -0.5334550911733229,-0.42971366014467627 l 11.983689891318184 -14.618153146687767" fill="#ffe815" stroke="none" /><path d="M 86.68645165197938 116.24036423190432 l -8.264132099546746 10.080897432363729 a34.0353508737048,34.0353508737048 0 0,0 -0.4486599365546161,-0.37428807621745747 l 8.435966370263253 -9.937547172234401" fill="#ff9c0e" stroke="none" /><path d="M 85.86807049272751 115.53346607816431 l -8.771834483316793 9.641782696393548 a34.03491671500741,34.03491671500741 0 0,0 -0.4287916999333138,-0.39688319596989724 l 8.936055954564074 -9.489781754291274" fill="#ff9c0e" stroke="none" /><path d="M 85.08716467003676 114.78537596483092 l -9.25775070044631 9.178625101542838 a34.03660641372157,34.03660641372157 0 0,0 -0.4078123532251124,-0.4184514007164105 l 9.413949854822231 -9.018351008758689" fill="#ff9c0e" stroke="none" /><path d="M 84.58840730492382 114.26474011684316 l -12.921115561612625 11.959591662774008 a38.6064493892676,38.6064493892676 0 0,0 -0.4460006373413297,-0.4902328282500977 l 13.124513899795835 -11.736021258966236" fill="#ffd814" stroke="none" /><path d="M 84.1078160697243 113.72728997021213 l -6.70370472974835 5.790500481474203 a29.858304179108064,29.858304179108064 0 0,0 -0.3317192709259154,-0.3907644670544851 l 6.802118564181378 -5.674569231970164" fill="#ff6309" stroke="none" /><path d="M 83.8745106332314 113.45245675266167 l -10.009149537286296 8.349988531743376 a34.03477590678123,34.03477590678123 0 0,0 -0.3704169661902521,-0.4518484697958874 l 10.151013322715178 -8.176937780248993" fill="#ff9c0e" stroke="none" /><path d="M 83.64595745247003 113.17365903436017 l -8.226480103116849 6.626670049099118 a31.563509399181918,31.563509399181918 0 0,0 -0.3362769818741709,-0.42487498129572626 l 8.339023515632581 -6.4844751238887115" fill="#ff7b0b" stroke="none" /><path d="M 83.4222238831116 112.89097897827486 l -13.344175372186408 10.376511480935328 a37.90381634062702,37.90381634062702 0 0,0 -0.395008345565342,-0.5170786042832669 l 13.520335695106045 -10.14591196341119" fill="#ffcf13" stroke="none" /><path d="M 83.20337586046588 112.60449989151573 l -10.035478653567187 7.530810271718355 a33.54686953605645,33.54686953605645 0 0,0 -0.3416956020498666,-0.46357570872112414 l 10.163276275200884 -7.357428253728352" fill="#ff960d" stroke="none" /><path d="M 82.98947788004972 112.3143062007846 l -11.055448739643298 8.003292315606108 a34.64828321525899,34.64828321525899 0 0,0 -0.3446430107393044,-0.48478355543152096 l 11.191206848912563 -7.812331533465082" fill="#ffa40f" stroke="none" /><path d="M 82.576782715395 111.72311816256416 l -7.398938743467134 4.978336190749381 a29.917854324763557,29.917854324763557 0 0,0 -0.2830450711552554,-0.4285663132290296 l 7.483308253543116 -4.85058999918129" fill="#ff6409" stroke="none" /><path d="M 82.37810715431573 111.42229804090323 l -11.940125411126806 7.739445034989747 a35.22904087713095,35.22904087713095 0 0,0 -0.32458076908157996,-0.5102948804290152 l 12.071223871834274 -7.53333647988206" fill="#ffac0f" stroke="none" /><path d="M 82.18462484594161 111.11811171558189 l -12.492760048386419 7.796406230731419 a35.72592963928415,35.72592963928415 0 0,0 -0.32022687893930696,-0.5230665407631176 l 12.62475489178113 -7.580802573843744" fill="#ffb310" stroke="none" /><path d="M 81.99639281039703 110.81064883170644 l -14.082965373911792 8.456416070572983 a37.426834341450075,37.426834341450075 0 0,0 -0.3260167594128178,-0.55364773155438 l 14.22605584345438 -8.213417170725045" fill="#ffc912" stroke="none" /><line stroke="#e1ed5e" stroke-width="0.3" x1="26.387840678322732" x2="22.057713659400548" y1="142.50000000000003" y2="145.00000000000006" /><path d="M 25.521815274538298 143.00000000000003 a86.0,86.0 0 0,1 -11.493303480769221,-40.785679425670985" fill="none" id="id21" stroke="none" /><text fill="#e1ed5e" style="font-size:6.75px; font-family:Arial;" text-anchor="middle"><textPath startOffset="21.40746469413373" xlink:href="#id21">September</textPath></text><path d="M 81.81346652052679 110.50000000000001 l -13.03839219708574 7.527719244787377 a36.05543848957474,36.05543848957474 0 0,0 -0.30486870882249834,-0.5386737965338871 l 13.165694270929617 -7.302788678154368" fill="#ffb711" stroke="none" /><path d="M 81.63589988554817 110.18625677009913 l -4.6208743621693555 2.563121114678705 a26.284133771912465,26.284133771912465 0 0,0 -0.21547313619845226,-0.39644630136003073 l 4.664192847983138 -2.4834199798440872" fill="#ff3104" stroke="none" /><path d="M 81.4637452351635 109.86951160357371 l -10.930505063929536 5.8198782833963385 a33.383332515366675,33.383332515366675 0 0,0 -0.26498724576370647,-0.5081479836299316 l 11.028800378668192 -5.631384056661904" fill="#ff940d" stroke="none" /><path d="M 81.29705330413844 109.54985784667822 l -9.408965962810345 4.804285062147719 a31.564553726859423,31.564553726859423 0 0,0 -0.24226559567276154,-0.4846934786342789 l 9.490051471694844 -4.642059727349687" fill="#ff7b0b" stroke="none" /><path d="M 81.1358732173502 109.22738970284198 l -4.763179236567013 2.3299096505603174 a26.30248577739132,26.30248577739132 0 0,0 -0.19491487400840468,-0.4072971209246692 l 4.802473368535329 -2.247800027570544" fill="#ff3104" stroke="none" /><path d="M 80.9802524753101 108.90220220490708 l -11.284893134935679 5.281899794808295 a33.45982658423922,33.45982658423922 0 0,0 -0.23902351385198414,-0.5223095146428318 l 11.373901113642718 -5.087401297950774" fill="#ff950d" stroke="none" /><path d="M 80.83023694016515 108.57439118712176 l -11.3055466302559 5.056827206965778 a33.384945942958325,33.384945942958325 0 0,0 -0.22950738308848892,-0.5251578068305718 l 11.390687895361358 -4.862007330359357" fill="#ff940d" stroke="none" /><path d="M 80.68587082218212 108.24405325689762 l -8.179695926109222 3.4914257960705855 a29.893676378926486,29.893676378926486 0 0,0 -0.19740382502605913,-0.47369731772332435 l 8.238425595671767 -3.35049596890598" fill="#ff6409" stroke="none" /><path d="M 80.5471966667186 107.91128576633889 l -12.076327506246617 4.9113372645041675 a34.03682936007969,34.03682936007969 0 0,0 -0.2154714854800435,-0.5431288998018171 l 12.158857666692784 -4.703307347488785" fill="#ff9c0e" stroke="none" /><path d="M 80.41425534168474 107.57618678355246 l -9.855809127991337 3.8124386976015363 a31.56748136456209,31.56748136456209 0 0,0 -0.19116261994437606,-0.5070815608879529 l 9.91980243175015 -3.6426888565194386" fill="#ff7b0b" stroke="none" /><path d="M 80.28708602549918 107.23885506374661 l -11.071156439072906 4.065481995923088 a32.79400901973541,32.79400901973541 0 0,0 -0.18951787420059435,-0.5301152239204255 l 11.139314483317444 -3.8748318156217416" fill="#ff8c0c" stroke="none" /><path d="M 80.16572619554312 106.89939002012753 l -6.241313200345524 2.171052715692469 a27.60813592165922,27.60813592165922 0 0,0 -0.1518639134363451,-0.4489586756255415 l 6.277662535354237 -2.0635923655927657" fill="#ff4406" stroke="none" /><path d="M 80.05021161711548 106.5578916946017 l -11.771866436851338 3.869646316770891 a33.39156979659823,33.39156979659823 0 0,0 -0.17432829739493713,-0.5460809086574796 l 11.83655945002353 -3.66699637442202" fill="#ff940d" stroke="none" /><path d="M 79.94057633289273 106.21446072829308 l -14.122082088161577 4.375057130007124 a35.78425944697942,35.78425944697942 0 0,0 -0.17674643218026598,-0.5883313890664479 l 14.195104840345472 -4.1319881373499525" fill="#ffb310" stroke="none" /><path d="M 79.83685265289637 105.86919833188381 l -6.814694945523636 1.983658380213629 a28.097532512777743,28.097532512777743 0 0,0 -0.1308294808610982,-0.46426767332437274 l 6.847742918459309 -1.8663827829862607" fill="#ff4b06" stroke="none" /><path d="M 79.73907114497094 105.5222062557868 l -6.8486146395699 1.8666203744513237 a28.098436032229067,28.098436032229067 0 0,0 -0.12284438098542665,-0.4664601236889888 l 6.879648501360059 -1.7487797463895323" fill="#ff4b06" stroke="none" /><path d="M 79.64726062577567 105.17358676015961 l -9.672459747532026 2.4587014439630215 a30.980064646993682,30.980064646993682 0 0,0 -0.126594094097317,-0.516547104257589 l 9.713241368145635 -2.292298515097333" fill="#ff730a" stroke="none" /><path d="M 79.56144815229197 104.8234425847677 l -16.045348005468878 3.786658440073141 a37.48611460467205,37.48611460467205 0 0,0 -0.14242784704082675,-0.6275633737633107 l 16.10798671406737 -3.510660732370804" fill="#ffca12" stroke="none" /><path d="M 79.48165901384964 104.47187691870673 l -7.459387123336193 1.6257387050474112 a28.634492949298142,28.634492949298142 0 0,0 -0.10055109806975111,-0.4811734041710124 l 7.486195932230312 -1.4974488495909897" fill="#ff5207" stroke="none" /><path d="M 79.407916724674 104.11899336999214 l -5.180824202446368 1.0363099379333471 a26.28345319881926,26.28345319881926 0 0,0 -0.08469993950440488,-0.4431858742747059 l 5.1978504342329295 -0.9472214986253268" fill="#ff3104" stroke="none" /><path d="M 79.34024301695615 103.76489593502545 l -14.4353283559927 2.630597692549792 a35.67306201736281,35.67306201736281 0 0,0 -0.10461581118810154,-0.6033961983630023 l 14.478358984673035 -2.382408461266197" fill="#ffb210" stroke="none" /><path d="M 79.2786578344484 103.40968896794605 l -7.606530488349393 1.2516516972335685 a28.70882209169316,28.70882209169316 0 0,0 -0.0758439339102418,-0.48697246247088444 l 7.6268959143979025 -1.1208910528312341" fill="#ff5307" stroke="none" /><path d="M 79.22317932658666 103.0534771498775 l -9.34435468917641 1.3732983487826036 a30.444729372083785,30.444729372083785 0 0,0 -0.07155306364309123,-0.5177223244026374 l 9.366552269374713 -1.2126877161798806" fill="#ff6b09" stroke="none" /><path d="M 79.17382384314188 102.69636545807758 l -10.482664089248486 1.3571907365996292 a31.57015672085952,31.57015672085952 0 0,0 -0.06497125285386095,-0.5380551767102316 l 10.504417428362009 -1.177041882965998" fill="#ff7b0b" stroke="none" /><path d="M 79.13060592940153 102.33845913500099 l -14.583478762384274 1.6341092135509403 a35.67474584906755,35.67474584906755 0 0,0 -0.06297035606902612,-0.6091810728657804 l 14.609381510934966 -1.3835236184022284" fill="#ffb210" stroke="none" /><path d="M 79.0935383218832 101.97986365728391 l -12.978030529509176 1.2290329843519856 a34.036095983901674,34.036095983901674 0 0,0 -0.050092020208303535,-0.5821452050913923 l 12.99721617241522 -1.0060667318849312" fill="#ff9c0e" stroke="none" /><path d="M 79.06263194458094 101.62068470465958 l -7.078575425020237 0.5479265059363658 a28.099750242340082,28.099750242340082 0 0,0 -0.033098881583165145,-0.4812504740132474 l 7.086938267768469 -0.42633260776877513" fill="#ff4b06" stroke="none" /><path d="M 79.03789590574601 101.26102812881392 l -14.64999778876706 0.8813074878185041 a35.676482483857114,35.676482483857114 0 0,0 -0.031528514699086393,-0.6116447622518835 l 14.662967892922719 -0.6296909321898898" fill="#ffb210" stroke="none" /><path d="M 79.01933749520258 100.90099992219065 l -23.689086352664617 1.0173112958486377 a44.710920152888676,44.710920152888676 0 0,0 -0.026348172930996575,-0.7670983065076016 l 23.703059212592464 -0.6105067247769163" fill="#dbff1b" stroke="none" /><line stroke="#e1ed5e" stroke-width="0.3" x1="15.003131293944662" x2="10.003315487706104" y1="100.72959589197737" y2="100.7725132973878" /><path d="M 14.003168132696942 100.73817937305945 a86.0,86.0 0 0,1 10.791469493833604,-42.45332614584628" fill="none" id="id22" stroke="none" /><text fill="#e1ed5e" style="font-size:6.75px; font-family:Arial;" text-anchor="middle"><textPath startOffset="22.145653131862435" xlink:href="#id22">October</textPath></text><path d="M 79.00077361379809 100.18025310272382 l -5.872877155522332 0.050411587061813604 a26.873093512959432,26.873093512959432 0 0,0 0.0,-0.46132937957126013 l 5.872877155522332 0.050411587061811446" fill="#ff3905" stroke="none" /><path d="M 79.00077361379809 99.81974689727619 l -4.698738213838707 -0.04033301638616059 a25.698911315868706,25.698911315868706 0 0,0 0.007573308119908053,-0.4411072304782235 l 4.697353474120134 0.12098716283343647" fill="#ff2803" stroke="none" /><path d="M 79.00696218219943 99.45929381324524 l -9.771613576634406 -0.2516821034344519 a30.77485425836391,30.77485425836391 0 0,0 0.018135640670169654,-0.5279993903923886 l 9.765853248967385 0.419387758390979" fill="#ff700a" stroke="none" /><path d="M 79.01933749520258 99.09900007780938 l -13.024003991057928 -0.5593067702161608 a34.03600797876031,34.03600797876031 0 0,0 0.030078771872822922,-0.5835201387242379 l 13.012483629728536 0.7827987023171107" fill="#ff9c0e" stroke="none" /><path d="M 79.03789590574601 98.7389718711861 l -5.868544806508108 -0.353037082677214 a26.87915413369462,26.87915413369462 0 0,0 0.03166113335720511,-0.46034593035012994 l 5.86161971198584 0.45372643718166894" fill="#ff3905" stroke="none" /><path d="M 79.06263194458094 98.37931529534042 l -19.94790373355055 -1.5440939083372367 a41.007575799200765,41.007575799200765 0 0,0 0.06035217190004746,-0.7013837202485389 l 19.91845793895276 1.8862986759614562" fill="#fff617" stroke="none" /><path d="M 79.0935383218832 98.0201363427161 l -6.1136980598470245 -0.5789735626554176 a27.14105156738088,27.14105156738088 0 0,0 0.04790732605402856,-0.4634599215499546 l 6.1028583413113315 0.683838006488285" fill="#ff3d05" stroke="none" /><path d="M 79.13060592940154 97.66154086499901 l -5.255415500487151 -0.5888802685773217 a26.28830521561306,26.28830521561306 0 0,0 0.054101224151803656,-0.4480357456968821 l 5.244532190075678 0.67900969119764" fill="#ff3104" stroke="none" /><path d="M 79.17382384314186 97.30363454192245 l -8.843567044362414 -1.1449768082730556 a29.9173790970002,29.9173790970002 0 0,0 0.07031365279683635,-0.5087545649309378 l 8.822608875010369 1.2966196814040605" fill="#ff6409" stroke="none" /><path d="M 79.22317932658666 96.9465228501225 l -12.897687247066235 -1.8955158690654959 a34.03623092511843,34.03623092511843 0 0,0 0.08991806214109166,-0.5773384618113068 l 12.863247692786876 2.1166425128082524" fill="#ff9c0e" stroke="none" /><path d="M 79.2786578344484 96.59031103205396 l -15.107866193804613 -2.485993632973205 a36.31103475513943,36.31103475513943 0 0,0 0.10648674773528974,-0.6141872631851442 l 15.062964628577088 2.7449739290789417" fill="#ffba11" stroke="none" /><path d="M 79.34024301695615 96.23510406497455 l -7.584269699963608 -1.3821065846498033 a28.709174112258616,28.709174112258616 0 0,0 0.09251696465207572,-0.48408785300774976 l 7.5594264430293725 1.5120970026908676" fill="#ff5307" stroke="none" /><path d="M 79.407916724674 95.88100663000787 l -4.727639582509677 -0.9456603217705006 a25.82129126544781,25.82129126544781 0 0,0 0.09067243463737638,-0.43390042353068065 l 4.710709437047934 1.0266771965865904" fill="#ff2a04" stroke="none" /><path d="M 79.48165901384962 95.52812308129327 l -5.162861599601604 -1.1252216559477002 a26.28405750078995,26.28405750078995 0 0,0 0.09986582394080518,-0.4400272467643155 l 5.142784914103138 1.213683236651024" fill="#ff3104" stroke="none" /><path d="M 79.56144815229197 95.17655741523228 l -4.681958577554461 -1.1049294759905959 a25.810572239229824,25.810572239229824 0 0,0 0.10546995456562282,-0.43035340633798747 l 4.6623010964725395 1.1851387069367012" fill="#ff2a04" stroke="none" /><path d="M 79.73907114497095 94.47779374421319 l -59.58387569063562 -16.239850277208824 a82.75735566993845,82.75735566993845 0 0,0 0.38533995377746283,-1.3674355550575565 l 59.29631724478358 17.260293756169393" fill="#4bddff" stroke="none" /><path d="M 80.05021161711548 93.44210830539832 l -5.6296758189916005 -1.850586261272757 a26.926037406003292,26.926037406003292 0 0,0 0.1481118980800572,-0.4378665089141054 l 5.597078499339179 1.946954444661024" fill="#ff3a05" stroke="none" /><path d="M 80.41425534168474 92.42381321644754 l -8.216736475529304 -3.17841018433829 a29.810053893603552,29.810053893603552 0 0,0 0.18871371733079473,-0.47568184459784885 l 8.160964083232379 3.3189930461497217" fill="#ff6309" stroke="none" /><path d="M 80.5471966667186 92.08871423366112 l -9.916486627619301 -4.032948781986202 a31.705203543785444,31.705203543785444 0 0,0 0.20936630120159497,-0.5024029057580681 l 9.845794481881228 4.202584197185534" fill="#ff7d0b" stroke="none" /><path d="M 80.68587082218212 91.75594674310238 l -18.893211738311518 -8.064388631270441 a41.54234197419652,41.54234197419652 0 0,0 0.28558603060656806,-0.6534767268771051 l 18.751991825687973 8.387527427923413" fill="#fffd17" stroke="none" /><path d="M 80.9802524753101 91.09779779509293 l -8.07730874851137 -3.780588341531387 a29.91828261645152,29.91828261645152 0 0,0 0.22170977815892673,-0.4632881650739746 l 8.01121971239254 3.918689008670449" fill="#ff6409" stroke="none" /><path d="M 81.1358732173502 90.77261029715801 l -3.8036182332235513 -1.8605402796099606 a25.234279371529677,25.234279371529677 0 0,0 0.19367920662582153,-0.3874881538086684 l 3.7711191133859856 1.925560289582399" fill="#ff2203" stroke="none" /><path d="M 81.46374523516351 90.13048839642627 l -7.93890312705324 -4.227018754658924 a29.994101979240284,29.994101979240284 0 0,0 0.24588686380179198,-0.4524041345806526 l 7.8651709136360966 4.362677722714197" fill="#ff6509" stroke="none" /><path d="M 81.63589988554816 89.8137432299009 l -12.92859440672133 -7.171273380267215 a35.78430638305481,35.78430638305481 0 0,0 0.3025761366420662,-0.5346230411610867 l 12.803584905057896 7.392153191527408" fill="#ffb310" stroke="none" /><line stroke="#e1ed5e" stroke-width="0.3" x1="26.387840678322718" x2="22.05771365940052" y1="57.49999999999999" y2="54.99999999999999" /><path d="M 25.521815274538284 56.99999999999999 a86.0,86.0 0 0,1 29.574782752854787,-30.34633250058573" fill="none" id="id23" stroke="none" /><text fill="#e1ed5e" style="font-size:6.75px; font-family:Arial;" text-anchor="middle"><textPath startOffset="21.40746469413373" xlink:href="#id23">November</textPath></text><path d="M 81.81346652052679 89.5 l -10.414579616299172 -6.012860344967118 a33.02572068993423,33.02572068993423 0 0,0 0.2876796455285644,-0.4885429308852786 l 10.309826260640827 6.190754444145969" fill="#ff8f0d" stroke="none" /><path d="M 82.18462484594161 88.88188828441811 l -7.726303391491428 -4.821784751218796 a30.107435000287296,30.107435000287296 0 0,0 0.2773931439561458,-0.43610809607562523 l 7.642392555909392 4.953706521973093" fill="#ff6709" stroke="none" /><path d="M 82.37810715431573 88.57770195909679 l -5.03161892635074 -3.261434597765305 a26.996177503669443,26.996177503669443 0 0,0 0.25540384345414857,-0.38671397147781644 l 4.974890643975863 3.347328447582183" fill="#ff3b05" stroke="none" /><path d="M 82.576782715395 88.27688183743585 l -7.408990591167964 -4.985099522482204 a29.9299696992245,29.9299696992245 0 0,0 0.29047785721469727,-0.42381587471217746 l 7.322322997137953 5.111550132264417" fill="#ff6409" stroke="none" /><path d="M 82.78059297857968 87.97951657250589 l -12.029264327005427 -8.397360739997655 a35.67033972498999,35.67033972498999 0 0,0 0.35480930470747374,-0.49908372105762494 l 11.88333992376798 8.6026216877648" fill="#ffb210" stroke="none" /><path d="M 82.98947788004972 87.6856937992154 l -7.222001368454983 -5.228172045897199 a29.915777403427395,29.915777403427395 0 0,0 0.3047106842463405,-0.41339856456151125 l 7.1311886646248235 5.351376919727573" fill="#ff6409" stroke="none" /><path d="M 83.2033758604659 87.39550010848427 l -11.098958412872484 -8.32886530941147 a34.87648641382215,34.87648641382215 0 0,0 0.3634595280235411,-0.4757801893904036 l 10.954346907494637 8.518166412042758" fill="#ffa70f" stroke="none" /><path d="M 83.64595745247003 86.82634096563983 l -7.164860255153315 -5.771504247705674 a30.20029802545332,30.20029802545332 0 0,0 0.3286844844599372,-0.4009416276915189 l 7.064728951454748 5.8936481570956865" fill="#ff6809" stroke="none" /><path d="M 83.8745106332314 86.54754324733833 l -11.26737815954412 -9.39964759888251 a35.6733495008246,35.6733495008246 0 0,0 0.39632316078348295,-0.4668676868625298 l 11.104360435253522 9.591682068194595" fill="#ffb210" stroke="none" /><path d="M 84.10781606972428 86.27271002978789 l -4.448909414815959 -3.8428619915504485 a26.87880798013859,26.87880798013859 0 0,0 0.30461232920259407,-0.34659291371853224 l 4.382286021654773 3.918667183080281" fill="#ff3905" stroke="none" /><path d="M 84.58840730492382 85.73525988315684 l -7.414897397089038 -6.863118332755102 a31.10361799845763,31.10361799845763 0 0,0 0.3660513208578241,-0.3887338176342293 l 7.295990242494942 6.989393610333843" fill="#ff750a" stroke="none" /><path d="M 85.08716467003674 85.21462403516908 l -4.17293919327464 -4.137273260637273 a26.876261698048495,26.876261698048495 0 0,0 0.3276447691143644,-0.3248444032995317 l 4.1013025040303 4.208297674165478" fill="#ff3905" stroke="none" /><path d="M 85.34317274990677 84.96080404539775 l -8.868246621082012 -9.099602283116441 a33.70624098005506,33.70624098005506 0 0,0 0.41784104405537487,-0.4002822682582418 l 8.710733091161336 9.250496681680252" fill="#ff980e" stroke="none" /><path d="M 85.60350026404147 84.71141617570332 l -4.827639180804716 -5.1267855133453155 a28.04201886960609,28.04201886960609 0 0,0 0.35328968310238673,-0.3269996563708511 l 4.738919726388376 5.208902915848532" fill="#ff4a06" stroke="none" /><path d="M 86.40962598614128 83.9905735841838 l -40.77112204157617 -48.0282792474486 a84.0,84.0 0 0,0 1.107302663352364,-0.9237512643524726 l 39.940645044061895 48.721092695712954" fill="#4dd2ff" stroke="none" /><path d="M 87.25179093698888 83.31218511350988 l -4.27521006951789 -5.596387217085822 a28.04251169839772,28.04251169839772 0 0,0 0.38504640150801167,-0.2889459980599968 l 4.1785106790991255 5.66895224240982" fill="#ff4a06" stroke="none" /><path d="M 87.83215693770416 82.88440491214696 l -1.3599371941334035 -1.9129219731493277 a23.347061918089285,23.347061918089285 0 0,0 0.32864314807891604,-0.2294184410722108 l 1.326898954880722 1.9359852300266651" fill="#ff0600" stroke="none" /><path d="M 88.12776184653039 82.6780497279521 l -5.042477398890118 -7.357125221243458 a29.91929760908191,29.91929760908191 0 0,0 0.42614157011463194,-0.2867270664671466 l 4.915439540678497 7.442601961767714" fill="#ff6409" stroke="none" /><path d="M 88.72937992617638 82.28071324371311 l -20.097679818615322 -31.596890810752903 a58.447032499227745,58.447032499227745 0 0,0 0.8511999573361009,-0.5312117278543786 l 19.552315732489525 31.937238335448818" fill="#44ff2d" stroke="none" /><line stroke="#e1ed5e" stroke-width="0.3" x1="56.869717070023135" x2="54.33264160355391" y1="26.7553504044142" y2="22.446841604673864" /><path d="M 56.362301976729285 25.89364864446614 a86.0,86.0 0 0,1 42.16139366436587,-11.88097634709845" fill="none" id="id24" stroke="none" /><text fill="#e1ed5e" style="font-size:6.75px; font-family:Arial;" text-anchor="middle"><textPath startOffset="22.145653131862474" xlink:href="#id24">December</textPath></text><path d="M 89.65649057296885 81.72400993836675 l -5.206440311115958 -9.19928115826673 a31.57042073628361,31.57042073628361 0 0,0 0.47394088664145245,-0.2628870206048984 l 5.047755236318403 9.287301094304775" fill="#ff7b0b" stroke="none" /><path d="M 90.28995756902619 81.37971332152246 l -4.253323269576835 -8.156308191108211 a30.198702198889944,30.198702198889944 0 0,0 0.46171339122103544,-0.23575414739562436 l 4.1126826566422165 8.228120290176669" fill="#ff6809" stroke="none" /><path d="M 90.93487009805054 81.0573650232925 l -5.023565253703834 -10.497319278581836 a32.63743613923214,32.63743613923214 0 0,0 0.5074519642741303,-0.2375131420320575 l 4.842624575558181 10.582008652184436" fill="#ff890c" stroke="none" /><path d="M 91.5904679813234 80.7573450057729 l -1.5644042416883528 -3.5796630570474695 a24.906577560141734,24.906577560141734 0 0,0 0.39324511983286764,-0.16785295785639467 l 1.502724046685054 3.6059906645632682" fill="#ff1d02" stroke="none" /><path d="M 91.92203290615298 80.6158196554323 l -2.9650823646468756 -7.115118274818352 a28.70821778972247,28.70821778972247 0 0,0 0.4565229170500496,-0.18566389603530492 l 2.8425049864063854 7.164969427432948" fill="#ff5307" stroke="none" /><path d="M 92.592206182469 80.34994680014964 l -3.5919912321712566 -9.528183497564779 a31.182763955589905,31.182763955589905 0 0,0 0.5025040763800138,-0.1845264572534565 l 3.427898004137116 9.588440803826957" fill="#ff760a" stroke="none" /><path d="M 92.93061703081487 80.22567764915836 l -4.170451201119719 -11.665494253015686 a33.38856002076363,33.38856002076363 0 0,0 0.5413624746094736,-0.18831397062557598 l 3.969582954465241 11.735366656209846" fill="#ff940d" stroke="none" /><path d="M 93.95794788825049 79.88797359093562 l -5.080522050003576 -16.911405554216454 a38.658067338181596,38.658067338181596 0 0,0 0.6371953785613578,-0.18547828811426517 l 4.789466659060594 16.99612753663324" fill="#ffd914" stroke="none" /><path d="M 94.6519064749342 79.69241777938228 l -1.0461809463395222 -3.972519456860486 a25.107968525636363,25.107968525636363 0 0,0 0.41774244289148343,-0.10618849541390032 l 0.9778332102226606 3.989893184109649" fill="#ff2003" stroke="none" /><path d="M 95.35216902796891 79.52079915486377 l -2.944719619618041 -12.974977981270616 a34.30493995674617,34.30493995674617 0 0,0 0.5754042451614532,-0.1254066771090425 l 2.7215529578374693 13.023616116513372" fill="#ffa00e" stroke="none" /><path d="M 95.70440661134978 79.44403061299748 l -2.5800901212854215 -12.34666523348853 a33.613366220870184,33.613366220870184 0 0,0 0.5658306234386647,-0.11318197169856027 l 2.36776301231578 12.389136601849955" fill="#ff970d" stroke="none" /><path d="M 96.05791012581881 79.37332000966035 l -2.3248611571509565 -12.164655967029187 a33.384822735760416,33.384822735760416 0 0,0 0.5638303357585627,-0.10274866935190487 l 2.1156960878413553 12.202772810312453" fill="#ff940d" stroke="none" /><path d="M 96.76829788921471 79.25015418208739 l -2.710267502535674 -17.401861581000944 a38.61165342662686,38.61165342662686 0 0,0 0.6558003527740384,-0.09638006813234376 l 2.4111420441539506 17.445822722432172" fill="#ffd814" stroke="none" /><path d="M 97.12497278360702 79.19773525538626 l -0.4869560548562996 -3.5233714360527872 a24.556862729394247,24.556862729394247 0 0,0 0.41807728812103867,-0.05412847514617517 l 0.4264009448444669 3.531211507399357" fill="#ff1802" stroke="none" /><path d="M 97.48249496171623 79.15144685158666 l -1.2663217909606692 -10.486961003198404 a31.56313977758819,31.56313977758819 0 0,0 0.5384733245269324,-0.0603370591611169 l 1.0861125648329373 10.507153822866492" fill="#ff7b0b" stroke="none" /><path d="M 98.1996594967304 79.07731436759882 l -2.515313664980239 -29.231757539025804 a50.339775930528646,50.339775930528646 0 0,0 0.8616036316904876,-0.06669357025504562 l 2.013141038514534 29.2706288762759" fill="#9aff23" stroke="none" /><path d="M 98.5590905019552 79.04949213459386 l -1.1520391883305041 -16.75039696047846 a37.78996702275068,37.78996702275068 0 0,0 0.6475682412316199,-0.03895609733869459 l 0.8643265949664004 16.76770503564185" fill="#ffce13" stroke="none" /><path d="M 98.9189461498227 79.02784411241856 l -0.39691486050599634 -7.700042257158818 a28.710265376011513,28.710265376011513 0 0,0 0.49241419022635985,-0.02114638405617908 l 0.26467490967881635 7.705721209640825" fill="#ff5307" stroke="none" /><path d="M 99.27912038922189 79.0123766808444 l -0.21144117045537666 -6.155878975254755 a27.15950917902937,27.15950917902937 0 0,0 0.46609169069026696,-0.0120048686111331 l 0.10573616569436581 6.158601561215933" fill="#ff3d05" stroke="none" /><path d="M 99.63950707515114 79.00309439819443 l -0.1612376944864587 -9.391287365776632 a30.392671397462976,30.392671397462976 0 0,0 0.5217306193353085,-0.00447842988077919 l 2.3005409924691862e-15 9.392671397462976" fill="#ff6b09" stroke="none" /></svg>