<?xml version="1.0" encoding="utf-8" ?>
<svg baseProfile="full" height="200mm" version="1.1" viewBox="0,0,200,200" width="200mm" xmlns="http://www.w3.org/2000/svg" xmlns:ev="http://www.w3.org/2001/xml-events" xmlns:xlink="http://www.w3.org/1999/xlink"><defs /><rect fill="#1a1a1a" height="200" width="200" x="0" y="0" /><text alignment-baseline="middle" fill="#e1ed5e" style="dominant-baseline: central; font-size:9.0px; font-family:Arial;" text-anchor="middle" x="100.0" y="100.0">2020</text><line stroke="#e1ed5e" stroke-width="0.3" x1="100.0" x2="100.0" y1="15.0" y2="10.0" /><path d="M 100.0 14.0 a86.0,86.0 0 0,1 42.35913384403234,11.155469271406648" fill="none" id="id61" stroke="none" /><text fill="#e1ed5e" style="font-size:6.75px; font-family:Arial;" text-anchor="middle"><textPath startOffset="22.145653131862478" xlink:href="#id61">January</textPath></text><path d="M 100.0 79.0 l 0.0 -12.012445711733712 a33.01244571173371,33.01244571173371 0 0,0 0.5667025290969961,0.004864459638298539 l -0.20620960424814136 12.010675650289848" fill="#ff8d0c" stroke="none" /><path d="M 101.08105385017728 79.02784411241856 l 0.1602229750546191 -3.108282912147731 a24.112409687635118,24.112409687635118 0 0,0 0.413189848085306,0.024856475219906794 l -0.21355717527238746 3.105074459103133" fill="#ff0f01" stroke="none" /><path d="M 101.44090949804482 79.04949213459386 l 1.7608886749840689 -25.602934872326678 a46.66341760175929,46.66341760175929 0 0,0 0.7986799569439716,0.06182287987253628 l -2.200137626703274 25.56893422545909" fill="#c5ff1e" stroke="none" /><path d="M 103.58742460773223 79.30868818359171 l 0.6553777414182005 -3.7800446526427964 a24.836438134509642,24.836438134509642 0 0,0 0.4194581880294587,0.07643925474638176 l -0.7201706629987129 3.768237223965049" fill="#ff1902" stroke="none" /><path d="M 104.29559338865022 79.4440306129975 l 1.5632527585464904 -7.4807303535138026 a28.64232201684056,28.64232201684056 0 0,0 0.4804239185537375,0.10470615699511111 l -1.691439093719362 7.452792738384972" fill="#ff5007" stroke="none" /><path d="M 104.9986988182912 79.60360301121754 l 2.495976753243968 -10.184436907390927 a31.48583115796553,31.48583115796553 0 0,0 0.5238563211901003,0.13316222832231497 l -2.6704383676594627 10.140089447233343" fill="#ff780b" stroke="none" /><path d="M 105.3480935250658 79.69241777938227 l 2.7549558677632224 -10.461016161471584 a31.817700354691503,31.817700354691503 0 0,0 0.526989902992787,0.143633441480691 l -2.9341271716907023 10.41218222584675" fill="#ff7c0b" stroke="none" /><path d="M 106.04205211174951 79.88797359093562 l 2.070334575653992 -6.8914704625239525 a28.195738349258434,28.195738349258434 0 0,0 0.4623555530317972,0.14323893220999415 l -2.188330761557419 6.854914942507311" fill="#ff4a06" stroke="none" /><path d="M 106.72888874123014 80.10723608172694 l 3.4294958051424684 -10.138694966434375 a31.703017196094358,31.703017196094358 0 0,0 0.5140330649536979,0.17880738328620696 l -3.6030346421411847 10.078329150579577" fill="#ff7b0b" stroke="none" /><path d="M 108.07796709384702 80.6158196554323 l 5.729568581470034 -13.748878819323314 a35.89495300154404,35.89495300154404 0 0,0 0.5667384473198999,0.24190694280965883 l -5.964742103960364 13.648497226854253" fill="#ffb310" stroke="none" /><path d="M 108.4095320186766 80.7573450057729 l 5.599090410543864 -12.81181459471227 a34.98185991328502,34.98185991328502 0 0,0 0.548193392411617,0.24519993168726398 l -5.818197205811113 12.713810912115155" fill="#ffa70f" stroke="none" /><path d="M 109.06512990194946 81.05736502329252 l 7.520339229582998 -15.714616609781768 a38.42138563147128,38.42138563147128 0 0,0 0.5924939021857932,0.289818457807137 l -7.788993381030858 15.58320440187741" fill="#ffd413" stroke="none" /><path d="M 109.71004243097381 81.37971332152246 l 1.8067241520571844 -3.4646317870786194 a24.907419299443347,24.907419299443347 0 0,0 0.37741997099888425,0.2009548762924972 l -1.8659329388426282 3.433106443063549" fill="#ff1a02" stroke="none" /><line stroke="#e1ed5e" stroke-width="0.3" x1="143.13028292997686" x2="145.6673583964461" y1="26.7553504044142" y2="22.446841604673864" /><path d="M 143.63769802327073 25.89364864446614 a86.0,86.0 0 0,1 29.32050498858742,28.57503671076993" fill="none" id="id62" stroke="none" /><text fill="#e1ed5e" style="font-size:6.75px; font-family:Arial;" text-anchor="middle"><textPath startOffset="20.669276256404974" xlink:href="#id62">February</textPath></text><path d="M 110.65571695917076 81.90426304109057 l 2.662768749819141 -4.521963474044933 a26.247712937614814,26.247712937614814 0 0,0 0.3863003944904943,0.23196228757968956 l -2.7400019008670693 4.475587185929322" fill="#ff2e04" stroke="none" /><path d="M 111.27062007382361 82.28071324371311 l 5.292916163230881 -8.321343338606237 a30.862034093936053,30.862034093936053 0 0,0 0.4445813681518928,0.2881722715563497 l -5.434983163639782 8.229257225345993" fill="#ff6f0a" stroke="none" /><path d="M 111.5731344415666 82.4767994020092 l 4.148537041456059 -6.281413832412829 a28.52771674004543,28.52771674004543 0 0,0 0.4063212366221386,0.27339106154001575 l -4.255754566175199 6.209273096815694" fill="#ff4e07" stroke="none" /><path d="M 111.8722381534696 82.67804972795209 l 6.088435777439281 -8.883209754391544 a31.76942272160025,31.76942272160025 0 0,0 0.4471998717657534,0.3121802417847911 l -6.240030740378798 8.777384696801626" fill="#ff7c0b" stroke="none" /><path d="M 112.16784306229584 82.88440491214696 l 3.5289515192832046 -4.963912254578241 a27.090478117241968,27.090478117241968 0 0,0 0.37671114515634263,0.27270981795807386 l -3.613643674813513 4.902601665247092" fill="#ff3a05" stroke="none" /><path d="M 112.7482090630111 83.31218511350987 l 7.6130204958186685 -9.96568821026767 a33.54085414052899,33.54085414052899 0 0,0 0.4545425493730931,0.3534550356685481 l -7.7829729898269875 9.833532122978331" fill="#ff940d" stroke="none" /><path d="M 113.31354834802062 83.75963576809568 l 8.191271624303647 -9.992019499514704 a33.92042508982596,33.92042508982596 0 0,0 0.447144964809653,0.373024232905972 l -8.361590923275193 9.849933082696863" fill="#ff990e" stroke="none" /><path d="M 113.86319453409587 84.22622945171908 l 9.111477038440395 -10.367188298974717 a34.8020870540808,34.8020870540808 0 0,0 0.4453589490937596,0.3982427184992003 l -9.28810101435753 10.209250050592132" fill="#ffa50f" stroke="none" /><path d="M 114.39649973595853 84.71141617570332 l 8.82474907544407 -9.371577705886603 a33.87255471699467,33.87255471699467 0 0,0 0.4199027603269724,0.4022573458085225 l -8.984324321636354 9.2187082297725" fill="#ff980e" stroke="none" /><path d="M 114.65682725009322 84.96080404539774 l 8.898042303727676 -9.130175278367286 a33.74893162004709,33.74893162004709 0 0,0 0.4114285324625452,0.40791207040923927 l -9.053462756320183 8.976083197729388" fill="#ff960d" stroke="none" /><path d="M 114.91283532996326 85.21462403516908 l 2.430442551171725 -2.40966966273645 a24.422507688531688,24.422507688531688 0 0,0 0.2926202515919215,0.30025415657047816 l -2.4714496039144582 2.367592814098232" fill="#ff1302" stroke="none" /><path d="M 115.41159269507618 85.73525988315684 l 3.0214801113675818 -2.7966368830029493 a25.117100911899332,25.117100911899332 0 0,0 0.2901650680673025,0.3189422392442709 l -3.0690428802767618 2.7443570682010066" fill="#ff1d03" stroke="none" /><path d="M 115.6541949942343 86.00192230759917 l 2.493171385153066 -2.2294092262615424 a24.344573074980744,24.344573074980744 0 0,0 0.27589233545224173,0.31391483288716404 l -2.531074784563896 2.1862821155630807" fill="#ff1202" stroke="none" /><path d="M 115.8921839302757 86.27271002978787 l 2.979290889360426 -2.5734405115931858 a24.93684775805911,24.93684775805911 0 0,0 0.2770429595690768,0.3263559097577648 l -3.0230284124366174 2.5219178193858687" fill="#ff1b02" stroke="none" /><path d="M 116.1254893667686 86.54754324733833 l 9.184658443829893 -7.662168737540153 a32.961052649844554,32.961052649844554 0 0,0 0.3587311154459541,0.4375936319805919 l -9.314836378514475 7.503372823861066" fill="#ff8c0c" stroke="none" /><path d="M 116.35404254752997 86.82634096563983 l 9.980957615489054 -8.039952940119521 a33.816409723535116,33.816409723535116 0 0,0 0.3602793357301901,0.45520117129776794 l -10.117503381860804 7.867431824907075" fill="#ff970e" stroke="none" /><path d="M 116.57777611688842 87.10902102172516 l 14.695834162001896 -11.427569531330946 a39.61603843760711,39.61603843760711 0 0,0 0.4128519846250521,0.540436500600943 l -14.889838123981255 11.17361211748912" fill="#ffe315" stroke="none" /><path d="M 116.7966241395341 87.39550010848427 l 2.411302958010582 -1.8094866932885347 a24.01473449054786,24.01473449054786 0 0,0 0.2446049146551824,0.33185354446381554 l -2.4420098922495903 1.767826839555844" fill="#ff0d01" stroke="none" /><path d="M 117.01052211995028 87.68569379921539 l 10.789849310562543 -7.811018811395556 a34.32039275008895,34.32039275008895 0 0,0 0.34138151704835157,0.4801958561071508 l -10.922345926140856 7.624645728578901" fill="#ff9e0e" stroke="none" /><path d="M 117.21940702142032 87.97951657250589 l 10.923055450662826 -7.625141031799688 a34.321258053693356,34.321258053693356 0 0,0 0.3330964112739233,0.4859976187555119 l -11.052341598752074 7.436508677974127" fill="#ff9e0e" stroke="none" /><path d="M 117.42321728460499 88.27688183743584 l 11.061257803981528 -7.4425078987701 a34.332004651566756,34.332004651566756 0 0,0 0.3248062041488727,0.49179799124515783 l -11.187388447051125 7.251530029185884" fill="#ff9e0e" stroke="none" /><path d="M 117.62189284568427 88.57770195909679 l 11.197272938849657 -7.2579370373486505 a34.343783994999775,34.343783994999775 0 0,0 0.3164245050311606,0.4974718786223058 l -11.320215135506709 7.064651484047673" fill="#ff9e0e" stroke="none" /><path d="M 117.81537515405839 88.88188828441811 l 11.404005101422399 -7.116942619858149 a34.44255201245736,34.44255201245736 0 0,0 0.30872341307883466,0.5042764937990554 l -11.524496478956635 6.920129009934539" fill="#ffa00e" stroke="none" /><line stroke="#e1ed5e" stroke-width="0.3" x1="172.87174338648825" x2="177.1583165268699" y1="56.24261187166439" y2="53.66864786411523" /><path d="M 173.72905801456457 55.72781907015455 a86.0,86.0 0 0,1 12.242430191666344,42.057860355516425" fill="none" id="id63" stroke="none" /><text fill="#e1ed5e" style="font-size:6.75px; font-family:Arial;" text-anchor="middle"><textPath startOffset="22.145653131862474" xlink:href="#id63">March</textPath></text><path d="M 118.00360718960297 89.18935116829356 l 5.375540387586514 -3.2278575509252985 a27.27020723960853,27.27020723960853 0 0,0 0.23754465877780653,0.40340276282747567 l -5.430158756494088 3.1351036198042666" fill="#ff3c05" stroke="none" /><path d="M 118.53625476483649 90.13048839642627 l 11.819373980853097 -6.293150915917289 a34.39034539322186,34.39034539322186 0 0,0 0.2729806229626081,0.5234763383751085 l -11.925662672790649 6.089328334437682" fill="#ff9f0e" stroke="none" /><path d="M 118.8641267826498 90.77261029715802 l 12.002469277045542 -5.871009174808467 a34.36143770247451,34.36143770247451 0 0,0 0.2546358301344448,0.5320909500911193 l -12.1014843651399 5.664105722652244" fill="#ff9f0e" stroke="none" /><path d="M 119.0197475246899 91.09779779509293 l 17.473175839634575 -8.178328565318854 a40.29240607195224,40.29240607195224 0 0,0 0.28783270757911866,0.6289664115936144 l -17.610993012068743 7.877173171510554" fill="#ffec16" stroke="none" /><path d="M 119.16976305983485 91.42560881287824 l 7.145223743357021 -3.1959676968266826 a28.827415401126515,28.827415401126515 0 0,0 0.19817628823546843,0.4534661303485684 l -7.19903391360946 3.0728394967022647" fill="#ff5307" stroke="none" /><path d="M 119.4528033332814 92.08871423366111 l 10.17108248138479 -4.1364906992901185 a31.98004891375472,31.98004891375472 0 0,0 0.20245095605917646,0.5103086600218872 l -10.240592112410091 3.961281022054666" fill="#ff7e0b" stroke="none" /><path d="M 119.71291397450082 92.76114493625339 l 12.509662186483624 -4.593721231753081 a34.32643698724446,34.32643698724446 0 0,0 0.1983738359890136,0.5548869251982216 l -12.586676192516581 4.3782993501739425" fill="#ff9e0e" stroke="none" /><path d="M 120.05942366710727 93.78553927170692 l 9.179093459910876 -2.843706617627566 a30.60949655668378,30.60949655668378 0 0,0 0.15118712503312093,0.5032527682877209 l -9.226556904947623 2.6857162457491217" fill="#ff6c09" stroke="none" /><path d="M 120.16314734710363 94.1308016681162 l 12.773715728679342 -3.718242482490811 a34.30387690395959,34.30387690395959 0 0,0 0.15972784815986127,0.5668177840514483 l -12.835662068913784 3.4984167745363495" fill="#ff9e0e" stroke="none" /><path d="M 120.43855184770803 95.1765574152323 l 12.970731365021184 -3.0610572846745585 a34.327038074666234,34.327038074666234 0 0,0 0.1304249901549905,0.5746765716485923 l -13.021367216733841 2.83794637908694" fill="#ff9e0e" stroke="none" /><path d="M 120.592083275326 95.88100663000786 l 13.121495870958235 -2.624666663115975 a34.38142477406821,34.38142477406821 0 0,0 0.11079611862301435,0.5797321106189336 l -13.164618281863406 2.3990319874637267" fill="#ff9f0e" stroke="none" /><path d="M 120.65975698304385 96.23510406497455 l 7.620795016029803 -1.3887627139593608 a28.746300959298473,28.746300959298473 0 0,0 0.08430219957150267,0.48623268469067943 l -7.64351203309354 1.2577369963480887" fill="#ff5107" stroke="none" /><path d="M 120.7213421655516 96.59031103205396 l 13.09180803637021 -2.154252030367482 a34.26786491759356,34.26786491759356 0 0,0 0.09053000063026576,0.5812675458868469 l -13.126859529138741 1.9291963025491936" fill="#ff9d0e" stroke="none" /><path d="M 120.86939407059847 97.66154086499901 l 13.219358128011972 -1.4812566511861651 a34.30208820386181,34.30208820386181 0 0,0 0.06054744488571532,0.585741605055088 l -13.242837965379353 1.2541105238481458" fill="#ff9e0e" stroke="none" /><path d="M 120.93736805541906 98.37931529534042 l 6.734864112310699 -0.5213210765503824 a27.755010753222102,27.755010753222102 0 0,0 0.03269281065979573,0.47534629190778555 l -6.742820884135561 0.4056313604882627" fill="#ff4306" stroke="none" /><path d="M 120.96210409425399 98.7389718711861 l 4.556885515355183 -0.2741309168588052 a25.565123586457624,25.565123586457624 0 0,0 0.02259276471956847,0.4382935998540277 l -4.560919869531324 0.1958655236280468" fill="#ff2403" stroke="none" /><path d="M 120.98066250479742 99.09900007780936 l 3.8629965691043324 -0.16589369412857474 a24.866557022812863,24.866557022812863 0 0,0 0.014653877450858733,0.42663165319897917 l -3.865275133552039 0.0995557763654756" fill="#ff1a02" stroke="none" /><line stroke="#e1ed5e" stroke-width="0.3" x1="184.99686870605535" x2="189.99668451229388" y1="99.2704041080226" y2="99.22748670261217" /><path d="M 185.99683186730306 99.26182062694052 a86.0,86.0 0 0,1 -10.086455211305974,41.156179273409016" fill="none" id="id64" stroke="none" /><text fill="#e1ed5e" style="font-size:6.75px; font-family:Arial;" text-anchor="middle"><textPath startOffset="21.40746469413373" xlink:href="#id64">April</textPath></text><path d="M 120.99922638620191 99.81974689727618 l 13.406533353354208 -0.11507896478036231 a34.40702725151007,34.40702725151007 0 0,0 0.0,0.5906641350083768 l -13.406533353354208 -0.11507896478036068" fill="#ff9f0e" stroke="none" /><path d="M 120.98066250479742 100.90099992219065 l 13.293186233784644 0.5708666139387645 a34.30543832186642,34.30543832186642 0 0,0 -0.030316876583305792,0.588139306497464 l -13.281427767744765 -0.7989777138129592" fill="#ff9e0e" stroke="none" /><path d="M 120.93736805541906 101.62068470465957 l 4.020816349676031 0.31123661488476617 a25.032844200842256,25.032844200842256 0 0,0 -0.03684164418190009,0.42815575053651767 l -4.01488108279639 -0.3802134127969412" fill="#ff1c02" stroke="none" /><path d="M 120.9064616781168 101.97986365728391 l 13.222766594075555 1.2522097441175484 a34.281927030542796,34.281927030542796 0 0,0 -0.06051185791144397,0.5853973333609134 l -13.199322343682445 -1.479011599761393" fill="#ff9e0e" stroke="none" /><path d="M 120.86939407059847 102.33845913500097 l 13.227628482450847 1.482183361651348 a34.31041031626377,34.31041031626377 0 0,0 -0.07061068349732542,0.584757752359196 l -13.200235712693859 -1.7090347909339527" fill="#ff9e0e" stroke="none" /><path d="M 120.77682067341334 103.0534771498775 l 13.181154700852074 1.937175823034131 a34.322743314240604,34.322743314240604 0 0,0 -0.09067498022834872,0.582198418907895 l -13.145958228485458 -2.1631624238734766" fill="#ff9e0e" stroke="none" /><path d="M 120.7213421655516 103.40968896794604 l 5.852181451149365 0.9629742307704049 a26.930880803582596,26.930880803582596 0 0,0 -0.07897824806588179,0.45552554719132055 l -5.834788385591248 -1.0632928108823134" fill="#ff3805" stroke="none" /><path d="M 120.592083275326 104.11899336999214 l 13.22411203833146 2.645192770523997 a34.48607370570009,34.48607370570009 0 0,0 -0.12109914379704842,0.5795032414523996 l -13.176755183710046 -2.8718124632618056" fill="#ffa00e" stroke="none" /><path d="M 120.51834098615036 104.47187691870673 l 12.815261326031441 2.7930265594941295 a34.11609393899406,34.11609393899406 0 0,0 -0.12962351154333976,0.5711451090029293 l -12.765426952930438 -3.0126060024360757" fill="#ff9b0e" stroke="none" /><path d="M 120.35273937422433 105.17358676015961 l 13.295423398576375 3.3796446365693464 a34.71824628795183,34.71824628795183 0 0,0 -0.1517857246307668,0.5763551195222173 l -13.23544819314088 -3.607380260464367" fill="#ffa30f" stroke="none" /><path d="M 120.16314734710363 105.8691983318838 l 5.5827065457375715 1.6250445122272257 a26.814411581797504,26.814411581797504 0 0,0 -0.13244235458101575,0.4408575238588603 l -5.553987871152926 -1.7206396396768096" fill="#ff3605" stroke="none" /><path d="M 120.05942366710727 106.21446072829308 l 16.34679885780488 5.064280072099604 a38.113292072134925,38.113292072134925 0 0,0 -0.19897912423776248,0.6232992726445633 l -16.257455017789862 -5.344148378435551" fill="#ffd013" stroke="none" /><path d="M 119.83427380445688 106.89939002012753 l 10.531668719225875 3.6634610761695066 a32.150649894429016,32.150649894429016 0 0,0 -0.18579987638879142,0.519715322323527 l -10.46722867279314 -3.8437113548739554" fill="#ff810b" stroke="none" /><path d="M 119.71291397450082 107.23885506374661 l 10.185217347443922 3.7401528899418435 a31.850225622299885,31.850225622299885 0 0,0 -0.19287482917826945,0.5116233993035469 l -10.119511834451211 -3.9144445694395493" fill="#ff7d0b" stroke="none" /><path d="M 119.4528033332814 107.91128576633889 l 14.078333650615264 5.725535734653137 a36.198066910855346,36.198066910855346 0 0,0 -0.2390350646797454,0.5735971375715262 l -13.977972741399032 -5.966365381665941" fill="#ffb711" stroke="none" /><path d="M 119.31412917781788 108.2440532568976 l 5.364157113939338 2.289639699441957 a26.832377859525792,26.832377859525792 0 0,0 -0.18446124894445995,0.42208343643372387 l -5.324061982977912 -2.381385205651526" fill="#ff3605" stroke="none" /><path d="M 119.0197475246899 108.90220220490707 l 12.028353314066665 5.6298766981467265 a34.28069256794818,34.28069256794818 0 0,0 -0.2540374673843917,0.5308406020784033 l -11.929936588722361 -5.8355298022902335" fill="#ff9e0e" stroke="none" /><path d="M 118.70294669586154 109.54985784667822 l 13.935878755897187 7.115758989828558 a36.647451635981895,36.647451635981895 0 0,0 -0.29089688001661795,0.5578331236232212 l -13.81167380690562 -7.353938356556282" fill="#ffbd11" stroke="none" /><path d="M 118.5362547648365 109.86951160357373 l 13.231808791363934 7.045192896807223 a35.9905138952752,35.9905138952752 0 0,0 -0.29504449222882795,0.5428486341473118 l -13.108918949519767 -7.271296364429138" fill="#ffb410" stroke="none" /><line stroke="#e1ed5e" stroke-width="0.3" x1="174.33088141563837" x2="178.70328620479359" y1="141.23008692659167" y2="143.65538615756765" /><path d="M 175.20536237346943 141.71514677278685 a86.0,86.0 0 0,1 -30.301960400862466,31.631185727798858" fill="none" id="id65" stroke="none" /><text fill="#e1ed5e" style="font-size:6.75px; font-family:Arial;" text-anchor="middle"><textPath startOffset="22.145653131862474" xlink:href="#id65">May</textPath></text><path d="M 118.36410011445183 110.18625677009912 l 26.774090542166615 14.851136693257583 a51.6171224226242,51.6171224226242 0 0,0 -0.4364513683745209,0.7711677479553862 l -26.515205808770713 -15.308561211312092" fill="#8dff24" stroke="none" /><path d="M 118.00360718960297 110.81064883170644 l 14.420537196431772 8.659118250769962 a37.820589226138594,37.820589226138594 0 0,0 -0.3390022140729552,0.5537346396827181 l -14.26976701790341 -8.905390006577239" fill="#ffcc13" stroke="none" /><path d="M 117.81537515405839 111.11811171558189 l 2.630488655029758 1.641619470838327 a24.100707185671645,24.100707185671645 0 0,0 -0.22205049808248817,0.34910026459308496 l -2.60192046532138 -1.6865334101100837" fill="#ff0e01" stroke="none" /><path d="M 117.62189284568427 111.42229804090321 l 2.8468719595148877 1.8453080092263217 a24.392615746409685,24.392615746409685 0 0,0 -0.23077221998138386,0.3494185541173094 l -2.8147753006127774 -1.893906441682692" fill="#ff1302" stroke="none" /><path d="M 117.21940702142032 112.02048342749411 l 6.385180012172739 4.457351546566683 a28.787073044317143,28.787073044317143 0 0,0 -0.28634213887967047,0.4027760779427307 l -6.307722774763111 -4.566304851218917" fill="#ff5207" stroke="none" /><path d="M 116.79662413953412 112.60449989151573 l 6.954434359790976 5.218737194173469 a29.694790116299007,29.694790116299007 0 0,0 -0.3094593380871896,0.40509220733434437 l -6.863823044349481 -5.337350314748689" fill="#ff5f08" stroke="none" /><path d="M 116.35404254752997 113.17365903436017 l 10.357013164561637 8.342876670876812 a34.2992974564961,34.2992974564961 0 0,0 -0.37329588245536355,0.4553602795340857 l -10.212270462867645 -8.519439232109391" fill="#ff9e0e" stroke="none" /><path d="M 116.1254893667686 113.45245675266167 l 3.845968628469457 3.208443816483485 a26.008551328947558,26.008551328947558 0 0,0 -0.28894935334989175,0.3403816116933579 l -3.7903247116124508 -3.2739922106264" fill="#ff2a04" stroke="none" /><path d="M 115.89218393027572 113.72728997021213 l 10.098117672114174 8.722513535370952 a34.34369599828301,34.34369599828301 0 0,0 -0.3892104604933884,0.4428500576626887 l -9.9468961476622 -8.894575870844934" fill="#ff9e0e" stroke="none" /><path d="M 115.6541949942343 113.99807769240083 l 6.7689845529042865 6.052867726837074 a30.08054841934355,30.08054841934355 0 0,0 -0.3475052479271382,0.3819691414312855 l -6.664081604135268 -6.168174443826031" fill="#ff6409" stroke="none" /><path d="M 115.16444852881244 114.52719865689866 l 14.047218170973682 13.456917246862268 a40.452839384825864,40.452839384825864 0 0,0 -0.48468896762612174,0.49733357955193097 l -13.814142402196751 -13.696073518481937" fill="#ffee16" stroke="none" /><path d="M 114.65682725009322 115.03919595460226 l 5.404234175456432 5.545220351064092 a28.743075342848385,28.743075342848385 0 0,0 -0.3563149215518935,0.3413416346771031 l -5.3082467680392265 -5.637174116046776" fill="#ff5107" stroke="none" /><path d="M 114.39649973595853 115.28858382429668 l 2.267732773175742 2.408253619260302 a24.307914361832193,24.307914361832193 0 0,0 -0.3062452600757354,0.28345604074983655 l -2.226057741786039 -2.4468274061425177" fill="#ff1101" stroke="none" /><path d="M 114.13192950727249 115.5334660781643 l 21.118099791137364 23.212491017034026 a52.381425684699565,52.381425684699565 0 0,0 -0.6703200488729029,0.5994043211006892 l -20.716514715441086 -23.571590868018102" fill="#84ff25" stroke="none" /><path d="M 113.59037401385872 116.0094264158162 l 6.1694053257093655 7.267543960936596 a30.53303505170505,30.53303505170505 0 0,0 -0.4024917980117356,0.335772973018242 l -6.043739193535735 -7.372379117866708" fill="#ff6a09" stroke="none" /><path d="M 113.31354834802062 116.24036423190432 l 7.559748094683491 9.22166347766768 a32.92429740279991,32.92429740279991 0 0,0 -0.44016529202050636,0.35456600158555285 l -7.400332032307732 -9.350077773046635" fill="#ff8b0c" stroke="none" /><path d="M 112.45986205192187 116.90419585922612 l 7.843648831780826 10.641416056685937 a34.21977922235428,34.21977922235428 0 0,0 -0.4758488263684659,0.344477853875681 l -7.659818995038393 -10.774494681934696" fill="#ff9d0e" stroke="none" /><path d="M 112.16784306229584 117.11559508785304 l 7.748724552157601 10.899551481970809 a34.37321781372539,34.37321781372539 0 0,0 -0.4838519960900398,0.33776627111056967 l -7.560477464893802 -11.030962568886501" fill="#ff9f0e" stroke="none" /><path d="M 111.8722381534696 117.32195027204791 l 1.6927446917686257 2.4697650935784266 a23.99418172610971,23.99418172610971 0 0,0 -0.341749943731165,0.229944613957726 l -1.6500984599404573 -2.498459381593274" fill="#ff0d01" stroke="none" /><path d="M 111.27062007382361 117.71928675628689 l 10.880155053566945 17.1054108899274 a41.272465456941966,41.272465456941966 0 0,0 -0.601076210953345,0.375116011039237 l -10.584914713823885 -17.289662697808186" fill="#fff817" stroke="none" /><line stroke="#e1ed5e" stroke-width="0.3" x1="143.1302829299769" x2="145.66735839644613" y1="173.24464959558577" y2="177.55315839532614" /><path d="M 143.63769802327073 174.10635135553383 a86.0,86.0 0 0,1 -40.68552437913181,11.842963189579606" fill="none" id="id66" stroke="none" /><text fill="#e1ed5e" style="font-size:6.75px; font-family:Arial;" text-anchor="middle"><textPath startOffset="21.407464694133747" xlink:href="#id66">June</textPath></text><path d="M 110.34350942703117 118.27599006163325 l 6.557677562973532 11.586787909246288 a34.313781922270714,34.313781922270714 0 0,0 -0.5151247227304849,0.2857310002481132 l -6.357808652086953 -11.697651824927545" fill="#ff9e0e" stroke="none" /><path d="M 110.02825361518725 118.45085714620011 l 5.582398865922692 10.270985154609676 a32.69000911652627,32.69000911652627 0 0,0 -0.4953488815675324,0.26374537879800086 l -5.405261168568606 -10.365301001130245" fill="#ff880c" stroke="none" /><path d="M 109.71004243097381 118.62028667847754 l 0.9868763922753322 1.8924656067177914 a23.134326846160192,23.134326846160192 0 0,0 -0.3537048854420339,0.18060423475379028 l -0.954244285119716 -1.909127793144418" fill="#ff0000" stroke="none" /><path d="M 109.06512990194946 118.94263497670748 l 5.21444175994602 10.89617776406226 a33.07961475933375,33.07961475933375 0 0,0 -0.5143270266526271,0.24073101836744673 l -5.026626019421887 -10.98408501400024" fill="#ff8d0d" stroke="none" /><path d="M 108.4095320186766 119.2426549942271 l 5.329095548615181 12.194013512943489 a34.30763784148481,34.30763784148481 0 0,0 -0.5416766362853326,0.23120954594640145 l -5.118983837159417 -12.283697708549294" fill="#ff9e0e" stroke="none" /><path d="M 108.07796709384702 119.3841803445677 l 1.1757358673142584 2.821338069940384 a24.05651817180663,24.05651817180663 0 0,0 -0.382550805845996,0.15558008238396143 l -1.1271306002778214 -2.8411054089036365" fill="#ff0e01" stroke="none" /><path d="M 107.06938296918513 119.77432235084164 l 4.483699912822373 12.541706650645654 a34.31908294962881,34.31908294962881 0 0,0 -0.5564499834788913,0.19356218939821895 l -4.26774415729846 -12.616827272612465" fill="#ff9e0e" stroke="none" /><path d="M 106.72888874123015 119.89276391827305 l 4.013402130926312 11.864910265259574 a33.52531405862487,33.52531405862487 0 0,0 -0.5467456084903702,0.17972614125847236 l -3.809133784788207 -11.932057327920065" fill="#ff930d" stroke="none" /><path d="M 105.69591212413111 120.21278271476187 l 1.888802346310061 6.702693192079674 a27.963739679983565,27.963739679983565 0 0,0 -0.4631575600056553,0.12623565254972804 l -1.7734633853697106 -6.734129338773545" fill="#ff4606" stroke="none" /><path d="M 105.3480935250658 120.30758222061773 l 0.777008555688268 2.950428046332413 a24.051027360119484,24.051027360119484 0 0,0 -0.40015722152937583,0.10171840091012334 l -0.7262460409334948 -2.9633316790778066" fill="#ff0e01" stroke="none" /><path d="M 104.9986988182912 120.39639698878246 l 1.605391743679092 6.550546155486522 a27.744400461555664,27.744400461555664 0 0,0 -0.46355323979639707,0.10939730240191714 l -1.4927063501428157 -6.577139601534664" fill="#ff4306" stroke="none" /><path d="M 104.29559338865022 120.5559693870025 l 1.72235494889582 8.242091929976592 a29.420129806135485,29.420129806135485 0 0,0 -0.495243775362109,0.09906262518327487 l -1.5806146880027523 -8.27044395182273" fill="#ff5b08" stroke="none" /><path d="M 103.2317021107853 120.74984581791261 l 2.0576855786570096 13.21181749901446 a34.37109537651563,34.37109537651563 0 0,0 -0.5837765149317563,0.0857950442466045 l -1.830583958117568 -13.245193616559947" fill="#ff9f0e" stroke="none" /><path d="M 102.875027216393 120.80226474461374 l 0.7922926317918931 5.7326348035130605 a26.787126178410226,26.787126178410226 0 0,0 -0.45604722364723116,0.05904444348463003 l -0.6937675862538867 -5.745390843198085" fill="#ff3505" stroke="none" /><path d="M 101.80034050326958 120.92268563240118 l 0.9034454955210243 10.499406114824753 a31.53820395168914,31.53820395168914 0 0,0 -0.5398003975875837,0.04178396470959119 l -0.7230761031582047 -10.513367846529396" fill="#ff780b" stroke="none" /><path d="M 101.08105385017728 120.97215588758144 l 0.15885758720895343 3.0817947527081007 a24.085886360647947,24.085886360647947 0 0,0 -0.4131007523905347,0.017740323770787353 l -0.10593107421758922 -3.084067644904719" fill="#ff0e01" stroke="none" /><path d="M 100.72087961077811 120.9876233191556 l 0.13527475264089264 3.938376825437622 a24.9406993386766,24.9406993386766 0 0,0 -0.42801409425826903,0.011024124797578066 l -0.06764734431187974 -3.9401186675852453" fill="#ff1b02" stroke="none" /><line stroke="#e1ed5e" stroke-width="0.3" x1="101.45913802915013" x2="101.54496967792366" y1="184.9874750549273" y2="189.98673829345242" /><path d="M 101.47630435890484 185.9873277026323 a86.0,86.0 0 0,1 -42.54439059252881,-10.42667462771756" fill="none" id="id67" stroke="none" /><text fill="#e1ed5e" style="font-size:6.75px; font-family:Arial;" text-anchor="middle"><textPath startOffset="22.145653131862474" xlink:href="#id67">July</textPath></text><path d="M 100.36049292484886 120.99690560180557 l 0.22901628474349633 13.339050451687923 a34.34101628105421,34.34101628105421 0 0,0 -0.589509209592347,0.00506022756072162 l -1.6338032885965763e-15 -13.341016281054209" fill="#ff9e0e" stroke="none" /><path d="M 99.63950707515114 120.99690560180557 l -0.06703418451186086 3.904405183207719 a24.904980591059637,24.904980591059637 0 0,0 -0.4274011151592585,-0.011008336630371348 l 0.13404861374186325 -3.9026791292273" fill="#ff1a02" stroke="none" /><path d="M 99.27912038922189 120.98762331915562 l -0.1727211339598321 5.028587359952656 a26.031552784855982,26.031552784855982 0 0,0 -0.446471177364982,-0.019173393403294815 l 0.25901807192565285 -5.024881398123533" fill="#ff2b04" stroke="none" /><path d="M 98.91894614982273 120.97215588758144 l -0.8026516400212458 15.571227386302917 a36.59190084534848,36.59190084534848 0 0,0 -0.6270381993051506,-0.037721060996989755 l 1.0698341914588427 -15.555154347481235" fill="#ffbc11" stroke="none" /><path d="M 97.84075906011543 120.88869738790638 l -1.3592533751999938 13.149543389799236 a34.21960896162233,34.21960896162233 0 0,0 -0.5837932072480396,-0.06541524654824633 l 1.5847824840488327 -13.124272382744019" fill="#ff9d0e" stroke="none" /><path d="M 96.76829788921471 120.74984581791261 l -0.5145231380189376 3.3036076400764665 a24.343434985030882,24.343434985030882 0 0,0 -0.4123574989114569,-0.06785326952544747 l 0.571158139983458 -3.2942883720553504" fill="#ff1202" stroke="none" /><path d="M 96.41257539226777 120.69131181640829 l -2.5827187146822332 14.896435215497128 a36.118671174698946,36.118671174698946 0 0,0 -0.6100018159979216,-0.1111626511044442 l 2.8380552642312122 -14.849904390461317" fill="#ffb610" stroke="none" /><path d="M 95.00130118170881 120.39639698878247 l -3.16013481913648 12.89442846072812 a34.276021143548775,34.276021143548775 0 0,0 -0.5702790646119498,-0.14496270816542417 l 3.3810191769738087 -12.838280520727434" fill="#ff9e0e" stroke="none" /><path d="M 94.30408787586889 120.21278271476187 l -3.3785460105363394 11.98926790205948 a33.45620800936885,33.45620800936885 0 0,0 -0.5514538774343487,-0.1605201867462182 l 3.583859900352295 -11.929504021010745" fill="#ff930d" stroke="none" /><path d="M 93.95794788825049 120.11202640906438 l -3.78022140249364 12.583127598521857 a34.13868996561504,34.13868996561504 0 0,0 -0.5598084605309861,-0.17343009206393928 l 3.9956704958962592 -12.516380918651269" fill="#ff9c0e" stroke="none" /><path d="M 92.93061703081489 119.77432235084164 l -4.47539863344978 12.518486494805552 a34.294423532027,34.294423532027 0 0,0 -0.5526478552860098,-0.20293994743144686 l 4.689635640389909 -12.439815698365386" fill="#ff9e0e" stroke="none" /><path d="M 92.25597844496254 119.51999308798841 l -4.8714935338464125 12.279346000400201 a34.21036666591249,34.21036666591249 0 0,0 -0.5440190156724155,-0.2212477976345685 l 5.08156701070927 -12.193910946186342" fill="#ff9d0e" stroke="none" /><path d="M 91.59046798132341 119.24265499422711 l -20.377644707171818 46.628038971038166 a71.88636774320193,71.88636774320193 0 0,0 -1.1265161972227982,-0.5038763663101962 l 21.175074307250252 -46.271358853818114" fill="#3effb3" stroke="none" /><path d="M 90.93487009805054 118.94263497670748 l -1.6845235627064463 3.5200063653968052 a24.90231526734415,24.90231526734415 0 0,0 -0.38401712233209967,-0.18784201787603347 l 1.7447009343006155 -3.4905705974235506" fill="#ff1a02" stroke="none" /><path d="M 90.6110303473126 118.78422872680471 l -7.155386273168178 14.315565749577024 a37.00421742693801,37.00421742693801 0 0,0 -0.5657641379800791,-0.28888320008171176 l 7.40007763286184 -14.190624597822476" fill="#ffc212" stroke="none" /><line stroke="#e1ed5e" stroke-width="0.3" x1="58.13341422392154" x2="55.67067388415222" y1="173.97424548756322" y2="178.32567169271397" /><path d="M 57.64086615596768 174.84453072859336 a86.0,86.0 0 0,1 -31.369924170532247,-30.572349798747897" fill="none" id="id68" stroke="none" /><text fill="#e1ed5e" style="font-size:6.75px; font-family:Arial;" text-anchor="middle"><textPath startOffset="22.145653131862474" xlink:href="#id68">August</textPath></text><path d="M 89.65649057296885 118.27599006163327 l -7.249893066282229 12.809866376784317 a35.71915846995325,35.71915846995325 0 0,0 -0.5310376340955907,-0.30659472099491364 l 7.46872316823822 -12.683524758513231" fill="#ffb110" stroke="none" /><path d="M 89.03521579738668 117.91015095944536 l -5.971265428229279 9.753613318993928 a32.43630113239512,32.43630113239512 0 0,0 -0.4723897340792962,-0.2948061318591524 l 6.137819291098291 -9.649671390293229" fill="#ff850c" stroke="none" /><path d="M 88.1277618465304 117.32195027204791 l -5.363232970424275 7.825117186008197 a30.486660469828507,30.486660469828507 0 0,0 -0.42914316612381076,-0.2995752588922835 l 5.496771227721851 -7.731897111310784" fill="#ff6a09" stroke="none" /><path d="M 87.54013794807813 116.9041958592261 l -3.5678691406567444 4.840499718409606 a27.013329171829376,27.013329171829376 0 0,0 -0.37091489172698117,-0.27834144966846686 l 3.650437021294492 -4.778539241477124" fill="#ff3905" stroke="none" /><path d="M 86.96720088162412 116.46651593811092 l -11.991099338437957 15.150362295806332 a40.32148909992388,40.32148909992388 0 0,0 -0.5390584287110636,-0.43422731222562777 l 12.249408537504284 -14.942286689787293" fill="#ffec16" stroke="none" /><path d="M 86.68645165197938 116.24036423190432 l -8.46702657423369 10.328395701301682 a34.3553845609719,34.3553845609719 0 0,0 -0.4528786764864418,-0.37780749911327155 l 8.643079584882024 -10.181526018276541" fill="#ff9f0e" stroke="none" /><path d="M 85.86807049272751 115.53346607816431 l -8.990312721660834 9.881928552087759 a34.359574646740214,34.359574646740214 0 0,0 -0.4328819296115653,-0.40066905149649956 l 9.158624422586366 -9.72614175445888" fill="#ff9f0e" stroke="none" /><path d="M 85.08716467003676 114.78537596483092 l -9.352680572888492 9.272743612429295 a34.17028503868971,34.17028503868971 0 0,0 -0.40941403448444547,-0.4200948667889039 l 9.510481408523747 -9.110826053572653" fill="#ff9c0e" stroke="none" /><path d="M 84.58840730492382 114.26474011684316 l -13.230235126122778 12.245708116797468 a39.02765899317747,39.02765899317747 0 0,0 -0.4508666572620966,-0.49558143654424036 l 13.438499484226753 -12.016789104695555" fill="#ffdc14" stroke="none" /><path d="M 84.1078160697243 113.72728997021213 l -6.745355159621941 5.826477130798628 a29.913341235763262,29.913341235763262 0 0,0 -0.3323307206652594,-0.39148475330996385 l 6.844380443794313 -5.709825595039109" fill="#ff6209" stroke="none" /><path d="M 83.8745106332314 113.45245675266167 l -10.236602531627097 8.539737909268542 a34.33098477043285,34.33098477043285 0 0,0 -0.3736407508548849,-0.4557809629066852 l 10.381690101720613 -8.362754664663361" fill="#ff9e0e" stroke="none" /><path d="M 83.64595745247003 113.17365903436017 l -6.900349649641554 5.5584332276287265 a29.860643612814783,29.860643612814783 0 0,0 -0.3181346847064431,-0.40195278148639135 l 6.994750764989559 -5.439160502227654" fill="#ff6109" stroke="none" /><path d="M 83.4222238831116 112.89097897827486 l -7.746005744766484 6.023340918427314 a30.812300485490454,30.812300485490454 0 0,0 -0.32110528735308946,-0.4203371287633902 l 7.848263009473869 -5.889482876423053" fill="#ff6e0a" stroke="none" /><path d="M 83.20337586046588 112.60449989151573 l -10.164880839118508 7.627916084183644 a33.708654777781405,33.708654777781405 0 0,0 -0.34334348473872894,-0.46581137807359996 l 10.294326343441067 -7.452298396841164" fill="#ff960d" stroke="none" /><path d="M 82.98947788004972 112.3143062007846 l -11.18739331943521 8.098810016099607 a34.811172758336596,34.811172758336596 0 0,0 -0.34626325674674563,-0.4870626343499535 l 11.324771674711917 -7.9055701550401505" fill="#ffa50f" stroke="none" /><path d="M 82.576782715395 111.72311816256416 l -7.51129984197282 5.0539377523405085 a30.05328184254492,30.05328184254492 0 0,0 -0.284326315825769,-0.4305062809611834 l 7.596950596719315 -4.924251593040264" fill="#ff6409" stroke="none" /><path d="M 82.37810715431573 111.42229804090323 l -14.16674792571052 9.182714847652884 a37.88250570158139,37.88250570158139 0 0,0 -0.3490283166732073,-0.5487304858727762 l 14.322293934009618 -8.938170687101435" fill="#ffcd13" stroke="none" /><path d="M 82.18462484594161 111.11811171558189 l -25.264588837727107 15.766971995653144 a50.78081353910795,50.78081353910795 0 0,0 -0.45517028090842077,-0.7434864464892986 l 25.531527083090932 -15.330948433039287" fill="#96ff23" stroke="none" /><path d="M 81.99639281039703 110.81064883170644 l -14.249326400161303 8.556311086895288 a37.620883318105,37.620883318105 0 0,0 -0.3277070765248506,-0.556518259549222 l 14.394107186815921 -8.310441659052508" fill="#ffca12" stroke="none" /><line stroke="#e1ed5e" stroke-width="0.3" x1="26.387840678322732" x2="22.057713659400534" y1="142.50000000000003" y2="145.00000000000006" /><path d="M 25.521815274538284 143.00000000000003 a86.0,86.0 0 0,1 -11.493303480769212,-40.785679425670985" fill="none" id="id69" stroke="none" /><text fill="#e1ed5e" style="font-size:6.75px; font-family:Arial;" text-anchor="middle"><textPath startOffset="21.40746469413373" xlink:href="#id69">September</textPath></text><path d="M 81.81346652052679 110.50000000000001 l -13.100216462608051 7.5634135011291335 a36.12682700225825,36.12682700225825 0 0,0 -0.3054723382497962,-0.539740351893275 l 13.228122165879228 -7.337416379136736" fill="#ffb610" stroke="none" /><path d="M 81.63589988554817 110.18625677009913 l -4.537147140367027 2.516679036133599 a26.18838872331816,26.18838872331816 0 0,0 -0.21468823356193723,-0.3950021689142695 l 4.5796807235442945 -2.4384220337447426" fill="#ff2d04" stroke="none" /><path d="M 81.4637452351635 109.86951160357371 l -11.089864162423275 5.9047280274073355 a33.56387281926436,33.56387281926436 0 0,0 -0.26642032252011383,-0.5108960972685959 l 11.189592553918338 -5.713485687034237" fill="#ff940d" stroke="none" /><path d="M 81.29705330413844 109.54985784667822 l -9.60570692960465 4.9047424016277805 a31.785457970980197,31.785457970980197 0 0,0 -0.2439610892555845,-0.4880856015660474 l 9.688487932071972 -4.73912494389798" fill="#ff7c0b" stroke="none" /><path d="M 81.1358732173502 109.22738970284198 l -4.764232313295413 2.330424763158526 a26.303658087753266,26.303658087753266 0 0,0 -0.1949235614278536,-0.40731527429007086 l 4.803535132683179 -2.2482969868033518" fill="#ff2f04" stroke="none" /><path d="M 80.9802524753101 108.90220220490708 l -22.520054292199855 10.540522512951563 a45.864743315981926,45.864743315981926 0 0,0 -0.3276392387063104,-0.715950866041623 l 22.69767799576122 -10.152382664695251" fill="#ceff1d" stroke="none" /><path d="M 80.83023694016515 108.57439118712176 l -11.587020980342762 5.182727103550437 a33.69329411259267,33.69329411259267 0 0,0 -0.23162714633788337,-0.5300082399803534 l 11.674282008697615 -4.983056793794234" fill="#ff960d" stroke="none" /><path d="M 80.68587082218212 108.24405325689762 l -8.25311087956499 3.5227622741778726 a29.97349949745164,29.97349949745164 0 0,0 -0.19793093948072293,-0.474962200525238 l 8.312367663582199 -3.3805675642113533" fill="#ff6309" stroke="none" /><path d="M 80.5471966667186 107.91128576633889 l -12.343082663427602 5.019824264652512 a34.32480113488382,34.32480113488382 0 0,0 -0.21729450211408244,-0.5477240926022013 l 12.427435840507808 -4.807199154836746" fill="#ff9e0e" stroke="none" /><path d="M 80.41425534168474 107.57618678355246 l -10.03470127840827 3.881638024423896 a31.759291031454723,31.759291031454723 0 0,0 -0.1923241582384959,-0.5101626792121567 l 10.099856120461203 -3.7088070650175946" fill="#ff7b0b" stroke="none" /><path d="M 80.28708602549918 107.23885506374661 l -11.325051610095942 4.158715819537309 a33.06448139121639,33.06448139121639 0 0,0 -0.19108094472491544,-0.5344874103672135 l 11.3947727248648 -3.963693452789174" fill="#ff8d0d" stroke="none" /><path d="M 80.16572619554312 106.89939002012753 l -11.414980408102574 3.9707227339937754 a33.08587674716322,33.08587674716322 0 0,0 -0.18199529068367495,-0.5380367384624053 l 11.481461120358615 -3.7741843210572084" fill="#ff8e0d" stroke="none" /><path d="M 80.05021161711548 106.5578916946017 l -15.16453929076466 4.984885270897675 a36.962842261488326,36.962842261488326 0 0,0 -0.19297293890565567,-0.6044849826369334 l 15.24787694544757 -4.72383125456935" fill="#ffc111" stroke="none" /><path d="M 79.94057633289273 106.21446072829308 l -14.291215840422833 4.427455198800095 a35.961323796206486,35.961323796206486 0 0,0 -0.1776209924611228,-0.5912425158061044 l 14.365113152887584 -4.181475079403267" fill="#ffb410" stroke="none" /><path d="M 79.83685265289637 105.86919833188381 l -6.814579453761418 1.9836247622448426 a28.09741222763749,28.09741222763749 0 0,0 -0.13082892078193653,-0.46426568580101374 l 6.847626866617929 -1.8663511525408332" fill="#ff4806" stroke="none" /><path d="M 79.64726062577567 105.17358676015961 l -9.883053677849126 2.5122335975284704 a31.19735591453971,31.19735591453971 0 0,0 -0.12748201319896152,-0.5201701171954349 l 9.924723217564383 -2.342207655724936" fill="#ff740a" stroke="none" /><path d="M 79.56144815229197 104.8234425847677 l -16.449869763727826 3.882124473566611 a37.90174859805552,37.90174859805552 0 0,0 -0.14400704124270358,-0.634521594797665 l 16.514087666528194 -3.59916854482992" fill="#ffcd13" stroke="none" /><path d="M 79.48165901384964 104.47187691870673 l -7.515765904871322 1.6380261980772777 a28.692195197888164,28.692195197888164 0 0,0 -0.10075372168411348,-0.48214303151631044 l 7.542777337379802 -1.5087667152755582" fill="#ff5107" stroke="none" /><path d="M 79.407916724674 104.11899336999214 l -5.294989299399942 1.059146154704078 a26.399879837346784,26.399879837346784 0 0,0 -0.0850751310427993,-0.44514903494443875 l 5.312390722724899 -0.9680945547263247" fill="#ff3004" stroke="none" /><path d="M 79.34024301695615 103.76489593502545 l -14.726738451469554 2.6837023193267013 a35.96927131014571,35.96927131014571 0 0,0 -0.10548448277650778,-0.608406465244438 l 14.770637751738297 -2.430502821161671" fill="#ffb410" stroke="none" /><path d="M 79.2786578344484 103.40968896794605 l -7.544620794196615 1.2414644806201307 a28.64607984426434,28.64607984426434 0 0,0 -0.07567817932608739,-0.48590819913629746 l 7.56482046566097 -1.111768099552383" fill="#ff5007" stroke="none" /><path d="M 79.22317932658666 103.0534771498775 l -9.58055891556353 1.408012235922251 a30.68347084423197,30.68347084423197 0 0,0 -0.0721141684419576,-0.5217821992131917 l 9.6033176005607 -1.2433417285089736" fill="#ff6d0a" stroke="none" /><path d="M 79.17382384314188 102.69636545807758 l -10.741678789330193 1.3907253751801567 a31.831333264299282,31.831333264299282 0 0,0 -0.06550875310745045,-0.542506449869107 l 10.763969628697303 -1.2061252483876503" fill="#ff7c0b" stroke="none" /><path d="M 79.13060592940153 102.33845913500099 l -14.788937454873205 1.657131288590147 a35.881490353851525,35.881490353851525 0 0,0 -0.06333528579092634,-0.6127114368876084 l 14.815205133145797 -1.4030153294196073" fill="#ffb310" stroke="none" /><path d="M 79.0935383218832 101.97986365728391 l -11.919680462428326 1.1288061326370133 a32.97301071625155,32.97301071625155 0 0,0 -0.04852744333275745,-0.5639624501873478 l 11.937301528458825 -0.9240226350740034" fill="#ff8c0c" stroke="none" /><path d="M 79.06263194458094 101.62068470465958 l -7.01492001553543 0.5429991746572957 a28.03590441436196,28.03590441436196 0 0,0 -0.03302367716029298,-0.48015701820978823 l 7.023207653860789 -0.4224987322931642" fill="#ff4706" stroke="none" /><path d="M 79.03789590574601 101.26102812881392 l -14.874417425010172 0.8948080158517717 a35.90130783249171,35.90130783249171 0 0,0 -0.03172720046673068,-0.6154992130648532 l 14.887586214933474 -0.6393370094101877" fill="#ffb310" stroke="none" /><path d="M 79.01933749520258 100.90099992219065 l -23.914855482218325 1.02700679369645 a44.936897369744614,44.936897369744614 0 0,0 -0.026481341444814354,-0.7709753624878125 l 23.928961510659988 -0.6163251666445176" fill="#d9ff1c" stroke="none" /><line stroke="#e1ed5e" stroke-width="0.3" x1="15.003131293944662" x2="10.003315487706104" y1="100.72959589197737" y2="100.7725132973878" /><path d="M 14.003168132696942 100.73817937305945 a86.0,86.0 0 0,1 10.791469493833604,-42.45332614584628" fill="none" id="id70" stroke="none" /><text fill="#e1ed5e" style="font-size:6.75px; font-family:Arial;" text-anchor="middle"><textPath startOffset="22.145653131862435" xlink:href="#id70">October</textPath></text><path d="M 79.00077361379809 100.18025310272382 l -5.979456699298793 0.05132644426175406 a26.97967698313795,26.97967698313795 0 0,0 0.0,-0.463159093971141 l 5.979456699298793 0.05132644426175186" fill="#ff3805" stroke="none" /><path d="M 79.00077361379809 99.81974689727619 l -11.83535265522582 -0.10159226814835239 a32.83578867091283,32.83578867091283 0 0,0 0.009676501152461481,-0.5636076806199514 l 11.831864722474693 0.3047468647373561" fill="#ff8a0c" stroke="none" /><path d="M 79.00696218219943 99.45929381324524 l -9.817674867608497 -0.2528684788992969 a30.82093082521674,30.82093082521674 0 0,0 0.01816279361954653,-0.5287899188870299 l 9.811887386992101 0.4213646623504654" fill="#ff6e0a" stroke="none" /><path d="M 79.01933749520258 99.09900007780938 l -13.29273569262433 -0.5708472657627679 a34.30498736545051,34.30498736545051 0 0,0 0.03031647805786657,-0.5881315752103666 l 13.280977625109893 0.7989506343498466" fill="#ff9e0e" stroke="none" /><path d="M 79.03789590574601 98.7389718711861 l -5.957388065771464 -0.35838167253722275 a26.968158006404224,26.968158006404224 0 0,0 0.031765971607291034,-0.4618702554975461 l 5.950358132999109 0.46059535218909387" fill="#ff3805" stroke="none" /><path d="M 79.06263194458094 98.37931529534042 l -20.29487012533863 -1.570951301430459 a41.355580104625574,41.355580104625574 0 0,0 0.06086434106034599,-0.7073359022452644 l 20.26491216158054 1.9191082510514041" fill="#fff917" stroke="none" /><path d="M 79.0935383218832 98.0201363427161 l -6.168983265006383 -0.5842091290638199 a27.196584125985083,27.196584125985083 0 0,0 0.04800534791530616,-0.4644081941395511 l 6.158045524609413 0.6900218454862838" fill="#ff3b05" stroke="none" /><path d="M 79.13060592940154 97.66154086499901 l -5.292492767643985 -0.5930348536980236 a26.32561452165518,26.32561452165518 0 0,0 0.05417800655038651,-0.4486716141036474 l 5.28153267483393 0.6838001447251073" fill="#ff2f04" stroke="none" /><path d="M 79.17382384314186 97.30363454192245 l -9.042741134194063 -1.170763881805959 a30.118215575812336,30.118215575812336 0 0,0 0.07078567096374695,-0.5121698532511161 l 9.021310946675108 1.325822043257142" fill="#ff6509" stroke="none" /><path d="M 79.22317932658666 96.9465228501225 l -13.186323428048043 -1.9379354479370432 a34.32796756259032,34.32796756259032 0 0,0 0.0906887818237364,-0.5822870350508813 l 13.15111315408604 2.1640106649193744" fill="#ff9e0e" stroke="none" /><path d="M 79.2786578344484 96.59031103205396 l -14.609624034903568 -2.404008075329416 a35.80609230240988,35.80609230240988 0 0,0 0.10500593949208649,-0.605646354747825 l 14.566203277919248 2.6544474629978336" fill="#ffb210" stroke="none" /><path d="M 79.34024301695615 96.23510406497455 l -7.7417100218520485 -1.4107974559109404 a28.869207299598177,28.869207299598177 0 0,0 0.0930326808018458,-0.4867862978242489 l 7.716351048768043 1.5434863187685037" fill="#ff5307" stroke="none" /><path d="M 79.407916724674 95.88100663000787 l -4.744619391693583 -0.9490567591545724 a25.83860743438975,25.83860743438975 0 0,0 0.09073324101535403,-0.4341914040614603 l 4.727628439853862 1.0303646145014418" fill="#ff2803" stroke="none" /><path d="M 79.48165901384962 95.52812308129327 l -5.134585795865624 -1.1190590761284953 a26.255117935020163,26.255117935020163 0 0,0 0.09975586855891629,-0.4395427630635836 l 5.114619065749046 1.207036173131087" fill="#ff2e04" stroke="none" /><path d="M 79.56144815229197 95.17655741523228 l -4.760628300386597 -1.1234953163724306 a25.89140302370931,25.89140302370931 0 0,0 0.10580025406799484,-0.4317011410226469 l 4.740640519802304 1.2050522820031953" fill="#ff2903" stroke="none" /><path d="M 79.73907114497095 94.47779374421319 l -55.08913985830921 -15.014790038905819 a78.0986624207676,78.0986624207676 0 0,0 0.3636478561171823,-1.290457953037137 l 54.823273510117446 15.95825591584597" fill="#46fff3" stroke="none" /><path d="M 80.05021161711548 93.44210830539832 l -5.714184558964934 -1.878365962658855 a27.014994918001893,27.014994918001893 0 0,0 0.14860122615131863,-0.4393131204088895 l 5.68109791124125 1.976180757541906" fill="#ff3905" stroke="none" /><path d="M 80.41425534168474 92.42381321644754 l -8.380187776909166 -3.2416366590458936 a29.98530775241049,29.98530775241049 0 0,0 0.1898231687692277,-0.4784783869700202 l 8.323305933173806 3.3850160632294966" fill="#ff6309" stroke="none" /><path d="M 80.5471966667186 92.08871423366112 l -10.074682826757247 -4.097285798974788 a31.87598202362609,31.87598202362609 0 0,0 0.21049404222365428,-0.5051090736713066 l 10.002862939997113 4.269627382087358" fill="#ff7d0b" stroke="none" /><path d="M 80.68587082218212 91.75594674310238 l -18.768808879410027 -8.011288448256646 a41.40708037307128,41.40708037307128 0 0,0 0.28465616430815766,-0.6513490108126045 l 18.628518833084893 8.332299528845118" fill="#fffa17" stroke="none" /><path d="M 80.9802524753101 91.09779779509293 l -8.259689644665483 -3.865951809882818 a30.119652209516023,30.119652209516023 0 0,0 0.22320202984926052,-0.4664063971753468 l 8.192108356856318 4.007170709123252" fill="#ff6509" stroke="none" /><path d="M 81.1358732173502 90.77261029715801 l -3.8449609419541186 -1.880763070159635 a25.280303070020743,25.280303070020743 0 0,0 0.19403244965996663,-0.3881948765050919 l 3.8121085790824054 1.9464898028284972" fill="#ff2003" stroke="none" /><path d="M 81.46374523516351 90.13048839642627 l -8.128644895692025 -4.328045559211457 a30.20906326413659,30.20906326413659 0 0,0 0.24764908212786618,-0.4556464178178426 l 8.053150463948809 4.466946810503919" fill="#ff6609" stroke="none" /><path d="M 81.63589988554816 89.8137432299009 l -13.085342909174868 -7.258219132270805 a35.96355385671315,35.96355385671315 0 0,0 0.304091773343301,-0.537301025986665 l 12.958817770810198 7.481776928356576" fill="#ffb410" stroke="none" /><line stroke="#e1ed5e" stroke-width="0.3" x1="26.387840678322718" x2="22.05771365940052" y1="57.49999999999999" y2="54.99999999999999" /><path d="M 25.521815274538284 56.99999999999999 a86.0,86.0 0 0,1 29.574782752854787,-30.34633250058573" fill="none" id="id71" stroke="none" /><text fill="#e1ed5e" style="font-size:6.75px; font-family:Arial;" text-anchor="middle"><textPath startOffset="21.40746469413373" xlink:href="#id71">November</textPath></text><path d="M 81.81346652052679 89.5 l -10.24612439236667 -5.91560267608329 a32.83120535216658,32.83120535216658 0 0,0 0.2859852660494876,-0.48566550410306414 l 10.143065416187406 6.090619348479927" fill="#ff8a0c" stroke="none" /><path d="M 82.18462484594161 88.88188828441811 l -7.9063703409196515 -4.934159845356006 a30.31969019588621,30.31969019588621 0 0,0 0.27934874515656843,-0.4391826259794154 l 7.820503904137193 5.069156146014093" fill="#ff6809" stroke="none" /><path d="M 82.37810715431573 88.57770195909679 l -5.016500983888551 -3.251635330111113 a26.978161459962553,26.978161459962553 0 0,0 0.255233398330725,-0.38645589583687573 l 4.959943146637097 3.33727110428705" fill="#ff3805" stroke="none" /><path d="M 82.576782715395 88.27688183743585 l -7.575029359626349 -5.096817815975805 a30.130094284751365,30.130094284751365 0 0,0 0.2924201164740285,-0.426649689016663 l 7.486419506337008 5.226102240062502" fill="#ff6509" stroke="none" /><path d="M 82.78059297857968 87.97951657250589 l -12.206794689306104 -8.521290720586284 a35.8868476223686,35.8868476223686 0 0,0 0.35696288712706487,-0.5021130044312951 l 12.058716703649067 8.7295809517271" fill="#ffb310" stroke="none" /><path d="M 82.98947788004972 87.6856937992154 l -7.148751757337521 -5.175144976297089 a29.825348560466566,29.825348560466566 0 0,0 0.3037896105853551,-0.412148951243066 l 7.058860127168347 5.297100236809018" fill="#ff6108" stroke="none" /><path d="M 83.2033758604659 87.39550010848427 l -10.785612598532614 -8.093724768666872 a34.48472542384742,34.48472542384742 0 0,0 0.3593768557375559,-0.47043584031250807 l 10.64508376544075 8.277681522220265" fill="#ffa00e" stroke="none" /><path d="M 83.64595745247003 86.82634096563983 l -7.295449694108337 -5.876697855786489 a30.36798611909043,30.36798611909043 0 0,0 0.3305095152778692,-0.4031678685435358 l 7.193493359591837 6.001068006028517" fill="#ff6809" stroke="none" /><path d="M 83.8745106332314 86.54754324733833 l -11.365385974617109 -9.48140920398513 a35.80098371208607,35.80098371208607 0 0,0 0.397741149134425,-0.46853807357445854 l 11.200950261975569 9.675114060009147" fill="#ffb210" stroke="none" /><path d="M 84.10781606972428 86.27271002978789 l -4.487234172631648 -3.875966004559753 a26.92945047947414,26.92945047947414 0 0,0 0.30518625084713435,-0.3472459311966759 l 4.420036857825921 3.9524242135677294" fill="#ff3805" stroke="none" /><path d="M 84.58840730492382 85.73525988315684 l -7.231820009998434 -6.693664636450727 a30.85415480507003,30.85415480507003 0 0,0 0.3631154459557639,-0.38561602022784414 l 7.115848730306398 6.816822116623082" fill="#ff6f0a" stroke="none" /><path d="M 85.08716467003674 85.21462403516908 l -4.160034535656463 -4.124478898575298 a26.8580895796025,26.8580895796025 0 0,0 0.32742323534529155,-0.324624762970099 l 4.0886193801811945 4.19528367177407" fill="#ff3705" stroke="none" /><path d="M 85.34317274990677 84.96080404539775 l -8.927544051988308 -9.160446671044847 a33.791201116910344,33.791201116910344 0 0,0 0.4188942564948073,-0.4012912219505888 l 8.7689773096282 9.312350023301004" fill="#ff970d" stroke="none" /><path d="M 85.60350026404147 84.71141617570332 l -4.919417402947168 -5.224250804784532 a28.175894651937924,28.175894651937924 0 0,0 0.3549763281665323,-0.3285607898620755 l 4.829011303466682 5.307929340778973" fill="#ff4906" stroke="none" /><path d="M 86.40962598614128 83.9905735841838 l -40.77112204157617 -48.0282792474486 a84.0,84.0 0 0,0 1.107302663352364,-0.9237512643524726 l 39.940645044061895 48.721092695712954" fill="#4dd2ff" stroke="none" /><path d="M 87.25179093698888 83.31218511350988 l -4.370158560448625 -5.720677839601661 a28.198919418077406,28.198919418077406 0 0,0 0.3871940061975794,-0.2905576006565513 l 4.2713115653402935 5.794854467522216" fill="#ff4a06" stroke="none" /><path d="M 87.83215693770416 82.88440491214696 l -1.3793783772850186 -1.940268431938142 a23.38061468862501,23.38061468862501 0 0,0 0.3291154511110627,-0.22974814526955115 l 1.3458678350001905 1.96366139301282" fill="#ff0400" stroke="none" /><path d="M 88.12776184653039 82.6780497279521 l -10.332228184039133 -15.075029702893325 a39.27598040571746,39.27598040571746 0 0,0 0.5594091203800003,-0.37639542182748664 l 10.071922775562143 15.25017479877792" fill="#ffdf14" stroke="none" /><path d="M 88.72937992617638 82.28071324371311 l -19.529595480163405 -30.70376787440588 a57.388548491307226,57.388548491307226 0 0,0 0.8357846059682654,-0.5215914084863916 l 18.999646745405443 31.03449507973381" fill="#4fff2b" stroke="none" /><line stroke="#e1ed5e" stroke-width="0.3" x1="56.869717070023135" x2="54.33264160355391" y1="26.7553504044142" y2="22.446841604673864" /><path d="M 56.362301976729285 25.89364864446614 a86.0,86.0 0 0,1 42.16139366436587,-11.88097634709845" fill="none" id="id72" stroke="none" /><text fill="#e1ed5e" style="font-size:6.75px; font-family:Arial;" text-anchor="middle"><textPath startOffset="22.145653131862474" xlink:href="#id72">December</textPath></text><path d="M 89.65649057296885 81.72400993836675 l -5.289565466046607 -9.34615534213068 a31.73918630524821,31.73918630524821 0 0,0 0.47647442599646356,-0.2642923321772844 l 5.128346851894041 9.435580589741111" fill="#ff7b0b" stroke="none" /><path d="M 90.28995756902619 81.37971332152246 l -4.300281203047256 -8.246356220173357 a30.300258562818208,30.300258562818208 0 0,0 0.4632661047409933,-0.23654697398243668 l 4.158087876592681 8.318961145828629" fill="#ff6709" stroke="none" /><path d="M 90.93487009805054 81.0573650232925 l -4.507267565017205 -9.41845568127085 a31.44139685687309,31.44139685687309 0 0,0 0.4888557583530239,-0.22880917868349684 l 4.3449230927926585 9.49444109152489" fill="#ff770b" stroke="none" /><path d="M 91.5904679813234 80.7573450057729 l -1.581591020372479 -3.6189897701090628 a24.949495804767604,24.949495804767604 0 0,0 0.393922747668734,-0.16814219688528417 l 1.5192331975333138 3.645606616653751" fill="#ff1b02" stroke="none" /><path d="M 91.92203290615298 80.6158196554323 l -3.0219684372139697 -7.2516241403317965 a28.856102462936715,28.856102462936715 0 0,0 0.4588746040442499,-0.18662030666288118 l 2.8970393719792793 7.302431703573969" fill="#ff5307" stroke="none" /><path d="M 92.592206182469 80.34994680014964 l -3.646680571398138 -9.67325346734845 a31.337800144778456,31.337800144778456 0 0,0 0.5050024539184713,-0.1854438960917129 l 3.4800889658255394 9.734428212448885" fill="#ff760a" stroke="none" /><path d="M 92.93061703081487 80.22567764915836 l -4.174904969008541 -11.677952234467996 a33.40179018895128,33.40179018895128 0 0,0 0.5415769887000818,-0.1883885897616487 l 3.9738222082634547 11.747899256798231" fill="#ff920d" stroke="none" /><path d="M 93.95794788825049 79.88797359093562 l -5.122411205200883 -17.050840928158916 a38.80365897540578,38.80365897540578 0 0,0 0.6395951446330777,-0.1861768250431774 l 4.828956048186181 17.136261447504616" fill="#ffd914" stroke="none" /><path d="M 94.6519064749342 79.69241777938228 l -1.0374402412405572 -3.939329575899828 a25.07364698540563,25.07364698540563 0 0,0 0.4171714064874373,-0.10604334019301227 l 0.9696635415277419 3.9565581479281033" fill="#ff1d02" stroke="none" /><path d="M 95.35216902796891 79.52079915486377 l -2.9831075332754184 -13.144122211890439 a34.478385633160826,34.478385633160826 0 0,0 0.578313487347556,-0.126040732902917 l 2.7570316293087442 13.19339440292707" fill="#ffa00e" stroke="none" /><path d="M 95.70440661134978 79.44403061299748 l -2.5714944381307276 -12.30553177792099 a33.57134423929122,33.57134423929122 0 0,0 0.5651232463828021,-0.11304047647613788 l 2.359874706216949 12.347861651059993" fill="#ff940d" stroke="none" /><path d="M 96.05791012581881 79.37332000966035 l -2.353878093524091 -12.316484839523632 a33.53939954229819,33.53939954229819 0 0,0 0.5664409559622555,-0.10322441131735226 l 2.142102404010797 12.355077424772345" fill="#ff940d" stroke="none" /><path d="M 96.76829788921471 79.25015418208739 l -2.729617107638738 -17.526099926232742 a38.73738955366909,38.73738955366909 0 0,0 0.6579359203851853,-0.09669392302887275 l 2.428356081645868 17.5703749225605" fill="#ffd814" stroke="none" /><path d="M 97.12497278360702 79.19773525538626 l -0.49415033717287776 -3.5754256790678194 a24.60941177233433,24.60941177233433 0 0,0 0.4189719285157764,-0.05424430425659866 l 0.4327005867663073 3.5833815795248127" fill="#ff1602" stroke="none" /><path d="M 97.48249496171623 79.15144685158666 l -1.255640842777403 -10.398507430121912 a31.474043665192127,31.474043665192127 0 0,0 0.536953327461292,-0.06016674031950141 l 1.0769516137153117 10.418529930948383" fill="#ff780b" stroke="none" /><path d="M 98.1996594967304 79.07731436759882 l -2.5742746679994264 -29.916973768123096 a51.027524198789166,51.027524198789166 0 0,0 0.8733749674715582,-0.06760474609163097 l 2.060330705752651 29.95675628120978" fill="#93ff23" stroke="none" /><path d="M 98.5590905019552 79.04949213459386 l -1.1748034002372325 -17.08138360554453 a38.12173556941511,38.12173556941511 0 0,0 0.6532534214840957,-0.039298103665135566 l 0.881405626620653 17.09903368703436" fill="#ffd013" stroke="none" /><path d="M 98.9189461498227 79.02784411241856 l -0.406732167345871 -7.890495387137777 a28.900971364990284,28.900971364990284 0 0,0 0.4956850180610883,-0.02128684747690831 l 0.2712213886839626 7.896314803040514" fill="#ff5407" stroke="none" /><path d="M 99.27912038922189 79.0123766808444 l -0.21332798107981685 -6.210811407894357 a27.214474006055724,27.214474006055724 0 0,0 0.4670349569690623,-0.01202916380447903 l 0.10667971004001064 6.213558289048881" fill="#ff3c05" stroke="none" /><path d="M 99.63950707515114 79.00309439819443 l -0.16381372197887867 -9.541328052729574 a30.54273419651375,30.54273419651375 0 0,0 0.5243066468277284,-0.004500541978609407 l 2.3372957777749104e-15 9.542734196513749" fill="#ff6b09" stroke="none" /></svg>