<?xml version="1.0" encoding="utf-8" ?>
<svg baseProfile="full" height="200mm" version="1.1" viewBox="0,0,200,200" width="200mm" xmlns="http://www.w3.org/2000/svg" xmlns:ev="http://www.w3.org/2001/xml-events" xmlns:xlink="http://www.w3.org/1999/xlink"><defs /><rect fill="#1a1a1a" height="200" width="200" x="0" y="0" /><text alignment-baseline="middle" fill="#e1ed5e" style="dominant-baseline: central; font-size:9.0px; font-family:Arial;" text-anchor="middle" x="100.0" y="100.0">2016</text><line stroke="#e1ed5e" stroke-width="0.3" x1="100.0" x2="100.0" y1="15.0" y2="10.0" /><path d="M 100.0 14.0 a86.0,86.0 0 0,1 42.35913384403234,11.155469271406648" fill="none" id="id13" stroke="none" /><text fill="#e1ed5e" style="font-size:6.75px; font-family:Arial;" text-anchor="middle"><textPath startOffset="22.145653131862478" xlink:href="#id13">January</textPath></text><path d="M 100.0 79.0 l 0.0 -5.725861350662093 a26.725861350662093,26.725861350662093 0 0,0 0.4587849489240544,0.003938117005152693 l -0.09829202407519963 5.725017631851375" fill="#ff3304" stroke="none" /><path d="M 100.36049292484886 79.00309439819443 l 0.8227346768245356 -47.92017028311911 a68.9272324708154,68.9272324708154 0 0,0 1.182878899068226,0.030466764479678936 l -1.645226889963503 47.89898580128939" fill="#3aff92" stroke="none" /><path d="M 100.72087961077811 79.0123766808444 l 0.510610127468268 -14.86585673672018 a35.87462333032208,35.87462333032208 0 0,0 0.6152911986538214,0.026423251505278397 l -0.7657270867229256 14.85490091678907" fill="#ffb210" stroke="none" /><path d="M 101.80034050326958 79.07731436759882 l 1.988958366462579 -23.114711112623034 a44.20012554284007,44.20012554284007 0 0,0 0.7554021121791687,0.07153736541198207 l -2.385460042026761 23.077161991705868" fill="#e3ff1b" stroke="none" /><path d="M 102.15924093988457 79.11130261209362 l 0.7250434595382338 -7.014137764627859 a28.051511653496565,28.051511653496565 0 0,0 0.47856426339403296,0.053624123902831625 l -0.8453436245330634 7.000657880218056" fill="#ff4606" stroke="none" /><path d="M 102.51750503828377 79.15144685158666 l 2.376676023131487 -19.68228687978943 a40.82526180753382,40.82526180753382 0 0,0 0.6950445963480079,0.08998743827483975 l -2.7141984413702867 19.63858784531419" fill="#fff116" stroke="none" /><path d="M 102.87502721639298 79.19773525538626 l 3.308796678396072 -23.940804489652315 a45.16837303317543,45.16837303317543 0 0,0 0.7671630800705082,0.11274655405879805 l -3.719284864074262 23.880476862294632" fill="#d7ff1c" stroke="none" /><path d="M 104.29559338865022 79.4440306129975 l 1.4360809214565133 -6.8721670763150104 a28.02061313118444,28.02061313118444 0 0,0 0.4699958597227888,0.10243341010858108 l -1.5538391977984363 6.84650220807271" fill="#ff4606" stroke="none" /><path d="M 104.64783097203109 79.52079915486377 l 5.41475661663515 -23.85841674253983 a45.4651515155353,45.4651515155353 0 0,0 0.7596314186736035,0.1792709464378518 l -5.823520189048637 23.76194965245575" fill="#d4ff1c" stroke="none" /><path d="M 106.04205211174951 79.88797359093562 l 5.181611500497496 -17.247899457348783 a39.00941790933012,39.00941790933012 0 0,0 0.6396789744430007,0.19817418144018303 l -5.476931107812127 17.156408688101955" fill="#ffdb14" stroke="none" /><path d="M 106.38641147887787 79.99465700312896 l 4.112597007600005 -12.882651551196236 a34.52317141562804,34.52317141562804 0 0,0 0.5630191063877146,0.1850755632500701 l -4.333138851635462 12.810155066544144" fill="#ffa00e" stroke="none" /><path d="M 106.72888874123014 80.10723608172694 l 2.3196307925678687 -6.857576266846328 a28.23927063104033,28.23927063104033 0 0,0 0.457871840548946,0.15927159412667555 l -2.437008405161833 6.816746240151062" fill="#ff4906" stroke="none" /><path d="M 109.06512990194946 81.05736502329252 l 8.556328681311056 -17.879436114418287 a40.82132680403083,40.82132680403083 0 0,0 0.6295032522385259,0.3079215854801101 l -8.86199218281165 17.729920778840956" fill="#fff116" stroke="none" /><line stroke="#e1ed5e" stroke-width="0.3" x1="143.13028292997686" x2="145.6673583964461" y1="26.7553504044142" y2="22.446841604673864" /><path d="M 143.63769802327073 25.89364864446614 a86.0,86.0 0 0,1 29.32050498858742,28.57503671076993" fill="none" id="id14" stroke="none" /><text fill="#e1ed5e" style="font-size:6.75px; font-family:Arial;" text-anchor="middle"><textPath startOffset="20.669276256404974" xlink:href="#id14">February</textPath></text><path d="M 110.96478420261332 82.08984904055464 l 6.037194205827276 -9.861303022460264 a32.56256940215532,32.56256940215532 0 0,0 0.47422865628350575,0.29595375532067864 l -6.205586990900494 9.756213470298041" fill="#ff850c" stroke="none" /><path d="M 112.16784306229584 82.88440491214696 l 10.437870143300529 -14.682171526842044 a39.014308032006554,39.014308032006554 0 0,0 0.542519943450735,0.3927426011133067 l -10.68837109712523 14.500828154355661" fill="#ffdb14" stroke="none" /><path d="M 112.7482090630111 83.31218511350987 l 16.801294365945942 -21.99343365381795 a48.67660774473741,48.67660774473741 0 0,0 0.6596608806211527,0.5129562906941741 l -17.176365191202322 21.701776311502982" fill="#aeff20" stroke="none" /><path d="M 113.86319453409587 84.22622945171908 l 18.988024638382978 -21.604886454873046 a49.763104811473255,49.763104811473255 0 0,0 0.636813649366515,0.5694426920513654 l -19.35610331457287 21.275748232938298" fill="#a2ff22" stroke="none" /><path d="M 114.13192950727249 84.46653392183569 l 12.59950182623329 -13.849059614884636 a39.72281758939836,39.72281758939836 0 0,0 0.5004511873181324,0.4632101476792533 l -12.835382784865388 13.630731721073007" fill="#ffe415" stroke="none" /><path d="M 114.65682725009322 84.96080404539774 l 3.5099026569346834 -3.6014693315624706 a26.02891618615206,26.02891618615206 0 0,0 0.3173148978054728,0.3146028209584856 l -3.5712094748701184 3.5406865003753256" fill="#ff2904" stroke="none" /><path d="M 115.41159269507618 85.73525988315684 l 9.790401607397596 -9.061849565598054 a34.34050528217215,34.34050528217215 0 0,0 0.3967183588431721,0.4360629711961241 l -9.944517667082646 8.892449018844259" fill="#ff9d0e" stroke="none" /><path d="M 116.57777611688842 87.10902102172516 l 18.330231633833193 -14.253698987883544 a44.21993381961222,44.21993381961222 0 0,0 0.46083071799740727,0.603242202723388 l -18.572214329184906 13.936935871919275" fill="#e3ff1b" stroke="none" /><path d="M 116.7966241395341 87.39550010848427 l 14.958522262719256 -11.225153975667295 a39.70191086658545,39.70191086658545 0 0,0 0.4043885025250281,0.5486306687358375 l -15.14901278482811 10.966716997662584" fill="#ffe315" stroke="none" /><path d="M 117.01052211995028 87.68569379921539 l 18.856863475867055 -13.650914956683128 a44.27936380793264,44.27936380793264 0 0,0 0.44044240696076364,0.6195374035040755 l -19.08842098135778 13.325200326469549" fill="#e2ff1b" stroke="none" /><line stroke="#e1ed5e" stroke-width="0.3" x1="172.87174338648825" x2="177.1583165268699" y1="56.24261187166439" y2="53.66864786411523" /><path d="M 173.72905801456457 55.72781907015455 a86.0,86.0 0 0,1 12.242430191666344,42.057860355516425" fill="none" id="id15" stroke="none" /><text fill="#e1ed5e" style="font-size:6.75px; font-family:Arial;" text-anchor="middle"><textPath startOffset="22.145653131862474" xlink:href="#id15">March</textPath></text><path d="M 118.00360718960297 89.18935116829356 l 20.01020761887586 -12.015554735171612 a44.340564786320456,44.340564786320456 0 0,0 0.38624071462439385,0.6559211737178248 l -20.21352204363002 11.67028239316023" fill="#e1ff1b" stroke="none" /><path d="M 118.18653347947321 89.5 l 9.759528889909305 -5.634666631753068 a32.269333263506134,32.269333263506134 0 0,0 0.2728550914573602,0.48210880213525625 l -9.85481734638804 5.466301059518694" fill="#ff810b" stroke="none" /><path d="M 118.36410011445183 89.81374322990088 l 12.75431701802227 -7.0746046505474425 a35.585014006087206,35.585014006087206 0 0,0 0.2917202688167203,0.5367324374841269 l -12.873882636454333 6.854617379588713" fill="#ffae10" stroke="none" /><path d="M 119.0197475246899 91.09779779509293 l 10.013349618796022 -4.686753225258953 a32.05589554865266,32.05589554865266 0 0,0 0.22899439644198588,0.5003940831344572 l -10.092328480093059 4.514170159909812" fill="#ff7e0b" stroke="none" /><path d="M 119.16976305983485 91.42560881287824 l 13.896328573775387 -6.2156510168860954 a36.223083307728544,36.223083307728544 0 0,0 0.24901837707203103,0.5698027793434299 l -14.00098083286439 5.976186167766816" fill="#ffb610" stroke="none" /><path d="M 119.31412917781788 91.75594674310238 l 21.377742237735724 -9.12488696215888 a44.24373948518713,44.24373948518713 0 0,0 0.2921649146502941,0.7010894362580748 l -21.5312329969225 8.756565016459529" fill="#e2ff1b" stroke="none" /><path d="M 119.58574465831526 92.42381321644754 l 16.910522340138094 -6.541353320560605 a39.13160415078376,39.13160415078376 0 0,0 0.2369685400523413,0.6285872060450153 l -17.020321564004878 6.250097834321432" fill="#ffdc14" stroke="none" /><path d="M 119.83427380445688 93.10060997987247 l 45.1396915994812 -15.701927925544382 a68.79270130757692,68.79270130757692 0 0,0 0.37840761383061733,1.118694871663651 l -45.402584634884185 14.92473137940657" fill="#3aff90" stroke="none" /><path d="M 120.05942366710727 93.78553927170692 l 22.065868185825153 -6.836062369097811 a44.10052569766337,44.10052569766337 0 0,0 0.21782232453029737,0.7250596754897208 l -22.179966830359078 6.456265090017367" fill="#e4ff1a" stroke="none" /><path d="M 120.26092885502905 94.47779374421319 l 6.302899969591031 -1.71788341446324 a27.53281497153857,27.53281497153857 0 0,0 0.1203715255925834,0.45707028897975416 l -6.331460975988344 1.6094326211106873" fill="#ff3f05" stroke="none" /><path d="M 120.43855184770803 95.1765574152323 l 27.592350618510817 -6.511719615893005 a49.35031401961608,49.35031401961608 0 0,0 0.18750566845160876,0.8261845723154541 l -27.70006714852009 6.0371007096385245" fill="#a7ff21" stroke="none" /><path d="M 120.65975698304385 96.23510406497455 l 22.83842356294851 -4.161921561086344 a44.21454677397939,44.21454677397939 0 0,0 0.12966480631303157,0.7478721457321816 l -22.906503186753774 3.769256382433569" fill="#e3ff1b" stroke="none" /><path d="M 120.7213421655516 96.59031103205396 l 19.792738323634204 -3.2568875591337396 a41.05890841797475,41.05890841797475 0 0,0 0.10847080826004102,0.6964604007370113 l -19.84573062403251 2.916638976465287" fill="#fff417" stroke="none" /><path d="M 120.77682067341334 96.94652285012252 l 8.749366593747805 -1.2858555882949372 a29.843350065769158,29.843350065769158 0 0,0 0.07013966524324126,0.5074956776649481 l -8.77015077554626 1.1354716024299034" fill="#ff6008" stroke="none" /><path d="M 120.82617615685814 97.30363454192243 l 27.30722085679035 -3.5354664495190207 a48.53513816811531,48.53513816811531 0 0,0 0.09988511498690064,0.8271920400840128 l -27.363888058036913 3.066180732511595" fill="#b0ff20" stroke="none" /><path d="M 120.93736805541906 98.37931529534042 l 32.921494490433716 -2.5483318836424096 a54.019975694613194,54.019975694613194 0 0,0 0.06363048650686372,0.9251733088376513 l -32.96038893810565 1.9828151506504241" fill="#73ff27" stroke="none" /><path d="M 120.96210409425399 98.7389718711861 l 33.33667920136803 -2.0054518384771356 a54.396946226434764,54.396946226434764 0 0,0 0.04807242192280554,0.9325921426517013 l -33.36619321274741 1.4328879024487036" fill="#6fff27" stroke="none" /><line stroke="#e1ed5e" stroke-width="0.3" x1="184.99686870605535" x2="189.99668451229388" y1="99.2704041080226" y2="99.22748670261217" /><path d="M 185.99683186730306 99.26182062694052 a86.0,86.0 0 0,1 -10.086455211305974,41.156179273409016" fill="none" id="id16" stroke="none" /><text fill="#e1ed5e" style="font-size:6.75px; font-family:Arial;" text-anchor="middle"><textPath startOffset="21.40746469413373" xlink:href="#id16">April</textPath></text><path d="M 120.99922638620191 99.81974689727618 l 15.288157181423397 -0.13123044231247835 a36.288720398807,36.288720398807 0 0,0 0.0,0.6229670900726085 l -15.288157181423397 -0.1312304423124765" fill="#ffb711" stroke="none" /><path d="M 120.99922638620191 100.18025310272382 l 11.19144446484977 0.09606509076334688 a32.19185675888858,32.19185675888858 0 0,0 -0.009486738453250106,0.5525549547344425 l -11.188146294797852 -0.28816696146686044" fill="#ff800b" stroke="none" /><path d="M 120.98066250479742 100.90099992219065 l 28.884604655099285 1.2404292066945504 a49.91122707008826,49.91122707008826 0 0,0 -0.044108240128234354,0.8556880748766976 l -28.859054825514477 -1.7360890749479787" fill="#a0ff22" stroke="none" /><path d="M 120.96210409425399 101.26102812881392 l 14.048996248080396 0.8451527275492712 a35.07439443498231,35.07439443498231 0 0,0 -0.04131436108835773,0.6007017429688423 l -14.032417925826971 -1.086197894672457" fill="#ffa70f" stroke="none" /><path d="M 120.93736805541906 101.62068470465957 l 21.012210772724767 1.626478004317457 a42.075066601459156,42.075066601459156 0 0,0 -0.061923232542970545,0.7196418263576934 l -20.981193917484056 -1.9869408780508075" fill="#fdff18" stroke="none" /><path d="M 120.9064616781168 101.97986365728391 l 14.44576123441868 1.3680286081007755 a35.51039351342394,35.51039351342394 0 0,0 -0.06268025378938999,0.6063745964698739 l -14.420148588147622 -1.6158077268535809" fill="#ffad10" stroke="none" /><path d="M 120.86939407059847 102.33845913500097 l 20.53532067386553 2.301025514086632 a41.66383588772827,41.66383588772827 0 0,0 -0.0857440031184462,0.7100833479925408 l -20.49279458448742 -2.6532025390025815" fill="#fffc17" stroke="none" /><path d="M 120.82617615685814 102.69636545807757 l 29.716960327187927 3.847455468626907 a50.96499031654655,50.96499031654655 0 0,0 -0.11978103503962786,0.8666759006908676 l -29.64653477559309 -4.35701967751786" fill="#94ff23" stroke="none" /><path d="M 120.77682067341334 103.0534771498775 l 35.48135263164391 5.214536969369296 a56.86248430290327,56.86248430290327 0 0,0 -0.15022122773505991,0.9645280434967394 l -35.386609911770584 -5.822853194797485" fill="#55ff2b" stroke="none" /><path d="M 120.65975698304385 103.76489593502545 l 15.1684636408805 2.76419936347763 a36.41827121780402,36.41827121780402 0 0,0 -0.11735997342774866,0.6140769725783558 l -15.118777375170591 -3.0241789010893" fill="#ffb911" stroke="none" /><path d="M 120.592083275326 104.11899336999214 l 31.92351549897086 6.385597169989126 a53.55590104774257,53.55590104774257 0 0,0 -0.18806355914877879,0.8999522103016607 l -31.80919422899772 -6.9326658315761955" fill="#78ff26" stroke="none" /><path d="M 120.51834098615036 104.47187691870673 l 31.25620015370896 6.8121433466864785 a52.9899256801969,52.9899256801969 0 0,0 -0.201334310292682,0.8871161198228767 l -31.134654981858613 -7.347693800448372" fill="#7eff26" stroke="none" /><path d="M 120.43855184770803 104.8234425847677 l 22.086360290436893 5.21232089050195 a43.693073831998845,43.693073831998845 0 0,0 -0.1785433685538061,0.7285178717734598 l -21.993629395366792 -5.59069458688351" fill="#e9ff1a" stroke="none" /><path d="M 120.35273937422433 105.17358676015961 l 28.095882047754944 7.141863348447205 a49.989391165204765,49.989391165204765 0 0,0 -0.21855009319680374,0.8298703016535396 l -27.96914247375341 -7.623114154473548" fill="#9fff22" stroke="none" /><path d="M 120.26092885502905 105.52220625578681 l 8.323785889692132 2.26868485846731 a29.627418068256382,29.627418068256382 0 0,0 -0.13795302926909295,0.4895466335665619 l -8.28361436834846 -2.4112394159368806" fill="#ff5d08" stroke="none" /><path d="M 120.16314734710363 105.8691983318838 l 11.048112310367419 3.215944476633894 a32.506653922808496,32.506653922808496 0 0,0 -0.16055760805914976,0.5344440586969462 l -10.991278382304639 -3.4051261389215637" fill="#ff850c" stroke="none" /><path d="M 120.05942366710727 106.21446072829308 l 30.214299771595464 9.360467303522071 a52.63103316093452,52.63103316093452 0 0,0 -0.2747722990255134,0.8607203131562181 l -30.049162756792693 -9.877756650369673" fill="#82ff25" stroke="none" /><path d="M 119.94978838288452 106.5578916946017 l 13.91171169399132 4.573055955520256 a35.64406238135628,35.64406238135628 0 0,0 -0.19606708759193783,0.5796375056272256 l -13.831159184827017 -4.8111951356216425" fill="#ffaf10" stroke="none" /><path d="M 119.83427380445688 106.89939002012753 l 20.237075399481075 7.0395053241815075 a42.42647558357328,42.42647558357328 0 0,0 -0.24518427916463081,0.6858240659324512 l -20.1132509502725 -7.3858643464948806" fill="#f9ff18" stroke="none" /><path d="M 119.71291397450082 107.23885506374661 l 16.565347787008495 6.08302516136489 a38.64692444643954,38.64692444643954 0 0,0 -0.23403347402517594,0.6208015947011359 l -16.458483629168878 -6.366495036260185" fill="#ffd614" stroke="none" /><path d="M 119.58574465831526 107.57618678355244 l 27.80958440631833 10.757344666279256 a50.817670082038106,50.817670082038106 0 0,0 -0.32170325694478485,0.8109023596222696 l -27.62082247440742 -11.23314804311509" fill="#96ff23" stroke="none" /><path d="M 119.4528033332814 107.91128576633889 l 19.76936050082374 8.040026810542301 a42.34173483402343,42.34173483402343 0 0,0 -0.27960496756991765,0.6709501355533718 l -19.62842968871734 -8.37820945553695" fill="#faff18" stroke="none" /><path d="M 119.31412917781788 108.2440532568976 l 13.542741453838197 5.780591025458336 a35.724845625306806,35.724845625306806 0 0,0 -0.2455932037366062,0.5619653124495867 l -13.441514368084626 -6.0122184076837675" fill="#ffb010" stroke="none" /><path d="M 119.16976305983485 108.57439118712176 l 37.3905155113508 16.7243020000701 a61.96038241513516,61.96038241513516 0 0,0 -0.4426199964662797,0.9672045724701215 l -37.09791105002946 -17.363695554754912" fill="#31ff40" stroke="none" /><path d="M 119.0197475246899 108.90220220490707 l 20.278064154915594 9.491157923984057 a43.38932702447481,43.38932702447481 0 0,0 -0.32153710800803875,0.6718888901032357 l -20.112147788947645 -9.837859316152395" fill="#edff1a" stroke="none" /><path d="M 118.8641267826498 109.22738970284198 l 16.68921596953789 8.163531837978235 a39.57883693204617,39.57883693204617 0 0,0 -0.30377716055647125,0.6077578133654626 l -16.546618895769686 -8.448821507507445" fill="#ffe215" stroke="none" /><path d="M 118.70294669586154 109.54985784667822 l 12.781234627971443 6.526189470944536 a35.3509967467742,35.3509967467742 0 0,0 -0.2806059957800037,0.5380989961955652 l -12.66732056321649 -6.744634710244605" fill="#ffab0f" stroke="none" /><path d="M 118.5362547648365 109.86951160357373 l 21.291072656627318 11.336296965217507 a45.12097435331714,45.12097435331714 0 0,0 -0.3698945507052652,0.680564311206171 l -21.093332756306715 -11.70011610989828" fill="#d8ff1c" stroke="none" /><line stroke="#e1ed5e" stroke-width="0.3" x1="174.33088141563837" x2="178.70328620479359" y1="141.23008692659167" y2="143.65538615756765" /><path d="M 175.20536237346943 141.71514677278685 a86.0,86.0 0 0,1 -30.301960400862466,31.631185727798858" fill="none" id="id17" stroke="none" /><text fill="#e1ed5e" style="font-size:6.75px; font-family:Arial;" text-anchor="middle"><textPath startOffset="22.145653131862474" xlink:href="#id17">May</textPath></text><path d="M 118.18653347947321 110.5 l 3.87411181466636 2.2367194990683315 a25.473438998136665,25.473438998136665 0 0,0 -0.22189341362689938,0.37682352687222337 l -3.8351446909096953 -2.302894194234104" fill="#ff2103" stroke="none" /><path d="M 118.00360718960297 110.81064883170644 l 24.497542250409854 14.710070249811576 a49.57473959750128,49.57473959750128 0 0,0 -0.4443597212395675,0.7258282097153267 l -24.24141456471488 -15.12843557565146" fill="#a4ff21" stroke="none" /><path d="M 117.81537515405839 111.11811171558189 l 17.016975153814254 10.619851066020844 a41.058880328921546,41.058880328921546 0 0,0 -0.3782936640617181,0.5947404728125146 l -16.832163798126647 -10.91040521351203" fill="#fff417" stroke="none" /><path d="M 117.62189284568427 111.42229804090321 l 20.330524069232755 13.178000075253305 a45.22787433748633,45.22787433748633 0 0,0 -0.4278892052582363,0.647878793365157 l -20.101310425053793 -13.525058746957523" fill="#d7ff1c" stroke="none" /><path d="M 117.423217284605 111.72311816256416 l 16.83373781100752 11.326490065094726 a41.2895072854033,41.2895072854033 0 0,0 -0.40072501650494263,0.584669774892919 l -16.636823057687256 -11.613794575057689" fill="#fff717" stroke="none" /><path d="M 117.21940702142032 112.02048342749411 l 10.801132973562009 7.540029673806565 a34.17256698576447,34.17256698576447 0 0,0 -0.3399111089428481,0.4781275429625029 l -10.670106766089203 -7.724334443478572" fill="#ff9b0e" stroke="none" /><path d="M 116.79662413953412 112.60449989151573 l 20.514636852506417 15.39456594574211 a46.64844996969636,46.64844996969636 0 0,0 -0.4861390969216527,0.6363716831451117 l -20.247345778230457 -15.744458542128097" fill="#c6ff1e" stroke="none" /><path d="M 116.57777611688842 112.89097897827486 l 10.521763067049783 8.181786601252874 a34.328508169618004,34.328508169618004 0 0,0 -0.36573522207328324,0.4620945054625183 l -10.379761414334938 -8.361201050630074" fill="#ff9d0e" stroke="none" /><path d="M 116.35404254752997 113.17365903436017 l 16.557366086578824 13.337442084899775 a42.26108494628264,42.26108494628264 0 0,0 -0.4599478755666405,0.5610616217128462 l -16.325971391773557 -13.619705988311114" fill="#fbff18" stroke="none" /><path d="M 116.1254893667686 113.45245675266167 l 18.782373356486183 15.668923872237674 a45.46002298070101,45.46002298070101 0 0,0 -0.5050509764042407,0.5949487802715787 l -18.51062781657483 -15.989039434958809" fill="#d4ff1c" stroke="none" /><path d="M 115.89218393027572 113.72728997021213 l 19.525020431944593 16.865247616031695 a46.80044573293098,46.80044573293098 0 0,0 -0.5303803945830572,0.6034755284493603 l -19.23262897340295 -17.197935422292346" fill="#c4ff1e" stroke="none" /><path d="M 115.6541949942343 113.99807769240083 l 9.928276943610925 8.877926463770574 a34.31871845806323,34.31871845806323 0 0,0 -0.39646666676601694,0.43578631751337243 l -9.774412576003028 -9.047050356841618" fill="#ff9d0e" stroke="none" /><path d="M 115.16444852881244 114.52719865689866 l 9.787888647392514 9.376575913203313 a34.554443552939375,34.554443552939375 0 0,0 -0.41401686080042216,0.4248177720759628 l -9.625484985441283 -9.543216377347013" fill="#ffa00e" stroke="none" /><path d="M 114.91283532996326 114.78537596483092 l 14.064523809778594 13.944314926892249 a40.80542220646101,40.80542220646101 0 0,0 -0.497453227969632,0.4932015165266225 l -13.823078661679 -14.183696453647533" fill="#fff116" stroke="none" /><path d="M 114.65682725009322 115.03919595460226 l 11.865958578573176 12.175518835512014 a38.00130088852974,38.00130088852974 0 0,0 -0.47108496162834546,0.45128873686700455 l -11.655201131079517 -12.377419702684598" fill="#ffce13" stroke="none" /><path d="M 114.39649973595853 115.28858382429668 l 43.18949920787558 45.86575147289004 a84.0,84.0 0 0,0 -1.058280914744131,0.9795290154704817 l -42.39578852181748 -46.6003982344929" fill="#4dd2ff" stroke="none" /><path d="M 114.13192950727249 115.5334660781643 l 16.11085067779302 17.708647100530907 a44.94067024319256,44.94067024319256 0 0,0 -0.5751014196354176,0.5142592356893251 l -15.804484231334225 -17.982601866103618" fill="#daff1c" stroke="none" /><path d="M 113.59037401385872 116.0094264158162 l 33.980646249647215 40.02911583896478 a73.50727982282956,73.50727982282956 0 0,0 -0.9689857943286996,0.8083624128030147 l -33.28848612115662 -40.60654043567966" fill="#40ffc4" stroke="none" /><path d="M 113.31354834802062 116.24036423190432 l 7.383342304168871 9.006477096420161 a32.64604539184313,32.64604539184313 0 0,0 -0.4364453378432103,0.3515694698220628 l -7.227646195970409 -9.131894860035628" fill="#ff860c" stroke="none" /><path d="M 113.03279911837588 116.46651593811092 l 8.549156932855233 10.801580505739837 a34.77542107104409,34.77542107104409 0 0,0 -0.47127328609245733,0.3664649577364842 l -8.362473702127545 -10.946746515097114" fill="#ffa30f" stroke="none" /><path d="M 112.7482090630111 116.68781488649013 l 14.767580423587352 19.331236820175963 a45.326490675081914,45.326490675081914 0 0,0 -0.6223694337773281,0.46703762585632297 l -14.433558000899257 -19.5818934732963" fill="#d5ff1c" stroke="none" /><path d="M 112.45986205192187 116.90419585922612 l 6.555936559893499 8.894387047568229 a32.0494536122515,32.0494536122515 0 0,0 -0.4456690029483842,0.3226299891211579 l -6.402286546571147 -9.005617808062462" fill="#ff7e0b" stroke="none" /><path d="M 112.16784306229584 117.11559508785304 l 7.41217667428603 10.426154744699021 a33.79238311696612,33.79238311696612 0 0,0 -0.47567592049105695,0.332058735356449 l -7.2321056626212155 -10.551858295860592" fill="#ff960d" stroke="none" /><path d="M 111.8722381534696 117.32195027204791 l 14.792935879800753 21.58333554087411 a47.16622489037836,47.16622489037836 0 0,0 -0.6717901400554133,0.4520103872706557 l -14.420249451648335 -21.834095602201888" fill="#c0ff1e" stroke="none" /><path d="M 110.96478420261333 117.91015095944535 l 9.386262473153867 15.331754344886763 a38.97677987034638,38.97677987034638 0 0,0 -0.5736402815616928,0.3444545070537874 l -9.121689435034737 -15.490622852476474" fill="#ffda14" stroke="none" /><line stroke="#e1ed5e" stroke-width="0.3" x1="143.1302829299769" x2="145.66735839644613" y1="173.24464959558577" y2="177.55315839532614" /><path d="M 143.63769802327073 174.10635135553383 a86.0,86.0 0 0,1 -40.68552437913181,11.842963189579606" fill="none" id="id18" stroke="none" /><text fill="#e1ed5e" style="font-size:6.75px; font-family:Arial;" text-anchor="middle"><textPath startOffset="21.407464694133747" xlink:href="#id18">June</textPath></text><path d="M 110.65571695917076 118.09573695890943 l 7.067670120595066 12.002449005044225 a34.92877392494542,34.92877392494542 0 0,0 -0.5192869670366319,0.2998104702052649 l -6.860590685698035 -12.12200637252566" fill="#ffa50f" stroke="none" /><path d="M 110.02825361518725 118.45085714620011 l 1.0634326220946613 1.956596247741708 a23.22691666175725,23.22691666175725 0 0,0 -0.3519554598364191,0.18739645839278152 l -1.0296883464716884 -1.9745631738570582" fill="#ff0000" stroke="none" /><path d="M 109.3889696526874 118.78422872680471 l 1.230265217248734 2.4613545564946717 a23.751693797926862,23.751693797926862 0 0,0 -0.3662734571011565,0.17916270206517285 l -1.1878315108855082 -2.482111008657068" fill="#ff0801" stroke="none" /><path d="M 109.06512990194946 118.94263497670748 l 4.812683246904261 10.05665699120514 a32.14891339430835,32.14891339430835 0 0,0 -0.49985633619091335,0.2339580045633691 l -4.639338196841842 -10.137791227339042" fill="#ff800b" stroke="none" /><path d="M 108.73861861582097 119.09545874513695 l 10.329617334319373 22.57207807460953 a45.823370095128894,45.823370095128894 0 0,0 -0.718088425442533,0.3211918189844148 l -9.940615506021214 -22.74607364450379" fill="#d0ff1d" stroke="none" /><path d="M 108.4095320186766 119.2426549942271 l 7.987773277133465 18.277588455888264 a40.94679828167186,40.94679828167186 0 0,0 -0.646501052108288,0.27595285581615847 l -7.672837149854746 -18.412015961363828" fill="#fff316" stroke="none" /><path d="M 108.07796709384702 119.3841803445677 l 7.123588489858075 17.094019124325804 a39.518936330028644,39.518936330028644 0 0,0 -0.6284367850434323,0.25557976952616684 l -6.829097243624203 -17.21378615043126" fill="#ffe115" stroke="none" /><path d="M 107.74402155503746 119.51999308798841 l 6.918436592180126 17.43897966957412 a39.76120403374571,39.76120403374571 0 0,0 -0.6366104606094988,0.24625460211405523 l -6.618053869077098 -17.555174159826215" fill="#ffe415" stroke="none" /><path d="M 107.407793817531 119.65005319985036 l 9.607591310883954 25.48527740263336 a48.23610058518193,48.23610058518193 0 0,0 -0.7773152247584894,0.28544091746906913 l -9.168686934471337 -25.64644916911115" fill="#b3ff20" stroke="none" /><path d="M 106.72888874123015 119.89276391827305 l 6.289052502635796 18.592466232646725 a40.62732742869029,40.62732742869029 0 0,0 -0.6625683749746175,0.21779938513430594 l -5.968961390013444 -18.697686539183053" fill="#ffef16" stroke="none" /><path d="M 106.38641147887787 120.00534299687104 l 3.6176881110515864 11.33235648167251 a32.89579634562348,32.89579634562348 0 0,0 -0.5394274100363254,0.16711599052232534 l -3.4226200681436367 -11.39278906000148" fill="#ff8a0c" stroke="none" /><path d="M 106.0420521117495 120.11202640906438 l 5.318488371579972 17.703518044392684 a39.485152682809215,39.485152682809215 0 0,0 -0.650828107654188,0.18944657686766028 l -5.013800251544176 -17.792208315562863" fill="#ffe115" stroke="none" /><path d="M 105.69591212413111 120.21278271476187 l 6.561557302874388 23.284652070310997 a45.19150793717379,45.19150793717379 0 0,0 -0.7484974752550664,0.20400631530119798 l -6.160878426684627 -23.393858879756337" fill="#d7ff1c" stroke="none" /><path d="M 105.3480935250658 120.30758222061773 l 4.005453899642602 15.20936087161737 a36.72794707090686,36.72794707090686 0 0,0 -0.6110738236796489,0.15533257639376508 l -3.7437747827375563 -15.275878679846405" fill="#ffbd11" stroke="none" /><path d="M 104.9986988182912 120.39639698878246 l 6.798512335302111 27.740250326055623 a49.56118446643073,49.56118446643073 0 0,0 -0.8280679072303384,0.19542177139434608 l -6.321312274331893 -27.852868241096193" fill="#a4ff21" stroke="none" /><path d="M 103.94208987418118 120.62667999033965 l 4.964631285153067 25.977048737416634 a47.447204481828315,47.447204481828315 0 0,0 -0.8013274009431006,0.14602854607202628 l -4.517969150658909 -26.05844545742002" fill="#bdff1f" stroke="none" /><path d="M 103.58742460773223 120.69131181640829 l 3.1891615449800903 18.39423630474434 a39.66865502907894,39.66865502907894 0 0,0 -0.6719539532128697,0.11056976729270604 l -2.8729300887141482 -18.446272070532714" fill="#ffe315" stroke="none" /><path d="M 103.2317021107853 120.74984581791261 l 3.5406215870039652 22.7333304591161 a44.00739696240612,44.00739696240612 0 0,0 -0.7474444601927078,0.109848595984731 l -3.149852021203572 -22.790760128399715" fill="#e5ff1a" stroke="none" /><path d="M 102.875027216393 120.80226474461374 l 2.522071294111327 18.248451515779642 a39.42191158203569,39.42191158203569 0 0,0 -0.6711527473351747,0.08689416008864786 l -2.2084407248853766 -18.289057272068685" fill="#ffe015" stroke="none" /><path d="M 102.51750503828377 120.84855314841334 l 1.82522385528071 15.115471856419193 a36.225272791122215,36.225272791122215 0 0,0 -0.6180102236084046,0.06924933460129155 l -1.5654777300715061 -15.144576951527455" fill="#ffb610" stroke="none" /><path d="M 102.15924093988457 120.88869738790638 l 2.8189804497731896 27.271078678641757 a48.41638895027703,48.41638895027703 0 0,0 -0.8274601492178738,0.07836133643800658 l -2.3504207371703005 -27.315451770584946" fill="#b1ff20" stroke="none" /><path d="M 101.44090949804482 120.95050786540614 l 0.9514494586015552 13.833866313613754 a34.86654655115002,34.86654655115002 0 0,0 -0.5974725570508407,0.03594246537693873 l -0.7138325494182493 -13.848160756815385" fill="#ffa40f" stroke="none" /><path d="M 101.08105385017728 120.97215588758144 l 0.6828784858230019 13.247660192512155 a34.2652487199702,34.2652487199702 0 0,0 -0.5876885664542222,0.025237875711810652 l -0.45536415876795017 -13.257430636649797" fill="#ff9c0e" stroke="none" /><path d="M 100.72087961077811 120.9876233191556 l 1.1382344516737641 33.138454137757066 a54.157996325278845,54.157996325278845 0 0,0 -0.9294200386779083,0.02393856331649795 l -0.5692010989251118 -33.15311041842361" fill="#72ff27" stroke="none" /><line stroke="#e1ed5e" stroke-width="0.3" x1="101.45913802915013" x2="101.54496967792366" y1="184.9874750549273" y2="189.98673829345242" /><path d="M 101.47630435890484 185.9873277026323 a86.0,86.0 0 0,1 -42.54439059252881,-10.42667462771756" fill="none" id="id19" stroke="none" /><text fill="#e1ed5e" style="font-size:6.75px; font-family:Arial;" text-anchor="middle"><textPath startOffset="22.145653131862474" xlink:href="#id19">July</textPath></text><path d="M 100.36049292484886 120.99690560180557 l 0.22589982260065267 13.157532155726011 a34.159471234012976,34.159471234012976 0 0,0 -0.5863927474495033,0.005033476481399096 l -1.6115704325205662e-15 -13.159471234012976" fill="#ff9b0e" stroke="none" /><path d="M 100.0 121.0 l 1.009090915810764e-15 8.239852637620352 a29.239852637620352,29.239852637620352 0 0,0 -0.5019409523564374,-0.004308559390828347 l 0.14144802750758423 -8.238638476423958" fill="#ff5708" stroke="none" /><path d="M 99.63950707515114 120.99690560180557 l -0.4181576150773002 24.355584715388176 a45.35917409559481,45.35917409559481 0 0,0 -0.778421068038075,-0.020049365463034173 l 0.8361919971861191 -24.344817632575094" fill="#d5ff1c" stroke="none" /><path d="M 98.91894614982273 120.97215588758144 l -1.0324496387526438 20.029247170663204 a41.055839411006474,41.055839411006474 0 0,0 -0.703532175713999,-0.04232274866644585 l 1.376126166599089 -20.008572444172067" fill="#fff417" stroke="none" /><path d="M 98.55909050195518 120.95050786540614 l -0.574140781553694 8.3478809572098 a29.367601455183504,29.367601455183504 0 0,0 -0.5026488815274688,-0.03890820240392938 l 0.7173586578563989 -8.336794987810817" fill="#ff5908" stroke="none" /><path d="M 98.19965949673042 120.92268563240118 l -2.2950635192201627 26.672116986663948 a47.770676889229804,47.770676889229804 0 0,0 -0.8164246091875208,-0.07731625932352444 l 2.752587691792699 -26.62878897183524" fill="#b9ff1f" stroke="none" /><path d="M 97.84075906011543 120.88869738790638 l -1.135209721607823 10.982124277313362 a32.0406410481633,32.0406410481633 0 0,0 -0.5466195893929832,-0.061249865130840374 l 1.3235652126016055 -10.961018651675552" fill="#ff7e0b" stroke="none" /><path d="M 97.48249496171623 120.84855314841334 l -3.4453466200019274 28.53241245975207 a49.73967595686099,49.73967595686099 0 0,0 -0.8468112993591926,-0.109636676454885 l 3.934635741251914 -28.469064187096787" fill="#a2ff22" stroke="none" /><path d="M 97.12497278360702 120.80226474461374 l -1.6774431727927808 12.137143180946733 a33.252512403289,33.252512403289 0 0,0 -0.5647779214153453,-0.08300290525219094 l 1.885546199815811 -12.106559202395658" fill="#ff8f0d" stroke="none" /><path d="M 96.41257539226777 120.69131181640829 l -2.844465041816314 16.406118474026844 a37.650876996660564,37.650876996660564 0 0,0 -0.6358789677169996,-0.1158783301609381 l 3.1256787430843707 -16.35487196993454" fill="#ffc912" stroke="none" /><path d="M 96.05791012581884 120.62667999033965 l -4.957974202027932 25.9422160654904 a47.411741377208784,47.411741377208784 0 0,0 -0.7981055811400285,-0.15964346847841943 l 5.402576268698919 -25.853283200349118" fill="#bdff1f" stroke="none" /><path d="M 95.70440661134978 120.55596938700252 l -1.5200462598464841 7.273971616305685 a28.43109707290209,28.43109707290209 0 0,0 -0.4768809964678941,-0.10393399361644715 l 1.6446896729335145 -7.246806164555519" fill="#ff4c07" stroke="none" /><path d="M 95.35216902796893 120.47920084513623 l -2.061274598389798 9.082356211193122 a30.313326329350073,30.313326329350073 0 0,0 -0.5064748343885243,-0.1195266818562159 l 2.2168815865182103 -9.045633385690678" fill="#ff6609" stroke="none" /><path d="M 95.00130118170881 120.39639698878247 l -4.805249476883551 19.60705766108968 a41.18730127234409,41.18730127234409 0 0,0 -0.6852678595661261,-0.1741924101825913 l 5.141122629675056 -19.521680019071827" fill="#fff617" stroke="none" /><path d="M 94.6519064749342 120.30758222061772 l -6.404427869748042 24.318655784787083 a46.147837193638814,46.147837193638814 0 0,0 -0.764336956313582,-0.20832343629873495 l 6.820946226996319 -24.205131854344202" fill="#ccff1d" stroke="none" /><path d="M 93.95794788825049 120.11202640906438 l -7.639055396484648 25.427930946778723 a47.550609024741945,47.550609024741945 0 0,0 -0.7797379823965963,-0.24156482012530572 l 8.074434011752878 -25.29304953884677" fill="#bbff1f" stroke="none" /><path d="M 93.61358852112213 120.00534299687104 l -2.158791666085951 6.7623841466639085 a28.0986069622577,28.0986069622577 0 0,0 -0.45824447563552717,-0.1506340610332245 l 2.2745588793692217 -6.724329164228663" fill="#ff4706" stroke="none" /><path d="M 93.27111125876986 119.89276391827306 l -6.810845230621777 20.13505371644565 a42.25577570731389,42.25577570731389 0 0,0 -0.6851356060047887,-0.2383257289430636 l 7.155486608671588 -20.015169554933998" fill="#fbff18" stroke="none" /><path d="M 92.93061703081489 119.77432235084164 l -2.0833305554733137 5.827446348126763 a27.18865067229236,27.18865067229236 0 0,0 -0.4381397304471557,-0.16089097788782275 l 2.183059437574588 -5.7908245212302205" fill="#ff3a05" stroke="none" /><path d="M 91.92203290615298 119.3841803445677 l -1.5500493611497947 3.719554191102847 a25.029607474996993,25.029607474996993 0 0,0 -0.39518761528385676,-0.1686820936565025 l 1.6136720516040828 -3.6923974477869406" fill="#ff1b02" stroke="none" /><path d="M 91.59046798132341 119.24265499422711 l -4.542472254406327 10.394065474542968 a32.34330865625799,32.34330865625799 0 0,0 -0.5068452088608487,-0.22670541511266645 l 4.720230866122811 -10.314556308520446" fill="#ff820c" stroke="none" /><path d="M 91.26138138417905 119.09545874513695 l -2.2870072411390407 4.997523560981875 a26.495966144691156,26.495966144691156 0 0,0 -0.4119634277676462,-0.19281968544816425 l 2.372459382778177 -4.957527643963185" fill="#ff3004" stroke="none" /><path d="M 90.93487009805054 118.94263497670748 l -4.743846473871344 9.91281461071629 a31.989448251577144,31.989448251577144 0 0,0 -0.4933073784778415,-0.24130135876149245 l 4.913314101611255 -9.829919501857578" fill="#ff7d0b" stroke="none" /><path d="M 90.6110303473126 118.78422872680471 l -8.362825513327389 16.731253061376776 a39.70485711172874,39.70485711172874 0 0,0 -0.6070547040156179,-0.3099664573063888 l 8.648807439056588 -16.585228652397554" fill="#ffe315" stroke="none" /><path d="M 90.28995756902619 118.62028667847754 l -10.725840628836847 20.56821366089276 a44.196876306850946,44.196876306850946 0 0,0 -0.6697114451494232,-0.35658362289490686 l 11.077340889772833 -20.38105957027528" fill="#e3ff1b" stroke="none" /><path d="M 89.97174638481275 118.45085714620012 l -26.98962881730248 49.657877118588964 a77.51853522182476,77.51853522182476 0 0,0 -1.1637223216336248,-0.6454971549587284 l 27.83809532709221 -49.18724704819709" fill="#45ffed" stroke="none" /><line stroke="#e1ed5e" stroke-width="0.3" x1="58.13341422392154" x2="55.67067388415222" y1="173.97424548756322" y2="178.32567169271397" /><path d="M 57.64086615596768 174.84453072859336 a86.0,86.0 0 0,1 -31.369924170532247,-30.572349798747897" fill="none" id="id20" stroke="none" /><text fill="#e1ed5e" style="font-size:6.75px; font-family:Arial;" text-anchor="middle"><textPath startOffset="22.145653131862474" xlink:href="#id20">August</textPath></text><path d="M 89.34428304082925 118.09573695890944 l -11.461159880603214 19.46355512614346 a43.587345217116024,43.587345217116024 0 0,0 -0.6414962207254218,-0.38520004886211523 l 11.793588857886064 -19.263941076745425" fill="#eaff1a" stroke="none" /><path d="M 89.03521579738668 117.91015095944536 l -9.961193237266 16.270860540339612 a40.07790013165324,40.07790013165324 0 0,0 -0.5836790239544271,-0.36425887966152504 l 10.239036390010142 -16.09746586383654" fill="#ffe815" stroke="none" /><path d="M 88.72937992617639 117.7192867562869 l -14.344397710476391 22.551775742000267 a47.72722085802772,47.72722085802772 0 0,0 -0.6875319067617294,-0.4456498754381144 l 14.72941524949513 -22.302212024858257" fill="#b9ff1f" stroke="none" /><path d="M 88.4268655584334 117.5232005979908 l -7.625101164034964 11.545375019359998 a34.83610682596189,34.83610682596189 0 0,0 -0.4961718504711677,-0.33384656444313227 l 7.822169302603135 -11.412778780859744" fill="#ffa40f" stroke="none" /><path d="M 88.1277618465304 117.32195027204791 l -13.199982434126698 19.259168857645196 a44.34855715774626,44.34855715774626 0 0,0 -0.6242691045328874,-0.4357883181458806 l 13.528646629833352 -19.029735723694184" fill="#e1ff1b" stroke="none" /><path d="M 87.83215693770417 117.11559508785305 l -9.334377013672563 13.129970245789673 a37.10983280138875,37.10983280138875 0 0,0 -0.5160369466596689,-0.37357095374705224 l 9.558394970706187 -12.967798520669556" fill="#ffc212" stroke="none" /><path d="M 87.2517909369889 116.68781488649013 l -14.0801644065801 18.43138718756287 a44.194116999234566,44.194116999234566 0 0,0 -0.5989145811242553,-0.46571960078467795 l 14.394488932339582 -18.1869665351574" fill="#e3ff1b" stroke="none" /><path d="M 86.96720088162412 116.46651593811092 l -6.884276861325045 8.698058922702383 a32.092767775725676,32.092767775725676 0 0,0 -0.42904856334297425,-0.3456111518748673 l 7.032576195023282 -8.578599477034105" fill="#ff7f0b" stroke="none" /><path d="M 86.68645165197938 116.24036423190432 l -3.4989523180548354 4.268152906338061 a26.519039459534905,26.519039459534905 0 0,0 -0.349578607417752,-0.2916309075019014 l 3.57170525963448 -4.20745981492429" fill="#ff3004" stroke="none" /><path d="M 86.40962598614128 116.0094264158162 l -13.156148161038038 15.497909453038806 a41.32902928941208,41.32902928941208 0 0,0 -0.5369241557920615,-0.4637822976946335 l 13.42025179659296 -15.26978302287945" fill="#fff817" stroke="none" /><path d="M 86.13680546590413 115.77377054828092 l -13.965053927133994 15.889667839487435 a42.15429685045102,42.15429685045102 0 0,0 -0.5394444682564579,-0.4823745698945875 l 14.235763422213822 -15.647597739709468" fill="#fcff18" stroke="none" /><path d="M 85.86807049272751 115.53346607816431 l -18.220287997550834 20.02728823397341 a48.075287047792216,48.075287047792216 0 0,0 -0.6056804613514788,-0.560608792742675 l 18.56139823021628 -19.711561695098357" fill="#b5ff1f" stroke="none" /><path d="M 85.60350026404147 115.28858382429668 l -8.112077280503787 8.61474495653838 a32.832988991420095,32.832988991420095 0 0,0 -0.4070157336070424,-0.3899118657271676 l 8.258765499976143 -8.47422096050563" fill="#ff890c" stroke="none" /><path d="M 85.34317274990678 115.03919595460226 l -14.035681554650942 14.401845751129372 a41.11003524966806,41.11003524966806 0 0,0 -0.5011667232217656,-0.4968832726938189 l 14.280840198002672 -14.158782468206892" fill="#fff517" stroke="none" /><path d="M 85.08716467003676 114.78537596483092 l -26.85266752757129 26.623158927801747 a58.81346776799599,58.81346776799599 0 0,0 -0.7046783219294873,-0.7230620370715288 l 27.305732650651585 -26.158274198662482" fill="#41ff2d" stroke="none" /><path d="M 84.83555147118756 114.52719865689866 l -17.699086675022357 16.955324665133293 a45.51001231395104,45.51001231395104 0 0,0 -0.5355968595230614,-0.5687853042775174 l 17.987539368281674 -16.648997900911287" fill="#d3ff1c" stroke="none" /><path d="M 84.58840730492382 114.26474011684316 l -21.630549991405744 20.020914146684273 a50.47401730676708,50.47401730676708 0 0,0 -0.5831006022080266,-0.6409297060174489 l 21.971048294455645 -19.646646865109147" fill="#9aff23" stroke="none" /><path d="M 84.3458050057657 113.99807769240083 l -24.59704499469855 21.99482930716556 a53.996774671512576,53.996774671512576 0 0,0 -0.6119349977971796,-0.6962696961350177 l 24.970991056454324 -21.56934733321924" fill="#73ff27" stroke="none" /><path d="M 84.1078160697243 113.72728997021213 l -36.11617450177795 31.196291345218913 a68.72406787291561,68.72406787291561 0 0,0 -0.7635094596503536,-0.8994122236508861 l 36.646378524935415 -30.571712339118474" fill="#3aff90" stroke="none" /><path d="M 83.8745106332314 113.45245675266167 l -18.725414059466193 15.621406400836005 a45.385845682250476,45.385845682250476 0 0,0 -0.49395616153443056,-0.6025462009236017 l 18.990817040239254 -15.297657918213908" fill="#d5ff1c" stroke="none" /><path d="M 83.64595745247003 113.17365903436017 l -32.74720711282056 26.378831996925975 a63.05023604228651,63.05023604228651 0 0,0 -0.671735921839658,-0.8487163933631513 l 33.19520946530178 -25.812795659648145" fill="#32ff4d" stroke="none" /><path d="M 83.4222238831116 112.89097897827486 l -8.391703273324174 6.525439222100359 a31.630241806696844,31.630241806696844 0 0,0 -0.3296293273905292,-0.43149537079775985 l 8.502484578068998 -6.380422938061729" fill="#ff790b" stroke="none" /><path d="M 83.20337586046588 112.60449989151573 l -19.20374302855761 14.410846781433314 a45.009503353147934,45.009503353147934 0 0,0 -0.4584496127034836,-0.6219749474297493 l 19.448294660844926 -14.079065524734686" fill="#d9ff1c" stroke="none" /><path d="M 82.98947788004972 112.3143062007846 l -23.18692656451133 16.785546707918083 a49.62495662515038,49.62495662515038 0 0,0 -0.4936144845285483,-0.6943305895248695 l 23.471656147569842 -16.38503889168371" fill="#a4ff21" stroke="none" /><path d="M 82.78059297857968 112.02048342749411 l -9.096035269547132 6.34973905184306 a32.093107934719924,32.093107934719924 0 0,0 -0.3114716559328309,-0.45444645444921133 l 9.203696662295288 -6.192657862323798" fill="#ff7f0b" stroke="none" /><path d="M 82.576782715395 111.72311816256416 l -20.517294646512806 13.804951495941106 a45.72925525399238,45.72925525399238 0 0,0 -0.43263264025353537,-0.6550609585223867 l 20.75125172568707 -13.45071065907966" fill="#d1ff1d" stroke="none" /><path d="M 82.18462484594161 111.11811171558189 l -33.7016716181742 21.032335654596597 a60.726084792575065,60.726084792575065 0 0,0 -0.544314026245719,-0.889096055085229 l 34.05775360887533 -20.45070248338681" fill="#30ff31" stroke="none" /><path d="M 81.99639281039703 110.81064883170644 l -19.922595331981974 11.962946074197307 a44.238370931200464,44.238370931200464 0 0,0 -0.38535052687369686,-0.6544094403035053 l 20.12501956898544 -11.619185465600243" fill="#e3ff1b" stroke="none" /><line stroke="#e1ed5e" stroke-width="0.3" x1="26.387840678322732" x2="22.057713659400534" y1="142.50000000000003" y2="145.00000000000006" /><path d="M 25.521815274538284 143.00000000000003 a86.0,86.0 0 0,1 -11.493303480769212,-40.785679425670985" fill="none" id="id21" stroke="none" /><text fill="#e1ed5e" style="font-size:6.75px; font-family:Arial;" text-anchor="middle"><textPath startOffset="21.40746469413373" xlink:href="#id21">September</textPath></text><path d="M 81.63589988554817 110.18625677009913 l -11.243970114250597 6.236840682922639 a33.857878737735845,33.857878737735845 0 0,0 -0.27756148937435615,-0.5106818780467324 l 11.349376953240284 -6.042903971401319" fill="#ff970d" stroke="none" /><path d="M 81.4637452351635 109.86951160357371 l -28.390732388253408 15.116465882383698 a53.16428494953201,53.16428494953201 0 0,0 -0.422002729514454,-0.8092458769895544 l 28.646043186742812 -14.626873762289641" fill="#7cff26" stroke="none" /><path d="M 81.29705330413844 109.54985784667822 l -11.960169071934631 6.106947547708427 a34.429089789696235,34.429089789696235 0 0,0 -0.2642516038259114,-0.5286802227835617 l 12.06324058897228 -5.900735468761111" fill="#ff9f0e" stroke="none" /><path d="M 80.9802524753101 108.90220220490708 l -4.400871393567009 2.0598300252128854 a25.859070770783745,25.859070770783745 0 0,0 -0.18472677809667148,-0.40366134801681 l 4.4355826365187365 -1.9839796949813866" fill="#ff2703" stroke="none" /><path d="M 80.83023694016515 108.57439118712176 l -11.099691798171323 4.964750958942103 a33.15943707984495,33.15943707984495 0 0,0 -0.22795710503427724,-0.5216104672549493 l 11.183282785222568 -4.773478421911305" fill="#ff8d0d" stroke="none" /><path d="M 80.68587082218212 108.24405325689762 l -13.013985694078707 5.554896633378012 a35.14993640456379,35.14993640456379 0 0,0 -0.23211370216662502,-0.556988387173583 l 13.107425240781817 -5.330675736763148" fill="#ffa80f" stroke="none" /><path d="M 80.5471966667186 107.91128576633889 l -13.18277495605799 5.361319809997683 a35.23127912898708,35.23127912898708 0 0,0 -0.22303299666885087,-0.5621888475423104 l 13.272866627692967 -5.134229945241807" fill="#ffa90f" stroke="none" /><path d="M 80.28708602549918 107.23885506374661 l -31.00382482638375 11.385033923969319 a54.0281115311642,54.0281115311642 0 0,0 -0.31223059182233126,-0.8733645351230045 l 31.194695588250024 -10.851134432465393" fill="#73ff27" stroke="none" /><path d="M 80.05021161711548 106.5578916946017 l -3.1521057344429164 1.0361597636867135 a24.31804123196069,24.31804123196069 0 0,0 -0.12695787439078315,-0.39769373328689717 l 3.1694283246109545 -0.9818969967084246" fill="#ff1001" stroke="none" /><path d="M 79.94057633289273 106.21446072829308 l -5.790891048561212 1.7940328496136333 a27.06242303058762,27.06242303058762 0 0,0 -0.13366733839767014,-0.44493509658010844 l 5.820834706962512 -1.6943601494428016" fill="#ff3805" stroke="none" /><path d="M 79.64726062577567 105.17358676015961 l -17.272994417390898 4.390727635381519 a38.8223125691174,38.8223125691174 0 0,0 -0.15863993656731196,-0.6473050772057248 l 17.345821880474503 -4.093566733567694" fill="#ffd814" stroke="none" /><path d="M 79.48165901384964 104.47187691870673 l -5.536831547144296 1.2067266654333593 a26.666806228072407,26.666806228072407 0 0,0 -0.09364149220290913,-0.44810843879269263 l 5.556730750171572 -1.1115017753552574" fill="#ff3304" stroke="none" /><path d="M 79.407916724674 104.11899336999214 l -26.396235572626626 5.27998638421777 a47.919129046518655,47.919129046518655 0 0,0 -0.1544221491994147,-0.808001937200469 l 26.482984014108197 -4.826081881983987" fill="#b7ff1f" stroke="none" /><path d="M 79.34024301695615 103.76489593502545 l -16.58658348422333 3.022628038992177 a37.85974590381515,37.85974590381515 0 0,0 -0.1110285410087662,-0.6403831198519617 l 16.63602684272433 -2.7374518862196227" fill="#ffcc13" stroke="none" /><path d="M 79.2786578344484 103.40968896794605 l -16.493291776594557 2.713964885405031 a37.71509135563109,37.71509135563109 0 0,0 -0.09963699963234941,-0.6397410124005145 l 16.537450268365173 -2.4304356910730665" fill="#ffca12" stroke="none" /><path d="M 79.22317932658666 103.0534771498775 l -12.87870554116456 1.8927262119688961 a34.01704532255676,34.01704532255676 0 0,0 -0.07994893891704928,-0.57847069548441 l 12.90929899663682 -1.6713672082844007" fill="#ff990e" stroke="none" /><path d="M 79.13060592940153 102.33845913500099 l -28.455588503055402 3.188508044445135 a49.63367074974339,49.63367074974339 0 0,0 -0.08760959176408091,-0.847543327302663 l 28.50613048730115 -2.6995601948595405" fill="#a3ff21" stroke="none" /><path d="M 79.0935383218832 101.97986365728391 l -9.964408154063657 0.9436398121459249 a31.008990256556206,31.008990256556206 0 0,0 -0.045636931077676454,-0.5303703162994362 l 9.979138707839073 -0.7724484484708266" fill="#ff700a" stroke="none" /><path d="M 79.06263194458094 101.62068470465958 l -13.518141778853808 1.0463896683870684 a34.55857988475563,34.55857988475563 0 0,0 -0.04070677971949911,-0.5918676432114189 l 13.534112519738374 -0.814178601021306" fill="#ffa00e" stroke="none" /><path d="M 79.03789590574601 101.26102812881392 l -23.980993561836982 1.4426370226198482 a45.02434710438351,45.02434710438351 0 0,0 -0.03978953895299631,-0.7719064258273705 l 24.002224690246553 -1.030758803415747" fill="#d9ff1c" stroke="none" /><path d="M 79.01933749520258 100.90099992219065 l -16.598073251621724 0.7127926825383278 a37.61337139398505,37.61337139398505 0 0,0 -0.022165583052588745,-0.6453267658036167 l 16.60786352167116 -0.42775965217059125" fill="#ffc912" stroke="none" /><line stroke="#e1ed5e" stroke-width="0.3" x1="15.003131293944662" x2="10.003315487706104" y1="100.72959589197737" y2="100.7725132973878" /><path d="M 14.003168132696942 100.73817937305945 a86.0,86.0 0 0,1 10.791469493833604,-42.45332614584628" fill="none" id="id22" stroke="none" /><text fill="#e1ed5e" style="font-size:6.75px; font-family:Arial;" text-anchor="middle"><textPath startOffset="22.145653131862435" xlink:href="#id22">October</textPath></text><path d="M 79.00077361379809 99.81974689727619 l -17.166938582676792 -0.14735752102896005 a38.16757101457282,38.16757101457282 0 0,0 0.011247743996974084,-0.6551246991510942 l 17.161879407081152 0.4420291361491066" fill="#ffd013" stroke="none" /><path d="M 79.03789590574601 98.7389718711861 l -23.702255269757156 -1.4258688191365565 a44.74510490105522,44.74510490105522 0 0,0 0.05270555488122848,-0.7663272006937644 l 23.674285753710862 1.8325394439846459" fill="#dcff1b" stroke="none" /><path d="M 79.17382384314186 97.30363454192245 l -10.975834795557024 -1.4210415581527673 a32.06744363298759,32.06744363298759 0 0,0 0.07536686587355827,-0.5453170974988185 l 10.949823413128259 1.609246963851653" fill="#ff7f0b" stroke="none" /><path d="M 79.22317932658666 96.9465228501225 l -7.068999120635985 -1.0388994363794508 a28.144932512379796,28.144932512379796 0 0,0 0.07435423141219011,-0.4774075037929262 l 7.050123397085527 1.1600951221038271" fill="#ff4806" stroke="none" /><path d="M 79.2786578344484 96.59031103205396 l -26.53217342369802 -4.365859040193403 a47.88897453872174,47.88897453872174 0 0,0 0.14044053509890106,-0.8100236858305861 l 26.453318071106885 4.8206757589445814" fill="#b7ff1f" stroke="none" /><path d="M 79.407916724674 95.88100663000787 l -11.05573531757313 -2.2114566974404704 a32.27474275258146,32.27474275258146 0 0,0 0.11333397205381113,-0.5423440836372129 l 11.016143634694952 2.400917232363092" fill="#ff810b" stroke="none" /><path d="M 79.56144815229197 95.17655741523228 l -15.781470137170684 -3.7243839816569606 a37.21498799670333,37.21498799670333 0 0,0 0.15207191288873262,-0.6205052992535469 l 15.715210697765652 3.994745105518625" fill="#ffc312" stroke="none" /><path d="M 79.64726062577567 94.8264132398404 l -6.592334053816603 -1.6757455373583905 a27.801984370982236,27.801984370982236 0 0,0 0.12154831522660872,-0.4615387508975025 l 6.562596257785269 1.7886647926286776" fill="#ff4306" stroke="none" /><path d="M 79.83685265289637 94.1308016681162 l -5.271806067091315 -1.5345459140054263 a26.49060746832366,26.49060746832366 0 0,0 0.13084301390256484,-0.4355338388976621 l 5.24468673318512 1.624817356493812" fill="#ff3004" stroke="none" /><path d="M 79.94057633289273 93.78553927170692 l -8.333601095281006 -2.581770921803974 a29.724359478376698,29.724359478376698 0 0,0 0.15518279046432423,-0.48610788088396906 l 8.288053589039425 2.7244478363793347" fill="#ff5e08" stroke="none" /><path d="M 80.28708602549916 92.7611449362534 l -53.81017510100661 -19.759841645678183 a78.32352297498183,78.32352297498183 0 0,0 0.4743023265701311,-1.2581432717335248 l 53.46304209062204 20.680653197605853" fill="#46fff6" stroke="none" /><path d="M 80.68587082218212 91.75594674310238 l -10.617972812140625 -4.532181209811498 a32.54478294113518,32.54478294113518 0 0,0 0.22373161780056122,-0.5119417255413463 l 10.538607312323085 4.713785005128711" fill="#ff850c" stroke="none" /><path d="M 80.83023694016515 91.42560881287825 l -15.17885885811542 -6.789310499944744 a37.62806342600511,37.62806342600511 0 0,0 0.2687997176819238,-0.5873758937604588 l 15.06007467557845 7.048875375919874" fill="#ffc912" stroke="none" /><path d="M 81.1358732173502 90.77261029715801 l -16.748417852824232 -8.192490445737805 a39.64474189352877,39.64474189352877 0 0,0 0.30428299709985157,-0.608769825298697 l 16.605314942512635 8.478792127200272" fill="#ffe315" stroke="none" /><path d="M 81.29705330413844 90.45014215332179 l -14.907625801289594 -7.611939955177738 a37.73854643965558,37.73854643965558 0 0,0 0.29955767524310395,-0.5744413404386528 l 14.774760057071553 7.866727538720878" fill="#ffca12" stroke="none" /><path d="M 81.46374523516351 90.13048839642627 l -41.5739909092254 -22.135808494812096 a68.09979551802058,68.09979551802058 0 0,0 0.5582712613652832,-1.0271562415095135 l 41.18787429824477 22.84621956979623" fill="#39ff88" stroke="none" /><path d="M 81.63589988554816 89.8137432299009 l -13.5442692610125 -7.512777843519833 a36.48835242176813,36.48835242176813 0 0,0 0.3085292359737023,-0.545141597265127 l 13.41330666001743 7.744176210884065" fill="#ffba11" stroke="none" /><line stroke="#e1ed5e" stroke-width="0.3" x1="26.387840678322718" x2="22.05771365940052" y1="57.49999999999999" y2="54.99999999999999" /><path d="M 25.521815274538284 56.99999999999999 a86.0,86.0 0 0,1 29.574782752854787,-30.34633250058573" fill="none" id="id23" stroke="none" /><text fill="#e1ed5e" style="font-size:6.75px; font-family:Arial;" text-anchor="middle"><textPath startOffset="21.40746469413373" xlink:href="#id23">November</textPath></text><path d="M 81.81346652052679 89.5 l -7.216630921487782 -4.166523805163149 a29.333047610326297,29.333047610326297 0 0,0 0.25551359856874284,-0.4339179509779462 l 7.144043612789263 4.289792924434669" fill="#ff5908" stroke="none" /><path d="M 81.99639281039701 89.18935116829357 l -19.274255453364088 -11.573636605405 a43.48212595720222,43.48212595720222 0 0,0 0.3897490037490984,-0.6366257068493932 l 19.072738485159594 11.902799428378936" fill="#ecff1a" stroke="none" /><path d="M 82.37810715431573 88.57770195909679 l -14.053636919678409 -9.109397660111267 a37.74771137798203,37.74771137798203 0 0,0 0.35712132083233145,-0.5407271966260269 l 13.89519115992535 9.349304735076355" fill="#ffca12" stroke="none" /><path d="M 82.78059297857968 87.97951657250589 l -23.440643219148477 -16.363389459060215 a49.58713467831805,49.58713467831805 0 0,0 0.49323827340292664,-0.6938014014624727 l 23.15628984721558 16.76336808723221" fill="#a4ff21" stroke="none" /><path d="M 83.42222388311158 87.10902102172516 l -13.247492549654357 -10.301330333353574 a37.78134277970682,37.78134277970682 0 0,0 0.40252165120278427,-0.508572956949815 l 13.068704467810011 10.527223234218072" fill="#ffcb12" stroke="none" /><path d="M 84.83555147118756 85.47280134310135 l -19.511483405473324 -18.69155973483261 a48.01985177610855,48.01985177610855 0 0,0 0.5753537387452854,-0.5903636218505869 l 19.187742865577235 19.023746048750926" fill="#b6ff1f" stroke="none" /><path d="M 85.34317274990677 84.96080404539775 l -4.0347785644783905 -4.140038251746011 a26.780947568547433,26.780947568547433 0 0,0 0.33199130984246095,-0.31804016488182424 l 3.963114768770629 4.208690546933404" fill="#ff3405" stroke="none" /><path d="M 85.86807049272753 84.46653392183569 l -7.2064239522949585 -7.921122303238089 a31.708721899604377,31.708721899604377 0 0,0 0.4057734537692718,-0.3628451244837633 l 7.069385471702295 8.043662957605253" fill="#ff7a0b" stroke="none" /><path d="M 86.13680546590413 84.22622945171909 l -20.640686385332426 -23.48531214796901 a52.266560750187864,52.266560750187864 0 0,0 0.6790185854701396,-0.5865200817462582 l 20.234488320099437 23.83617636217998" fill="#86ff25" stroke="none" /><path d="M 86.68645165197937 83.75963576809568 l -3.342691062989614 -4.077539582883154 a26.272562241697063,26.272562241697063 0 0,0 0.3512381719119197,-0.282932608446615 l 3.2722021207224485 4.134320485123168" fill="#ff2d04" stroke="none" /><path d="M 86.96720088162412 83.53348406188908 l -8.315650881856621 -10.506553238343944 a34.399168277884954,34.399168277884954 0 0,0 0.46617434308118166,-0.3624999888102338 l 8.134066594140196 10.647754278774983" fill="#ff9e0e" stroke="none" /><path d="M 87.25179093698888 83.31218511350988 l -6.034954787262277 -7.899949541177551 a30.941321946172515,30.941321946172515 0 0,0 0.4248494143966185,-0.31881492097383113 l 5.898452383954906 8.002383489415385" fill="#ff6f0a" stroke="none" /><path d="M 87.54013794807813 83.0958041407739 l -7.24024778301038 -9.822786647502005 a33.20279990337178,33.20279990337178 0 0,0 0.4617070514541879,-0.334240299420327 l 7.070559721182224 9.945627718295409" fill="#ff8e0d" stroke="none" /><path d="M 87.83215693770416 82.88440491214696 l -27.043106834912333 -38.03951646435664 a67.67263052503621,67.67263052503621 0 0,0 0.9525886560183232,-0.6649808636640692 l 26.386123087720243 38.49814214382583" fill="#38ff84" stroke="none" /><path d="M 88.72937992617638 82.28071324371311 l -14.473652709165433 -22.75498606862404 a47.96805543098734,47.96805543098734 0 0,0 0.6985881915714307,-0.43597069889983 l 14.080900388804304 23.000092564365403" fill="#b6ff1f" stroke="none" /><line stroke="#e1ed5e" stroke-width="0.3" x1="56.869717070023135" x2="54.33264160355391" y1="26.7553504044142" y2="22.446841604673864" /><path d="M 56.362301976729285 25.89364864446614 a86.0,86.0 0 0,1 42.16139366436587,-11.88097634709845" fill="none" id="id24" stroke="none" /><text fill="#e1ed5e" style="font-size:6.75px; font-family:Arial;" text-anchor="middle"><textPath startOffset="22.145653131862474" xlink:href="#id24">December</textPath></text><path d="M 89.34428304082924 81.90426304109057 l -2.6667393520564837 -4.528706424700503 a26.255538093566656,26.255538093566656 0 0,0 0.39034175015189104,-0.2253639145261427 l 2.588605134044193 4.573817236502819" fill="#ff2d04" stroke="none" /><path d="M 89.65649057296885 81.72400993836675 l -7.278243591316909 -12.859959038025742 a35.776717370046896,35.776717370046896 0 0,0 0.5370865752192285,-0.29791286961297253 l 7.056412827941577 12.983004823071862" fill="#ffb110" stroke="none" /><path d="M 89.97174638481275 81.54914285379989 l -11.712812068030631 -21.550254963659135 a45.52760598875722,45.52760598875722 0 0,0 0.6898758769564407,-0.36732004706600035 l 11.341147375287628 21.748145478447714" fill="#d3ff1c" stroke="none" /><path d="M 90.28995756902619 81.37971332152246 l -28.858778798843595 -55.34051351939826 a83.41315206229602,83.41315206229602 0 0,0 1.2753186894413722,-0.6511868098341994 l 27.904532887688642 55.82775828090529" fill="#4cd7ff" stroke="none" /><path d="M 90.93487009805054 81.0573650232925 l -2.357682073047254 -4.926648750092026 a26.46173348529125,26.46173348529125 0 0,0 0.41143117302244975,-0.1925705633522934 l 2.272762186153282 4.966395545014863" fill="#ff3004" stroke="none" /><path d="M 91.26138138417902 80.90454125486306 l -10.996135524649654 -24.028540607863043 a47.42509716576621,47.42509716576621 0 0,0 0.7431887545487448,-0.33241887693032846 l 10.582033367245291 24.213763235703215" fill="#bdff1f" stroke="none" /><path d="M 91.5904679813234 80.7573450057729 l -5.235737890486614 -11.980392921161766 a34.07450824326866,34.07450824326866 0 0,0 0.5379957982992332,-0.22963841508629176 l 5.02930701701695 12.06850598590746" fill="#ff9a0e" stroke="none" /><path d="M 92.25597844496254 80.48000691201159 l -8.76501728206701 -22.093569283875677 a44.768704879659474,44.768704879659474 0 0,0 0.7167847787039426,-0.27726775069350285 l 8.384460240869538 22.24077692270722" fill="#dcff1b" stroke="none" /><path d="M 92.592206182469 80.34994680014964 l -9.981045717690753 -26.47590958574101 a49.294788601630614,49.294788601630614 0 0,0 0.7943757728432517,-0.29170578703900807 l 9.525080793193373 26.643346221788743" fill="#a7ff21" stroke="none" /><path d="M 93.27111125876988 80.10723608172694 l -1.7571410182013738 -5.194675196814704 a26.483812082689163,26.483812082689163 0 0,0 0.4319096885109777,-0.14197729343004614 l 1.667708592042635 5.2240734116467795" fill="#ff3004" stroke="none" /><path d="M 93.61358852112211 79.99465700312896 l -5.543781768498802 -17.365817430558852 a39.229238363909815,39.229238363909815 0 0,0 0.6432836045678333,-0.19929090506707062 l 5.244857531059353 17.458424923432563" fill="#ffdd14" stroke="none" /><path d="M 93.95794788825049 79.88797359093562 l -5.379615387969219 -17.906990001467843 a39.69760820626918,39.69760820626918 0 0,0 0.6543299815712926,-0.19046592132807735 l 5.071425394016302 17.996699617098443" fill="#ffe315" stroke="none" /><path d="M 94.30408787586887 79.78721728523814 l -3.14209410184436 -11.150183494026946 a32.58444419449272,32.58444419449272 0 0,0 0.5396893205262207,-0.1470947242012269 l 2.950223380383462 11.202478712372312" fill="#ff860c" stroke="none" /><path d="M 95.70440661134978 79.44403061299748 l -5.321957968673871 -25.46749545057614 a47.01762020526566,47.01762020526566 0 0,0 0.7914711421205318,-0.15831639486621668 l 4.883990341022362 25.555101242105223" fill="#c2ff1e" stroke="none" /><path d="M 96.05791012581881 79.37332000966035 l -1.0222058347969933 -5.348612870728903 a26.44541682606758,26.44541682606758 0 0,0 0.4466319430938622,-0.08139121812452625 l 0.9302391581520926 5.365372262784791" fill="#ff2f04" stroke="none" /><path d="M 96.41257539226777 79.30868818359171 l -1.879740706963984 -10.841844876114179 a32.00359147929169,32.00359147929169 0 0,0 0.5421141653468116,-0.08920467960918452 l 1.6933490385640995 10.872515554219031" fill="#ff7e0b" stroke="none" /><path d="M 96.76829788921471 79.25015418208739 l -1.033513290969151 -6.635896720432003 a27.71589718554789,27.71589718554789 0 0,0 0.47074117626874085,-0.06918274204880388 l 0.9194470090927251 6.652660535779692" fill="#ff4206" stroke="none" /><path d="M 97.48249496171623 79.15144685158666 l -5.737423311275479 -47.514095511648804 a68.85924465077622,68.85924465077622 0 0,0 1.1747521524409679,-0.1316334289795165 l 4.920935257233712 47.60558470113529" fill="#3aff91" stroke="none" /><path d="M 98.1996594967304 79.07731436759882 l -0.47204175514301244 -5.485840723067487 a26.506112227103994,26.506112227103994 0 0,0 0.4536723124947093,-0.03511710621132118 l 0.3778004478730859 5.493135596273862" fill="#ff3004" stroke="none" /><path d="M 98.5590905019552 79.04949213459386 l -0.9204388538820714 -13.382978926884732 a34.41459401700911,34.41459401700911 0 0,0 0.5897279060042077,-0.03547656640163637 l 0.69056659574538 13.396807471111062" fill="#ff9e0e" stroke="none" /><path d="M 99.27912038922189 79.0123766808444 l -0.4301596089910865 -12.523627670472445 a33.531013020415806,33.531013020415806 0 0,0 0.5754347932513518,-0.014821159066419877 l 0.21511150166899085 12.52916654688891" fill="#ff920d" stroke="none" /></svg>