<?xml version="1.0" encoding="utf-8" ?>
<svg baseProfile="full" height="200mm" version="1.1" viewBox="0,0,200,200" width="200mm" xmlns="http://www.w3.org/2000/svg" xmlns:ev="http://www.w3.org/2001/xml-events" xmlns:xlink="http://www.w3.org/1999/xlink"><defs /><rect fill="#1a1a1a" height="200" width="200" x="0" y="0" /><text alignment-baseline="middle" fill="#e1ed5e" style="dominant-baseline: central; font-size:9.0px; font-family:Arial;" text-anchor="middle" x="100.0" y="100.0">2023</text><line stroke="#e1ed5e" stroke-width="0.3" x1="100.0" x2="100.0" y1="15.0" y2="10.0" /><path d="M 100.0 14.0 a86.0,86.0 0 0,1 42.46469731375804,11.215312516191453" fill="none" id="id97" stroke="none" /><text fill="#e1ed5e" style="font-size:6.75px; font-family:Arial;" text-anchor="middle"><textPath startOffset="22.20632615414155" xlink:href="#id97">January</textPath></text><path d="M 100.0 79.0 l 0.0 -0.7447577280577491 a21.74475772805775,21.74475772805775 0 0,0 0.3743002592953967,0.0032217205025646943 l -0.012819780022868309 0.7446473841637433" fill="#ff0100" stroke="none" /><path d="M 100.36148047927253 79.00311137660856 l 0.052943671305867364 -3.075276352294095 a24.075732055187938,24.075732055187938 0 0,0 0.41430134775857363,0.010700181504567806 l -0.10587165425930878 3.0739093786471674" fill="#ff2303" stroke="none" /><path d="M 102.16513564639614 79.11191278185805 l 0.7973961867101567 -7.692858007829485 a28.734074282498593,28.734074282498593 0 0,0 0.4915350583856379,0.05522969101514217 l -0.9296979486055198 7.6779923633437415" fill="#ff6409" stroke="none" /><path d="M 102.52436894288641 79.15227682838746 l 0.744488732449674 -6.148425745069048 a27.19333533852095,27.19333533852095 0 0,0 0.46421000960032693,0.06026778216260492 l -0.850213470557847 6.134699639742307" fill="#ff4e07" stroke="none" /><path d="M 103.95276090670814 79.375362276772 l 1.2880433416625512 -6.720727086862912 a27.84304232239536,27.84304232239536 0 0,0 0.4699290219850179,0.09426334094748419 l -1.4035387731146944 6.697559789838219" fill="#ff5708" stroke="none" /><path d="M 104.66035177308747 79.52364482259891 l 1.462105899648168 -6.424107270412159 a27.588391904216714,27.588391904216714 0 0,0 0.46214013269992,0.10937363826122888 l -1.5724697193106116 6.397987720010061" fill="#ff5407" stroke="none" /><path d="M 106.40334571778207 80.00007090966166 l 0.9517044486901703 -2.9725119223073553 a24.121148584402228,24.121148584402228 0 0,0 0.3943430788699181,0.13000871308848022 l -1.0027303498025057 2.9556894849596387" fill="#ff2303" stroke="none" /><path d="M 106.74666289553966 80.11325718540242 l 1.3220031808690567 -3.8967912974285257 a25.114933149632275,25.114933149632275 0 0,0 0.4081989833674925,0.14241261009977407 l -1.3888841682998228 3.8734578341565444" fill="#ff3104" stroke="none" /><path d="M 107.08798089147638 80.2323363322302 l 3.1243962263722995 -8.713625884918564 a30.256842217608135,30.256842217608135 0 0,0 0.48874550697729297,0.18000909491274267 l -3.273924059122169 8.658553522199497" fill="#ff780b" stroke="none" /><path d="M 108.09893153111575 80.62456947434976 l 1.9710941400011088 -4.715535305167155 a26.110918246560455,26.110918246560455 0 0,0 0.4131943920162505,0.17690827492598094 l -2.0519722898076744 4.680907502278383" fill="#ff3f05" stroke="none" /><path d="M 110.05341064243156 81.56283822128135 l 2.465117436938761 -4.520830850831291 a26.149244173636312,26.149244173636312 0 0,0 0.3933293487345309,0.21888735672211623 l -2.5425708747453273 4.477728096548995" fill="#ff4006" stroke="none" /><line stroke="#e1ed5e" stroke-width="0.3" x1="143.23703022742887" x2="145.7803849466894" y1="26.81831364943548" y2="22.513508569990506" /><path d="M 143.74570117128098 25.957352633546492 a86.0,86.0 0 0,1 28.547481713284135,27.462654790039103" fill="none" id="id98" stroke="none" /><text fill="#e1ed5e" style="font-size:6.75px; font-family:Arial;" text-anchor="middle"><textPath startOffset="19.985693538727396" xlink:href="#id98">February</textPath></text><path d="M 112.48926042617603 83.11751280151076 l 3.1163047120672807 -4.212497186606913 a26.23989385442338,26.23989385442338 0 0,0 0.36080334644935813,0.27174960030783585 l -3.1883542122750215 4.15823099679323" fill="#ff4106" stroke="none" /><path d="M 113.6212207817346 84.01681056812373 l 15.229372245032913 -17.870200140014322 a44.4793064638193,44.4793064638193 0 0,0 0.5784559251028627,0.5016312780498621 l -15.53472196878254 17.60540386854479" fill="#d4ff1c" stroke="none" /><path d="M 113.89432698308785 84.25364557470407 l 2.0340806151817374 -2.3052109206341354 a24.07432615993635,24.07432615993635 0 0,0 0.30836805800253814,0.2768558871826601 l -2.0734596607802653 2.2698560246821775" fill="#ff2303" stroke="none" /><path d="M 114.16331599549186 84.49514656593476 l 2.0742841799812908 -2.2707586416519283 a24.075548677546426,24.075548677546426 0 0,0 0.3035721658632236,0.2821372436800442 l -2.1130642296393614 2.234716811897244" fill="#ff2303" stroke="none" /><path d="M 114.94478906791727 85.2469230424477 l 2.1865595516432044 -2.15851031359915 a24.07249238352124,24.07249238352124 0 0,0 0.28856698069842945,0.29739363936345614 l -2.223390796044743 2.120552478685579" fill="#ff2303" stroke="none" /><path d="M 115.4437574822437 85.77008943001954 l 2.268778569447264 -2.0904573374349855 a24.085023189024508,24.085023189024508 0 0,0 0.27830400203462125,0.307310230097495 l -2.304426212097921 2.0510943200679415" fill="#ff2303" stroke="none" /><path d="M 115.68641384162765 86.03803664274999 l 8.062797842074968 -7.176432367812911 a31.79397473463606,31.79397473463606 0 0,0 0.36034403219255745,0.411935520560523 l -8.185133737845373 7.03658129104944" fill="#ff8d0d" stroke="none" /><path d="M 115.9244219780498 86.31012108654704 l 5.748310598604396 -4.941697485804113 a28.580464944792656,28.580464944792656 0 0,0 0.3175009111058872,0.37582093380683534 l -5.832522123197401 4.842017602368171" fill="#ff6109" stroke="none" /><path d="M 116.38621287248628 86.86637796730983 l 3.9192979765139135 -3.1413346486820592 a26.022835852754547,26.022835852754547 0 0,0 0.2771381452305546,0.35193730062351725 l -3.972790202338432 3.0734049541055035" fill="#ff3e05" stroke="none" /><path d="M 116.60985879189232 87.15038557335679 l 2.633039565905095 -2.0369554982906575 a24.328976578114997,24.328976578114997 0 0,0 0.2533967870170365,0.3334404688769168 l -2.667712293146245 1.991330253532707" fill="#ff2603" stroke="none" /><path d="M 116.82858285166822 87.43820079747576 l 7.40470054728604 -5.527284278759572 a30.24015485223061,30.24015485223061 0 0,0 0.30778341406186455,0.41981623088642545 l -7.49874657386153 5.399005604201652" fill="#ff780b" stroke="none" /><path d="M 117.2510076193507 88.02491185347247 l 7.722832860078408 -5.360939272706617 a30.4011604214775,30.4011604214775 0 0,0 0.2947110703377541,0.4324521302846306 l -7.813968396084895 5.22720911915158" fill="#ff7a0b" stroke="none" /><path d="M 117.65298651832404 88.62581576622439 l 2.59050117979151 -1.6691134752851486 a24.0816612655968,24.0816612655968 0 0,0 0.22151963776504738,0.350390868888228 l -2.618848413802513 1.6242749586827143" fill="#ff2303" stroke="none" /><line stroke="#e1ed5e" stroke-width="0.3" x1="172.23445277983987" x2="176.4835382374775" y1="55.19839476539836" y2="52.563006222186495" /><path d="M 173.08426987136738 54.67131705675599 a86.0,86.0 0 0,1 12.851231095245387,41.99856678651699" fill="none" id="id99" stroke="none" /><text fill="#e1ed5e" style="font-size:6.75px; font-family:Arial;" text-anchor="middle"><textPath startOffset="22.20632615414155" xlink:href="#id99">March</textPath></text><path d="M 118.03404312379186 89.2402003453031 l 1.4852810340588296 -0.8861754542612956 a22.729556788853746,22.729556788853746 0 0,0 0.19757431882774024,0.33771855553303115 l -1.500315027356897 0.8604774863743692" fill="#ff0f01" stroke="none" /><path d="M 118.3937258080291 89.86733742301442 l 5.7158396761474535 -3.1487190462123418 a27.525737876700365,27.525737876700365 0 0,0 0.2250450598316659,0.41697431744687696 l -5.769192835197584 3.049863745433006" fill="#ff5307" stroke="none" /><path d="M 118.56541770881063 90.18545643968196 l 21.561992780074863 -11.39867255918936 a45.38953195040071,45.38953195040071 0 0,0 0.35920533540162397,0.6938703752340115 l -21.755007548636602 11.025829461695002" fill="#c9ff1d" stroke="none" /><path d="M 118.89224826269711 90.83032412892265 l 6.629682292562328 -3.217829710138408 a28.369336153532686,28.369336153532686 0 0,0 0.20944919603590822,0.44115342305614846 l -6.684089682439993 3.1032338714417196" fill="#ff5f08" stroke="none" /><path d="M 119.04729006885535 91.15688171328212 l 5.565713296622314 -2.584003333496113 a27.136304892010944,27.136304892010944 0 0,0 0.19305243224012514,0.4253654443714984 l -5.609368045825786 2.487815880282552" fill="#ff4e07" stroke="none" /><path d="M 119.196687751892 91.48605970444005 l 2.80513103793826 -1.2441061961782747 a24.0686414530495,24.0686414530495 0 0,0 0.16470892277470348,0.3801709027911844 l -2.826130670555644 1.1956361488004876" fill="#ff2303" stroke="none" /><path d="M 119.47837535516314 92.15188598940014 l 12.59530798294355 -5.074828431343347 a34.579236605670154,34.579236605670154 0 0,0 0.21769514854459093,0.5540104079010401 l -12.680796681369841 4.857269018546522" fill="#ffb110" stroke="none" /><path d="M 119.7369772167798 92.82701384747503 l 6.084422176232506 -2.211254314015582 a27.473780878272173,27.473780878272173 0 0,0 0.1577085544467655,0.44586332068334505 l -6.121583811489081 2.106193366905622" fill="#ff5207" stroke="none" /><path d="M 120.08093135843002 93.85539295169968 l 5.908371677869079 -1.8079152608911013 a27.178787378961054,27.178787378961054 0 0,0 0.13303900315295666,0.44854138140058125 l -5.938616578133738 1.7059444927439902" fill="#ff4e07" stroke="none" /><path d="M 120.18372546131832 94.20196356495316 l 8.384257595065874 -2.4084865358565493 a29.72333553257136,29.72333553257136 0 0,0 0.13702914773560967,0.4929667519371635 l -8.424473513367847 2.2638084805004337" fill="#ff710a" stroke="none" /><path d="M 120.28053869075195 94.5502522615342 l 2.0664638311619616 -0.5552962257176962 a23.139772572914442,23.139772572914442 0 0,0 0.10005601091940929,0.38555662548806846 l -2.0757161739516734 0.5196431746807774" fill="#ff1502" stroke="none" /><path d="M 120.37134235888165 94.90015583598534 l 1.9821470680128157 -0.4962187065996985 a23.04331593347952,23.04331593347952 0 0,0 0.09301511258982383,0.3856076919315629 l -1.990394980863459 0.4620257830087295" fill="#ff1402" stroke="none" /><path d="M 120.45610955862082 95.25157060432595 l 12.72982272776538 -2.954944304977421 a34.068285370539265,34.068285370539265 0 0,0 0.12768406113703848,0.5723826097489453 l -12.778801175904457 2.735383525678512" fill="#ffaa0f" stroke="none" /><path d="M 120.6074358757038 95.95851677861258 l 3.2995570779424295 -0.6471015923061334 a24.36241243475055,24.36241243475055 0 0,0 0.07716420128127978,0.4122142487602634 l -3.3102070031335686 0.5902092660833071" fill="#ff2703" stroke="none" /><path d="M 120.67395015179393 96.31383870115 l 3.0308059866350736 -0.5403921190787841 a24.078604971571615,24.078604971571615 0 0,0 0.0692410538772911,0.40866461949509736 l -3.039658902032588 0.48814171126784894" fill="#ff2303" stroke="none" /><path d="M 120.83666639777658 97.38593545837742 l 18.27331529986525 -2.2924792609034728 a39.4165554110958,39.4165554110958 0 0,0 0.07866352014730964,0.6739410016199693 l -18.31006917301615 1.9775945209586507" fill="#ffee16" stroke="none" /><path d="M 120.96714384426684 98.82574320788733 l 6.135309423632338 -0.343605634411817 a27.144923641161974,27.144923641161974 0 0,0 0.022111985632263815,0.46674906849477854 l -6.140315017498099 0.23794545929403874" fill="#ff4e07" stroke="none" /><line stroke="#e1ed5e" stroke-width="0.3" x1="184.98032266829074" x2="189.97916517819016" y1="98.17113171792111" y2="98.06355123074" /><path d="M 185.9800911702706 98.14961562048488 a86.0,86.0 0 0,1 -9.607161424134198,41.387399972396054" fill="none" id="id100" stroke="none" /><text fill="#e1ed5e" style="font-size:6.75px; font-family:Arial;" text-anchor="middle"><textPath startOffset="21.466115282336823" xlink:href="#id100">April</textPath></text><path d="M 120.99980553446 99.90962569577887 l 26.153749424160047 -0.1125547045235067 a47.1539916170221,47.1539916170221 0 0,0 -0.003493218693778737,0.811701001638876 l -26.151811908176764 -0.337655775319054" fill="#b5ff1f" stroke="none" /><path d="M 120.9904718944345 100.63252640178507 l 8.687850943169757 0.2617995023630336 a29.691794578231423,29.691794578231423 0 0,0 -0.019791514091211843,0.5107310370782553 l -8.682057296227342 -0.41130778645529503" fill="#ff710a" stroke="none" /><path d="M 120.92983693683757 101.71520430193887 l 8.279922771590627 0.6785413188077947 a29.30767954514583,29.30767954514583 0 0,0 -0.04553213701630875,0.502443337843184 l -8.267016038297244 -0.8209660451995493" fill="#ff6b09" stroke="none" /><path d="M 120.89721153311464 102.0752229133903 l 4.099840447155204 0.4071396235664518 a25.120006597714088,25.120006597714088 0 0,0 -0.04643337344769776,0.4299153697855595 l -4.092224772206454 -0.47765131523680276" fill="#ff3104" stroke="none" /><path d="M 120.49622156327973 104.57218783832717 l 34.01528398653741 7.587948211836403 a55.851348650379364,55.851348650379364 0 0,0 -0.21739322050939958,0.9365243042453096 l -33.87963020009746 -8.172341173430278" fill="#58ff2a" stroke="none" /><path d="M 120.32669344350535 105.2749913415812 l 1.2359787690455428 0.3207495268826713 a22.27691964372344,22.27691964372344 0 0,0 -0.09951622309320697,0.3703368870735042 l -1.2302744696105588 -0.3419773471317237" fill="#ff0901" stroke="none" /><path d="M 120.02730092923936 106.31721596034902 l 2.933558684713035 0.9253330645585655 a24.076037684590457,24.076037684590457 0 0,0 -0.12807047496160043,0.3941603923875359 l -2.9171959587351877 -0.9756923569238967" fill="#ff2303" stroke="none" /><path d="M 119.79798401119884 107.00284435728193 l 9.196421550541885 3.2529124544180497 a30.754773640191722,30.754773640191722 0 0,0 -0.1808318287066498,0.49757152842061453 l -9.139065460830007 -3.4107317798447956" fill="#ff7f0b" stroke="none" /><path d="M 119.54520255179757 107.68017299344265 l 2.858675036838698 1.1232996310359562 a24.071453243552675,24.071453243552675 0 0,0 -0.15485668591568463,0.3843415947383509 l -2.838915736665621 -1.1723405936171205" fill="#ff2303" stroke="none" /><path d="M 119.26925614724726 108.34839909993367 l 2.8452374958887297 1.232698240568476 a24.100793666194477,24.100793666194477 0 0,0 -0.16819934175394624,0.37924511232573627 l -2.8235970694035104 -1.2814916893869002" fill="#ff2303" stroke="none" /><path d="M 118.97047184881838 109.00673069616215 l 5.644537209156985 2.6798925694887394 a27.248409756854834,27.248409756854834 0 0,0 -0.20481298774035145,0.4219754183482255 l -5.597570964801919 -2.7766569438022404" fill="#ff4f07" stroke="none" /><path d="M 118.81262510543309 109.33194174019688 l 11.174388281703575 5.543019107794836 a33.473652804998736,33.473652804998736 0 0,0 -0.2604908985002609,0.5139732555189588 l -11.077318713417045 -5.7345465750164895" fill="#ffa30f" stroke="none" /><path d="M 118.64920377521936 109.65438752849418 l 6.53245061119059 3.3817427527380226 a28.355888459821863,28.355888459821863 0 0,0 -0.22812648725436208,0.4315293421738775 l -6.473271615711335 -3.4936871099980347" fill="#ff5e08" stroke="none" /><line stroke="#e1ed5e" stroke-width="0.3" x1="174.80103733775053" x2="179.2010983576182" y1="140.37084112569926" y2="142.7455964860345" /><path d="M 175.68104954172406 140.8457921977663 a86.0,86.0 0 0,1 -30.038265399797805,32.042727171017184" fill="none" id="id101" stroke="none" /><text fill="#e1ed5e" style="font-size:6.75px; font-family:Arial;" text-anchor="middle"><textPath startOffset="22.206326154141568" xlink:href="#id101">May</textPath></text><path d="M 118.48025628344425 109.97397251340804 l 2.1646245893953777 1.168268763448819 a23.4597665573516,23.4597665573516 0 0,0 -0.19485412935060306,0.3537168439791784 l -2.1441940505932653 -1.2053561258258025" fill="#ff1a02" stroke="none" /><path d="M 118.30583269289576 110.29060199501025 l 2.3029265392669402 1.2945874048406152 a23.641860555372286,23.641860555372286 0 0,0 -0.2024734013394048,0.353029441769041 l -2.280301141775156 -1.3340366924679714" fill="#ff1d02" stroke="none" /><path d="M 118.12598468904814 110.60418214915192 l 7.042342336924204 4.11995718734937 a29.15896027788019,29.15896027788019 0 0,0 -0.25718081372472124,0.4310498368153995 l -6.970380647501256 -4.240569118050874" fill="#ff6909" stroke="none" /><path d="M 117.94076556474637 110.91462005526583 l 2.8342009086279063 1.7242422552328853 a24.317484912580287,24.317484912580287 0 0,0 -0.22063527381844575,0.35573431319591786 l -2.8041009951414972 -1.7727728997940768" fill="#ff2603" stroke="none" /><path d="M 117.35343817320211 111.8261652097733 l 10.965266253831736 7.472700740491798 a34.269450643277125,34.269450643277125 0 0,0 -0.3363939746503378,0.4846006099319907 l -10.835011372019261 -7.660342612610808" fill="#ffad10" stroke="none" /><path d="M 116.93607887273984 112.41649034213515 l 4.144529599677458 3.038513940196556 a26.139036151592183,26.139036151592183 0 0,0 -0.26915581272530903,0.36057819595984075 l -4.0916125202570575 -3.109405015665712" fill="#ff4006" stroke="none" /><path d="M 116.71984013943494 112.70617746262583 l 2.4527872135933704 1.8639860999909152 a24.08068325150874,24.08068325150874 0 0,0 -0.2536420462840367,0.32786653611403715 l -2.420338350091265 -1.905930630218205" fill="#ff2303" stroke="none" /><path d="M 116.27256486870786 113.27417163493432 l 4.440275921109826 3.6221078335733945 a26.7302456678245,26.7302456678245 0 0,0 -0.29391050707280764,0.35403413938518047 l -4.377269414143476 -3.6980032300723455" fill="#ff4806" stroke="none" /><path d="M 115.80600337817218 113.82643327865902 l 4.195094811184699 3.6696941735818775 a26.57364116197388,26.57364116197388 0 0,0 -0.3041304517095748,0.34169378656048965 l -4.1313055098267855 -3.7413621298832336" fill="#ff4606" stroke="none" /><path d="M 115.07121518719521 114.62390073753431 l 0.9870881171106259 0.9577912905184823 a22.37539343721499,22.37539343721499 0 0,0 -0.27059242530721855,0.2741086982212479 l -0.9704550667478719 -0.9746404827203948" fill="#ff0a01" stroke="none" /><path d="M 114.81725581225074 114.88116024355365 l 2.1802784113700917 2.1896816000391723 a24.090035511225818,24.090035511225818 0 0,0 -0.29636484864733326,0.290055380933573 l -2.142263610346964 -2.2268870838953174" fill="#ff2303" stroke="none" /><path d="M 114.29624159901734 115.38237550388516 l 9.245257072492805 9.947650571938397 a34.58052024916073,34.58052024916073 0 0,0 -0.43950268734148723,0.40147528437831065 l -9.072654835684455 -10.10531862290329" fill="#ffb110" stroke="none" /><path d="M 114.0293411484842 115.62618273729858 l 2.2944110427359163 2.5555645021962357 a24.43441872198397,24.43441872198397 0 0,0 -0.31538743080362847,0.2782927382164044 l -2.2500812590257 -2.594680382184929" fill="#ff2803" stroke="none" /><path d="M 113.48314897796784 116.09983520530334 l 4.041098569741891 4.825358017444184 a27.294009663710632,27.294009663710632 0 0,0 -0.3627892099491194,0.29855082122446075 l -3.95743923124808 -4.894203957525823" fill="#ff5007" stroke="none" /><path d="M 113.20401910651253 116.32954008644616 l 5.852258121969098 7.237545085934462 a30.307576698426253,30.307576698426253 0 0,0 -0.40849202373255966,0.32453076896021704 l -5.726808605519187 -7.337209768899805" fill="#ff790b" stroke="none" /><path d="M 112.04921762599082 117.19931262002967 l 1.7616833912837955 2.514664796064921 a24.070352977703607,24.070352977703607 0 0,0 -0.3413899485288619,0.2348111195579008 l -1.7181365581320502 -2.5446167049879156" fill="#ff2303" stroke="none" /><path d="M 111.7513745106137 117.40417183066458 l 1.717760298881813 2.5440594526734657 a24.069680593018067,24.069680593018067 0 0,0 -0.34537160742495276,0.22889346886312362 l -1.6737139927168962 -2.573250942627908" fill="#ff2303" stroke="none" /><path d="M 111.45004920935366 117.60387380957326 l 1.6839791096996468 2.5890330428355846 a24.08850736421322,24.08850736421322 0 0,0 -0.3495336454953475,0.22308891016718546 l -1.6391636621573689 -2.617636381826579" fill="#ff2303" stroke="none" /><line stroke="#e1ed5e" stroke-width="0.3" x1="143.8653032363475" x2="146.44561519142675" y1="172.8068346515853" y2="177.08958963109032" /><path d="M 144.38136562736335 173.6633856474863 a86.0,86.0 0 0,1 -40.68145358897372,12.25698825130547" fill="none" id="id102" stroke="none" /><text fill="#e1ed5e" style="font-size:6.75px; font-family:Arial;" text-anchor="middle"><textPath startOffset="21.466115282336833" xlink:href="#id102">June</textPath></text><path d="M 110.8373102113329 117.98757091392108 l 1.8416151032770063 3.0566793438931152 a24.568590029689712,24.568590029689712 0 0,0 -0.3641206943224378,0.21512892435185216 l -1.7887265379261863 -3.087926840538717" fill="#ff2a04" stroke="none" /><path d="M 109.89434966115114 118.52300852407294 l 1.523694903769029 2.85247789467313 a24.233925833931657,24.233925833931657 0 0,0 -0.36963556724316626,0.1933758587258365 l -1.474368433999367 -2.8782831723436835" fill="#ff2503" stroke="none" /><path d="M 109.2508944713604 118.85261126421891 l 2.2000247346173087 4.483481161936461 a25.994167814798285,25.994167814798285 0 0,0 -0.4033890474628016,0.19365125669418895 l -2.1225230191542743 -4.52068669513021" fill="#ff3e05" stroke="none" /><path d="M 108.92500713936063 119.00905698771935 l 2.6806715212475813 5.709467445468292 a27.307457357421455,27.307457357421455 0 0,0 -0.4272082712442571,0.1961103640857174 l -2.581995254235905 -5.754764879888084" fill="#ff5007" stroke="none" /><path d="M 108.59647513512805 119.15986991738527 l 2.5122832840620366 5.5993904666291 a27.137160654337997,27.137160654337997 0 0,0 -0.42783584957820825,0.18755066351845226 l -2.415526759826075 -5.641805683442007" fill="#ff4e07" stroke="none" /><path d="M 107.59598834532513 119.57807347666477 l 1.4462860273012026 3.7276905681672114 a24.998427221392117,24.998427221392117 0 0,0 -0.4025101275099835,0.15219488880176263 l -1.3819056790309443 -3.752033707075605" fill="#ff3004" stroke="none" /><path d="M 106.91757812671514 119.82793768551818 l 2.033411975673593 5.8283932908449705 a27.172919294432695,27.172919294432695 0 0,0 -0.4429577485208725,0.15027531829113216 l -1.9327844942154937 -5.862531596034225" fill="#ff4e07" stroke="none" /><path d="M 105.88484417918355 120.15858648285463 l 0.8683893636346309 2.974675548681813 a24.09883763801836,24.09883763801836 0 0,0 -0.39920164281781945,0.11281837177774756 l -0.8170565527122057 -2.9891827137980798" fill="#ff2303" stroke="none" /><path d="M 105.18746579009965 120.34920634021253 l 2.8098412320664075 11.022345269954616 a32.37485397706324,32.37485397706324 0 0,0 -0.541194578360297,0.1330124601622876 l -2.619693368962899 -11.069078988430935" fill="#ff940d" stroke="none" /><path d="M 104.48393922423573 120.51570834832081 l 0.892315478089423 4.082678909702513 a25.179054198280713,25.179054198280713 0 0,0 -0.4242173508801992,0.08889887046498997 l -0.8219066657798458 -4.097433760894044" fill="#ff3204" stroke="none" /><path d="M 104.13013068566511 120.58985236759428 l 0.6079065406109506 3.0305835037902114 a24.090952399433373,24.090952399433373 0 0,0 -0.40728896655287394,0.0780578997957686 l -0.5556499594863723 -3.0405986019344478" fill="#ff2303" stroke="none" /><path d="M 103.06178313531738 120.77559828337769 l 1.1566128945573397 7.8481472412340345 a28.932916771777307,28.932916771777307 0 0,0 -0.4933357271211658,0.06837183649361026 l -1.0213485762493433 -7.866893643220248" fill="#ff6609" stroke="none" /><path d="M 102.70371172650421 120.8252237178851 l 0.8736551818089716 6.729291601285323 a27.78576737236334,27.78576737236334 0 0,0 -0.47483571140070996,0.057495991910783056 l -0.7576920473568813 -6.743333121921457" fill="#ff5708" stroke="none" /><path d="M 102.34483914955558 120.86867818915974 l 0.7415503189827358 6.599674425792677 a27.64120466497196,27.64120466497196 0 0,0 -0.47327981847986045,0.04905738830986389 l -0.6278379038972727 -6.611461182558299" fill="#ff5507" stroke="none" /><path d="M 101.98527174616119 120.90594882070398 l 2.1017036790667647 22.13203791159357 a43.23160499097665,43.23160499097665 0 0,0 -0.741433723364446,0.06397402144228886 l -1.720425637960777 -22.164936185314524" fill="#e2ff1b" stroke="none" /><path d="M 101.62511606390274 120.93702456842531 l 0.6806074248727599 8.768539486215158 a29.79491393864126,29.79491393864126 0 0,0 -0.5116740716981405,0.03528803974518183 l -0.5295705923956892 -8.778955870476624" fill="#ff720a" stroke="none" /><path d="M 101.26447882468166 120.96189622390904 l 0.3817286694633553 6.328106567538763 a27.33960957056643,27.33960957056643 0 0,0 -0.4699964409472146,0.024293447506320193 l -0.2727441601026611 -6.333739821807285" fill="#ff5007" stroke="none" /><line stroke="#e1ed5e" stroke-width="0.3" x1="102.19456741930631" x2="102.32365962044197" y1="184.97166512339345" y2="189.96999836594603" /><path d="M 102.22038585953345 185.97133177190398 a86.0,86.0 0 0,1 -42.740103519485714,-10.115201625700543" fill="none" id="id103" stroke="none" /><text fill="#e1ed5e" style="font-size:6.75px; font-family:Arial;" text-anchor="middle"><textPath startOffset="22.20632615414155" xlink:href="#id103">July</textPath></text><path d="M 100.18074693466247 120.99922214144158 l 0.07134002559513886 8.288301253053392 a29.288608270428657,29.288608270428657 0 0,0 -0.504173920515183,0.0 l 0.07134002559513315 -8.288301253053392" fill="#ff6b09" stroke="none" /><path d="M 99.45781275523022 120.99299961872073 l -0.10800871144159757 4.181999595130193 a25.18339413579648,25.18339413579648 0 0,0 -0.4332498941437814,-0.014922002359373491 l 0.179978957260022 -4.179520794344726" fill="#ff3204" stroke="none" /><path d="M 99.09653310690486 120.98055641714683 l -0.13348196076219995 3.099754766717073 a24.10262744260959,24.10262744260959 0 0,0 -0.41434933758888276,-0.02141712788655955 l 0.18681936676457164 -3.096997832068311" fill="#ff2303" stroke="none" /><path d="M 98.73552117531835 120.96189622390904 l -0.225226319209276 3.7336890408951526 a24.740476005666274,24.740476005666274 0 0,0 -0.4248731887475528,-0.029301742653145 l 0.28946226873575887 -3.729258953725722" fill="#ff2c04" stroke="none" /><path d="M 98.01472825383883 120.90594882070398 l -0.49409123312834213 5.203038854762925 a26.226446160712552,26.226446160712552 0 0,0 -0.4490559593462199,-0.046546486265273614 l 0.5835797890801554 -5.193763000041891" fill="#ff4106" stroke="none" /><path d="M 97.65516085044442 120.86867818915974 l -0.7115260216813107 6.332463176629674 a27.37231191663594,27.37231191663594 0 0,0 -0.4677701006935383,-0.05664044485248833 l 0.8204235454262384 -6.319277203051837" fill="#ff5107" stroke="none" /><path d="M 97.2962882734958 120.8252237178851 l -0.42981162345398055 3.3106056119931715 a24.338389963712572,24.338389963712572 0 0,0 -0.4149943610738501,-0.05751443700760287 l 0.4867345757146617 -3.302716609492964" fill="#ff2603" stroke="none" /><path d="M 96.93821686468263 120.77559828337769 l -0.9391664620230114 6.372673789709384 a27.44150641336619,27.44150641336619 0 0,0 -0.46672009235291784,-0.07289207984203899 l 1.0487224179844463 -6.3555634025202385" fill="#ff5207" stroke="none" /><path d="M 96.22490169976321 120.6578951692458 l -0.5716820217184702 3.128328413080498 a24.18013505908835,24.18013505908835 0 0,0 -0.4087967157146059,-0.07834686351108573 l 0.6254463520047711 -3.118024351220944" fill="#ff2403" stroke="none" /><path d="M 95.51606077576429 120.51570834832081 l -1.384323677503428 6.333801464977726 a27.48331651563076,27.48331651563076 0 0,0 -0.46130072855324766,-0.10499054395248612 l 1.4931445554495384 -6.309034187447553" fill="#ff5207" stroke="none" /><path d="M 95.16358092515715 120.4354850818985 l -2.8959247597801334 12.236248826040852 a33.574266004307916,33.574266004307916 0 0,0 -0.5612445618080947,-0.1379402582800823 l 3.106122606331439 -12.18458730944674" fill="#ffa40f" stroke="none" /><path d="M 94.11515582081647 120.15858648285463 l -0.862582515081051 2.954784136913562 a24.078115964527584,24.078115964527584 0 0,0 -0.3968589763644207,-0.11957035409477597 l 0.9133164658857175 -2.9394984137130606" fill="#ff2303" stroke="none" /><path d="M 93.76903079525671 120.05430185196036 l -1.5704864487064398 5.054592353433042 a26.29295111870064,26.29295111870064 0 0,0 -0.43105246879694814,-0.13800938832046927 l 1.6572602625943285 -5.026810118452866" fill="#ff4206" stroke="none" /><path d="M 93.08242187328487 119.8279376855182 l -4.333194939951512 12.420288961645657 a34.15447286204956,34.15447286204956 0 0,0 -0.5534332872361096,-0.19844148658965224 l 4.546347787817348 -12.343859934016047" fill="#ffac0f" stroke="none" /><path d="M 92.40401165467489 119.57807347666478 l -1.349775570523959 3.4789423173600373 a24.73161275299323,24.73161275299323 0 0,0 -0.39556321329642025,-0.1574027660649863 l 1.4094598598622372 -3.455192706888984" fill="#ff2c04" stroke="none" /><path d="M 92.06813273071674 119.44442032107085 l -1.859416667765119 4.558230491330069 a25.922895038130907,25.922895038130907 0 0,0 -0.41171549274610847,-0.1720971093589891 l 1.9376036200086897 -4.525548338951107" fill="#ff3d05" stroke="none" /><path d="M 90.42595943632237 118.69057910512821 l -8.459908573373973 16.51555467737234 a39.55622804804688,39.55622804804688 0 0,0 -0.603343795501239,-0.31564095801745273 l 8.742943271401707 -16.36748430041017" fill="#fff016" stroke="none" /><path d="M 90.10565033884886 118.52300852407294 l -3.0335657884512 5.679076127503687 a27.43851124522151,27.43851124522151 0 0,0 -0.41468369264376614,-0.22611861298954145 l 3.130872292963607 -5.62601686275438" fill="#ff5207" stroke="none" /><line stroke="#e1ed5e" stroke-width="0.3" x1="58.666819895761336" x2="56.23545636021788" y1="174.27360380694188" y2="178.64263932499728" /><path d="M 58.180547188652646 175.14741091055294 a86.0,86.0 0 0,1 -31.652253787137756,-30.449443065178592" fill="none" id="id104" stroke="none" /><text fill="#e1ed5e" style="font-size:6.75px; font-family:Arial;" text-anchor="middle"><textPath startOffset="22.20632615414155" xlink:href="#id104">August</textPath></text><path d="M 88.54995079064634 117.60387380957326 l -2.373041751317797 3.6484321395685346 a25.352284943628355,25.352284943628355 0 0,0 -0.36377547134614974,-0.24109054633806454 l 2.4354919214039086 -3.607043572139152" fill="#ff3505" stroke="none" /><path d="M 88.24862548938628 117.40417183066458 l -10.578426204280996 15.666996842882199 a39.90391205635224,39.90391205635224 0 0,0 -0.5659574039332457,-0.38927066310041636 l 10.846540492837132 -15.48258539041668" fill="#fff417" stroke="none" /><path d="M 86.24171649860922 115.8653595955263 l -10.975643764993313 12.656559599634107 a37.752708943783595,37.752708943783595 0 0,0 -0.48729335512878114,-0.4299797292742558 l 11.191879473028683 -12.465756728587563" fill="#ffd914" stroke="none" /><path d="M 84.19399662182784 113.82643327865904 l -3.821744577119531 3.3431029425561727 a26.07760464168591,26.07760464168591 0 0,0 -0.29263727934595773,-0.34040326815703253 l 3.8787243660362676 -3.27682257523761" fill="#ff3f05" stroke="none" /><path d="M 83.72743513129214 113.27417163493432 l -1.586648491176458 1.294291623116344 a23.047594745114782,23.047594745114782 0 0,0 -0.24812611152804595,-0.3095754752649927 l 1.608692514759365 -1.2667883142730918" fill="#ff1402" stroke="none" /><path d="M 83.28015986056508 112.70617746262583 l -5.2164129742456256 3.9641927444498193 a27.551777501794966,27.551777501794966 0 0,0 -0.28370292701366656,-0.38006643280453406 l 5.283877167954377 -3.8738134321359774" fill="#ff5307" stroke="none" /><line stroke="#e1ed5e" stroke-width="0.3" x1="26.63291911575756" x2="22.317208475507996" y1="142.92168965132927" y2="145.44649492493687" /><path d="M 25.769776987707644 143.4266507060508 a86.0,86.0 0 0,1 -11.730757126820373,-40.83630448921669" fill="none" id="id105" stroke="none" /><text fill="#e1ed5e" style="font-size:6.75px; font-family:Arial;" text-anchor="middle"><textPath startOffset="21.46611528233685" xlink:href="#id105">September</textPath></text><path d="M 81.69416730710424 110.29060199501025 l -30.755525319712074 17.28918184286934 a56.28198047852832,56.28198047852832 0 0,0 -0.4674716722973601,-0.8485968715457283 l 31.04857340146095 -16.757214452925787" fill="#54ff2b" stroke="none" /><path d="M 80.45479744820244 107.68017299344265 l -1.960133532065764 0.7702230036561228 a23.10603108687637,23.10603108687637 0 0,0 -0.14227342835349158,-0.37143102661666183 l 1.9731012400127645 -0.7363684102063032" fill="#ff1502" stroke="none" /><path d="M 79.97269907076064 106.31721596034903 l -2.945334192022059 0.9290474154327363 a24.088385112452215,24.088385112452215 0 0,0 -0.12132886849806432,-0.3965097622930256 l 2.9608898330262536 -0.8782106805876629" fill="#ff2303" stroke="none" /><path d="M 79.76711848015287 105.62410040840567 l -11.65721868072018 3.2403376789806835 a33.09919566103274,33.09919566103274 0 0,0 -0.14786186745245042,-0.5502490147553996 l 11.711268624514403 -3.0391977310497453" fill="#ff9e0e" stroke="none" /><path d="M 79.67330655649465 105.27499134158121 l -1.587306769552603 0.41192284859781364 a22.639885122154737,22.639885122154737 0 0,0 -0.09464408378022965,-0.3780560681705164 l 1.5941621676278912 -0.3845389410299054" fill="#ff0e01" stroke="none" /><path d="M 79.58551787078972 104.9243191809786 l -2.591731664800135 0.6251696157730854 a23.666066404051772,23.666066404051772 0 0,0 -0.09211670831033777,-0.3968363684826929 l 2.602108939041028 -0.5804645899418183" fill="#ff1d02" stroke="none" /><path d="M 79.4281124754447 104.21870165774334 l -4.2260133178123445 0.8666336216460416 a25.313959016552502,25.313959016552502 0 0,0 -0.08386161073489477,-0.4276085464136368 l 4.2403048615229055 -0.7937613481644499" fill="#ff3405" stroke="none" /><path d="M 79.23777060512086 103.15116336523772 l -3.5596105609641686 0.5402557779748912 a24.600375487551666,24.600375487551666 0 0,0 -0.05993816938897985,-0.4192074171048916 l 3.5683827813697473 -0.47890288888959903" fill="#ff2a04" stroke="none" /><path d="M 79.18660465613746 102.79330883721812 l -6.9460511606792235 0.93221051973223 a28.00832670327751,28.00832670327751 0 0,0 -0.06001583000803285,-0.47838521526588185 l 6.961068499934105 -0.8125075501789396" fill="#ff5a08" stroke="none" /><path d="M 79.07016306316243 101.71520430193888 l -6.327079186867259 0.5185053984306106 a27.348289445597967,27.348289445597967 0 0,0 -0.03441123437126356,-0.4695139531428657 l 6.335066979902858 -0.4095183087909843" fill="#ff5107" stroke="none" /><path d="M 79.0235259727143 100.99374915477108 l -21.368442196508827 1.0123184355928208 a42.39240777754061,42.39240777754061 0 0,0 -0.028257299627987273,-0.7291953449099273 l 21.382701628988013 -0.6443458436688966" fill="#ecff1a" stroke="none" /><line stroke="#e1ed5e" stroke-width="0.3" x1="15.007084014347285" x2="10.007500721073583" y1="101.09737516637583" y2="101.16192664675087" /><path d="M 14.007167355692545 101.11028546245083 a86.0,86.0 0 0,1 10.666146001902534,-42.60595125391555" fill="none" id="id106" stroke="none" /><text fill="#e1ed5e" style="font-size:6.75px; font-family:Arial;" text-anchor="middle"><textPath startOffset="22.20632615414155" xlink:href="#id106">October</textPath></text><path d="M 79.00175016825051 100.2711162175752 l -7.332599598505294 0.09467392206822724 a28.33321075815497,28.33321075815497 0 0,0 -0.002098954893978289,-0.48772319719669893 l 7.333142850688775 0.031558753332147096" fill="#ff5e08" stroke="none" /><path d="M 79.00019446554 99.90962569577889 l -6.358499711592568 -0.027364300416134735 a27.358558593522595,27.358558593522595 0 0,0 0.006080104677406285,-0.470910807775548 l 6.357086599797446 0.1368113662521547" fill="#ff5107" stroke="none" /><path d="M 79.00486145842228 99.54816195383935 l -7.515765000283486 -0.16174737625120164 a28.51750528787379,28.51750528787379 0 0,0 0.014786062425577496,-0.4906774276892561 l 7.511867243402263 0.29109495136545216" fill="#ff6108" stroke="none" /><path d="M 79.05617556472873 98.46500227214037 l -3.055738652372186 -0.22395870929976167 a24.063934760250714,24.063934760250714 0 0,0 0.03383333786334996,-0.41285241863515754 l 3.051430830689339 0.27652504514269755" fill="#ff2303" stroke="none" /><path d="M 79.12142395522702 97.74499172005258 l -5.395195347234234 -0.5827126406445167 a26.426572293481847,26.426572293481847 0 0,0 0.052739443625950566,-0.4518393455516846 l 5.384365550604695 0.675495724521063" fill="#ff4406" stroke="none" /><path d="M 79.16333360222342 97.38593545837743 l -4.8548264174696545 -0.6090623783751763 a25.892882230803565,25.892882230803565 0 0,0 0.059287303503874074,-0.44175927497032486 l 4.843623114907947 0.6925399954101605" fill="#ff3c05" stroke="none" /><path d="M 79.32604984820605 96.31383870115002 l -16.250391578574053 -2.8974416639434297 a37.50667727475599,37.50667727475599 0 0,0 0.11879664226080185,-0.6346164132027206 l 16.198109212403388 3.176736154608723" fill="#ffd614" stroke="none" /><path d="M 79.46518482838121 95.60439243477599 l -2.9989923439955013 -0.6419533521555585 a24.066929928395396,24.066929928395396 0 0,0 0.09020011776158893,-0.40434944145949203 l 2.9874978392318745 0.6934809631650097" fill="#ff2303" stroke="none" /><path d="M 79.62865764111835 94.90015583598534 l -3.0940065771760397 -0.7745661090004091 a24.189487318805426,24.189487318805426 0 0,0 0.10459496089162937,-0.40304705128525947 l 3.080215284414103 0.8277095858345325" fill="#ff2403" stroke="none" /><path d="M 79.71946130924805 94.55025226153421 l -4.135229898780971 -1.1112111040321744 a25.281929055168533,25.281929055168533 0 0,0 0.11655358086395338,-0.41930524369901967 l 4.1154895473506565 1.1822276511501366" fill="#ff3404" stroke="none" /><path d="M 79.81627453868168 94.20196356495316 l -4.22482311928567 -1.2136351351088297 a25.39568431878602,25.39568431878602 0 0,0 0.12431078984685241,-0.4191141851596652 l 4.2033064323271105 1.286178707015034" fill="#ff3505" stroke="none" /><path d="M 79.91906864156998 93.8553929516997 l -4.0931268708500745 -1.2524646278248663 a25.280462034036443,25.280462034036443 0 0,0 0.13091007685750392,-0.4150207180427338 l 4.070961310224367 1.3227355122940148" fill="#ff3404" stroke="none" /><path d="M 80.14247586403 93.16781622104843 l -5.92020717683832 -2.0369076811725924 a27.260818310597095,27.260818310597095 0 0,0 0.15648607914028628,-0.44240721837163777 l 5.884268016888225 2.1385125259708415" fill="#ff4f07" stroke="none" /><path d="M 80.2630227832202 92.82701384747504 l -22.72536767106167 -8.2590533405986 a45.179625676750824,45.179625676750824 0 0,0 0.27192844660739773,-0.7286330425900279 l 22.579834635952643 8.64900952021797" fill="#ccff1d" stroke="none" /><path d="M 80.52162464483688 92.15188598940014 l -2.948290406663219 -1.187908068611966 a24.178606912075757,24.178606912075757 0 0,0 0.15886301881761353,-0.384699400968469 l 2.927405700959406 1.2384820400337464" fill="#ff2403" stroke="none" /><path d="M 80.65960295795068 91.81776055985345 l -3.7699756731956975 -1.5949436598715394 a25.093477965575456,25.093477965575456 0 0,0 0.1717221860005324,-0.3963584812608905 l 3.741962777352484 1.6596012857190292" fill="#ff3104" stroke="none" /><path d="M 80.803312248108 91.48605970444005 l -16.764516250118813 -7.435245719584541 a39.33935342401956,39.33935342401956 0 0,0 0.2798670597003982,-0.6166499682652646 l 16.634046873455066 7.722717696691878" fill="#ffed16" stroke="none" /><path d="M 80.95270993114464 91.15688171328213 l -2.7746512296565364 -1.2881921228448254 a24.059105815690916,24.059105815690916 0 0,0 0.17762701048653046,-0.3741277846200404 l 2.7520660253282543 1.335762323105398" fill="#ff2203" stroke="none" /><path d="M 81.26839172434947 90.50648371742162 l -9.915197523194482 -5.025200599234645 a32.11592474724934,32.11592474724934 0 0,0 0.2541601780158328,-0.49095656636673224 l 9.827227912018536 5.195129887861712" fill="#ff910d" stroke="none" /><path d="M 81.6062741919709 89.86733742301443 l -2.682122391707333 -1.477516924465884 a24.062162109716105,24.062162109716105 0 0,0 0.20297276912947684,-0.36106590797114085 l 2.6562919812854253 1.5234663423718093" fill="#ff2303" stroke="none" /><line stroke="#e1ed5e" stroke-width="0.3" x1="26.266209847984243" x2="21.928928074336255" y1="57.711370442889674" y2="55.22380399835377" /><path d="M 25.398753493254645 57.213857153982495 a86.0,86.0 0 0,1 29.58750427330803,-30.492523968695096" fill="none" id="id107" stroke="none" /><text fill="#e1ed5e" style="font-size:6.75px; font-family:Arial;" text-anchor="middle"><textPath startOffset="21.46611528233685" xlink:href="#id107">November</textPath></text><path d="M 81.78341655067845 89.55222093294921 l -2.800040136053564 -1.6059103948744025 a24.227874371761782,24.227874371761782 0 0,0 0.21059828927206983,-0.35998074280443787 l 2.7719821723111693 1.6538705500327322" fill="#ff2503" stroke="none" /><path d="M 82.34701348167596 88.62581576622439 l -6.166384510229893 -3.973129045493302 a28.33553354161411,28.33553354161411 0 0,0 0.2677078663611784,-0.40773744684908125 l 6.097080008510794 4.0786845563200504" fill="#ff5e08" stroke="none" /><path d="M 82.7489923806493 88.02491185347247 l -2.515745442931005 -1.7463486248496367 a24.062467739118624,24.062467739118624 0 0,0 0.23912063588239824,-0.3382191815813875 l 2.4853121872447286 1.7893943067628104" fill="#ff2303" stroke="none" /><path d="M 82.95767976084542 87.72973835380427 l -2.7884546949043068 -2.007653195979144 a24.43600799487707,24.43600799487707 0 0,0 0.2487089766390949,-0.3392387646309587 l 2.7534831057515787 2.055354404281603" fill="#ff2803" stroke="none" /><path d="M 83.84228863543731 86.58626213691792 l -48.47313409368807 -40.241213589246236 a84.0,84.0 0 0,0 0.9331575460515031,-1.1045642014835364 l 47.77326593414944 41.06963674035889" fill="#4dd2ff" stroke="none" /><path d="M 84.80347519578584 85.50635884689758 l -6.393094502002243 -6.097395211318123 a29.8345846350882,29.8345846350882 0 0,0 0.35763957762978854,-0.3685790221539061 l 6.287190660669336 6.206538429022152" fill="#ff730a" stroke="none" /><path d="M 85.57189188830299 84.74124197986013 l -4.55567660615302 -4.817954399367529 a27.630752139405818,27.630752139405818 0 0,0 0.3484002538730035,-0.323800065943614 l 4.472068468485161 4.89565905138579" fill="#ff5407" stroke="none" /><path d="M 86.37877921826538 84.01681056812374 l -2.702094110715787 -3.170646943205026 a25.165851008091902,25.165851008091902 0 0,0 0.3321202825191736,-0.2781411853418043 l 2.647116291237503 3.216689285940643" fill="#ff3204" stroke="none" /><path d="M 87.51073957382395 83.11751280151077 l -0.39486837584399603 -0.5337674187898732 a21.663949314031786,21.663949314031786 0 0,0 0.3017011163410892,-0.2191986917684951 l 0.38562194314912507 0.5404853453750362" fill="#ff0000" stroke="none" /><path d="M 88.09926311788651 82.69761687909137 l -1.9498244162587195 -2.8348336244048613 a24.440653561795354,24.440653561795354 0 0,0 0.34868119394047514,-0.2354310986279235 l 1.9007385279117048 2.86797663533145" fill="#ff2803" stroke="none" /><line stroke="#e1ed5e" stroke-width="0.3" x1="56.762969772571076" x2="54.21961505331055" y1="26.818313649435495" y2="22.513508569990535" /><path d="M 56.25429882871897 25.957352633546506 a86.0,86.0 0 0,1 42.265352541879196,-11.944610805530505" fill="none" id="id108" stroke="none" /><text fill="#e1ed5e" style="font-size:6.75px; font-family:Arial;" text-anchor="middle"><textPath startOffset="22.20632615414155" xlink:href="#id108">December</textPath></text><path d="M 89.94658935756843 81.56283822128135 l -6.2423012380753375 -11.447887875199172 a34.03918945141948,34.03918945141948 0 0,0 0.5168363889879314,-0.2760760998197134 l 6.044319802559101 11.553642701520634" fill="#ffaa0f" stroke="none" /><path d="M 90.58718382345135 81.22770947309562 l -0.6867960232206881 -1.369700017380841 a22.532242446587624,22.532242446587624 0 0,0 0.34820762345738004,-0.1708639685814305 l 0.6631171327528821 1.381319146097101" fill="#ff0d01" stroke="none" /><path d="M 91.23893434514133 80.91482961587045 l -1.2968954503235588 -2.8251666652105247 a24.10861777889896,24.10861777889896 0 0,0 0.37864063059670067,-0.16988501383927632 l 1.2480727012600838 2.84707200956633" fill="#ff2303" stroke="none" /><path d="M 91.90106846888425 80.62456947434976 l -0.5683695085145463 -1.3597354024802366 a22.47374497894553,22.47374497894553 0 0,0 0.3582059502481053,-0.14612120112197663 l 0.5448796886780605 1.3693174897857903" fill="#ff0c01" stroke="none" /><path d="M 92.23578459929587 80.48803036053334 l -2.0798313093883563 -5.226749036395545 a26.62535365688006,26.62535365688006 0 0,0 0.4272948771526672,-0.16578377391102161 l 1.989553267236013 5.261775514197119" fill="#ff4706" stroke="none" /><path d="M 92.57280143429618 80.3572730644239 l -2.1907374885673145 -5.793847827653947 a27.194191100848002,27.194191100848002 0 0,0 0.43927382179647373,-0.16178825575192085 l 2.0906813409982714 5.83069935121219" fill="#ff4e07" stroke="none" /><path d="M 92.91201910852362 80.23233633223022 l -2.909045835714187 -8.113035370013023 a29.61881027690994,29.61881027690994 0 0,0 0.48140156979736526,-0.16795155513469617 l 2.7689622618535363 8.161907778319929" fill="#ff700a" stroke="none" /><path d="M 93.59665428221793 80.00007090966166 l -0.9373341047889527 -2.9276282206152815 a24.074020530533833,24.074020530533833 0 0,0 0.395747810704881,-0.122960771187637 l 0.886800921373343 2.9433291266854438" fill="#ff2303" stroke="none" /><path d="M 94.63758080256005 79.69619591428918 l -3.321311775017339 -12.575530018188525 a34.00673160887198,34.00673160887198 0 0,0 0.567250276545844,-0.14460472584580394 l 3.1043526097864955 12.630837740203193" fill="#ffaa0f" stroke="none" /><path d="M 97.11714578562143 79.19881850522333 l -4.470079912688575 -32.2537792914492 a53.56206217375274,53.56206217375274 0 0,0 0.9143433523827026,-0.11870800896920085 l 3.9142218317980144 32.325945623582534" fill="#70ff27" stroke="none" /><path d="M 98.19473922651362 79.07773832637324 l -0.7006897612247927 -8.120718486595292 a29.1508916616537,29.1508916616537 0 0,0 0.5002984449378914,-0.03883278815272886 l 0.560801126924567 8.131576536936484" fill="#ff6909" stroke="none" /><path d="M 98.55514903715128 79.0497635885617 l -0.2561047607367184 -3.7135008533685623 a24.72232161915666,24.72232161915666 0 0,0 0.42479770861830396,-0.025624957856076665 l 0.19214500327879144 3.7173590806049455" fill="#ff2c04" stroke="none" /><path d="M 99.63851952072746 79.00311137660856 l -0.324568547538934 -18.852828946795658 a39.855622610754274,39.855622610754274 0 0,0 0.6860490268114651,-0.005905040567173848 l 4.618295575238136e-15 18.855622610754274" fill="#fff316" stroke="none" /></svg>