<?xml version="1.0" encoding="utf-8" ?>
<svg baseProfile="full" height="200mm" version="1.1" viewBox="0,0,200,200" width="200mm" xmlns="http://www.w3.org/2000/svg" xmlns:ev="http://www.w3.org/2001/xml-events" xmlns:xlink="http://www.w3.org/1999/xlink"><defs /><rect fill="#1a1a1a" height="200" width="200" x="0" y="0" /><text alignment-baseline="middle" fill="#e1ed5e" style="dominant-baseline: central; font-size:9.0px; font-family:Arial;" text-anchor="middle" x="100.0" y="100.0">2023</text><line stroke="#e1ed5e" stroke-width="0.3" x1="100.0" x2="100.0" y1="15.0" y2="10.0" /><path d="M 100.0 14.0 a86.0,86.0 0 0,1 42.46469731375804,11.215312516191453" fill="none" id="id97" stroke="none" /><text fill="#e1ed5e" style="font-size:6.75px; font-family:Arial;" text-anchor="middle"><textPath startOffset="22.20632615414155" xlink:href="#id97">January</textPath></text><path d="M 100.0 79.0 l 0.0 -20.835499123124343 a41.83549912312434,41.83549912312434 0 0,0 0.7201293463634489,0.0061983806370987694 l -0.3586488670909206 20.832412119095803" fill="#f7ff19" stroke="none" /><path d="M 100.36148047927253 79.00311137660856 l 0.3855033349927817 -22.392275801667473 a43.3955939505795,43.3955939505795 0 0,0 0.7467624668399121,0.019286671354596142 l -0.7708924370275616 22.382322338170518" fill="#e4ff1a" stroke="none" /><path d="M 101.08401301168833 79.027996857942 l 0.5022015886520266 -9.715910401069046 a30.72888078646492,30.72888078646492 0 0,0 0.5280069706876103,0.03185082239636817 l -0.6693706081792488 9.705826309292373" fill="#ff790b" stroke="none" /><path d="M 101.44485096284872 79.0497635885617 l 0.4750750178740558 -6.888554040207858 a27.90491658439637,27.90491658439637 0 0,0 0.4789145572400934,0.03717298690958365 l -0.5935797644764904 6.879355791109811" fill="#ff5307" stroke="none" /><path d="M 102.16513564639614 79.11191278185805 l 1.4527516833222134 -14.01538232398811 a35.09047299209483,35.09047299209483 0 0,0 0.6002698232549134,0.06744730879007338 l -1.693788210086852 13.988299061727435" fill="#ffb310" stroke="none" /><path d="M 102.52436894288641 79.15227682838746 l 3.1635489856988697 -26.12644783146244 a47.317281745557324,47.317281745557324 0 0,0 0.8077404091822312,0.10486788741682013 l -3.612804123388947 26.06812162088148" fill="#b6ff1f" stroke="none" /><path d="M 102.88285421437855 79.19881850522331 l 0.5932301760050298 -4.28044141036073 a25.32135403655543,25.32135403655543 0 0,0 0.4312238886200139,0.063551191725685 l -0.6668230450536994 4.269595734474076" fill="#ff2e04" stroke="none" /><path d="M 103.2404852339499 79.25152402106235 l 1.008924967523877 -6.460037291298834 a27.538349286713323,27.538349286713323 0 0,0 0.4677202334150944,0.07717784609509526 l -1.1199744070778466 6.441713182264113" fill="#ff4e07" stroke="none" /><path d="M 103.59715602781102 79.31037775812273 l 2.3291426520819853 -13.39643908867219 a34.59740731721499,34.59740731721499 0 0,0 0.5858574685329451,0.10706170766769774 l -2.559395241717831 13.354361899653753" fill="#ffad10" stroke="none" /><path d="M 104.66035177308747 79.52364482259891 l 3.523554440021084 -15.481567854475792 a36.877480251114484,36.877480251114484 0 0,0 0.6177440017547335,0.146200046707127 l -3.7895221287383407 15.418621895627798" fill="#ffca12" stroke="none" /><path d="M 105.01212808612495 79.60689891045804 l 3.329319663249997 -13.546172660672974 a34.949306906540805,34.949306906540805 0 0,0 0.5829729312371575,0.14861278060613273 l -3.5620014831721796 13.486856883897975" fill="#ffb110" stroke="none" /><path d="M 105.71112130821622 79.79150937346287 l 0.9192501207145596 -3.252716313550944 a24.380116004055804,24.380116004055804 0 0,0 0.402863749830714,0.11760697582698638 l -0.9751040882687007 3.236411008805254" fill="#ff2103" stroke="none" /><path d="M 106.0581310904928 79.89281104454417 l 4.444146621759865 -14.750307402510746 a36.405259091111155,36.405259091111155 0 0,0 0.5984584737384606,0.18594396093711782 l -4.697390468209044 14.671623306691107" fill="#ffc412" stroke="none" /><path d="M 106.40334571778207 80.00007090966166 l 4.046944112064909 -12.640047693988198 a34.27209713468347,34.27209713468347 0 0,0 0.5602952221006314,0.18472052554764398 l -4.263922156407958 12.568513444181317" fill="#ffa80f" stroke="none" /><path d="M 106.74666289553966 80.11325718540242 l 4.0764192402282395 -12.015822087167127 a33.688466189912646,33.688466189912646 0 0,0 0.5475466555296736,0.191028276753892 l -4.282647899821187 11.943872957241027" fill="#ffa10e" stroke="none" /><path d="M 107.08798089147638 80.2323363322302 l 7.718971651404165 -21.527433242589403 a43.86947540651784,43.86947540651784 0 0,0 0.7086334008083875,0.26099566192100687 l -8.088387377985129 21.391374312862073" fill="#deff1b" stroke="none" /><path d="M 107.4271985657038 80.35727306442388 l 5.012965303230562 -13.257799386644587 a35.173886753742146,35.173886753742146 0 0,0 0.564485332781253,0.21901153931330644 l -5.2404338010114815 13.169545143440734" fill="#ffb410" stroke="none" /><path d="M 108.09893153111575 80.62456947434976 l 6.409324339478952 -15.333308841891819 a37.61895900859844,37.61895900859844 0 0,0 0.5953043377894096,0.25487824977580037 l -6.672312435058678 15.220711064153228" fill="#ffd313" stroke="none" /><path d="M 109.08828744355905 81.06846463323043 l 2.909897972193113 -6.061520029640665 a27.72380333429738,27.72380333429738 0 0,0 0.42843670332054734,0.21023202963921891 l -3.0138059425240926 6.010532839866614" fill="#ff5007" stroke="none" /><path d="M 109.41281617654863 81.2277094730956 l 11.522982132312453 -22.98066426315919 a46.707781841256434,46.707781841256434 0 0,0 0.715606616924601,0.366561503500577 l -11.91684923682581 22.778910234346114" fill="#bdff1f" stroke="none" /><path d="M 110.05341064243156 81.56283822128135 l 11.62155460453311 -21.31301405909406 a45.2756070924969,45.2756070924969 0 0,0 0.681022553959954,0.3789883139512412 l -11.9867012475651 21.109810347582638" fill="#ceff1d" stroke="none" /><path d="M 110.36928655335952 81.73862282372117 l 1.666137577282904 -2.9342391658061464 a24.374281243255354,24.374281243255354 0 0,0 0.363064515080922,0.2103104013277888 l -1.716398824829153 2.905124607088308" fill="#ff2103" stroke="none" /><line stroke="#e1ed5e" stroke-width="0.3" x1="143.23703022742887" x2="145.7803849466894" y1="26.81831364943548" y2="22.513508569990506" /><path d="M 143.74570117128098 25.957352633546492 a86.0,86.0 0 0,1 28.547481713284135,27.462654790039103" fill="none" id="id98" stroke="none" /><text fill="#e1ed5e" style="font-size:6.75px; font-family:Arial;" text-anchor="middle"><textPath startOffset="19.985693538727396" xlink:href="#id98">February</textPath></text><path d="M 111.2981086023043 82.29822771554956 l 17.769212821895998 -27.840638651940996 a54.02795913855084,54.02795913855084 0 0,0 0.779631102312402,0.5070937557939729 l -18.245810949992677 27.530645971987493" fill="#6dff28" stroke="none" /><path d="M 111.60114157652 82.49532879139004 l 5.115523612807773 -7.718685123480891 a30.259950424739817,30.259950424739817 0 0,0 0.43170186165442,0.2914870240646506 l -5.247630168868735 7.62948618711757" fill="#ff730a" stroke="none" /><path d="M 111.90073688211348 82.69761687909136 l 5.229528654574106 -7.603168544899549 a30.228008553916798,30.228008553916798 0 0,0 0.4261700973911332,0.2985593879592263 l -5.35962989154889 7.512024314176387" fill="#ff730a" stroke="none" /><path d="M 112.19680574252982 82.90503203632743 l 3.8872202440879366 -5.448304002146019 a27.69286916993358,27.69286916993358 0 0,0 0.3856623472547068,0.28020009673091434 l -3.9804279076964324 5.38058467059843" fill="#ff5007" stroke="none" /><path d="M 112.77801427241765 83.33499621200491 l 10.816713109186278 -14.107087462513812 a38.77670383286667,38.77670383286667 0 0,0 0.5261951528853115,0.410703663196195 l -11.057940817231021 13.91880541009439" fill="#ffe215" stroke="none" /><path d="M 113.06298171725822 83.55741782278167 l 8.55605576699219 -10.769643034542947 a34.75468288908762,34.75468288908762 0 0,0 0.4652106306710172,0.3761679767718276 l -8.740169796227699 10.620768960506993" fill="#ffaf10" stroke="none" /><path d="M 113.34407831869373 83.78471172551755 l 1.3712875119437613 -1.6663438105137398 a23.158038724224003,23.158038724224003 0 0,0 0.3056226614870276,0.2559501897581668 l -1.3997677103899062 1.6424924633617537" fill="#ff0f01" stroke="none" /><path d="M 113.6212207817346 84.01681056812373 l 8.152392453851993 -9.56604661218344 a33.568641553807204,33.568641553807204 0 0,0 0.43656210377850807,0.3785823544423118 l -8.315848356277264 9.424299264321453" fill="#ff9f0e" stroke="none" /><path d="M 113.89432698308785 84.25364557470405 l 17.988246056746814 -20.385967470301953 a48.18758293593376,48.18758293593376 0 0,0 0.6172347782891974,0.5541594782876097 l -18.336491822632002 20.07330898324505" fill="#adff20" stroke="none" /><path d="M 114.42810811169701 84.74124197986012 l 4.484723638516888 -4.74291655271508 a27.527480642628582,27.527480642628582 0 0,0 0.34149380802568946,0.3285167727555267 l -4.565700690154998 4.665016693197251" fill="#ff4d07" stroke="none" /><path d="M 114.94478906791727 85.2469230424477 l 2.783328982142207 -2.747624371620004 a24.91105611189011,24.91105611189011 0 0,0 0.2986191929647535,0.30775332771830727 l -2.83021243881007 2.6993068483515827" fill="#ff2903" stroke="none" /><path d="M 115.4437574822437 85.77008943001954 l 35.644844161390985 -32.84323425051569 a69.46888642545954,69.46888642545954 0 0,0 0.8027174795457197,0.8863806899614355 l -36.20490528155274 32.224800773284706" fill="#3bff9b" stroke="none" /><path d="M 116.82858285166822 87.43820079747576 l 6.0834104556740165 -4.54099916102788 a28.59134745303229,28.59134745303229 0 0,0 0.29100190044410973,0.39692626517125223 l -6.160674968631753 4.435610452185134" fill="#ff5c08" stroke="none" /><path d="M 117.04232023915458 87.72973835380427 l 8.062361633157233 -5.804801537398919 a30.934656309726805,30.934656309726805 0 0,0 0.30741297059734146,0.43481384590358274 l -8.161087223558457 5.665161191163543" fill="#ff7c0b" stroke="none" /><path d="M 117.65298651832404 88.62581576622439 l 7.320151537134791 -4.716524997971366 a29.70805526986971,29.70805526986971 0 0,0 0.2732750689208922,0.43225553188309823 l -7.400254202301639 4.589821818374062" fill="#ff6c09" stroke="none" /><line stroke="#e1ed5e" stroke-width="0.3" x1="172.23445277983987" x2="176.4835382374775" y1="55.19839476539836" y2="52.563006222186495" /><path d="M 173.08426987136738 54.67131705675599 a86.0,86.0 0 0,1 12.851231095245387,41.99856678651699" fill="none" id="id99" stroke="none" /><text fill="#e1ed5e" style="font-size:6.75px; font-family:Arial;" text-anchor="middle"><textPath startOffset="22.20632615414155" xlink:href="#id99">March</textPath></text><path d="M 117.84615892207809 88.93136811851018 l 8.473352942987445 -5.255384362392827 a30.970796101260774,30.970796101260774 0 0,0 0.2770915858059766,0.4554657107381812 l -8.562560327079645 5.108750878447565" fill="#ff7d0b" stroke="none" /><path d="M 118.21658344932153 89.55222093294921 l 11.48328165064898 -6.586020368993357 a34.2378782955928,34.2378782955928 0 0,0 0.28880850087732585,0.5137580969422335 l -11.594947792818742 6.38737876211633" fill="#ffa80f" stroke="none" /><path d="M 118.3937258080291 89.86733742301442 l 5.398244553108949 -2.9737635069468467 a27.163141540677064,27.163141540677064 0 0,0 0.222080542967463,0.41148151792959187 l -5.448633195294877 2.880401005684796" fill="#ff4806" stroke="none" /><path d="M 118.56541770881063 90.18545643968196 l 9.156058772665345 -4.84031865453315 a31.35674161722323,31.35674161722323 0 0,0 0.24815212683895704,0.47935092381728217 l -9.238020332664417 4.681995008455523" fill="#ff820c" stroke="none" /><path d="M 118.89224826269711 90.83032412892265 l 3.701190406871161 -1.7964360777092725 a25.114121170944117,25.114121170944117 0 0,0 0.1854161288771507,0.3905336544235369 l -3.7315647295900685 1.7324600076451953" fill="#ff2b04" stroke="none" /><path d="M 119.04729006885535 91.15688171328212 l 11.976571878511646 -5.560383729559179 a34.20439855431145,34.20439855431145 0 0,0 0.2433360901750655,0.5361588192796998 l -12.070510285650057 5.353402901437417" fill="#ffa80f" stroke="none" /><path d="M 119.34039704204932 91.81776055985345 l 7.8467503164582 -3.319683136634488 a29.52008137616609,29.52008137616609 0 0,0 0.19395862053645607,0.46968618428880676 l -7.902730623880854 3.184122381892378" fill="#ff6909" stroke="none" /><path d="M 119.47837535516314 92.15188598940014 l 13.626749460839747 -5.490410848572269 a35.691252913030134,35.691252913030134 0 0,0 0.22469589751933963,0.571826550433582 l -13.719238908240786 5.255035293242903" fill="#ffbb11" stroke="none" /><path d="M 119.61058180528143 92.48833698450437 l 20.690326974246155 -7.9252500233878775 a43.156245580748276,43.156245580748276 0 0,0 0.25975006756683783,0.6960010414704536 l -20.823681630314617 7.567925844888091" fill="#e7ff1a" stroke="none" /><path d="M 119.85752413597 93.16781622104841 l 4.092813126183766 -1.408174113727543 a25.328287608331323,25.328287608331323 0 0,0 0.13829571434753385,0.4134865832883539 l -4.11644613430307 1.337514427516875" fill="#ff2f04" stroke="none" /><path d="M 119.97218684219823 93.5106431181261 l 9.313622816295005 -3.026179496298439 a30.79292256213782,30.79292256213782 0 0,0 0.15945530797060792,0.5055169013591037 l -9.364333608033819 2.8654124285129163" fill="#ff7a0b" stroke="none" /><path d="M 120.18372546131832 94.20196356495316 l 10.043694846787199 -2.885181369305092 a31.449884100274268,31.449884100274268 0 0,0 0.14498880214576867,0.5216018638528359 l -10.091870419499331 2.7118682020333043" fill="#ff830c" stroke="none" /><path d="M 120.28053869075195 94.5502522615342 l 18.041930003946483 -4.848193074940455 a39.68197565460369,39.68197565460369 0 0,0 0.1715842356224458,0.6611840534680632 l -18.12271057143923 4.536912595923541" fill="#ffed16" stroke="none" /><path d="M 120.37134235888165 94.90015583598534 l 13.634484545873775 -3.4133119563574774 a35.055243411022225,35.055243411022225 0 0,0 0.14150165810131973,0.5866157258289288 l -13.691219004235913 3.1781109988691427" fill="#ffb310" stroke="none" /><path d="M 120.45610955862082 95.25157060432595 l 5.300863234704789 -1.23047712146772 a26.441803467555623,26.441803467555623 0 0,0 0.09910087384217207,0.44424978570586127 l -5.321258495548998 1.1390491662118947" fill="#ff3e05" stroke="none" /><path d="M 120.6074358757038 95.95851677861258 l 8.422164549536012 -1.6517356608565124 a29.582603707081333,29.582603707081333 0 0,0 0.09369835573514418,0.5005403629934884 l -8.449348629181015 1.5065172204004613" fill="#ff6a09" stroke="none" /><path d="M 120.67395015179393 96.31383870115 l 13.703439744233561 -2.4433206462932984 a34.91955734225924,34.91955734225924 0 0,0 0.10041557449699351,0.5926584048810115 l -13.743467180250779 2.2070764530964495" fill="#ffb110" stroke="none" /><path d="M 120.73433829027371 96.67025291283417 l 13.55597185236742 -2.176966400239365 a34.729659703355686,34.729659703355686 0 0,0 0.08970854103646088,0.5910672002047733 l -13.591436286843182 1.943300087642509" fill="#ffae10" stroke="none" /><path d="M 120.78858239683441 97.02765380044208 l 12.944544384042384 -1.8508076486627578 a34.07618898084575,34.07618898084575 0 0,0 0.07802473824096852,0.5813749278178681 l -12.97448512134119 1.6277143787802255" fill="#ffa60f" stroke="none" /><path d="M 120.87857604477298 97.74499172005257 l 20.444154625272375 -2.2080882267857747 a41.56305210710015,41.56305210710015 0 0,0 0.07070246127071043,0.711964136263358 l -20.479134212225315 1.855848559817982" fill="#faff18" stroke="none" /><path d="M 120.91429891909075 98.10471618934814 l 4.305805580667686 -0.39019828684789115 a25.32344959512286,25.32344959512286 0 0,0 0.03560418670319091,0.4344612598768252 l -4.311884251190372 0.31602310976329717" fill="#ff2e04" stroke="none" /><path d="M 120.98425023603335 99.18683210126433 l 5.4224344578796755 -0.21012662280276906 a26.426504275093805,26.426504275093805 0 0,0 0.013701897762686824,0.45469928065677506 l -5.425248050098007 0.11675719472099493" fill="#ff3e05" stroke="none" /><line stroke="#e1ed5e" stroke-width="0.3" x1="184.98032266829074" x2="189.97916517819016" y1="98.17113171792111" y2="98.06355123074" /><path d="M 185.9800911702706 98.14961562048488 a86.0,86.0 0 0,1 -9.607161424134198,41.387399972396054" fill="none" id="id100" stroke="none" /><text fill="#e1ed5e" style="font-size:6.75px; font-family:Arial;" text-anchor="middle"><textPath startOffset="21.466115282336823" xlink:href="#id100">April</textPath></text><path d="M 120.99980553446 99.90962569577887 l 27.783760271679306 -0.11956958358873018 a48.7840175590116,48.7840175590116 0 0,0 -0.003613972778356521,0.8397599982251291 l -27.781702001611446 -0.35869989284008363" fill="#a6ff21" stroke="none" /><path d="M 120.99824983174949 100.27111621757518 l 5.510468565999591 0.07114771024496813 a26.510927854140597,26.510927854140597 0 0,0 -0.009819063571990257,0.456253300920949 l -5.508427439742593 -0.16599082695603196" fill="#ff3f05" stroke="none" /><path d="M 120.8583938346157 102.4346265915055 l 12.955438404303369 1.512180424524514 a34.043391962369824,34.043391962369824 0 0,0 -0.07294767897260111,0.5814647752732027 l -12.927489216083918 -1.7349629540851117" fill="#ffa60f" stroke="none" /><path d="M 120.32669344350535 105.2749913415812 l 3.9074295632472147 1.0140191847362756 a25.036860252566534,25.036860252566534 0 0,0 -0.11184552488835066,0.41621880566608144 l -3.889395962017087 -1.0811289235779054" fill="#ff2a04" stroke="none" /><path d="M 120.13307415673323 105.97154293290107 l 7.717093887672626 2.288918081198929 a29.04939029079803,29.04939029079803 0 0,0 -0.14631656037079618,0.47817098511128725 l -7.676550554795697 -2.4214160388622736" fill="#ff6309" stroke="none" /><path d="M 119.79798401119884 107.00284435728193 l 6.405948984459922 2.2658803883004355 a27.794880155351354,27.794880155351354 0 0,0 -0.16342825559300794,0.4496843697491043 l -6.365996467861687 -2.375812555055671" fill="#ff5107" stroke="none" /><path d="M 119.67450827220406 107.3425965602758 l 5.112003009964405 1.9078177303223238 a26.456403876732125,26.456403876732125 0 0,0 -0.16290306488790418,0.4252884978632865 l -5.078405665482994 -1.995529795018754" fill="#ff3e05" stroke="none" /><path d="M 119.54520255179757 107.68017299344265 l 8.267016828202845 3.2484758964270766 a29.882351202663443,29.882351202663443 0 0,0 -0.19223940606296977,0.47712244040933877 l -8.209874807882484 -3.3902977046792286" fill="#ff6e0a" stroke="none" /><path d="M 119.41010516605496 108.01547362559984 l 6.710902309231994 2.771291551665453 a28.260596853454103,28.260596853454103 0 0,0 -0.18954653989184125,0.4480320291615969 l -6.662204788147841 -2.8863981064932136" fill="#ff5808" stroke="none" /><path d="M 119.12269723197855 108.67885076344098 l 7.785089366835922 3.533268763039946 a29.549362818450014,29.549362818450014 0 0,0 -0.2141982417703521,0.46136395680318165 l -7.723116508225738 -3.666752787121958" fill="#ff6909" stroke="none" /><path d="M 118.97047184881838 109.00673069616215 l 6.057105006080156 2.8757699873204614 a27.705115515384833,27.705115515384833 0 0,0 -0.20824582186745938,0.4290480734219499 l -6.006705927597983 -2.9796070167076865" fill="#ff5007" stroke="none" /><path d="M 118.81262510543309 109.33194174019688 l 9.495217951640175 4.710072105226155 a31.599242576032466,31.599242576032466 0 0,0 -0.24590429788198037,0.48519250866793207 l -9.412734983971925 -4.872818825596781" fill="#ff850c" stroke="none" /><path d="M 118.64920377521936 109.65438752849418 l 7.86914848329543 4.073729360925636 a29.86108169233409,29.86108169233409 0 0,0 -0.24023594541006713,0.45443587343601427 l -7.79786002966047 -4.208580249447785" fill="#ff6e0a" stroke="none" /><line stroke="#e1ed5e" stroke-width="0.3" x1="174.80103733775053" x2="179.2010983576182" y1="140.37084112569926" y2="142.7455964860345" /><path d="M 175.68104954172406 140.8457921977663 a86.0,86.0 0 0,1 -30.038265399797805,32.042727171017184" fill="none" id="id101" stroke="none" /><text fill="#e1ed5e" style="font-size:6.75px; font-family:Arial;" text-anchor="middle"><textPath startOffset="22.206326154141568" xlink:href="#id101">May</textPath></text><path d="M 117.55443506779139 111.5257021239791 l 4.3596470775857705 2.862410176566939 a26.21535374255823,26.21535374255823 0 0,0 -0.2509145091816017,0.3750831466988283 l -4.309729462993448 -2.937030237471574" fill="#ff3b05" stroke="none" /><path d="M 117.14729908036423 112.12312394758627 l 5.27100686667542 3.7265967820237664 a27.455310756604156,27.455310756604156 0 0,0 -0.2761484018286798,0.3835459775182732 l -5.206078672471137 -3.816776364993171" fill="#ff4c07" stroke="none" /><path d="M 116.71984013943494 112.70617746262583 l 5.05212691038493 3.8393441894013187 a27.3454353769718,27.3454353769718 0 0,0 -0.28802970883762,0.37231722546810475 l -4.985290384329241 -3.9257394089826763" fill="#ff4b07" stroke="none" /><path d="M 116.27256486870786 113.27417163493432 l 5.1744675586026 4.221016849309057 a27.677731482860157,27.677731482860157 0 0,0 -0.3043285196792771,0.3665833066945401 l -5.101043039029779 -4.309461413117368" fill="#ff5007" stroke="none" /><path d="M 116.0416608686014 113.55231037782055 l 7.3583325828766695 6.216463983574349 a30.63272977194427,30.63272977194427 0 0,0 -0.34375391538346695,0.3998634640803042 l -7.250236157922422 -6.342204546816181" fill="#ff780b" stroke="none" /><path d="M 115.56566222782051 114.09645910891815 l 3.3428609088012324 3.0273368018673503 a25.509932057972918,25.509932057972918 0 0,0 -0.2975594994945472,0.322942067986443 l -3.290255001310961 -3.084430124655128" fill="#ff3104" stroke="none" /><path d="M 115.07121518719521 114.62390073753431 l 4.56065228150116 4.425291884873846 a27.354742913689904,27.354742913689904 0 0,0 -0.3308092101012955,0.3351079832981799 l -4.483802446344329 -4.50314036215269" fill="#ff4b07" stroke="none" /><path d="M 114.81725581225074 114.88116024355365 l 4.622309741152085 4.6422450165537565 a27.551044659965893,27.551044659965893 0 0,0 -0.3389435095237528,0.33172756222133326 l -4.541716279252538 -4.721122681697662" fill="#ff4e07" stroke="none" /><path d="M 114.29624159901734 115.38237550388516 l 13.406714781515005 14.425268320656151 a40.69335845801368,40.69335845801368 0 0,0 -0.5171940812452501,0.47244453066422804 l -13.15642115080289 -14.653905617906961" fill="#fffa17" stroke="none" /><path d="M 112.34349029814194 116.9893568818739 l 10.692776473350838 14.717344217559605 a39.19163790116713,39.19163790116713 0 0,0 -0.5491918100550183,0.3918337745273151 l -10.437857335446935 -14.89922225393114" fill="#ffe715" stroke="none" /><path d="M 111.7513745106137 117.40417183066458 l 3.038430612305959 4.5000155874840395 a26.429751455950566,26.429751455950566 0 0,0 -0.3792358485567703,0.2513368413246636 l -2.9605200650092245 -4.551650449900022" fill="#ff3e05" stroke="none" /><path d="M 111.1453310114006 117.79835938074945 l 3.6149505152185033 5.772837823091167 a27.81127915733825,27.81127915733825 0 0,0 -0.4079263074737731,0.250581655658283 l -3.5150450078124216 -5.834207945577828" fill="#ff5107" stroke="none" /><line stroke="#e1ed5e" stroke-width="0.3" x1="143.8653032363475" x2="146.44561519142675" y1="172.8068346515853" y2="177.08958963109032" /><path d="M 144.38136562736335 173.6633856474863 a86.0,86.0 0 0,1 -40.68145358897372,12.25698825130547" fill="none" id="id102" stroke="none" /><text fill="#e1ed5e" style="font-size:6.75px; font-family:Arial;" text-anchor="middle"><textPath startOffset="21.466115282336833" xlink:href="#id102">June</textPath></text><path d="M 110.5260780823613 118.17145234162733 l 4.238637246182266 7.317273737643539 a29.456272267159534,29.456272267159534 0 0,0 -0.4409340718612629,0.25037387367521236 l -4.112054407399806 -7.38915077711338" fill="#ff6809" stroke="none" /><path d="M 110.21172684928248 118.3499491758327 l 4.369606223538495 7.85195817551343 a29.98591707833978,29.98591707833978 0 0,0 -0.45318314504110996,0.24711158409347855 l -4.2338002666287355 -7.926010411366679" fill="#ff6f0a" stroke="none" /><path d="M 109.57404056367764 118.69057910512821 l 2.9759776924423607 5.809746272301642 a27.527602544153357,27.527602544153357 0 0,0 -0.4235922472859647,0.21239794641998844 l -2.8755315374736354 -5.860112059630932" fill="#ff4d07" stroke="none" /><path d="M 108.92500713936063 119.00905698771935 l 2.665621950852924 5.6774138978569875 a27.272046631877718,27.272046631877718 0 0,0 -0.42665429235691354,0.1958560595494866 l -2.5674996627285913 -5.722457027740548" fill="#ff4a06" stroke="none" /><path d="M 108.59647513512805 119.15986991738527 l 5.030529124652817 11.212070311249764 a33.288887009749445,33.288887009749445 0 0,0 -0.5248220120277195,0.23006654697573406 l -4.836786437967344 -11.297001411519954" fill="#ff9c0e" stroke="none" /><path d="M 108.2653958097858 119.30500536409082 l 2.530885374896876 5.9112421065712235 a27.430253807072276,27.430253807072276 0 0,0 -0.4356558341850965,0.1821041740221047 l -2.428758081214318 -5.953931323613301" fill="#ff4c07" stroke="none" /><path d="M 107.93186726928326 119.44442032107085 l 5.334252170901862 13.076547777251559 a35.12268912047256,35.12268912047256 0 0,0 -0.5617605251571606,0.22353610637598997 l -5.108370569702835 -13.166430728033617" fill="#ffb410" stroke="none" /><path d="M 105.53697534728816 120.25689768951611 l 1.9191157212612702 7.021040980247714 a28.278600249904507,28.278600249904507 0 0,0 -0.4706495738692763,0.12430283012628658 l -1.7979757045804965 -7.053035159677584" fill="#ff5808" stroke="none" /><path d="M 105.18746579009965 120.34920634021253 l 2.819284199776416 11.059387807904777 a32.41308118278065,32.41308118278065 0 0,0 -0.5418336038365134,0.13316951707692898 l -2.6284973111966914 -11.106278583295737" fill="#ff900d" stroke="none" /><path d="M 104.48393922423573 120.51570834832081 l 0.9300917272448259 4.2555194571338495 a25.35597480148061,25.35597480148061 0 0,0 -0.4271981137402558,0.08952351830372926 l -0.8567021520751921 -4.27089895616412" fill="#ff2f04" stroke="none" /><path d="M 104.13013068566511 120.58985236759428 l 1.3596243371049932 6.778106192509469 a27.913125334823853,27.913125334823853 0 0,0 -0.4719077843991193,0.09044225003008421 l -1.2427489381341694 -6.800505640888022" fill="#ff5307" stroke="none" /><path d="M 103.41894727170886 120.7198165907248 l 0.9242111490746716 5.600988836063243 a26.67672812364473,26.67672812364473 0 0,0 -0.45371288390628345,0.07086062138942714 l -0.827662401559871 -5.616067764799776" fill="#ff4206" stroke="none" /><path d="M 103.06178313531738 120.77559828337769 l 3.228105842431975 21.904173886449783 a43.14076559150049,43.14076559150049 0 0,0 -0.7355940339346329,0.10194663035523771 l -2.8505832173105117 -21.95649508229762" fill="#e7ff1a" stroke="none" /><path d="M 101.26447882468166 120.96189622390904 l 0.7783421480687578 12.902966041063781 a33.926420585618644,33.926420585618644 0 0,0 -0.5832306013062322,0.030146360190212166 l -0.5561234783490461 -12.914452208016195" fill="#ffa40f" stroke="none" /><path d="M 100.90346689309514 120.98055641714683 l 0.8166704827030861 18.964946327885265 a39.98252195828803,39.98252195828803 0 0,0 -0.687851022488133,0.02369098000762426 l -0.49009910854030075 -18.976194106318985" fill="#fff116" stroke="none" /><line stroke="#e1ed5e" stroke-width="0.3" x1="102.19456741930631" x2="102.32365962044197" y1="184.97166512339345" y2="189.96999836594603" /><path d="M 102.22038585953345 185.97133177190398 a86.0,86.0 0 0,1 -42.740103519485714,-10.115201625700543" fill="none" id="id103" stroke="none" /><text fill="#e1ed5e" style="font-size:6.75px; font-family:Arial;" text-anchor="middle"><textPath startOffset="22.20632615414155" xlink:href="#id103">July</textPath></text><path d="M 100.54218724476979 120.99299961872073 l 0.750935080430372 29.07552696827489 a50.08522257054089,50.08522257054089 0 0,0 -0.8620389703662403,0.014840782639216005 l -0.25033642017146374 -29.084145228193265" fill="#97ff23" stroke="none" /><path d="M 100.18074693466247 120.99922214144158 l 0.11951468445869247 13.885244653244975 a34.88575899402944,34.88575899402944 0 0,0 -0.6005232382422863,0.0 l 0.11951468445868291 -13.885244653244975" fill="#ffb010" stroke="none" /><path d="M 99.81925306533755 120.99922214144158 l -0.11645710493722157 13.530014332430971 a34.53051551468302,34.53051551468302 0 0,0 -0.5943200112282414,-0.010231757969164045 l 0.34933680605813094 -13.526005097182647" fill="#ffac0f" stroke="none" /><path d="M 98.01472825383883 120.90594882070398 l -0.7078267528411546 7.453785557285057 a28.48731846831888,28.48731846831888 0 0,0 -0.48776719672966407,-0.0505590643007674 l 0.836026546176412 -7.4404971245285285" fill="#ff5b08" stroke="none" /><path d="M 97.2962882734958 120.8252237178851 l -1.6054538321674847 12.365939347702849 a33.46972084524296,33.46972084524296 0 0,0 -0.5706928616971255,-0.07909283046601909 l 1.8180752850514412 -12.336471951744224" fill="#ff9e0e" stroke="none" /><path d="M 96.22490169976321 120.6578951692458 l -2.1994628676137715 12.035785490662333 a33.235103975171185,33.235103975171185 0 0,0 -0.5618827735363222,-0.1076861708405053 l 2.406313255721789 -11.99614212147336" fill="#ff9b0e" stroke="none" /><path d="M 95.51606077576429 120.51570834832081 l -1.778196687078346 8.13591861835902 a29.32797425683445,29.32797425683445 0 0,0 -0.49226285641233225,-0.11203742344917976 l 1.917979692883541 -8.104104461332152" fill="#ff6609" stroke="none" /><path d="M 95.16358092515715 120.4354850818985 l -2.202116557800033 9.304677566012304 a30.561712291299592,30.561712291299592 0 0,0 -0.5108851767849415,-0.1255631466791416 l 2.361955019328185 -9.265393161019132" fill="#ff770b" stroke="none" /><path d="M 91.7346041902142 119.30500536409082 l -2.9680728244819066 6.932355463218929 a28.541021718563695,28.541021718563695 0 0,0 -0.4499686769124173,-0.19725304459792775 l 3.0869621760520674 -6.880237865326549" fill="#ff5c08" stroke="none" /><path d="M 91.40352486487194 119.15986991738527 l -0.4618271341581971 1.0293227951805255 a22.128179825436984,22.128179825436984 0 0,0 -0.34618167943189365,-0.15891502988802772 l 0.4794768093575102 -1.0212206949584235" fill="#ff0000" stroke="none" /><path d="M 90.10565033884886 118.52300852407294 l -6.63424918562395 12.419841467563357 a35.08068621681338,35.08068621681338 0 0,0 -0.5301814071052747,-0.28909717583342337 l 6.847053404597865 -12.303803639970168" fill="#ffb310" stroke="none" /><line stroke="#e1ed5e" stroke-width="0.3" x1="58.666819895761336" x2="56.23545636021788" y1="174.27360380694188" y2="178.64263932499728" /><path d="M 58.180547188652646 175.14741091055294 a86.0,86.0 0 0,1 -31.652253787137756,-30.449443065178592" fill="none" id="id104" stroke="none" /><text fill="#e1ed5e" style="font-size:6.75px; font-family:Arial;" text-anchor="middle"><textPath startOffset="22.20632615414155" xlink:href="#id104">August</textPath></text><path d="M 89.1626897886671 117.98757091392108 l -5.721640302512471 9.49667479092432 a32.087109624961435,32.087109624961435 0 0,0 -0.4706427227876352,-0.2891072003421361 l 5.8842622252324155 -9.396779123753808" fill="#ff8c0c" stroke="none" /><path d="M 88.8546689885994 117.79835938074946 l -5.403553259887619 8.629118574775662 a31.181359202482763,31.181359202482763 0 0,0 -0.4524536945670537,-0.28877735497833285 l 5.551288756501595 -8.534826790973524" fill="#ff800b" stroke="none" /><path d="M 87.65650970185807 116.9893568818739 l -7.282565584909559 10.023591605715096 a33.38984060336013,33.38984060336013 0 0,0 -0.4620756911745203,-0.34183254966130167 l 7.454026246502643 -9.896749107314026" fill="#ff9d0e" stroke="none" /><path d="M 86.24171649860922 115.8653595955263 l -32.46438885189116 37.436298149560784 a70.55212369484887,70.55212369484887 0 0,0 -0.9106520307699579,-0.8035445374584196 l 33.1039832355677 -36.87193047033008" fill="#3cffa7" stroke="none" /><path d="M 85.97065885151581 115.62618273729859 l -4.652550532811954 5.1821111234500545 a27.964230191209477,27.964230191209477 0 0,0 -0.35541264937363476,-0.3246610284502316 l 4.7410627316524465 -5.1012573284132445" fill="#ff5407" stroke="none" /><path d="M 85.70375840098266 115.38237550388516 l -8.519484173706926 9.166738247370875 a33.51441971015256,33.51441971015256 0 0,0 -0.41919224233539326,-0.39637242978864073 l 8.676012250433136 -9.018731180836307" fill="#ff9f0e" stroke="none" /><path d="M 85.18274418774928 114.88116024355367 l -9.388211031772085 9.428700869737986 a34.30559680991743,34.30559680991743 0 0,0 -0.414867996330644,-0.4202590899532307 l 9.549119653158263 -9.26570128580409" fill="#ffa90f" stroke="none" /><path d="M 84.67929136418377 114.36230785411682 l -10.171671594505801 9.535373480685255 a34.942246965343564,34.942246965343564 0 0,0 -0.40758232889815066,-0.4423501195313433 l 10.334300331399684 -9.35887210635257" fill="#ffb110" stroke="none" /><path d="M 84.4343377721795 114.09645910891817 l -10.867447563271696 9.841696932120941 a35.66152840068793,35.66152840068793 0 0,0 -0.40813965519618844,-0.458549229271687 l 11.03524606811622 -9.653173533108387" fill="#ffbb11" stroke="none" /><path d="M 84.19399662182784 113.82643327865904 l -5.289154651370464 4.626732143349679 a28.027219026928,28.027219026928 0 0,0 -0.3145154333140908,-0.3658525039093645 l 5.368012594255336 -4.535002540278785" fill="#ff5407" stroke="none" /><path d="M 83.95833913139862 113.55231037782056 l -9.817833215532925 8.294298456028812 a33.852440854783325,33.852440854783325 0 0,0 -0.372222095558902,-0.44836549252286606 l 9.959151310985364 -8.124071706392185" fill="#ffa30f" stroke="none" /><path d="M 83.50135304334701 112.99209946851258 l -6.571782393181454 5.1750456120405435 a29.36477261556044,29.36477261556044 0 0,0 -0.3092994055477866,-0.39981117564996516 l 6.65988861594731 -5.061156442277325" fill="#ff6709" stroke="none" /><path d="M 83.06392112726016 112.41649034213515 l -12.502908639865492 9.166362860140222 a36.503062037564746,36.503062037564746 0 0,0 -0.367151635357167,-0.5099415095216054 l 12.658840067598266 -8.949787745167475" fill="#ffc512" stroke="none" /><path d="M 82.85270091963577 112.12312394758628 l -14.007090765924483 9.90299969135354 a38.1542413009668,38.1542413009668 0 0,0 -0.3745276518903972,-0.5395350161403498 l 14.175479324977015 -9.660423413026178" fill="#ffda14" stroke="none" /><path d="M 82.6465618267979 111.8261652097733 l -5.193486572197512 3.5393003740545663 a27.28481900402698,27.28481900402698 0 0,0 -0.2611506613923672,-0.39038480539454967 l 5.25364033900061 -3.4493786544541933" fill="#ff4a06" stroke="none" /><path d="M 82.44556493220864 111.52570212397912 l -5.325661482551541 3.4966655220742986 a27.370976377290706,27.370976377290706 0 0,0 -0.25519543139501377,-0.39606897667233015 l 5.3850617773236005 -3.40447494548052" fill="#ff4b07" stroke="none" /><path d="M 82.24976979558568 111.22182372390057 l -17.18780355365839 10.866253533558062 a41.33460245135653,41.33460245135653 0 0,0 -0.37503349391671476,-0.6046734054578605 l 17.37230168724306 -10.568783796734937" fill="#fdff18" stroke="none" /><line stroke="#e1ed5e" stroke-width="0.3" x1="26.63291911575756" x2="22.317208475507996" y1="142.92168965132927" y2="145.44649492493687" /><path d="M 25.769776987707644 143.4266507060508 a86.0,86.0 0 0,1 -11.730757126820373,-40.83630448921669" fill="none" id="id105" stroke="none" /><text fill="#e1ed5e" style="font-size:6.75px; font-family:Arial;" text-anchor="middle"><textPath startOffset="21.46611528233685" xlink:href="#id105">September</textPath></text><path d="M 81.87401531095188 110.60418214915194 l -54.3779540671444 31.812546447455823 a84.0,84.0 0 0,0 -0.7193920153904911,-1.2543206165667722 l 54.91749807868727 -30.871805985030743" fill="#4dd2ff" stroke="none" /><path d="M 81.69416730710424 110.29060199501025 l -34.05651882899907 19.14483140342539 a60.0687988581112,60.0687988581112 0 0,0 -0.4989245512745904,-0.9056929829956771 l 34.38101978972517 -18.555767902031892" fill="#30ff2f" stroke="none" /><path d="M 81.02952815118164 109.00673069616217 l -14.560886442681545 6.913163991479749 a37.11866155639976,37.11866155639976 0 0,0 -0.26906678465789274,-0.5795459168482067 l 14.677727844179264 -6.661498007352716" fill="#ffcd13" stroke="none" /><path d="M 80.58989483394504 108.01547362559985 l -22.914741156059073 9.462725822580886 a45.791703092819716,45.791703092819716 0 0,0 -0.2945875893591349,-0.7311422378370007 l 23.074231359675597 -9.06688421690108" fill="#c8ff1d" stroke="none" /><path d="M 80.45479744820244 107.68017299344265 l -10.526450581247937 4.136307170859881 a32.30996016134283,32.30996016134283 0 0,0 -0.19894584166511695,-0.5193848146204229 l 10.596090702506563 -3.9544987894063004" fill="#ff8f0d" stroke="none" /><path d="M 80.20201598880116 107.00284435728193 l -11.353288831464912 4.01582881292577 a33.04259309058438,33.04259309058438 0 0,0 -0.1850529484221262,-0.5378504894797493 l 11.420732610830266 -3.8198056203567243" fill="#ff980e" stroke="none" /><path d="M 80.0844068197444 106.66101706037122 l -6.427017730885937 2.149595764748903 a27.776969740595618,27.776969740595618 0 0,0 -0.147757274443414,-0.454750131052383 l 6.4630672563456 -2.038646733718717" fill="#ff5107" stroke="none" /><path d="M 79.97269907076064 106.31721596034903 l -6.2097276866523075 1.958735777234417 a27.511325808727,27.511325808727 0 0,0 -0.13856960587735467,-0.45285348959093547 l 6.242524065035793 -1.8515553150914337" fill="#ff4d07" stroke="none" /><path d="M 79.76711848015287 105.62410040840567 l -14.720865319921298 4.091934437348489 a36.278998763231186,36.278998763231186 0 0,0 -0.1620667934463415,-0.6031108287408293 l 14.789120189709413 -3.837932675432121" fill="#ffc212" stroke="none" /><path d="M 79.67330655649465 105.27499134158121 l -6.691419315843524 1.7364938892824098 a27.913067588846427,27.913067588846427 0 0,0 -0.11668816750561725,-0.46611122478225764 l 6.720318797644202 -1.62105482510276" fill="#ff5307" stroke="none" /><path d="M 79.58551787078972 104.9243191809786 l -5.724674403536093 1.380888517855365 a26.888866624847783,26.888866624847783 0 0,0 -0.10466098765161148,-0.45087679557060767 l 5.74759595711826 -1.282143064936183" fill="#ff4506" stroke="none" /><path d="M 79.35854240842038 103.8639653848113 l -22.567660988866095 4.224539884853241 a43.95966157736443,43.95966157736443 0 0,0 -0.13282842479281162,-0.7449723466427428 l 22.637035855998096 -3.8354487874772847" fill="#ddff1b" stroke="none" /><path d="M 79.23777060512086 103.15116336523772 l -2.2442949354392216 0.3406252694177884 a23.269996769029436,23.269996769029436 0 0,0 -0.056696736548955524,-0.3965368433713634 l 2.249825723004776 -0.3019429540660244" fill="#ff1101" stroke="none" /><path d="M 79.18660465613746 102.79330883721812 l -6.3740344165608915 0.8554417177186922 a27.431181483671274,27.431181483671274 0 0,0 -0.05877913173052442,-0.4685275131958508 l 6.387815057538264 -0.7455964502354326" fill="#ff4c07" stroke="none" /><path d="M 79.1416061653843 102.43462659150553 l -4.742726428749842 0.5535789558497985 a25.774924464148306,25.774924464148306 0 0,0 -0.04764396412773671,-0.4411239359788959 l 4.751552694378631 -0.4718586979861206" fill="#ff3505" stroke="none" /><path d="M 79.07016306316243 101.71520430193888 l -6.390070391928344 0.5236675402203982 a27.411491815987894,27.411491815987894 0 0,0 -0.03449075932965752,-0.4705990080172776 l 6.398137709922336 -0.4135953957063599" fill="#ff4c07" stroke="none" /><path d="M 79.04373962182676 101.35467743843564 l -4.272480111055578 0.27618631894077095 a25.28139757347242,25.28139757347242 0 0,0 -0.024334728553475276,-0.43451292546832543 l 4.276601190496585 -0.20260167713700794" fill="#ff2e04" stroke="none" /><path d="M 79.0235259727143 100.99374915477108 l -10.602432141386236 0.502284510033245 a31.614323202245128,31.614323202245128 0 0,0 -0.02107300458020121,-0.5438006124240125 l 10.609507278817638 -0.3197066505952358" fill="#ff850c" stroke="none" /><path d="M 79.0095281055655 100.63252640178507 l -21.525613584085693 0.6486523492674665 a42.53538460398571,42.53538460398571 0 0,0 -0.015754169291376182,-0.7320343421506759 l 21.53358981606208 -0.27802819132666173" fill="#eeff19" stroke="none" /><line stroke="#e1ed5e" stroke-width="0.3" x1="15.007084014347285" x2="10.007500721073583" y1="101.09737516637583" y2="101.16192664675087" /><path d="M 14.007167355692545 101.11028546245083 a86.0,86.0 0 0,1 10.666146001902534,-42.60595125391555" fill="none" id="id106" stroke="none" /><text fill="#e1ed5e" style="font-size:6.75px; font-family:Arial;" text-anchor="middle"><textPath startOffset="22.20632615414155" xlink:href="#id106">October</textPath></text><path d="M 79.00486145842228 99.54816195383935 l -9.681183214537903 -0.20834951384185318 a30.683424908232034,30.683424908232034 0 0,0 0.015909071692766726,-0.5279446380279874 l 9.67616244838949 0.374964299294835" fill="#ff790b" stroke="none" /><path d="M 79.01574976396665 99.18683210126434 l -29.898184266569626 -1.15859482243067 a50.920624398570205,50.920624398570205 0 0,0 0.041479435712228625,-0.8755653292450056 l 29.873811222623896 1.6730712582986846" fill="#8eff24" stroke="none" /><path d="M 79.08570108090925 98.10471618934814 l -2.6725969869060893 -0.24219457803849012 a23.68354855891425,23.68354855891425 0 0,0 0.04028782993185371,-0.40569294935196587 l 2.668032031292007 0.2881630580948863" fill="#ff1702" stroke="none" /><path d="M 79.12142395522702 97.74499172005258 l -7.979801722382036 -0.861865240125664 a29.026210015983146,29.026210015983146 0 0,0 0.05792753406731169,-0.4962877361398268 l 7.963783835311136 0.9990967145903525" fill="#ff6209" stroke="none" /><path d="M 79.21141760316559 97.0276538004421 l -9.488567221471813 -1.3566729169703318 a30.585064909536612,30.585064909536612 0 0,0 0.07900283429136964,-0.5205299688673268 l 9.46380849374114 1.5198019982297506" fill="#ff770b" stroke="none" /><path d="M 79.26566170972629 96.67025291283419 l -4.427650610763616 -0.711040618600009 a25.48438052492142,25.48438052492142 0 0,0 0.07328353810525172,-0.4325235902404445 l 4.414755211138141 0.7871499971562814" fill="#ff3104" stroke="none" /><path d="M 79.32604984820605 96.31383870115002 l -25.005203612570003 -4.458422950126016 a46.399561864494714,46.399561864494714 0 0,0 0.14696348896745035,-0.7850848345993598 l 24.92475439969269 4.888185862187949" fill="#c1ff1e" stroke="none" /><path d="M 79.46518482838121 95.60439243477599 l -17.625086316428614 -3.772761629590671 a39.02435568821451,39.02435568821451 0 0,0 0.14625884934721164,-0.6556497431452051 l 17.557533080079367 4.075589542285836" fill="#ffe515" stroke="none" /><path d="M 79.54389044137918 95.25157060432595 l -15.875092827677435 -3.6850485780777213 a37.297182434708404,37.297182434708404 0 0,0 0.15055131967389324,-0.6241324154785842 l 15.809308707742726 3.9577662252157024" fill="#ffcf13" stroke="none" /><path d="M 79.71946130924805 94.55025226153421 l -2.6476501824372467 -0.7114715153284186 a23.741576773625663,23.741576773625663 0 0,0 0.10945231996673246,-0.39375822996500903 l 2.635011091904153 0.7569410487123702" fill="#ff1802" stroke="none" /><path d="M 79.91906864156998 93.8553929516997 l -13.14803220257722 -4.023194437608581 a34.74979433601871,34.74979433601871 0 0,0 0.17994521782022688,-0.5704755149551798 l 13.076831500988789 4.248920118990175" fill="#ffaf10" stroke="none" /><path d="M 80.02781315780177 93.51064311812611 l -10.838804349018671 -3.521741016611048 a32.396593328902576,32.396593328902576 0 0,0 0.1768895744603483,-0.5288773127064318 l 10.776577480786552 3.7077914322398025" fill="#ff900d" stroke="none" /><path d="M 80.14247586403 93.16781622104843 l -15.66691036001143 -5.390360353840242 a37.56828491343887,37.56828491343887 0 0,0 0.21565433359877936,-0.6096838414086336 l 15.57180294560284 5.6592418216754865" fill="#ffd313" stroke="none" /><path d="M 80.2630227832202 92.82701384747504 l -9.230487496418839 -3.354625091048751 a30.821171463885474,30.821171463885474 0 0,0 0.18550736428760464,-0.4970675078318816 l 9.171375543629605 3.5130157359099745" fill="#ff7b0b" stroke="none" /><path d="M 80.38941819471856 92.48833698450439 l -9.041906098045429 -3.4634235894001004 a30.68252905213737,30.68252905213737 0 0,0 0.19316324983976013,-0.49157940151934604 l 8.980949298323978 3.61855199581521" fill="#ff790b" stroke="none" /><path d="M 80.65960295795067 91.81776055985345 l -7.567761267865399 -3.201652716069599 a29.217152227001733,29.217152227001733 0 0,0 0.19994172414099176,-0.46149306602095336 l 7.511528833881729 3.3314449266771518" fill="#ff6509" stroke="none" /><path d="M 80.803312248108 91.48605970444005 l -7.513035088458562 -3.332112967002796 a29.218799977203346,29.218799977203346 0 0,0 0.2078676675097835,-0.45800885145434006 l 7.454565103985426 3.460943827299207" fill="#ff6509" stroke="none" /><path d="M 81.10775173730289 90.83032412892265 l -4.6020945115975325 -2.233705296088926 a26.11553645705432,26.11553645705432 0 0,0 0.19977140181789915,-0.4027269558487068 l 4.562963096826221 2.3125918404365944" fill="#ff3a05" stroke="none" /><path d="M 81.26839172434947 90.50648371742162 l -20.10552733513356 -10.189843195366864 a43.54030021472578,43.54030021472578 0 0,0 0.3445708177649565,-0.665601145233388 l 19.92714708420849 10.534417062860587" fill="#e2ff1b" stroke="none" /><path d="M 81.43458229118936 90.18545643968196 l -0.978495148685912 -0.5172780602604063 a22.10681043888673,22.10681043888673 0 0,0 0.18074096687949484,-0.3348855618320987 l 0.9694460825879454 0.5340446054249778" fill="#ff0000" stroke="none" /><path d="M 81.6062741919709 89.86733742301443 l -10.555844261690496 -5.814961538256171 a33.051540389861486,33.051540389861486 0 0,0 0.27880132493231236,-0.4959564475667549 l 10.454185295465752 5.99580149575771" fill="#ff980e" stroke="none" /><line stroke="#e1ed5e" stroke-width="0.3" x1="26.266209847984243" x2="21.928928074336255" y1="57.711370442889674" y2="55.22380399835377" /><path d="M 25.398753493254645 57.213857153982495 a86.0,86.0 0 0,1 29.58750427330803,-30.492523968695096" fill="none" id="id107" stroke="none" /><text fill="#e1ed5e" style="font-size:6.75px; font-family:Arial;" text-anchor="middle"><textPath startOffset="21.46611528233685" xlink:href="#id107">November</textPath></text><path d="M 81.96595687620814 89.24020034530311 l -8.570034683332418 -5.113210365168073 a30.979499722530324,30.979499722530324 0 0,0 0.2771694559457096,-0.4555937087733266 l 8.48074942910049 5.259971847148474" fill="#ff7d0b" stroke="none" /><path d="M 82.34701348167596 88.62581576622439 l -14.715948486562977 -9.481789899243045 a38.50609835321859,38.50609835321859 0 0,0 0.3637971177389245,-0.5540879690019982 l 14.550554733466132 9.73369593222271" fill="#ffdf14" stroke="none" /><path d="M 82.54541684631803 88.32363383020206 l -14.074934019518965 -9.415526110285922 a37.93386841767965,37.93386841767965 0 0,0 0.3677336920181347,-0.5396038170823433 l 13.91077586183209 9.65640795063868" fill="#ffd714" stroke="none" /><path d="M 83.17141714833178 87.43820079747577 l -5.637362921395192 -4.208044234889443 a28.034735033411536,28.034735033411536 0 0,0 0.2919938600594845,-0.3842296927027354 l 5.564093121111598 4.304458703473203" fill="#ff5507" stroke="none" /><path d="M 83.39014120810768 87.1503855733568 l -2.97394296918669 -2.3006830437070676 a24.75998394299446,24.75998394299446 0 0,0 0.26368901778140524,-0.3348582745433731 l 2.933899870811314 2.3515337122034885" fill="#ff2603" stroke="none" /><path d="M 83.6137871275137 86.86637796730984 l -9.068712231443035 -7.268612930751892 a32.622145906579306,32.622145906579306 0 0,0 0.3549623586360624,-0.435141880466084 l 8.94225138073058 7.423638980826058" fill="#ff930d" stroke="none" /><path d="M 83.84228863543731 86.58626213691792 l -4.7659321993324015 -3.956560663367025 a27.19422973512742,27.19422973512742 0 0,0 0.3021011986475276,-0.3575925315754864 l 4.697120387197749 4.038012144571627" fill="#ff4906" stroke="none" /><path d="M 84.07557802195018 86.31012108654704 l -15.682287246841325 -13.481720956099483 a41.68068986350731,41.68068986350731 0 0,0 0.4723973009144401,-0.5400317770757149 l 15.447898082349042 13.74966828937814" fill="#f8ff18" stroke="none" /><path d="M 84.5562425177563 85.77008943001954 l -9.789826803639931 -9.02036697167527 a34.311939345901365,34.311939345901365 0 0,0 0.4039539358511618,-0.4309098938923591 l 9.63310554581831 9.187546282445679" fill="#ffa90f" stroke="none" /><path d="M 85.05521093208273 85.24692304244772 l -8.31105452567293 -8.204440120127675 a32.678461585905445,32.678461585905445 0 0,0 0.39862152209126595,-0.39690971459390356 l 8.168597203414349 8.346285685371692" fill="#ff940d" stroke="none" /><path d="M 85.57189188830299 84.74124197986013 l -10.46211059771233 -11.06443150789898 a36.227521228084115,36.227521228084115 0 0,0 0.45679819099291263,-0.4245441348626081 l 10.270104522924562 11.242880228836238" fill="#ffc212" stroke="none" /><path d="M 85.83668400450813 84.49514656593479 l -2.536491496377433 -2.7767458482605907 a24.760865142095295,24.760865142095295 0 0,0 0.31716193623055006,-0.28475111788315366 l 2.488318572550912 2.8199959749130232" fill="#ff2603" stroke="none" /><path d="M 86.37877921826538 84.01681056812374 l -4.256833132832895 -4.994983300850002 a27.562810868564956,27.562810868564956 0 0,0 0.3637535853544902,-0.3046331667412941 l 4.170222010519295 5.067517624985109" fill="#ff4e07" stroke="none" /><path d="M 86.65592168130627 83.78471172551755 l -5.3928733699022215 -6.553243636035886 a29.486936157238688,29.486936157238688 0 0,0 0.3946989305021592,-0.3191524189953344 l 5.279271040835561 6.645102152295357" fill="#ff6909" stroke="none" /><path d="M 86.93701828274178 83.55741782278169 l -5.47065388968377 -6.8859987781659555 a29.79460250117168,29.79460250117168 0 0,0 0.4043091307047371,-0.3155696895602143 l 5.351312203819607 6.979146856949389" fill="#ff6d0a" stroke="none" /><path d="M 87.80319425747018 82.90503203632743 l -12.71281632547925 -17.81820522518582 a42.888447555096526,42.888447555096526 0 0,0 0.6046635139363514,-0.42360543301194037 l 12.404221671959238 18.034395500961704" fill="#eaff1a" stroke="none" /><path d="M 88.09926311788651 82.69761687909137 l -9.230205123152292 -13.419719039867735 a37.28758870196738,37.28758870196738 0 0,0 0.5319612634290086,-0.3591826196911842 l 8.997839165316744 13.576613571857584" fill="#ffcf13" stroke="none" /><path d="M 88.39885842347998 82.49532879139004 l -10.231963616495047 -15.43875296614835 a39.52155966972093,39.52155966972093 0 0,0 0.5703017034456809,-0.37094009189500604 l 9.964694887265079 15.612591982202892" fill="#ffeb16" stroke="none" /><path d="M 89.00827224532344 82.1063720568725 l -3.173328528942254 -5.165917616004098 a27.062731955805095,27.062731955805095 0 0,0 0.39903087644291196,-0.2404116382699054 l 3.0839355862816955 5.219775863732623" fill="#ff4706" stroke="none" /><line stroke="#e1ed5e" stroke-width="0.3" x1="56.76296977257108" x2="54.21961505331056" y1="26.818313649435495" y2="22.513508569990535" /><path d="M 56.25429882871898 25.957352633546506 a86.0,86.0 0 0,1 42.26535254187918,-11.944610805530505" fill="none" id="id108" stroke="none" /><text fill="#e1ed5e" style="font-size:6.75px; font-family:Arial;" text-anchor="middle"><textPath startOffset="22.20632615414155" xlink:href="#id108">December</textPath></text><path d="M 89.63071344664047 81.73862282372117 l -26.510898031076522 -46.68841059952242 a74.6901797233324,74.6901797233324 0 0,0 1.1234680265466788,-0.6252087404202071 l 25.703305915457797 47.13783473750281" fill="#41ffd2" stroke="none" /><path d="M 90.26544431104013 81.39251694778311 l -4.522691533799165 -8.645069046244753 a30.756636588714258,30.756636588714258 0 0,0 0.47122025045059596,-0.2413773145746191 l 4.373210795759805 8.721638886131878" fill="#ff7a0b" stroke="none" /><path d="M 90.58718382345135 81.22770947309562 l -4.350983080182069 -8.677309418016455 a30.707046538470273,30.707046538470273 0 0,0 0.4745389955705544,-0.23285422422623964 l 4.200972817601089 8.750918802377525" fill="#ff790b" stroke="none" /><path d="M 90.91171255644093 81.06846463323043 l -2.644067729898694 -5.50777713090341 a27.10955833788288,27.10955833788288 0 0,0 0.42242086524760236,-0.19833226027916015 l 2.5488686533514833 5.5524743738225775" fill="#ff4806" stroke="none" /><path d="M 91.23893434514133 80.91482961587045 l -4.102335225172381 -8.936557472527506 a30.833169059844202,30.833169059844202 0 0,0 0.4842538333463625,-0.21727057936208247 l 3.9478992733592437 9.005848382406116" fill="#ff7b0b" stroke="none" /><path d="M 91.90106846888425 80.62456947434976 l -5.824007488145781 -13.933029564936877 a36.10127067764111,36.10127067764111 0 0,0 0.5754132201982142,-0.23472550028437786 l 5.5833103983591865 14.031215951404832" fill="#ffc011" stroke="none" /><path d="M 92.57280143429618 80.3572730644239 l -3.635551567294185 -9.614950517994975 a31.27932432905719,31.27932432905719 0 0,0 0.5052618881099191,-0.18609221747136206 l 3.4695073534116974 9.67610600327266" fill="#ff810b" stroke="none" /><path d="M 92.91201910852362 80.23233633223022 l -5.499537121269299 -15.33765423555228 a37.293819257545906,37.293819257545906 0 0,0 0.6061453166576964,-0.21147219900658945 l 5.234709800548317 15.430047287731078" fill="#ffcf13" stroke="none" /><path d="M 93.59665428221793 80.00007090966166 l -1.9210486389724666 -6.000119039621074 a27.3001473286679,27.3001473286679 0 0,0 0.44878143738134685,-0.13943857715048133 l 1.817481828880391 6.03229775165408" fill="#ff4a06" stroke="none" /><path d="M 94.63758080256005 79.69619591428918 l -8.532985229243556 -32.30856335206635 a54.41638973313804,54.41638973313804 0 0,0 0.9076941730176721,-0.2313914553560315 l 7.9755821675408844 32.45065780359124" fill="#69ff28" stroke="none" /><path d="M 95.33964822691252 79.52364482259891 l -0.9654914255643077 -4.242114396762074 a25.350598608014103,25.350598608014103 0 0,0 0.42632134978494307,-0.09317733465373149 l 0.8923273516258436 4.258105229511673" fill="#ff2f04" stroke="none" /><path d="M 95.692805502759 79.44645832069477 l -2.02010458425057 -9.639755946833995 a30.84914804670087,30.84914804670087 0 0,0 0.5206654431939078,-0.1044405897385179 l 1.8538727315895256 9.673100492649723" fill="#ff7b0b" stroke="none" /><path d="M 96.04723909329186 79.375362276772 l -1.8337967102711346 -9.568348225465304 a30.74248931938682,30.74248931938682 0 0,0 0.5205799614960069,-0.09513266050002314 l 1.6688216276722343 9.598496367316063" fill="#ff7a0b" stroke="none" /><path d="M 97.11714578562143 79.19881850522333 l -3.6877180321218366 -26.60866154976986 a47.862988176199565,47.862988176199565 0 0,0 0.8170560147985759,-0.10607732038549648 l 3.229147288815403 26.668197193319493" fill="#b0ff20" stroke="none" /><path d="M 98.19473922651362 79.07773832637324 l -0.6714907505596612 -7.782313447988548 a28.811229252225964,28.811229252225964 0 0,0 0.4944690323349113,-0.03838031354091095 l 0.5374315288624157 7.792719023717921" fill="#ff5f08" stroke="none" /><path d="M 98.55514903715128 79.0497635885617 l -0.5854578032938099 -8.489096594256091 a29.50926094476177,29.50926094476177 0 0,0 0.5070505361697509,-0.03058667303670829 l 0.4392452182844361 8.497916536673106" fill="#ff6909" stroke="none" /><path d="M 99.27714615592234 79.0124445844662 l -1.347300689320962 -39.11793249794575 a60.14112750115005,60.14112750115005 0 0,0 1.0349238861078283,-0.026729030655289726 l 0.6737501680182548 39.1353283207434" fill="#30ff2f" stroke="none" /><path d="M 99.63851952072746 79.00311137660856 l -0.44773952947715545 -26.00731594591437 a47.011169781400994,47.011169781400994 0 0,0 0.8092200087496848,-0.006965212095182886 l 6.3708991629742174e-15 26.011169781400994" fill="#baff1f" stroke="none" /></svg>