<?xml version="1.0" encoding="utf-8" ?>
<svg baseProfile="full" height="200mm" version="1.1" viewBox="0,0,200,200" width="200mm" xmlns="http://www.w3.org/2000/svg" xmlns:ev="http://www.w3.org/2001/xml-events" xmlns:xlink="http://www.w3.org/1999/xlink"><defs /><rect fill="#1a1a1a" height="200" width="200" x="0" y="0" /><text alignment-baseline="middle" fill="#e1ed5e" style="dominant-baseline: central; font-size:9.0px; font-family:Arial;" text-anchor="middle" x="100.0" y="100.0">2019</text><line stroke="#e1ed5e" stroke-width="0.3" x1="100.0" x2="100.0" y1="15.0" y2="10.0" /><path d="M 100.0 14.0 a86.0,86.0 0 0,1 42.46469731375804,11.215312516191453" fill="none" id="id49" stroke="none" /><text fill="#e1ed5e" style="font-size:6.75px; font-family:Arial;" text-anchor="middle"><textPath startOffset="22.20632615414155" xlink:href="#id49">January</textPath></text><line stroke="#e1ed5e" stroke-width="0.3" x1="143.23703022742887" x2="145.7803849466894" y1="26.81831364943548" y2="22.513508569990506" /><path d="M 143.74570117128098 25.957352633546492 a86.0,86.0 0 0,1 28.547481713284135,27.462654790039103" fill="none" id="id50" stroke="none" /><text fill="#e1ed5e" style="font-size:6.75px; font-family:Arial;" text-anchor="middle"><textPath startOffset="19.985693538727396" xlink:href="#id50">February</textPath></text><line stroke="#e1ed5e" stroke-width="0.3" x1="172.23445277983987" x2="176.4835382374775" y1="55.19839476539836" y2="52.563006222186495" /><path d="M 173.08426987136738 54.67131705675599 a86.0,86.0 0 0,1 12.851231095245387,41.99856678651699" fill="none" id="id51" stroke="none" /><text fill="#e1ed5e" style="font-size:6.75px; font-family:Arial;" text-anchor="middle"><textPath startOffset="22.20632615414155" xlink:href="#id51">March</textPath></text><path d="M 119.196687751892 91.48605970444005 l 25.278736572874674 -11.211395252674803 a48.653388693476444,48.653388693476444 0 0,0 0.3329497120422687,0.7684938403993641 l -25.467976994759624 10.774602267688836" fill="#bbff1f" stroke="none" /><path d="M 120.18372546131832 94.20196356495316 l 9.834354393706608 -2.825045614059281 a31.23207745585089,31.23207745585089 0 0,0 0.14398468002011483,0.5179895023150783 l -9.881525844293087 2.6553448083252507" fill="#ff5c08" stroke="none" /><path d="M 120.28053869075195 94.5502522615342 l 8.073630704088135 -2.1695306688710523 a29.36004641549117,29.36004641549117 0 0,0 0.12695237671356044,0.48919929461104866 l -8.109779412671998 2.0302349487111533" fill="#ff4106" stroke="none" /><path d="M 120.37134235888165 94.90015583598534 l 8.036277996103529 -2.0118343070779283 a29.284276752366104,29.284276752366104 0 0,0 0.11820695888977426,0.49004415861688444 l -8.069717755254123 1.8732049168016378" fill="#ff4006" stroke="none" /><path d="M 120.45610955862082 95.25157060432595 l 6.316146192118913 -1.466152405963857 a27.484080937012727,27.484080937012727 0 0,0 0.10300721132539048,0.4617611306873226 l -6.3404477904463405 1.3572131057265706" fill="#ff2503" stroke="none" /><path d="M 120.67395015179393 96.31383870115 l 11.510850416918492 -2.052382394857153 a32.692388584690136,32.692388584690136 0 0,0 0.09401107090890229,0.554858662165935 l -11.544473349347617 1.8539379443753803" fill="#ff710a" stroke="none" /><path d="M 120.73433829027371 96.67025291283417 l 7.220966201537104 -1.1596218234449225 a28.313485875911084,28.313485875911084 0 0,0 0.07313522595037135,0.48186976111070795 l -7.239857320926775 1.0351529499421324" fill="#ff3104" stroke="none" /><path d="M 120.83666639777658 97.38593545837742 l 20.156895059250523 -2.5287838101212126 a41.314900097907675,41.314900097907675 0 0,0 0.08245204184739527,0.7063987419350908 l -20.197437454101504 2.1814413298612694" fill="#ffe715" stroke="none" /><path d="M 120.91429891909075 98.10471618934814 l 6.329450377569893 -0.5735838852328153 a27.355386735322913,27.355386735322913 0 0,0 0.03846104350846454,0.46932214905409786 l -6.338385904897852 0.46454781897094877" fill="#ff2303" stroke="none" /><path d="M 120.98425023603335 99.18683210126433 l 12.689572893576921 -0.4917380039628039 a33.699097073648325,33.699097073648325 0 0,0 0.017472669786036205,0.5798328465491426 l -12.696157257818601 0.27323500998866224" fill="#ff7f0b" stroke="none" /><line stroke="#e1ed5e" stroke-width="0.3" x1="184.98032266829074" x2="189.97916517819016" y1="98.17113171792111" y2="98.06355123074" /><path d="M 185.9800911702706 98.14961562048488 a86.0,86.0 0 0,1 -9.607161424134198,41.387399972396054" fill="none" id="id52" stroke="none" /><text fill="#e1ed5e" style="font-size:6.75px; font-family:Arial;" text-anchor="middle"><textPath startOffset="21.466115282336823" xlink:href="#id52">April</textPath></text><path d="M 120.99824983174949 100.27111621757518 l 12.695246764628083 0.1639130552111737 a33.69630489175762,33.69630489175762 0 0,0 -0.012480368914046067,0.5799137027677417 l -12.69054433302903 -0.38241657376903027" fill="#ff7f0b" stroke="none" /><path d="M 120.9764740272857 100.99374915477107 l 9.544269059628219 0.4521546041806552 a30.55497334735468,30.55497334735468 0 0,0 -0.029410833804015324,0.5251501946513147 l -9.535071874936675 -0.6163765151673932" fill="#ff5207" stroke="none" /><path d="M 120.95626037817324 101.35467743843564 l 10.439754326987847 0.6748579848870012 a31.461544040323457,31.461544040323457 0 0,0 -0.03958677444184969,0.5401300854203117 l -10.42659099388166 -0.8544612068040832" fill="#ff5f08" stroke="none" /><path d="M 120.92983693683757 101.71520430193887 l 6.330357964390836 0.5187740949011301 a27.35157921456286,27.35157921456286 0 0,0 -0.04249315782546038,0.46890845570622386 l -6.3204902102883 -0.6276639391559244" fill="#ff2303" stroke="none" /><path d="M 120.81339534386255 102.79330883721812 l 17.62513267094949 2.3654208279584026 a38.783152627189324,38.783152627189324 0 0,0 -0.09449413374943488,0.6608917513578373 l -17.581804486183454 -2.6684580512966494" fill="#ffc512" stroke="none" /><path d="M 120.70491114924044 103.5080841355445 l 7.515168732941296 1.2733135640110476 a28.622275809551436,28.622275809551436 0 0,0 -0.08648501087928648,0.4850538700934071 l -7.4921372797228205 -1.402486184837673" fill="#ff3605" stroke="none" /><path d="M 120.5718875245553 104.21870165774334 l 7.729346337083761 1.585066327365726 a28.890198353700548,28.890198353700548 0 0,0 -0.10409545856544113,0.48629932725518515 l -7.700916839793877 -1.71787947403708" fill="#ff3a05" stroke="none" /><path d="M 120.41448212921028 104.9243191809786 l 6.178557228043856 1.4903727499066033 a27.355767487398918,27.355767487398918 0 0,0 -0.11435842257945983,0.45680505189279275 l -6.1519874911693355 -1.596505641196792" fill="#ff2303" stroke="none" /><path d="M 120.32669344350535 105.2749913415812 l 6.151250402528675 1.5963143589202 a27.355005983246908,27.355005983246908 0 0,0 -0.12220122537955172,0.454756219608982 l -6.122861100807347 -1.7019615117047304" fill="#ff2303" stroke="none" /><path d="M 120.02730092923936 106.31721596034902 l 6.069484262831995 1.9144987630495314 a27.364270950429706,27.364270950429706 0 0,0 -0.14556195764066696,0.4479936406696855 l -6.035630054175082 -2.018691303697012" fill="#ff2303" stroke="none" /><path d="M 119.79798401119884 107.00284435728193 l 7.706235632599998 2.7258113091268217 a29.17411248504188,29.17411248504188 0 0,0 -0.1715378618384375,0.47199852319923397 l -7.658173509756333 -2.858057629332187" fill="#ff3e05" stroke="none" /><path d="M 119.54520255179757 107.68017299344265 l 5.436113557395196 2.1360890183741925 a26.840736845922326,26.840736845922326 0 0,0 -0.17267206568044705,0.4285579062858306 l -5.398538877457357 -2.2293462925028367" fill="#ff1b02" stroke="none" /><path d="M 119.41010516605496 108.01547362559984 l 5.890296264991064 2.4324192968090483 a27.37277441346049,27.37277441346049 0 0,0 -0.1835918294371515,0.4339568526397351 l -5.847553454361603 -2.5334506751149473" fill="#ff2303" stroke="none" /><path d="M 119.12269723197855 108.67885076344098 l 13.869855420017748 6.29484448980017 a36.23147913116002,36.23147913116002 0 0,0 -0.2626357520571661,0.5656940447577714 l -13.75944505112075 -6.532658601836772" fill="#ffa30f" stroke="none" /><path d="M 118.64920377521936 109.65438752849418 l 7.9038937275086285 4.091716405115272 a29.900206693984117,29.900206693984117 0 0,0 -0.24055071069075612,0.45503129072468473 l -7.832290508592979 -4.227162710926091" fill="#ff4906" stroke="none" /><line stroke="#e1ed5e" stroke-width="0.3" x1="174.80103733775053" x2="179.2010983576182" y1="140.37084112569926" y2="142.7455964860345" /><path d="M 175.68104954172406 140.8457921977663 a86.0,86.0 0 0,1 -30.038265399797805,32.042727171017184" fill="none" id="id53" stroke="none" /><text fill="#e1ed5e" style="font-size:6.75px; font-family:Arial;" text-anchor="middle"><textPath startOffset="22.206326154141568" xlink:href="#id53">May</textPath></text><path d="M 118.12598468904814 110.60418214915192 l 7.7778880523770875 4.550270953994191 a30.011132465460346,30.011132465460346 0 0,0 -0.2646969368836699,0.4436472915563939 l -7.698410239795191 -4.683480339436689" fill="#ff4a06" stroke="none" /><path d="M 117.94076556474637 110.91462005526583 l 34.211301392396884 20.813122770409354 a61.044965007071106,61.044965007071106 0 0,0 -0.5538678287656614,0.8930112953262259 l -33.84796892396326 -21.398930397100855" fill="#32ff2f" stroke="none" /><path d="M 116.93607887273984 112.41649034213515 l 5.21167596163043 3.8208799528018202 a27.46225115132175,27.46225115132175 0 0,0 -0.2827810667934793,0.37883145039135224 l -5.145133628141859 -3.9100242827024876" fill="#ff2503" stroke="none" /><path d="M 116.498646956653 112.99209946851258 l 6.306223955509798 4.965927758558515 a29.026761431627804,29.026761431627804 0 0,0 -0.31249670622609765,0.38988768958221637 l -6.219809337228846 -5.073743281718982" fill="#ff3c05" stroke="none" /><path d="M 116.0416608686014 113.55231037782055 l 4.850250872915779 4.097587262220972 a27.349421619465495,27.349421619465495 0 0,0 -0.3069093363587584,0.3570048947896335 l -4.7789990269862415 -4.180469256172134" fill="#ff2303" stroke="none" /><path d="M 115.56566222782051 114.09645910891815 l 4.71555030660654 4.270461551858624 a27.361859520615006,27.361859520615006 0 0,0 -0.3191612273090999,0.34638647713607856 l -4.641342671301718 -4.350999283796037" fill="#ff2303" stroke="none" /><path d="M 115.32070863581623 114.36230785411682 l 5.333664403602776 5.00001220413564 a28.310820611379047,28.310820611379047 0 0,0 -0.33635067941068814,0.3526623426498111 l -5.246807172813123 -5.091081663367958" fill="#ff3104" stroke="none" /><path d="M 115.07121518719521 114.62390073753431 l 4.55892828162543 4.423619053403984 a27.35234071871487,27.35234071871487 0 0,0 -0.330780159628231,0.33507855532234 l -4.482107496941664 -4.501438102706988" fill="#ff2303" stroke="none" /><path d="M 114.29624159901734 115.38237550388516 l 4.328911149351311 4.657793194181467 a27.35881350400696,27.35881350400696 0 0,0 -0.3477180785843573,0.31763222047074147 l -4.248093521300089 -4.731618181238791" fill="#ff2303" stroke="none" /><path d="M 112.92097659922987 116.55440617244103 l 4.808331901711454 6.160453793994296 a28.814809442651484,28.814809442651484 0 0,0 -0.3936257630014816,0.30181545000592824 l -4.701577410216478 -6.242308585827595" fill="#ff3905" stroke="none" /><path d="M 111.1453310114006 117.79835938074945 l 13.475677989379921 21.51976998340388 a46.39083294049388,46.39083294049388 0 0,0 -0.6804448322922634,0.4179847917037822 l -13.10325395715535 -21.74854324193604" fill="#d7ff1c" stroke="none" /><line stroke="#e1ed5e" stroke-width="0.3" x1="143.8653032363475" x2="146.44561519142675" y1="172.8068346515853" y2="177.08958963109032" /><path d="M 144.38136562736335 173.6633856474863 a86.0,86.0 0 0,1 -40.68145358897372,12.25698825130547" fill="none" id="id54" stroke="none" /><text fill="#e1ed5e" style="font-size:6.75px; font-family:Arial;" text-anchor="middle"><textPath startOffset="21.466115282336833" xlink:href="#id54">June</textPath></text><path d="M 108.92500713936063 119.00905698771935 l 1.8786195540344723 4.001205332754888 a25.42027776770497,25.42027776770497 0 0,0 -0.3976845144368106,0.1825574553842468 l -1.8094670438302423 -4.032949858473209" fill="#ff0600" stroke="none" /><path d="M 105.53697534728816 120.25689768951611 l 2.059391279251191 7.534235901358083 a28.810621169815427,28.810621169815427 0 0,0 -0.479504164161328,0.12664140790053624 l -1.9293966722783653 -7.568568658562204" fill="#ff3905" stroke="none" /><path d="M 104.48393922423573 120.51570834832081 l 2.710953742701463 12.403632955246334 a33.69643180911629,33.69643180911629 0 0,0 -0.5677183473060978,0.1189708995000909 l -2.497043933965987 -12.448459835472967" fill="#ff7f0b" stroke="none" /><path d="M 103.7750983002368 120.6578951692458 l 1.2142637381205554 6.644630421501198 a27.754668745693877,27.754668745693877 0 0,0 -0.47070732477292493,0.08183850197199845 l -1.0997074418755806 -6.664547501994202" fill="#ff2904" stroke="none" /><line stroke="#e1ed5e" stroke-width="0.3" x1="102.19456741930631" x2="102.32365962044197" y1="184.97166512339345" y2="189.96999836594603" /><path d="M 102.22038585953345 185.97133177190398 a86.0,86.0 0 0,1 -42.740103519485714,-10.115201625700543" fill="none" id="id55" stroke="none" /><text fill="#e1ed5e" style="font-size:6.75px; font-family:Arial;" text-anchor="middle"><textPath startOffset="22.20632615414155" xlink:href="#id55">July</textPath></text><path d="M 100.54218724476979 120.99299961872073 l 0.46522157286232985 18.01295843074698 a39.01896507959531,39.01896507959531 0 0,0 -0.6715727065921947,0.01156173317864084 l -0.15508917637746714 -18.018297641204782" fill="#ffc912" stroke="none" /><path d="M 100.18074693466247 120.99922214144158 l 0.07864898165033654 9.137457517372633 a30.137795989411465,30.137795989411465 0 0,0 -0.5187918326255777,0.0 l 0.07864898165033025 -9.137457517372633" fill="#ff4c07" stroke="none" /><path d="M 99.81925306533755 120.99922214144158 l -0.06584195005405713 7.649533520404983 a28.64981687638249,28.64981687638249 0 0,0 -0.4931046998246649,-0.008489244593390718 l 0.19750633977138995 -7.647266798532433" fill="#ff3605" stroke="none" /><path d="M 99.45781275523022 120.99299961872073 l -0.43907264311855243 17.00049552713533 a38.00616455742104,38.00616455742104 0 0,0 -0.653850179309558,-0.02251992222090667 l 0.7316431741027535 -16.99041880648833" fill="#ffbb11" stroke="none" /><path d="M 98.37488393609728 120.93702456842531 l -1.7736789096473151 22.851019525708566 a43.91975196721906,43.91975196721906 0 0,0 -0.7532356302083831,-0.0649923396246179 l 2.1667588575972396 -22.817102933805284" fill="#f6ff19" stroke="none" /><path d="M 97.2962882734958 120.8252237178851 l -1.9831337103108557 15.275002425314604 a36.40319831743844,36.40319831743844 0 0,0 -0.6207116431823982,-0.08602497780770268 l 2.245773944680085 -15.238602882014295" fill="#ffa50f" stroke="none" /><path d="M 96.93821686468263 120.77559828337769 l -2.254822620225952 15.300002282242577 a36.465260905827314,36.465260905827314 0 0,0 -0.6201944485580911,-0.09686161792173613 l 2.5178529323925605 -15.258922356973736" fill="#ffa60f" stroke="none" /><path d="M 96.58105272829116 120.7198165907248 l -1.2983825335430312 7.8685764422936 a28.974979149291077,28.974979149291077 0 0,0 -0.4914032678855202,-0.08543675696420526 l 1.4336347729006014 -7.845061106808389" fill="#ff3b05" stroke="none" /><path d="M 96.22490169976321 120.6578951692458 l -4.192850109578734 22.9438947374179 a44.323856837219424,44.323856837219424 0 0,0 -0.7493526011571761,-0.14361520948599124 l 4.587170325307605 -22.868322329583442" fill="#f1ff19" stroke="none" /><path d="M 95.86986931433489 120.58985236759428 l -1.2495828181399995 6.229518556370266 a27.353609892301556,27.353609892301556 0 0,0 -0.4608543209821849,-0.09657650376445144 l 1.3566286005515713 -6.2070860718792735" fill="#ff2303" stroke="none" /><path d="M 95.16358092515715 120.4354850818985 l -5.962701241091565 25.19440320917675 a46.89037966421293,46.89037966421293 0 0,0 -0.783843512298367,-0.19264966450503287 l 6.395498038133143 -25.088032286357684" fill="#d1ff1d" stroke="none" /><path d="M 94.46302465271185 120.25689768951611 l -3.6322534184326165 13.288516069630166 a34.77599086195017,34.77599086195017 0 0,0 -0.5760706342452965,-0.162803315451756 l 3.860455220782527 -13.22402396083989" fill="#ff8f0d" stroke="none" /><path d="M 93.08242187328487 119.8279376855182 l -8.142960479726815 23.34026591533856 a45.71994778257243,45.71994778257243 0 0,0 -0.7408382818780811,-0.2656382501179234 l 8.543518322234624 -23.19664012418068" fill="#dfff1b" stroke="none" /><path d="M 92.40401165467489 119.57807347666478 l -4.606246042021047 11.872243526780256 a33.73450701671683,33.73450701671683 0 0,0 -0.5395576150968209,-0.2147011102471378 l 4.8099247331597255 -11.791195572127052" fill="#ff800b" stroke="none" /><line stroke="#e1ed5e" stroke-width="0.3" x1="58.666819895761336" x2="56.23545636021788" y1="174.27360380694188" y2="178.64263932499728" /><path d="M 58.180547188652646 175.14741091055294 a86.0,86.0 0 0,1 -31.652253787137756,-30.449443065178592" fill="none" id="id56" stroke="none" /><text fill="#e1ed5e" style="font-size:6.75px; font-family:Arial;" text-anchor="middle"><textPath startOffset="22.20632615414155" xlink:href="#id56">August</textPath></text><path d="M 87.95078237400918 117.19931262002967 l -12.675702373161764 18.093570434332147 a43.09187003662472,43.09187003662472 0 0,0 -0.6038457020793352,-0.43082787533583394 l 12.985275403089986 -17.872698297152095" fill="#fffe18" stroke="none" /><path d="M 87.07902340077011 116.55440617244103 l -7.91054701080603 10.135024025264272 a33.856728433114554,33.856728433114554 0 0,0 -0.45632825257601217,-0.362534762254556 l 8.083832756099401 -9.997355349004584" fill="#ff820b" stroke="none" /><path d="M 86.51685102203217 116.09983520530335 l -9.275032936996272 11.075046493471808 a35.44586068100229,35.44586068100229 0 0,0 -0.4643990469420768,-0.39577094272620567 l 9.464297460515406 -10.91375116052265" fill="#ff980e" stroke="none" /><path d="M 85.97065885151581 115.62618273729859 l -2.713329623071416 3.0221650516510863 a25.061482394749248,25.061482394749248 0 0,0 -0.31852004486605073,-0.29096050894776415 l 2.7649492174043218 -2.9750117761167463" fill="#ff0000" stroke="none" /><path d="M 85.70375840098266 115.38237550388516 l -10.403660362727862 11.194061684391656 a36.28211915726874,36.28211915726874 0 0,0 -0.453810121665569,-0.4291057954344035 l 10.594806318784247 -11.013321252211322" fill="#ffa30f" stroke="none" /><path d="M 82.6465618267979 111.8261652097733 l -9.362101340302052 6.380162596944452 a32.32940493889836,32.32940493889836 0 0,0 -0.3094338093636936,-0.4625615604681417 l 9.470538255076477 -6.21806412227049" fill="#ff6c09" stroke="none" /><path d="M 82.24976979558568 111.22182372390057 l -10.73443621462517 6.786388096872165 a33.69973166044167,33.69973166044167 0 0,0 -0.30576145309597375,-0.4929848189568494 l 10.8496623073891 -6.600606946550051" fill="#ff7f0b" stroke="none" /><line stroke="#e1ed5e" stroke-width="0.3" x1="26.63291911575756" x2="22.317208475507996" y1="142.92168965132927" y2="145.44649492493687" /><path d="M 25.769776987707644 143.4266507060508 a86.0,86.0 0 0,1 -11.730757126820373,-40.83630448921669" fill="none" id="id57" stroke="none" /><text fill="#e1ed5e" style="font-size:6.75px; font-family:Arial;" text-anchor="middle"><textPath startOffset="21.46611528233685" xlink:href="#id57">September</textPath></text><path d="M 81.87401531095188 110.60418214915194 l -26.187929976915555 15.32063412545187 a51.340229176487654,51.340229176487654 0 0,0 -0.43968751116527555,-0.7666322370872783 l 26.44776948423321 -14.867582042506283" fill="#9cff22" stroke="none" /><path d="M 81.69416730710424 110.29060199501025 l -11.196117312061729 6.293883981174179 a33.84390977988904,33.84390977988904 0 0,0 -0.2811036315241514,-0.5102847432855776 l 11.302797353037397 -6.100228719490779" fill="#ff820b" stroke="none" /><path d="M 81.51974371655577 109.97397251340807 l -18.8225825306113 10.158729289910202 a42.389001704318815,42.389001704318815 0 0,0 -0.34102454841884255,-0.6450899271518524 l 18.99465958725503 -9.833224347672223" fill="#fff517" stroke="none" /><path d="M 81.35079622478065 109.6543875284942 l -14.912758220637054 7.720090826187256 a37.79256264278203,37.79256264278203 0 0,0 -0.29410051710806107,-0.5802882215775005 l 15.04343740753138 -7.46224839290707" fill="#ffb811" stroke="none" /><path d="M 81.02952815118164 109.00673069616217 l -11.555383992861541 5.486222617121128 a33.79161982811763,33.79161982811763 0 0,0 -0.24494963218752935,-0.5275997159896505 l 11.648108241888899 -5.2865028338526505" fill="#ff810b" stroke="none" /><path d="M 80.58989483394504 108.01547362559985 l -18.841510686719097 7.780670464370787 a41.38483156253399,41.38483156253399 0 0,0 -0.2662372644522232,-0.6607790564112699 l 18.972650565428708 -7.455192040116712" fill="#ffe815" stroke="none" /><path d="M 80.45479744820244 107.68017299344265 l -11.901686690033745 4.6766981539828745 a33.78755847264024,33.78755847264024 0 0,0 -0.20804402805148486,-0.5431373083147624 l 11.980424997678739 -4.471137278834955" fill="#ff810b" stroke="none" /><path d="M 79.97269907076064 106.31721596034903 l -15.515947505283345 4.894198752324654 a37.26953620770932,37.26953620770932 0 0,0 -0.1877199586613833,-0.6134796863095215 l 15.597894236450859 -4.626392093463084" fill="#ffb110" stroke="none" /><path d="M 79.67330655649465 105.27499134158121 l -16.416192508585777 4.26017510350109 a37.95996663886572,37.95996663886572 0 0,0 -0.1586883609823546,-0.6338811198882842 l 16.48709218386319 -3.9769661442154134" fill="#ffba11" stroke="none" /><path d="M 79.50377843672027 104.57218783832718 l -8.250663798599133 1.8405140948351884 a29.453457591471153,29.453457591471153 0 0,0 -0.10612496102607537,-0.4957804870951016 l 8.28112279834965 -1.698219788323923" fill="#ff4206" stroke="none" /><path d="M 79.4281124754447 104.21870165774334 l -25.320671196941632 5.192540423245431 a46.84760851434166,46.84760851434166 0 0,0 -0.15519958401297562,-0.7913593352455764 l 25.406300713930275 -4.7559173609319" fill="#d1ff1c" stroke="none" /><path d="M 79.29508885075956 103.50808413554451 l -55.65068976859065 9.429033551610482 a77.44383000326357,77.44383000326357 0 0,0 -0.21137830815854772,-1.3162529266796497 l 55.80474983111049 -8.46970139523762" fill="#44ffeb" stroke="none" /><path d="M 79.23777060512086 103.15116336523772 l -10.077326774139948 1.5294746217393813 a31.192733074663668,31.192733074663668 0 0,0 -0.07600027567386124,-0.531545751051196 l 10.102161100830408 -1.3557833987077847" fill="#ff5c08" stroke="none" /><path d="M 79.10278846688536 102.07522291339032 l -13.19478898431152 1.3103245088083857 a34.2596910468869,34.2596910468869 0 0,0 -0.0532255358013025,-0.5873393523550162 l 13.215389116389899 -1.0830037679048032" fill="#ff870c" stroke="none" /><path d="M 79.07016306316243 101.71520430193888 l -6.333393803958128 0.5190228825577943 a27.3546252311709,27.3546252311709 0 0,0 -0.03441920643118745,-0.4696227255666961 l 6.341389569053651 -0.40992702049433755" fill="#ff2303" stroke="none" /><path d="M 79.04373962182676 101.35467743843564 l -22.847443126882197 1.4769293362171316 a43.895129999637376,43.895129999637376 0 0,0 -0.04225146455042161,-0.7544282824762839 l 22.869480942320152 -1.08342933740541" fill="#f6ff19" stroke="none" /><line stroke="#e1ed5e" stroke-width="0.3" x1="15.007084014347285" x2="10.007500721073583" y1="101.09737516637583" y2="101.16192664675087" /><path d="M 14.007167355692545 101.11028546245083 a86.0,86.0 0 0,1 10.666146001902534,-42.60595125391555" fill="none" id="id58" stroke="none" /><text fill="#e1ed5e" style="font-size:6.75px; font-family:Arial;" text-anchor="middle"><textPath startOffset="22.20632615414155" xlink:href="#id58">October</textPath></text><path d="M 79.00019446554 99.90962569577889 l -21.230031491111728 -0.0913650996173871 a42.23022808862457,42.23022808862457 0 0,0 0.00938515113842189,-0.7268902984701905 l 21.22531333285559 0.4567916561480495" fill="#fff316" stroke="none" /><path d="M 79.21141760316559 97.0276538004421 l -12.668242636211419 -1.811302095353757 a33.79707727454038,33.79707727454038 0 0,0 0.08729963148191931,-0.5751954960225613 l 12.635187111290199 2.0290967037684102" fill="#ff810b" stroke="none" /><path d="M 79.26566170972629 96.67025291283419 l -6.774229694031902 -1.087879983229361 a27.86102549225804,27.86102549225804 0 0,0 0.08011787931500357,-0.4728602589302748 l 6.754499953196676 1.204326030475464" fill="#ff2a04" stroke="none" /><path d="M 79.3925641242962 95.95851677861259 l -61.8223076271114 -12.124449664162231 a84.0,84.0 0 0,0 0.2904828163400217,-1.41649737534639 l 61.60444551485639 13.186822695672024" fill="#4dd2ff" stroke="none" /><path d="M 79.62865764111835 94.90015583598534 l -9.542503004979023 -2.3889087622552823 a30.836983718315985,30.836983718315985 0 0,0 0.1333386302704143,-0.513808134682393 l 9.499968042838303 2.552813322486539" fill="#ff5608" stroke="none" /><line stroke="#e1ed5e" stroke-width="0.3" x1="26.266209847984243" x2="21.928928074336255" y1="57.711370442889674" y2="55.22380399835377" /><path d="M 25.398753493254645 57.213857153982495 a86.0,86.0 0 0,1 29.58750427330803,-30.492523968695096" fill="none" id="id59" stroke="none" /><text fill="#e1ed5e" style="font-size:6.75px; font-family:Arial;" text-anchor="middle"><textPath startOffset="21.46611528233685" xlink:href="#id59">November</textPath></text><line stroke="#e1ed5e" stroke-width="0.3" x1="56.762969772571076" x2="54.21961505331055" y1="26.818313649435495" y2="22.513508569990535" /><path d="M 56.25429882871897 25.957352633546506 a86.0,86.0 0 0,1 42.265352541879196,-11.944610805530505" fill="none" id="id60" stroke="none" /><text fill="#e1ed5e" style="font-size:6.75px; font-family:Arial;" text-anchor="middle"><textPath startOffset="22.20632615414155" xlink:href="#id60">December</textPath></text></svg>