<?xml version="1.0" encoding="utf-8" ?>
<svg baseProfile="full" height="200mm" version="1.1" viewBox="0,0,200,200" width="200mm" xmlns="http://www.w3.org/2000/svg" xmlns:ev="http://www.w3.org/2001/xml-events" xmlns:xlink="http://www.w3.org/1999/xlink"><defs /><rect fill="#1a1a1a" height="200" width="200" x="0" y="0" /><text alignment-baseline="middle" fill="#e1ed5e" style="dominant-baseline: central; font-size:9.0px; font-family:Arial;" text-anchor="middle" x="100.0" y="100.0">2016</text><line stroke="#e1ed5e" stroke-width="0.3" x1="100.0" x2="100.0" y1="15.0" y2="10.0" /><path d="M 100.0 14.0 a86.0,86.0 0 0,1 42.35913384403234,11.155469271406648" fill="none" id="id13" stroke="none" /><text fill="#e1ed5e" style="font-size:6.75px; font-family:Arial;" text-anchor="middle"><textPath startOffset="22.145653131862478" xlink:href="#id13">January</textPath></text><path d="M 100.0 79.0 l 0.0 -13.968749067841266 a34.968749067841266,34.968749067841266 0 0,0 0.6002850776081792,0.005152725427484547 l -0.23979215275932436 13.966690740608216" fill="#ffb010" stroke="none" /><path d="M 100.36049292484886 79.00309439819443 l 0.5099954709281121 -29.704679405055355 a50.70905710280094,50.70905710280094 0 0,0 0.8702318588512364,0.02241408575909054 l -1.01984064385009 29.69154760194622" fill="#91ff23" stroke="none" /><path d="M 101.80034050326958 79.07731436759882 l 0.6147325149173304 -7.144123644539676 a28.170522903761444,28.170522903761444 0 0,0 0.4814482366586893,0.04559364857142221 l -0.7372803149610326 7.132518240463071" fill="#ff5507" stroke="none" /><path d="M 102.15924093988457 79.11130261209362 l 0.12873761767599473 -1.2454196696629887 a22.25205572072027,22.25205572072027 0 0,0 0.379624413348223,0.042537707336420184 l -0.1500979326250144 1.2430262018195977" fill="#ff0000" stroke="none" /><path d="M 102.87502721639298 79.19773525538626 l 2.3085481647344954 -16.70350451803688 a37.86227914052479,37.86227914052479 0 0,0 0.6430725911380545,0.09450952547640107 l -2.5949458614802317 16.661413919261598" fill="#ffd513" stroke="none" /><path d="M 103.23170211078529 79.25015418208739 l 0.9833095714175553 -6.313552827192352 a27.389667206904434,27.389667206904434 0 0,0 0.4639581337802608,0.07634413435676604 l -1.0915452082508865 6.295742694339918" fill="#ff4a06" stroke="none" /><path d="M 103.94208987418118 79.37332000966035 l 2.9317006171570785 -15.339896447729021 a36.617531544251435,36.617531544251435 0 0,0 0.6164012424797108,0.1232975118195622 l -3.1945983451677464 15.2873095392466" fill="#ffc512" stroke="none" /><path d="M 104.29559338865022 79.4440306129975 l 2.913886110127805 -13.943999875607492 a35.24520497549044,35.24520497549044 0 0,0 0.5911755155395249,0.1288439520831715 l -3.152824042286464 13.891924465390602" fill="#ffb410" stroke="none" /><path d="M 104.64783097203109 79.52079915486377 l 1.5815802316010303 -6.968734321571188 a28.145953685382757,28.145953685382757 0 0,0 0.4702623881203426,0.11098064313830325 l -1.700974773461258 6.940557534786657" fill="#ff5407" stroke="none" /><path d="M 105.3480935250658 79.69241777938227 l 5.401695170370869 -20.511116398561935 a42.21047398407127,42.21047398407127 0 0,0 0.699123234620108,0.19054914645864304 l -5.752999805925669 20.41536675795915" fill="#f3ff19" stroke="none" /><path d="M 105.69591212413111 79.78721728523813 l 1.8262017149730276 -6.480545635824073 a27.73294025235401,27.73294025235401 0 0,0 0.4571180759795962,0.13306040980744005 l -1.9371798033342282 6.4482415317141175" fill="#ff4e07" stroke="none" /><path d="M 106.04205211174951 79.88797359093562 l 1.1523232035980557 -3.835709171967267 a25.00506100046732,25.00506100046732 0 0,0 0.41003461814891473,0.12702977283965708 l -1.2179984546186007 3.815362811320963" fill="#ff2803" stroke="none" /><path d="M 107.74402155503746 80.48000691201159 l 3.0982348806395428 -7.809575816031657 a29.40169826891909,29.40169826891909 0 0,0 0.4675507604919191,0.1901488239585588 l -3.2318401023219017 7.755239735493805" fill="#ff6609" stroke="none" /><path d="M 108.4095320186766 80.7573450057729 l 1.2128808438471905 -2.775308730072637 a24.02876517554413,24.02876517554413 0 0,0 0.3765497412000438,0.16842590971943108 l -1.260343987902866 2.7540790694433532" fill="#ff1a02" stroke="none" /><path d="M 109.06512990194946 81.05736502329252 l 3.0262167086396787 -6.3236290149407495 a28.010440177781312,28.010440177781312 0 0,0 0.43194733167773725,0.21128708508040303 l -3.134324289579483 6.2707481797631255" fill="#ff5207" stroke="none" /><path d="M 110.34350942703115 81.72400993836675 l 2.084718402776064 -3.683497663846095 a25.23251767372953,25.23251767372953 0 0,0 0.37513247964685725,0.21658283810588488 l -2.1476433502833188 3.647167928464038" fill="#ff2b04" stroke="none" /><line stroke="#e1ed5e" stroke-width="0.3" x1="143.13028292997686" x2="145.6673583964461" y1="26.7553504044142" y2="22.446841604673864" /><path d="M 143.63769802327073 25.89364864446614 a86.0,86.0 0 0,1 29.32050498858742,28.57503671076993" fill="none" id="id14" stroke="none" /><text fill="#e1ed5e" style="font-size:6.75px; font-family:Arial;" text-anchor="middle"><textPath startOffset="20.669276256404974" xlink:href="#id14">February</textPath></text><path d="M 111.27062007382361 82.28071324371311 l 1.91427850517589 -3.00956376334496 a24.566782337207798,24.566782337207798 0 0,0 0.3538954583914351,0.22939076048569965 l -1.9656595958243324 2.9762591611553657" fill="#ff2203" stroke="none" /><path d="M 111.5731344415666 82.4767994020092 l 2.9464948127158768 -4.461368691848571 a26.346554244180844,26.346554244180844 0 0,0 0.37525486525181917,0.25248822043396163 l -3.022645966064697 4.41013079735749" fill="#ff3b05" stroke="none" /><path d="M 112.16784306229584 82.88440491214696 l 2.868518420046602 -4.034930392199028 a25.95066270271345,25.95066270271345 0 0,0 0.3608612525034447,0.26123571798624495 l -2.937360682924014 3.9850939028397088" fill="#ff3505" stroke="none" /><path d="M 112.7482090630111 83.31218511350987 l 4.490534766510627 -5.87825415746496 a28.397213963986356,28.397213963986356 0 0,0 0.3848364140102957,0.2992511231966464 l -4.590781125156149 5.8003019826475235" fill="#ff5808" stroke="none" /><path d="M 113.31354834802062 83.75963576809568 l 2.8483109975332375 -3.4744762881005977 a25.49275650522506,25.49275650522506 0 0,0 0.3360499663622699,0.2803448339706257 l -2.9075352980574003 3.425069270218102" fill="#ff2f04" stroke="none" /><path d="M 113.59037401385872 83.9905735841838 l 6.761877597898945 -7.965474807825584 a31.448529923538125,31.448529923538125 0 0,0 0.4085621092587109,0.3529062191352662 l -6.897619186920516 7.848224456225597" fill="#ff810b" stroke="none" /><path d="M 114.65682725009322 84.96080404539774 l 9.818532885860154 -10.074679706429519 a35.067791554393324,35.067791554393324 0 0,0 0.4275065705296644,0.42385269017331506 l -9.99003137651978 9.904647006027545" fill="#ffb110" stroke="none" /><path d="M 114.91283532996326 85.21462403516908 l 5.0690067676713815 -5.025682183837163 a28.13808875145417,28.13808875145417 0 0,0 0.33713878667884495,0.3459340954385423 l -5.154532355501039 4.937925396330879" fill="#ff5407" stroke="none" /><path d="M 115.41159269507618 85.73525988315684 l 3.770417888124539 -3.4898425081774005 a26.137611486184163,26.137611486184163 0 0,0 0.301954506716668,0.33190089752559593 l -3.8297700956830845 3.424604035094133" fill="#ff3805" stroke="none" /><path d="M 116.1254893667686 86.54754324733833 l 5.43411338648068 -4.533330657942088 a28.076770107285256,28.076770107285256 0 0,0 0.3055731006440888,0.37274949729462026 l -5.511133306363396 4.439378878948973" fill="#ff5307" stroke="none" /><path d="M 117.42321728460499 88.27688183743584 l 5.781175703265817 -3.8898330188313808 a27.96798345480397,27.96798345480397 0 0,0 0.26459784786376556,0.4006348659754916 l -5.847097990050307 3.7900182745168305" fill="#ff5207" stroke="none" /><path d="M 117.62189284568427 88.57770195909679 l 5.27981039725658 -3.4223093106421905 a27.291947142871347,27.291947142871347 0 0,0 0.2514528063441403,0.39532557677399777 l -5.337780895226611 3.3311700591895206" fill="#ff4806" stroke="none" /><path d="M 117.81537515405839 88.88188828441811 l 3.0674526272900713 -1.9143173072444206 a24.615781571594763,24.615781571594763 0 0,0 0.22064184151154656,0.36040186623097936 l -3.0998624332570204 1.8613783248888867" fill="#ff2203" stroke="none" /><line stroke="#e1ed5e" stroke-width="0.3" x1="172.87174338648825" x2="177.1583165268699" y1="56.24261187166439" y2="53.66864786411523" /><path d="M 173.72905801456457 55.72781907015455 a86.0,86.0 0 0,1 12.242430191666344,42.057860355516425" fill="none" id="id15" stroke="none" /><text fill="#e1ed5e" style="font-size:6.75px; font-family:Arial;" text-anchor="middle"><textPath startOffset="22.145653131862474" xlink:href="#id15">March</textPath></text><path d="M 118.00360718960297 89.18935116829356 l 2.983923401345213 -1.7917602674248037 a24.480546468734154,24.480546468734154 0 0,0 0.21324454950101693,0.36213586476416987 l -3.0142416609759977 1.7402732343670775" fill="#ff2003" stroke="none" /><path d="M 118.18653347947321 89.5 l 4.239660761654742 -2.4477692820140597 a25.89553856402812,25.89553856402812 0 0,0 0.21896112589398392,0.38688332900481087 l -4.281055252570102 2.3746291829101307" fill="#ff3505" stroke="none" /><path d="M 118.53625476483649 90.13048839642627 l 3.8814942911860695 -2.066677084021185 a25.397402881489068,25.397402881489068 0 0,0 0.2015972442541295,0.3865892974503154 l -3.916399604415144 1.9997415434663715" fill="#ff2e04" stroke="none" /><path d="M 118.70294669586156 90.45014215332178 l 4.336058124862918 -2.214022174192349 a25.86860290535233,25.86860290535233 0 0,0 0.19854779339884768,0.39722858869171324 l -4.373425831473503 2.1392617293368854" fill="#ff3405" stroke="none" /><path d="M 118.8641267826498 90.77261029715802 l 3.1426769037743485 -1.5372407551839682 a24.49850357451801,24.49850357451801 0 0,0 0.18154644310182103,0.3793622419307919 l -3.1686026048360816 1.4830660111880727" fill="#ff2103" stroke="none" /><path d="M 119.16976305983485 91.42560881287824 l 3.187558664558462 -1.4257544465476117 a24.49189146192318,24.49189146192318 0 0,0 0.16837139487712185,0.38526670156220244 l -3.2115639414525545 1.37082567520956" fill="#ff2103" stroke="none" /><path d="M 119.4528033332814 92.08871423366111 l 3.2159255143496965 -1.307888909962527 a24.47170711821264,24.47170711821264 0 0,0 0.1549191033398149,0.3904973410647909 l -3.2379032926556355 1.252490551684171" fill="#ff2003" stroke="none" /><path d="M 119.58574465831526 92.42381321644754 l 7.336824012612478 -2.838041141009456 a28.86660435703419,28.86660435703419 0 0,0 0.17480696841348223,0.46369625203396014 l -7.384461664840401 2.7116766087813384" fill="#ff5e08" stroke="none" /><path d="M 119.71291397450082 92.76114493625339 l 12.794293296267801 -4.698241717817505 a34.62965209350422,34.62965209350422 0 0,0 0.20012612807167035,0.5597883980207183 l -12.873059594383415 4.47791836341587" fill="#ffac0f" stroke="none" /><path d="M 120.05942366710727 93.78553927170692 l 6.80328658074263 -2.10767557338527 a28.122289282411778,28.122289282411778 0 0,0 0.1389022540140143,0.46236042810287636 l -6.8384651547602715 1.99057754169167" fill="#ff5407" stroke="none" /><path d="M 120.16314734710363 94.1308016681162 l 3.366639280431088 -0.9799796286068897 a24.506368508446602,24.506368508446602 0 0,0 0.11410807935866116,0.4049293183973193 l -3.382965851864331 0.9220423863065572" fill="#ff2103" stroke="none" /><path d="M 120.26092885502905 94.47779374421319 l 5.406782296413283 -1.4736425577803551 a26.604009028268024,26.604009028268024 0 0,0 0.11631085150290145,0.44165124805220535 l -5.431282628720915 1.3806108053553512" fill="#ff3f05" stroke="none" /><path d="M 120.35273937422433 94.82641323984039 l 4.158321546618072 -1.057029076160398 a25.29056506219363,25.29056506219363 0 0,0 0.10334504494226204,0.42168304994748157 l -4.175854118076625 0.9854902016048215" fill="#ff2c04" stroke="none" /><path d="M 120.82617615685814 97.30363454192243 l 12.048878783201726 -1.5599685854424301 a33.14944368766965,33.14944368766965 0 0,0 0.06822141894446877,0.5649712143946773 l -12.073882288405859 1.3529036941243398" fill="#ff980e" stroke="none" /><path d="M 120.86939407059847 97.66154086499901 l 8.257520647789026 -0.9252724121246009 a29.30919829377666,29.30919829377666 0 0,0 0.05173437423955885,0.5004831411267207 l -8.27218741451025 0.7833847487149488" fill="#ff6409" stroke="none" /><path d="M 120.9064616781168 98.02013634271609 l 8.957962096344412 -0.8483283240818924 a29.998041223787695,29.998041223787695 0 0,0 0.044149084780528945,0.513079287025799 l -8.971204803822681 0.6944279896804314" fill="#ff6e0a" stroke="none" /><path d="M 120.96210409425399 98.7389718711861 l 9.94265099953496 -0.5981251943515615 a30.96062561522476,30.96062561522476 0 0,0 0.027360952421366352,0.530795167437325 l -9.9514535414129 0.42735823353750585" fill="#ff7b0b" stroke="none" /><path d="M 120.98066250479742 99.09900007780936 l 3.4998714848218335 -0.15029954057840966 a24.50309725274179,24.50309725274179 0 0,0 0.014439690383302391,0.42039583042566614 l -3.501935862201984 0.09019744558862355" fill="#ff2103" stroke="none" /><line stroke="#e1ed5e" stroke-width="0.3" x1="184.99686870605535" x2="189.99668451229388" y1="99.2704041080226" y2="99.22748670261217" /><path d="M 185.99683186730306 99.26182062694052 a86.0,86.0 0 0,1 -10.086455211305974,41.156179273409016" fill="none" id="id16" stroke="none" /><text fill="#e1ed5e" style="font-size:6.75px; font-family:Arial;" text-anchor="middle"><textPath startOffset="21.40746469413373" xlink:href="#id16">April</textPath></text><path d="M 120.99922638620191 99.81974689727618 l 7.138104187655579 -0.06127203944219137 a28.138367156195002,28.138367156195002 0 0,0 0.0,0.4830502843320356 l -7.138104187655579 -0.0612720394421905" fill="#ff5407" stroke="none" /><path d="M 120.96210409425399 101.26102812881392 l 7.135906832598947 0.4292784350293015 a28.148807333976315,28.148807333976315 0 0,0 -0.033156666255729085,0.4820906504703345 l -7.127486205178152 -0.5517125096539796" fill="#ff5407" stroke="none" /><path d="M 120.93736805541906 101.62068470465957 l 3.4814769879933802 0.26948833727001165 a24.49189146192318,24.49189146192318 0 0,0 -0.036045506588960885,0.4189034249086976 l -3.476337858706678 -0.32921280955436655" fill="#ff2103" stroke="none" /><path d="M 120.86939407059847 102.33845913500097 l 3.4949364925616204 0.39161492373145074 a24.516808686227915,24.516808686227915 0 0,0 -0.05045549157093937,0.4178438500219081 l -3.4876989147310176 -0.45155245067676747" fill="#ff2103" stroke="none" /><path d="M 120.7213421655516 103.40968896794604 l 7.0490020135624585 1.159910598871842 a28.143796048641285,28.143796048641285 0 0,0 -0.082535276957948,0.4760415445971148 l -7.028051919112277 -1.2807451763895445" fill="#ff5407" stroke="none" /><path d="M 120.65975698304385 103.76489593502545 l 3.401763650673699 0.6199146558621241 a24.45778688117089,24.45778688117089 0 0,0 -0.07881662480102852,0.4124018856944982 l -3.390620733590511 -0.6782191065899369" fill="#ff2003" stroke="none" /><path d="M 120.592083275326 104.11899336999214 l 3.7752732789712704 0.755160388488908 a24.850059161007426,24.850059161007426 0 0,0 -0.0872619166039362,0.41757986011923 l -3.7617536515429695 -0.819856699893547" fill="#ff2603" stroke="none" /><path d="M 120.51834098615036 104.47187691870673 l 3.694564906736323 0.8052132256818393 a24.781293190021177,24.781293190021177 0 0,0 -0.09415609681517696,0.4148691355334428 l -3.680197948363482 -0.8685166951542991" fill="#ff2503" stroke="none" /><path d="M 120.35273937422433 105.17358676015961 l 3.399577110632022 0.8641592075797803 a24.507690930965566,24.507690930965566 0 0,0 -0.10714589660234057,0.4068504214924019 l -3.3842417332249513 -0.9223901334449853" fill="#ff2103" stroke="none" /><path d="M 120.05942366710727 106.21446072829308 l 6.818311918055718 2.1123304612928737 a28.13801915026896,28.13801915026896 0 0,0 -0.14690093938118018,0.4601651003232011 l -6.7810462628972825 -2.229064595307458" fill="#ff5407" stroke="none" /><path d="M 119.94978838288452 106.5578916946017 l 6.788385630025306 2.2314771910607942 a28.14574488182713,28.14574488182713 0 0,0 -0.1548211359312394,0.4577011784676873 l -6.749079072521702 -2.347680044002642" fill="#ff5407" stroke="none" /><path d="M 119.83427380445688 106.89939002012753 l 5.427359495324341 1.8879173650043546 a26.746343452019925,26.746343452019925 0 0,0 -0.15456817587063953,0.43235469745670474 l -5.394151149409758 -1.9808070188419808" fill="#ff4106" stroke="none" /><path d="M 119.58574465831526 107.57618678355244 l 12.433211091730247 4.809433146076102 a34.33099340777346,34.33099340777346 0 0,0 -0.21733370254088816,0.5478229032853678 l -12.348818714223233 -5.0221570665750335" fill="#ffa80f" stroke="none" /><path d="M 119.16976305983485 108.57439118712176 l 6.521819999168055 2.9171271314264646 a28.14449206049337,28.14449206049337 0 0,0 -0.2010529065636923,0.4393368851143305 l -6.470782627749307 -3.0286529987554838" fill="#ff5407" stroke="none" /><path d="M 119.0197475246899 108.90220220490707 l 4.428226940851891 2.0726338026047655 a25.88927445735933,25.88927445735933 0 0,0 -0.1918527667587503,0.40089849448278597 l -4.391994916133228 -2.148344799152655" fill="#ff3505" stroke="none" /><path d="M 118.8641267826498 109.22738970284198 l 4.4075004144349474 2.1559293153624544 a25.9065355512911,25.9065355512911 0 0,0 -0.19883893564478292,0.39781106821203677 l -4.369841565578432 -2.231272239738237" fill="#ff3505" stroke="none" /><path d="M 118.70294669586154 109.54985784667822 l 4.368105902569197 2.2303859978386327 a25.904586718105257,25.904586718105257 0 0,0 -0.2056231229736594,0.3943094507270258 l -4.329174710620589 -2.3050416916701617" fill="#ff3505" stroke="none" /><line stroke="#e1ed5e" stroke-width="0.3" x1="174.33088141563837" x2="178.70328620479359" y1="141.23008692659167" y2="143.65538615756765" /><path d="M 175.20536237346943 141.71514677278685 a86.0,86.0 0 0,1 -30.301960400862466,31.631185727798858" fill="none" id="id17" stroke="none" /><text fill="#e1ed5e" style="font-size:6.75px; font-family:Arial;" text-anchor="middle"><textPath startOffset="22.145653131862474" xlink:href="#id17">May</textPath></text><path d="M 118.36410011445183 110.18625677009912 l 8.016821766527872 4.446795894436894 a30.16752010977101,30.16752010977101 0 0,0 -0.25508309674009233,0.4507073903494869 l -7.939305304766402 -4.583760054885504" fill="#ff700a" stroke="none" /><path d="M 118.18653347947321 110.5 l 4.7099974681277486 2.7193183061060098 a26.438636612212022,26.438636612212022 0 0,0 -0.23030103355710926,0.39110150359500256 l -4.662622724440873 -2.799770977994562" fill="#ff3c05" stroke="none" /><path d="M 118.00360718960297 110.81064883170644 l 6.141964195957875 3.688073026707658 a28.16418919590745,28.16418919590745 0 0,0 -0.2524477458004171,0.4123544205803475 l -6.0777484857020525 -3.792964563412563" fill="#ff5407" stroke="none" /><path d="M 117.62189284568427 111.42229804090321 l 4.705046966732223 3.049754599071064 a26.607001879232,26.607001879232 0 0,0 -0.2517219536663665,0.3811391210639715 l -4.65200057414513 -3.1300735984740964" fill="#ff3f05" stroke="none" /><path d="M 117.21940702142032 112.02048342749411 l 4.831916768478454 3.3730531699653934 a26.89278434569914,26.89278434569914 0 0,0 -0.2674998384907801,0.3762720227598361 l -4.773301831457713 -3.4555024194347332" fill="#ff4306" stroke="none" /><path d="M 117.01052211995028 112.31430620078461 l 6.350044668762126 4.5969426387028065 a28.839320692432363,28.839320692432363 0 0,0 -0.2937463072707428,0.3985232814245421 l -6.270196341907556 -4.7052722293962255" fill="#ff5e08" stroke="none" /><path d="M 116.79662413953412 112.60449989151573 l 3.9126933703976703 2.9361580489637418 a25.891849701212053,25.891849701212053 0 0,0 -0.2698276242738001,0.3532130217575092 l -3.8617137687695657 -3.002891983962128" fill="#ff3505" stroke="none" /><path d="M 116.35404254752997 113.17365903436017 l 3.808566247409655 3.067911374654289 a25.89052727869309,25.89052727869309 0 0,0 -0.2817791600540184,0.34372475861536006 l -3.755340268117009 -3.1328384149681416" fill="#ff3505" stroke="none" /><path d="M 116.1254893667686 113.45245675266167 l 4.173710774326642 3.481857971110895 a26.435365356507212,26.435365356507212 0 0,0 -0.29369116444518184,0.3459674532404952 l -4.113325046374346 -3.5529922068009467" fill="#ff3c05" stroke="none" /><path d="M 115.89218393027572 113.72728997021213 l 2.6543595762358825 2.292772582299654 a24.50748212740994,24.50748212740994 0 0,0 -0.27773855221696536,0.3160154886600848 l -2.6146099600603314 -2.338000348771032" fill="#ff2103" stroke="none" /><path d="M 115.6541949942343 113.99807769240083 l 8.471255332556467 7.575048754724575 a32.36413351495928,32.36413351495928 0 0,0 -0.3738863429042616,0.4109665860987739 l -8.339971288810325 -7.719352916381021" fill="#ff8e0d" stroke="none" /><path d="M 114.91283532996324 114.78537596483092 l 5.946520210471361 5.89569555680873 a29.373788193650384,29.373788193650384 0 0,0 -0.3580917673316925,0.35503117232656173 l -5.844436523009704 -5.996906739363953" fill="#ff6509" stroke="none" /><path d="M 114.65682725009322 115.03919595460226 l 3.414432215917962 3.5035082485925093 a25.89212810595289,25.89212810595289 0 0,0 -0.3209730164514096,0.3074848890570764 l -3.3537867136012403 -3.561605267955166" fill="#ff3505" stroke="none" /><path d="M 114.39649973595853 115.28858382429668 l 6.7047582465727515 7.120220911638632 a30.780149741978462,30.780149741978462 0 0,0 -0.3877862502964559,0.3589291639618353 l -6.5815422249623285 -7.234267821732846" fill="#ff780b" stroke="none" /><path d="M 113.59037401385872 116.0094264158162 l 4.637012064970056 5.462388552933736 a28.165163612500372,28.165163612500372 0 0,0 -0.37127810335569433,0.3097333987826522 l -4.542559627452467 -5.541184135628258" fill="#ff5507" stroke="none" /><path d="M 113.03279911837588 116.46651593811092 l 4.3345042676519006 5.476504545095326 a27.98427013214282,27.98427013214282 0 0,0 -0.37924023744043744,0.2948995024477549 l -4.239854085576233 -5.550105099163874" fill="#ff5207" stroke="none" /><path d="M 112.7482090630111 116.68781488649013 l 2.261365367316666 2.9601998566210215 a24.725125033557713,24.725125033557713 0 0,0 -0.33949599534447406,0.25476412408476545 l -2.2102163830614256 -2.9985830079698017" fill="#ff2403" stroke="none" /><path d="M 112.45986205192187 116.90419585922612 l 2.0741452524362995 2.813976386059515 a24.49578912829487,24.49578912829487 0 0,0 -0.34063026625414333,0.2465900441109191 l -2.0255339758081883 -2.8491672015435108" fill="#ff2103" stroke="none" /><path d="M 112.16784306229584 117.11559508785304 l 3.5938246071789695 5.055164376983006 a27.20244001869289,27.20244001869289 0 0,0 -0.38291308578938177,0.26730307240988055 l -3.506516430215829 -5.116112265198009" fill="#ff4706" stroke="none" /><path d="M 111.5731344415666 117.5232005979908 l 3.106790083584821 4.7040761623724805 a26.637417597168227,26.637417597168227 0 0,0 -0.3837238829863501,0.24872518493132334 l -3.025580568341461 -4.756715189007699" fill="#ff3f05" stroke="none" /><path d="M 111.27062007382361 117.71928675628689 l 1.4998282063247308 2.3579790551860333 a23.794557187316673,23.794557187316673 0 0,0 -0.34653472035456884,0.2162632950983534 l -1.4591293571804471 -2.383378147125934" fill="#ff1602" stroke="none" /><path d="M 110.96478420261333 117.91015095944535 l 2.924836443773605 4.777500520911975 a26.601712189156135,26.601712189156135 0 0,0 -0.3915103741502346,0.23509073067048813 l -2.8423933130659336 -4.827005252118386" fill="#ff3f05" stroke="none" /><line stroke="#e1ed5e" stroke-width="0.3" x1="143.1302829299769" x2="145.66735839644613" y1="173.24464959558577" y2="177.55315839532614" /><path d="M 143.63769802327073 174.10635135553383 a86.0,86.0 0 0,1 -40.68552437913181,11.842963189579606" fill="none" id="id18" stroke="none" /><text fill="#e1ed5e" style="font-size:6.75px; font-family:Arial;" text-anchor="middle"><textPath startOffset="21.407464694133747" xlink:href="#id18">June</textPath></text><path d="M 110.34350942703117 118.27599006163325 l 3.5230853104946593 6.224954168129703 a28.152774601533213,28.152774601533213 0 0,0 -0.4226345625078494,0.23442826747799772 l -3.4157065598307157 -6.284515351040845" fill="#ff5407" stroke="none" /><path d="M 109.71004243097381 118.62028667847754 l 5.288148085379952 10.140721222177165 a32.43672755113201,32.43672755113201 0 0,0 -0.4959309634934068,0.25322588360774895 l -5.113289900172963 -10.230005057457749" fill="#ff8f0d" stroke="none" /><path d="M 109.3889696526874 118.78422872680471 l 3.4816040476457335 6.965540329382938 a28.787189404711004,28.787189404711004 0 0,0 -0.4439255352984385,0.21714622470672437 l -3.361518263085226 -7.0242803041868855" fill="#ff5d08" stroke="none" /><path d="M 108.73861861582097 119.09545874513695 l 3.7791783462983197 8.258186719763916 a30.081841050779033,30.081841050779033 0 0,0 -0.4714062241542278,0.2108540080190839 l -3.636858719288465 -8.321844478692851" fill="#ff6f0a" stroke="none" /><path d="M 108.4095320186766 119.2426549942271 l 1.549101581491475 3.5446475758044667 a24.86836427271733,24.86836427271733 0 0,0 -0.39264177765323127,0.1675954269568516 l -1.4880247286678125 -3.570717652420722" fill="#ff2603" stroke="none" /><path d="M 108.07796709384702 119.3841803445677 l 2.680340050398904 6.4318403774230495 a27.96798345480397,27.96798345480397 0 0,0 -0.4447515859157784,0.18087659814009133 l -2.5695340032926848 -6.476904232142432" fill="#ff5207" stroke="none" /><path d="M 107.407793817531 119.65005319985036 l 3.4465800573088985 9.142463080355544 a30.770544778419655,30.770544778419655 0 0,0 -0.49586124583474606,0.18208711786444365 l -3.2891296598200253 -9.200281047228708" fill="#ff780b" stroke="none" /><path d="M 107.06938296918513 119.77432235084164 l 2.3527824241552344 6.581151181006547 a27.989072613922225,27.989072613922225 0 0,0 -0.4538151271834891,0.15786045863545178 l -2.2394615249267233 -6.6205700722105885" fill="#ff5207" stroke="none" /><path d="M 106.38641147887787 120.00534299687104 l 1.063650493422994 3.331870021230902 a24.49752915792509,24.49752915792509 0 0,0 -0.4017120779539054,0.12445142861303195 l -1.0062977825974642 -3.3496380376505783" fill="#ff2103" stroke="none" /><path d="M 106.0420521117495 120.11202640906438 l 2.0066279876499227 6.679411950503241 a27.974317162657968,27.974317162657968 0 0,0 -0.4610966569674016,0.13421851674852742 l -1.8916713183009142 -6.712874161554287" fill="#ff5207" stroke="none" /><path d="M 104.9986988182912 120.39639698878246 l 1.3271645678159258 5.415284332708237 a26.575542143517644,26.575542143517644 0 0,0 -0.44402396357576723,0.1047884463893107 l -1.2340084505002795 -5.4372689227437725" fill="#ff3e05" stroke="none" /><path d="M 104.64783097203109 120.47920084513623 l 0.9317259056019938 4.105356255049301 a25.209758086166268,25.209758086166268 0 0,0 -0.4228487745660669,0.09215792233698462 l -0.861114714416791 -4.120745635520004" fill="#ff2b04" stroke="none" /><path d="M 104.29559338865022 120.5559693870025 l 1.1427665958285251 5.468551847203955 a26.586678333151042,26.586678333151042 0 0,0 -0.44754686803937177,0.0895219078889304 l -1.0487232422581947 -5.487363151755747" fill="#ff3e05" stroke="none" /><path d="M 103.94208987418118 120.62667999033965 l 0.9181342230302348 4.804066221488031 a25.891014486989548,25.891014486989548 0 0,0 -0.4372687405553137,0.07968493071731682 l -0.835530748923864 -4.819119326136712" fill="#ff3505" stroke="none" /><path d="M 103.2317021107853 120.74984581791261 l 0.9193651012271211 5.902983457901925 a26.974148131208175,26.974148131208175 0 0,0 -0.45814292552482494,0.06733123303404234 l -0.8178970700946107 -5.917895764234849" fill="#ff4406" stroke="none" /><path d="M 102.51750503828377 120.84855314841334 l 1.1027846718133445 9.132639058084992 a30.19897984548537,30.19897984548537 0 0,0 -0.5152004898532595,0.05772928949344404 l -0.9458482803592857 -9.150224108085407" fill="#ff710a" stroke="none" /><path d="M 102.15924093988457 120.88869738790638 l 0.4318424628063007 4.177684091749056 a25.19994431905183,25.19994431905183 0 0,0 -0.43067957232290505,0.040785803274842415 l -0.3600633270983804 -4.184481650529082" fill="#ff2b04" stroke="none" /><path d="M 101.80034050326958 120.92268563240118 l 0.47840573576785644 5.559799824549987 a26.580344625297048,26.580344625297048 0 0,0 -0.45494285656624645,0.03521545435794228 l -0.3828938844263742 -5.567193045902983" fill="#ff3e05" stroke="none" /><path d="M 101.44090949804482 120.95050786540614 l 0.4786555608696695 6.959546804589453 a27.975987591102978,27.975987591102978 0 0,0 -0.4793960542538323,0.028839276178492662 l -0.35911515448337206 -6.966738058592638" fill="#ff5207" stroke="none" /><path d="M 101.08105385017728 120.97215588758144 l 0.36035844935711725 6.990857646994399 a28.000139202370416,28.000139202370416 0 0,0 -0.4802347066802219,0.020623344627613026 l -0.24029798207606579 -6.996013560047843" fill="#ff5207" stroke="none" /><line stroke="#e1ed5e" stroke-width="0.3" x1="101.45913802915013" x2="101.54496967792366" y1="184.9874750549273" y2="189.98673829345242" /><path d="M 101.47630435890484 185.9873277026323 a86.0,86.0 0 0,1 -42.54439059252881,-10.42667462771756" fill="none" id="id19" stroke="none" /><text fill="#e1ed5e" style="font-size:6.75px; font-family:Arial;" text-anchor="middle"><textPath startOffset="22.145653131862474" xlink:href="#id19">July</textPath></text><path d="M 100.0 121.0 l 9.031101947544735e-16 7.374454376423095 a28.374454376423095,28.374454376423095 0 0,0 -0.487085240435575,-0.004181040970975209 l 0.12659231558672196 -7.373367733646555" fill="#ff5708" stroke="none" /><path d="M 99.27912038922189 120.98762331915562 l -0.18235648206784497 5.3091100070304895 a26.312240859872926,26.312240859872926 0 0,0 -0.45128530183772686,-0.019380132622057216 l 0.27346754450641053 -5.305197305982603" fill="#ff3b05" stroke="none" /><path d="M 98.55909050195518 120.95050786540614 l -0.3579935562309164 5.205147738811857 a26.217444045618606,26.217444045618606 0 0,0 -0.44873153655908077,-0.03473465890625448 l 0.44729408756523326 -5.198235312910549" fill="#ff3905" stroke="none" /><path d="M 97.84075906011543 120.88869738790638 l -0.8114928390201841 7.850457090560643 a28.892287194376223,28.892287194376223 0 0,0 -0.4929080582087605,-0.05523137603011515 l 0.9461367988297439 -7.835369954023557" fill="#ff5f08" stroke="none" /><path d="M 97.48249496171623 120.84855314841334 l -0.760343777218693 6.296737209795585 a27.342477603332902,27.342477603332902 0 0,0 -0.4655020070307505,-0.06026855448498447 l 0.8683236061402375 -6.282757059110203" fill="#ff4906" stroke="none" /><path d="M 97.12497278360702 120.80226474461374 l -0.5744642060814311 4.1565368261810764 a25.196046652680142,25.196046652680142 0 0,0 -0.4279427275689778,-0.06289284393546568 l 0.6457320392580937 -4.146062908946728" fill="#ff2b04" stroke="none" /><path d="M 96.41257539226777 120.69131181640829 l -0.714930959728526 4.123531790204841 a25.18504966541716,25.18504966541716 0 0,0 -0.42534582619595407,-0.07751217854786438 l 0.7856115194755373 -4.11065143772561" fill="#ff2a04" stroke="none" /><path d="M 96.05791012581884 120.62667999033965 l -0.6577139797834411 3.4414374657005293 a24.503723663408667,24.503723663408667 0 0,0 -0.4124834491711043,-0.08250824210695928 l 0.7166939144855035 -3.4296398269307082" fill="#ff2103" stroke="none" /><path d="M 94.30408787586889 120.21278271476187 l -0.7559398287366128 2.6825637704195264 a23.78704025931413,23.78704025931413 0 0,0 -0.39207837242081967,-0.11412830000027689 l 0.8018782135390393 -2.6691917761167336" fill="#ff1602" stroke="none" /><path d="M 93.61358852112213 120.00534299687104 l -0.8507764608195612 2.6650451460340054 a23.79755003828065,23.79755003828065 0 0,0 -0.3881009422762473,-0.12757648839042487 l 0.8964001407435519 -2.650047736241559" fill="#ff1702" stroke="none" /><path d="M 92.25597844496254 119.51999308798841 l -2.0888291762705324 5.265214048412094 a26.664422857029223,26.664422857029223 0 0,0 -0.424022145620788,-0.1724461152353805 l 2.178905783081761 -5.2285806765974225" fill="#ff3f06" stroke="none" /><path d="M 91.92203290615298 119.3841803445677 l -1.3417362542900628 3.2196785683633125 a24.4880633967367,24.4880633967367 0 0,0 -0.38663728092193905,-0.165032464351709 l 1.3968086103824329 -3.1961714543521995" fill="#ff2003" stroke="none" /><path d="M 91.59046798132341 119.24265499422711 l -1.6817447457498795 3.8481610937384607 a25.199596313125788,25.199596313125788 0 0,0 -0.394897590480869,-0.1766326693275221 l 1.7475557390863836 -3.8187246735010834" fill="#ff2b04" stroke="none" /><path d="M 91.26138138417905 119.09545874513695 l -1.455176555386608 3.179823391075523 a24.496972348443418,24.496972348443418 0 0,0 -0.38088275941641947,-0.1782723633048443 l 1.5095480286745175 -3.1543747962001523" fill="#ff2103" stroke="none" /><path d="M 90.93487009805054 118.94263497670748 l -1.807834214385575 3.777678201185428 a25.187972915195928,25.187972915195928 0 0,0 -0.3884222319262284,-0.18999677772137863 l 1.8724166955738728 -3.7460876733668287" fill="#ff2b04" stroke="none" /><path d="M 90.6110303473126 118.78422872680471 l -1.8797917226940966 3.7608426679420868 a25.2044683960904,25.2044683960904 0 0,0 -0.385355652055474,-0.19676534170725352 l 1.944074596463153 -3.728019374561997" fill="#ff2b04" stroke="none" /><path d="M 90.28995756902619 118.62028667847754 l -1.9063568202239987 3.6556905653482064 a25.122895807025742,25.122895807025742 0 0,0 -0.38068506788688006,-0.20269335647804285 l 1.9688307038974406 -3.6224267411475903" fill="#ff2a04" stroke="none" /><line stroke="#e1ed5e" stroke-width="0.3" x1="58.13341422392154" x2="55.67067388415222" y1="173.97424548756322" y2="178.32567169271397" /><path d="M 57.64086615596768 174.84453072859336 a86.0,86.0 0 0,1 -31.369924170532247,-30.572349798747897" fill="none" id="id20" stroke="none" /><text fill="#e1ed5e" style="font-size:6.75px; font-family:Arial;" text-anchor="middle"><textPath startOffset="22.145653131862474" xlink:href="#id20">August</textPath></text><path d="M 88.72937992617639 117.7192867562869 l -1.8821908254360857 2.9591166011720453 a24.50699491911348,24.50699491911348 0 0,0 -0.35303419396363295,-0.22883249928910165 l 1.9327106516567283 -2.9263702601790493" fill="#ff2103" stroke="none" /><path d="M 88.1277618465304 117.32195027204791 l -4.821784717986485 7.035128004324394 a29.528929235480696,29.528929235480696 0 0,0 -0.41566173497098113,-0.2901641729269014 l 4.941841544131231 -6.951319015592364" fill="#ff6709" stroke="none" /><path d="M 87.54013794807813 116.9041958592261 l -2.4900397460707917 3.3782171415249183 a25.19674266453223,25.19674266453223 0 0,0 -0.34597168745249723,-0.25962360416808483 l 2.5476644224340554 -3.3349745100928185" fill="#ff2b04" stroke="none" /><path d="M 87.2517909369889 116.68781488649013 l -3.268947062621324 4.279156639581757 a26.384904497230867,26.384904497230867 0 0,0 -0.35756578246005455,-0.2780453151582379 l 3.341922789716607 -4.222410272802725" fill="#ff3c05" stroke="none" /><path d="M 86.96720088162412 116.46651593811092 l -3.5121980926462784 4.437547555599078 a26.659272369323773,26.659272369323773 0 0,0 -0.35640810383699534,-0.2870971396451789 l 3.5878569668385354 -4.376602122160489" fill="#ff3f05" stroke="none" /><path d="M 86.68645165197938 116.24036423190432 l -3.9976960457709714 4.876539159555971 a27.30572817754268,27.30572817754268 0 0,0 -0.3599488754258391,-0.30028215390561025 l 4.080819255358703 -4.807194821738491" fill="#ff4906" stroke="none" /><path d="M 86.40962598614128 116.0094264158162 l -3.7167805213710983 4.378358108463469 a26.74321139868553,26.74321139868553 0 0,0 -0.3474331831714824,-0.3001045087065031 l 3.791393184305443 -4.313909467292244" fill="#ff4106" stroke="none" /><path d="M 86.13680546590413 115.77377054828092 l -8.356264395473529 9.507894943751166 a33.658089149175225,33.658089149175225 0 0,0 -0.4307193183181045,-0.3851518703871635 l 8.518248740615006 -9.36304754348062" fill="#ff9f0e" stroke="none" /><path d="M 85.86807049272751 115.53346607816431 l -4.877995520548593 5.36177157612381 a28.248685034750878,28.248685034750878 0 0,0 -0.3558933837963691,-0.32940960286220855 l 4.969318675658929 -5.2772442271292235" fill="#ff5607" stroke="none" /><path d="M 85.60350026404147 115.28858382429668 l -2.4089834653082427 2.5582569594134483 a24.513955037634354,24.513955037634354 0 0,0 -0.3038884274550859,-0.29111823926763647 l 2.452544378628643 -2.5165265898402294" fill="#ff2103" stroke="none" /><path d="M 85.34317274990678 115.03919595460226 l -4.871910160576889 4.999009016611536 a27.980372465771133,27.980372465771133 0 0,0 -0.34110482995288255,-0.3381894215743013 l 4.957006910659734 -4.914639584808575" fill="#ff5207" stroke="none" /><path d="M 84.83555147118756 114.52719865689866 l -2.800094645803541 2.682427329976363 a24.877621230350094,24.877621230350094 0 0,0 -0.2927789979809603,-0.31092114991293535 l 2.845729477520754 -2.6339647201189376" fill="#ff2603" stroke="none" /><path d="M 84.58840730492382 114.26474011684316 l -3.285062462087024 3.040604771772854 a25.476261024330586,25.476261024330586 0 0,0 -0.29431426183119075,-0.32350293002254893 l 3.336774424760095 -2.983764266192631" fill="#ff2f04" stroke="none" /><path d="M 84.1078160697243 113.72728997021213 l -3.2827908201155154 2.83559652323344 a25.33789386813558,25.33789386813558 0 0,0 -0.28149849470075416,-0.3316045189395909 l 3.330983878323382 -2.7788252218442944" fill="#ff2d04" stroke="none" /><path d="M 83.8745106332314 113.45245675266167 l -2.6879289561575286 2.2423659347326947 a24.500452407703857,24.500452407703857 0 0,0 -0.2666503013272993,-0.3252700108867831 l 2.7260260767234574 -2.1958936421474164" fill="#ff2103" stroke="none" /><path d="M 83.64595745247003 113.17365903436017 l -4.357695752177422 3.5102512328571307 a26.595656886042974,26.595656886042974 0 0,0 -0.28334958307365354,-0.3580029419129781 l 4.417311765892637 -3.4349283470294725" fill="#ff3f05" stroke="none" /><path d="M 83.4222238831116 112.89097897827486 l -3.8856695368417244 3.021520134110208 a25.922195817963072,25.922195817963072 0 0,0 -0.27014387130457046,-0.35362699927244723 l 3.93696538550059 -2.9543722215968904" fill="#ff3505" stroke="none" /><path d="M 82.98947788004972 112.3143062007846 l -5.807005121834816 4.2038238847431355 a28.168922076501644,28.168922076501644 0 0,0 -0.28019345297463155,-0.3941271811962662 l 5.878313673339409 -4.1035194768373655" fill="#ff5507" stroke="none" /><path d="M 82.576782715395 111.72311816256416 l -7.022610035158866 4.725125440782947 a29.464269734421762,29.464269734421762 0 0,0 -0.2787538248227283,-0.42206881934092744 l 7.102688298902321 -4.603876743102958" fill="#ff6609" stroke="none" /><path d="M 82.18462484594161 111.11811171558189 l -2.959870361901766 1.8471780168921725 a24.488968212144414,24.488968212144414 0 0,0 -0.21950515880756347,-0.35854518045904626 l 2.991143485164734 -1.796095720308569" fill="#ff2103" stroke="none" /><line stroke="#e1ed5e" stroke-width="0.3" x1="26.387840678322732" x2="22.057713659400548" y1="142.50000000000003" y2="145.00000000000006" /><path d="M 25.521815274538298 143.00000000000003 a86.0,86.0 0 0,1 -11.493303480769221,-40.785679425670985" fill="none" id="id21" stroke="none" /><text fill="#e1ed5e" style="font-size:6.75px; font-family:Arial;" text-anchor="middle"><textPath startOffset="21.40746469413373" xlink:href="#id21">September</textPath></text><path d="M 81.81346652052679 110.50000000000001 l -3.02388588409988 1.7458413291837773 a24.49168265836755,24.49168265836755 0 0,0 -0.2070907464100281,-0.36590950585445564 l 3.0534099955312866 -1.6936750532302" fill="#ff2103" stroke="none" /><path d="M 81.4637452351635 109.86951160357371 l -12.047868304326295 6.41481127317281 a34.64921002654788,34.64921002654788 0 0,0 -0.2750354156103722,-0.5274166742117694 l 12.156211788911616 -6.2070483558565375" fill="#ffac0f" stroke="none" /><path d="M 81.29705330413844 109.54985784667822 l -3.1361570937982797 1.6013441580974055 a24.521332763266482,24.521332763266482 0 0,0 -0.18820716871176996,-0.3765404124076904 l 3.1631841757217862 -1.5472718895259623" fill="#ff2103" stroke="none" /><path d="M 80.9802524753101 108.90220220490708 l -4.093873648977812 1.9161395795202838 a25.520109771012102,25.520109771012102 0 0,0 -0.18230537734552824,-0.39837015038230195 l 4.126163491178397 -1.845580446923293" fill="#ff2f04" stroke="none" /><path d="M 80.68587082218212 108.24405325689762 l -3.2200137409397316 1.3744323921545012 a24.501078818370736,24.501078818370736 0 0,0 -0.16179363871821736,-0.3882458340176479 l 3.243133224194435 -1.318954048695572" fill="#ff2103" stroke="none" /><path d="M 80.41425534168474 107.57618678355246 l -13.831845100221784 5.350454826641208 a35.83062054428127,35.83062054428127 0 0,0 -0.2169788339581272,-0.575562135710162 l 13.921654617994347 -5.112224410736901" fill="#ffbb11" stroke="none" /><path d="M 80.28708602549918 107.23885506374661 l -1.4014430803265365 0.5146293111052488 a22.492945422727768,22.492945422727768 0 0,0 -0.12998762055776703,-0.36359850947846833 l 1.4100708709282468 -0.490495845245859" fill="#ff0400" stroke="none" /><line stroke="#e1ed5e" stroke-width="0.3" x1="15.003131293944662" x2="10.003315487706104" y1="100.72959589197737" y2="100.7725132973878" /><path d="M 14.003168132696942 100.73817937305945 a86.0,86.0 0 0,1 10.791469493833604,-42.45332614584628" fill="none" id="id22" stroke="none" /><text fill="#e1ed5e" style="font-size:6.75px; font-family:Arial;" text-anchor="middle"><textPath startOffset="22.145653131862435" xlink:href="#id22">October</textPath></text><line stroke="#e1ed5e" stroke-width="0.3" x1="26.387840678322718" x2="22.05771365940052" y1="57.49999999999999" y2="54.99999999999999" /><path d="M 25.521815274538284 56.99999999999999 a86.0,86.0 0 0,1 29.574782752854787,-30.34633250058573" fill="none" id="id23" stroke="none" /><text fill="#e1ed5e" style="font-size:6.75px; font-family:Arial;" text-anchor="middle"><textPath startOffset="21.40746469413373" xlink:href="#id23">November</textPath></text><path d="M 85.34317274990677 84.96080404539775 l -4.925637141438566 -5.0541376320642835 a28.05735137661201,28.05735137661201 0 0,0 0.3478143112893903,-0.33319824233720924 l 4.838150344283875 5.137948004707061" fill="#ff5307" stroke="none" /><path d="M 85.60350026404147 84.71141617570332 l -2.3935715442336183 -2.541890033315827 a24.491473854811925,24.491473854811925 0 0,0 0.30855784945837744,-0.2855965389574564 l 2.349583923461288 2.582604318405649" fill="#ff2103" stroke="none" /><path d="M 85.86807049272753 84.46653392183569 l -10.75031599746349 -11.81648045938887 a36.97493363029839,36.97493363029839 0 0,0 0.47316465701643345,-0.4231067539821558 l 10.545886313623665 11.999282743254426" fill="#ffca12" stroke="none" /><path d="M 86.40962598614128 83.9905735841838 l -3.667638445303233 -4.320468866421518 a26.66727650562278,26.66727650562278 0 0,0 0.35153269403607174,-0.2932610760584051 l 3.5929314171052527 4.382792126391804" fill="#ff4006" stroke="none" /><path d="M 87.25179093698888 83.31218511350988 l -4.231107936755504 -5.538656109602379 a27.96986268680461,27.96986268680461 0 0,0 0.38404887172937063,-0.2881974331172908 l 4.135406076115381 5.610472569983671" fill="#ff5207" stroke="none" /><path d="M 87.83215693770416 82.88440491214696 l -16.955791450458374 -23.85044410700749 a50.26333111272409,50.26333111272409 0 0,0 0.7075279719466497,-0.49390947381019457 l 16.54386838733796 24.13799839662281" fill="#96ff23" stroke="none" /><path d="M 88.72937992617638 82.28071324371311 l -5.910221886789694 -9.291850467796047 a32.012229922543824,32.012229922543824 0 0,0 0.4662137251307462,-0.29095184549961256 l 5.749844032869249 9.391938110137197" fill="#ff890c" stroke="none" /><line stroke="#e1ed5e" stroke-width="0.3" x1="56.869717070023135" x2="54.33264160355391" y1="26.7553504044142" y2="22.446841604673864" /><path d="M 56.362301976729285 25.89364864446614 a86.0,86.0 0 0,1 42.16139366436587,-11.88097634709845" fill="none" id="id24" stroke="none" /><text fill="#e1ed5e" style="font-size:6.75px; font-family:Arial;" text-anchor="middle"><textPath startOffset="22.145653131862474" xlink:href="#id24">December</textPath></text><path d="M 89.34428304082924 81.90426304109057 l -3.1077982525896877 -5.277720862491629 a27.12476509599992,27.12476509599992 0 0,0 0.40326457002326205,-0.23282490805756778 l 3.0167412147060255 5.330292667825371" fill="#ff4606" stroke="none" /><path d="M 89.97174638481275 81.54914285379989 l -7.02874156670443 -12.932092819074617 a35.718771439650794,35.718771439650794 0 0,0 0.5412434551647816,-0.28818165421639347 l 6.805709295753087 13.050844941013587" fill="#ffba11" stroke="none" /><path d="M 90.93487009805054 81.0573650232925 l -0.6495716493828602 -1.3573549169804215 a22.504777624213258,22.504777624213258 0 0,0 0.34990780410082156,-0.16377452019996167 l 0.6261751314105161 1.368305668750926" fill="#ff0400" stroke="none" /><path d="M 92.592206182469 80.34994680014964 l -22.223381452592992 -58.95015959955109 a84.0,84.0 0 0,0 1.353643393383492,-0.49707660396511244 l 21.208148907555373 59.32296705252492" fill="#4dd2ff" stroke="none" /><path d="M 93.27111125876988 80.10723608172694 l -1.3947793502075556 -4.123417312839812 a25.352927724140674,25.352927724140674 0 0,0 0.4134667275989466,-0.1359147258545106 l 1.323789884960848 4.146752960096351" fill="#ff2d04" stroke="none" /><path d="M 93.61358852112211 79.99465700312896 l -2.803367070305634 -8.781507419789913 a30.218120171417777,30.218120171417777 0 0,0 0.49551870181137503,-0.15351296047408514 l 2.6522077356226426 8.82833696807064" fill="#ff710a" stroke="none" /><path d="M 94.6519064749342 79.69241777938228 l -1.8239803257876428 -6.925950389819684 a28.162101160351188,28.162101160351188 0 0,0 0.4685566227180068,-0.11910526121849815 l 1.704818409844258 6.956240882873446" fill="#ff5407" stroke="none" /><path d="M 95.00130118170881 79.60360301121753 l -0.6647502854812438 -2.712408011354628 a23.792677955316037,23.792677955316037 0 0,0 0.39752788909246456,-0.09381549941349754 l 0.6180902426488734 2.7234196544143576" fill="#ff1602" stroke="none" /><path d="M 95.35216902796891 79.52079915486377 l -0.6175818940792539 -2.7211797768200086 a23.79038111620415,23.79038111620415 0 0,0 0.39904125486104336,-0.08696918422543884 l 0.5707782225990922 2.7313804191791613" fill="#ff1602" stroke="none" /><path d="M 95.70440661134978 79.44403061299748 l -1.5671308292228308 -7.49928832557749 a28.66128086066837,28.66128086066837 0 0,0 0.48246969111571525,-0.09650745057490036 l 1.4381646525761387 7.525085172815257" fill="#ff5b08" stroke="none" /><path d="M 96.41257539226777 79.30868818359171 l -0.9877459220756623 -5.6970559952681175 a26.782048860032013,26.782048860032013 0 0,0 0.4536655854211996,-0.074650499441057 l 0.8898028336013898 5.713172493204843" fill="#ff4106" stroke="none" /><path d="M 97.48249496171623 79.15144685158666 l -1.3950788892677322 -11.55325448284136 a32.63717896453322,32.63717896453322 0 0,0 0.5567966426677073,-0.062390225177574976 l 1.1965463449992255 11.575500468525906" fill="#ff910d" stroke="none" /><path d="M 98.5590905019552 79.04949213459386 l -0.1339813401464513 -1.9480592808671948 a22.95266125103159,22.95266125103159 0 0,0 0.39331641832255276,-0.023660939035457948 l 0.10052056969141475 1.9500721977273467" fill="#ff0a01" stroke="none" /></svg>