<?xml version="1.0" encoding="utf-8" ?>
<svg baseProfile="full" height="200mm" version="1.1" viewBox="0,0,200,200" width="200mm" xmlns="http://www.w3.org/2000/svg" xmlns:ev="http://www.w3.org/2001/xml-events" xmlns:xlink="http://www.w3.org/1999/xlink"><defs /><rect fill="#1a1a1a" height="200" width="200" x="0" y="0" /><text alignment-baseline="middle" fill="#e1ed5e" style="dominant-baseline: central; font-size:9.0px; font-family:Arial;" text-anchor="middle" x="100.0" y="100.0">2024</text><line stroke="#e1ed5e" stroke-width="0.3" x1="100.0" x2="100.0" y1="15.0" y2="10.0" /><path d="M 100.0 14.0 a86.0,86.0 0 0,1 42.35913384403234,11.155469271406648" fill="none" id="id109" stroke="none" /><text fill="#e1ed5e" style="font-size:6.75px; font-family:Arial;" text-anchor="middle"><textPath startOffset="22.145653131862478" xlink:href="#id109">January</textPath></text><path d="M 100.0 79.0 l 0.0 -0.6724231013741502 a21.67242310137415,21.67242310137415 0 0,0 0.37203596154172647,0.0031934812816153155 l -0.011543036692871685 0.6723240182869697" fill="#ff0100" stroke="none" /><path d="M 101.44090949804482 79.04949213459386 l 0.22109353670180532 -3.2146515002828915 a24.222245586581252,24.222245586581252 0 0,0 0.41458219428505066,0.03209128383870938 l -0.27624472576208947 3.210382449449128" fill="#ff2503" stroke="none" /><path d="M 102.15924093988457 79.11130261209362 l 2.707339053058632 -26.191049438339206 a47.33060491955597,47.33060491955597 0 0,0 0.8074693570568389,0.09047862567812372 l -3.1565443117162673 26.14071505215411" fill="#b3ff20" stroke="none" /><path d="M 104.29559338865022 79.4440306129975 l 0.3035126932136119 -1.4524181098588897 a22.4837918724632,22.4837918724632 0 0,0 0.3771255483045139,0.08219275798447358 l -0.3284006581372599 1.4469938937406974" fill="#ff0d01" stroke="none" /><path d="M 104.9986988182912 79.60360301121754 l 0.7635989727909276 -3.1157443877753863 a24.207950511027434,24.207950511027434 0 0,0 0.40276808430545685,0.10238207201810548 l -0.8169723503217788 3.102177083922013" fill="#ff2503" stroke="none" /><path d="M 106.72888874123014 80.10723608172694 l 13.682648526911432 -40.45031912249992 a63.70179373074478,63.70179373074478 0 0,0 1.0328615750332113,0.3592828713172262 l -14.375015873989662 40.209477818614104" fill="#34ff5b" stroke="none" /><path d="M 107.74402155503746 80.48000691201159 l 1.1365068320402878 -2.8647396379529693 a24.081944349356938,24.081944349356938 0 0,0 0.38295513720608804,0.15574452042814016 l -1.1855164304368155 2.844807860945535" fill="#ff2303" stroke="none" /><path d="M 108.73861861582097 80.90454125486305 l 1.9603496255793664 -4.283717718670422 a25.71096679544232,25.71096679544232 0 0,0 0.39975813504699526,0.1871069921735418 l -2.0335964744978665 4.249434494926347" fill="#ff3a05" stroke="none" /><path d="M 109.06512990194946 81.05736502329252 l 3.0716201222659127 -6.418504686919069 a28.115620323732212,28.115620323732212 0 0,0 0.43356930845141906,0.21208047519870346 l -3.1813496799793985 6.364830461623145" fill="#ff5c08" stroke="none" /><path d="M 110.02825361518725 81.54914285379988 l 2.9446550211554983 -5.417833575518968 a27.16635336691281,27.16635336691281 0 0,0 0.4078262278821122,0.22621433388499904 l -3.0372254371937104 5.366486326200823" fill="#ff4f07" stroke="none" /><path d="M 110.34350942703115 81.72400993836675 l 4.101753590147532 -7.247405571352709 a29.327620910557975,29.327620910557975 0 0,0 0.43601448323862435,0.25173307926839533 l -4.225560541246553 7.175925594808142" fill="#ff6c0a" stroke="none" /><line stroke="#e1ed5e" stroke-width="0.3" x1="143.13028292997686" x2="145.6673583964461" y1="26.7553504044142" y2="22.446841604673864" /><path d="M 143.63769802327073 25.89364864446614 a86.0,86.0 0 0,1 29.32050498858742,28.57503671076993" fill="none" id="id110" stroke="none" /><text fill="#e1ed5e" style="font-size:6.75px; font-family:Arial;" text-anchor="middle"><textPath startOffset="20.669276256404974" xlink:href="#id110">February</textPath></text><path d="M 110.65571695917076 81.90426304109057 l 4.145740367946843 -7.040373490188562 a29.170313462761015,29.170313462761015 0 0,0 0.42931373201386247,0.25779056088890384 l -4.265986856518139 6.968168928763737" fill="#ff6a09" stroke="none" /><path d="M 111.27062007382361 82.28071324371311 l 2.2496155462721847 -3.536769289950399 a25.191599589221966,25.191599589221966 0 0,0 0.3628962296270532,0.2352249516563943 l -2.309997408156245 3.49763049659011" fill="#ff3304" stroke="none" /><path d="M 111.8722381534696 82.67804972795209 l 4.944956429387581 -7.21483921228978 a29.746799354491664,29.746799354491664 0 0,0 0.41872856719318763,0.29230506000019363 l -5.068080087754529 7.12888933648446" fill="#ff720a" stroke="none" /><path d="M 112.16784306229584 82.88440491214696 l 4.201235069751076 -5.909563260686896 a28.250745757738763,28.250745757738763 0 0,0 0.39284543963603746,0.2843898029200646 l -4.302061519761081 5.836572686393757" fill="#ff5e08" stroke="none" /><path d="M 112.7482090630111 83.31218511350987 l 3.0383616039297645 -3.9773128722618423 a26.005063328280112,26.005063328280112 0 0,0 0.35241821011236624,0.27404253176586313 l -3.1061897586773566 3.924569288875188" fill="#ff3f05" stroke="none" /><path d="M 115.16444852881244 85.47280134310134 l 10.124310575659967 -9.698860510311638 a35.02032666634065,35.02032666634065 0 0,0 0.4121461636303134,0.4376849432911735 l -10.28931257302654 9.523634107075969" fill="#ffb711" stroke="none" /><path d="M 115.6541949942343 86.00192230759917 l 5.64097603744016 -5.044195556663375 a28.567332387891827,28.567332387891827 0 0,0 0.32374804954931824,0.36836585077736983 l -5.726735150948068 4.946617428074707" fill="#ff6209" stroke="none" /><path d="M 116.35404254752997 86.82634096563983 l 5.283565761257696 -4.25606657327311 a27.78455376791041,27.78455376791041 0 0,0 0.29601606607267184,0.3740066294008835 l -5.355848257971928 4.164739999957549" fill="#ff5708" stroke="none" /><path d="M 116.7966241395341 87.39550010848427 l 15.773515963304417 -11.83674044240457 a40.720857743654946,40.720857743654946 0 0,0 0.41476710629438684,0.56271123801754 l -15.974385089182631 11.564222895118155" fill="#fffe18" stroke="none" /><path d="M 117.01052211995028 87.68569379921539 l 0.8670549863595567 -0.6276809447504431 a22.070405398797007,22.070405398797007 0 0,0 0.21953211700626368,0.30879941532952726 l -0.877702201895781 0.6127043027114119" fill="#ff0701" stroke="none" /><path d="M 117.42321728460499 88.27688183743584 l 8.245563779945748 -5.547983298967086 a30.938281578561302,30.938281578561302 0 0,0 0.29269906911663257,0.44318369659253665 l -8.339587287983104 5.405619724035491" fill="#ff820c" stroke="none" /><path d="M 117.62189284568427 88.57770195909679 l 2.5888128110633253 -1.6780371869821995 a24.085086801310577,24.085086801310577 0 0,0 0.22190658055754198,0.348874002339804 l -2.6172370832467573 1.6333495099637234" fill="#ff2303" stroke="none" /><path d="M 117.81537515405839 88.88188828441811 l 6.2737581084358744 -3.9152890648074874 a28.395236930901266,28.395236930901266 0 0,0 0.25451872606069903,0.4157372111953072 l -6.340044798951976 3.8070147374876253" fill="#ff6008" stroke="none" /><line stroke="#e1ed5e" stroke-width="0.3" x1="172.87174338648825" x2="177.1583165268699" y1="56.24261187166439" y2="53.66864786411523" /><path d="M 173.72905801456457 55.72781907015455 a86.0,86.0 0 0,1 12.242430191666344,42.057860355516425" fill="none" id="id111" stroke="none" /><text fill="#e1ed5e" style="font-size:6.75px; font-family:Arial;" text-anchor="middle"><textPath startOffset="22.145653131862474" xlink:href="#id111">March</textPath></text><path d="M 118.18653347947321 89.5 l 4.56418045312665 -2.6351308132427005 a26.2702616264854,26.2702616264854 0 0,0 0.22212961700109937,0.3924817491921298 l -4.608743435149126 2.5563922939514527" fill="#ff4206" stroke="none" /><path d="M 118.36410011445183 89.81374322990088 l 3.0277191535952768 -1.6794247762784682 a24.462304269157418,24.462304269157418 0 0,0 0.20053806852666378,0.3689674590156757 l -3.0561025717372816 1.6272024837881893" fill="#ff2904" stroke="none" /><path d="M 118.53625476483649 90.13048839642627 l 8.819519016086515 -4.6958971146819355 a30.991764878478165,30.991764878478165 0 0,0 0.24600367302228654,0.4717444798203624 l -8.898830758083745 4.543806391757075" fill="#ff830c" stroke="none" /><path d="M 118.70294669586156 90.45014215332178 l 7.18650826089278 -3.6694823239105285 a29.069138833194778,29.069138833194778 0 0,0 0.22311268190449526,0.4463748210694553 l -7.248440856009013 3.5455756466773227" fill="#ff6909" stroke="none" /><path d="M 118.8641267826498 90.77261029715802 l 8.45589625949135 -4.136202590882411 a30.41330725218837,30.41330725218837 0 0,0 0.22537816392755927,0.47095368044116087 l -8.525653681378822 3.990436408376147" fill="#ff7b0b" stroke="none" /><path d="M 119.0197475246899 91.09779779509293 l 3.214838659068348 -1.5047068191640136 a24.549553523399677,24.549553523399677 0 0,0 0.17537211473249337,0.3832197203181302 l -3.240195238655893 1.4492981166311991" fill="#ff2a04" stroke="none" /><path d="M 119.16976305983485 91.42560881287824 l 8.920422238176464 -3.9899914039461364 a30.77210132524818,30.77210132524818 0 0,0 0.21154518145269155,0.48405677430620603 l -8.987601301646125 3.836272559864081" fill="#ff800b" stroke="none" /><path d="M 119.31412917781788 91.75594674310238 l 5.673588019266706 -2.421717353027222 a27.16881803511174,27.16881803511174 0 0,0 0.1794101379029088,0.4305190189995565 l -5.714324001706098 2.3239658245863875" fill="#ff4f07" stroke="none" /><path d="M 119.71291397450082 92.76114493625339 l 2.8972749001810976 -1.0639194747854608 a24.08644236881999,24.08644236881999 0 0,0 0.1391965023869693,0.38935739092190536 l -2.9151115726120103 1.0140271274826387" fill="#ff2303" stroke="none" /><path d="M 119.83427380445688 93.10060997987247 l 2.913540272129677 -1.0134805476091675 a24.08477871778571,24.08477871778571 0 0,0 0.13248300286228057,0.3916624572754366 l -2.9305086965643223 0.9633164158595693" fill="#ff2303" stroke="none" /><path d="M 119.94978838288452 93.4421083053983 l 2.928694103851126 -0.9627199231923506 a24.082868599931537,24.082868599931537 0 0,0 0.1257301020882125,0.3938477540360877 l -2.9447889217165955 0.9123031354648758" fill="#ff2303" stroke="none" /><path d="M 120.16314734710363 94.1308016681162 l 7.706169741283229 -2.24315370076636 a29.026007139713435,29.026007139713435 0 0,0 0.13515270224643464,0.47960926086738703 l -7.743540935604245 2.1105365159959595" fill="#ff6809" stroke="none" /><path d="M 120.26092885502905 94.47779374421319 l 2.973062681702356 -0.810321454520478 a24.081513032422123,24.081513032422123 0 0,0 0.10528267688163473,0.3997754727287085 l -2.986534839388721 0.7591654774189709" fill="#ff2303" stroke="none" /><path d="M 120.43855184770803 95.1765574152323 l 3.00386442970814 -0.7089038263123316 a24.08638075211502,24.08638075211502 0 0,0 0.09151578897167927,0.4032354520055016 l -3.0155910802374857 0.6572340403678038" fill="#ff2303" stroke="none" /><path d="M 120.51834098615036 95.52812308129327 l 6.051771742216659 -1.3189554842454054 a27.193834417330923,27.193834417330923 0 0,0 0.09549217149510016,0.4569646091592782 l -6.073521624536126 1.2148744238007227" fill="#ff4f07" stroke="none" /><path d="M 120.592083275326 95.88100663000786 l 6.042405414784667 -1.208650310390152 a27.162101814269647,27.162101814269647 0 0,0 0.0875314351991038,0.4580014562255636 l -6.062263142265928 1.1047462891312738" fill="#ff4f07" stroke="none" /><path d="M 120.65975698304385 96.23510406497455 l 3.033041050359232 -0.5527211152887628 a24.082991833341485,24.082991833341485 0 0,0 0.07062644987568407,0.40735459463425544 l -3.0420823177271505 0.5005734877339146" fill="#ff2303" stroke="none" /><path d="M 120.7213421655516 96.59031103205396 l 9.804460768595588 -1.613320288437515 a30.936309844002153,30.936309844002153 0 0,0 0.0817285861377875,0.5247561511363933 l -9.830710846871641 1.4447759553696806" fill="#ff820c" stroke="none" /><path d="M 120.86939407059847 97.66154086499901 l 3.7203019399088886 -0.416867592174052 a24.743584527360753,24.743584527360753 0 0,0 0.04367549904080612,0.42252083400102836 l -3.7269098314313607 0.3529422358900922" fill="#ff2d04" stroke="none" /><path d="M 120.93736805541906 98.37931529534042 l 4.436133653430091 -0.34338480084553585 a25.449403882830456,25.449403882830456 0 0,0 0.029977021084362482,0.4358593075148664 l -4.44137463567952 0.2671820691763353" fill="#ff3705" stroke="none" /><path d="M 120.98066250479742 99.09900007780936 l 3.2030881650436296 -0.137554387847103 a24.20604039317326,24.20604039317326 0 0,0 0.014264634592021732,0.41529927206515205 l -3.204977486632499 0.08254885121783101" fill="#ff2503" stroke="none" /><path d="M 120.99303781780057 99.45929381324524 l 25.15364047843072 -0.6478685526189099 a46.161982493031445,46.161982493031445 0 0,0 0.013603646961871732,0.7923442359331024 l -25.161055556991258 0.21597740071674107" fill="#c0ff1e" stroke="none" /><line stroke="#e1ed5e" stroke-width="0.3" x1="184.99686870605535" x2="189.99668451229388" y1="99.2704041080226" y2="99.22748670261217" /><path d="M 185.99683186730306 99.26182062694052 a86.0,86.0 0 0,1 -10.086455211305974,41.156179273409016" fill="none" id="id112" stroke="none" /><text fill="#e1ed5e" style="font-size:6.75px; font-family:Arial;" text-anchor="middle"><textPath startOffset="21.40746469413373" xlink:href="#id112">April</textPath></text><path d="M 120.99922638620191 100.18025310272382 l 3.083617632990112 0.026469148707572884 a24.083731233801164,24.083731233801164 0 0,0 -0.007097324671412655,0.41338358086645904 l -3.0827088767200315 -0.07939964554310294" fill="#ff2303" stroke="none" /><path d="M 120.82617615685814 102.69636545807757 l 3.0839932059087665 0.39928466419986397 a24.109733483299916,24.109733483299916 0 0,0 -0.05666416913301444,0.40999370062220425 l -3.0766845202205415 -0.45216667302215324" fill="#ff2403" stroke="none" /><path d="M 120.77682067341334 103.0534771498775 l 3.0644921466041812 0.4503748139679927 a24.097410142305247,24.097410142305247 0 0,0 -0.06366135038225111,0.40875153702543116 l -3.056309304083663 -0.5029145329248744" fill="#ff2403" stroke="none" /><path d="M 120.7213421655516 103.40968896794604 l 5.953264201156976 0.9796073588176597 a27.033322900875348,27.033322900875348 0 0,0 -0.07927867260198904,0.45725831608087353 l -5.935570711062753 -1.0816587078191213" fill="#ff4d07" stroke="none" /><path d="M 120.592083275326 104.11899336999214 l 9.593218096111775 1.918912292964559 a30.783253948848355,30.783253948848355 0 0,0 -0.10809655306966665,0.51728113783105 l -9.558863832217744 -2.0833098820810183" fill="#ff800b" stroke="none" /><path d="M 120.43855184770803 104.8234425847677 l 6.142240097504425 1.449551938558354 a27.310967773485256,27.310967773485256 0 0,0 -0.11160103323221436,0.4553702995334172 l -6.116451537755914 -1.5547780626998706" fill="#ff5107" stroke="none" /><path d="M 120.35273937422433 105.17358676015961 l 5.065721088473864 1.2876864913418333 a26.22682184947919,26.22682184947919 0 0,0 -0.11466181575440612,0.4353895907176085 l -5.042869791914727 -1.3744565864322449" fill="#ff4206" stroke="none" /><path d="M 120.16314734710363 105.8691983318838 l 3.0824205674960936 0.8972477035194177 a24.210353562521394,24.210353562521394 0 0,0 -0.11958033169133113,0.3980440328053334 l -3.0665639158011326 -0.9500293399154747" fill="#ff2503" stroke="none" /><path d="M 119.83427380445688 106.89939002012753 l 25.658929502292892 8.925507627886807 a48.1669900728642,48.1669900728642 0 0,0 -0.2783589392732321,0.7786194945754557 l -25.501930392975716 -9.364662078843184" fill="#aaff21" stroke="none" /><path d="M 119.58574465831526 107.57618678355244 l 0.5756479169905935 0.22267298061766805 a21.61721453371803,21.61721453371803 0 0,0 -0.13684862588828703,0.3449479333773842 l -0.5717406161361821 -0.23252193120861644" fill="#ff0000" stroke="none" /><path d="M 119.31412917781788 108.2440532568976 l 2.83571727691964 1.2103990833446112 a24.083238300161376,24.083238300161376 0 0,0 -0.16556207723117278,0.3788384330081149 l -2.8145213176715016 -1.2588995861285708" fill="#ff2303" stroke="none" /><path d="M 119.0197475246899 108.90220220490707 l 9.527210947237135 4.459215780388863 a31.519142256345056,31.519142256345056 0 0,0 -0.23357296697140534,0.48807766701880556 l -9.449258722305817 -4.622105949472772" fill="#ff8a0c" stroke="none" /><path d="M 118.8641267826498 109.22738970284198 l 3.8785249822699015 1.8971809241935897 a25.317667367597437,25.317667367597437 0 0,0 -0.19431922969456417,0.3887686286806119 l -3.845385839363605 -1.9634814090379475" fill="#ff3505" stroke="none" /><line stroke="#e1ed5e" stroke-width="0.3" x1="174.33088141563837" x2="178.70328620479359" y1="141.23008692659167" y2="143.65538615756765" /><path d="M 175.20536237346943 141.71514677278685 a86.0,86.0 0 0,1 -30.301960400862466,31.631185727798858" fill="none" id="id113" stroke="none" /><text fill="#e1ed5e" style="font-size:6.75px; font-family:Arial;" text-anchor="middle"><textPath startOffset="22.145653131862474" xlink:href="#id113">May</textPath></text><path d="M 118.36410011445183 110.18625677009912 l 6.46720940526275 3.587252039437751 a28.395483397721158,28.395483397721158 0 0,0 -0.24009954454879356,0.42423288932370345 l -6.404676495692579 -3.697741698860577" fill="#ff6008" stroke="none" /><path d="M 118.18653347947321 110.5 l 9.606854658643458 5.546520123233408 a32.09304024646682,32.09304024646682 0 0,0 -0.27955527537820457,0.4747459742130007 l -9.510225673135487 -5.710617265739958" fill="#ff910d" stroke="none" /><path d="M 118.00360718960297 110.81064883170644 l 11.094708623848405 6.662053751750133 a33.9412333121424,33.9412333121424 0 0,0 -0.30422987786850436,0.49693664173526453 l -10.978710781524496 -6.851527509609954" fill="#ffa90f" stroke="none" /><path d="M 117.21940702142032 112.02048342749411 l 2.5302398267868247 1.7663039074250235 a24.085764585065284,24.085764585065284 0 0,0 -0.23957869343723454,0.3369974355812331 l -2.4995460348196294 -1.8094785697157607" fill="#ff2303" stroke="none" /><path d="M 117.01052211995028 112.31430620078461 l 2.495852616157954 1.806804819433033 a24.081204948897255,24.081204948897255 0 0,0 -0.24528195735985941,0.3327720829225272 l -2.4644686392142665 -1.8493832116244375" fill="#ff2303" stroke="none" /><path d="M 116.79662413953412 112.60449989151573 l 4.931795719037152 3.700911450371107 a27.16598366668297,27.16598366668297 0 0,0 -0.28310580041327765,0.37059458055926575 l -4.86753794126957 -3.7850269441712503" fill="#ff4f07" stroke="none" /><path d="M 116.1254893667686 113.45245675266167 l 8.307059765569848 6.930044707257027 a31.818168125580712,31.818168125580712 0 0,0 -0.3534929334734583,0.4164137867863955 l -8.186872268589275 -7.07162527649298" fill="#ff8e0d" stroke="none" /><path d="M 115.89218393027572 113.72728997021213 l 5.708269783928494 4.930667483838205 a28.542932172722384,28.542932172722384 0 0,0 -0.3234715266327838,0.3680512184589644 l -5.622787193337125 -5.027930980108462" fill="#ff6209" stroke="none" /><path d="M 115.41159269507618 114.26474011684316 l 2.264597473234139 2.096077612748316 a24.085764585065284,24.085764585065284 0 0,0 -0.2834598193905084,0.30102450519603663 l -2.228281820107371 -2.1346435778888497" fill="#ff2303" stroke="none" /><path d="M 115.16444852881244 114.52719865689866 l 2.3146455384146476 2.217378066400876 a24.205362609418554,24.205362609418554 0 0,0 -0.29001851026002134,0.29758454076304436 l -2.2762402270038193 -2.2567852992316575" fill="#ff2503" stroke="none" /><path d="M 114.65682725009322 115.03919595460226 l 7.884583201699857 8.090276958812849 a32.296868306518654,32.296868306518654 0 0,0 -0.40036968764625663,0.38354510403637676 l -7.744541028188288 -8.224434193154805" fill="#ff940d" stroke="none" /><path d="M 113.86319453409587 115.77377054828091 l 2.1174099216754674 2.4092238032884623 a24.207457577387647,24.207457577387647 0 0,0 -0.3144900557086429,0.2716490198201348 l -2.0757403862039685 -2.445216955573315" fill="#ff2503" stroke="none" /><path d="M 113.31354834802062 116.24036423190432 l 1.9666993157497568 2.399053384379056 a24.102154628588195,24.102154628588195 0 0,0 -0.3222219687978438,0.2595592091671636 l -1.9252265765966605 -2.432460887339623" fill="#ff2403" stroke="none" /><path d="M 112.45986205192187 116.90419585922612 l 13.865598202479259 18.811346926901965 a44.36924446183188,44.36924446183188 0 0,0 -0.6169839018197413,0.4466487644757444 l -13.54063329028555 -19.046596462750788" fill="#d5ff1c" stroke="none" /><path d="M 111.27062007382361 117.71928675628689 l 1.654993747023062 2.6019250574750874 a24.08366961709619,24.08366961709619 0 0,0 -0.350745241870728,0.21889097193326157 l -1.6100843763626191 -2.6299518262498967" fill="#ff2303" stroke="none" /><line stroke="#e1ed5e" stroke-width="0.3" x1="143.1302829299769" x2="145.66735839644613" y1="173.24464959558577" y2="177.55315839532614" /><path d="M 143.63769802327073 174.10635135553383 a86.0,86.0 0 0,1 -40.68552437913181,11.842963189579606" fill="none" id="id114" stroke="none" /><text fill="#e1ed5e" style="font-size:6.75px; font-family:Arial;" text-anchor="middle"><textPath startOffset="21.407464694133747" xlink:href="#id114">June</textPath></text><path d="M 110.65571695917076 118.09573695890943 l 2.1542379869552075 3.6583670632581864 a25.245514206073647,25.245514206073647 0 0,0 -0.3753256994225478,0.21669439359539336 l -2.091119819672261 -3.6948083541297514" fill="#ff3404" stroke="none" /><path d="M 109.71004243097381 118.62028667847754 l 3.7059607490648356 7.106668385572861 a29.014916132818232,29.014916132818232 0 0,0 -0.4436142730719691,0.22651260870738524 l -3.583419254279284 -7.169238945953082" fill="#ff6809" stroke="none" /><path d="M 109.06512990194946 118.94263497670748 l 1.7024481524891508 3.5574618641081903 a24.943838818524135,24.943838818524135 0 0,0 -0.3878307092199126,0.18152435463543182 l -1.6411287293977321 -3.586162450314156" fill="#ff3004" stroke="none" /><path d="M 108.4095320186766 119.2426549942271 l 0.5736115922681047 1.312535578221322 a22.432403540515427,22.432403540515427 0 0,0 -0.3541808663646453,0.1511787509549083 l -0.5509956507330283 -1.322188978835634" fill="#ff0c01" stroke="none" /><path d="M 108.07796709384702 119.3841803445677 l 2.3713172824251756 5.690298230074746 a27.16462809917355,27.16462809917355 0 0,0 -0.4319764936733239,0.17568107934057292 l -2.2732863275614106 -5.730166565994611" fill="#ff4f07" stroke="none" /><path d="M 107.407793817531 119.65005319985036 l 1.8372082162080041 4.873413066958436 a26.20821360457724,26.20821360457724 0 0,0 -0.42234018093118253,0.15508916445899418 l -1.7532788836226947 -4.9042330804261525" fill="#ff4106" stroke="none" /><path d="M 107.06938296918513 119.77432235084164 l 2.2819839621152163 6.383115282198179 a27.778761797642915,27.778761797642915 0 0,0 -0.4504051453254127,0.15667428993412316 l -2.172073044744782 -6.421348004700892" fill="#ff5708" stroke="none" /><path d="M 106.72888874123015 119.89276391827305 l 1.9834246064178598 5.863642417418095 a27.190014181622573,27.190014181622573 0 0,0 -0.44342674382101815,0.14576317826824284 l -1.8824751249491074 -5.896826517088358" fill="#ff4f07" stroke="none" /><path d="M 106.0420521117495 120.11202640906438 l 2.27064035363584 7.558223251501911 a28.891929189691428,28.891929189691428 0 0,0 -0.47622152438053733,0.13862114522031166 l -2.1405588168736958 -7.596088091024741" fill="#ff6609" stroke="none" /><path d="M 105.69591212413111 120.21278271476187 l 0.8722775925319821 3.0954054522907715 a24.21596068267397,24.21596068267397 0 0,0 -0.4010838818889602,0.109317195549637 l -0.8190123097083267 -3.1099231419845506" fill="#ff2503" stroke="none" /><path d="M 105.3480935250658 120.30758222061773 l 1.5705804236983312 5.963749687409225 a27.167092767372488,27.167092767372488 0 0,0 -0.4520018291130733,0.11489709742113811 l -1.4679733013598606 -5.989832016665632" fill="#ff4f07" stroke="none" /><path d="M 104.9986988182912 120.39639698878246 l 0.7342653203778546 2.996053075796615 a24.084717101080738,24.084717101080738 0 0,0 -0.4024072770019286,0.09496702167424734 l -0.6827258896360469 -3.0082162411170876" fill="#ff2303" stroke="none" /><path d="M 104.29559338865022 120.5559693870025 l 2.5508375868414963 12.206681266637654 a33.47035845273607,33.47035845273607 0 0,0 -0.5634233020752755,0.11270044000491723 l -2.340917799235262 -12.248671103305432" fill="#ffa30f" stroke="none" /><path d="M 102.875027216393 120.80226474461374 l 0.42251891492241905 3.057136390816574 a24.0861959020001,24.0861959020001 0 0,0 -0.4100642486308836,0.05309102675753234 l -0.36997684440076006 -3.063939013774501" fill="#ff2303" stroke="none" /><path d="M 102.51750503828377 120.84855314841334 l 0.6972438815795821 5.774179555337763 a26.816124015844295,26.816124015844295 0 0,0 -0.4574883091951243,0.05126251927461066 l -0.5980196707836585 -5.785297835119344" fill="#ff4a06" stroke="none" /><path d="M 102.15924093988457 120.88869738790638 l 0.39651304258481723 3.835903999372611 a24.85634309746198,24.85634309746198 0 0,0 -0.42480725668242697,0.040229688878265585 l -0.330606222517375 -3.8421454437560603" fill="#ff2e04" stroke="none" /><path d="M 101.08105385017728 120.97215588758144 l 0.5856024669153882 11.360531413201816 a32.3756144554746,32.3756144554746 0 0,0 -0.55527915769435,0.023846076250558693 l -0.3904975486202086 -11.368910057878205" fill="#ff950d" stroke="none" /><line stroke="#e1ed5e" stroke-width="0.3" x1="101.45913802915013" x2="101.54496967792366" y1="184.9874750549273" y2="189.98673829345242" /><path d="M 101.47630435890484 185.9873277026323 a86.0,86.0 0 0,1 -42.54439059252881,-10.42667462771756" fill="none" id="id115" stroke="none" /><text fill="#e1ed5e" style="font-size:6.75px; font-family:Arial;" text-anchor="middle"><textPath startOffset="22.145653131862474" xlink:href="#id115">July</textPath></text><path d="M 100.36049292484886 120.99690560180557 l 0.0716063866978858 4.170713038577046 a25.171327693285736,25.171327693285736 0 0,0 -0.43209931154673753,0.003709052903125374 l -5.10840310777709e-16 -4.171327693285736" fill="#ff3304" stroke="none" /><path d="M 100.0 121.0 l 9.079190846520417e-16 7.41372194239327 a28.41372194239327,28.41372194239327 0 0,0 -0.48775932042168374,-0.004186827136938921 l 0.12726639557283068 -7.412629513450766" fill="#ff6008" stroke="none" /><path d="M 99.27912038922189 120.98762331915562 l -0.13175080466259692 3.835780925014084 a24.838042936084893,24.838042936084893 0 0,0 -0.42600110584133744,-0.0182943204547726 l 0.19757767110477312 -3.8329540361334833" fill="#ff2e04" stroke="none" /><path d="M 98.91894614982273 120.97215588758144 l -0.1650429671839901 3.2017894717863107 a24.20604039317326,24.20604039317326 0 0,0 -0.41479430228540654,-0.024952995200372485 l 0.21998162160184298 -3.198484498761246" fill="#ff2503" stroke="none" /><path d="M 98.55909050195518 120.95050786540614 l -0.21194877487207092 3.081688670277883 a24.0889686537239,24.0889686537239 0 0,0 -0.41230105800170513,-0.03191470946346453 l 0.2648188276490122 -3.0775961938193652" fill="#ff2403" stroke="none" /><path d="M 97.48249496171623 120.84855314841334 l -0.3700728712935112 3.0647342541997404 a24.08699691916475,24.08699691916475 0 0,0 -0.4100778858404531,-0.05309279236733765 l 0.42262857902475837 -3.0579298656320058" fill="#ff2303" stroke="none" /><path d="M 97.12497278360702 120.80226474461374 l -0.7127407439197778 5.157036971599078 a26.206057019903174,26.206057019903174 0 0,0 -0.4450972676196644,-0.0654139705738863 l 0.8011631171471271 -5.14404192772631" fill="#ff4106" stroke="none" /><path d="M 96.76829788921471 120.74984581791261 l -0.9490100514070837 6.0933253039096735 a27.16678468384762,27.16678468384762 0 0,0 -0.46018268960752695,-0.0757228864548662 l 1.0534702440676742 -6.0761364189591385" fill="#ff4f07" stroke="none" /><path d="M 96.05791012581884 120.62667999033965 l -1.6242397298114066 8.49870860475362 a29.65252579588244,29.65252579588244 0 0,0 -0.4991558134156365,-0.09984514235699576 l 1.7698920287580011 -8.469574065733763" fill="#ff710a" stroke="none" /><path d="M 95.35216902796893 120.47920084513623 l -2.721984741617073 11.993567011455335 a33.29857107927038,33.29857107927038 0 0,0 -0.5563522818153741,-0.1312976236397042 l 2.927469177172335 -11.945073244169404" fill="#ffa10e" stroke="none" /><path d="M 94.30408787586889 120.21278271476187 l -1.2225055776851683 4.338241017562078 a25.507200352095456,25.507200352095456 0 0,0 -0.42043152447877125,-0.12238148934108109 l 1.2967971145455464 -4.3166158339184815" fill="#ff3805" stroke="none" /><path d="M 93.95794788825049 120.11202640906438 l -0.8872943660611162 2.9535143677646993 a24.083916083916083,24.083916083916083 0 0,0 -0.394929623839525,-0.12235020699097594 l 0.937864622772275 -2.9378475729670743" fill="#ff2303" stroke="none" /><path d="M 93.61358852112213 120.00534299687104 l -2.621992154673539 8.213353079868492 a29.621717443395767,29.621717443395767 0 0,0 -0.4830840331517268,-0.1587993169651029 l 2.7625989254730094 -8.167132841501369" fill="#ff700a" stroke="none" /><path d="M 93.27111125876986 119.89276391827306 l -2.3243343483949332 6.871481493881949 a28.25394982639738,28.25394982639738 0 0,0 -0.45810984918180314,-0.15935438588413844 l 2.441949969621758 -6.83056867542922" fill="#ff5e08" stroke="none" /><path d="M 92.59220618246901 119.65005319985036 l -1.0875100666037811 2.884749655634934 a24.08293021663651,24.08293021663651 0 0,0 -0.3855880542507589,-0.14915374275902415 l 1.1368703833480682 -2.8656560247378695" fill="#ff2303" stroke="none" /><path d="M 91.92203290615298 119.3841803445677 l -4.81504355151484 11.554351668578237 a33.51749523204069,33.51749523204069 0 0,0 -0.5292012279565239,-0.2258845359644675 l 5.012679854641795 -11.469992482954366" fill="#ffa40f" stroke="none" /><path d="M 91.59046798132341 119.24265499422711 l -1.2347935179538345 2.825449216713112 a24.08348476698127,24.08348476698127 0 0,0 -0.37740724044495305,-0.16880945822472807 l 1.2831141612544228 -2.8038360075785294" fill="#ff2303" stroke="none" /><path d="M 91.26138138417905 119.09545874513695 l -1.2832423624175466 2.8041161502565815 a24.083792850506136,24.083792850506136 0 0,0 -0.3744585799272083,-0.1752655229280551 l 1.3311896562162449 -2.781674395758" fill="#ff2303" stroke="none" /><path d="M 89.97174638481275 118.45085714620012 l -1.8208275912221166 3.3501176837629885 a24.812964937160743,24.812964937160743 0 0,0 -0.37249673359613195,-0.206617658953372 l 1.878068512974351 -3.318367109376468" fill="#ff2e04" stroke="none" /><line stroke="#e1ed5e" stroke-width="0.3" x1="58.13341422392154" x2="55.67067388415222" y1="173.97424548756322" y2="178.32567169271397" /><path d="M 57.64086615596768 174.84453072859336 a86.0,86.0 0 0,1 -31.369924170532247,-30.572349798747897" fill="none" id="id116" stroke="none" /><text fill="#e1ed5e" style="font-size:6.75px; font-family:Arial;" text-anchor="middle"><textPath startOffset="22.145653131862474" xlink:href="#id116">August</textPath></text><path d="M 89.65649057296885 118.27599006163327 l -1.5197052894004337 2.6851736310222236 a24.085394884835445,24.085394884835445 0 0,0 -0.3580781760762965,-0.20673653134858155 l 1.56557593333713 -2.6586902023974703" fill="#ff2303" stroke="none" /><path d="M 89.03521579738668 117.91015095944536 l -3.2936498044698754 5.379929428209235 a27.30807178835151,27.30807178835151 0 0,0 -0.39770418697445503,-0.2481968267465487 l 3.385518120234043 -5.3225968046211385" fill="#ff5107" stroke="none" /><path d="M 88.4268655584334 117.5232005979908 l -3.766042491201678 5.702268332497728 a27.83366228177417,27.83366228177417 0 0,0 -0.3964357954444296,-0.26673969554243165 l 3.8633745747431134 -5.636778962898175" fill="#ff5808" stroke="none" /><path d="M 87.83215693770417 117.11559508785305 l -4.641405260317981 6.528717757742424 a29.010418113355176,29.010418113355176 0 0,0 -0.4034091898138631,-0.29203714339562553 l 4.752795460505798 -6.448079842973733" fill="#ff6809" stroke="none" /><path d="M 87.54013794807813 116.9041958592261 l -1.8305742461650898 2.4835255368864093 a24.085271651425497,24.085271651425497 0 0,0 -0.3307102900933711,-0.24817116707361409 l 1.872937525169227 -2.4517353425487802" fill="#ff2303" stroke="none" /><path d="M 87.2517909369889 116.68781488649013 l -1.8753688428544815 2.4549180154451244 a24.089276737248767,24.089276737248767 0 0,0 -0.3264556476357587,-0.25385388615089727 l 1.9172344351254687 -2.422363077673434" fill="#ff2403" stroke="none" /><path d="M 86.96720088162412 116.46651593811092 l -4.4774729795242205 5.657140842126664 a28.21463836862438,28.21463836862438 0 0,0 -0.37720180889029364,-0.30384707652696696 l 4.573925558769776 -5.579445471806286" fill="#ff5d08" stroke="none" /><path d="M 86.68645165197938 116.24036423190432 l -2.524137825973986 3.0790377286187023 a24.981425008557878,24.981425008557878 0 0,0 -0.32930950531327524,-0.27472170163074977 l 2.576621665449154 -3.0352538430760823" fill="#ff3004" stroke="none" /><path d="M 86.40962598614128 116.0094264158162 l -3.989744089928958 4.699908505867498 a27.164997799403395,27.164997799403395 0 0,0 -0.3529128015178061,-0.304837672524396 l 4.069836371209626 -4.6307267008783795" fill="#ff4f07" stroke="none" /><path d="M 85.86807049272751 115.53346607816431 l -6.352422907274135 6.982425555796681 a30.439679201916967,30.439679201916967 0 0,0 -0.38349680417050697,-0.3549589166653727 l 6.471349482758608 -6.8723488929989305" fill="#ff7b0b" stroke="none" /><path d="M 85.60350026404147 115.28858382429668 l -4.327778328371738 4.595950610204388 a27.31287789133943,27.31287789133943 0 0,0 -0.33858540977698126,-0.32435716345451876 l 4.406036224014033 -4.520981316444287" fill="#ff5107" stroke="none" /><path d="M 85.34317274990678 115.03919595460226 l -3.897587883524469 3.9992685272479567 a26.584383588439533,26.584383588439533 0 0,0 -0.324086523666902,-0.32131657002357694 l 3.9656663273213333 -3.9317719469957204" fill="#ff4706" stroke="none" /><path d="M 84.83555147118756 114.52719865689866 l -4.743063373435016 4.543747419316564 a27.56827913345396,27.56827913345396 0 0,0 -0.3244447315125587,-0.3445490615813858 l 4.820363938683827 -4.4616568977906885" fill="#ff5407" stroke="none" /><path d="M 84.3458050057657 113.99807769240083 l -2.539869980721329 2.2711673983765124 a24.407218934911242,24.407218934911242 0 0,0 -0.27660228885948673,-0.31472262954026287 l 2.578483333539408 -2.227232491024949" fill="#ff2803" stroke="none" /><path d="M 84.1078160697243 113.72728997021213 l -3.5131759646188057 3.0345977239054878 a25.64232578610201,25.64232578610201 0 0,0 -0.28488066715330296,-0.3355887095843417 l 3.564751195279221 -2.9738422318715916" fill="#ff3905" stroke="none" /><path d="M 83.8745106332314 113.45245675266167 l -1.0201901366118578 0.8510788962811616 a22.328579392635337,22.328579392635337 0 0,0 -0.2430127543842661,-0.2964360470276539 l 1.0346497102347538 -0.8334405675550125" fill="#ff0a01" stroke="none" /><path d="M 83.4222238831116 112.89097897827486 l -7.413473819994365 5.764762082423148 a30.391063621692993,30.391063621692993 0 0,0 -0.3167154371289203,-0.4145906739038675 l 7.51134123447758 -5.63665049527841" fill="#ff7b0b" stroke="none" /><path d="M 83.20337586046588 112.60449989151573 l -8.541266955837013 6.409525957353512 a31.67872952222603,31.67872952222603 0 0,0 -0.3226674412835351,-0.4377603541775082 l 8.65003641670438 -6.2619592939071245" fill="#ff8c0c" stroke="none" /><path d="M 82.78059297857968 112.02048342749411 l -10.02329649594165 6.997039402602398 a33.223953249547655,33.223953249547655 0 0,0 -0.32244679313455454,-0.4704595076224751 l 10.14193302589153 -6.823945159909872" fill="#ffa00e" stroke="none" /><path d="M 82.37810715431573 111.42229804090323 l -1.2721474445945016 0.8245906039367685 a22.516017409164263,22.516017409164263 0 0,0 -0.20745004874841672,-0.3261459331697489 l 1.2861151849688082 -0.8026309960883478" fill="#ff0d01" stroke="none" /><path d="M 82.18462484594161 111.11811171558189 l -2.002354425110352 1.2496172547618358 a23.36028950070908,23.36028950070908 0 0,0 -0.20938832588711945,-0.34202009419301166 l 2.023510715452876 -1.2150600444442672" fill="#ff1902" stroke="none" /><path d="M 81.99639281039703 110.81064883170644 l -3.094799738305286 1.858338322033412 a24.609876277568585,24.609876277568585 0 0,0 -0.2143711124581432,-0.3640490149555592 l 3.1262445608931992 -1.804938138784294" fill="#ff2b04" stroke="none" /><line stroke="#e1ed5e" stroke-width="0.3" x1="26.387840678322732" x2="22.057713659400548" y1="142.50000000000003" y2="145.00000000000006" /><path d="M 25.521815274538298 143.00000000000003 a86.0,86.0 0 0,1 -11.493303480769221,-40.785679425670985" fill="none" id="id117" stroke="none" /><text fill="#e1ed5e" style="font-size:6.75px; font-family:Arial;" text-anchor="middle"><textPath startOffset="21.40746469413373" xlink:href="#id117">September</textPath></text><path d="M 81.81346652052679 110.50000000000001 l -6.265989614632914 3.617670790747716 a28.235341581495426,28.235341581495426 0 0,0 -0.23874545676657605,-0.421840345958712 l 6.327168436420868 -3.5095736746898827" fill="#ff5d08" stroke="none" /><path d="M 81.4637452351635 109.86951160357371 l -2.7263495882978837 1.4516275935173646 a24.088722186904004,24.088722186904004 0 0,0 -0.19120931510766723,-0.36666907361218004 l 2.7508669723805 -1.4046122768006817" fill="#ff2403" stroke="none" /><path d="M 81.29705330413844 109.54985784667822 l -1.245594847971048 0.6360096045886915 a22.398575969485062,22.398575969485062 0 0,0 -0.1719144961283383,-0.3439441532121438 l 1.256329257311123 -0.6145335952127948" fill="#ff0b01" stroke="none" /><path d="M 81.1358732173502 109.22738970284198 l -9.140462311761326 4.471058151089999 a31.17538265929874,31.17538265929874 0 0,0 -0.23102553251541727,-0.4827545087685848 l 9.215867102236656 -4.31349114025631" fill="#ff850c" stroke="none" /><path d="M 80.68587082218212 108.24405325689762 l -1.4691734527896572 0.6271027845422387 a22.597413076434055,22.597413076434055 0 0,0 -0.14922272257307956,-0.35808021155065406 l 1.4797220198992223 -0.6017900635503033" fill="#ff0e01" stroke="none" /><path d="M 80.5471966667186 107.91128576633889 l -1.2435372670219618 0.5057357806970284 a22.34244315125434,22.34244315125434 0 0,0 -0.14143971414389478,-0.35652047490233685 l 1.252035656131981 -0.48431428858112624" fill="#ff0b01" stroke="none" /><path d="M 80.41425534168474 107.57618678355246 l -2.8780671836600678 1.1132982145646475 a24.085887818475232,24.085887818475232 0 0,0 -0.14585647064750962,-0.38690161718367355 l 2.8967543381220136 -1.0637283171868288" fill="#ff2303" stroke="none" /><path d="M 80.28708602549918 107.23885506374661 l -1.317716092230656 0.48388360133681446 a22.403751772702822,22.403751772702822 0 0,0 -0.12947216692918664,-0.36215669394055106 l 1.325828429203786 -0.46119195101534194" fill="#ff0b01" stroke="none" /><path d="M 80.16572619554312 106.89939002012753 l -10.11475218634601 3.5184358640273237 a31.709229791187838,31.709229791187838 0 0,0 -0.17442277674257115,-0.5156499465430798 l 10.173660384660948 -3.344284243010082" fill="#ff8c0c" stroke="none" /><path d="M 79.83685265289637 105.86919833188381 l -6.061604716231281 1.7644447901212272 a27.313185974864297,27.313185974864297 0 0,0 -0.12717735766046662,-0.4513075764877021 l 6.091000565966324 -1.6601292897305295" fill="#ff5107" stroke="none" /><path d="M 79.73907114497094 105.5222062557868 l -5.097978250172675 1.3894766417868765 a26.283940534989487,26.283940534989487 0 0,0 -0.11491153461975805,-0.4363378139239658 l 5.1210792655971655 -1.301758323490108" fill="#ff4206" stroke="none" /><path d="M 79.48165901384964 104.47187691870673 l -6.0217302179795125 1.312408073861225 a27.163087681549218,27.163087681549218 0 0,0 -0.09538420317694676,-0.45644794167193703 l 6.043372131980826 -1.2088436809038787" fill="#ff4f07" stroke="none" /><path d="M 79.34024301695615 103.76489593502545 l -6.746584125927473 1.2294523682857639 a27.857692796713778,27.857692796713778 0 0,0 -0.08169624262528034,-0.47120221753097874 l 6.766695186044988 -1.1134571178341923" fill="#ff5808" stroke="none" /><path d="M 79.0935383218832 101.97986365728391 l -8.176676754402436 0.7743397899006791 a29.213260306127438,29.213260306127438 0 0,0 -0.0429940973928708,-0.49965658283319053 l 8.188764474493048 -0.6338621596918266" fill="#ff6b09" stroke="none" /><path d="M 79.03789590574601 101.26102812881392 l -7.3869966884410605 0.44438337724564925 a28.400351117414054,28.400351117414054 0 0,0 -0.025098351219735957,-0.4869013085844639 l 7.393536629117369 -0.3175102752844546" fill="#ff6008" stroke="none" /><line stroke="#e1ed5e" stroke-width="0.3" x1="15.003131293944662" x2="10.003315487706104" y1="100.72959589197737" y2="100.7725132973878" /><path d="M 14.003168132696942 100.73817937305945 a86.0,86.0 0 0,1 10.791469493833604,-42.45332614584628" fill="none" id="id118" stroke="none" /><text fill="#e1ed5e" style="font-size:6.75px; font-family:Arial;" text-anchor="middle"><textPath startOffset="22.145653131862435" xlink:href="#id118">October</textPath></text><path d="M 79.00077361379809 99.81974689727619 l -11.09250836383485 -0.09521584332672764 a32.09291701305687,32.09291701305687 0 0,0 0.009457581530173198,-0.5508567101383627 l 11.089239350706011 0.2856194694341427" fill="#ff910d" stroke="none" /><path d="M 79.00696218219943 99.45929381324524 l -5.561281468290703 -0.14323888339969795 a26.56312582522373,26.56312582522373 0 0,0 0.01565366649662802,-0.4557394204010789 l 5.558003114797224 0.23868456836491542" fill="#ff4606" stroke="none" /><path d="M 79.03789590574601 98.7389718711861 l -1.8534071439471371 -0.11149637136391531 a22.85675778766688,22.85675778766688 0 0,0 0.02692312610840283,-0.3914563448022017 l 1.8512200566736705 0.143296140320442" fill="#ff1202" stroke="none" /><path d="M 79.0935383218832 98.0201363427161 l -16.459168892622426 -1.558700406664714 a37.532809428333906,37.532809428333906 0 0,0 0.06625006899761868,-0.6409093203341806 l 16.429986431143142 1.8410142492818073" fill="#ffd714" stroke="none" /><path d="M 79.22317932658666 96.9465228501225 l -3.2346367204204935 -0.4753802070688038 a24.26938236588586,24.26938236588586 0 0,0 0.06411567239929478,-0.4116686102834767 l 3.2259995558829315 0.5308369992837304" fill="#ff2603" stroke="none" /><path d="M 79.34024301695615 96.23510406497455 l -0.7310577609140081 -0.13322307685385193 a21.743097461978582,21.743097461978582 0 0,0 0.07006838202487922,-0.36662738283415547 l 0.7286630866069697 0.14575302472132193" fill="#ff0200" stroke="none" /><path d="M 79.407916724674 95.88100663000787 l -20.33151271107722 -4.066871959438112 a41.73426769035161,41.73426769035161 0 0,0 0.1465514493597711,-0.7013017374083794 l 20.258703550893085 4.4152901481319" fill="#f4ff19" stroke="none" /><path d="M 79.56144815229197 95.17655741523228 l -10.122045627812888 -2.3887752072625212 a31.400098782336546,31.400098782336546 0 0,0 0.12831048305451773,-0.523550556922137 l 10.079547618242072 2.562181588792776" fill="#ff880c" stroke="none" /><path d="M 79.64726062577567 94.8264132398404 l -6.015110840260511 -1.5290176536862503 a27.206404225145484,27.206404225145484 0 0,0 0.11894448082605302,-0.45165156756192193 l 5.987976878629732 1.6320497256209567" fill="#ff4f07" stroke="none" /><path d="M 79.73907114497095 94.47779374421319 l -3.063483355931413 -0.8349660113644858 a24.175232040686588,24.175232040686588 0 0,0 0.1125662211135816,-0.39945780742496356 l 3.0486986427432496 0.8874317426924625" fill="#ff2503" stroke="none" /><path d="M 79.94057633289273 93.78553927170692 l -12.42787680083437 -3.8501880012381906 a34.01061372194239,34.01061372194239 0 0,0 0.17756015723786053,-0.5562046635845471 l 12.359951927819251 4.062961698514129" fill="#ffaa0f" stroke="none" /><path d="M 80.28708602549916 92.7611449362534 l -18.821788849652258 -6.911621574533077 a41.05069196537728,41.05069196537728 0 0,0 0.24858992505625033,-0.6594143104714817 l 18.70036824078157 7.233704165198704" fill="#fcff18" stroke="none" /><path d="M 80.5471966667186 92.08871423366112 l -7.497581670663144 -3.049201194133232 a29.09390874859406,29.09390874859406 0 0,0 0.19212253451638286,-0.46102414308640505 l 7.4441332916102825 3.177457846660901" fill="#ff6909" stroke="none" /><path d="M 80.9802524753101 91.09779779509293 l -15.45184044367563 -7.232241536802637 a38.06061812313561,38.06061812313561 0 0,0 0.2820486492774787,-0.5893731989199366 l 15.325412536438247 7.496427237787661" fill="#ffde14" stroke="none" /><path d="M 81.29705330413844 90.45014215332179 l -7.1075953438347845 -3.6291888261839174 a28.9805340114431,28.9805340114431 0 0,0 0.23003910364308958,-0.44113031302838057 l 7.044248171216755 3.750665382316784" fill="#ff6809" stroke="none" /><path d="M 81.46374523516351 90.13048839642627 l -8.29233846710448 -4.415203165911513 a30.3945141571715,30.3945141571715 0 0,0 0.24916937896853028,-0.45844359277006275 l 8.215323738520599 4.556901592156195" fill="#ff7b0b" stroke="none" /><line stroke="#e1ed5e" stroke-width="0.3" x1="26.387840678322718" x2="22.05771365940052" y1="57.49999999999999" y2="54.99999999999999" /><path d="M 25.521815274538284 56.99999999999999 a86.0,86.0 0 0,1 29.574782752854787,-30.34633250058573" fill="none" id="id119" stroke="none" /><text fill="#e1ed5e" style="font-size:6.75px; font-family:Arial;" text-anchor="middle"><textPath startOffset="21.40746469413373" xlink:href="#id119">November</textPath></text><path d="M 81.99639281039701 89.18935116829357 l -11.993048915891222 -7.201481285708754 a34.98908699691917,34.98908699691917 0 0,0 0.3136222412989255,-0.5122783615353342 l 11.867658710136904 7.406296763368631" fill="#ffb711" stroke="none" /><path d="M 82.18462484594161 88.88188828441811 l -6.347305664331306 -3.9611881792399495 a28.48193163479877,28.48193163479877 0 0,0 0.26241666093592647,-0.4125625772401297 l 6.278371311769489 4.069564431158751" fill="#ff6108" stroke="none" /><path d="M 82.78059297857968 87.97951657250589 l -8.476960231192495 -5.917576595281111 a31.338112377133356,31.338112377133356 0 0,0 0.31171707219781697,-0.43846909944466805 l 8.374128060464706 6.0622229214353" fill="#ff870c" stroke="none" /><path d="M 82.98947788004972 87.6856937992154 l -3.0195694001707833 -2.1859353831716 a24.7277490341826,24.7277490341826 0 0,0 0.25186740850713496,-0.34170651217632136 l 2.9815999720798296 2.237448204616785" fill="#ff2d04" stroke="none" /><path d="M 83.42222388311158 87.10902102172516 l -7.080815760832355 -5.5060851635544825 a29.969666976380264,29.969666976380264 0 0,0 0.3192962173861559,-0.40342034008292615 l 6.985253112804637 5.626825447552092" fill="#ff750a" stroke="none" /><path d="M 83.8745106332314 86.54754324733833 l -2.6256577052749477 -2.19041704249266 a24.41935742579099,24.41935742579099 0 0,0 0.27129375443333104,-0.31958336056402137 l 2.5876693873345022 2.2351671855062385" fill="#ff2803" stroke="none" /><path d="M 84.34580500576568 86.00192230759919 l -6.0381450651143105 -5.399346550275353 a29.10013203579637,29.10013203579637 0 0,0 0.3361789970328321,-0.3695196076313206 l 5.944568367239613 5.502203733464331" fill="#ff6909" stroke="none" /><path d="M 84.83555147118756 85.47280134310135 l -1.888566730320635 -1.8092042065393805 a23.61532104259377,23.61532104259377 0 0,0 0.28294887949418024,-0.2903304767968162 l 1.8572310496756523 1.841357375403927" fill="#ff1d02" stroke="none" /><path d="M 85.08716467003674 85.21462403516908 l -18.341234111473522 -18.18447236872868 a46.82781260697345,46.82781260697345 0 0,0 0.5708713519059311,-0.5659921389007428 l 18.026370839437615 18.496644517858098" fill="#b9ff1f" stroke="none" /><path d="M 85.60350026404147 84.71141617570332 l -2.38869674869789 -2.5367131693877054 a24.484363049537876,24.484363049537876 0 0,0 0.3084682633927823,-0.28551361943258385 l 2.344798713991154 2.5773445349526547" fill="#ff2904" stroke="none" /><path d="M 85.86807049272753 84.46653392183569 l -3.2307792639893664 -3.5511923603489177 a25.800927184703408,25.800927184703408 0 0,0 0.3301719749958519,-0.2952418159827194 l 3.1693422621701224 3.606129706215038" fill="#ff3c05" stroke="none" /><path d="M 86.96720088162412 83.53348406188908 l -39.09839735512763 -49.399547814332756 a84.0,84.0 0 0,0 1.1383602214590214,-0.8851957935167807 l 38.244627189033366 50.06344465947034" fill="#4dd2ff" stroke="none" /><path d="M 88.4268655584334 82.4767994020092 l -1.55832376935185 -2.359500802902038 a23.82765220793193,23.82765220793193 0 0,0 0.34324795916580986,-0.222489180127086 l 1.5175901779290142 2.38590382473303" fill="#ff2003" stroke="none" /><path d="M 89.03521579738668 82.08984904055464 l -1.3168357832573696 -2.1509522878998224 a23.52203335126412,23.52203335126412 0 0,0 0.3461852384780618,-0.2078742889962712 l 1.2797177882218735 2.173240577432017" fill="#ff1b02" stroke="none" /><line stroke="#e1ed5e" stroke-width="0.3" x1="56.869717070023135" x2="54.33264160355391" y1="26.7553504044142" y2="22.446841604673864" /><path d="M 56.362301976729285 25.89364864446614 a86.0,86.0 0 0,1 42.16139366436587,-11.88097634709845" fill="none" id="id120" stroke="none" /><text fill="#e1ed5e" style="font-size:6.75px; font-family:Arial;" text-anchor="middle"><textPath startOffset="22.145653131862474" xlink:href="#id120">December</textPath></text><path d="M 89.65649057296885 81.72400993836675 l -1.9672951285999718 -3.4760219896577573 a24.994118049782386,24.994118049782386 0 0,0 0.37521623700506457,-0.20812612165167751 l 1.9073347034388046 3.509281026742581" fill="#ff3004" stroke="none" /><path d="M 90.28995756902619 81.37971332152246 l -1.4471757209095268 -2.7751502621153112 a24.12982052912123,24.12982052912123 0 0,0 0.36892516746845666,-0.18837581920528745 l 1.399323331727488 2.7995840329934327" fill="#ff2403" stroke="none" /><path d="M 91.5904679813234 80.7573450057729 l -3.1929737546466055 -7.3061488118283595 a28.973386473666192,28.973386473666192 0 0,0 0.4574551765809132,-0.19526041291614743 l 3.067083502895261 7.359883874403911" fill="#ff6709" stroke="none" /><path d="M 92.25597844496254 80.48000691201159 l -0.5792735650372889 -1.4601477933938385 a22.570856276590543,22.570856276590543 0 0,0 0.36137847330770284,-0.13978895676921788 l 0.5541228292360567 1.469876638301097" fill="#ff0e01" stroke="none" /><path d="M 92.592206182469 80.34994680014964 l -3.2610087203241545 -8.650213061802386 a30.244477480561397,30.244477480561397 0 0,0 0.48738377533211585,-0.17897407327067594 l 3.112035793337912 8.704917984081783" fill="#ff790b" stroke="none" /><path d="M 93.27111125876988 80.10723608172694 l -4.171805721289062 -12.333202333693622 a34.019671377573474,34.019671377573474 0 0,0 0.5548078056911517,-0.18237634561395255 l 3.9594751779501496 12.402999600709602" fill="#ffaa0f" stroke="none" /><path d="M 93.61358852112211 79.99465700312896 l -2.4252186001534315 -7.5969627229508605 a28.974680424470634,28.974680424470634 0 0,0 0.4751286958913276,-0.1471960845187915 l 2.2944492713904876 7.637475395276294" fill="#ff6709" stroke="none" /><path d="M 94.30408787586887 79.78721728523814 l -1.672891814175591 -5.936502882827226 a27.16770893442222,27.16770893442222 0 0,0 0.4499730695897704,-0.1226421610580508 l 1.570737343651143 5.964345538029416" fill="#ff4f07" stroke="none" /><path d="M 96.41257539226777 79.30868818359171 l -2.233378390393882 -12.881533058580501 a34.0737092278351,34.0737092278351 0 0,0 0.5771802346080502,-0.09497478796191708 l 2.011920652732759 12.917973845038087" fill="#ffab0f" stroke="none" /><path d="M 97.84075906011542 79.11130261209362 l -0.3170089654526026 -3.0667741734031115 a24.08311506675143,24.08311506675143 0 0,0 0.41159240535742847,-0.03897822871835913 l 0.26431699671015857 3.0717641576266543" fill="#ff2303" stroke="none" /><path d="M 98.5590905019552 79.04949213459386 l -0.7195781822389102 -10.46250884405102 a31.487224803168857,31.487224803168857 0 0,0 0.539564556242593,-0.032458863846563914 l 0.5398692738638333 10.473319685722279" fill="#ff890c" stroke="none" /><path d="M 99.63950707515114 79.00309439819443 l -0.25401450213444104 -14.795071290352407 a35.7972516993496,35.7972516993496 0 0,0 0.6145074269832895,-0.005274807191628545 l 3.624281385957244e-15 14.797251699349601" fill="#ffc112" stroke="none" /></svg>