<?xml version="1.0" encoding="utf-8" ?>
<svg baseProfile="full" height="200mm" version="1.1" viewBox="0,0,200,200" width="200mm" xmlns="http://www.w3.org/2000/svg" xmlns:ev="http://www.w3.org/2001/xml-events" xmlns:xlink="http://www.w3.org/1999/xlink"><defs /><rect fill="#1a1a1a" height="200" width="200" x="0" y="0" /><text alignment-baseline="middle" fill="#e1ed5e" style="dominant-baseline: central; font-size:9.0px; font-family:Arial;" text-anchor="middle" x="100.0" y="100.0">2019</text><line stroke="#e1ed5e" stroke-width="0.3" x1="100.0" x2="100.0" y1="15.0" y2="10.0" /><path d="M 100.0 14.0 a86.0,86.0 0 0,1 42.46469731375804,11.215312516191453" fill="none" id="id1" stroke="none" /><text fill="#e1ed5e" style="font-size:6.75px; font-family:Arial;" text-anchor="middle"><textPath startOffset="22.20632615414155" xlink:href="#id1">January</textPath></text><path d="M 101.80526077348638 79.07773832637324 l 0.7019481372750466 -8.135302569623049 a29.165529933001242,29.165529933001242 0 0,0 0.4998067322849762,0.047462671637456585 l -0.8418799966502669 8.122014353470412" fill="#ff6e0a" stroke="none" /><path d="M 103.2404852339499 79.25152402106235 l 0.12468989373589977 -0.7983758845406296 a21.808054220096587,21.808054220096587 0 0,0 0.3703950481546811,0.061118356612760626 l -0.13841414802945604 0.7961112649882444" fill="#ff0801" stroke="none" /><path d="M 103.59715602781102 79.31037775812273 l 0.3260588152913713 -1.8753797902721672 a22.90351351683945,22.90351351683945 0 0,0 0.3878381500225603,0.07087494291755549 l -0.35829208641683247 1.869489366003873" fill="#ff1702" stroke="none" /><path d="M 103.95276090670814 79.375362276772 l 0.38333262769119036 -2.0001454072789 a23.036547459233766,23.036547459233766 0 0,0 0.38880601092653305,0.07799082809481708 l -0.41770504808484876 1.9932506231068745" fill="#ff1902" stroke="none" /><path d="M 104.307194497241 79.44645832069477 l 1.837181666253664 -8.766864364724613 a29.95729575621442,29.95729575621442 0 0,0 0.503792236237703,0.11010946980617208 l -1.987816626644895 8.733941396822571" fill="#ff790b" stroke="none" /><path d="M 105.01212808612495 79.60689891045804 l 0.45996500812269514 -1.87148308006434 a22.927178436903137,22.927178436903137 0 0,0 0.38243746733235856,0.09749182574843761 l -0.4921113641400788 1.8632882581470345" fill="#ff1802" stroke="none" /><path d="M 105.36241919743992 79.69619591428918 l 0.3229728137142011 -1.222876558735761 a22.264807699337684,22.264807699337684 0 0,0 0.36970406860891547,0.10105408760291645 l -0.34397477154682743 1.2171359303065508" fill="#ff0e01" stroke="none" /><path d="M 106.0581310904928 79.89281104454417 l 0.822889779188479 -2.731205388675431 a23.852477951505072,23.852477951505072 0 0,0 0.3921059183787921,0.12182921751409934 l -0.8697810702779895 2.716636036278811" fill="#ff2503" stroke="none" /><path d="M 106.40334571778207 80.00007090966166 l 1.2520628864564989 -3.9106382896420975 a25.106184762532813,25.106184762532813 0 0,0 0.4104468808063423,0.1353178833966953 l -1.3191925895052585 3.8885066819861662" fill="#ff3705" stroke="none" /><path d="M 106.74666289553966 80.11325718540242 l 3.4870929434972857 -10.27869950101926 a31.854099715261608,31.854099715261608 0 0,0 0.517732260818178,0.1806266198600372 l -3.6635072083787374 10.217152027987014" fill="#ff920d" stroke="none" /><path d="M 107.08798089147638 80.2323363322302 l 0.8425947800068304 -2.3499118401156043 a23.496407743060068,23.496407743060068 0 0,0 0.3795427041571458,0.13978878103371878 l -0.8829198099365527 2.335059791275561" fill="#ff2003" stroke="none" /><path d="M 107.4271985657038 80.35727306442388 l 1.6809152840285937 -4.445520021300422 a25.752696545316546,25.752696545316546 0 0,0 0.4132901086869805,0.16035014132346895 l -1.7571885577152413 4.415927176086406" fill="#ff4006" stroke="none" /><path d="M 107.76421540070413 80.48803036053334 l 0.46793394814156236 -1.1759479249617295 a22.265628579815242,22.265628579815242 0 0,0 0.3548888114008555,0.14476805689778777 l -0.4881066291308053 1.1677189818803624" fill="#ff0e01" stroke="none" /><path d="M 108.43124777332544 80.76684994638697 l 1.1567638487173566 -2.6387805550400465 a23.881191666543003,23.881191666543003 0 0,0 0.3750687639975236,0.16828242141363817 l -1.2020147311816605 2.618477803109877" fill="#ff2503" stroke="none" /><path d="M 108.76106565485865 80.91482961587045 l 0.6263086330187473 -1.3643553701238542 a22.50124217892371,22.50124217892371 0 0,0 0.3506141292270642,0.1646180348943068 l -0.6497009735454095 1.3533723525895445" fill="#ff1202" stroke="none" /><path d="M 109.08828744355905 81.06846463323043 l 1.8921680466378228 -3.941517752080159 a25.372169039124657,25.372169039124657 0 0,0 0.392095136736394,0.19239938074606572 l -1.9597344503846486 3.9083632111992617" fill="#ff3a05" stroke="none" /><path d="M 109.73455568895987 81.39251694778311 l 1.2382743233884947 -2.366946085950092 a23.671283787574374,23.671283787574374 0 0,0 0.3594145757477224,0.1919868190494309 l -1.2788339456645283 2.345280540398907" fill="#ff2203" stroke="none" /><path d="M 110.05341064243156 81.56283822128135 l 0.9109461205256725 -1.670603300032495 a22.902823749215948,22.902823749215948 0 0,0 0.3444976340288674,0.19171256035739023 l -0.9395678436265751 1.6546753421149247" fill="#ff1702" stroke="none" /><path d="M 110.36928655335952 81.73862282372117 l 1.9807620417198744 -3.488325118046204 a25.011462376130474,25.011462376130474 0 0,0 0.3725555789082912,0.21580823810238264 l -2.040514353093494 3.4537127225537723" fill="#ff3505" stroke="none" /><line stroke="#e1ed5e" stroke-width="0.3" x1="143.23703022742887" x2="145.7803849466894" y1="26.81831364943548" y2="22.513508569990506" /><path d="M 143.74570117128098 25.957352633546492 a86.0,86.0 0 0,1 28.547481713284135,27.462654790039103" fill="none" id="id2" stroke="none" /><text fill="#e1ed5e" style="font-size:6.75px; font-family:Arial;" text-anchor="middle"><textPath startOffset="19.985693538727396" xlink:href="#id2">February</textPath></text><path d="M 110.68208982089419 81.91981866633111 l 2.9103525257991243 -4.925974438861687 a26.721483723366173,26.721483723366173 0 0,0 0.3939992860810539,0.2373801613757335 l -2.9947138780978158 4.8751476680273385" fill="#ff4d07" stroke="none" /><path d="M 110.99172775467656 82.1063720568725 l 4.9742715376847935 -8.097704580205876 a30.503483403410996,30.503483403410996 0 0,0 0.4450325286064601,0.2786793285860027 l -5.112923218663517 8.01088091029693" fill="#ff800b" stroke="none" /><path d="M 111.90073688211348 82.69761687909136 l 2.8708880649146735 -4.173960460469921 a26.065959357005916,26.065959357005916 0 0,0 0.36749137535655296,0.25745119326391647 l -2.9423105798548774 4.123924424442069" fill="#ff4406" stroke="none" /><path d="M 112.19680574252982 82.90503203632743 l 2.128983671298939 -2.9839704283499127 a24.66560376881139,24.66560376881139 0 0,0 0.3435033974833587,0.24956982678598824 l -2.1800323851360863 2.9468813667472498" fill="#ff3004" stroke="none" /><path d="M 112.48926042617603 83.11751280151076 l 2.8478791669874606 -3.849650174540477 a25.78855116043472,25.78855116043472 0 0,0 0.35459730174163057,0.2670753360987753 l -2.9137226224874744 3.8000582489358545" fill="#ff4006" stroke="none" /><path d="M 112.77801427241765 83.33499621200491 l 4.400531750695586 -5.739145123106784 a28.232044415859207,28.232044415859207 0 0,0 0.38310540761013673,0.2990198473569946 l -4.498669713465152 5.662546886526565" fill="#ff6209" stroke="none" /><path d="M 113.06298171725822 83.55741782278167 l 1.183335640823517 -1.4894833307288606 a22.9023259004078,22.9023259004078 0 0,0 0.30656028455109824,0.24788376360154737 l -1.2087993239391064 1.4688934698631835" fill="#ff1702" stroke="none" /><path d="M 113.6212207817346 84.01681056812373 l 4.357979210263228 -5.113668471714289 a27.718748993353692,27.718748993353692 0 0,0 0.3604839163732693,0.3126081000114001 l -4.445356925283262 5.037895378283217" fill="#ff5b08" stroke="none" /><path d="M 114.16331599549186 84.49514656593476 l 2.0098967229649483 -2.2002724585894073 a23.980081161480726,23.980081161480726 0 0,0 0.3023684017866576,0.2810184761618245 l -2.0474730085464525 2.1653493963529424" fill="#ff2703" stroke="none" /><path d="M 114.68862486808459 84.99185889309783 l 44.06587460425377 -45.02442332070654 a84.0,84.0 0 0,0 1.0246567993307099,1.0202565973995252 l -44.8343672037518 44.25923087265689" fill="#4dd2ff" stroke="none" /><path d="M 116.15771136456269 86.58626213691792 l 1.9224018345558156 -1.595931112669538 a23.498524550587845,23.498524550587845 0 0,0 0.25568801398994523,0.31344327226058777 l -1.9495883406221695 1.5626036708008493" fill="#ff2003" stroke="none" /><path d="M 116.38621287248628 86.86637796730983 l 0.7725261814611212 -0.6191831484567013 a21.990042661896776,21.990042661896776 0 0,0 0.2341896813760885,0.29739711301313615 l -0.7830699434311736 0.6057936414905268" fill="#ff0a01" stroke="none" /><path d="M 116.60985879189232 87.15038557335679 l 2.5979380601220874 -2.0098004922934725 a24.284597415674256,24.284597415674256 0 0,0 0.25293455889425115,0.3328322308491028 l -2.632148559240452 1.964783485563336" fill="#ff2b04" stroke="none" /><path d="M 116.82858285166822 87.43820079747576 l 1.5420908426851843 -1.151103196781802 a22.924339558584915,22.924339558584915 0 0,0 0.23332325938583176,0.31825266358832166 l -1.5616767145846424 1.1243880895219867" fill="#ff1802" stroke="none" /><path d="M 117.04232023915458 87.72973835380427 l 1.0272026353905306 -0.7395733047514227 a22.265746391365266,22.265746391365266 0 0,0 0.2212657277392936,0.31296468024114443 l -1.039780982933707 0.7217821241784852" fill="#ff0e01" stroke="none" /><path d="M 117.2510076193507 88.02491185347247 l 0.9402995377471273 -0.6527253420275723 a22.144645618876197,22.144645618876197 0 0,0 0.2146718125923459,0.3150043958689063 l -0.9513958160082066 0.6364429228882595" fill="#ff0d01" stroke="none" /><path d="M 117.45458315368197 88.32363383020206 l 2.076663889984771 -1.3891989156982063 a23.49848084630316,23.49848084630316 0 0,0 0.22200846018494777,0.3381341159866397 l -2.1002689855276437 1.3532467357338926" fill="#ff2003" stroke="none" /><path d="M 117.65298651832404 88.62581576622439 l 2.0992339146702528 -1.352579818177775 a23.497249525586824,23.497249525586824 0 0,0 0.21614381773648497,0.3418876126090146 l -2.122205328652693 1.3162445578545543" fill="#ff2003" stroke="none" /><line stroke="#e1ed5e" stroke-width="0.3" x1="172.23445277983987" x2="176.4835382374775" y1="55.19839476539836" y2="52.563006222186495" /><path d="M 173.08426987136738 54.67131705675599 a86.0,86.0 0 0,1 12.851231095245387,41.99856678651699" fill="none" id="id3" stroke="none" /><text fill="#e1ed5e" style="font-size:6.75px; font-family:Arial;" text-anchor="middle"><textPath startOffset="22.20632615414155" xlink:href="#id3">March</textPath></text><path d="M 117.84615892207809 88.93136811851018 l 1.6167970041438762 -1.0027777374449311 a22.902523519782026,22.902523519782026 0 0,0 0.20490582613072508,0.336811301799594 l -1.6338186285608252 0.9747986624382557" fill="#ff1702" stroke="none" /><path d="M 118.03404312379186 89.2402003453031 l 2.971359033860243 -1.7728264087563987 a24.460041615889466,24.460041615889466 0 0,0 0.21261637900160973,0.3634303123256194 l -3.00143508733218 1.721416684076884" fill="#ff2d04" stroke="none" /><path d="M 118.3937258080291 89.86733742301442 l 0.7238190515534126 -0.3987345626834878 a21.826379616683564,21.826379616683564 0 0,0 0.1784482192175122,0.33063744862246863 l -0.7305753699893897 0.3862161307285604" fill="#ff0801" stroke="none" /><path d="M 118.56541770881063 90.18545643968196 l 2.7208386365489385 -1.4383618907929574 a24.077636725642417,24.077636725642417 0 0,0 0.19054648074282446,0.3680751510684443 l -2.7451945504518793 1.3913140174641683" fill="#ff2803" stroke="none" /><path d="M 118.73160827565052 90.50648371742162 l 3.5970446992667204 -1.8230470079838876 a25.03264565289858,25.03264565289858 0 0,0 0.19148780349635963,0.38602772710450717 l -3.6278925157164883 1.7608596923804305" fill="#ff3605" stroke="none" /><path d="M 119.196687751892 91.48605970444005 l 3.304079281094978 -1.465395181430022 a24.614460254798693,24.614460254798693 0 0,0 0.16844412432488895,0.3887922629550378 l -3.328814115262548 1.4083037738883812" fill="#ff3004" stroke="none" /><path d="M 119.34039704204932 91.81776055985345 l 1.752377787949622 -0.7413691983377634 a22.902749641950614,22.902749641950614 0 0,0 0.1504801314887663,0.36439957437700987 l -1.7648796063245857 0.7110950535074504" fill="#ff1702" stroke="none" /><path d="M 119.61058180528143 92.48833698450437 l 8.183378707453254 -3.134572129931202 a29.76317462494847,29.76317462494847 0 0,0 0.17913946210563558,0.4800046959059856 l -8.236122758060516 2.9932442969958832" fill="#ff760a" stroke="none" /><path d="M 119.7369772167798 92.82701384747503 l 4.469015152410209 -1.6241688608937264 a25.754999571100807,25.754999571100807 0 0,0 0.14784218343051803,0.41796976120060375 l -4.496310416650536 1.547001473266508" fill="#ff4006" stroke="none" /><path d="M 119.85752413597 93.16781622104841 l 1.1972679354531035 -0.41193224853466714 a22.26615113104517,22.26615113104517 0 0,0 0.12157605457011439,0.36349692867233446 l -1.204181283794988 0.39126221694001867" fill="#ff0e01" stroke="none" /><path d="M 119.97218684219823 93.5106431181261 l 1.2948043604344661 -0.42070743947340933 a22.36143787277583,22.36143787277583 0 0,0 0.11579446398677716,0.36710009452883025 l -1.3018543081894494 0.3983571785181599" fill="#ff1001" stroke="none" /><path d="M 120.08093135843002 93.85539295169968 l 0.5721082736568023 -0.1750606317981735 a21.59829265547234,21.59829265547234 0 0,0 0.10572271987800896,0.3564444538492842 l -0.5750368906465135 0.1651867912023594" fill="#ff0500" stroke="none" /><path d="M 120.18372546131832 94.20196356495316 l 3.110113851785297 -0.893420467116145 a24.235893740858746,24.235893740858746 0 0,0 0.11173119720300011,0.4019565638800226 l -3.1250318195546605 0.8397525998171704" fill="#ff2a04" stroke="none" /><path d="M 120.28053869075195 94.5502522615342 l 0.5526764575036136 -0.14851416524537747 a21.572282905525995,21.572282905525995 0 0,0 0.09327821036920594,0.3594389951292846 l -0.5551509997431223 0.13897874456724246" fill="#ff0400" stroke="none" /><path d="M 120.37134235888165 94.90015583598534 l 2.4230667789081584 -0.6066003287233023 a23.497842383709504,23.497842383709504 0 0,0 0.09484982375141363,0.3932137541797649 l -2.4331494029203915 0.5648013428841313" fill="#ff2003" stroke="none" /><path d="M 120.45610955862082 95.25157060432595 l 1.8697634017297806 -0.4340238535722722 a22.919476981867156,22.919476981867156 0 0,0 0.085899594545264,0.3850710391285638 l -1.876957383277082 0.40177464489374454" fill="#ff1802" stroke="none" /><path d="M 120.53481517161879 95.60439243477599 l 2.9783017313307005 -0.6375243951477455 a24.04577060154831,24.04577060154831 0 0,0 0.08315337101670985,0.4054853683961151 l -2.9888343982624073 0.5861633705882185" fill="#ff2803" stroke="none" /><path d="M 120.6074358757038 95.95851677861258 l 2.45118618615483 -0.4807210321358363 a23.497880387435316,23.497880387435316 0 0,0 0.0744259287439512,0.39758628737229795 l -2.4590978388086406 0.4384566673009756" fill="#ff2003" stroke="none" /><path d="M 120.67395015179393 96.31383870115 l 3.4915337573447163 -0.6225397911601135 a24.546598901800905,24.546598901800905 0 0,0 0.07058682922330926,0.4166074617672709 l -3.5017324480882484 0.5623465410770047" fill="#ff2f04" stroke="none" /><path d="M 120.78858239683441 97.02765380044208 l 3.0504805520647813 -0.4361569299278323 a24.08150360474388,24.08150360474388 0 0,0 0.05513976390567742,0.41085528748016187 l -3.057536315028295 0.3835833003830061" fill="#ff2803" stroke="none" /><path d="M 120.87857604477298 97.74499172005257 l 1.9307087222196153 -0.20852782993608088 a22.941937183822574,22.941937183822574 0 0,0 0.039026282791614214,0.39298934181251266 l -1.9340121306934581 0.17526295741913328" fill="#ff1802" stroke="none" /><path d="M 120.91429891909075 98.10471618934814 l 3.8188134694605678 -0.346066362184449 a24.834461923343227,24.834461923343227 0 0,0 0.03491668130246724,0.4260719526006739 l -3.82420463458253 0.28028049237600633" fill="#ff3304" stroke="none" /><path d="M 120.94382443527127 98.46500227214037 l 1.91450530820113 -0.14031636424123217 a22.919640397888152,22.919640397888152 0 0,0 0.02545106992714641,0.393716786862767 l -1.916636969132692 0.1073405131254299" fill="#ff1802" stroke="none" /><path d="M 120.96714384426684 98.82574320788733 l 4.406266504515629 -0.24677125359641197 a25.413171258904182,25.413171258904182 0 0,0 0.020701317313526788,0.43697208986085234 l -4.4098614300626515 0.17088805711255986" fill="#ff3b05" stroke="none" /><path d="M 120.98425023603335 99.18683210126433 l 4.493503758462937 -0.17412930975039898 a25.496876365193366,25.496876365193366 0 0,0 0.013219894299565108,0.4387039322932545 l -4.495835347218148 0.09675523003214542" fill="#ff3c05" stroke="none" /><line stroke="#e1ed5e" stroke-width="0.3" x1="184.98032266829074" x2="189.97916517819016" y1="98.17113171792111" y2="98.06355123074" /><path d="M 185.9800911702706 98.14961562048488 a86.0,86.0 0 0,1 -9.607161424134198,41.387399972396054" fill="none" id="id4" stroke="none" /><text fill="#e1ed5e" style="font-size:6.75px; font-family:Arial;" text-anchor="middle"><textPath startOffset="21.466115282336823" xlink:href="#id4">April</textPath></text><path d="M 120.99513854157772 99.54816195383933 l 1.9230923848057444 -0.04138702414448507 a22.923537679970263,22.923537679970263 0 0,0 0.005094475580438123,0.39457274801400144 l -1.923519867503898 0.008278018070020916" fill="#ff1802" stroke="none" /><path d="M 120.99980553446 99.90962569577887 l 4.0238352306738525 -0.017316889371945848 a25.023872492794673,25.023872492794673 0 0,0 -0.0018537955363891268,0.43075679641832415 l -4.023537137847961 -0.05194938525006303" fill="#ff3505" stroke="none" /><path d="M 120.99824983174949 100.27111621757518 l 1.904635494284735 0.024591457631347652 a22.904794242399344,22.904794242399344 0 0,0 -0.008483431134770679,0.39419170983024115 l -1.9039300004649569 -0.05737298325170363" fill="#ff1702" stroke="none" /><path d="M 120.9904718944345 100.63252640178507 l 2.8041374682359868 0.08449981457369185 a23.80541033708581,23.80541033708581 0 0,0 -0.015867855777196255,0.4094788503773034 l -2.8022674796075875 -0.13275591196500144" fill="#ff2403" stroke="none" /><path d="M 120.95626037817324 101.35467743843564 l 3.057236129494086 0.19762919212960095 a24.06361715119004,24.06361715119004 0 0,0 -0.030278265529443227,0.41312287695528904 l -3.0533813053003054 -0.2502252055816602" fill="#ff2803" stroke="none" /><path d="M 120.92983693683757 101.71520430193887 l 0.9849318987181714 0.08071536509798935 a21.988233684548085,21.988233684548085 0 0,0 -0.03416071433868536,0.3769606361609786 l -0.9833965881024107 -0.09765738980753846" fill="#ff0a01" stroke="none" /><path d="M 120.89721153311464 102.0752229133903 l 0.9837993467074969 0.09769738623885732 a21.98863842422799,21.98863842422799 0 0,0 -0.04064515889305084,0.3763236917339497 l -0.9819718863133942 -0.11461739985759845" fill="#ff0a01" stroke="none" /><path d="M 120.8583938346157 102.4346265915055 l 2.874337036092256 0.3354974230760691 a23.89385070761128,23.89385070761128 0 0,0 -0.05119939143445893,0.4081095252632253 l -2.868136135410949 -0.3849247026266893" fill="#ff2603" stroke="none" /><path d="M 120.81339534386255 102.79330883721812 l 1.8971643381532368 0.25461323459563107 a22.914173561929967,22.914173561929967 0 0,0 -0.055829782641259575,0.3904733697601634 l -1.8925005044953758 -0.2872320763362038" fill="#ff1802" stroke="none" /><path d="M 120.76222939487914 103.15116336523771 l 4.003466093668688 0.6076214383534173 a25.049314087040113,25.049314087040113 0 0,0 -0.06837060656772397,0.4257438323620576 l -3.992413732739676 -0.6764445004086799" fill="#ff3605" stroke="none" /><path d="M 120.70491114924044 103.5080841355445 l 2.007548008772869 0.3401438079186547 a23.036159821230473,23.036159821230473 0 0,0 -0.06960601407143391,0.3903874921661306 l -2.001395552362246 -0.3746500508180036" fill="#ff1902" stroke="none" /><path d="M 120.64145759157962 103.86396538481128 l 3.9943264909160883 0.7477155732854118 a25.063707998191745,25.063707998191745 0 0,0 -0.08303256406250395,0.4233812552921847 l -3.98086399387792 -0.8163605556455414" fill="#ff3605" stroke="none" /><path d="M 120.5718875245553 104.21870165774334 l 4.776141808211343 0.9794491312412529 a25.875535988261554,25.875535988261554 0 0,0 -0.09323320495581323,0.43555449462143053 l -4.758574564531087 -1.0615174452788525" fill="#ff4106" stroke="none" /><path d="M 120.49622156327973 104.57218783832717 l 1.8579086229663981 0.4144523508600697 a22.90357432280075,22.90357432280075 0 0,0 -0.0891488192053931,0.3840507798954648 l -1.8504992378304521 -0.44637178810409944" fill="#ff1702" stroke="none" /><path d="M 120.41448212921028 104.9243191809786 l 0.9610844853127327 0.2318298713438643 a21.988649825345735,21.988649825345735 0 0,0 -0.09192165088539246,0.3671813020470506 l -0.9569515201322795 -0.24833901278831078" fill="#ff0a01" stroke="none" /><path d="M 120.32669344350535 105.2749913415812 l 1.8574836751783685 0.4820366052612946 a22.919011436225947,22.919011436225947 0 0,0 -0.10238459767510301,0.38101117595427514 l -1.8489110011614884 -0.513938714391118" fill="#ff1802" stroke="none" /><path d="M 120.23288151984713 105.62410040840565 l 0.9522805120433377 0.26470382933078884 a21.988385699451335,21.988385699451335 0 0,0 -0.10450489503779231,0.3637952493807771 l -0.9475829801194461 -0.28105655421614795" fill="#ff0a01" stroke="none" /><path d="M 120.13307415673323 105.97154293290107 l 1.8418326282013786 0.5462942484043966 a22.92114154505776,22.92114154505776 0 0,0 -0.11544967233640609,0.3772962090687112 l -1.8321561833588398 -0.5779174300251649" fill="#ff1802" stroke="none" /><path d="M 120.02730092923936 106.31721596034902 l 9.248832520501733 2.917361286952393 a30.69803587696493,30.69803587696493 0 0,0 -0.16329564219229728,0.5025723096676976 l -9.197244627293188 -3.076132496597886" fill="#ff830c" stroke="none" /><path d="M 119.79798401119884 107.00284435728193 l 1.8015952844251697 0.6372513163211996 a22.9109774485891,22.9109774485891 0 0,0 -0.13471189864557734,0.3706692886143332 l -1.7903591247743655 -0.6681684019416639" fill="#ff1802" stroke="none" /><path d="M 119.41010516605496 108.01547362559984 l 1.7649200112724148 0.7288301470095881 a22.909485802350947,22.909485802350947 0 0,0 -0.15365612364999334,0.3631976870234277 l -1.7521129064301126 -0.7591023596991794" fill="#ff1802" stroke="none" /><path d="M 119.26925614724726 108.34839909993367 l 2.9708281286786042 1.2871103422983539 a24.237664714481628,24.237664714481628 0 0,0 -0.1691545642476919,0.381398886877759 l -2.9482324796996395 -1.3380575656688005" fill="#ff2a04" stroke="none" /><path d="M 119.12269723197855 108.67885076344098 l 0.8883402932155825 0.40317392146315695 a21.97554994105803,21.97554994105803 0 0,0 -0.15929697666347525,0.34311151600880024 l -0.881268699712276 -0.4184055047507878" fill="#ff0a01" stroke="none" /><path d="M 118.97047184881838 109.00673069616215 l 1.720387653864226 0.8167993086752063 a22.904440807749285,22.904440807749285 0 0,0 -0.17216149478877463,0.35470367181522355 l -1.7060729024607368 -0.8462919364557054" fill="#ff1702" stroke="none" /><path d="M 118.81262510543309 109.33194174019688 l 3.597203763597214 1.784381273818689 a25.01545656771341,25.01545656771341 0 0,0 -0.19466948515235896,0.3841013625044459 l -3.565955608658586 -1.8460368480258291" fill="#ff3505" stroke="none" /><path d="M 118.64920377521936 109.65438752849418 l 1.047708949437268 0.5423817733376624 a22.179776263017633,22.179776263017633 0 0,0 -0.17843893179856588,0.337539212495686 l -1.0382175094138089 -0.5603360009194827" fill="#ff0d01" stroke="none" /><line stroke="#e1ed5e" stroke-width="0.3" x1="174.80103733775053" x2="179.2010983576182" y1="140.37084112569926" y2="142.7455964860345" /><path d="M 175.68104954172406 140.8457921977663 a86.0,86.0 0 0,1 -30.038265399797805,32.042727171017184" fill="none" id="id5" stroke="none" /><text fill="#e1ed5e" style="font-size:6.75px; font-family:Arial;" text-anchor="middle"><textPath startOffset="22.206326154141568" xlink:href="#id5">May</textPath></text><path d="M 117.14729908036423 112.12312394758627 l 1.5542710474737016 1.0988681347633078 a22.90348881441767,22.90348881441767 0 0,0 -0.2303656982240171,0.31995780647981226 l -1.5351255568740818 -1.1254595466942512" fill="#ff1702" stroke="none" /><path d="M 116.93607887273984 112.41649034213515 l 2.5533225179284917 1.8719388721816033 a24.16600868946142,24.16600868946142 0 0,0 -0.24883938609735887,0.33336102242871196 l -2.5207218651360406 -1.9156127741196303" fill="#ff2904" stroke="none" /><path d="M 116.71984013943494 112.70617746262583 l 0.4559096251655036 0.346466745851787 a21.57261923849944,21.57261923849944 0 0,0 -0.2272245862050676,0.293718407852514 l -0.4498782217423675 -0.3542631478175537" fill="#ff0400" stroke="none" /><path d="M 116.498646956653 112.99209946851258 l 6.776375342690865 5.3361553053121265 a29.625184996708157,29.625184996708157 0 0,0 -0.31893922284842835,0.39792571965078977 l -6.683518207787582 -5.452008858541167" fill="#ff740a" stroke="none" /><path d="M 116.27256486870786 113.27417163493432 l 1.561910602804565 1.2741119539133763 a23.015670112458455,23.015670112458455 0 0,0 -0.2530671568617751,0.30483569294111235 l -1.5397474460492466 -1.300808903968259" fill="#ff1902" stroke="none" /><path d="M 116.0416608686014 113.55231037782055 l 0.9669995713755359 0.8169402428991304 a22.26589080552335,22.26589080552335 0 0,0 -0.24986304520955735,0.2906471703506059 l -0.9527940165951998 -0.8334645124112643" fill="#ff0e01" stroke="none" /><path d="M 115.80600337817218 113.82643327865902 l 1.5760110889952548 1.3786288441841095 a23.09390268223058,23.09390268223058 0 0,0 -0.2643054827026964,0.29695001169966395 l -1.5520467566442202 -1.40555302562464" fill="#ff1a02" stroke="none" /><path d="M 115.56566222782051 114.09645910891815 l 1.4117810517905478 1.2785266425569517 a22.904666929917873,22.904666929917873 0 0,0 -0.26717049705452295,0.28996080773866806 l -1.3895641467403028 -1.3026387050969546" fill="#ff1702" stroke="none" /><path d="M 115.32070863581623 114.36230785411682 l 1.3931906951470305 1.3060383914889742 a22.909637817254197,22.909637817254197 0 0,0 -0.2721811688421734,0.28538086736504586 l -1.3705029749258926 -1.3298263754365272" fill="#ff1802" stroke="none" /><path d="M 115.07121518719521 114.62390073753431 l 0.9084446938456451 0.8814820081412987 a22.265812897885436,22.265812897885436 0 0,0 -0.26926723457987517,0.2727662870109025 l -0.8931368342102344 -0.8969887891328658" fill="#ff0e01" stroke="none" /><path d="M 114.81725581225074 114.88116024355365 l 1.3596206077735766 1.36548443187356 a22.92694471398939,22.92694471398939 0 0,0 -0.28205605993984245,0.2760512195824809 l -1.3359145954579401 -1.3886857543786129" fill="#ff1802" stroke="none" /><path d="M 114.55890576462653 115.13401014063108 l 0.5363197517010022 0.557505398557123 a21.77359624190204,21.77359624190204 0 0,0 -0.2723401661519355,0.25751462571274475 l -0.526643751158259 -0.5666546610157892" fill="#ff0701" stroke="none" /><path d="M 114.29624159901734 115.38237550388516 l 0.6726493783154573 0.7237528302833435 a21.988066468154507,21.988066468154507 0 0,0 -0.2794583260334752,0.25527855493862256 l -0.6600915028151182 -0.735224151808549" fill="#ff0a01" stroke="none" /><path d="M 114.0293411484842 115.62618273729858 l 1.295758868514165 1.4432441729500065 a22.939573352077012,22.939573352077012 0 0,0 -0.2960927037209874,0.26126738492542406 l -1.27072381188659 -1.4653346996477195" fill="#ff1802" stroke="none" /><path d="M 113.75828350139079 115.86535959552629 l 2.2985203296923973 2.65053787883577 a24.508353852329105,24.508353852329105 0 0,0 -0.32109972652579316,0.2736481530550789 l -2.2525551265895567 -2.6897104221137957" fill="#ff2e04" stroke="none" /><path d="M 113.48314897796784 116.09983520530334 l 1.953583472152827 2.3327170835877893 a24.0427056010615,24.0427056010615 0 0,0 -0.3195732058981967,0.2629869920211278 l -1.913140137709939 -2.3659991944660956" fill="#ff2803" stroke="none" /><path d="M 113.20401910651253 116.32954008644616 l 2.391233113425705 2.9572614721879082 a24.80307654638065,24.80307654638065 0 0,0 -0.3343011892386211,0.2655890830293273 l -2.339974431469733 -2.9979844692223616" fill="#ff3204" stroke="none" /><path d="M 112.34349029814194 116.9893568818739 l 1.117803934643621 1.5385251262750208 a22.901721641167374,22.901721641167374 0 0,0 -0.3209214678193977,0.22896894629569114 l -1.0911551389753387 -1.5575383344149312" fill="#ff1702" stroke="none" /><path d="M 111.7513745106137 117.40417183066458 l 1.311108073735281 1.9417941435915302 a23.342982901580847,23.342982901580847 0 0,0 -0.3349443502441293,0.2219828513846292 l -1.2774890247511876 -1.9640750160674778" fill="#ff1e03" stroke="none" /><path d="M 111.45004920935366 117.60387380957326 l 1.8863619011528816 2.9001863887147885 a24.459688181239407,24.459688181239407 0 0,0 -0.3549196240514888,0.22652649651047038 l -1.8361604750544622 -2.932227314049068" fill="#ff2d04" stroke="none" /><path d="M 111.1453310114006 117.79835938074945 l 1.851910000315994 2.9573782683270697 a24.4893633905404,24.4893633905404 0 0,0 -0.359201585938223,0.2206509520724351 l -1.8007292144454623 -2.988817687227883" fill="#ff2e04" stroke="none" /><line stroke="#e1ed5e" stroke-width="0.3" x1="143.8653032363475" x2="146.44561519142675" y1="172.8068346515853" y2="177.08958963109032" /><path d="M 144.38136562736335 173.6633856474863 a86.0,86.0 0 0,1 -40.68145358897372,12.25698825130547" fill="none" id="id6" stroke="none" /><text fill="#e1ed5e" style="font-size:6.75px; font-family:Arial;" text-anchor="middle"><textPath startOffset="21.466115282336833" xlink:href="#id6">June</textPath></text><path d="M 110.8373102113329 117.98757091392108 l 1.8187686021084108 3.018759135659587 a24.5243192175431,24.5243192175431 0 0,0 -0.3634645753169286,0.2147412776783648 l -1.7665361557631003 -3.049618985631701" fill="#ff2e04" stroke="none" /><path d="M 110.21172684928248 118.3499491758327 l 1.7003885880833274 3.05551104441139 a24.496779817632788,24.496779817632788 0 0,0 -0.370224718894911,0.2018760356773304 l -1.6475410573197677 -3.084327731848491" fill="#ff2e04" stroke="none" /><path d="M 109.89434966115114 118.52300852407294 l 1.630832244425314 3.053047506844284 a24.461316640890487,24.461316640890487 0 0,0 -0.37310391696463074,0.1951903353757756 l -1.5780374249341875 -3.0806672611647765" fill="#ff2d04" stroke="none" /><path d="M 109.57404056367764 118.69057910512821 l 5.7748856210158435 11.273814415635096 a33.6668147303889,33.6668147303889 0 0,0 -0.5180618867092215,0.2597669847843536 l -5.579969826623862 -11.37154924132875" fill="#ffa90f" stroke="none" /><path d="M 108.59647513512805 119.15986991738527 l 0.7814345920702969 1.741665612668453 a22.90893664851295,22.90893664851295 0 0,0 -0.36117501380466316,0.15832851209671278 l -0.7513389036078799 -1.7548586780596205" fill="#ff1802" stroke="none" /><path d="M 108.2653958097858 119.30500536409082 l 0.7483114252638505 1.7477875725716099 a22.901244694408422,22.901244694408422 0 0,0 -0.3637247008865502,0.15203695446952464 l -0.7181152648798392 -1.7604095700611075" fill="#ff1702" stroke="none" /><path d="M 107.93186726928326 119.44442032107085 l 1.3153047987580355 3.2243781305336663 a24.482332701265015,24.482332701265015 0 0,0 -0.3915761696993297,0.15581623913450288 l -1.2596075530168396 -3.2465412140742385" fill="#ff2e04" stroke="none" /><path d="M 107.59598834532513 119.57807347666477 l 0.357225377537085 0.920720829364439 a21.987591421581847,21.987591421581847 0 0,0 -0.35403140159013075,0.13386438281855575 l -0.34132375518667946 -0.9267334622896256" fill="#ff0a01" stroke="none" /><path d="M 107.2578585660854 119.70592522655815 l 1.130103728374108 3.068362295409974 a24.269859570804016,24.269859570804016 0 0,0 -0.39326468943846793,0.14101072594517408 l -1.0771194783059053 -3.087360562395108" fill="#ff2b04" stroke="none" /><path d="M 106.57524785965236 119.94407469862006 l 1.1104978104230032 3.368367513510184 a24.54670341204689,24.54670341204689 0 0,0 -0.40242409681672037,0.12884348766659032 l -1.0523523685153424 -3.386983847836481" fill="#ff2f04" stroke="none" /><path d="M 106.2309692047433 120.05430185196036 l 1.2777414705902184 4.112396049153575 a25.30632378378124,25.30632378378124 0 0,0 -0.4171024745945094,0.12566955405155356 l -1.2067640215554631 -4.133780972310855" fill="#ff3905" stroke="none" /><path d="M 105.88484417918355 120.15858648285463 l 0.5430071743544369 1.8600759428354305 a22.937714969884762,22.937714969884762 0 0,0 -0.37996743394872906,0.10738259222602317 l -0.5109085723011021 -1.8691473283999727" fill="#ff1802" stroke="none" /><path d="M 105.53697534728816 120.25689768951611 l 0.531195112140321 1.9433651704928794 a23.01465541297925,23.01465541297925 0 0,0 -0.3830400962969691,0.10116437082928961 l -0.4976645730318544 -1.952220890625753" fill="#ff1902" stroke="none" /><path d="M 105.18746579009965 120.34920634021253 l 0.8762040635017182 3.4371421433483067 a24.547066347628405,24.547066347628405 0 0,0 -0.41034128621549587,0.10085190459787617 l -0.8169094925430112 -3.451715306260213" fill="#ff2f04" stroke="none" /><path d="M 104.83641907484287 120.43548508189849 l 0.5478895270631449 2.3150161480146525 a23.37896672936678,23.37896672936678 0 0,0 -0.39241022381506907,0.08931128936230683 l -0.5079591538552137 -2.324104170954644" fill="#ff1e03" stroke="none" /><path d="M 104.48393922423573 120.51570834832081 l 0.2110535969694575 0.9656495828235617 a21.988444605226345,21.988444605226345 0 0,0 -0.3704618786293433,0.07763388860015637 l -0.19440025691073615 -0.9691394521502592" fill="#ff0a01" stroke="none" /><path d="M 103.41894727170886 120.7198165907248 l 0.6607738503201078 4.004482052083996 a25.058632600609435,25.058632600609435 0 0,0 -0.42619261294991084,0.06656252104899958 l -0.5917453737616799 -4.015262880480101" fill="#ff3605" stroke="none" /><path d="M 103.06178313531738 120.77559828337769 l 0.28228096654201484 1.915405404214748 a22.936094110978843,22.936094110978843 0 0,0 -0.39108378718998266,0.05420064934094687 l -0.24926858816520173 -1.9199806190482973" fill="#ff1802" stroke="none" /><path d="M 102.34483914955558 120.86867818915974 l 0.11244358214584779 1.0007291675775634 a22.00702652696256,22.00702652696256 0 0,0 -0.37680997070150235,0.039057894146227255 l -0.09520101483874278 -1.002516430179549" fill="#ff0b01" stroke="none" /><path d="M 101.98527174616119 120.90594882070398 l 0.3332285215391984 3.5090704486012996 a24.52485697026335,24.52485697026335 0 0,0 -0.42060793306744304,0.036291822290941286 l -0.27277627073021365 -3.514286523170904" fill="#ff2e04" stroke="none" /><path d="M 101.62511606390274 120.93702456842531 l 0.2729878738482527 3.517012691337933 a24.52759133833559,24.52759133833559 0 0,0 -0.4212172773809509,0.029049609600591948 l -0.21240783568837146 -3.52119064545481" fill="#ff2e04" stroke="none" /><path d="M 101.26447882468166 120.96189622390904 l 0.2025676782408267 3.3580654469808158 a24.364169616781286,24.364169616781286 0 0,0 -0.4188455207074202,0.021649529196553725 l -0.14473408911992688 -3.3610547829395716" fill="#ff2c04" stroke="none" /><path d="M 100.90346689309514 120.98055641714683 l 0.08578291579284933 1.9920744392231986 a22.993920580175736,22.993920580175736 0 0,0 -0.3955826448012793,0.013624666131119869 l -0.051479919316917755 -1.993255903780412" fill="#ff1902" stroke="none" /><line stroke="#e1ed5e" stroke-width="0.3" x1="102.19456741930631" x2="102.32365962044197" y1="184.97166512339345" y2="189.96999836594603" /><path d="M 102.22038585953345 185.97133177190398 a86.0,86.0 0 0,1 -42.740103519485714,-10.115201625700543" fill="none" id="id7" stroke="none" /><text fill="#e1ed5e" style="font-size:6.75px; font-family:Arial;" text-anchor="middle"><textPath startOffset="22.20632615414155" xlink:href="#id7">July</textPath></text><path d="M 100.54218724476979 120.99299961872073 l 0.04911449883405188 1.901668962601076 a22.90230309817231,22.90230309817231 0 0,0 -0.394181692094072,0.006786195304188063 l -0.01637311684731195 -1.9022326351844239" fill="#ff1702" stroke="none" /><path d="M 100.18074693466247 120.99922214144158 l 0.01322028512848932 1.5359358912768255 a22.53599278580702,22.53599278580702 0 0,0 -0.38793443958188845,0.0 l 0.013220285128488262 -1.5359358912768255" fill="#ff1202" stroke="none" /><path d="M 99.81925306533755 120.99922214144158 l -0.016532675227237767 1.9207701659639949 a22.92084131562384,22.92084131562384 0 0,0 -0.39450076157333475,-0.00679168837463073 l 0.04959312669324044 -1.9202010003102046" fill="#ff1802" stroke="none" /><path d="M 99.09653310690486 120.98055641714683 l -0.08184100013377966 1.9005341907549833 a22.902295497427147,22.902295497427147 0 0,0 -0.39371437787101093,-0.02035053617005448 l 0.11454344641827954 -1.898843847822727" fill="#ff1702" stroke="none" /><path d="M 98.73552117531835 120.96189622390904 l -0.2069322079199522 3.4304184325858396 a24.436654123024212,24.436654123024212 0 0,0 -0.41965559422512516,-0.028941906786788475 l 0.26595056292400737 -3.426348181282766" fill="#ff2d04" stroke="none" /><path d="M 98.37488393609728 120.93702456842531 l -0.2942717065827483 3.79122087792264 a24.802624302043476,24.802624302043476 0 0,0 -0.4253717179667946,-0.036702861697018814 l 0.3594877422910846 -3.7855937639469577" fill="#ff3204" stroke="none" /><path d="M 98.01472825383883 120.90594882070398 l -0.09349787230836047 0.98458144941766 a21.989010860740958,21.989010860740958 0 0,0 -0.376501501828954,-0.03902592008633103 l 0.11043197074290778 -0.9828261608755682" fill="#ff0a01" stroke="none" /><path d="M 97.65516085044442 120.86867818915974 l -0.17363276549444118 1.5453027159172479 a22.555026951880407,22.555026951880407 0 0,0 -0.38544669739841375,-0.04667222717997502 l 0.20020688594424427 -1.5420849600119244" fill="#ff1202" stroke="none" /><path d="M 97.2962882734958 120.8252237178851 l -0.14689740352930142 1.1314709560510536 a22.14096685821751,22.14096685821751 0 0,0 -0.37752605692417274,-0.05232167146442278 l 0.1663520516403052 -1.1287747190940258" fill="#ff0d01" stroke="none" /><path d="M 96.93821686468263 120.77559828337769 l -0.23839555270225565 1.617622808864445 a22.635095101609295,22.635095101609295 0 0,0 -0.3849735330526366,-0.060124948482238164 l 0.2662049493634094 -1.613279553035101" fill="#ff1402" stroke="none" /><path d="M 95.51606077576429 120.51570834832081 l -0.7548739655805132 3.4538322985922925 a24.535363100264323,24.535363100264323 0 0,0 -0.4118200533415733,-0.09372890336955707 l 0.8142141683149492 -3.4403266616450483" fill="#ff2f04" stroke="none" /><path d="M 95.16358092515715 120.4354850818985 l -0.4380223523998658 1.8507906592640333 a22.90191736035531,22.90191736035531 0 0,0 -0.3828401363064368,-0.09409279104988233 l 0.4698157734495132 -1.842976609900121" fill="#ff1702" stroke="none" /><path d="M 94.81253420990036 120.34920634021253 l -0.31309927063889076 1.228214685359584 a22.267494562752656,22.267494562752656 0 0,0 -0.3706048649678691,-0.09788011321321571 l 0.3341945784182491 -1.2226432228427866" fill="#ff0e01" stroke="none" /><path d="M 94.46302465271185 120.25689768951611 l -0.8353624451908609 3.0561544028154484 a24.16826611077471,24.16826611077471 0 0,0 -0.40035173813771635,-0.11314340020314205 l 0.8878453514331911 -3.041322209273785" fill="#ff2904" stroke="none" /><path d="M 94.11515582081647 120.15858648285463 l -0.4611207872279583 1.5795733897692548 a22.645504322109446,22.645504322109446 0 0,0 -0.3732464648716026,-0.11245609807837523 l 0.48824222653980676 -1.571401922585154" fill="#ff1402" stroke="none" /><path d="M 93.76903079525671 120.05430185196036 l -0.30352127699047216 0.9768796967614242 a22.022946287705576,22.022946287705576 0 0,0 -0.36104906309836876,-0.11559650845047469 l 0.32029168517978124 -0.971510341651243" fill="#ff0b01" stroke="none" /><path d="M 93.42475214034765 119.94407469862007 l -1.4880373059822525 4.5135221999695885 a25.752487524824577,25.752487524824577 0 0,0 -0.419802663423998,-0.1424198562417369 l 1.5655097023434763 -4.487239356829728" fill="#ff4006" stroke="none" /><path d="M 93.08242187328487 119.8279376855182 l -0.6388380534479624 1.8311092239039013 a22.939349130094715,22.939349130094715 0 0,0 -0.37170532385032035,-0.13328030449075054 l 0.6702629379280094 -1.819841378373193" fill="#ff1802" stroke="none" /><path d="M 92.7421414339146 119.70592522655815 l -0.5259378144324425 1.4279819798989424 a22.521756590117512,22.521756590117512 0 0,0 -0.3626322182812894,-0.1371164757485233 l 0.5504402534740148 -1.4187172540437858" fill="#ff1202" stroke="none" /><path d="M 92.06813273071674 119.44442032107085 l -0.7181095231558591 1.760395494624563 a22.901229492918095,22.901229492918095 0 0,0 -0.363724459451745,-0.15203685354975702 l 0.7483054421050663 -1.7477735980548328" fill="#ff1702" stroke="none" /><path d="M 91.40352486487194 119.15986991738527 l -0.7818071834565659 1.74249604634982 a22.90984683774617,22.90984683774617 0 0,0 -0.35841037610791415,-0.16452862475229246 l 0.8116855553318995 -1.7287803512634532" fill="#ff1802" stroke="none" /><path d="M 91.07499286063937 119.00905698771935 l -1.0610872006778889 2.2599720932066996 a23.496673769140756,23.496673769140756 0 0,0 -0.36463182502352276,-0.17504543465080857 l 1.0998316937016537 -2.2413723820563285" fill="#ff2003" stroke="none" /><path d="M 90.42595943632237 118.69057910512821 l -1.6045351769885792 3.132396552218715 a24.519437638962433,24.519437638962433 0 0,0 -0.37399042574733,-0.19565411487189127 l 1.6582165052624047 -3.1043130184021073" fill="#ff2e04" stroke="none" /><path d="M 90.10565033884886 118.52300852407294 l -0.5369497843130867 1.0052126488799762 a22.139634827627766,22.139634827627766 0 0,0 -0.3346007165641722,-0.1824509892164786 l 0.5541733127458994 -0.9958210079037317" fill="#ff0d01" stroke="none" /><line stroke="#e1ed5e" stroke-width="0.3" x1="58.666819895761336" x2="56.23545636021788" y1="174.27360380694188" y2="178.64263932499728" /><path d="M 58.180547188652646 175.14741091055294 a86.0,86.0 0 0,1 -31.652253787137756,-30.449443065178592" fill="none" id="id8" stroke="none" /><text fill="#e1ed5e" style="font-size:6.75px; font-family:Arial;" text-anchor="middle"><textPath startOffset="22.20632615414155" xlink:href="#id8">August</textPath></text><path d="M 89.7882731507175 118.34994917583269 l -2.167986902725476 3.8957612229589413 a25.458376690758616,25.458376690758616 0 0,0 -0.38108914785354125,-0.21639236396705322 l 2.2347248175002243 -3.8578656931972546" fill="#ff3b05" stroke="none" /><path d="M 87.95078237400918 117.19931262002967 l -2.747941260751561 3.9224705098857515 a25.789254229362257,25.789254229362257 0 0,0 -0.36138441689803935,-0.25783818610537346 l 2.8150530054984877 -3.8745880619361586" fill="#ff4006" stroke="none" /><path d="M 87.65650970185807 116.9893568818739 l -1.467063494498056 2.019239670010386 a23.49591749499708,23.49591749499708 0 0,0 -0.3251555598976928,-0.2405423098407445 l 1.5016040248143132 -1.9936874114298748" fill="#ff2003" stroke="none" /><path d="M 87.36589467227662 116.77436683061367 l -0.7614760502383238 1.011015680817199 a22.26570078689429,22.26570078689429 0 0,0 -0.3041614236057113,-0.23321800951238977 l 0.7787662023375218 -0.9977583294774425" fill="#ff0e01" stroke="none" /><path d="M 86.79598089348748 116.32954008644616 l -1.1950998202100955 1.4779916829868793 a22.900716442619622,22.900716442619622 0 0,0 -0.3043940017553784,-0.2504955404065404 l 1.2203639505101627 -1.457201023723158" fill="#ff1702" stroke="none" /><path d="M 86.24171649860922 115.8653595955263 l -1.2453585846495685 1.436084797121952 a22.90085705640513,22.90085705640513 0 0,0 -0.2955929728634163,-0.26082643054632804 l 1.2698939104195726 -1.4144352248033352" fill="#ff1702" stroke="none" /><path d="M 85.97065885151581 115.62618273729859 l -2.0320983636234415 2.263394982990787 a24.04177260959279,24.04177260959279 0 0,0 -0.3055599971959881,-0.2791218126809264 l 2.0707579102862845 -2.2280804037232844" fill="#ff2803" stroke="none" /><path d="M 85.70375840098266 115.38237550388516 l -2.431464302501203 2.616190882499954 a24.571620554876112,24.571620554876112 0 0,0 -0.3073373433672374,-0.29060664118347423 l 2.4761374802592573 -2.573949604570549" fill="#ff2f04" stroke="none" /><path d="M 85.44109423537348 115.13401014063109 l -1.3213774894242263 1.373574405099592 a22.905976158272125,22.905976158272125 0 0,0 -0.28179809673183454,-0.2757987482893895 l 1.344825538531855 -1.3506255538876326" fill="#ff1802" stroke="none" /><path d="M 85.18274418774928 114.88116024355367 l -1.384437710778943 1.3904085670361805 a22.96211716222922,22.96211716222922 0 0,0 -0.27768785342482594,-0.2812963294434853 l 1.4081661892593023 -1.3663717436120304" fill="#ff1802" stroke="none" /><path d="M 84.67929136418377 114.36230785411682 l -2.9272581011657244 2.744140823820303 a25.012374465549986,25.012374465549986 0 0,0 -0.2917557604710656,-0.3166432555288269 l 2.974060269632519 -2.6933463134901316" fill="#ff3505" stroke="none" /><path d="M 84.43433777217949 114.09645910891817 l -3.8584505529174904 3.4942612557641133 a26.205526139867466,26.205526139867466 0 0,0 -0.29991744276315657,-0.3369604263473905 l 3.9180268453289853 -3.4273266596758587" fill="#ff4606" stroke="none" /><path d="M 84.19399662182784 113.82643327865904 l -3.033151937841938 2.6532749544089147 a25.029873281100528,25.029873281100528 0 0,0 -0.28087986300883655,-0.3267267367349801 l 3.0783743104215535 -2.6006711185124045" fill="#ff3505" stroke="none" /><path d="M 83.95833913139862 113.55231037782056 l -3.6586265986571163 3.0908796556471603 a25.789476551158263,25.789476551158263 0 0,0 -0.28356634744353754,-0.3415739327444426 l 3.7112889459941902 -3.0274444657889568" fill="#ff4006" stroke="none" /><path d="M 83.72743513129214 113.27417163493432 l -3.124837178191377 2.549052676649735 a25.032651353457453,25.032651353457453 0 0,0 -0.2694968611805892,-0.3362387713595169 l 3.1682519514268273 -2.4948860717119588" fill="#ff3605" stroke="none" /><path d="M 83.50135304334701 112.99209946851258 l -1.4926765591589444 1.1754298629373356 a22.899925965122712,22.899925965122712 0 0,0 -0.24120511950933754,-0.3117901317431378 l 1.5126884958863502 -1.149561737080945" fill="#ff1702" stroke="none" /><path d="M 83.28015986056508 112.70617746262583 l -5.043955137238005 3.833134082191971 a27.335171688165314,27.335171688165314 0 0,0 -0.28147251907244003,-0.37707843687920467 l 5.109188923005531 -3.7457427658034583" fill="#ff5507" stroke="none" /><path d="M 83.06392112726016 112.41649034213515 l -1.020794484377775 0.7483836696688114 a22.265740690806393,22.265740690806393 0 0,0 -0.22395116055347675,-0.31104857468675023 l 1.0335254373068592 -0.7307014895309231" fill="#ff0e01" stroke="none" /><path d="M 82.85270091963577 112.12312394758628 l -3.1066972729725513 2.1964319821658194 a24.80471830733577,24.80471830733577 0 0,0 -0.24348676809395264,-0.3507608495406253 l 3.144044948228638 -2.1426298704381814" fill="#ff3204" stroke="none" /><path d="M 82.6465618267979 111.8261652097733 l -2.3568179629789534 1.6061438846505793 a23.852067511266295,23.852067511266295 0 0,0 -0.22829483329991113,-0.3412698003336265 l 2.384115901689595 -1.5653371701111318" fill="#ff2503" stroke="none" /><path d="M 82.05923443525364 110.91462005526583 l -1.786044440081418 1.086575508439529 a23.09059825827115,23.09059825827115 0 0,0 -0.2036581137619483,-0.34134271305784314 l 1.8044834295415981 -1.0556707014955746" fill="#ff1a02" stroke="none" /><line stroke="#e1ed5e" stroke-width="0.3" x1="26.63291911575756" x2="22.317208475507996" y1="142.92168965132927" y2="145.44649492493687" /><path d="M 25.769776987707644 143.4266507060508 a86.0,86.0 0 0,1 -11.730757126820373,-40.83630448921669" fill="none" id="id9" stroke="none" /><text fill="#e1ed5e" style="font-size:6.75px; font-family:Arial;" text-anchor="middle"><textPath startOffset="21.46611528233685" xlink:href="#id9">September</textPath></text><path d="M 81.87401531095188 110.60418214915194 l -3.644775835682309 2.1322906047556827 a25.22268328382594,25.22268328382594 0 0,0 -0.21601186858461421,-0.3766349005718687 l 3.6809397004193003 -2.069235858325507" fill="#ff3805" stroke="none" /><path d="M 81.69416730710424 110.29060199501025 l -1.8229061661936987 1.0247445251605185 a23.09119301658012,23.09119301658012 0 0,0 -0.19179279980952244,-0.34815964163883734 l 1.8402753754547376 -0.9932143651238586" fill="#ff1a02" stroke="none" /><path d="M 81.35079622478065 109.6543875284942 l -3.2386817708417124 1.6766125392829514 a24.646928737946936,24.646928737946936 0 0,0 -0.1918016133351609,-0.3784427793340499 l 3.26706205396314 -1.6206155482462166" fill="#ff3004" stroke="none" /><path d="M 80.87730276802145 108.67885076344099 l -2.0775241313295965 0.9428859158583989 a23.281477671725263,23.281477671725263 0 0,0 -0.1624813387343325,-0.3663525250252272 l 2.093446554795209 -0.9069850543404758" fill="#ff1d02" stroke="none" /><path d="M 80.73074385275274 108.34839909993369 l -5.1919622649267785 2.249416000710357 a26.658298728829664,26.658298728829664 0 0,0 -0.17879977233514469,-0.42262984520137387 l 5.22991301845423 -2.1597116298428243" fill="#ff4c07" stroke="none" /><path d="M 80.58989483394504 108.01547362559985 l -3.3158213370977956 1.3692804983452067 a24.587422504069114,24.587422504069114 0 0,0 -0.15817602392613378,-0.39257991946335274 l 3.338899975281317 -1.3120012110390487" fill="#ff2f04" stroke="none" /><path d="M 80.45479744820244 107.68017299344265 l -3.339610931920679 1.3122805772910313 a24.588186378957953,24.588186378957953 0 0,0 -0.15139967396286788,-0.3952567740881028 l 3.361704885477056 -1.2546002363697708" fill="#ff2f04" stroke="none" /><path d="M 80.32549172779594 107.34259656027581 l -3.564003490840928 1.3300987964019884 a24.804114048095343,24.804114048095343 0 0,0 -0.14584315772377462,-0.4012977329119958 l 3.586370909569927 -1.2685532664838755" fill="#ff3204" stroke="none" /><path d="M 80.20201598880116 107.00284435728193 l -3.9807094247217547 1.4080367231897633 a25.22239445550976,25.22239445550976 0 0,0 -0.1412564215968869,-0.4105572818258289 l 4.00435667726187 -1.3393067382746375" fill="#ff3805" stroke="none" /><path d="M 80.0844068197444 106.66101706037122 l -2.2020190906704715 0.7364925863599555 a23.32191933654905,23.32191933654905 0 0,0 -0.12405900528888109,-0.38181435821592863 l 2.2143703469756018 -0.6984793281662235" fill="#ff1d03" stroke="none" /><path d="M 79.97269907076064 106.31721596034903 l -9.06724930630299 2.860084453547801 a30.507633410269765,30.507633410269765 0 0,0 -0.15366146900019248,-0.5021745714857259 l 9.115137547809313 -2.703582909510027" fill="#ff800b" stroke="none" /><path d="M 79.86692584326677 105.97154293290107 l -3.344526037972379 0.9919985726212729 a24.48854060987655,24.48854060987655 0 0,0 -0.1163874602275874,-0.40516001765255855 l 3.3611061350860707 -0.9342810794641183" fill="#ff2e04" stroke="none" /><path d="M 79.76711848015287 105.62410040840567 l -2.0339857278624764 0.5653836282064632 a23.111103168533493,23.111103168533493 0 0,0 -0.10324271648113469,-0.3842045552595511 l 2.043416520685386 -0.5302881397713731" fill="#ff1a02" stroke="none" /><path d="M 79.67330655649465 105.27499134158121 l -3.9011944778006384 1.0124011142991876 a25.030418634565947,25.030418634565947 0 0,0 -0.10463750259871525,-0.4179748087319536 l 3.9180432946944124 -0.9450984661698422" fill="#ff3505" stroke="none" /><path d="M 79.58551787078972 104.9243191809786 l -3.9208750609867056 0.9457815362071288 a25.033331620149504,25.033331620149504 0 0,0 -0.09743858854779805,-0.4197628892591255 l 3.936574215465059 -0.878149989599429" fill="#ff3605" stroke="none" /><path d="M 79.50377843672027 104.57218783832718 l -3.4422449244083038 0.7678776466839026 a24.52685216586853,24.52685216586853 0 0,0 -0.08837370696161784,-0.4128525378027265 l 3.4549526700943622 -0.7085112894650123" fill="#ff2e04" stroke="none" /><path d="M 79.4281124754447 104.21870165774334 l -3.9293428221013857 0.8057950471318921 a25.01111464203929,25.01111464203929 0 0,0 -0.08285832961904588,-0.42249283761872 l 3.942631084696098 -0.7380384824452172" fill="#ff3505" stroke="none" /><path d="M 79.35854240842038 103.8639653848113 l -2.489804889753288 0.466077546426041 a23.533052835675146,23.533052835675146 0 0,0 -0.07110742500206817,-0.39880820201054096 l 2.497458757094545 -0.4231505936822864" fill="#ff2003" stroke="none" /><path d="M 79.29508885075956 103.50808413554451 l -4.722795668496884 0.8001949122433227 a25.790105512820467,25.790105512820467 0 0,0 -0.070392552515813,-0.4383344917109132 l 4.735869975373988 -0.7187811908391959" fill="#ff4006" stroke="none" /><path d="M 79.18660465613746 102.79330883721812 l -3.9947025241701595 0.5361180950282796 a25.030517444253057,25.030517444253057 0 0,0 -0.05363502417913466,-0.4275239146787086 l 4.0033390575961425 -0.46727642606216235" fill="#ff3505" stroke="none" /><path d="M 79.1416061653843 102.43462659150553 l -3.0209764850617997 0.35261342465585305 a24.041485681462905,24.041485681462905 0 0,0 -0.04443976869760977,-0.4114570657748626 l 3.026598555260461 -0.30056003699620837" fill="#ff2803" stroke="none" /><path d="M 79.10278846688536 102.07522291339032 l -3.0275213073697707 0.3006516720125637 a24.042412972372738,24.042412972372738 0 0,0 -0.037352068080806745,-0.4121769587740749 l 3.032247971727653 -0.24849332468992266" fill="#ff2803" stroke="none" /><path d="M 79.07016306316243 101.71520430193888 l -3.03558870122153 0.2487670981367395 a24.045764900989436,24.045764900989436 0 0,0 -0.030255802772975172,-0.41281639049000013 l 3.0394210626588403 -0.19647757114997874" fill="#ff2803" stroke="none" /><path d="M 79.04373962182676 101.35467743843564 l -4.0636309668335935 0.26268566478738065 a25.072112522155265,25.072112522155265 0 0,0 -0.024133280239579565,-0.4309159304983944 l 4.067550597960705 -0.1926980179535486" fill="#ff3605" stroke="none" /><path d="M 79.0235259727143 100.99374915477108 l -4.0923354333383655 0.19387218617532187 a25.096925154738503,25.096925154738503 0 0,0 -0.01672873448378023,-0.4316943045656341 l 4.095066300673347 -0.12340063459569094" fill="#ff3605" stroke="none" /><path d="M 79.0095281055655 100.63252640178507 l -13.586211246313617 0.4094065801255869 a34.592378370885235,34.592378370885235 0 0,0 -0.012812254787869013,-0.5953351352037712 l 13.591245563786494 -0.17548162913168683" fill="#ffb510" stroke="none" /><line stroke="#e1ed5e" stroke-width="0.3" x1="15.007084014347285" x2="10.007500721073583" y1="101.09737516637583" y2="101.16192664675087" /><path d="M 14.007167355692545 101.11028546245083 a86.0,86.0 0 0,1 10.666146001902534,-42.60595125391555" fill="none" id="id10" stroke="none" /><text fill="#e1ed5e" style="font-size:6.75px; font-family:Arial;" text-anchor="middle"><textPath startOffset="22.20632615414155" xlink:href="#id10">October</textPath></text><path d="M 79.00486145842228 99.54816195383935 l -1.9019995005123282 -0.040933082504224276 a22.902439911585237,22.902439911585237 0 0,0 0.011874703022312826,-0.3940635827076675 l 1.9010131030343704 0.0736668126368862" fill="#ff1702" stroke="none" /><path d="M 79.01574976396665 99.18683210126434 l -4.008186099110654 -0.1553225982007436 a25.011194449863495,25.011194449863495 0 0,0 0.020373870990833584,-0.4300602155208546 l 4.004918619886322 0.2242939203446073" fill="#ff3505" stroke="none" /><path d="M 79.05617556472873 98.46500227214037 l -1.9436065135732654 -0.14244922609090346 a22.948819658567288,22.948819658567288 0 0,0 0.032265511721546285,-0.3937209685471589 l 1.940866518032222 0.17588411184584077" fill="#ff1802" stroke="none" /><path d="M 79.08570108090925 98.10471618934814 l -13.71124051593361 -1.2425323112352509 a34.7674254321657,34.7674254321657 0 0,0 0.059142493765035324,-0.5955568410647191 l 13.687820896486345 1.4783646830044002" fill="#ffb711" stroke="none" /><path d="M 79.16333360222342 97.38593545837743 l -2.9521137804085567 -0.3703575134756107 a23.97525468830249,23.97525468830249 0 0,0 0.05489648423909571,-0.4090425713879554 l 2.945301297111627 0.4211184269282255" fill="#ff2703" stroke="none" /><path d="M 79.21141760316559 97.0276538004421 l -3.0502661116630136 -0.43612626929397635 a24.081286983506743,24.081286983506743 0 0,0 0.062203233202480196,-0.409841587745051 l 3.0423069850212316 0.4885669694311194" fill="#ff2803" stroke="none" /><path d="M 79.26566170972629 96.67025291283419 l -3.4195496665931 -0.5491487301091432 a24.463363141525512,24.463363141525512 0 0,0 0.07034747433673878,-0.4151947756776403 l 3.409590330736138 0.6079292941026114" fill="#ff2e04" stroke="none" /><path d="M 79.32604984820605 96.31383870115002 l -1.2456003204639263 -0.2220902953435266 a22.265244742184535,22.265244742184535 0 0,0 0.07052174457124591,-0.3767299794075883 l 1.241592851982819 0.24349835221368757" fill="#ff0e01" stroke="none" /><path d="M 79.3925641242962 95.95851677861259 l -7.126533717663655 -1.3976395035418567 a28.262291581233686,28.262291581233686 0 0,0 0.09773464350880531,-0.476588831501094 l 7.101419778239855 1.520103991206353" fill="#ff6209" stroke="none" /><path d="M 79.46518482838121 95.60439243477599 l -3.365688319695527 -0.7204469539461398 a24.441932840539625,24.441932840539625 0 0,0 0.09160558605093809,-0.4106498802160074 l 3.3527883466425514 0.7782750037121063" fill="#ff2d04" stroke="none" /><path d="M 79.54389044137918 95.25157060432595 l -3.3553463904034815 -0.7788687964934274 a24.444558897993296,24.444558897993296 0 0,0 0.09867127650678453,-0.4090561429679307 l 3.3414423136358824 0.8365101711207549" fill="#ff2d04" stroke="none" /><path d="M 79.91906864156998 93.8553929516997 l -23.7814739792395 -7.276943983500076 a45.869909898595196,45.869909898595196 0 0,0 0.23752862673899106,-0.7530306573131456 l 23.652689868732306 7.685224807239636" fill="#c1ff1e" stroke="none" /><path d="M 80.52162464483688 92.15188598940014 l -1.5911603600700068 -0.6411011024934604 a22.715459680399526,22.715459680399526 0 0,0 0.1492495623002891,-0.36141965347923716 l 1.579889110883518 0.6683953264260089" fill="#ff1502" stroke="none" /><path d="M 80.65960295795068 91.81776055985345 l -2.744843937460342 -1.1612466007448299 a23.980379490728357,23.980379490728357 0 0,0 0.16410491972931948,-0.3787767804863127 l 2.724448307888342 1.208322525817742" fill="#ff2703" stroke="none" /><path d="M 80.803312248108 91.48605970444005 l -3.8145545369789295 -1.6917965224909708 a25.1728889020796,25.1728889020796 0 0,0 0.17908434653855482,-0.39458861906801374 l 3.7848678734770234 1.7572071504010556" fill="#ff3705" stroke="none" /><path d="M 81.10775173730289 90.83032412892265 l -2.164888566457728 -1.0507656989991625 a23.406418720707723,23.406418720707723 0 0,0 0.17904794286197548,-0.3609497271561714 l 2.1464806106423397 1.0878750146542953" fill="#ff1f03" stroke="none" /><path d="M 81.26839172434947 90.50648371742162 l -3.1408049413584775 -1.5918164853975318 a24.521155407369175,24.521155407369175 0 0,0 0.1940564150818866,-0.3748552270218562 l 3.112939093116477 1.6456444346797234" fill="#ff2e04" stroke="none" /><path d="M 81.6062741919709 89.86733742301443 l -5.363717968435932 -2.9547436391898305 a27.123722758114972,27.123722758114972 0 0,0 0.22879810601441258,-0.407006300620914 l 5.312062221129088 3.046633449745529" fill="#ff5207" stroke="none" /><line stroke="#e1ed5e" stroke-width="0.3" x1="26.266209847984243" x2="21.928928074336255" y1="57.711370442889674" y2="55.22380399835377" /><path d="M 25.398753493254645 57.213857153982495 a86.0,86.0 0 0,1 29.58750427330803,-30.492523968695096" fill="none" id="id11" stroke="none" /><text fill="#e1ed5e" style="font-size:6.75px; font-family:Arial;" text-anchor="middle"><textPath startOffset="21.46611528233685" xlink:href="#id11">November</textPath></text><path d="M 81.78341655067845 89.55222093294921 l -2.475868786606774 -1.4199880100150224 a23.85417101749004,23.85417101749004 0 0,0 0.20734991156062718,-0.3544282123184764 l 2.451059200575822 1.4623956346873905" fill="#ff2503" stroke="none" /><path d="M 82.15384107792192 88.93136811851018 l -1.075523732058542 -0.6670665840162692 a22.265594376462012,22.265594376462012 0 0,0 0.2048142088911211,-0.3239668922271001 l 1.063881926921458 0.6854811239575849" fill="#ff0e01" stroke="none" /><path d="M 82.54541684631803 88.32363383020206 l -1.6139390013282138 -1.0796558467940822 a22.941766167056414,22.941766167056414 0 0,0 0.2223991574267297,-0.32634332090909474 l 1.5951153782327436 1.1072771909735926" fill="#ff1802" stroke="none" /><path d="M 82.7489923806493 88.02491185347247 l -1.61296181658799 -1.1196656077618339 a22.963490996917354,22.963490996917354 0 0,0 0.2281995607763767,-0.3227720953409341 l 1.593449636007735 1.1472642034345542" fill="#ff1802" stroke="none" /><path d="M 82.95767976084542 87.72973835380427 l -2.8355451038129553 -2.0415577131004654 a24.494034048442806,24.494034048442806 0 0,0 0.24929956411982274,-0.34004432529095596 l 2.7999829271794994 2.0900644820629224" fill="#ff2e04" stroke="none" /><path d="M 83.17141714833178 87.43820079747576 l -3.2895606161879147 -2.4555127600057034 a25.104966743120514,25.104966743120514 0 0,0 0.26147905936162147,-0.34407579188907644 l 3.246805616602184 2.5117733277758063" fill="#ff3705" stroke="none" /><path d="M 83.39014120810768 87.1503855733568 l -1.5617918695995234 -1.2082235972298565 a22.97458808485472,22.97458808485472 0 0,0 0.2446748988196253,-0.3107122743759249 l 1.5407628901859272 1.2349282655588292" fill="#ff1802" stroke="none" /><path d="M 83.6137871275137 86.86637796730984 l -3.773988723389951 -3.0248686401397733 a25.83661257228399,25.83661257228399 0 0,0 0.2811288063049965,-0.34463067548569487 l 3.721361425008562 3.0893834852335504" fill="#ff4106" stroke="none" /><path d="M 84.07557802195018 86.31012108654704 l -2.6116788758755933 -2.2452034755699426 a24.444097152724666,24.444097152724666 0 0,0 0.2770425718972447,-0.3167075513295387 l 2.572644440400505 2.2898265831024243" fill="#ff2d04" stroke="none" /><path d="M 85.05521093208273 85.24692304244772 l -13.225029482423398 -13.055378489010755 a39.58344188524539,39.58344188524539 0 0,0 0.4828505103408355,-0.4807769968000451 l 12.998343171915248 13.28109133646091" fill="#fff316" stroke="none" /><path d="M 85.31137513191541 84.99185889309783 l -0.18719724780142868 -0.19126928048465675 a21.26763173810583,21.26763173810583 0 0,0 0.2638368779265105,-0.25381086752761595 l 0.18387712626249064 0.1944632347745863" fill="#ff0000" stroke="none" /><path d="M 85.83668400450813 84.49514656593479 l -1.2823630908004098 -1.4038274496201208 a22.901364406144733,22.901364406144733 0 0,0 0.2933435902054117,-0.26336677164856714 l 1.2580085129990266 1.4256932300379668" fill="#ff1702" stroke="none" /><path d="M 86.65592168130627 83.78471172551755 l -1.253761965229857 -1.5235306034814935 a22.97308503749882,22.97308503749882 0 0,0 0.3075074346918878,-0.2486496264788585 l 1.2273511319734687 1.5448863272244864" fill="#ff1802" stroke="none" /><path d="M 86.93701828274178 83.55741782278169 l -2.6272654946243015 -3.3069807285772717 a25.223582071941415,25.223582071941415 0 0,0 0.3422809396556031,-0.26715570257149884 l 2.569951999809273 3.351714820371992" fill="#ff3805" stroke="none" /><path d="M 87.22198572758235 83.33499621200491 l -0.7699311278438108 -1.0041392104021165 a22.265341651685358,22.265341651685358 0 0,0 0.30615252570512713,-0.2305877351536136 l 0.7525324483802938 1.0172435350615845" fill="#ff0e01" stroke="none" /><path d="M 87.80319425747018 82.90503203632743 l -1.9860008455821325 -2.783566578638584 a24.419421333554357,24.419421333554357 0 0,0 0.34427763077389967,-0.2411884816910815 l 1.9377920752245725 2.8173399030936084" fill="#ff2d04" stroke="none" /><path d="M 88.09926311788651 82.69761687909137 l -1.7247793402790688 -2.5076424460227713 a24.04353978284309,24.04353978284309 0 0,0 0.34301579279949523,-0.23160579448772806 l 1.681358853073034 2.536960152809165" fill="#ff2803" stroke="none" /><path d="M 88.39885842347998 82.49532879139004 l -1.6804875771659387 -2.5356455064715533 a24.041962628221857,24.041962628221857 0 0,0 0.3469289257720517,-0.2256522237780372 l 1.6365916256095998 2.5641966544091255" fill="#ff2803" stroke="none" /><path d="M 89.00827224532344 82.1063720568725 l -26.48989711639527 -43.12337185123913 a71.60968137676278,71.60968137676278 0 0,0 1.055860656205396,-0.6361442312582413 l 25.743674393972224 43.572962691955986" fill="#3effb4" stroke="none" /><line stroke="#e1ed5e" stroke-width="0.3" x1="56.762969772571076" x2="54.21961505331055" y1="26.818313649435495" y2="22.513508569990535" /><path d="M 56.25429882871897 25.957352633546506 a86.0,86.0 0 0,1 42.265352541879196,-11.944610805530505" fill="none" id="id12" stroke="none" /><text fill="#e1ed5e" style="font-size:6.75px; font-family:Arial;" text-anchor="middle"><textPath startOffset="22.20632615414155" xlink:href="#id12">December</textPath></text><path d="M 91.23893434514133 80.91482961587045 l -1.3326584074209609 -2.903072956126826 a24.194340467054932,24.194340467054932 0 0,0 0.37998695799703097,-0.17048907169930277 l 1.2824893309571557 2.925582358342658" fill="#ff2a04" stroke="none" /><path d="M 91.56875222667455 80.76684994638697 l -1.6175848677507267 -3.6899938564648087 a25.028974492985054,25.028974492985054 0 0,0 0.3960730833271913,-0.16957782406996658 l 1.5538280266332272 3.717291208497562" fill="#ff3505" stroke="none" /><path d="M 92.91201910852362 80.23233633223022 l -1.0133591247176386 -2.8261563707335795 a24.002341843875627,24.002341843875627 0 0,0 0.39011577218759896,-0.1361037327922704 l 0.9645613484667543 2.8431809566980597" fill="#ff2703" stroke="none" /><path d="M 93.25333710446033 80.11325718540243 l -0.3175334555066484 -0.9359747570707792 a21.98837049796101,21.98837049796101 0 0,0 0.3594754906118211,-0.11851341744154008 l 0.301375142652418 0.941301898771553" fill="#ff0a01" stroke="none" /><path d="M 93.94186890950719 79.89281104454417 l -2.3196393570314884 -7.698979464729621 a29.040834008050275,29.040834008050275 0 0,0 0.4798787374411328,-0.14008976260048447 l 2.1867704018669345 7.737767556248804" fill="#ff6c0a" stroke="none" /><path d="M 94.63758080256005 79.69619591428918 l -0.6700391684643662 -2.536978834617755 a23.623969148937327,23.623969148937327 0 0,0 0.39406030508821643,-0.10045474588568164 l 0.6262699746911504 2.5481365766722996" fill="#ff2203" stroke="none" /><path d="M 96.04723909329186 79.375362276772 l -0.18619545756111805 -0.9715269778628896 a21.989208480115185,21.989208480115185 0 0,0 0.3723557056483139,-0.0680456251694569 l 0.16944463080991085 0.9745880843830826" fill="#ff0a01" stroke="none" /><path d="M 96.40284397218896 79.31037775812273 l -1.0523654527512516 -6.052849392544983 a27.14365191193125,27.14365191193125 0 0,0 0.46101656551039394,-0.07607168345157585 l 0.948019681101972 6.070067338936186" fill="#ff5307" stroke="none" /><path d="M 96.75951476605007 79.25152402106235 l -0.2890571232520588 -1.8508014526656684 a22.873237848670612,22.873237848670612 0 0,0 0.3895323510818139,-0.05740694284395397 l 0.25715579174159614 1.8555028796705915" fill="#ff1702" stroke="none" /><path d="M 97.11714578562143 79.19881850522333 l -0.42127182304865096 -3.039679081295266 a24.068732452684458,24.068732452684458 0 0,0 0.4108707660843963,-0.053342817507699786 l 0.3688863284563969 3.0464802219671028" fill="#ff2803" stroke="none" /><path d="M 97.83486435360386 79.11191278185805 l -0.30753158105759315 -2.9669025578865615 a23.982798427876347,23.982798427876347 0 0,0 0.4109907874405943,-0.039028527489278965 l 0.25641566652676256 2.971756629891021" fill="#ff2703" stroke="none" /><path d="M 98.19473922651362 79.07773832637324 l -0.08495298309947738 -0.9845716300198925 a21.988229884175503,21.988229884175503 0 0,0 0.37737017946729323,-0.02929118885474429 l 0.06799261426984998 0.9858880810630989" fill="#ff0a01" stroke="none" /><path d="M 98.55514903715128 79.0497635885617 l -0.2904920285286461 -4.212113795677793 a25.22211892849762,25.22211892849762 0 0,0 0.4333856056229735,-0.02614300325592773 l 0.21794437406604958 4.216490068314028" fill="#ff3805" stroke="none" /><path d="M 98.91598698831166 79.02799685794201 l -0.49122952258356717 -9.503637853063099 a30.516324862363174,30.516324862363174 0 0,0 0.524821451706098,-0.022599915701717037 l 0.32756723848814506 9.510685495289009" fill="#ff800b" stroke="none" /><path d="M 99.63851952072746 79.00311137660856 l -0.055972759566172176 -3.2512234157703817 a24.2517051909832,24.2517051909832 0 0,0 0.4174532388387071,-0.0035931518213757536 l 7.964380707816813e-16 3.2517051909831984" fill="#ff2b04" stroke="none" /></svg>