<?xml version="1.0" encoding="utf-8" ?>
<svg baseProfile="full" height="200mm" version="1.1" viewBox="0,0,200,200" width="200mm" xmlns="http://www.w3.org/2000/svg" xmlns:ev="http://www.w3.org/2001/xml-events" xmlns:xlink="http://www.w3.org/1999/xlink"><defs /><rect fill="#1a1a1a" height="200" width="200" x="0" y="0" /><text alignment-baseline="middle" fill="#e1ed5e" style="dominant-baseline: central; font-size:9.0px; font-family:Arial;" text-anchor="middle" x="100.0" y="100.0">2025</text><line stroke="#e1ed5e" stroke-width="0.3" x1="100.0" x2="100.0" y1="15.0" y2="10.0" /><path d="M 100.0 14.0 a86.0,86.0 0 0,1 42.46469731375804,11.215312516191453" fill="none" id="id73" stroke="none" /><text fill="#e1ed5e" style="font-size:6.75px; font-family:Arial;" text-anchor="middle"><textPath startOffset="22.20632615414155" xlink:href="#id73">January</textPath></text><path d="M 100.0 79.0 l 0.0 -22.493064694182898 a43.4930646941829,43.4930646941829 0 0,0 0.7486616128897293,0.006443966863048489 l -0.387181133617201 22.489732103928407" fill="#e5ff1a" stroke="none" /><path d="M 100.36148047927253 79.00311137660856 l 0.6541463391161131 -37.99662392132969 a59.002254365391835,59.002254365391835 0 0,0 1.0153258662433309,0.026222871621979532 l -1.3080988405543117 37.979734257565354" fill="#3cff2e" stroke="none" /><path d="M 101.08401301168833 79.027996857942 l 0.4405907735770052 -8.52394850263604 a29.535327662448136,29.535327662448136 0 0,0 0.5074984343127866,0.03061369147585532 l -0.5872512567294038 8.515101541779881" fill="#ff6609" stroke="none" /><path d="M 101.44485096284872 79.0497635885617 l 3.1176371084330907 -45.205516794596186 a66.31289452028415,66.31289452028415 0 0,0 1.1380865598519359,0.08833742084423603 l -3.895313857647368 45.145154111563485" fill="#37ff77" stroke="none" /><path d="M 102.52436894288641 79.15227682838746 l 1.8953795643720468 -15.653159010100413 a36.7674934814804,36.7674934814804 0 0,0 0.6276478515616428,0.08148670474665577 l -2.1645421444415356 15.618213982189621" fill="#ffc612" stroke="none" /><path d="M 102.88285421437855 79.19881850522331 l 0.402615736023207 -2.9050664289235137 a23.932833167323352,23.932833167323352 0 0,0 0.40757731080289206,0.06006630083682136 l -0.45256202725475486 2.8977056439257236" fill="#ff1702" stroke="none" /><path d="M 103.95276090670814 79.375362276772 l 4.455235741265429 -23.246440982361612 a44.669519299231034,44.669519299231034 0 0,0 0.7539227672668569,0.15122981457657714 l -4.854724917999412 23.166307211707824" fill="#d7ff1c" stroke="none" /><path d="M 104.307194497241 79.44645832069477 l 1.4031718741652515 -6.695808981312089 a27.84125348329296,27.84125348329296 0 0,0 0.46820672553861153,0.10233185547626394 l -1.518221323857391 6.6706636277399545" fill="#ff4f07" stroke="none" /><path d="M 105.36241919743992 79.69619591428918 l 0.3469545024884181 -1.3136787680722957 a22.35872342015619,22.35872342015619 0 0,0 0.3712635262319864,0.10148034628015473 l -0.3695159179441153 1.3075118809658473" fill="#ff0000" stroke="none" /><path d="M 105.71112130821622 79.79150937346287 l 2.9936658548087003 -10.592923018261251 a32.00781782739234,32.00781782739234 0 0,0 0.5289059950205535,0.15440216350383607 l -3.175562067552681 10.53982252583871" fill="#ff880c" stroke="none" /><path d="M 106.0581310904928 79.89281104454417 l 5.240161402042093 -17.392313552491306 a39.164577127685206,39.164577127685206 0 0,0 0.6438183283845799,0.20003748857612547 l -5.538765103137391 17.29953592903266" fill="#ffe515" stroke="none" /><path d="M 107.08798089147638 80.2323363322302 l 5.926626663445741 -16.528763883705864 a38.55918389707122,38.55918389707122 0 0,0 0.6228550800796201,0.22940278248357449 l -6.210264069297938 16.424297833415963" fill="#ffdd14" stroke="none" /><path d="M 107.4271985657038 80.35727306442388 l 11.428347189937078 -30.2245727229484 a53.31303012375254,53.31303012375254 0 0,0 0.8555899369802139,0.331955603161129 l -11.946920291916959 30.023374415896722" fill="#76ff27" stroke="none" /><path d="M 107.76421540070413 80.48803036053334 l 0.8477277546244243 -2.130394039462754 a23.292863081245585,23.292863081245585 0 0,0 0.37126176175057296,0.15144699444573784 l -0.8842733859633847 2.115486158833437" fill="#ff0e01" stroke="none" /><path d="M 108.09893153111575 80.62456947434976 l 3.289976498079315 -7.870755645316099 a29.53069398033885,29.53069398033885 0 0,0 0.4673109168281126,0.20007814662423729 l -3.424971172697743 7.812957970729071" fill="#ff6609" stroke="none" /><path d="M 108.43124777332544 80.76684994638697 l 9.028129290716077 -20.594741136788446 a43.48667340851492,43.48667340851492 0 0,0 0.6829848808820663,0.30643540752036125 l -9.381296290064924 20.436285398751554" fill="#e5ff1a" stroke="none" /><path d="M 108.76106565485865 80.91482961587045 l 5.839716954382025 -12.721282713782976 a34.99761865430297,34.99761865430297 0 0,0 0.5453325417293131,0.25604094045297116 l -6.057827707410937 12.618876790690003" fill="#ffaf10" stroke="none" /><path d="M 109.73455568895987 81.39251694778311 l 5.758639464657516 -11.00756826158662 a33.422901734997346,33.422901734997346 0 0,0 0.5074789417905432,0.2710776755957848 l -5.94726345297637 10.90681185948908" fill="#ff9b0e" stroke="none" /><path d="M 110.05341064243156 81.56283822128135 l 5.182801427991027 -9.504848831255243 a31.826060315137727,31.826060315137727 0 0,0 0.4787183711091659,0.26640625522486766 l -5.345643888172227 9.414227178470195" fill="#ff850c" stroke="none" /><path d="M 110.36928655335952 81.73862282372117 l 6.91277588363161 -12.17410735989178 a34.9998343000012,34.9998343000012 0 0,0 0.5213363110577358,0.3019916412951125 l -7.121308927154675 12.053311561206618" fill="#ffaf10" stroke="none" /><line stroke="#e1ed5e" stroke-width="0.3" x1="143.23703022742887" x2="145.7803849466894" y1="26.81831364943548" y2="22.513508569990506" /><path d="M 143.74570117128098 25.957352633546492 a86.0,86.0 0 0,1 28.547481713284135,27.462654790039103" fill="none" id="id74" stroke="none" /><text fill="#e1ed5e" style="font-size:6.75px; font-family:Arial;" text-anchor="middle"><textPath startOffset="19.985693538727396" xlink:href="#id74">February</textPath></text><path d="M 110.68208982089419 81.91981866633111 l 13.066020836027889 -22.11515068547747 a46.68658775176044,46.68658775176044 0 0,0 0.6883780269906693,0.41474005894756316 l -13.444760929236196 21.88696401707129" fill="#bfff1e" stroke="none" /><path d="M 110.99172775467656 82.1063720568725 l 14.98856608584728 -24.40015172564853 a49.636070218248875,49.636070218248875 0 0,0 0.7241686317322358,0.4534743307553681 l -15.40635386995178 24.138533053570217" fill="#9eff22" stroke="none" /><path d="M 111.2981086023043 82.29822771554956 l 5.924154118096754 -9.28190999643514 a32.01133303450973,32.01133303450973 0 0,0 0.46192806943130515,0.3004508657233099 l -6.083049213312339 9.178560206552302" fill="#ff880c" stroke="none" /><path d="M 111.60114157652 82.49532879139004 l 10.452938477871093 -15.772176385580186 a39.92156100220094,39.92156100220094 0 0,0 0.5695386794391558,0.38455505872320067 l -10.722881851716792 15.589909414558317" fill="#ffee16" stroke="none" /><path d="M 111.90073688211348 82.69761687909136 l 6.128821050055406 -8.91064233567996 a31.814896869504317,31.814896869504317 0 0,0 0.4485428695437054,0.31423294460178147 l -6.281295059182763 8.803824548314243" fill="#ff850c" stroke="none" /><path d="M 112.19680574252982 82.90503203632743 l 12.24955205946297 -17.168896877292124 a42.090816618627755,42.090816618627755 0 0,0 0.5861741170767368,0.4258804248722402 l -12.543271492893496 16.95549721760321" fill="#f5ff19" stroke="none" /><path d="M 112.48926042617603 83.11751280151076 l 13.798612260356379 -18.652417108233013 a44.20160262333533,44.20160262333533 0 0,0 0.6077801317872203,0.45776739465858346 l -14.117638545901983 18.412133124068585" fill="#dcff1b" stroke="none" /><path d="M 112.77801427241765 83.33499621200491 l 25.33662265619676 -33.043859831331446 a62.639417865469525,62.639417865469525 0 0,0 0.8500092788296943,0.6634457247503469 l -25.901664490185887 32.60283571735787" fill="#32ff4c" stroke="none" /><path d="M 113.06298171725822 83.55741782278167 l 6.460225717732845 -8.131588525984446 a31.385434429044302,31.385434429044302 0 0,0 0.42011137869435067,0.3397008514494396 l -6.599240494991688 8.019181577270876" fill="#ff7f0b" stroke="none" /><path d="M 114.16331599549186 84.49514656593476 l 2.8875016878107633 -3.1610034312848874 a25.28130922612521,25.28130922612521 0 0,0 0.3187757795439313,0.2962673456465854 l -2.9414853511495416 3.1108314995636617" fill="#ff2a04" stroke="none" /><path d="M 114.68862486808459 84.99185889309783 l 13.326174451757707 -13.616053809212353 a40.052134968397795,40.052134968397795 0 0,0 0.4885677669414296,0.48646970168385806 l -13.55857801886646 13.384648256878375" fill="#fff016" stroke="none" /><path d="M 114.94478906791727 85.2469230424477 l 28.04817577211731 -27.68837310479806 a60.41251285231751,60.41251285231751 0 0,0 0.7241899240201684,0.7463413747942882 l -28.52062995984059 27.20146753445366" fill="#30ff31" stroke="none" /><path d="M 115.68641384162765 86.03803664274999 l 18.029163429235957 -16.047168059079155 a45.13632815227763,45.13632815227763 0 0,0 0.5115625404029669,0.5848044162073185 l -18.302717833216775 15.734448086668888" fill="#d1ff1c" stroke="none" /><path d="M 115.9244219780498 86.31012108654704 l 6.481338504273189 -5.571865618915638 a29.547130236648343,29.547130236648343 0 0,0 0.3282396136249496,0.38853217042826943 l -6.576288731385255 5.4594744988582615" fill="#ff6609" stroke="none" /><path d="M 116.15771136456269 86.58626213691792 l 5.4575051368587495 -4.530687647558953 a28.09305948646865,28.09305948646865 0 0,0 0.3056812597545349,0.37472908030005647 l -5.534684888689693 4.4360743976507955" fill="#ff5207" stroke="none" /><path d="M 116.38621287248628 86.86637796730983 l 23.283585093996944 -18.661896349704623 a50.839432135959214,50.839432135959214 0 0,0 0.5414300734346366,0.6875612101771783 l -23.601369248025545 18.258342745574407" fill="#91ff24" stroke="none" /><path d="M 116.60985879189232 87.15038557335679 l 19.655303207633565 -15.205611969448952 a45.85038389139008,45.85038389139008 0 0,0 0.4775515289051308,0.6284018340781469 l -19.91413067676281 14.865025359489772" fill="#c9ff1d" stroke="none" /><path d="M 117.04232023915458 87.72973835380427 l 9.790466980403751 -7.0490162021479135 a33.064073653311304,33.064073653311304 0 0,0 0.32857404330099976,0.4647446825492976 l -9.910353643508634 6.879445019266823" fill="#ff960d" stroke="none" /><path d="M 117.2510076193507 88.02491185347247 l 5.443152022921843 -3.7784590157112268 a27.626058894852022,27.626058894852022 0 0,0 0.26780903338031153,0.3929767105865889 l -5.507385521970888 3.6842042818542313" fill="#ff4c07" stroke="none" /><path d="M 117.45458315368197 88.32363383020206 l 15.948708149617042 -10.669000494055695 a40.18824804884025,40.18824804884025 0 0,0 0.37968969676001024,0.5782934571782863 l -16.129994481734975 10.392888972899733" fill="#fff116" stroke="none" /><path d="M 117.65298651832404 88.62581576622439 l 8.35104961972994 -5.3807539490053395 a30.934412051597626,30.934412051597626 0 0,0 0.2845559397488186,0.4500991604258887 l -8.442433155724714 5.236207140865245" fill="#ff790b" stroke="none" /><line stroke="#e1ed5e" stroke-width="0.3" x1="172.23445277983987" x2="176.4835382374775" y1="55.19839476539836" y2="52.563006222186495" /><path d="M 173.08426987136738 54.67131705675599 a86.0,86.0 0 0,1 12.851231095245387,41.99856678651699" fill="none" id="id75" stroke="none" /><text fill="#e1ed5e" style="font-size:6.75px; font-family:Arial;" text-anchor="middle"><textPath startOffset="22.20632615414155" xlink:href="#id75">March</textPath></text><path d="M 117.84615892207809 88.93136811851018 l 18.3140911695198 -11.358855106275907 a42.55062701386791,42.55062701386791 0 0,0 0.38069478994862893,0.6257621377203686 l -18.50690175775465 11.041925195348457" fill="#f0ff19" stroke="none" /><path d="M 118.03404312379186 89.2402003453031 l 21.047952427446425 -12.558013181311312 a45.50958988743052,45.50958988743052 0 0,0 0.3955873977511175,0.6761870942956807 l -21.260999499667868 12.193846674661735" fill="#cdff1d" stroke="none" /><path d="M 118.3937258080291 89.86733742301442 l 12.26152701602015 -6.75458127562671 a34.998907563579344,34.998907563579344 0 0,0 0.2861442364222946,0.530181812312573 l -12.37597935166091 6.542518479981679" fill="#ffaf10" stroke="none" /><path d="M 118.56541770881063 90.18545643968196 l 17.904279106990803 -9.465034935802201 a41.25216276541801,41.25216276541801 0 0,0 0.32646287206456953,0.6306223577835861 l -18.064551412215486 9.155439855758269" fill="#fffe18" stroke="none" /><path d="M 118.73160827565052 90.50648371742162 l 24.533779826138936 -12.434161275698287 a48.50481265501615,48.50481265501615 0 0,0 0.3710386893618648,0.7479913566657989 l -24.74417852845421 12.01001033053354" fill="#abff21" stroke="none" /><path d="M 119.04729006885535 91.15688171328212 l 19.96090124861957 -9.267282128477884 a43.00727372270241,43.00727372270241 0 0,0 0.30596128799499384,0.6741451413913676 l -20.11746485357791 8.922314978244454" fill="#eaff1a" stroke="none" /><path d="M 119.196687751892 91.48605970444005 l 41.21481620527436 -18.279220300887477 a66.0864832254959,66.0864832254959 0 0,0 0.452249599682362,1.043854429388577 l -41.5233565147994 17.567066726912298" fill="#37ff74" stroke="none" /><path d="M 120.18372546131832 94.20196356495316 l 7.952151052000256 -2.2843583373573138 a29.273753644343216,29.273753644343216 0 0,0 0.13495650609302687,0.4855103571820479 l -7.990294328659646 2.147136676756314" fill="#ff6309" stroke="none" /><path d="M 120.28053869075195 94.5502522615342 l 7.987691667134476 -2.1464372945072983 a29.27105865221988,29.27105865221988 0 0,0 0.12656759503147996,0.487716573827666 l -8.023455594036259 2.0086242951307822" fill="#ff6209" stroke="none" /><path d="M 120.6074358757038 95.95851677861258 l 25.07388096212181 -4.917432222751978 a46.55152923345321,46.55152923345321 0 0,0 0.14744482227867445,0.7876561363946812 l -25.154811508310342 4.4850980088947345" fill="#c1ff1e" stroke="none" /><path d="M 120.67395015179393 96.31383870115 l 22.139219077443922 -3.9474184638562555 a43.48837775135971,43.48837775135971 0 0,0 0.12505629418618866,0.738089327317806 l -22.203887233150336 3.565743348222612" fill="#e5ff1a" stroke="none" /><path d="M 120.73433829027371 96.67025291283417 l 28.923067311078764 -4.64478286129547 a50.29364829634194,50.29364829634194 0 0,0 0.12991114369110218,0.8559521210549074 l -28.99873434820917 4.14623162784848" fill="#97ff23" stroke="none" /><path d="M 120.87857604477298 97.74499172005257 l 26.937352664261528 -2.909391577639756 a48.09401276870665,48.09401276870665 0 0,0 0.08181220826541889,0.8238377723579584 l -26.983441998209177 2.4452782745773622" fill="#afff20" stroke="none" /><path d="M 120.94382443527127 98.46500227214037 l 30.09575369929247 -2.2057534758951367 a51.176476585660225,51.176476585660225 0 0,0 0.05682881849780781,0.8791166691306525 l -30.129263108794692 1.687377742511449" fill="#8dff24" stroke="none" /><path d="M 120.96714384426684 98.82574320788733 l 51.56712960499498 -2.8879971749217024 a72.6479368743874,72.6479368743874 0 0,0 0.05917828900959469,1.2491601491473674 l -51.60920150223807 1.9999259191513352" fill="#3fffbc" stroke="none" /><line stroke="#e1ed5e" stroke-width="0.3" x1="184.98032266829074" x2="189.97916517819016" y1="98.17113171792111" y2="98.06355123074" /><path d="M 185.9800911702706 98.14961562048488 a86.0,86.0 0 0,1 -9.607161424134198,41.387399972396054" fill="none" id="id76" stroke="none" /><text fill="#e1ed5e" style="font-size:6.75px; font-family:Arial;" text-anchor="middle"><textPath startOffset="21.466115282336823" xlink:href="#id76">April</textPath></text><path d="M 120.99824983174949 100.27111621757518 l 44.42637402073109 0.5736054471963374 a65.43007688310863,65.43007688310863 0 0,0 -0.024233858881521984,1.1260521971043447 l -44.40991809916456 -1.338247460090797" fill="#36ff6d" stroke="none" /><path d="M 120.9904718944345 100.63252640178507 l 32.14456868936122 0.9686437004499014 a53.15915992129588,53.15915992129588 0 0,0 -0.03543404087237826,0.9143951472949146 l -32.12313251563764 -1.5218160947588222" fill="#78ff26" stroke="none" /><path d="M 120.9764740272857 100.99374915477107 l 36.152856442087376 1.712722094530812 a57.193403347782485,57.193403347782485 0 0,0 -0.05505178032476582,0.982986519392904 l -36.11801831087508 -2.3347803302591394" fill="#4eff2c" stroke="none" /><path d="M 120.92983693683757 101.71520430193887 l 7.115500416870343 0.5831166751224532 a28.139353698990398,28.139353698990398 0 0,0 -0.0437170369015112,0.4824138593262461 l -7.104408783691755 -0.70551192299727" fill="#ff5307" stroke="none" /><path d="M 120.81339534386255 102.79330883721812 l 22.389783223196964 3.0048715410191926 a43.59052114847684,43.59052114847684 0 0,0 -0.10620716101155839,0.7428126367483888 l -22.334742011168807 -3.3898296497479907" fill="#e3ff1b" stroke="none" /><path d="M 120.76222939487914 103.15116336523771 l 1.583963905188126 0.2404042906451436 a22.602103578392924,22.602103578392924 0 0,0 -0.06169109165990131,0.38415048665495105 l -1.5795910591669362 -0.2676340069932996" fill="#ff0400" stroke="none" /><path d="M 120.70491114924044 103.5080841355445 l 24.360394038585596 4.127441612591029 a45.70758126528181,45.70758126528181 0 0,0 -0.1381099353977513,0.7745938629357827 l -24.285737660848657 -4.54615422626003" fill="#cbff1d" stroke="none" /><path d="M 120.64145759157962 103.86396538481128 l 30.672971244525012 5.741808620458306 a52.2057611860603,52.2057611860603 0 0,0 -0.17295039546527086,0.8818703404154273 l -30.569590916084078 -6.268942687941679" fill="#82ff25" stroke="none" /><path d="M 120.49622156327973 104.57218783832717 l 11.77518299942482 2.6267450484874613 a33.064606260450304,33.064606260450304 0 0,0 -0.12869915254563372,0.5544325807968291 l -11.728223280948633 -2.829046286632855" fill="#ff960d" stroke="none" /><path d="M 120.32669344350535 105.2749913415812 l 6.251962990291903 1.6224503376968666 a27.459054600347667,27.459054600347667 0 0,0 -0.12266603494737077,0.45648594892424016 l -6.223108879002756 -1.729827219796655" fill="#ff4906" stroke="none" /><path d="M 120.13307415673323 105.97154293290107 l 22.13046282514603 6.5639756679252095 a44.08339579490601,44.08339579490601 0 0,0 -0.2220401453388946,0.7256400421243369 l -22.014195907301 -6.9439426826016035" fill="#deff1b" stroke="none" /><path d="M 119.9155931802556 106.66101706037122 l 23.567896885286558 7.882575317194181 a45.8511721499558,45.8511721499558 0 0,0 -0.2567865836588181,0.7463420112479306 l -23.42871947068451 -8.287090031531413" fill="#c9ff1d" stroke="none" /><path d="M 119.67450827220406 107.3425965602758 l 2.321878881887411 0.8665334683667605 a23.478306234902067,23.478306234902067 0 0,0 -0.1445656810299178,0.3774153750274952 l -2.3066189212639863 -0.9063724102273996" fill="#ff1001" stroke="none" /><path d="M 119.54520255179757 107.68017299344265 l 4.971755294886147 1.9536221558511457 a26.34181525701338,26.34181525701338 0 0,0 -0.1694623989017734,0.4205917765640193 l -4.937390281726982 -2.0389133002579785" fill="#ff3a05" stroke="none" /><path d="M 119.26925614724726 108.34839909993367 l 28.81711347808997 12.485005253175826 a52.40543560247083,52.40543560247083 0 0,0 -0.36573732362301226,0.824641112936277 l -28.597935069735684 -12.979194702604792" fill="#80ff26" stroke="none" /><path d="M 119.12269723197855 108.67885076344098 l 26.069871999154355 11.83183134460262 a49.629188934013015,49.629188934013015 0 0,0 -0.35975344292421585,0.7748769108900186 l -25.862343939390307 -12.278828322771469" fill="#9eff22" stroke="none" /><path d="M 118.81262510543309 109.33194174019688 l 4.778413259391726 2.370316417688551 a26.33400723635566,26.33400723635566 0 0,0 -0.20493040440110757,0.40434712963588826 l -4.73690418520435 -2.4522177590271337" fill="#ff3905" stroke="none" /><path d="M 118.64920377521936 109.65438752849418 l 4.057356213585385 2.1004268975358107 a25.568799907613798,25.568799907613798 0 0,0 -0.20570402914718747,0.3891145015590669 l -4.020599676213305 -2.169956414181012" fill="#ff2f04" stroke="none" /><line stroke="#e1ed5e" stroke-width="0.3" x1="174.80103733775053" x2="179.2010983576182" y1="140.37084112569926" y2="142.7455964860345" /><path d="M 175.68104954172406 140.8457921977663 a86.0,86.0 0 0,1 -30.038265399797805,32.042727171017184" fill="none" id="id77" stroke="none" /><text fill="#e1ed5e" style="font-size:6.75px; font-family:Arial;" text-anchor="middle"><textPath startOffset="22.206326154141568" xlink:href="#id77">May</textPath></text><path d="M 118.48025628344425 109.97397251340804 l 11.729818264577851 6.330696023029756 a34.32915408628878,34.32915408628878 0 0,0 -0.285134015058232,0.5176010601039757 l -11.619107840068109 -6.531667601531537" fill="#ffa70f" stroke="none" /><path d="M 118.30583269289576 110.29060199501025 l 1.3939174335637343 0.7835890212345996 a22.59906771770063,22.59906771770063 0 0,0 -0.19354272465931707,0.3374580542083304 l -1.380222712752038 -0.8074669213012452" fill="#ff0400" stroke="none" /><path d="M 118.12598468904814 110.60418214915192 l 47.95654459962333 28.055851469718927 a76.56042630889895,76.56042630889895 0 0,0 -0.6752597674811748,1.1317742111677056 l -47.46650395644392 -28.877187774772736" fill="#44ffe5" stroke="none" /><path d="M 117.75023020441432 111.22182372390056 l 7.211344368535853 4.559063988698415 a29.531620716760706,29.531620716760706 0 0,0 -0.275340367282633,0.4273343645302723 l -7.13179913787617 -4.68251995315014" fill="#ff6609" stroke="none" /><path d="M 117.35343817320211 111.8261652097733 l 52.0603145196063 35.47849562931987 a84.0,84.0 0 0,0 -0.8245563713514552,1.1878349512519217 l -51.44189724109271 -36.36937184275882" fill="#4dd2ff" stroke="none" /><path d="M 117.14729908036423 112.12312394758627 l 42.73760699431985 30.21544701513213 a73.34000659080198,73.34000659080198 0 0,0 -0.7376614961563739,1.0245473004635168 l -42.21116570578788 -30.94662792104678" fill="#40ffc4" stroke="none" /><path d="M 116.71984013943494 112.70617746262583 l 37.690862081127534 28.643023995942716 a68.33945403203049,68.33945403203049 0 0,0 -0.7198200641392538,0.9304644656211104 l -37.19223519977021 -29.28756645567708" fill="#39ff8e" stroke="none" /><path d="M 115.80600337817218 113.82643327865902 l 10.341110481091587 9.045972639200384 a34.73929353974593,34.73929353974593 0 0,0 -0.397584846273647,0.4466907895564594 l -10.183866785169602 -9.22263759849771" fill="#ffac0f" stroke="none" /><path d="M 115.56566222782051 114.09645910891815 l 21.762839192260767 19.708700360936728 a50.360756795855735,50.360756795855735 0 0,0 -0.5874308701523199,0.6375401905444475 l -21.420361914112725 -20.08039180628251" fill="#96ff23" stroke="none" /><path d="M 115.07121518719521 114.62390073753431 l 39.29704669631908 38.13070830900729 a75.75590192115622,75.75590192115622 0 0,0 -0.9161391190595707,0.9280440907755174 l -38.63486695220397 -38.80149289376347" fill="#43ffdd" stroke="none" /><path d="M 114.81725581225074 114.88116024355365 l 27.176894757422115 27.294104315390083 a59.51690199166326,59.51690199166326 0 0,0 -0.7321997363805424,0.7166115496647345 l -26.70304506866578 -27.75786596797739" fill="#37ff2e" stroke="none" /><path d="M 114.29624159901734 115.38237550388516 l 11.019872366561161 11.857089401663641 a37.18728377629621,37.18728377629621 0 0,0 -0.47263346638081144,0.43173946550754416 l -10.814139350713486 -12.045021633757768" fill="#ffcc13" stroke="none" /><line stroke="#e1ed5e" stroke-width="0.3" x1="143.8653032363475" x2="146.44561519142675" y1="172.8068346515853" y2="177.08958963109032" /><path d="M 144.38136562736335 173.6633856474863 a86.0,86.0 0 0,1 -40.68145358897372,12.25698825130547" fill="none" id="id78" stroke="none" /><text fill="#e1ed5e" style="font-size:6.75px; font-family:Arial;" text-anchor="middle"><textPath startOffset="21.466115282336833" xlink:href="#id78">June</textPath></text><line stroke="#e1ed5e" stroke-width="0.3" x1="102.19456741930631" x2="102.32365962044197" y1="184.97166512339345" y2="189.96999836594603" /><path d="M 102.22038585953345 185.97133177190398 a86.0,86.0 0 0,1 -42.740103519485714,-10.115201625700543" fill="none" id="id79" stroke="none" /><text fill="#e1ed5e" style="font-size:6.75px; font-family:Arial;" text-anchor="middle"><textPath startOffset="22.20632615414155" xlink:href="#id79">July</textPath></text><line stroke="#e1ed5e" stroke-width="0.3" x1="58.666819895761336" x2="56.23545636021788" y1="174.27360380694188" y2="178.64263932499728" /><path d="M 58.180547188652646 175.14741091055294 a86.0,86.0 0 0,1 -31.652253787137756,-30.449443065178592" fill="none" id="id80" stroke="none" /><text fill="#e1ed5e" style="font-size:6.75px; font-family:Arial;" text-anchor="middle"><textPath startOffset="22.20632615414155" xlink:href="#id80">August</textPath></text><line stroke="#e1ed5e" stroke-width="0.3" x1="26.63291911575756" x2="22.317208475507996" y1="142.92168965132927" y2="145.44649492493687" /><path d="M 25.769776987707644 143.4266507060508 a86.0,86.0 0 0,1 -11.730757126820373,-40.83630448921669" fill="none" id="id81" stroke="none" /><text fill="#e1ed5e" style="font-size:6.75px; font-family:Arial;" text-anchor="middle"><textPath startOffset="21.46611528233685" xlink:href="#id81">September</textPath></text><line stroke="#e1ed5e" stroke-width="0.3" x1="15.007084014347285" x2="10.007500721073583" y1="101.09737516637583" y2="101.16192664675087" /><path d="M 14.007167355692545 101.11028546245083 a86.0,86.0 0 0,1 10.666146001902534,-42.60595125391555" fill="none" id="id82" stroke="none" /><text fill="#e1ed5e" style="font-size:6.75px; font-family:Arial;" text-anchor="middle"><textPath startOffset="22.20632615414155" xlink:href="#id82">October</textPath></text><line stroke="#e1ed5e" stroke-width="0.3" x1="26.266209847984243" x2="21.928928074336255" y1="57.711370442889674" y2="55.22380399835377" /><path d="M 25.398753493254645 57.213857153982495 a86.0,86.0 0 0,1 29.58750427330803,-30.492523968695096" fill="none" id="id83" stroke="none" /><text fill="#e1ed5e" style="font-size:6.75px; font-family:Arial;" text-anchor="middle"><textPath startOffset="21.46611528233685" xlink:href="#id83">November</textPath></text><line stroke="#e1ed5e" stroke-width="0.3" x1="56.762969772571076" x2="54.21961505331055" y1="26.818313649435495" y2="22.513508569990535" /><path d="M 56.25429882871897 25.957352633546506 a86.0,86.0 0 0,1 42.265352541879196,-11.944610805530505" fill="none" id="id84" stroke="none" /><text fill="#e1ed5e" style="font-size:6.75px; font-family:Arial;" text-anchor="middle"><textPath startOffset="22.20632615414155" xlink:href="#id84">December</textPath></text></svg>