<?xml version="1.0" encoding="utf-8" ?>
<svg baseProfile="full" height="200mm" version="1.1" viewBox="0,0,200,200" width="200mm" xmlns="http://www.w3.org/2000/svg" xmlns:ev="http://www.w3.org/2001/xml-events" xmlns:xlink="http://www.w3.org/1999/xlink"><defs /><rect fill="#1a1a1a" height="200" width="200" x="0" y="0" /><text alignment-baseline="middle" fill="#e1ed5e" style="dominant-baseline: central; font-size:9.0px; font-family:Arial;" text-anchor="middle" x="100.0" y="100.0">2017</text><line stroke="#e1ed5e" stroke-width="0.3" x1="100.0" x2="100.0" y1="15.0" y2="10.0" /><path d="M 100.0 14.0 a86.0,86.0 0 0,1 42.46469731375804,11.215312516191453" fill="none" id="id25" stroke="none" /><text fill="#e1ed5e" style="font-size:6.75px; font-family:Arial;" text-anchor="middle"><textPath startOffset="22.20632615414155" xlink:href="#id25">January</textPath></text><path d="M 100.0 79.0 l 0.0 -8.2040134141768 a29.2040134141768,29.2040134141768 0 0,0 0.5026990840779989,0.004326889724424244 l -0.14121860480547055 8.202797901060935" fill="#ff6008" stroke="none" /><path d="M 100.36148047927253 79.00311137660856 l 1.0267357997139779 -59.63878679044761 a80.64762422962781,80.64762422962781 0 0,0 1.3878049205428813,0.0358429066742852 l -2.053167355451727 59.612277091630965" fill="#49f1ff" stroke="none" /><path d="M 101.44485096284872 79.0497635885617 l 0.5640519904412867 -8.178713827195333 a29.198140918225114,29.198140918225114 0 0,0 0.5011093542528187,0.03889573032245778 l -0.7047515340564465 8.16779283468441" fill="#ff6008" stroke="none" /><path d="M 101.80526077348638 79.07773832637324 l 1.4201044546969273 -16.458451566347286 a37.51960425143561,37.51960425143561 0 0,0 0.6429696576957011,0.06105771644280079 l -1.7031992394828726 16.431568305389305" fill="#ffce13" stroke="none" /><path d="M 102.16513564639614 79.11191278185805 l 1.6128301724364593 -15.559735190716067 a36.64310008822834,36.64310008822834 0 0,0 0.6268296018246353,0.07043160937822285 l -1.88042647777082 15.529667627867244" fill="#ffc312" stroke="none" /><path d="M 102.52436894288641 79.15227682838746 l 1.3140806283506221 -10.852450566797044 a31.931719498897685,31.931719498897685 0 0,0 0.5450976730368401,0.07076932236814909 l -1.5006930298953083 10.828222921264759" fill="#ff850c" stroke="none" /><path d="M 103.2404852339499 79.25152402106235 l 1.4389051748343205 -9.213153987937757 a30.324840722908803,30.324840722908803 0 0,0 0.5150469054453357,0.0849871524906589 l -1.5972812864185313 9.187020572507473" fill="#ff6f0a" stroke="none" /><path d="M 104.307194497241 79.44645832069477 l 5.257534881583146 -25.088479841864412 a46.633444829103645,46.633444829103645 0 0,0 0.7842352542468092,0.17140345133798687 l -5.6886128599834835 24.994262892430555" fill="#c1ff1e" stroke="none" /><path d="M 105.01212808612495 79.60689891045804 l 9.983272811766959 -40.61945109073255 a62.82828639744376,62.82828639744376 0 0,0 1.0480090601988619,0.2671608443398097 l -10.680990760650847 40.44158725022387" fill="#32ff4e" stroke="none" /><path d="M 105.71112130821622 79.79150937346287 l 5.23981139459657 -18.54078625509006 a40.26697636911097,40.26697636911097 0 0,0 0.6653826048943382,0.19424342836104852 l -5.558184217214335 18.44784449781031" fill="#fff116" stroke="none" /><path d="M 106.40334571778207 80.00007090966166 l 9.337066744443083 -29.162984638177463 a51.62124243718337,51.62124243718337 0 0,0 0.8439266317082735,0.2782293419321835 l -9.837676198393774 28.997941571986043" fill="#89ff24" stroke="none" /><path d="M 107.08798089147638 80.2323363322302 l 6.9272155288676025 -19.319305289532764 a41.5236905027715,41.5236905027715 0 0,0 0.6707414151280716,0.24703972381132483 l -7.25873926976825 19.197202297915116" fill="#feff18" stroke="none" /><path d="M 107.4271985657038 80.35727306442388 l 9.811469975166517 -25.94841431178797 a48.741397736411855,48.741397736411855 0 0,0 0.7822224570770436,0.3034901607908875 l -10.256675597243227 25.775681447106535" fill="#a9ff21" stroke="none" /><path d="M 107.76421540070413 80.48803036053334 l 6.336942077140859 -15.925140537061576 a38.139630568194875,38.139630568194875 0 0,0 0.6079023599578399,0.24797863614604754 l -6.610128306687086 15.813701014731949" fill="#ffd614" stroke="none" /><path d="M 108.43124777332544 80.76684994638697 l 8.560831900705654 -19.528754101018137 a42.3227596612205,42.3227596612205 0 0,0 0.6647049015287313,0.2982337136331283 l -8.895718920701166 19.378500056868475" fill="#f4ff19" stroke="none" /><path d="M 109.08828744355905 81.06846463323043 l 6.086709423958063 -12.679039416669932 a35.06435466493823,35.06435466493823 0 0,0 0.5418757425004409,0.26589607350445454 l -6.3040564334689355 12.572388183030647" fill="#ffaf10" stroke="none" /><path d="M 110.05341064243156 81.56283822128135 l 11.498407399954882 -21.087171803748106 a45.01837187271707,45.01837187271707 0 0,0 0.6771532963708751,0.37683507629207375 l -11.859684785397793 20.886121329895854" fill="#d4ff1c" stroke="none" /><line stroke="#e1ed5e" stroke-width="0.3" x1="143.23703022742887" x2="145.7803849466894" y1="26.81831364943548" y2="22.513508569990506" /><path d="M 143.74570117128098 25.957352633546492 a86.0,86.0 0 0,1 28.547481713284135,27.462654790039103" fill="none" id="id26" stroke="none" /><text fill="#e1ed5e" style="font-size:6.75px; font-family:Arial;" text-anchor="middle"><textPath startOffset="19.985693538727396" xlink:href="#id26">February</textPath></text><path d="M 110.68208982089419 81.91981866633111 l 16.903064131646662 -28.609613822665217 a54.22985976679102,54.22985976679102 0 0,0 0.7996010346426877,0.4817506765751776 l -17.393027232506984 28.314416536631427" fill="#6dff28" stroke="none" /><path d="M 111.90073688211348 82.69761687909136 l 3.2995500711797465 -4.797188613083144 a26.82237488158542,26.82237488158542 0 0,0 0.3781557126119572,0.264922243024224 l -3.3816369233753547 4.739681527294985" fill="#ff3e05" stroke="none" /><path d="M 112.77801427241765 83.33499621200491 l 11.803866681935071 -15.39452678434194 a40.39903924318723,40.39903924318723 0 0,0 0.5482100470069032,0.42788663725256604 l -12.067109284101404 15.189061757866149" fill="#fff316" stroke="none" /><path d="M 114.16331599549186 84.49514656593476 l 6.878942442329563 -7.530510113848993 a31.199432910689936,31.199432910689936 0 0,0 0.3933982792772519,0.3656208264948916 l -7.007548605401661 7.41098470127946" fill="#ff7b0b" stroke="none" /><path d="M 114.68862486808459 84.99185889309783 l 19.81929346035331 -20.25041524059794 a49.335202675898486,49.335202675898486 0 0,0 0.6018053674787859,0.5992210239777159 l -20.16493462799942 19.906258365970103" fill="#a2ff22" stroke="none" /><path d="M 115.4437574822437 85.77008943001954 l 43.96711738568963 -40.511394272898265 a80.78528646030917,80.78528646030917 0 0,0 0.9334792144880615,1.0307710636509944 l -44.657940240793735 39.74857042197772" fill="#49f0ff" stroke="none" /><path d="M 115.68641384162765 86.03803664274999 l 10.304407269036682 -9.17161552417277 a34.794902699527206,34.794902699527206 0 0,0 0.3943557118335509,0.45081674990349574 l -10.460754844448081 8.992883218066327" fill="#ffab0f" stroke="none" /><path d="M 116.38621287248628 86.86637796730983 l 22.01446563649164 -17.64469149590985 a49.21297281829947,49.21297281829947 0 0,0 0.5241085977453734,0.6655646950752108 l -22.314928314830976 17.2631344068816" fill="#a4ff21" stroke="none" /><path d="M 117.45458315368197 88.32363383020206 l 5.684716060830253 -3.8028307931022387 a27.839409238613232,27.839409238613232 0 0,0 0.2630205934565969,0.40059840864009405 l -5.749333289644775 3.7044143204844704" fill="#ff4d07" stroke="none" /><line stroke="#e1ed5e" stroke-width="0.3" x1="172.23445277983987" x2="176.4835382374775" y1="55.19839476539836" y2="52.563006222186495" /><path d="M 173.08426987136738 54.67131705675599 a86.0,86.0 0 0,1 12.851231095245387,41.99856678651699" fill="none" id="id27" stroke="none" /><text fill="#e1ed5e" style="font-size:6.75px; font-family:Arial;" text-anchor="middle"><textPath startOffset="22.20632615414155" xlink:href="#id27">March</textPath></text><path d="M 117.84615892207809 88.93136811851018 l 19.740748683885244 -12.24370360036483 a44.22940887009189,44.22940887009189 0 0,0 0.3957146275156867,0.6504508014802353 l -19.948579109687156 11.902085025677513" fill="#ddff1b" stroke="none" /><path d="M 118.3937258080291 89.86733742301442 l 55.1811774240873 -30.397987730956764 a84.0,84.0 0 0,0 0.6867676031261407,1.272476066670165 l -55.696253126431905 29.44363068095414" fill="#4dd2ff" stroke="none" /><path d="M 118.56541770881063 90.18545643968196 l 17.894644232477837 -9.459941492870357 a41.24126441839745,41.24126441839745 0 0,0 0.3263766243279522,0.6304557546085446 l -18.054830289965906 9.150513016001467" fill="#fffd17" stroke="none" /><path d="M 118.89224826269711 90.83032412892265 l 12.3942253518357 -6.015749294054521 a34.77701207232556,34.77701207232556 0 0,0 0.2567567030704955,0.5407950977894477 l -12.495940248747953 5.801511780624533" fill="#ffab0f" stroke="none" /><path d="M 119.04729006885535 91.15688171328212 l 9.20209765361461 -4.272273785020028 a31.145487889738416,31.145487889738416 0 0,0 0.22157446322728833,0.4882099589132359 l -9.274274433805244 4.11324181726473" fill="#ff7a0b" stroke="none" /><path d="M 119.47837535516314 92.15188598940014 l 25.542685078942352 -10.291510507484436 a48.53804549287561,48.53804549287561 0 0,0 0.3055734614425531,0.7776511288805565 l -25.716052090266604 9.850310373708094" fill="#abff21" stroke="none" /><path d="M 119.61058180528143 92.48833698450437 l 19.141554833729817 -7.332006308190535 a41.49774226484544,41.49774226484544 0 0,0 0.2497678195151732,0.6692535795534812 l -19.264927241746616 7.00142959160772" fill="#feff18" stroke="none" /><path d="M 119.85752413597 93.16781622104841 l 6.466287549850897 -2.2247922049910596 a27.83831668122687,27.83831668122687 0 0,0 0.1520007965479976,0.4544630346519521 l -6.5036256401706645 2.1131560674167935" fill="#ff4d07" stroke="none" /><path d="M 120.08093135843002 93.85539295169968 l 13.299819498714923 -4.069640156337597 a34.908528667708644,34.908528667708644 0 0,0 0.17087575654988252,0.5761081041973394 l -13.367901152376508 3.8401026653937276" fill="#ffad10" stroke="none" /><path d="M 120.18372546131832 94.20196356495316 l 1.4521424407291808 -0.4171467153752949 a22.510870295662503,22.510870295662503 0 0,0 0.10377857384213408,0.373346746389587 l -1.459107785137678 0.39208866556675603" fill="#ff0000" stroke="none" /><path d="M 120.37134235888165 94.90015583598534 l 17.68307571830719 -4.426852630284341 a39.22877371272244,39.22877371272244 0 0,0 0.15834825222997426,0.656455734597235 l -17.756656770797985 4.1218116640277005" fill="#ffe415" stroke="none" /><path d="M 120.53481517161879 95.60439243477599 l 9.360262540199825 -2.0036236260383093 a30.572304970919333,30.572304970919333 0 0,0 0.10572296726140962,0.515542735114232 l -9.393364803376231 1.8422052347606654" fill="#ff730a" stroke="none" /><path d="M 120.6074358757038 95.95851677861258 l 10.835250522220653 -2.124984566212491 a32.04165808590015,32.04165808590015 0 0,0 0.10148703296721201,0.5421477882080601 l -10.870223279097724 1.938158700541868" fill="#ff860c" stroke="none" /><path d="M 120.67395015179393 96.31383870115 l 52.45726401318349 -9.353119990577829 a74.28457001146751,74.28457001146751 0 0,0 0.21361461432205656,1.2607655457587688 l -52.61049048902577 8.448768656503223" fill="#41ffcd" stroke="none" /><path d="M 120.78858239683441 97.02765380044208 l 33.420549622989604 -4.778461646050305 a54.76043294754207,54.76043294754207 0 0,0 0.12538574806871006,0.9342694621762929 l -33.49785137011615 4.202473841809348" fill="#67ff28" stroke="none" /><path d="M 120.83666639777658 97.38593545837742 l 23.228282780998605 -2.914104839105645 a44.41036368720775,44.41036368720775 0 0,0 0.08862965071967192,0.7593247221505963 l -23.275002784721863 2.5138363786301956" fill="#dbff1b" stroke="none" /><path d="M 120.87857604477298 97.74499172005257 l 16.458710265334513 -1.7776369349133276 a37.55442951812583,37.55442951812583 0 0,0 0.06388343646436241,0.6432974870526437 l -16.486870827481106 1.494063917156249" fill="#ffcf13" stroke="none" /><path d="M 120.91429891909075 98.10471618934814 l 37.252417592882125 -3.375867593963875 a58.40506781876554,58.40506781876554 0 0,0 0.08211617975745088,1.0020253856970305 l -37.305008256459075 2.7341282910590756" fill="#42ff2d" stroke="none" /><line stroke="#e1ed5e" stroke-width="0.3" x1="184.98032266829074" x2="189.97916517819016" y1="98.17113171792111" y2="98.06355123074" /><path d="M 185.9800911702706 98.14961562048488 a86.0,86.0 0 0,1 -9.607161424134198,41.387399972396054" fill="none" id="id28" stroke="none" /><text fill="#e1ed5e" style="font-size:6.75px; font-family:Arial;" text-anchor="middle"><textPath startOffset="21.466115282336823" xlink:href="#id28">April</textPath></text><path d="M 120.99513854157772 99.54816195383933 l 36.34110597176821 -0.7820998315911843 a57.34952081386854,57.34952081386854 0 0,0 0.012745228830511823,0.9871320186581095 l -36.34918420771644 0.15643155487261212" fill="#4dff2c" stroke="none" /><path d="M 120.89721153311464 102.0752229133903 l 2.4227108213094324 0.2405902338181774 a23.434627565829835,23.434627565829835 0 0,0 -0.043318014632643856,0.401071016305681 l -2.4182105051757365 -0.28225757200864976" fill="#ff0e01" stroke="none" /><path d="M 120.8583938346157 102.4346265915055 l 61.94916246074473 7.230809785465092 a83.36973095774361,83.36973095774361 0 0,0 -0.1786434317902279,1.4239639202085321 l -61.815517519707655 -8.29609145996102" fill="#4cd8ff" stroke="none" /><path d="M 120.49622156327973 104.57218783832717 l 14.079253108106723 3.140724725036334 a35.425308311456895,35.425308311456895 0 0,0 -0.13788784062448428,0.5940172085502076 l -14.023104701551686 -3.3826105909351067" fill="#ffb310" stroke="none" /><path d="M 120.41448212921028 104.9243191809786 l 8.226190649248723 1.9842966451017845 a29.462130096704335,29.462130096704335 0 0,0 -0.12316388948845738,0.49197851509363416 l -8.190815445465205 -2.1256029995928145" fill="#ff6309" stroke="none" /><path d="M 120.23288151984713 105.62410040840565 l 18.84922107691349 5.239486617504726 a40.56387883885429,40.56387883885429 0 0,0 -0.19278922783703803,0.6711245936713238 l -18.75623921219035 -5.563168686680632" fill="#fff517" stroke="none" /><path d="M 120.02730092923936 106.31721596034902 l 26.676686279697293 8.414633051690405 a48.97233705395369,48.97233705395369 0 0,0 -0.26050426356051454,0.8017496833241646 l -26.527889765120534 -8.872581634992365" fill="#a6ff21" stroke="none" /><path d="M 119.67450827220406 107.3425965602758 l 33.822447712399224 12.622657948917025 a57.10110057814495,57.10110057814495 0 0,0 -0.3515951879171743,0.9179040887177181 l -33.60015824488854 -13.202985604467887" fill="#4fff2b" stroke="none" /><path d="M 118.97047184881838 109.00673069616215 l 8.63597047548327 4.10015422876949 a30.559877130649486,30.559877130649486 0 0,0 -0.22970367063464242,0.4732575974872106 l -8.564113548233912 -4.248200782221976" fill="#ff720a" stroke="none" /><path d="M 118.81262510543309 109.33194174019688 l 14.926026469779108 7.404007077586875 a37.66150014198911,37.66150014198911 0 0,0 -0.29308059290707034,0.5782758143687032 l -14.796367207085769 -7.659837103658272" fill="#ffd013" stroke="none" /><line stroke="#e1ed5e" stroke-width="0.3" x1="174.80103733775053" x2="179.2010983576182" y1="140.37084112569926" y2="142.7455964860345" /><path d="M 175.68104954172406 140.8457921977663 a86.0,86.0 0 0,1 -30.038265399797805,32.042727171017184" fill="none" id="id29" stroke="none" /><text fill="#e1ed5e" style="font-size:6.75px; font-family:Arial;" text-anchor="middle"><textPath startOffset="22.206326154141568" xlink:href="#id29">May</textPath></text><path d="M 118.48025628344425 109.97397251340804 l 18.027446878840827 9.729586911495526 a41.48545099424889,41.48545099424889 0 0,0 -0.3445733960923969,0.6255008020162995 l -17.85729707329692 -10.038458231909631" fill="#feff18" stroke="none" /><path d="M 117.94076556474637 110.91462005526583 l 9.917332466969265 6.033405622969686 a32.608422230074375,32.608422230074375 0 0,0 -0.2958598799745919,0.4770203303556675 l -9.81200794732671 -6.203222284690627" fill="#ff8e0d" stroke="none" /><path d="M 117.55443506779139 111.5257021239791 l 7.534696595128783 4.947050031211289 a30.013598437469515,30.013598437469515 0 0,0 -0.28726857530385747,0.42942754296713637 l -7.448424914414204 -5.076014488384232" fill="#ff6b09" stroke="none" /><path d="M 117.35343817320211 111.8261652097733 l 11.398347217512647 7.767840353436478 a34.79353700279426,34.79353700279426 0 0,0 -0.3415384835417455,0.4920116586856673 l -11.262947826808766 -7.962893274309165" fill="#ffab0f" stroke="none" /><path d="M 116.71984013943494 112.70617746262583 l 8.698754687189076 6.610584780567647 a31.92557386359941,31.92557386359941 0 0,0 -0.3362723473823429,0.43467733896027894 l -8.583675522588665 -6.759340113641179" fill="#ff850c" stroke="none" /><path d="M 116.498646956653 112.99209946851258 l 10.729594403235835 8.449175142051477 a34.65696732949927,34.65696732949927 0 0,0 -0.37311045408094795,0.46551265982093615 l -10.582566037100033 -8.632615635450662" fill="#ffa90f" stroke="none" /><path d="M 116.0416608686014 113.55231037782055 l 6.468089133519316 5.464368821088576 a29.467319744289547,29.467319744289547 0 0,0 -0.3306759343149865,0.3846508175352111 l -6.3730706896335505 -5.574896737785315" fill="#ff6309" stroke="none" /><path d="M 112.04921762599082 117.19931262002967 l 13.47790128182835 19.238646425311153 a44.489983806738735,44.489983806738735 0 0,0 -0.6310016847655495,0.4340087125622972 l -13.144742712439918 -19.467795927238544" fill="#daff1c" stroke="none" /><path d="M 111.45004920935366 117.60387380957326 l 4.095481970729338 6.296597200927782 a28.511332031224597,28.511332031224597 0 0,0 -0.41371055799030426,0.2640496521469881 l -3.9864896106921033 -6.366161281898579" fill="#ff5608" stroke="none" /><line stroke="#e1ed5e" stroke-width="0.3" x1="143.8653032363475" x2="146.44561519142675" y1="172.8068346515853" y2="177.08958963109032" /><path d="M 144.38136562736335 173.6633856474863 a86.0,86.0 0 0,1 -40.68145358897372,12.25698825130547" fill="none" id="id30" stroke="none" /><text fill="#e1ed5e" style="font-size:6.75px; font-family:Arial;" text-anchor="middle"><textPath startOffset="21.466115282336833" xlink:href="#id30">June</textPath></text><path d="M 109.89434966115114 118.52300852407294 l 3.989458202036649 7.468582657120299 a29.467319744289547,29.467319744289547 0 0,0 -0.4494595520122172,0.23513599484249614 l -3.860307747497936 -7.536148070907512" fill="#ff6309" stroke="none" /><path d="M 109.57404056367764 118.69057910512821 l 3.1131514092725285 6.077538766860895 a27.828483664749633,27.828483664749633 0 0,0 -0.42822217863704654,0.21471949011521907 l -3.0080753229527217 -6.130226097885417" fill="#ff4d07" stroke="none" /><path d="M 108.2653958097858 119.30500536409082 l 2.150099819802377 5.021863381965645 a26.462786931799705,26.462786931799705 0 0,0 -0.4202902239520388,0.17568134769849866 l -2.0633381363528773 -5.058129772684117" fill="#ff3905" stroke="none" /><path d="M 107.93186726928326 119.44442032107085 l 2.888673390894029 7.081381681757766 a28.64790170451959,28.64790170451959 0 0,0 -0.45820125705582976,0.1823277363787524 l -2.766351057796333 -7.130056262542587" fill="#ff5808" stroke="none" /><path d="M 107.2578585660854 119.70592522655815 l 3.304011243971825 8.970772567222001 a30.559877130649486,30.559877130649486 0 0,0 -0.4951870674818441,0.177556464487011 l -3.149104615860246 -9.026316572748971" fill="#ff720a" stroke="none" /><path d="M 106.2309692047433 120.05430185196036 l 2.535176183699361 8.159435035741339 a29.544208470354626,29.544208470354626 0 0,0 -0.48695190056877147,0.14671461311402037 l -2.3943493086903436 -8.201865017961085" fill="#ff6409" stroke="none" /><path d="M 104.83641907484287 120.43548508189849 l 2.085727546385272 8.81289513987077 a30.05634474521085,30.05634474521085 0 0,0 -0.5044883764565979,0.11481991200838168 l -1.933719020535812 -8.847491785456837" fill="#ff6b09" stroke="none" /><path d="M 104.48393922423573 120.51570834832081 l 1.8998053803614388 8.692324126830526 a29.89751421516877,29.89751421516877 0 0,0 -0.5037140862553933,0.10555818429514201 l -1.7498998326766675 -8.723738291852209" fill="#ff6909" stroke="none" /><path d="M 103.41894727170886 120.7198165907248 l 0.9988404689779414 6.05326425823242 a27.135119433430955,27.135119433430955 0 0,0 -0.46150911896767194,0.07207823296834395 l -0.8944954864017524 -6.06956079854787" fill="#ff4306" stroke="none" /><path d="M 102.70371172650421 120.8252237178851 l 0.7616645755742492 5.866688755620578 a26.915925107792493,26.915925107792493 0 0,0 -0.4599708287804546,0.05569606163938927 l -0.6605663237424143 -5.878930345985317" fill="#ff4006" stroke="none" /><path d="M 102.34483914955558 120.86867818915974 l 0.9307980016370379 8.28394730570658 a29.336076288253054,29.336076288253054 0 0,0 -0.5022998465117667,0.05206543287110677 l -0.7880655585196684 -8.298742107033444" fill="#ff6209" stroke="none" /><path d="M 101.26447882468166 120.96189622390904 l 1.4253541327125374 23.628806452936843 a44.671758041894364,44.671758041894364 0 0,0 -0.7679541741938076,0.0396944589206624 l -1.0184118901052501 -23.649840718619707" fill="#d8ff1c" stroke="none" /><line stroke="#e1ed5e" stroke-width="0.3" x1="102.19456741930631" x2="102.32365962044197" y1="184.97166512339345" y2="189.96999836594603" /><path d="M 102.22038585953345 185.97133177190398 a86.0,86.0 0 0,1 -42.740103519485714,-10.115201625700543" fill="none" id="id31" stroke="none" /><text fill="#e1ed5e" style="font-size:6.75px; font-family:Arial;" text-anchor="middle"><textPath startOffset="22.20632615414155" xlink:href="#id31">July</textPath></text><path d="M 100.54218724476979 120.99299961872073 l 0.2614082442483461 10.12149072995254 a31.12486586907087,31.12486586907087 0 0,0 -0.5357038653221948,0.009222627859685787 l -0.08714468903348337 -10.124490835091386" fill="#ff7a0b" stroke="none" /><path d="M 100.18074693466247 120.99922214144158 l 0.13251724250465782 15.395884959948445 a36.39645525825759,36.39645525825759 0 0,0 -0.6265283543342159,0.0 l 0.1325172425046472 -15.395884959948445" fill="#ffc011" stroke="none" /><path d="M 99.09653310690486 120.98055641714683 l -0.2941761514892857 6.831439414183568 a27.837770402533693,27.837770402533693 0 0,0 -0.4785603459085951,-0.024736103572415975 l 0.41172456581136974 -6.8253635038489495" fill="#ff4d07" stroke="none" /><path d="M 97.2962882734958 120.8252237178851 l -1.7596811347319656 13.553868536982224 a34.66761976401627,34.66761976401627 0 0,0 -0.5911182594809794,-0.08192360448221263 l 1.9927279853997761 -13.521570367007406" fill="#ffa90f" stroke="none" /><path d="M 96.22490169976321 120.6578951692458 l -0.7452354021349603 4.078038130225401 a25.1455724328695,25.1455724328695 0 0,0 -0.4251186935143754,-0.08147500940304606 l 0.8153217102210308 -4.064605922473887" fill="#ff2603" stroke="none" /><path d="M 95.16358092515715 120.4354850818985 l -1.6382489855838667 6.922148843444107 a28.11336800324299,28.11336800324299 0 0,0 -0.46995740439732275,-0.11550409599401988 l 1.7571596747243998 -6.892923489136058" fill="#ff5107" stroke="none" /><path d="M 94.81253420990036 120.34920634021253 l -2.5391203570658507 9.96037104807098 a31.27891646054762,31.27891646054762 0 0,0 -0.5205847734029723,-0.13749117017710194 l 2.7101955732803122 -9.915188528590297" fill="#ff7c0b" stroke="none" /><path d="M 93.76903079525671 120.05430185196036 l -8.190625316221782 26.361432234776565 a48.60455492377028,48.60455492377028 0 0,0 -0.796833847219483,-0.25512103469614955 l 8.643180508532206 -26.216538353420706" fill="#aaff21" stroke="none" /><path d="M 92.40401165467489 119.57807347666478 l -1.5145772041434895 3.903705803742066 a25.187226183224475,25.187226183224475 0 0,0 -0.4028504013291321,-0.16030248857362356 l 1.5815486815144797 -3.8770564707623763" fill="#ff2703" stroke="none" /><path d="M 92.06813273071674 119.44442032107085 l -5.232212846163623 12.826405477572385 a34.85253510165769,34.85253510165769 0 0,0 -0.5535388173937789,-0.2313792705639277 l 5.452223123054864 -12.734441163988484" fill="#ffac0f" stroke="none" /><line stroke="#e1ed5e" stroke-width="0.3" x1="58.666819895761336" x2="56.23545636021788" y1="174.27360380694188" y2="178.64263932499728" /><path d="M 58.180547188652646 175.14741091055294 a86.0,86.0 0 0,1 -31.652253787137756,-30.449443065178592" fill="none" id="id32" stroke="none" /><text fill="#e1ed5e" style="font-size:6.75px; font-family:Arial;" text-anchor="middle"><textPath startOffset="22.20632615414155" xlink:href="#id32">August</textPath></text><path d="M 89.7882731507175 118.34994917583269 l -6.64300277735281 11.937135132820798 a34.661064419698114,34.661064419698114 0 0,0 -0.5188451590550273,-0.2946138223383045 l 6.847496703329044 -11.82101814468786" fill="#ffa90f" stroke="none" /><path d="M 89.4739219176387 118.17145234162733 l -3.4275133453532467 5.91700868244048 a27.838043541880282,27.838043541880282 0 0,0 -0.41257588371161896,-0.2437571043347482 l 3.528857100093248 -5.857133005811982" fill="#ff4d07" stroke="none" /><path d="M 89.1626897886671 117.98757091392108 l -7.267951482582704 12.063214039511664 a35.083474419199526,35.083474419199526 0 0,0 -0.5145923742741056,-0.316104665897339 l 7.474523056789118 -11.936320906785946" fill="#ffaf10" stroke="none" /><path d="M 88.54995079064634 117.60387380957326 l -6.363857739353481 9.784110665143471 a32.67165398880996,32.67165398880996 0 0,0 -0.46879980861151854,-0.31069495027547944 l 6.531332246704961 -9.673117693776673" fill="#ff8f0d" stroke="none" /><path d="M 88.24862548938628 117.40417183066458 l -8.64457890649792 12.802905443660396 a36.448078594763096,36.448078594763096 0 0,0 -0.5169432989606662,-0.3555583147658058 l 8.863679090081476 -12.65220633952949" fill="#ffc111" stroke="none" /><path d="M 87.36589467227662 116.77436683061367 l -4.306112204694012 5.717247392011094 a28.157480007717268,28.157480007717268 0 0,0 -0.3846462901063371,-0.2949303730942977 l 4.403887223293835 -5.64227767708943" fill="#ff5107" stroke="none" /><path d="M 84.67929136418377 114.36230785411682 l -6.559498982484148 6.149163592535369 a29.99106444137584,29.99106444137584 0 0,0 -0.3498294744260275,-0.3796708023291331 l 6.664374864905905 -6.035341535404891" fill="#ff6b09" stroke="none" /><path d="M 84.19399662182784 113.82643327865904 l -5.4427051604097825 4.76105173175798 a28.231227631296566,28.231227631296566 0 0,0 -0.3168047740632113,-0.3685155244058178 l 5.523852444043773 -4.666659108190632" fill="#ff5207" stroke="none" /><path d="M 83.50135304334701 112.99209946851258 l -7.551488540997376 5.946529464975833 a30.611773606501583,30.611773606501583 0 0,0 -0.32243407783914346,-0.41678951015818677 l 7.652729436054587 -5.815661960704394" fill="#ff730a" stroke="none" /><path d="M 83.28015986056508 112.70617746262583 l -7.61141035129044 5.784261682996698 a30.559877130649486,30.559877130649486 0 0,0 -0.3146775771754992,-0.42156203850129526 l 7.709849195161024 -5.652386764986095" fill="#ff720a" stroke="none" /><line stroke="#e1ed5e" stroke-width="0.3" x1="26.63291911575756" x2="22.317208475507996" y1="142.92168965132927" y2="145.44649492493687" /><path d="M 25.769776987707644 143.4266507060508 a86.0,86.0 0 0,1 -11.730757126820373,-40.83630448921669" fill="none" id="id33" stroke="none" /><text fill="#e1ed5e" style="font-size:6.75px; font-family:Arial;" text-anchor="middle"><textPath startOffset="21.46611528233685" xlink:href="#id33">September</textPath></text><line stroke="#e1ed5e" stroke-width="0.3" x1="15.007084014347285" x2="10.007500721073583" y1="101.09737516637583" y2="101.16192664675087" /><path d="M 14.007167355692545 101.11028546245083 a86.0,86.0 0 0,1 10.666146001902534,-42.60595125391555" fill="none" id="id34" stroke="none" /><text fill="#e1ed5e" style="font-size:6.75px; font-family:Arial;" text-anchor="middle"><textPath startOffset="22.20632615414155" xlink:href="#id34">October</textPath></text><line stroke="#e1ed5e" stroke-width="0.3" x1="26.266209847984243" x2="21.928928074336255" y1="57.711370442889674" y2="55.22380399835377" /><path d="M 25.398753493254645 57.213857153982495 a86.0,86.0 0 0,1 29.58750427330803,-30.492523968695096" fill="none" id="id35" stroke="none" /><text fill="#e1ed5e" style="font-size:6.75px; font-family:Arial;" text-anchor="middle"><textPath startOffset="21.46611528233685" xlink:href="#id35">November</textPath></text><line stroke="#e1ed5e" stroke-width="0.3" x1="56.762969772571076" x2="54.21961505331055" y1="26.818313649435495" y2="22.513508569990535" /><path d="M 56.25429882871897 25.957352633546506 a86.0,86.0 0 0,1 42.265352541879196,-11.944610805530505" fill="none" id="id36" stroke="none" /><text fill="#e1ed5e" style="font-size:6.75px; font-family:Arial;" text-anchor="middle"><textPath startOffset="22.20632615414155" xlink:href="#id36">December</textPath></text></svg>