<?xml version="1.0" encoding="utf-8" ?>
<svg baseProfile="full" height="200mm" version="1.1" viewBox="0,0,200,200" width="200mm" xmlns="http://www.w3.org/2000/svg" xmlns:ev="http://www.w3.org/2001/xml-events" xmlns:xlink="http://www.w3.org/1999/xlink"><defs /><rect fill="#1a1a1a" height="200" width="200" x="0" y="0" /><text alignment-baseline="middle" fill="#e1ed5e" style="dominant-baseline: central; font-size:9.0px; font-family:Arial;" text-anchor="middle" x="100.0" y="100.0">2023</text><line stroke="#e1ed5e" stroke-width="0.3" x1="100.0" x2="100.0" y1="15.0" y2="10.0" /><path d="M 100.0 14.0 a86.0,86.0 0 0,1 42.46469731375804,11.215312516191453" fill="none" id="id49" stroke="none" /><text fill="#e1ed5e" style="font-size:6.75px; font-family:Arial;" text-anchor="middle"><textPath startOffset="22.20632615414155" xlink:href="#id49">January</textPath></text><path d="M 100.0 79.0 l 0.0 -25.03826885170045 a46.03826885170045,46.03826885170045 0 0,0 0.7924731185423902,0.006821066323986913 l -0.4309926392698618 25.034559161985023" fill="#c2ff1e" stroke="none" /><path d="M 100.36148047927253 79.00311137660856 l 0.4771751115730567 -27.717105752756726 a48.721212949591596,48.721212949591596 0 0,0 0.8384070790943474,0.021653581311185593 l -0.9542088258622718 27.704785379303182" fill="#a4ff21" stroke="none" /><path d="M 101.08401301168833 79.027996857942 l 0.5817453615177194 -11.254814672958071 a32.26983943933008,32.26983943933008 0 0,0 0.5544848927410739,0.033448042962701756 l -0.7753923030984051 11.243133360615065" fill="#ff920d" stroke="none" /><path d="M 101.44485096284872 79.0497635885617 l 0.5519066320783662 -8.002606992963 a29.021615773293583,29.021615773293583 0 0,0 0.4980797640596015,0.03866057581547669 l -0.6895765855003089 7.991921154959059" fill="#ff6609" stroke="none" /><path d="M 102.16513564639614 79.11191278185805 l 1.696988427418731 -16.37164966504582 a37.45936458305083,37.45936458305083 0 0,0 0.6407929058857331,0.07200054928533292 l -1.9785480368141894 16.340013162289885" fill="#ffd513" stroke="none" /><path d="M 102.52436894288641 79.15227682838746 l 3.7774945936607898 -31.196771689346086 a52.42464047912596,52.42464047912596 0 0,0 0.8949267369065729,0.11618717501979992 l -4.313936059075209 31.127126191162148" fill="#7cff26" stroke="none" /><path d="M 102.88285421437855 79.19881850522331 l 0.691596572912336 -4.99020233578345 a26.037898884626674,26.037898884626674 0 0,0 0.4434266821716478,0.06534956628946571 l -0.7773922355126396 4.977558285333015" fill="#ff3d05" stroke="none" /><path d="M 103.2404852339499 79.25152402106235 l 1.1728487828234386 -7.509623726220804 a28.60065936460705,28.60065936460705 0 0,0 0.4857628514536196,0.0801550326665688 l -1.3019408404159334 7.488322430614611" fill="#ff6108" stroke="none" /><path d="M 103.59715602781102 79.31037775812273 l 2.7338738742284057 -15.724315897729706 a36.960206039139464,36.960206039139464 0 0,0 0.6258680758361915,0.11437339041100024 l -3.004137071167498 15.674927025967968" fill="#ffce13" stroke="none" /><path d="M 104.66035177308747 79.52364482259891 l 4.362972955259256 -19.16975117140088 a40.6599820188562,40.6599820188562 0 0,0 0.6811056458458725,0.16119570073088357 l -4.692302288067651 19.09180955852913" fill="#fffc17" stroke="none" /><path d="M 105.01212808612495 79.60689891045804 l 4.2102801220083 -17.130581395374147 a38.64038768421253,38.64038768421253 0 0,0 0.6445421115973465,0.16430813557493132 l -4.504531122290672 17.055570263630347" fill="#ffe315" stroke="none" /><path d="M 105.71112130821622 79.79150937346287 l 1.0699359834910693 -3.785910003744483 a24.934193381777458,24.934193381777458 0 0,0 0.4120194769834552,0.12027978364944096 l -1.1349456781979517 3.7669318911763385" fill="#ff2e04" stroke="none" /><path d="M 106.0581310904928 79.89281104454417 l 5.671716472948938 -18.82466277468406 a40.6605263492638,40.6605263492638 0 0,0 0.6684099261451011,0.20767821770608347 l -5.994911771804757 18.724244422095456" fill="#fffc17" stroke="none" /><path d="M 106.40334571778207 80.00007090966166 l 4.781871550829171 -14.935487813832351 a36.68231780591645,36.68231780591645 0 0,0 0.599698562987331,0.19771118752337088 l -5.03825293605892 14.850962902049744" fill="#ffcb12" stroke="none" /><path d="M 106.74666289553966 80.11325718540242 l 4.776860628343524 -14.080472116051398 a35.86869504944934,35.86869504944934 0 0,0 0.5829824338639823,0.20339112401498538 l -5.01852506627078 13.996160138864205" fill="#ffc111" stroke="none" /><path d="M 107.08798089147638 80.2323363322302 l 9.188732735332373 -25.62644863553551 a48.22402760340778,48.22402760340778 0 0,0 0.7789734516908123,0.2869024962851125 l -9.62848851279576 25.464482871444073" fill="#aaff21" stroke="none" /><path d="M 107.4271985657038 80.35727306442388 l 5.3169146343206615 -14.061654791887559 a36.0332869564466,36.0332869564466 0 0,0 0.5782773487962102,0.22436262725528502 l -5.558175148116539 13.968049460741726" fill="#ffc312" stroke="none" /><path d="M 108.09893153111575 80.62456947434976 l 7.540899295729351 -18.040425436860097 a40.55305889448606,40.55305889448606 0 0,0 0.6417352448535066,0.27475754105048666 l -7.850318298373172 17.90794836784682" fill="#fffb17" stroke="none" /><path d="M 109.08828744355905 81.06846463323043 l 3.635299054439573 -7.5725809780236775 a29.399963207296523,29.399963207296523 0 0,0 0.4543396576001839,0.22294249680894127 l -3.7651099790501887 7.508883321079904" fill="#ff6c09" stroke="none" /><path d="M 109.41281617654863 81.2277094730956 l 15.38076153964962 -30.674361289100286 a55.31449061306053,55.31449061306053 0 0,0 0.8474693923391643,0.43410673864589994 l -15.90649141957754 30.405062025141884" fill="#5eff2a" stroke="none" /><path d="M 110.05341064243156 81.56283822128135 l 14.166648824275704 -25.980516018421827 a50.59191023732374,50.59191023732374 0 0,0 0.7609888443714509,0.42348946798757225 l -14.61176175771919 25.732811152874078" fill="#90ff24" stroke="none" /><path d="M 110.36928655335952 81.73862282372117 l 1.9423359914618918 -3.420652902263112 a24.933641491225313,24.933641491225313 0 0,0 0.3713964061901591,0.2151367704446187 l -2.0009291301173793 3.3867119744284437" fill="#ff2e04" stroke="none" /><line stroke="#e1ed5e" stroke-width="0.3" x1="143.23703022742887" x2="145.7803849466894" y1="26.81831364943548" y2="22.513508569990506" /><path d="M 143.74570117128098 25.957352633546492 a86.0,86.0 0 0,1 28.547481713284135,27.462654790039103" fill="none" id="id50" stroke="none" /><text fill="#e1ed5e" style="font-size:6.75px; font-family:Arial;" text-anchor="middle"><textPath startOffset="19.985693538727396" xlink:href="#id50">February</textPath></text><path d="M 111.2981086023043 82.29822771554956 l 22.37143929583384 -35.051364615975494 a62.58220121168716,62.58220121168716 0 0,0 0.903070026959247,0.5873818660613538 l -22.97147634857737 34.66108382575461" fill="#33ff4e" stroke="none" /><path d="M 111.60114157652 82.49532879139004 l 6.82165457823489 -10.293023294568762 a33.34833186010516,33.34833186010516 0 0,0 0.4757620797457268,0.3212366800004765 l -6.997821352387159 10.174074702269616" fill="#ffa00e" stroke="none" /><path d="M 111.90073688211348 82.69761687909136 l 6.0830061177286945 -8.844032383739362 a31.734051995074147,31.734051995074147 0 0,0 0.4474030766940367,0.31343444687122607 l -6.234340334006382 8.7380130941042" fill="#ff8b0c" stroke="none" /><path d="M 112.19680574252982 82.90503203632743 l 4.538056657309335 -6.360512318690351 a28.81345475325488,28.81345475325488 0 0,0 0.40126808545798,0.2915383292165102 l -4.646870059121104 6.281454754657166" fill="#ff6409" stroke="none" /><path d="M 112.77801427241765 83.33499621200491 l 13.033762428935134 -16.998548883991475 a42.42030875630342,42.42030875630342 0 0,0 0.5756384283634205,0.4492949239631037 l -13.324433412457985 16.771675570805147" fill="#edff1a" stroke="none" /><path d="M 113.06298171725822 83.55741782278167 l 10.032804757541214 -12.628450400103812 a37.12869898072451,37.12869898072451 0 0,0 0.4969881475811286,0.40186318546829547 l -10.248696303686833 12.453881117371388" fill="#ffd113" stroke="none" /><path d="M 113.34407831869373 83.78471172551755 l 1.6017699864062944 -1.9464185879819127 a23.52075631686078,23.52075631686078 0 0,0 0.31040953991615217,0.2599590627793047 l -1.635037063281564 1.9185583678087887" fill="#ff1902" stroke="none" /><path d="M 113.6212207817346 84.01681056812373 l 9.970706857461174 -11.69966326999182 a36.37195875185134,36.37195875185134 0 0,0 0.4730194043092714,0.4101977662063884 l -10.170620060417209 11.52630051036576" fill="#ffc712" stroke="none" /><path d="M 113.89432698308785 84.25364557470407 l 21.466862191005355 -24.328261517812166 a53.44519195207012,53.44519195207012 0 0,0 0.6845794952823849,0.6146222301400048 l -21.88245267388373 23.955140278902864" fill="#71ff27" stroke="none" /><path d="M 114.42810811169701 84.74124197986012 l 5.202928937641405 -5.502470111870815 a28.572822912374086,28.572822912374086 0 0,0 0.35446186409373687,0.34099203241840803 l -5.29687404534756 5.412094992690105" fill="#ff6008" stroke="none" /><path d="M 114.94478906791727 85.2469230424477 l 3.2314019583826945 -3.1899494570416786 a25.540675737720104,25.540675737720104 0 0,0 0.30616670535024326,0.31553170267662345 l -3.2858329274360467 3.1338535588149408" fill="#ff3605" stroke="none" /><path d="M 115.4437574822437 85.77008943001954 l 43.43081076445513 -40.017240226058966 a80.05603135131943,80.05603135131943 0 0,0 0.9250526244971279,1.0214662125165543 l -44.113207029568294 39.263721226272864" fill="#48f6ff" stroke="none" /><path d="M 116.82858285166822 87.43820079747576 l 7.06574283136219 -5.27426720637076 a29.817177344430824,29.817177344430824 0 0,0 0.30347836132459677,0.41394414379090777 l -7.155483805200413 5.1518606189083584" fill="#ff710a" stroke="none" /><path d="M 117.04232023915458 87.72973835380427 l 10.222491348786285 -7.360068451090344 a33.59642556365677,33.59642556365677 0 0,0 0.3338642873730185,0.47222735761747514 l -10.347668255963185 7.183014593141076" fill="#ffa30f" stroke="none" /><path d="M 117.65298651832404 88.62581576622439 l 8.475201290297916 -5.460747437501202 a31.082102929808016,31.082102929808016 0 0,0 0.28591450174674465,0.4522480792472382 l -8.567943388290615 5.314051710539757" fill="#ff820c" stroke="none" /><line stroke="#e1ed5e" stroke-width="0.3" x1="172.23445277983987" x2="176.4835382374775" y1="55.19839476539836" y2="52.563006222186495" /><path d="M 173.08426987136738 54.67131705675599 a86.0,86.0 0 0,1 12.851231095245387,41.99856678651699" fill="none" id="id51" stroke="none" /><text fill="#e1ed5e" style="font-size:6.75px; font-family:Arial;" text-anchor="middle"><textPath startOffset="22.20632615414155" xlink:href="#id51">March</textPath></text><path d="M 117.84615892207809 88.93136811851018 l 9.853707340872928 -6.111514511345397 a32.59509197815862,32.59509197815862 0 0,0 0.2916239445763542,0.47935308753022493 l -9.957447083735506 5.940993650608091" fill="#ff960d" stroke="none" /><path d="M 118.21658344932153 89.55222093294921 l 13.34286487561117 -7.652549377863151 a36.38159793615254,36.38159793615254 0 0,0 0.3068915272362101,0.5459257830763777 l -13.472614044139814 7.4217400848519794" fill="#ffc712" stroke="none" /><path d="M 118.3937258080291 89.86733742301442 l 6.625761559330532 -3.6499731972166374 a28.56458991495917,28.56458991495917 0 0,0 0.23353851131163858,0.4327113931075418 l -6.687608169860635 3.535380820776637" fill="#ff6008" stroke="none" /><path d="M 118.56541770881063 90.18545643968196 l 10.698630478856053 -5.655793826855182 a33.10159898257255,33.10159898257255 0 0,0 0.2619606427723927,0.5060245814383335 l -10.794400554788563 5.470796523156503" fill="#ff9d0e" stroke="none" /><path d="M 118.73160827565052 90.50648371742162 l 0.7750650822226517 -0.39281693647755767 a21.868925213850087,21.868925213850087 0 0,0 0.16728685062265544,0.3372400828732811 l -0.7817119457987153 0.3794172651053267" fill="#ff0200" stroke="none" /><path d="M 118.89224826269711 90.83032412892265 l 4.532072519971942 -2.199718924635099 a26.037702320868377,26.037702320868377 0 0,0 0.1922348760018157,0.40489567486540345 l -4.569265589815514 2.121380834129155" fill="#ff3d05" stroke="none" /><path d="M 119.04729006885535 91.15688171328212 l 13.945986924061724 -6.474727457222474 a36.375716143692664,36.375716143692664 0 0,0 0.2587832243174599,0.5701945317672428 l -14.055372465342533 6.233710916613168" fill="#ffc712" stroke="none" /><path d="M 119.34039704204932 91.81776055985345 l 9.153962508904549 -3.872718482000986 a30.93946568258385,30.93946568258385 0 0,0 0.2032845373107288,0.49226963148279124 l -9.219268733101474 3.7145742800648915" fill="#ff800b" stroke="none" /><path d="M 119.47837535516314 92.15188598940014 l 16.362335138588286 -6.592617161638505 a38.64053888710352,38.64053888710352 0 0,0 0.24326326080581265,0.6190784647585295 l -16.473391949275797 6.309989691984191" fill="#ffe315" stroke="none" /><path d="M 119.61058180528143 92.48833698450437 l 24.264640729721823 -9.294359859565866 a46.983801010275315,46.983801010275315 0 0,0 0.2827874696405478,0.7577298255522898 l -24.421032787863997 8.875306896984243" fill="#b8ff1f" stroke="none" /><path d="M 119.85752413597 93.16781622104841 l 4.764019153196709 -1.6391093954218818 a26.03811056867407,26.03811056867407 0 0,0 0.1421714391844783,0.4250745072392492 l -4.791527886152957 1.5568617852603188" fill="#ff3d05" stroke="none" /><path d="M 119.97218684219823 93.5106431181261 l 11.024769253971971 -3.5821646770384588 a32.59212840149503,32.59212840149503 0 0,0 0.16877215409452784,0.5350538496297234 l -11.084796891834706 3.3918606609823163" fill="#ff960d" stroke="none" /><path d="M 120.18372546131832 94.20196356495316 l 11.637310889910983 -3.3429682084698857 a33.10794950399452,33.10794950399452 0 0,0 0.15263273863845173,0.5491011704389243 l -11.693130399115798 3.1421557346120097" fill="#ff9d0e" stroke="none" /><path d="M 120.28053869075195 94.5502522615342 l 21.416889546503263 -5.755105776566548 a43.17666341780455,43.17666341780455 0 0,0 0.18669521028276032,0.7194128029887619 l -21.51278108865633 5.385596548028936" fill="#e4ff1a" stroke="none" /><path d="M 120.37134235888165 94.90015583598534 l 16.14079939842881 -4.040752944231962 a37.638902895823364,37.638902895823364 0 0,0 0.1519306857016134,0.6298507781776131 l -16.207962884391243 3.762316934394943" fill="#ffd714" stroke="none" /><path d="M 120.45610955862082 95.25157060432595 l 6.16217798098132 -1.430412121249896 a27.326018993483157,27.326018993483157 0 0,0 0.10241481312743123,0.4591055257234848 l -6.185887181110789 1.3241284259764472" fill="#ff4f07" stroke="none" /><path d="M 120.6074358757038 95.95851677861258 l 9.815483002114796 -1.9249900910588502 a31.002464367118698,31.002464367118698 0 0,0 0.09819554639948964,0.5245645353487146 l -9.847164272424145 1.7557474782475726" fill="#ff810b" stroke="none" /><path d="M 120.67395015179393 96.31383870115 l 16.123148792253314 -2.8747542998427438 a37.37742773641831,37.37742773641831 0 0,0 0.1074834896268898,0.6343736400693938 l -16.170244143400428 2.596794871457512" fill="#ffd413" stroke="none" /><path d="M 120.73433829027371 96.67025291283417 l 15.763794408553771 -2.5315227223424457 a36.96577030552824,36.96577030552824 0 0,0 0.09548453255006846,0.6291237675383907 l -15.80503483454314 2.2597998424119727" fill="#ffcf13" stroke="none" /><path d="M 120.78858239683441 97.02765380044208 l 15.967273696661673 -2.2829967134651934 a37.129659119082355,37.129659119082355 0 0,0 0.08501631257448461,0.6334702775123181 l -16.004206008293995 2.0078080938882112" fill="#ffd113" stroke="none" /><path d="M 120.87857604477298 97.74499172005257 l 23.798411371580464 -2.5703675661321905 a44.936816271927114,44.936816271927114 0 0,0 0.07644153523442065,0.7697558278691091 l -23.839130032497113 2.1603362075586463" fill="#cfff1d" stroke="none" /><path d="M 120.91429891909075 98.10471618934814 l 5.016857325207849 -0.45463481733721073 a26.037415035375474,26.037415035375474 0 0,0 0.03660800566311949,0.44671039376814164 l -5.023939814690463 0.3682105063613003" fill="#ff3d05" stroke="none" /><path d="M 120.98425023603335 99.18683210126433 l 6.2966167454859185 -0.24400236131755534 a27.301342681672075,27.301342681672075 0 0,0 0.014155493375675435,0.4697519107746739 l -6.299883933317239 0.1355803031178824" fill="#ff4f07" stroke="none" /><line stroke="#e1ed5e" stroke-width="0.3" x1="184.98032266829074" x2="189.97916517819016" y1="98.17113171792111" y2="98.06355123074" /><path d="M 185.9800911702706 98.14961562048488 a86.0,86.0 0 0,1 -9.607161424134198,41.387399972396054" fill="none" id="id52" stroke="none" /><text fill="#e1ed5e" style="font-size:6.75px; font-family:Arial;" text-anchor="middle"><textPath startOffset="21.466115282336823" xlink:href="#id52">April</textPath></text><path d="M 120.99980553446 99.90962569577887 l 32.15580181065881 -0.1383850060202747 a53.15609958462406,53.15609958462406 0 0,0 -0.003937861343011781,0.9150202940715547 l -32.153419652026294 -0.4151447662549647" fill="#74ff27" stroke="none" /><path d="M 120.99824983174949 100.27111621757518 l 6.549147569876861 0.08455848138362662 a27.549693430138383,27.549693430138383 0 0,0 -0.010203799454613251,0.4741304655958179 l -6.54672170773724 -0.19727876276955936" fill="#ff5207" stroke="none" /><path d="M 120.8583938346157 102.4346265915055 l 15.61531686635027 1.822645884387736 a36.72132815179426,36.72132815179426 0 0,0 -0.07868592120390332,0.6272042117635748 l -15.581629435899517 -2.0911678504387057" fill="#ffcb13" stroke="none" /><path d="M 120.32669344350535 105.2749913415812 l 4.6344259239468775 1.2026824082315397 a25.78793782537122,25.78793782537122 0 0,0 -0.11520076450365335,0.4287049004543966 l -4.613037083101447 -1.2822782418614844" fill="#ff3a05" stroke="none" /><path d="M 120.13307415673323 105.97154293290107 l 9.5288094311441 2.8262794928652117 a30.939117915934553,30.939117915934553 0 0,0 -0.1558347789419872,0.5092770741223803 l -9.478747879695982 -2.9898835395396492" fill="#ff800b" stroke="none" /><path d="M 119.79798401119884 107.00284435728193 l 7.434145759264642 2.6295690334950077 a28.88550293081604,28.88550293081604 0 0,0 -0.16984089621991424,0.4673292026347907 l -7.387780602039501 -2.7571460331359297" fill="#ff6509" stroke="none" /><path d="M 119.67450827220406 107.3425965602758 l 6.018184350219458 2.246007833977578 a27.423635579912286,27.423635579912286 0 0,0 -0.16885871213455705,0.44083681350164183 l -5.978631358491394 -2.349268214312364" fill="#ff5007" stroke="none" /><path d="M 119.54520255179757 107.68017299344265 l 9.614209398623037 3.777847335218135 a31.32981862613213,31.32981862613213 0 0,0 -0.20155126629430967,0.5002337138434333 l -9.547755518071334 -3.9427804169043816" fill="#ff850c" stroke="none" /><path d="M 119.41010516605496 108.01547362559984 l 7.767487969457569 3.2076124484494652 a29.403728159282405,29.403728159282405 0 0,0 -0.19721363145347634,0.466154768791061 l -7.711123356811784 -3.3408417429066897" fill="#ff6c09" stroke="none" /><path d="M 119.12269723197855 108.67885076344098 l 9.178641053640758 4.165733261860507 a31.079721484274778,31.079721484274778 0 0,0 -0.22529154816452635,0.48525795186936654 l -9.1055748886364 -4.323111281008704" fill="#ff820c" stroke="none" /><path d="M 118.97047184881838 109.00673069616215 l 7.056110099909356 3.350073943274739 a28.810997706276144,28.810997706276144 0 0,0 -0.21655819817222027,0.4461740306542914 l -6.997398645122422 -3.4710369298943053" fill="#ff6409" stroke="none" /><path d="M 118.81262510543309 109.33194174019688 l 12.192927231141141 6.04826205411431 a34.61061895503442,34.61061895503442 0 0,0 -0.26933873281677595,0.5314308720197021 l -12.087009828538097 -6.257247137836706" fill="#ffb110" stroke="none" /><path d="M 118.64920377521936 109.65438752849418 l 9.421372964325977 4.877290566632308 a31.608969403494996,31.608969403494996 0 0,0 -0.25429790944364655,0.4810358099980376 l -9.336022546657437 -5.03874139171648" fill="#ff890c" stroke="none" /><line stroke="#e1ed5e" stroke-width="0.3" x1="174.80103733775053" x2="179.2010983576182" y1="140.37084112569926" y2="142.7455964860345" /><path d="M 175.68104954172406 140.8457921977663 a86.0,86.0 0 0,1 -30.038265399797805,32.042727171017184" fill="none" id="id53" stroke="none" /><text fill="#e1ed5e" style="font-size:6.75px; font-family:Arial;" text-anchor="middle"><textPath startOffset="22.206326154141568" xlink:href="#id53">May</textPath></text><path d="M 117.55443506779139 111.5257021239791 l 5.06206208479226 3.323594265329142 a27.05563798379825,27.05563798379825 0 0,0 -0.2589571055178661,0.38710573698774303 l -5.004101873863673 -3.410236916522692" fill="#ff4b07" stroke="none" /><path d="M 117.14729908036423 112.12312394758627 l 6.379989292429273 4.510646289768357 a28.813462313399434,28.813462313399434 0 0,0 -0.2898088329625701,0.4025191215881762 l -6.301400667091101 -4.619799016807665" fill="#ff6409" stroke="none" /><path d="M 116.71984013943494 112.70617746262583 l 6.025866683177873 4.57933394123768 a28.568445588679655,28.568445588679655 0 0,0 -0.3009116860424993,0.38896891751341356 l -5.946148179917306 -4.6823808528643465" fill="#ff6008" stroke="none" /><path d="M 116.27256486870786 113.27417163493432 l 6.052183960331143 4.937004664219935 a28.81043825557945,28.81043825557945 0 0,0 -0.3167831160968276,0.38158567040039065 l -5.966304844340772 -5.0404515917340955" fill="#ff6409" stroke="none" /><path d="M 116.0416608686014 113.55231037782055 l 9.819324296471805 8.29555815051104 a33.854392815990636,33.854392815990636 0 0,0 -0.37990672623911476,0.44191735070688004 l -9.675075060661912 -8.463352600379448" fill="#ffa70f" stroke="none" /><path d="M 115.56566222782051 114.09645910891815 l 3.903972616765295 3.5354866082221124 a26.266941023912377,26.266941023912377 0 0,0 -0.3063895978462793,0.33252539578164036 l -3.8425366109232937 -3.602163258805087" fill="#ff4006" stroke="none" /><path d="M 115.07121518719521 114.62390073753431 l 5.429137721558096 5.268000631954648 a28.564877200452074,28.564877200452074 0 0,0 -0.3454437313901043,0.3499326760995845 l -5.337653365112456 -5.360673802034897" fill="#ff6008" stroke="none" /><path d="M 114.81725581225074 114.88116024355365 l 5.512352151379684 5.536126035953106 a28.812471934463385,28.812471934463385 0 0,0 -0.35446207125903373,0.3469157411035881 l -5.416240127744856 -5.630191879979265" fill="#ff6409" stroke="none" /><path d="M 114.29624159901734 115.38237550388516 l 16.8898633016386 18.173043433523983 a45.80981640368964,45.80981640368964 0 0,0 -0.5822219350945244,0.5318459333600066 l -16.57454181707721 -18.461082133470573" fill="#c5ff1e" stroke="none" /><path d="M 112.34349029814194 116.9893568818739 l 13.47892549403941 18.55214935737382 a43.93171773444308,43.93171773444308 0 0,0 -0.615614474757291,0.43922458216125715 l -13.157583691433235 -18.781418201379296" fill="#dbff1b" stroke="none" /><path d="M 111.7513745106137 117.40417183066458 l 3.5273609563572554 5.224137494534921 a27.303482202579712,27.303482202579712 0 0,0 -0.3917728571495409,0.2596456869977684 l -3.4369134004677506 -5.284081202624008" fill="#ff4f07" stroke="none" /><path d="M 111.1453310114006 117.79835938074945 l 4.28070479368352 6.83600354650227 a29.065691416019874,29.065691416019874 0 0,0 -0.4263255964039556,0.2618840016913509 l -4.162399997347256 -6.908676015021999" fill="#ff6709" stroke="none" /><line stroke="#e1ed5e" stroke-width="0.3" x1="143.8653032363475" x2="146.44561519142675" y1="172.8068346515853" y2="177.08958963109032" /><path d="M 144.38136562736335 173.6633856474863 a86.0,86.0 0 0,1 -40.68145358897372,12.25698825130547" fill="none" id="id54" stroke="none" /><text fill="#e1ed5e" style="font-size:6.75px; font-family:Arial;" text-anchor="middle"><textPath startOffset="21.466115282336833" xlink:href="#id54">June</textPath></text><path d="M 110.5260780823613 118.17145234162733 l 4.979533075381851 8.59630217967753 a30.934392825590827,30.934392825590827 0 0,0 -0.4630602156794518,0.2629376755920629 l -4.830824092781199 -8.680743021064222" fill="#ff800b" stroke="none" /><path d="M 110.21172684928248 118.3499491758327 l 5.636545971999137 10.12858389574884 a32.591327026172735,32.591327026172735 0 0,0 -0.4925592251921913,0.2685825625444586 l -5.461363934938297 -10.224107110053069" fill="#ff960d" stroke="none" /><path d="M 109.57404056367764 118.69057910512821 l 3.4495020076668945 6.734167222165064 a28.566245586615615,28.566245586615615 0 0,0 -0.43957479207092504,0.22041192616735467 l -3.333073307913209 -6.792546989241721" fill="#ff6008" stroke="none" /><path d="M 108.92500713936063 119.00905698771935 l 3.215017546867985 6.8475521431694135 a28.564741117850172,28.564741117850172 0 0,0 -0.44687769761105334,0.205139633006272 l -3.096671853489512 -6.90187884650976" fill="#ff6008" stroke="none" /><path d="M 108.59647513512805 119.15986991738527 l 6.011568108556306 13.398615263687958 a35.68542958541367,35.68542958541367 0 0,0 -0.5626051405565234,0.24662956017896673 l -5.780042293342029 -13.50010937716138" fill="#ffbe11" stroke="none" /><path d="M 108.2653958097858 119.30500536409082 l 3.0742851385860948 7.180429401926886 a28.810876743963345,28.810876743963345 0 0,0 -0.4575833176672683,0.19126986389602404 l -2.9502303614213656 -7.232284308842883" fill="#ff6409" stroke="none" /><path d="M 107.93186726928326 119.44442032107085 l 6.663211912401714 16.33440004913404 a38.64117393924572,38.64117393924572 0 0,0 -0.6180359963425206,0.24592927775400777 l -6.381054840017327 -16.44667617129412" fill="#ffe315" stroke="none" /><path d="M 105.53697534728816 120.25689768951611 l 2.259114518348242 8.264918804360212 a29.568108382232268,29.568108382232268 0 0,0 -0.49211126036074526,0.12997105659091662 l -2.1165128151759993 -8.302581210254713" fill="#ff6e0a" stroke="none" /><path d="M 105.18746579009965 120.34920634021253 l 3.636512513784809 14.265181978260419 a35.7214007531824,35.7214007531824 0 0,0 -0.5971371618464794,0.14676178610689716 l -3.390422067195119 -14.325665022681346" fill="#ffbf11" stroke="none" /><path d="M 104.48393922423573 120.51570834832081 l 0.8077298359521663 3.6956677844928096 a24.782907329188134,24.782907329188134 0 0,0 -0.4175430582700576,0.08750020755560328 l -0.7439953162527306 -3.709023972774954" fill="#ff2b04" stroke="none" /><path d="M 104.13013068566511 120.58985236759428 l 1.6893433094516415 8.42184714893374 a29.589609433332367,29.589609433332367 0 0,0 -0.5002509343336947,0.09587428217231098 l -1.5441247605462423 -8.44967862945452" fill="#ff6e0a" stroke="none" /><path d="M 103.41894727170886 120.7198165907248 l 1.2218150759327489 7.4045553409356035 a28.50468332954526,28.50468332954526 0 0,0 -0.4848024097385586,0.07571616593603674 l -1.094176802585673 -7.424489814218745" fill="#ff5f08" stroke="none" /><path d="M 103.06178313531738 120.77559828337769 l 3.8209869874656666 25.92714349423429 a47.20718816143764,47.20718816143764 0 0,0 -0.8049306843368741,0.11155605830399098 l -3.374127711941962 -25.98907411803088" fill="#b5ff1f" stroke="none" /><path d="M 101.26447882468166 120.96189622390904 l 0.8195240415217885 13.58565883118135 a34.61035434997517,34.61035434997517 0 0,0 -0.5949881369894506,0.030754090485676327 l -0.5855478361188582 -13.597752728429228" fill="#ffb110" stroke="none" /><path d="M 100.90346689309514 120.98055641714683 l 0.9865561398331162 22.910077733497612 a43.93130948663738,43.93130948663738 0 0,0 -0.7557851448478269,0.026030768540375587 l -0.5920506433106371 -22.923665300464084" fill="#dbff1b" stroke="none" /><line stroke="#e1ed5e" stroke-width="0.3" x1="102.19456741930631" x2="102.32365962044197" y1="184.97166512339345" y2="189.96999836594603" /><path d="M 102.22038585953345 185.97133177190398 a86.0,86.0 0 0,1 -42.740103519485714,-10.115201625700543" fill="none" id="id55" stroke="none" /><text fill="#e1ed5e" style="font-size:6.75px; font-family:Arial;" text-anchor="middle"><textPath startOffset="22.20632615414155" xlink:href="#id55">July</textPath></text><path d="M 100.54218724476979 120.99299961872073 l 0.8784538225200503 34.012937300022884 a55.024279344221064,55.024279344221064 0 0,0 -0.9470472661717966,0.016304277543680065 l -0.29284686645558583 -34.023019054845726" fill="#61ff29" stroke="none" /><path d="M 100.18074693466247 120.99922214144158 l 0.14461038389970968 16.80086902242669 a37.80149136451489,37.80149136451489 0 0,0 -0.6507146371243187,0.0 l 0.1446103838996981 -16.80086902242669" fill="#ffd914" stroke="none" /><path d="M 99.81925306533755 120.99922214144158 l -0.1166357543952356 13.550769869233246 a34.5512718203172,34.5512718203172 0 0,0 -0.5946772572065796,-0.01023790828265973 l 0.34987270149448313 -13.546754483671426" fill="#ffb010" stroke="none" /><path d="M 98.01472825383883 120.90594882070398 l -0.9520450249702594 10.025531570436305 a31.070634190525723,31.070634190525723 0 0,0 -0.5319993932240384,-0.0551439123219489 l 1.1244770147998913 -10.007658289658597" fill="#ff820c" stroke="none" /><path d="M 97.2962882734958 120.8252237178851 l -1.872004680809205 14.419035837517308 a35.540048005717864,35.540048005717864 0 0,0 -0.6059940504140501,-0.08398525355702045 l 2.1199273224100863 -14.384676018467681" fill="#ffbc11" stroke="none" /><path d="M 96.22490169976321 120.6578951692458 l -2.6273292925701432 14.37713372857028 a35.61522608312271,35.61522608312271 0 0,0 -0.6021218416123543,-0.11539808400706585 l 2.874418748754193 -14.329778446214746" fill="#ffbd11" stroke="none" /><path d="M 95.51606077576429 120.51570834832081 l -2.1242757947754334 9.71936069549171 a30.948794900958504,30.948794900958504 0 0,0 -0.519467933483847,-0.11822921041852971 l 2.291263877652143 -9.681354751495494" fill="#ff800b" stroke="none" /><path d="M 95.16358092515715 120.4354850818985 l -2.6698530398525016 11.281020342212582 a32.59265005146898,32.59265005146898 0 0,0 -0.5448353686705817,-0.13390727784056716 l 2.8636416932662936 -11.233391806057986" fill="#ff960d" stroke="none" /><path d="M 91.7346041902142 119.30500536409082 l -3.476377883478863 8.119574093319239 a29.832479076999952,29.832479076999952 0 0,0 -0.4703293831476254,-0.20617857986544266 l 3.6156279412842314 -8.058530960159345" fill="#ff710a" stroke="none" /><path d="M 91.40352486487194 119.15986991738527 l -0.547047498631053 1.219262400884714 a22.3363613912298,22.3363613912298 0 0,0 -0.34943855119637895,-0.16041009997563033 l 0.5679540455948514 -1.209665230575009" fill="#ff0801" stroke="none" /><path d="M 90.10565033884886 118.52300852407294 l -7.718592812359262 14.449818871728146 a37.38212258618385,37.38212258618385 0 0,0 -0.5649634739421339,-0.3080631319334054 l 7.966179098170036 -14.314815088034974" fill="#ffd413" stroke="none" /><line stroke="#e1ed5e" stroke-width="0.3" x1="58.666819895761336" x2="56.23545636021788" y1="174.27360380694188" y2="178.64263932499728" /><path d="M 58.180547188652646 175.14741091055294 a86.0,86.0 0 0,1 -31.652253787137756,-30.449443065178592" fill="none" id="id56" stroke="none" /><text fill="#e1ed5e" style="font-size:6.75px; font-family:Arial;" text-anchor="middle"><textPath startOffset="22.20632615414155" xlink:href="#id56">August</textPath></text><path d="M 89.1626897886671 117.98757091392108 l -6.7336877064886735 11.176452714807585 a34.04820468167351,34.04820468167351 0 0,0 -0.4994073927103613,-0.306776809979078 l 6.925074299131344 -11.058887438000129" fill="#ffa90f" stroke="none" /><path d="M 88.8546689885994 117.79835938074946 l -6.447944255324619 10.296942190942127 a33.14919765265912,33.14919765265912 0 0,0 -0.48100779868136384,-0.30700193521476277 l 6.624233856052906 -10.184425826903562" fill="#ff9e0e" stroke="none" /><path d="M 88.54995079064634 117.60387380957326 l -6.281943204406975 9.658171194491226 a32.521418369519225,32.521418369519225 0 0,0 -0.4666441041713867,-0.30926626691953035 l 6.447262007318324 -9.548606906480376" fill="#ff950d" stroke="none" /><path d="M 87.65650970185807 116.9893568818739 l -8.443602051472618 11.621621207300228 a35.365113820976255,35.365113820976255 0 0,0 -0.4894111237730407,-0.3620546491997938 l 8.642398145664224 -11.474556609360668" fill="#ffba11" stroke="none" /><path d="M 86.24171649860922 115.8653595955263 l -21.131648204607835 24.367952410514764 a53.25435878333993,53.25435878333993 0 0,0 -0.687381009013358,-0.6065338200347886 l 21.54797156652778 -24.000595448707685" fill="#73ff27" stroke="none" /><path d="M 85.97065885151581 115.62618273729859 l -2.9379786638640515 3.272383998216788 a25.39775120500304,25.39775120500304 0 0,0 -0.32279386853066894,-0.2948645455340118 l 2.993872081861575 -3.2213266860962" fill="#ff3405" stroke="none" /><path d="M 85.70375840098266 115.38237550388516 l -5.269299682440258 5.669626229831637 a28.740166711987534,28.740166711987534 0 0,0 -0.35947675756538205,-0.3399077116859663 l 5.366112274396458 -5.57808388139974" fill="#ff6309" stroke="none" /><path d="M 85.18274418774928 114.88116024355367 l -5.439096016057304 5.462553958750094 a28.708648469358735,28.708648469358735 0 0,0 -0.34718240098946507,-0.35169393922428455 l 5.532319042102302 -5.368119525545145" fill="#ff6209" stroke="none" /><path d="M 84.67929136418377 114.36230785411682 l -6.001646919129752 5.626208469413985 a29.226420089152104,29.226420089152104 0 0,0 -0.34091031344112355,-0.3699908146357083 l 6.0976036405666045 -5.522066399976933" fill="#ff6909" stroke="none" /><path d="M 84.43433777217949 114.09645910891817 l -9.236289539401813 8.364499749814799 a33.46089485230957,33.46089485230957 0 0,0 -0.38295380764762277,-0.43025266255754935 l 9.378902196697775 -8.204272917516386" fill="#ffa20e" stroke="none" /><path d="M 84.19399662182784 113.82643327865904 l -3.4280348867571777 2.9987021073346574 a25.55451836239109,25.55451836239109 0 0,0 -0.2867673174480255,-0.3335751763346945 l 3.4791447137759817 -2.9392498318384326" fill="#ff3605" stroke="none" /><path d="M 83.95833913139862 113.55231037782056 l -5.831357887928979 4.926445750766946 a28.63378035788044,28.63378035788044 0 0,0 -0.3148406868002134,-0.37924588918197827 l 5.915294574622728 -4.825338604471207" fill="#ff6109" stroke="none" /><path d="M 83.50135304334701 112.99209946851258 l -3.931896111766397 3.0962287706464147 a26.004641808751384,26.004641808751384 0 0,0 -0.27390711851341926,-0.35406187372974135 l 3.9846100474978847 -3.028088902803421" fill="#ff3d05" stroke="none" /><path d="M 83.06392112726016 112.41649034213515 l -7.360559257099421 5.396308886798624 a30.126772823896395,30.126772823896395 0 0,0 -0.30301824813887157,-0.420865843939958 l 7.452357297613901 -5.268809437407528" fill="#ff750a" stroke="none" /><path d="M 82.85270091963577 112.12312394758628 l -10.016854869256187 7.081906752535427 a33.267468553998754,33.267468553998754 0 0,0 -0.3265583708920734,-0.47043168914422473 l 10.137274147310395 -6.90843380120419" fill="#ff9f0e" stroke="none" /><path d="M 82.6465618267979 111.8261652097733 l -3.108097687074726 2.118132232275531 a24.761217274474287,24.761217274474287 0 0,0 -0.23699656087711954,-0.3542777023956513 l 3.1440973533625756 -2.064317615674059" fill="#ff2b04" stroke="none" /><path d="M 82.44556493220864 111.52570212397912 l -3.175063968903851 2.0846493429633854 a24.798261982769112,24.798261982769112 0 0,0 -0.23120852823467108,-0.3588407702882215 l 3.2104773605155676 -2.0296869727537157" fill="#ff2c04" stroke="none" /><path d="M 82.24976979558568 111.22182372390057 l -9.62761073892422 6.0866450378582275 a32.39026498186645,32.39026498186645 0 0,0 -0.29388051474144355,-0.4738289633562185 l 9.73095589333362 -5.920019743136745" fill="#ff940d" stroke="none" /><line stroke="#e1ed5e" stroke-width="0.3" x1="26.63291911575756" x2="22.317208475507996" y1="142.92168965132927" y2="145.44649492493687" /><path d="M 25.769776987707644 143.4266507060508 a86.0,86.0 0 0,1 -11.730757126820373,-40.83630448921669" fill="none" id="id57" stroke="none" /><text fill="#e1ed5e" style="font-size:6.75px; font-family:Arial;" text-anchor="middle"><textPath startOffset="21.46611528233685" xlink:href="#id57">September</textPath></text><path d="M 81.87401531095188 110.60418214915194 l -31.899609574768668 18.662118291541056 a57.95753982816151,57.95753982816151 0 0,0 -0.49635942123875915,-0.8654444891899142 l 32.21612099215981 -18.110253956492834" fill="#44ff2d" stroke="none" /><path d="M 81.69416730710424 110.29060199501025 l -22.184433186545252 12.470952632284835 a46.449434873194775,46.449434873194775 0 0,0 -0.38580367664431303,-0.7003457373625602 l 22.39581327264108 -12.087236376524451" fill="#beff1f" stroke="none" /><path d="M 81.02952815118164 109.00673069616217 l -10.235959654893712 4.8597911935517395 a32.33103880946204,32.33103880946204 0 0,0 -0.23436213193984723,-0.5047951823643829 l 10.318096403673385 -4.682875943908529" fill="#ff930d" stroke="none" /><path d="M 80.58989483394504 108.01547362559985 l -14.080694916960343 5.814674251966077 a36.234054155115444,36.234054155115444 0 0,0 -0.2331012376767777,-0.5785381554203921 l 14.17869876889451 -5.57143672870288" fill="#ffc512" stroke="none" /><path d="M 80.45479744820244 107.68017299344265 l -12.456545080750027 4.894726512413589 a34.383716336656356,34.383716336656356 0 0,0 -0.21171481957922764,-0.552720586664235 l 12.538954179922765 -4.679582358916197" fill="#ffae10" stroke="none" /><path d="M 80.20201598880116 107.00284435728193 l -6.969481357815889 2.465210254344842 a28.392626867025697,28.392626867025697 0 0,0 -0.1590111072938028,-0.462160709245219 l 7.010883296052921 -2.344876842010326" fill="#ff5e08" stroke="none" /><path d="M 80.0844068197444 106.66101706037122 l -7.618218532463356 2.5480076418051922 a29.033031591564033,29.033031591564033 0 0,0 -0.15443879072703517,-0.4753137237218524 l 7.66094957420664 -2.4164950181055365" fill="#ff6709" stroke="none" /><path d="M 79.97269907076064 106.31721596034903 l -7.212417577583989 2.2750144712358864 a28.56271499911078,28.56271499911078 0 0,0 -0.1438652643544527,-0.4701600078988408 l 7.250509614444572 -2.150527490784998" fill="#ff6008" stroke="none" /><path d="M 79.76711848015287 105.62410040840567 l -18.240424984085905 5.07026058062271 a39.932000579851085,39.932000579851085 0 0,0 -0.17838560904367573,-0.6638392123269358 l 18.324998669471356 -4.755530435120235" fill="#fff316" stroke="none" /><path d="M 79.67330655649465 105.27499134158121 l -7.81237820070679 2.027394543063439 a29.071157400529497,29.071157400529497 0 0,0 -0.12152946191018892,-0.48544978937438954 l 7.846118976912037 -1.8926169142916571" fill="#ff6709" stroke="none" /><path d="M 79.58551787078972 104.9243191809786 l -6.74705982009637 1.62750521306493 a27.940575583805163,27.940575583805163 0 0,0 -0.10875461122832297,-0.4685120187989979 l 6.774074997255248 -1.5111245369173578" fill="#ff5808" stroke="none" /><path d="M 79.35854240842038 103.8639653848113 l -13.5638073602887 2.5390688566385027 a34.79941088473611,34.79941088473611 0 0,0 -0.10514982976842223,-0.5897360866384804 l 13.605503632396312 -2.3052140192668085" fill="#ffb310" stroke="none" /><path d="M 79.23777060512086 103.15116336523772 l -2.8039337262597943 0.4255637999512525 a23.83604458517247,23.83604458517247 0 0,0 -0.05807589720052409,-0.40618268975623917 l 2.8108436744769176 -0.37723563821461276" fill="#ff1e03" stroke="none" /><path d="M 79.18660465613746 102.79330883721812 l -7.975879728556903 1.0704209938978815 a29.047388306064413,29.047388306064413 0 0,0 -0.062242315909221496,-0.4961324985573738 l 7.993123553712972 -0.9329707410530991" fill="#ff6709" stroke="none" /><path d="M 79.1416061653843 102.43462659150553 l -6.0692828987471525 0.7084168442604268 a27.110486832508236,27.110486832508236 0 0,0 -0.05011270019161941,-0.46398136586179256 l 6.080577900439824 -0.6038391565138522" fill="#ff4c07" stroke="none" /><path d="M 79.07016306316243 101.71520430193888 l -7.537243783388707 0.6176786279341056 a28.562510875207934,28.562510875207934 0 0,0 -0.03593903954811146,-0.49035964093408957 l 7.546759381601154 -0.4878458505032554" fill="#ff6008" stroke="none" /><path d="M 79.04373962182676 101.35467743843564 l -5.19391061520323 0.33575043450956277 a26.204751274844376,26.204751274844376 0 0,0 -0.02522350701662916,-0.4503826619755397 l 5.198920473107392 -0.2462960561985854" fill="#ff4006" stroke="none" /><path d="M 79.0235259727143 100.99374915477108 l -12.333138914864637 0.5842758109098153 a33.34697103408617,33.34697103408617 0 0,0 -0.02222792715952339,-0.5736040324131958 l 12.341368974875362 -0.3718945314826227" fill="#ffa00e" stroke="none" /><path d="M 79.0095281055655 100.63252640178507 l -27.129738082441584 0.817526909207232 a48.14205295605252,48.14205295605252 0 0,0 -0.01783075571939181,-0.8285251536708721 l 27.139790900845984 -0.3504119397462311" fill="#abff21" stroke="none" /><line stroke="#e1ed5e" stroke-width="0.3" x1="15.007084014347285" x2="10.007500721073583" y1="101.09737516637583" y2="101.16192664675087" /><path d="M 14.007167355692545 101.11028546245083 a86.0,86.0 0 0,1 10.666146001902534,-42.60595125391555" fill="none" id="id58" stroke="none" /><text fill="#e1ed5e" style="font-size:6.75px; font-family:Arial;" text-anchor="middle"><textPath startOffset="22.20632615414155" xlink:href="#id58">October</textPath></text><path d="M 79.00175016825051 100.2711162175752 l -1.1927628727791841 0.01540020530868617 a22.19286228752694,22.19286228752694 0 0,0 -0.0016440712387805721,-0.382024255641528 l 1.1928512413074677 0.00513352853651719" fill="#ff0601" stroke="none" /><path d="M 79.00486145842228 99.54816195383935 l -11.345104631228232 -0.24415889897133652 a32.34773160862836,32.34773160862836 0 0,0 0.016771999305787315,-0.5565810044419778 l 11.339220937466798 0.4394100508383087" fill="#ff930d" stroke="none" /><path d="M 79.01574976396665 99.18683210126434 l -35.0047757808833 -1.356482106688519 a56.03104867365064,56.03104867365064 0 0,0 0.045642336652350714,-0.9634375885867058 l 34.97623983599745 1.958830801898234" fill="#57ff2a" stroke="none" /><path d="M 79.08570108090925 98.10471618934814 l -3.2627507386373 -0.2956751587540422 a24.276120599425862,24.276120599425862 0 0,0 0.04129584786173093,-0.4158435523420817 l 3.2571777650933402 0.35179424180055424" fill="#ff2403" stroke="none" /><path d="M 79.12142395522702 97.74499172005258 l -9.269691257106336 -1.0011808512469995 a30.323601187254702,30.323601187254702 0 0,0 0.060516734353228414,-0.5184704229915932 l 9.251084169749518 1.1605950125634545" fill="#ff780b" stroke="none" /><path d="M 79.21141760316559 97.0276538004421 l -11.231138278625213 -1.6058252814903011 a32.345357723239665,32.345357723239665 0 0,0 0.08354976338491911,-0.5504885504895789 l 11.20183262180099 1.798912944371972" fill="#ff930d" stroke="none" /><path d="M 79.26566170972629 96.67025291283419 l -5.227564189032665 -0.8394995001875238 a26.294543111664296,26.294543111664296 0 0,0 0.07561326241379282,-0.446273754987586 l 5.212339065098649 0.9293590434909378" fill="#ff4106" stroke="none" /><path d="M 79.32604984820605 96.31383870115002 l -29.52353342687103 -5.2640402789204 a50.98915047255703,50.98915047255703 0 0,0 0.16150030629206039,-0.8627410940218635 l 29.42854739666911 5.771459450404836" fill="#8cff24" stroke="none" /><path d="M 79.46518482838121 95.60439243477599 l -21.942996511624607 -4.697037721746272 a43.44008153435894,43.44008153435894 0 0,0 0.16280848789729466,-0.729838527707216 l 21.858893636725274 5.074054419003447" fill="#e1ff1b" stroke="none" /><path d="M 79.54389044137918 95.25157060432595 l -20.47346976336377 -4.752459179845865 a42.01782178075244,42.01782178075244 0 0,0 0.1696063376902157,-0.7031277670123748 l 20.388630625412738 5.104172178517637" fill="#f1ff19" stroke="none" /><path d="M 79.71946130924805 94.55025226153421 l -3.1624494812681534 -0.849807402621533 a24.274638811094068,24.274638811094068 0 0,0 0.1119098179351035,-0.4025991576900906 l 3.147352892766689 0.9041178637305661" fill="#ff2403" stroke="none" /><path d="M 79.91906864156998 93.8553929516997 l -15.3044081728474 -4.6830285234486855 a37.004863812996106,37.004863812996106 0 0,0 0.19162266731275052,-0.6074962209973145 l 15.221530021766446 4.945774910872414" fill="#ffcf13" stroke="none" /><path d="M 80.02781315780177 93.51064311812611 l -14.501927957700262 -4.711962026807457 a36.24822942614663,36.24822942614663 0 0,0 0.19792000390398315,-0.5917556199393154 l 14.418670660024507 4.960890749669096" fill="#ffc512" stroke="none" /><path d="M 80.14247586403 93.16781622104843 l -20.811976013763093 -7.160572685473692 a43.0093649790584,43.0093649790584 0 0,0 0.2468879259310457,-0.6979854128927282 l 20.68563500702224 7.517755724793031" fill="#e6ff1a" stroke="none" /><path d="M 80.2630227832202 92.82701384747504 l -13.217972947754214 -4.80379218546616 a35.0638269403711,35.0638269403711 0 0,0 0.21104318261123436,-0.5654908053290929 l 13.133325176641351 5.030606127824594" fill="#ffb610" stroke="none" /><path d="M 80.38941819471856 92.48833698450439 l -10.830780778382739 -4.148636496853331 a32.598146276556804,32.598146276556804 0 0,0 0.20522310474575922,-0.5222704168238572 l 10.757764123755287 4.334455918572951" fill="#ff960d" stroke="none" /><path d="M 80.65960295795068 91.81776055985345 l -8.815896735414281 -3.729694784028204 a30.57239042410491,30.57239042410491 0 0,0 0.20921602506002576,-0.4828994312241933 l 8.750390000511574 3.8808933598389963" fill="#ff7b0b" stroke="none" /><path d="M 80.803312248108 91.48605970444005 l -8.750832300654155 -3.881089524774079 a30.572874273356106,30.572874273356106 0 0,0 0.21750078953381696,-0.4792341589155854 l 8.682729194156988 4.0311456925317355" fill="#ff7b0b" stroke="none" /><path d="M 81.10775173730289 90.83032412892265 l -7.7374349653872 -3.755496419461733 a29.600677484953515,29.600677484953515 0 0,0 0.22643106894062565,-0.45647121797318435 l 7.671643883493162 3.8881272259338786" fill="#ff6e0a" stroke="none" /><path d="M 81.26839172434947 90.50648371742162 l -25.10111674611235 -12.721697840002616 a49.14085389312643,49.14085389312643 0 0,0 0.38889268397593807,-0.7512168833863321 l 24.878414628976298 13.151887445649285" fill="#a0ff22" stroke="none" /><path d="M 81.43458229118936 90.18545643968196 l -1.3364081331894888 -0.7064875158357978 a22.51165846290981,22.51165846290981 0 0,0 0.18405092529721717,-0.3410184120845756 l 1.3240491086738 0.729386911252846" fill="#ff0b01" stroke="none" /><path d="M 81.6062741919709 89.86733742301443 l -13.464045347075922 -7.417019795065164 a36.37181510910489,36.37181510910489 0 0,0 0.30680900566202135,-0.5457789864039096 l 13.33437870012147 7.647682291403858" fill="#ffc712" stroke="none" /><line stroke="#e1ed5e" stroke-width="0.3" x1="26.266209847984243" x2="21.928928074336255" y1="57.711370442889674" y2="55.22380399835377" /><path d="M 25.398753493254645 57.213857153982495 a86.0,86.0 0 0,1 29.58750427330803,-30.492523968695096" fill="none" id="id59" stroke="none" /><text fill="#e1ed5e" style="font-size:6.75px; font-family:Arial;" text-anchor="middle"><textPath startOffset="21.46611528233685" xlink:href="#id59">November</textPath></text><path d="M 81.96595687620814 89.24020034530311 l -10.132592009792685 -6.04549181011541 a32.79904199768299,32.79904199768299 0 0,0 0.2934486582243578,-0.4823524369913868 l 10.02702755328211 6.219012020313871" fill="#ff990e" stroke="none" /><path d="M 82.34701348167596 88.62581576622439 l -17.385009059246865 -11.201520815782338 a41.68121390480986,41.68121390480986 0 0,0 0.3937949086228817,-0.5997766625484015 l 17.189617515266065 11.499115542308406" fill="#f5ff19" stroke="none" /><path d="M 82.54541684631803 88.32363383020206 l -16.339040113330544 -10.930115806633854 a40.65786517838221,40.65786517838221 0 0,0 0.3941403156408321,-0.5783522788424411 l 16.148475332020972 11.20974610874671" fill="#fffc17" stroke="none" /><path d="M 83.17141714833178 87.43820079747576 l -6.731482415700013 -5.0247564626610215 a29.40006148917567,29.40006148917567 0 0,0 0.30621432412253974,-0.4029421565056521 l 6.6439921513533635 5.1398833950477005" fill="#ff6c09" stroke="none" /><path d="M 83.39014120810768 87.1503855733568 l -3.474244287954636 -2.6877230013524156 a25.392519584974465,25.392519584974465 0 0,0 0.27042539945796246,-0.34341279518233087 l 3.4274648079027026 2.747128190487794" fill="#ff3404" stroke="none" /><path d="M 83.6137871275137 86.86637796730984 l -10.813701316745673 -8.66722939423112 a34.858463173815885,34.858463173815885 0 0,0 0.3792957809103081,-0.4649717789580725 l 10.662907043758974 8.852085342797274" fill="#ffb410" stroke="none" /><path d="M 83.84228863543731 86.58626213691792 l -6.459135654926472 -5.362216872328418 a29.394867669869846,29.394867669869846 0 0,0 0.32654812596814775,-0.3865299825652858 l 6.3658769154712 5.47260580452282" fill="#ff6b09" stroke="none" /><path d="M 84.07557802195018 86.31012108654704 l -19.123377207163163 -16.439951085396377 a46.21855561878343,46.21855561878343 0 0,0 0.523828204330973,-0.5988261904114298 l 18.837557139254347 16.76669283201075" fill="#c0ff1e" stroke="none" /><path d="M 84.5562425177563 85.77008943001954 l -11.860385732375011 -10.928184315974448 a37.12742887644012,37.12742887644012 0 0,0 0.43710065092731987,-0.4662684984477273 l 11.670517759477237 11.130722231300226" fill="#ffd113" stroke="none" /><path d="M 85.05521093208273 85.24692304244772 l -11.496312886821755 -11.348837911100606 a37.15429763017069,37.15429763017069 0 0,0 0.45321909156086504,-0.4512728247491497 l 11.299257995093578 11.545046586499865" fill="#ffd113" stroke="none" /><path d="M 85.57189188830299 84.74124197986013 l -13.23599520473144 -13.99801321290306 a40.26488886467509,40.26488886467509 0 0,0 0.5077059586305833,-0.47185735675288254 l 12.993081362306 14.223775155730591" fill="#fff717" stroke="none" /><path d="M 85.83668400450813 84.49514656593479 l -3.289886216229477 -3.60150148550138 a25.87792622594944,25.87792622594944 0 0,0 0.33147037231345006,-0.29759737307439366 l 3.2274048563200557 3.6575978673450527" fill="#ff3b05" stroke="none" /><path d="M 86.37877921826538 84.01681056812374 l -5.0771586705983 -5.957556235831865 a28.827516622117813,28.827516622117813 0 0,0 0.38044423619075796,-0.31861110681924665 l 4.973856897448432 6.044068500044925" fill="#ff6409" stroke="none" /><path d="M 86.65592168130627 83.78471172551755 l -6.313345077198923 -7.671770800359525 a30.935511726984217,30.935511726984217 0 0,0 0.4140889147677764,-0.3348311044551135 l 6.180352763866646 7.779308002078772" fill="#ff800b" stroke="none" /><path d="M 86.93701828274178 83.55741782278169 l -6.755486611453003 -8.503238093731943 a31.86009472501114,31.86009472501114 0 0,0 0.4323376088650041,-0.33744636134465306 l 6.608116447428573 8.618262844299817" fill="#ff8d0c" stroke="none" /><path d="M 87.80319425747018 82.90503203632743 l -15.588645664520943 -21.848949951116854 a47.839942019691414,47.839942019691414 0 0,0 0.6744722436263716,-0.4725109093418174 l 15.210242281310911 22.114045703222615" fill="#aeff20" stroke="none" /><path d="M 88.39885842347998 82.49532879139004 l -11.972691945194997 -18.0652942299044 a42.67256809950206,42.67256809950206 0 0,0 0.6157712013626028,-0.40051471815654105 l 11.659953718048106 18.268707872220475" fill="#eaff1a" stroke="none" /><path d="M 89.00827224532344 82.1063720568725 l -3.9975866745596838 -6.507742023954465 a28.637499948999025,28.637499948999025 0 0,0 0.4222503006142969,-0.2544010815292565 l 3.8849743077277377 6.575589714942342" fill="#ff6109" stroke="none" /><line stroke="#e1ed5e" stroke-width="0.3" x1="56.762969772571076" x2="54.21961505331055" y1="26.818313649435495" y2="22.513508569990535" /><path d="M 56.25429882871897 25.957352633546506 a86.0,86.0 0 0,1 42.265352541879196,-11.944610805530505" fill="none" id="id60" stroke="none" /><text fill="#e1ed5e" style="font-size:6.75px; font-family:Arial;" text-anchor="middle"><textPath startOffset="22.20632615414155" xlink:href="#id60">December</textPath></text><path d="M 89.63071344664047 81.73862282372117 l -31.107859660078574 -54.78413152883649 a84.0,84.0 0 0,0 1.2635036437118177,-0.7031384097592617 l 30.16023192729471 55.31148533615593" fill="#4dd2ff" stroke="none" /><path d="M 90.26544431104013 81.39251694778311 l -5.265959912317925 -10.06581737810974 a32.36006220438935,32.36006220438935 0 0,0 0.4957862207255955,-0.25396095869693597 l 5.091913204003566 10.154970862119182" fill="#ff930d" stroke="none" /><path d="M 90.58718382345135 81.22770947309562 l -5.087589250090705 -10.146347457863248 a32.35041545994359,32.35041545994359 0 0,0 0.4999352067096105,-0.2453160347376404 l 4.912182776370668 10.232418652735717" fill="#ff930d" stroke="none" /><path d="M 90.91171255644093 81.06846463323043 l -3.27814434099945 -6.828602848932685 a28.574697828222476,28.574697828222476 0 0,0 0.4452506540440072,-0.20905115223311893 l 3.1601154756558345 6.884018983805811" fill="#ff6008" stroke="none" /><path d="M 91.23893434514133 80.91482961587045 l -5.073030509738587 -11.051127277941891 a33.15989525719732,33.15989525719732 0 0,0 0.5207964955044035,-0.23366620667936094 l 4.882051895767408 11.13681381513778" fill="#ff9e0e" stroke="none" /><path d="M 91.56875222667455 80.76684994638697 l -0.45529608502072005 -1.0386099611175603 a22.13402168249457,22.13402168249457 0 0,0 0.35026166240544926,-0.14996376443177398 l 0.43735066482496254 1.0462932535121205" fill="#ff0500" stroke="none" /><path d="M 91.90106846888425 80.62456947434976 l -7.228910825469825 -17.294041681534697 a39.744093187061736,39.744093187061736 0 0,0 0.6334756703948626,-0.25841063158089267 l 6.930151285486582 17.415913199299165" fill="#fff116" stroke="none" /><path d="M 92.57280143429618 80.3572730644239 l -4.033892649841125 -10.668443977537331 a32.40561207530288,32.40561207530288 0 0,0 0.5234550647666943,-0.1927929179725867 l 3.8496552593018607 10.736300163316239" fill="#ff940d" stroke="none" /><path d="M 92.91201910852362 80.23233633223022 l -6.39554393287035 -17.836526843555465 a39.94847413482546,39.94847413482546 0 0,0 0.6492920539251575,-0.22652524843081237 l 6.087569874881907 17.94397294515849" fill="#fff417" stroke="none" /><path d="M 93.59665428221793 80.00007090966166 l -2.307164196285912 -7.206095431853124 a28.566427030084814,28.566427030084814 0 0,0 0.46959754572270923,-0.14590624333976582 l 2.1827812778524742 7.244741810075416" fill="#ff6008" stroke="none" /><path d="M 94.63758080256005 79.69619591428918 l -10.08918523222308 -38.20082555972131 a60.51069136441889,60.51069136441889 0 0,0 1.0093503487848239,-0.25730587802825006 l 9.430125994753258 38.36883443391842" fill="#30ff35" stroke="none" /><path d="M 95.33964822691252 79.52364482259891 l -1.1174997153947805 -4.909998686195445 a26.035562799960736,26.035562799960736 0 0,0 0.4378404015982887,-0.09569495322068153 l 1.0328165896429709 4.928507137511994" fill="#ff3d05" stroke="none" /><path d="M 95.692805502759 79.44645832069477 l -2.5041623766494774 -11.949635850710258 a33.20920251995218,33.20920251995218 0 0,0 0.5604979470418892,-0.11243061528568223 l 2.298098020140452 11.99097042207315" fill="#ff9e0e" stroke="none" /><path d="M 96.04723909329186 79.375362276772 l -2.148427503247699 -11.210022557626658 a32.414041636476085,32.414041636476085 0 0,0 0.5488853024145168,-0.10030528062969493 l 1.955147079730289 11.24534331960709" fill="#ff940d" stroke="none" /><path d="M 97.11714578562143 79.19881850522333 l -4.57434130253066 -33.00607542983384 a54.32154878801283,54.32154878801283 0 0,0 0.9273083411973537,-0.12039123661501308 l 4.005518232825448 33.07992498961299" fill="#68ff28" stroke="none" /><path d="M 97.47563105711357 79.15227682838746 l -0.09087901955076506 -0.7505323843572396 a21.75601445499638,21.75601445499638 0 0,0 0.37216594243612267,-0.0418171799883717 l 0.07794637360492444 0.7519855178162098" fill="#ff0000" stroke="none" /><path d="M 98.19473922651362 79.07773832637324 l -0.7843121277185209 -9.089868793988762 a30.12364292405271,30.12364292405271 0 0,0 0.5169931639035475,-0.04012861965375051 l 0.6277287744526392 9.102022675830975" fill="#ff750a" stroke="none" /><path d="M 98.55514903715128 79.0497635885617 l -0.731835455517749 -10.611562162190184 a31.63676805500521,31.63676805500521 0 0,0 0.5436069793478164,-0.03279185752052504 l 0.5490664273303095 10.622587289091015" fill="#ff8a0c" stroke="none" /><path d="M 98.91598698831166 79.02799685794201 l -0.039025214582882946 -0.7550065488393007 a21.75601445499638,21.75601445499638 0 0,0 0.37416114624249164,-0.0161121660260822 l 0.026023235951067186 0.7555664413895754" fill="#ff0000" stroke="none" /><path d="M 99.27714615592234 79.0124445844662 l -1.5894617784314156 -46.14891022439971 a67.17627425036366,67.17627425036366 0 0,0 1.1559864886155011,-0.02985572050859513 l 0.7948486546210355 46.16943273705066" fill="#38ff82" stroke="none" /><path d="M 99.63851952072746 79.00311137660856 l -0.5635275376229056 -32.73295688744816 a53.73780734687647,53.73780734687647 0 0,0 0.9250080168954333,-0.007961836036872115 l 8.018450195690996e-15 32.73780734687647" fill="#6eff28" stroke="none" /></svg>