<?xml version="1.0" encoding="utf-8" ?>
<svg baseProfile="full" height="200mm" version="1.1" viewBox="0,0,200,200" width="200mm" xmlns="http://www.w3.org/2000/svg" xmlns:ev="http://www.w3.org/2001/xml-events" xmlns:xlink="http://www.w3.org/1999/xlink"><defs /><rect fill="#1a1a1a" height="200" width="200" x="0" y="0" /><text alignment-baseline="middle" fill="#e1ed5e" style="dominant-baseline: central; font-size:9.0px; font-family:Arial;" text-anchor="middle" x="100.0" y="100.0">2022</text><line stroke="#e1ed5e" stroke-width="0.3" x1="100.0" x2="100.0" y1="15.0" y2="10.0" /><path d="M 100.0 14.0 a86.0,86.0 0 0,1 42.46469731375804,11.215312516191453" fill="none" id="id37" stroke="none" /><text fill="#e1ed5e" style="font-size:6.75px; font-family:Arial;" text-anchor="middle"><textPath startOffset="22.20632615414155" xlink:href="#id37">January</textPath></text><path d="M 100.0 79.0 l 0.0 -17.398626501048092 a38.39862650104809,38.39862650104809 0 0,0 0.660969233857413,0.005689170871245225 l -0.29948875458488466 17.396048706785404" fill="#ffdd14" stroke="none" /><path d="M 100.36148047927253 79.00311137660856 l 0.31423188211916936 -18.252415300690597 a39.25511999370654,39.25511999370654 0 0,0 0.6755121332359502,0.017446485446565574 l -0.6283706505499873 18.24430202310167" fill="#ffe815" stroke="none" /><path d="M 100.72285384407766 79.0124445844662 l 0.6283842746159356 -18.244697588320587 a39.25551579347611,39.25551579347611 0 0,0 0.6751185432428228,0.029072024621615806 l -0.94234365024809 18.231177837174776" fill="#ffe815" stroke="none" /><path d="M 101.44485096284872 79.0497635885617 l 0.3956233133461671 -5.736509963724591 a26.750136030562626,26.750136030562626 0 0,0 0.45909578387174715,0.03563466866085228 l -0.49430928658025547 5.7288500328752745" fill="#ff4206" stroke="none" /><path d="M 102.52436894288641 79.15227682838746 l 7.57310682865922 -62.54316951483763 a84.0,84.0 0 0,0 1.4339410859686157,0.1861667073434532 l -8.648562643135682 62.40354448433004" fill="#4dd2ff" stroke="none" /><path d="M 102.88285421437855 79.19881850522331 l 3.5290876044711674 -25.464066620308024 a46.707453163693934,46.707453163693934 0 0,0 0.7954301950720318,0.11722573392951768 l -3.966886779971855 25.399546402217535" fill="#beff1f" stroke="none" /><path d="M 103.59715602781102 79.31037775812273 l 2.4560868476478275 -14.126579074747388 a35.338500582636925,35.338500582636925 0 0,0 0.5984068200044605,0.10935502143568127 l -2.6988887887551885 14.082208571960969" fill="#ffb610" stroke="none" /><path d="M 103.95276090670814 79.375362276772 l 1.0995144130931498 -5.737024570099645 a26.84143671219047,26.84143671219047 0 0,0 0.4530241328077422,0.09087237921146317 l -1.1981049553680172 5.717248234810973" fill="#ff4306" stroke="none" /><path d="M 104.66035177308747 79.52364482259891 l 3.1043819298661384 -13.639834522648544 a34.98864800371052,34.98864800371052 0 0,0 0.5861036949005405,0.13871180833205413 l -3.3387093117292026 13.58437680217562" fill="#ffb110" stroke="none" /><path d="M 105.01212808612495 79.60689891045804 l 4.929703901503325 -20.05773760713913 a41.65465609670954,41.65465609670954 0 0,0 0.6948217035980705,0.1771255230977316 l -5.274234493786421 19.96990908787253" fill="#f9ff18" stroke="none" /><path d="M 105.36241919743992 79.69619591428918 l 2.554792335063601 -9.673246559234173 a31.004931927356402,31.004931927356402 0 0,0 0.5148326289306827,0.14072320540198235 l -2.7209228532179943 9.627836813005896" fill="#ff7d0b" stroke="none" /><path d="M 106.0581310904928 79.89281104454417 l 2.114302216853777 -7.017456959611599 a28.329050146109935,28.329050146109935 0 0,0 0.4656953565547007,0.14469381417038393 l -2.234782946119196 6.980023010558695" fill="#ff5808" stroke="none" /><path d="M 106.40334571778207 80.00007090966166 l 11.263848093859098 -35.181008974095135 a57.94019039362001,57.94019039362001 0 0,0 0.947231554508315,0.31228735077926795 l -11.86776247060983 34.98190789905663" fill="#45ff2d" stroke="none" /><path d="M 107.4271985657038 80.35727306442388 l 8.080922091569834 -21.37163085491433 a43.84836771519461,43.84836771519461 0 0,0 0.7036970527288414,0.2730235238691376 l -8.447602309298341 21.22936462715464" fill="#dfff1b" stroke="none" /><path d="M 107.76421540070413 80.48803036053334 l 2.66974475082533 -6.709239225705293 a28.220902161247025,28.220902161247025 0 0,0 0.44980910324463413,0.1834884272474562 l -2.784837723658352 6.662289912274257" fill="#ff5708" stroke="none" /><path d="M 108.09893153111575 80.62456947434976 l 3.3188049118307785 -7.9397231289477626 a29.60544417256542,29.60544417256542 0 0,0 0.46849380744645475,0.20058459865446912 l -3.454982477067549 7.881419002330502" fill="#ff6a09" stroke="none" /><path d="M 108.43124777332544 80.76684994638697 l 2.3037465598347633 -5.25524862535511 a26.738021115876734,26.738021115876734 0 0,0 0.4199370228966172,0.188413501303307 l -2.393865701198161 5.214814793535272" fill="#ff4206" stroke="none" /><path d="M 109.41281617654863 81.2277094730956 l 3.0885183593824146 -6.159534283103751 a27.890486792743506,27.890486792743506 0 0,0 0.4273081724575975,0.21888384267224348 l -3.194087019428768 6.105457915119007" fill="#ff5207" stroke="none" /><path d="M 109.73455568895987 81.39251694778311 l 5.846094816161229 -11.17473808658198 a33.61156595761419,33.61156595761419 0 0,0 0.5103435380726511,0.27260784372243513 l -6.037583400762191 11.072451516357791" fill="#ff9f0e" stroke="none" /><path d="M 110.05341064243156 81.56283822128135 l 6.548457711843721 -12.009354688525786 a34.6787023667679,34.6787023667679 0 0,0 0.5216269857096468,0.29028485279386396 l -6.754208786625402 11.894854438171741" fill="#ffad10" stroke="none" /><path d="M 110.36928655335952 81.73862282372117 l 11.611415622610036 -20.44889386978315 a44.51557427022881,44.51557427022881 0 0,0 0.6630770041861872,0.3840969994838067 l -11.961689359261552 20.245992712909292" fill="#d7ff1c" stroke="none" /><line stroke="#e1ed5e" stroke-width="0.3" x1="143.23703022742887" x2="145.7803849466894" y1="26.81831364943548" y2="22.513508569990506" /><path d="M 143.74570117128098 25.957352633546492 a86.0,86.0 0 0,1 28.547481713284135,27.462654790039103" fill="none" id="id38" stroke="none" /><text fill="#e1ed5e" style="font-size:6.75px; font-family:Arial;" text-anchor="middle"><textPath startOffset="19.985693538727396" xlink:href="#id38">February</textPath></text><path d="M 110.68208982089419 81.91981866633111 l 20.421784678702874 -34.56529352766487 a61.14733871773986,61.14733871773986 0 0,0 0.9015969341357727,0.5432020647798524 l -21.013743679056283 34.2086448534264" fill="#31ff3b" stroke="none" /><path d="M 110.99172775467656 82.1063720568725 l 9.606167145313103 -15.638049330742897 a39.35284811941845,39.35284811941845 0 0,0 0.5741409030187148,0.3595269807985315 l -9.873927200704081 15.47037800862142" fill="#ffe915" stroke="none" /><path d="M 111.2981086023043 82.29822771554956 l 7.711789549840263 -12.082760692266199 a35.33404353305789,35.33404353305789 0 0,0 0.5098752525185835,0.33163704734094196 l -7.918631828143127 11.948224720765728" fill="#ffb610" stroke="none" /><path d="M 111.60114157652 82.49532879139004 l 7.918289587460191 -11.94770832239325 a35.333424020375084,35.333424020375084 0 0,0 0.5040822841451195,0.3403586084296148 l -8.122776566011852 11.809637801664966" fill="#ffb610" stroke="none" /><path d="M 111.90073688211348 82.69761687909136 l 3.245783178367451 -4.719017371430253 a26.727498004611927,26.727498004611927 0 0,0 0.3768180893336046,0.26398515243586573 l -3.3265324072847067 4.6624473762304515" fill="#ff4206" stroke="none" /><path d="M 112.19680574252982 82.90503203632743 l 14.99350331286498 -21.014802088951022 a46.815248370501365,46.815248370501365 0 0,0 0.6519685072387517,0.47368284742912126 l -15.353017136457522 20.753600006705224" fill="#bcff1f" stroke="none" /><path d="M 112.48926042617603 83.11751280151076 l 6.724473085562858 -9.089876174386081 a32.306829225920545,32.306829225920545 0 0,0 0.44422481899312577,0.3345809239193031 l -6.879944058314367 8.97277866096093" fill="#ff8e0d" stroke="none" /><path d="M 112.77801427241765 83.33499621200491 l 10.12052564552351 -13.199124263244386 a37.63255604705019,37.63255604705019 0 0,0 0.5106692066451153,0.39858541588724766 l -10.346227407328056 13.022960458133914" fill="#ffd313" stroke="none" /><path d="M 113.34407831869373 83.78471172551755 l 10.020912778278737 -12.177086014670598 a36.77022880996203,36.77022880996203 0 0,0 0.4852662751890333,0.4063965499598393 l -10.229036590426887 12.00278830731694" fill="#ffc812" stroke="none" /><path d="M 114.16331599549186 84.49514656593476 l 9.287601363982128 -10.16731519288301 a34.77076023056361,34.77076023056361 0 0,0 0.4384296754053771,0.40747260149714193 l -9.461238923182352 10.005938005311226" fill="#ffaf10" stroke="none" /><path d="M 114.68862486808459 84.99185889309783 l 7.906856359230703 -8.078851289148318 a32.30425652741835,32.30425652741835 0 0,0 0.3940568583112224,0.3923646529307768 l -8.044749017709249 7.941550785567422" fill="#ff8e0d" stroke="none" /><path d="M 115.19652480421416 85.50635884689758 l 10.048675470843513 -9.583894884835791 a34.886213302477884,34.886213302477884 0 0,0 0.41071485433720323,0.4381219703418597 l -10.212157647151178 9.409503497615876" fill="#ffb010" stroke="none" /><path d="M 115.4437574822437 85.77008943001954 l 12.720318859965827 -11.72052850525935 a38.29674247775573,38.29674247775573 0 0,0 0.44252133837702035,0.48864311445573866 l -12.920183838958884 11.499832603534063" fill="#ffdc14" stroke="none" /><path d="M 115.68641384162765 86.03803664274999 l 13.065676454028823 -11.629330816501408 a38.49151898609702,38.49151898609702 0 0,0 0.43625212866375357,0.49871159686837535 l -13.263920446270426 11.402703663430085" fill="#ffde14" stroke="none" /><path d="M 115.9244219780498 86.31012108654704 l 16.526197192886134 -14.207211965514883 a42.79357853798285,42.79357853798285 0 0,0 0.47539465161032796,0.5627173203146623 l -16.76830245798358 13.920635695571114" fill="#ebff1a" stroke="none" /><path d="M 116.60985879189232 87.15038557335679 l 0.9053786830190416 -0.7004133588766831 a22.144678746617675,22.144678746617675 0 0,0 0.23064638275680988,0.30350360364287043 l -0.917301005999965 0.6847249793527791" fill="#ff0000" stroke="none" /><path d="M 116.82858285166822 87.43820079747576 l 10.570340091712426 -7.890295392361011 a34.19048335100638,34.19048335100638 0 0,0 0.3479897423019265,0.4746576174210895 l -10.704592446527979 7.707175331268428" fill="#ffa70f" stroke="none" /><path d="M 117.04232023915458 87.72973835380427 l 3.529568852346702 -2.5412463038369277 a25.349228559206892,25.349228559206892 0 0,0 0.251907814191118,0.3563057384623978 l -3.572789286341703 2.4801140650427365" fill="#ff2e04" stroke="none" /><path d="M 117.2510076193507 88.02491185347247 l 16.155468817471167 -11.214600758780243 a40.666378489470745,40.666378489470745 0 0,0 0.39422284430054927,0.5784733794670726 l -16.34611612744045 10.934849356042765" fill="#fff917" stroke="none" /><path d="M 117.45458315368197 88.32363383020206 l 13.708248669596411 -9.170229366324836 a37.49270105890779,37.49270105890779 0 0,0 0.35422276379079987,0.5395055710803366 l -13.864068068745135 8.932905731266825" fill="#ffd113" stroke="none" /><line stroke="#e1ed5e" stroke-width="0.3" x1="172.23445277983987" x2="176.4835382374775" y1="55.19839476539836" y2="52.563006222186495" /><path d="M 173.08426987136738 54.67131705675599 a86.0,86.0 0 0,1 12.851231095245387,41.99856678651699" fill="none" id="id39" stroke="none" /><text fill="#e1ed5e" style="font-size:6.75px; font-family:Arial;" text-anchor="middle"><textPath startOffset="22.20632615414155" xlink:href="#id39">March</textPath></text><path d="M 117.84615892207809 88.93136811851018 l 7.550170887142679 -4.682803877126544 a29.88446580142488,29.88446580142488 0 0,0 0.2673723333687312,0.43948981523670794 l -7.629659018797634 4.552146288682754" fill="#ff6e0a" stroke="none" /><path d="M 118.21658344932153 89.55222093294921 l 3.734080600373048 -2.141611748426459 a25.304632250388014,25.304632250388014 0 0,0 0.2134534401457763,0.37970985224443277 l -3.7703916818112573 2.0770183862472327" fill="#ff2e04" stroke="none" /><path d="M 118.3937258080291 89.86733742301442 l 11.310496762908654 -6.230681509159736 a33.913122360310545,33.913122360310545 0 0,0 0.2772670685465953,0.5137337684470474 l -11.416071930673713 6.03506675738023" fill="#ffa30f" stroke="none" /><path d="M 118.56541770881063 90.18545643968196 l 14.070486958414481 -7.438314038186689 a36.91562499487837,36.91562499487837 0 0,0 0.2921442211022578,0.5643296475316083 l -14.196440612676854 7.195011668394735" fill="#ffca12" stroke="none" /><path d="M 118.73160827565052 90.50648371742162 l 21.99425229023218 -11.147083003645873 a45.657749153086826,45.657749153086826 0 0,0 0.3492600110727814,0.7040868701879696 l -22.18287231425837 10.766836544958952" fill="#caff1d" stroke="none" /><path d="M 119.04729006885535 91.15688171328212 l 11.708587477928816 -5.435966148644397 a33.908940649701634,33.908940649701634 0 0,0 0.24123415082346686,0.5315274745410715 l -11.800423945715629 5.233616665261263" fill="#ffa30f" stroke="none" /><path d="M 119.196687751892 91.48605970444005 l 16.59522268204133 -7.360162176545097 a39.15415663509556,39.15415663509556 0 0,0 0.26794362174943215,0.6184508213738733 l -16.719457013633445 7.07341221058462" fill="#ffe615" stroke="none" /><path d="M 119.34039704204932 91.81776055985345 l 3.0900379342410216 -1.3072859984272998 a24.355194646623737,24.355194646623737 0 0,0 0.16002327013806947,0.38750904157126514 l -3.1120828912652887 1.2539023864027314" fill="#ff2003" stroke="none" /><path d="M 119.7369772167798 92.82701384747503 l 9.60964491457229 -3.492421820516004 a31.22459219512355,31.22459219512355 0 0,0 0.1792394472424862,0.5067340539980529 l -9.668337442624585 3.3264901400913365" fill="#ff800b" stroke="none" /><path d="M 119.85752413597 93.16781622104841 l 17.218910423682992 -5.924341810306992 a39.20957720717783,39.20957720717783 0 0,0 0.2140893444114158,0.6400998899840351 l -17.318337061866178 5.627068817400643" fill="#ffe715" stroke="none" /><path d="M 119.97218684219823 93.5106431181261 l 3.1898422650438305 -1.0364425797889274 a24.35399864297222,24.35399864297222 0 0,0 0.12611256193998938,0.3998112847150422 l -3.2072103107520262 0.9813811286474661" fill="#ff2003" stroke="none" /><path d="M 120.08093135843002 93.85539295169968 l 16.458646392642454 -5.036216339998493 a38.211929470611665,38.211929470611665 0 0,0 0.18704576236011575,0.6306253252489634 l -16.542898052114275 4.752161628003" fill="#ffdb14" stroke="none" /><path d="M 120.18372546131832 94.20196356495316 l 2.653485223984998 -0.7622479823166687 a23.76079804050433,23.76079804050433 0 0,0 0.10954093296293599,0.39407701805965595 l -2.666212927514297 0.7164596608380608" fill="#ff1802" stroke="none" /><path d="M 120.28053869075195 94.5502522615342 l 13.298690601569614 -3.573598814883017 a34.77046768290784,34.77046768290784 0 0,0 0.15034695277110138,0.579348139408935 l -13.358233886211018 3.3441542499252317" fill="#ffaf10" stroke="none" /><path d="M 120.37134235888165 94.90015583598534 l 15.574290993210004 -3.898930940884168 a37.054912096394865,37.054912096394865 0 0,0 0.1495733873806134,0.6200782547731272 l -15.639097180851438 3.630267454451635" fill="#ffcc13" stroke="none" /><path d="M 120.45610955862082 95.25157060432595 l 19.149727956691148 -4.445182056154579 a40.65888410687741,40.65888410687741 0 0,0 0.15238487606880466,0.68311151974497 l -19.223407219761988 4.114892366859645" fill="#fff917" stroke="none" /><path d="M 120.53481517161879 95.60439243477599 l 8.740397486155908 -1.8709375756306472 a29.93839782219986,29.93839782219986 0 0,0 0.10353083471547987,0.5048531183002508 l -8.771307616786386 1.7202088011669847" fill="#ff6e0a" stroke="none" /><path d="M 120.6074358757038 95.95851677861258 l 8.490223592386856 -1.6650832447774053 a29.651959249832423,29.651959249832423 0 0,0 0.09391802876937883,0.5017138651262953 l -8.517627345066094 1.518691302188547" fill="#ff6a09" stroke="none" /><path d="M 120.67395015179393 96.31383870115 l 14.11066041295923 -2.515928012477652 a35.33320030746185,35.33320030746185 0 0,0 0.10160505681431928,0.5996787968506005 l -14.151877331293774 2.2726634273112136" fill="#ffb610" stroke="none" /><path d="M 120.73433829027371 96.67025291283417 l 10.759032259047359 -1.727803213382086 a31.896883916762405,31.896883916762405 0 0,0 0.08239133191119721,0.5428559344656001 l -10.787179484397857 1.5423481665244037" fill="#ff890c" stroke="none" /><path d="M 120.83666639777658 97.38593545837742 l 13.94185451076309 -1.7490757314680387 a35.05114134558811,35.05114134558811 0 0,0 0.06995147431499557,0.5993015132854312 l -13.969896338081673 1.5088304798577545" fill="#ffb210" stroke="none" /><path d="M 120.87857604477298 97.74499172005257 l 23.958109294434 -2.587615875478234 a45.09744295320713,45.09744295320713 0 0,0 0.07671477555572763,0.7725073206156883 l -23.999101195671958 2.1748330241581106" fill="#d0ff1d" stroke="none" /><path d="M 120.91429891909075 98.10471618934814 l 5.131142602176817 -0.46499151330264105 a26.152168622174294,26.152168622174294 0 0,0 0.03676934656234804,0.4486791614002419 l -5.138386432558661 0.3765984346946304" fill="#ff3a05" stroke="none" /><path d="M 120.96714384426684 98.82574320788733 l 22.619049919768198 -1.2667711537967012 a43.654494662849075,43.654494662849075 0 0,0 0.035560518479592074,0.7506263413685874 l -22.637504046481286 0.877233705805114" fill="#e1ff1b" stroke="none" /><path d="M 120.98425023603335 99.18683210126433 l 13.807789491396477 -0.535070399971829 a34.81815295079791,34.81815295079791 0 0,0 0.01805288989611291,0.5990875272688401 l -13.814954075748235 0.29731272527798985" fill="#ffaf10" stroke="none" /><line stroke="#e1ed5e" stroke-width="0.3" x1="184.98032266829074" x2="189.97916517819016" y1="98.17113171792111" y2="98.06355123074" /><path d="M 185.9800911702706 98.14961562048488 a86.0,86.0 0 0,1 -9.607161424134198,41.387399972396054" fill="none" id="id40" stroke="none" /><text fill="#e1ed5e" style="font-size:6.75px; font-family:Arial;" text-anchor="middle"><textPath startOffset="21.466115282336823" xlink:href="#id40">April</textPath></text><path d="M 120.99513854157772 99.54816195383933 l 9.744097955324865 -0.20970350698153997 a30.74635421702939,30.74635421702939 0 0,0 0.006833000775574885,0.5292234402993292 l -9.746263963218155 0.04194380862174799" fill="#ff790b" stroke="none" /><path d="M 120.99824983174949 100.27111621757518 l 16.14301735139927 0.20842850426250548 a37.144362844317115,37.144362844317115 0 0,0 -0.013757453609925557,0.6392548103773077 l -16.137037835104337 -0.48627313042992804" fill="#ffcd13" stroke="none" /><path d="M 120.9904718944345 100.63252640178507 l 22.254082773527056 0.6706040232234337 a43.26418446399861,43.26418446399861 0 0,0 -0.028838395544194824,0.7441908484656877 l -22.239242245131656 -1.0535721187031275" fill="#e6ff1a" stroke="none" /><path d="M 120.9764740272857 100.99374915477107 l 16.61175698844623 0.786973036796253 a37.63038775266038,37.63038775266038 0 0,0 -0.03622130733326152,0.6467557745333438 l -16.595749330225438 -1.07280052766502" fill="#ffd313" stroke="none" /><path d="M 120.95626037817324 101.35467743843564 l 4.334897753046613 0.28022118822754866 a25.34394549271745,25.34394549271745 0 0,0 -0.03188925033052586,0.435103484632678 l -4.32943194405175 -0.3547978093569969" fill="#ff2e04" stroke="none" /><path d="M 120.8583938346157 102.4346265915055 l 25.643496859242557 2.9931518144551417 a46.8175887517475,46.8175887517475 0 0,0 -0.10032003973954177,0.7996494224917139 l -25.58817531025617 -3.4341189912342505" fill="#bcff1f" stroke="none" /><path d="M 120.81339534386255 102.79330883721812 l 18.18870842772949 2.4410567881584124 a39.35178118090917,39.35178118090917 0 0,0 -0.09587958230039362,0.6705815752964029 l -18.143994794412496 -2.7537838354352244" fill="#ffe915" stroke="none" /><path d="M 120.70491114924044 103.5080841355445 l 4.292593105865464 0.7273046315674123 a25.353771652214103,25.353771652214103 0 0,0 -0.07660890530727668,0.42966342520069856 l -4.279437758218999 -0.8010868075013292" fill="#ff2e04" stroke="none" /><path d="M 120.64145759157962 103.86396538481128 l 8.469336630740523 1.5854124365154014 a29.616449127027963,29.616449127027963 0 0,0 -0.09811515956143663,0.5002870848001769 l -8.440791538203422 -1.7309632483835233" fill="#ff6a09" stroke="none" /><path d="M 120.5718875245553 104.21870165774334 l 12.647873809162427 2.5937146575370216 a33.91108313106299,33.91108313106299 0 0,0 -0.12218641442891444,0.5708142502600112 l -12.601353356009069 -2.8110427272132017" fill="#ffa30f" stroke="none" /><path d="M 120.41448212921028 104.9243191809786 l 24.534160335690352 5.918055406234201 a46.237836737102086,46.237836737102086 0 0,0 -0.19329328176141636,0.7721105766757166 l -24.428655739633875 -6.339493822307314" fill="#c3ff1e" stroke="none" /><path d="M 120.32669344350535 105.2749913415812 l 33.28874705194825 8.638780968442253 a55.39141196446161,55.39141196446161 0 0,0 -0.24744642431101144,0.9208401971905698 l -33.13511255129546 -9.21051209880837" fill="#5fff29" stroke="none" /><path d="M 120.02730092923936 106.31721596034902 l 16.435024019486665 5.184103260416924 a38.23325103211141,38.23325103211141 0 0,0 -0.20337859091085322,0.6259349410602381 l -16.343353177559564 -5.466237101454958" fill="#ffdb14" stroke="none" /><path d="M 119.9155931802556 106.66101706037122 l 23.116837503175653 7.731712914438337 a45.37555252172801,45.37555252172801 0 0,0 -0.25412290607486765,0.7386001173491317 l -22.980323766157554 -8.128485734876769" fill="#cdff1d" stroke="none" /><path d="M 119.79798401119884 107.00284435728193 l 10.921546229553122 3.8631149688350774 a32.58463764244284,32.58463764244284 0 0,0 -0.19159105775131127,0.5271763058465191 l -10.853430910796584 -4.050539071687727" fill="#ff920d" stroke="none" /><path d="M 119.54520255179757 107.68017299344265 l 17.347934082309607 6.8167692034853795 a39.63918343967208,39.63918343967208 0 0,0 -0.25500714550816,0.6329068221674632 l -17.228024322544055 -7.114375393495656" fill="#ffec16" stroke="none" /><path d="M 119.41010516605496 108.01547362559984 l 15.984578228826432 6.600889800100777 a38.293885835940586,38.293885835940586 0 0,0 -0.25684077363457003,0.6070957193341097 l -15.868586473999553 -6.87506004510105" fill="#ffdc14" stroke="none" /><path d="M 119.26925614724726 108.34839909993367 l 30.417773813107978 13.17849083445878 a54.1498655264137,54.1498655264137 0 0,0 -0.3779116930237444,0.85209110199527 l -30.18642103535296 -13.700130272946737" fill="#6cff28" stroke="none" /><path d="M 118.81262510543309 109.33194174019688 l 10.783921096129642 5.3493291253063076 a33.03778535688356,33.03778535688356 0 0,0 -0.2570989919208397,0.5072807020475001 l -10.690243434422532 -5.534164039056503" fill="#ff980e" stroke="none" /><path d="M 118.64920377521936 109.65438752849418 l 29.845803273151958 15.450683813165634 a54.607969342316814,54.607969342316814 0 0,0 -0.4393275929198267,0.8310422408781504 l -29.57542317200724 -15.962141069129919" fill="#67ff28" stroke="none" /><line stroke="#e1ed5e" stroke-width="0.3" x1="174.80103733775053" x2="179.2010983576182" y1="140.37084112569926" y2="142.7455964860345" /><path d="M 175.68104954172406 140.8457921977663 a86.0,86.0 0 0,1 -30.038265399797805,32.042727171017184" fill="none" id="id41" stroke="none" /><text fill="#e1ed5e" style="font-size:6.75px; font-family:Arial;" text-anchor="middle"><textPath startOffset="22.206326154141568" xlink:href="#id41">May</textPath></text><path d="M 118.12598468904814 110.60418214915192 l 14.113686634494604 8.256881291456681 a37.35152100197162,37.35152100197162 0 0,0 -0.32943885768211706,0.5521584747629179 l -13.96946690111426 -8.498601860105703" fill="#ffd013" stroke="none" /><path d="M 117.94076556474637 110.91462005526583 l 28.373856017086258 17.261797263426462 a54.21212655103523,54.21212655103523 0 0,0 -0.4918727174651188,0.7930554362365755 l -28.072518659953175 -17.747649031028313" fill="#6bff28" stroke="none" /><path d="M 117.55443506779139 111.5257021239791 l 1.4395536116966783 0.9451666234680888 a22.72210758870258,22.72210758870258 0 0,0 -0.2174796697072718,0.3251025981832967 l -1.4230708365786855 -0.9698061358571923" fill="#ff0801" stroke="none" /><path d="M 117.35343817320211 111.8261652097733 l 4.620152369442135 3.1485798185931553 a26.591007314510854,26.591007314510854 0 0,0 -0.2610212440694413,0.3760205699663273 l -4.565270218210557 -3.2276416507465022" fill="#ff4006" stroke="none" /><path d="M 117.14729908036423 112.12312394758627 l 24.823553620474307 17.55022851996418 a51.400975896367655,51.400975896367655 0 0,0 -0.5169964190917815,0.7180628083338424 l -24.51777740900692 -17.97492493374915" fill="#89ff24" stroke="none" /><path d="M 116.71984013943494 112.70617746262583 l 3.4380230715930966 2.612712257052727 a25.318132464267393,25.318132464267393 0 0,0 -0.26667610961265964,0.34471481997570047 l -3.3925401447623686 -2.67150507114168" fill="#ff2e04" stroke="none" /><path d="M 116.498646956653 112.99209946851258 l 6.881166939289418 5.418674971927798 a29.75856705733115,29.75856705733115 0 0,0 -0.3203751892655746,0.39971730854611 l -6.78687383796899 -5.536320114052158" fill="#ff6c09" stroke="none" /><path d="M 116.27256486870786 113.27417163493432 l 4.4393935985392154 3.6213880883252316 a26.729107016718647,26.729107016718647 0 0,0 -0.29389798711589965,0.3540190582905534 l -4.376399611529772 -3.6972684037295553" fill="#ff4206" stroke="none" /><path d="M 116.0416608686014 113.55231037782055 l 2.152697045335297 1.8186407720976052 a23.818077150635002,23.818077150635002 0 0,0 -0.26728134705562956,0.31090859052031405 l -2.121073188708889 -1.8554264617794471" fill="#ff1802" stroke="none" /><path d="M 115.80600337817218 113.82643327865902 l 14.389936168969875 12.587716677271288 a40.11860021273213,40.11860021273213 0 0,0 -0.4591500250298315,0.5158599205370117 l -14.171127294291706 -12.833550767549166" fill="#fff216" stroke="none" /><path d="M 115.56566222782051 114.09645910891815 l 9.629113297294836 8.720245876070408 a33.990862597659294,33.990862597659294 0 0,0 -0.3964849470771671,0.4303061033241888 l -9.477581942221947 -8.884703234195932" fill="#ffa40f" stroke="none" /><path d="M 115.07121518719521 114.62390073753431 l 3.2907867213655697 3.193116000528829 a25.585331726096726,25.585331726096726 0 0,0 -0.3094111834717285,0.3134318952950701 l -3.2353349128383058 -3.2492883898045637" fill="#ff3204" stroke="none" /><path d="M 114.81725581225074 114.88116024355365 l 4.044003204028851 4.061444336733528 a26.731430189279152,26.731430189279152 0 0,0 -0.32886029821254287,0.32185901771865166 l -3.973492953440513 -4.130453457374752" fill="#ff4206" stroke="none" /><path d="M 114.29624159901734 115.38237550388516 l 7.334006125294991 7.891195415642369 a31.77305021494468,31.77305021494468 0 0,0 -0.40382101986574714,0.36888092714339227 l -7.19708555596238 -8.016269109372345" fill="#ff870c" stroke="none" /><path d="M 114.0293411484842 115.62618273729858 l 8.043308506708232 8.958810482120944 a33.039729938360125,33.039729938360125 0 0,0 -0.42646054560446034,0.37630184777852493 l -7.887905608197184 -9.095935471671757" fill="#ff980e" stroke="none" /><path d="M 113.75828350139079 115.86535959552629 l 14.00270641808961 16.14721579266179 a42.37307570018864,42.37307570018864 0 0,0 -0.5551569518445763,0.4731167982348079 l -13.722683989667987 -16.385856981119545" fill="#f0ff19" stroke="none" /><path d="M 113.48314897796784 116.09983520530334 l 9.575555590532279 11.433891834815748 a35.91392461284555,35.91392461284555 0 0,0 -0.4773642457447253,0.3928382754555211 l -9.377321216242862 -11.597025229128448" fill="#ffbd11" stroke="none" /><path d="M 113.20401910651253 116.32954008644616 l 2.521037395049782 3.117791701891018 a25.009520500461356,25.009520500461356 0 0,0 -0.3370836851613043,0.26779966607368133 l -2.466996217171127 -3.1607252819698255" fill="#ff2904" stroke="none" /><path d="M 112.63410532772338 116.77436683061366 l 9.966173805865594 13.232140383569778 a37.56545077742286,37.56545077742286 0 0,0 -0.5198611709009863,0.3845808661072297 l -9.736927664546043 -13.401731198416778" fill="#ffd213" stroke="none" /><path d="M 112.34349029814194 116.9893568818739 l 9.436400554107175 12.988091116997275 a37.05416351856981,37.05416351856981 0 0,0 -0.519239414901615,0.3704635358707774 l -9.211433811356676 -13.148598914712272" fill="#ffcc13" stroke="none" /><path d="M 112.04921762599082 117.19931262002967 l 8.555122836483983 12.2117665009261 a35.91031078886254,35.91031078886254 0 0,0 -0.5093161352150145,0.35031228199335823 l -8.343649816646085 -12.357219572284551" fill="#ffbd11" stroke="none" /><path d="M 111.7513745106137 117.40417183066458 l 12.83548728079448 19.009778470041322 a43.93733661991914,43.93733661991914 0 0,0 -0.6304491044552734,0.41782728909403494 l -12.506363477599242 -19.227903780226676" fill="#deff1b" stroke="none" /><line stroke="#e1ed5e" stroke-width="0.3" x1="143.8653032363475" x2="146.44561519142675" y1="172.8068346515853" y2="177.08958963109032" /><path d="M 144.38136562736335 173.6633856474863 a86.0,86.0 0 0,1 -40.68145358897372,12.25698825130547" fill="none" id="id42" stroke="none" /><text fill="#e1ed5e" style="font-size:6.75px; font-family:Arial;" text-anchor="middle"><textPath startOffset="21.466115282336833" xlink:href="#id42">June</textPath></text><path d="M 110.8373102113329 117.98757091392108 l 5.918743766425469 9.823823545124133 a32.469046901043505,32.469046901043505 0 0,0 -0.4812100282233849,0.2843073666869089 l -5.748765867173701 -9.924249484104791" fill="#ff900d" stroke="none" /><path d="M 110.5260780823613 118.17145234162733 l 1.8531438237826154 3.199132137588394 a24.697105417130345,24.697105417130345 0 0,0 -0.3696935972072409,0.20992167290448088 l -1.7978014596541756 -3.2305569762875037" fill="#ff2503" stroke="none" /><path d="M 110.21172684928248 118.3499491758327 l 9.296673567119832 16.705645379943025 a40.11823022599101,40.11823022599101 0 0,0 -0.6063148143776769,0.33061117978388 l -9.007735940873507 -16.86319721148668" fill="#fff216" stroke="none" /><path d="M 109.89434966115114 118.52300852407294 l 7.431254044254201 13.911897873059143 a36.77226803920958,36.77226803920958 0 0,0 -0.5608805708425243,0.2934262058119509 l -7.190682570885182 -14.03775349781581" fill="#ffc812" stroke="none" /><path d="M 109.57404056367764 118.69057910512821 l 4.1813473611842715 8.162886202585046 a30.17149807344667,30.17149807344667 0 0,0 -0.46427627151387674,0.2327977607543522 l -4.040217181987634 -8.233651804248701" fill="#ff710a" stroke="none" /><path d="M 108.92500713936063 119.00905698771935 l 1.2175660330397833 2.5932508228808735 a23.86485896252932,23.86485896252932 0 0,0 -0.37335094979464856,0.17138710934300805 l -1.1727470874777153 -2.613825002557956" fill="#ff1902" stroke="none" /><path d="M 108.2653958097858 119.30500536409082 l 1.4651961302240237 3.42217357817652 a24.722643106610267,24.722643106610267 0 0,0 -0.3926527177482322,0.16412886786383937 l -1.4060719529783305 -3.4468874890603325" fill="#ff2503" stroke="none" /><path d="M 107.93186726928326 119.44442032107085 l 2.0561389646402404 5.040481504503159 a26.44372677851766,26.44372677851766 0 0,0 -0.4229471664672094,0.16829940617202968 l -1.9690707221311647 -5.075127755081257" fill="#ff3e05" stroke="none" /><path d="M 107.59598834532513 119.57807347666477 l 4.090246206812266 10.542293791683317 a32.30796499917234,32.30796499917234 0 0,0 -0.5202040510883291,0.19669666003037645 l -3.908171934963662 -10.611138701820325" fill="#ff8e0d" stroke="none" /><path d="M 107.2578585660854 119.70592522655815 l 6.827123311058974 18.53642920363256 a40.753703964717275,40.753703964717275 0 0,0 -0.6603661090990339,0.23678379202212765 l -6.507037641330206 -18.65120053669465" fill="#fffa17" stroke="none" /><path d="M 106.57524785965236 119.94407469862006 l 3.5400323148692245 10.737643725420488 a32.306140878495206,32.306140878495206 0 0,0 -0.5296340346167102,0.1695720925927149 l -3.354676935161574 -10.79698866467291" fill="#ff8e0d" stroke="none" /><path d="M 106.2309692047433 120.05430185196036 l 0.6786562265330439 2.184247164990881 a23.28724942924526,23.28724942924526 0 0,0 -0.3838238001863755,0.11564296244151165 l -0.6409574519064225 -2.195605496538118" fill="#ff1101" stroke="none" /><path d="M 105.88484417918355 120.15858648285463 l 4.016959257643635 13.760129941885257 a35.33447375019872,35.33447375019872 0 0,0 -0.5853220051961951,0.16541784529192669 l -3.7795060843428345 -13.827236580515704" fill="#ffb610" stroke="none" /><path d="M 105.18746579009965 120.34920634021253 l 4.9584789773218025 19.450945013593813 a41.07301112664446,41.07301112664446 0 0,0 -0.6865974115101943,0.16874893891717768 l -4.622928281068398 -19.53341521082502" fill="#fffe18" stroke="none" /><path d="M 104.48393922423573 120.51570834832081 l 3.8777563978655776 17.742193933952155 a39.16101429632046,39.16101429632046 0 0,0 -0.6597857731963989,0.1382645237502181 l -3.5717791632398006 -17.806314438428917" fill="#ffe615" stroke="none" /><path d="M 104.13013068566511 120.58985236759428 l 0.8458835695306944 4.216965307480563 a25.300966800348107,25.300966800348107 0 0,0 -0.4277458379414143,0.08197850788514663 l -0.7731701170175758 -4.230901013714178" fill="#ff2e04" stroke="none" /><path d="M 103.7750983002368 120.6578951692458 l 2.0324988256992365 11.122133606501372 a32.30632156969436,32.30632156969436 0 0,0 -0.5479014121429212,0.09525968354061685 l -1.8407484420842655 -11.155471868562994" fill="#ff8e0d" stroke="none" /><path d="M 103.41894727170886 120.7198165907248 l 1.563897579005134 9.477674976680438 a30.605836694490108,30.605836694490108 0 0,0 -0.5205384395964913,0.08129739885127236 l -1.4005232758001256 -9.503190682878817" fill="#ff770b" stroke="none" /><path d="M 103.06178313531738 120.77559828337769 l 1.0042059266613836 6.813996290413736 a27.887595733557102,27.887595733557102 0 0,0 -0.4755119377489013,0.06590162169735304 l -0.8867653977256519 -6.830272477603692" fill="#ff5207" stroke="none" /><path d="M 102.70371172650421 120.8252237178851 l 1.8453745244419475 14.213918199215072 a35.33320891180467,35.33320891180467 0 0,0 -0.6038152254306322,0.0731136148428186 l -1.600431875959935 -14.243577342783242" fill="#ffb610" stroke="none" /><path d="M 102.34483914955558 120.86867818915974 l 1.4085090991038658 12.53549656967848 a33.61437957771524,33.61437957771524 0 0,0 -0.5755540562606061,0.05965853122996686 l -1.1925224462376571 -12.557884469364206" fill="#ff9f0e" stroke="none" /><path d="M 101.62511606390274 120.93702456842531 l 0.7994086326861151 10.299103279162619 a31.330081438056105,31.330081438056105 0 0,0 -0.5380378130662777,0.03710623770495527 l -0.6220080588409069 -10.31133786138386" fill="#ff810b" stroke="none" /><path d="M 100.90346689309514 120.98055641714683 l 0.9259022736569557 21.501556988628437 a42.52148340509082,42.52148340509082 0 0,0 -0.7315307890887295,0.025195399487193005 l -0.5556511328935738 -21.514309186541723" fill="#efff19" stroke="none" /><line stroke="#e1ed5e" stroke-width="0.3" x1="102.19456741930631" x2="102.32365962044197" y1="184.97166512339345" y2="189.96999836594603" /><path d="M 102.22038585953345 185.97133177190398 a86.0,86.0 0 0,1 -42.740103519485714,-10.115201625700543" fill="none" id="id43" stroke="none" /><text fill="#e1ed5e" style="font-size:6.75px; font-family:Arial;" text-anchor="middle"><textPath startOffset="22.20632615414155" xlink:href="#id43">July</textPath></text><path d="M 100.54218724476979 120.99299961872073 l 0.4612226410471833 17.858123408565106 a38.86407842571666,38.86407842571666 0 0,0 -0.6689068837250811,0.011515838620406801 l -0.1537560674294342 -17.863416724464674" fill="#ffe315" stroke="none" /><path d="M 100.18074693466247 120.99922214144158 l 0.1381651753832558 16.052063153947227 a37.05265775857689,37.05265775857689 0 0,0 -0.6378242200914115,0.0 l 0.13816517538324474 -16.052063153947227" fill="#ffcc13" stroke="none" /><path d="M 99.81925306533755 120.99922214144158 l -0.058176946663388046 6.759011591409838 a27.759261960446246,27.759261960446246 0 0,0 -0.4777769643492551,-0.008225363726792178 l 0.1745136009053111 -6.7570087504038865" fill="#ff5007" stroke="none" /><path d="M 99.45781275523022 120.99299961872073 l -0.14791682921670588 5.72720581183573 a26.729115621061464,26.729115621061464 0 0,0 -0.45984216626785196,-0.015837893979291105 l 0.24647934715920086 -5.723811119430344" fill="#ff4206" stroke="none" /><path d="M 99.09653310690486 120.98055641714683 l -0.2055021186761795 4.77222666118743 a25.776649288625713,25.776649288625713 0 0,0 -0.44312752140546835,-0.022904631273747946 l 0.2876177084951368 -4.76798222315148" fill="#ff3405" stroke="none" /><path d="M 98.73552117531835 120.96189622390904 l -0.6838583211875154 11.336660512443453 a32.35726788351195,32.35726788351195 0 0,0 -0.5556778932498259,-0.03832280091395143 l 0.8788989752162714 -11.323209367013217" fill="#ff8f0d" stroke="none" /><path d="M 97.65516085044442 120.86867818915974 l -2.7218921839704904 24.224387444074818 a45.376825964464885,45.376825964464885 0 0,0 -0.7754523079817209,-0.09389647525750931 l 3.138471915003601 -24.173945440091963" fill="#cdff1d" stroke="none" /><path d="M 97.2962882734958 120.8252237178851 l -1.4767108324843528 11.374301909350866 a32.46976106149729,32.46976106149729 0 0,0 -0.5536425279579671,-0.07672980957276672 l 1.672281951629151 -11.347197534285494" fill="#ff900d" stroke="none" /><path d="M 96.22490169976321 120.6578951692458 l -2.4757143493867595 13.547474378460894 a34.77182716907288,34.77182716907288 0 0,0 -0.5878630831207947,-0.11266535900602728 l 2.708545047079249 -13.502851821106399" fill="#ffaf10" stroke="none" /><path d="M 95.86986931433489 120.58985236759428 l -3.3267477480088585 16.584764553206522 a37.91513126949293,37.91513126949293 0 0,0 -0.6387951040082026,-0.1338657249333812 l 3.6117343134464477 -16.5250428475466" fill="#ffd714" stroke="none" /><path d="M 95.51606077576429 120.51570834832081 l -3.30770408740518 15.133990218460207 a36.491241598473835,36.491241598473835 0 0,0 -0.6124965422428101,-0.13940221889692223 l 3.567720779040853 -15.074811265985598" fill="#ffc512" stroke="none" /><path d="M 95.16358092515715 120.4354850818985 l -3.7491785410116902 15.841530884440129 a37.27914127019767,37.27914127019767 0 0,0 -0.62317714716651,-0.15316178094886523 l 4.02130897292141 -15.774647845177235" fill="#ffcf13" stroke="none" /><path d="M 94.81253420990036 120.34920634021253 l -3.719133949151842 14.589286406981133 a36.055870456292396,36.055870456292396 0 0,0 -0.6000891103440505,-0.15848898816691454 l 3.9697135023073815 -14.523106069510636" fill="#ffbf11" stroke="none" /><path d="M 94.46302465271185 120.25689768951611 l -1.5107765419371355 5.5271414305159 a26.729898616257785,26.729898616257785 0 0,0 -0.44278564801522347,-0.1251356469953948 l 1.605693358056973 -5.500316990181984" fill="#ff4206" stroke="none" /><path d="M 93.76903079525671 120.05430185196036 l -5.019005218860426 16.153609871634426 a37.91536358674898,37.91536358674898 0 0,0 -0.6215928750492322,-0.19901440933474085 l 5.296319439000598 -16.06482261563998" fill="#ffd714" stroke="none" /><path d="M 93.08242187328487 119.8279376855182 l -1.887930701443156 5.411398558438444 a26.731275311108455,26.731275311108455 0 0,0 -0.43314905275198695,-0.15531183961172426 l 1.9807993148248695 -5.378099177786762" fill="#ff4206" stroke="none" /><path d="M 92.7421414339146 119.70592522655815 l -3.0713598993813025 8.339097265393717 a29.88672013924285,29.88672013924285 0 0,0 -0.4812185753753043,-0.1819556889702631 l 3.21444869551689 -8.284993326316819" fill="#ff6e0a" stroke="none" /><path d="M 92.40401165467489 119.57807347666478 l -5.083505369838625 13.102342595216395 a35.05394636134634,35.05394636134634 0 0,0 -0.5606610373493063,-0.2230985974864009 l 5.3082874832297895 -13.012897153323928" fill="#ffb210" stroke="none" /><path d="M 91.7346041902142 119.30500536409082 l -1.127065870621882 2.6324223520280507 a23.86355110242118,23.86355110242118 0 0,0 -0.37622516186952715,-0.164926054725265 l 1.1722117071491522 -2.6126317440083335" fill="#ff1902" stroke="none" /><path d="M 91.07499286063937 119.00905698771935 l -2.6265022681820667 5.594094269578782 a27.180000393341388,27.180000393341388 0 0,0 -0.42179132437801886,-0.2024854679180225 l 2.722406260560328 -5.548054525161197" fill="#ff4806" stroke="none" /><path d="M 90.7491055286396 118.85261126421891 l -5.325423300781091 10.85280300384568 a33.088981196642834,33.088981196642834 0 0,0 -0.5091702367835118,-0.25530852692397826 l 5.511447445247363 -10.759526636012401" fill="#ff990e" stroke="none" /><path d="M 90.42595943632237 118.69057910512821 l -1.014869608277119 1.981242983955741 a23.22604673879018,23.22604673879018 0 0,0 -0.3542625747037768,-0.18533343560172555 l 1.0488230855073912 -1.9634801294092987" fill="#ff1001" stroke="none" /><path d="M 90.10565033884886 118.52300852407294 l -11.277726521931461 21.112799896097073 a44.93611152539428,44.93611152539428 0 0,0 -0.6791284153088958,-0.3703149606207242 l 11.639477749108996 -20.915544283716585" fill="#d2ff1c" stroke="none" /><line stroke="#e1ed5e" stroke-width="0.3" x1="58.666819895761336" x2="56.23545636021788" y1="174.27360380694188" y2="178.64263932499728" /><path d="M 58.180547188652646 175.14741091055294 a86.0,86.0 0 0,1 -31.652253787137756,-30.449443065178592" fill="none" id="id44" stroke="none" /><text fill="#e1ed5e" style="font-size:6.75px; font-family:Arial;" text-anchor="middle"><textPath startOffset="22.20632615414155" xlink:href="#id44">August</textPath></text><path d="M 89.4739219176387 118.17145234162733 l -2.872189846109003 4.958338756021048 a26.730148142199468,26.730148142199468 0 0,0 -0.396156234001118,-0.23405608586605797 l 2.957113951138503 -4.90816409786124" fill="#ff4206" stroke="none" /><path d="M 88.8546689885994 117.79835938074946 l -3.041216598483865 4.8566225551442 a26.730251394313267,26.730251394313267 0 0,0 -0.38786638265275475,-0.24755467667172953 l 3.1243647831835433 -4.803553449648666" fill="#ff4206" stroke="none" /><path d="M 88.54995079064634 117.60387380957326 l -3.645517603879799 5.604799655957146 a27.686073420447524,27.686073420447524 0 0,0 -0.3972625911487565,-0.263283983346401 l 3.7414548937685175 -5.541217651519427" fill="#ff4f07" stroke="none" /><path d="M 88.24862548938628 117.40417183066458 l -9.946644868563693 14.731307922722298 a38.77490301676454,38.77490301676454 0 0,0 -0.5499446625218305,-0.37825695354567346 l 10.198746415708415 -14.557910179811524" fill="#ffe215" stroke="none" /><path d="M 87.95078237400918 117.19931262002967 l -7.53357259975392 10.753583702344535 a34.129900173234105,34.129900173234105 0 0,0 -0.4782617582965875,-0.34122706590735596 l 7.717561685899394 -10.622312374592958" fill="#ffa60f" stroke="none" /><path d="M 87.36589467227662 116.77436683061367 l -2.4110903441197866 3.20121709016208 a25.007636149384503,25.007636149384503 0 0,0 -0.3416177323593418,-0.26193790984573095 l 2.465836804972615 -3.159239838488982" fill="#ff2904" stroke="none" /><path d="M 87.07902340077011 116.55440617244103 l -5.296724334768226 6.78618410518845 a29.608576153350697,29.608576153350697 0 0,0 -0.399070744357782,-0.31704593483261884 l 5.412752571843367 -6.6940042563507" fill="#ff6a09" stroke="none" /><path d="M 86.79598089348748 116.32954008644616 l -7.108599636257696 8.791274973353625 a32.30569345266874,32.30569345266874 0 0,0 -0.4294040028913388,-0.35337026070388705 l 7.258873767693723 -8.667609593792557" fill="#ff8e0d" stroke="none" /><path d="M 86.24171649860922 115.8653595955263 l -11.08016168842943 12.77708440487773 a37.91224021030653,37.91224021030653 0 0,0 -0.4893525060688544,-0.43179669056549597 l 11.298456547404871 -12.584464572539945" fill="#ffd714" stroke="none" /><path d="M 85.97065885151581 115.62618273729859 l -9.260822454469151 10.314903774853915 a34.86218137299089,34.86218137299089 0 0,0 -0.44308247214378554,-0.4047453329193292 l 9.43700447607979 -10.15396567534801" fill="#ffb010" stroke="none" /><path d="M 85.70375840098266 115.38237550388516 l -12.367840963796695 13.307467739670157 a39.167338488290724,39.167338488290724 0 0,0 -0.4898979182456821,-0.46322905958759103 l 12.595074716433194 -13.092604043336635" fill="#ffe615" stroke="none" /><path d="M 85.44109423537348 115.13401014063109 l -9.977895959053336 10.372041763837114 a35.39227772524121,35.39227772524121 0 0,0 -0.43540936361167537,-0.426139703817289 l 10.154955275040807 -10.198751957097256" fill="#ffb710" stroke="none" /><path d="M 85.18274418774928 114.88116024355367 l -2.021342889479933 2.030060614911497 a23.864781523443966,23.864781523443966 0 0,0 -0.2886040475657185,-0.2923543764752646 l 2.0559875621011847 -1.9949657444555677" fill="#ff1902" stroke="none" /><path d="M 84.9287848128048 114.62390073753433 l -6.376762634154941 6.187499987919323 a29.885283213992466,29.885283213992466 0 0,0 -0.35505630343216826,-0.3722751146522332 l 6.482325488966067 -6.07681775668459" fill="#ff6e0a" stroke="none" /><path d="M 84.67929136418377 114.36230785411682 l -3.482618385130585 3.26476004306493 a25.77360335126861,25.77360335126861 0 0,0 -0.30063508189459826,-0.32628000524679196 l 3.5382998750209125 -3.204328783016794" fill="#ff3405" stroke="none" /><path d="M 84.43433777217949 114.09645910891817 l -11.708782069526563 10.60362002223827 a36.79659251635235,36.79659251635235 0 0,0 -0.4211302559238795,-0.4731443069016737 l 11.88957117509878 -10.40050154559573" fill="#ffc912" stroke="none" /><path d="M 84.19399662182784 113.82643327865904 l -11.870058374221943 10.383432560290064 a36.770667631445676,36.770667631445676 0 0,0 -0.4126325359730231,-0.4799848608047195 l 12.047033419765745 -10.177570600323813" fill="#ffc812" stroke="none" /><path d="M 83.95833913139862 113.55231037782056 l -2.1868293854095087 1.8474764438148947 a23.862759502882046,23.862759502882046 0 0,0 -0.26238126775209486,-0.31605513952039344 l 2.21830665305514 -1.80956004718074" fill="#ff1902" stroke="none" /><path d="M 83.50135304334701 112.99209946851258 l -10.144144910885194 7.988154425722834 a33.91178868717395,33.91178868717395 0 0,0 -0.3571931654068718,-0.46172031641163247 l 10.280144893510133 -7.812356115197949" fill="#ffa30f" stroke="none" /><path d="M 83.06392112726016 112.41649034213515 l -9.249896351372673 6.781454525311255 a32.46946851384152,32.46946851384152 0 0,0 -0.32658132766415626,-0.4535929005154037 l 9.365257471412438 -6.621228019344714" fill="#ff900d" stroke="none" /><path d="M 82.85270091963577 112.12312394758628 l -13.536269394137683 9.570129434609715 a37.577634526851284,37.577634526851284 0 0,0 -0.3688675948741905,-0.5313812818614997 l 13.698997896174006 -9.335706890561202" fill="#ffd313" stroke="none" /><path d="M 82.6465618267979 111.8261652097733 l -7.120864614874136 4.852785974250032 a29.61720630919583,29.61720630919583 0 0,0 -0.28347459497895644,-0.42375605715541953 l 7.203342315263822 -4.729493002888791" fill="#ff6a09" stroke="none" /><path d="M 82.44556493220864 111.52570212397912 l -14.909835029003888 9.789339081453528 a38.83632081579003,38.83632081579003 0 0,0 -0.3620934638124045,-0.5619770968780776 l 15.076133356193338 -9.531240384654003" fill="#ffe215" stroke="none" /><path d="M 82.05923443525364 110.91462005526583 l -3.8199513783380867 2.323943076658706 a25.47132418377565,25.47132418377565 0 0,0 -0.22465601714882735,-0.37653640693139867 l 3.859388271185146 -2.257844575841196" fill="#ff3004" stroke="none" /><line stroke="#e1ed5e" stroke-width="0.3" x1="26.63291911575756" x2="22.317208475507996" y1="142.92168965132927" y2="145.44649492493687" /><path d="M 25.769776987707644 143.4266507060508 a86.0,86.0 0 0,1 -11.730757126820373,-40.83630448921669" fill="none" id="id45" stroke="none" /><text fill="#e1ed5e" style="font-size:6.75px; font-family:Arial;" text-anchor="middle"><textPath startOffset="21.46611528233685" xlink:href="#id45">September</textPath></text><path d="M 81.87401531095188 110.60418214915194 l -11.149068278819655 6.522500865476792 a33.91683943640735,33.91683943640735 0 0,0 -0.2904702794980092,-0.5064594161175081 l 11.25969055447004 -6.329621603500978" fill="#ffa30f" stroke="none" /><path d="M 81.69416730710424 110.29060199501025 l -11.253877697968763 6.3263539131581075 a33.91017107072442,33.91017107072442 0 0,0 -0.28165399020328874,-0.5112838041506965 l 11.361108097623568 -6.131699590609589" fill="#ffa30f" stroke="none" /><path d="M 81.51974371655577 109.97397251340807 l -12.7797388499252 6.897348286878362 a35.522229114801604,35.522229114801604 0 0,0 -0.28578054815269793,-0.5405890978933828 l 12.896571906302784 -6.676344173898853" fill="#ffb811" stroke="none" /><path d="M 81.35079622478065 109.6543875284942 l -14.77289440732464 7.647685619444583 a37.63506851515265,37.63506851515265 0 0,0 -0.29287490283005896,-0.5778699683329457 l 14.902347979940966 -7.392261439408952" fill="#ffd313" stroke="none" /><path d="M 81.18737489456691 109.33194174019688 l -8.476822597277307 4.204900388778313 a30.462436717107238,30.462436717107238 0 0,0 -0.22897125863693282,-0.47174861183866135 l 8.54794711252896 -4.058362820974367" fill="#ff750a" stroke="none" /><path d="M 80.87730276802145 108.67885076344099 l -21.96404546157434 9.968398830456945 a45.120287483385425,45.120287483385425 0 0,0 -0.31489430429417986,-0.7100035265148813 l 22.132380850599798 -9.588846967449367" fill="#d0ff1d" stroke="none" /><path d="M 80.73074385275274 108.34839909993369 l -9.55844724944035 4.141194232107973 a31.416976696161807,31.416976696161807 0 0,0 -0.21071668293135998,-0.4980719937478526 l 9.628314913564017 -3.976047712693962" fill="#ff820c" stroke="none" /><path d="M 80.58989483394504 108.01547362559985 l -11.149468819489597 4.604213758633156 a33.062729346709126,33.062729346709126 0 0,0 -0.21269944286933085,-0.5279025738473239 l 11.227070876616315 -4.411611816943027" fill="#ff980e" stroke="none" /><path d="M 80.45479744820244 107.68017299344265 l -8.895727988117269 3.49552426843828 a30.557858878944273,30.557858878944273 0 0,0 -0.18815742649627495,-0.49121966693189173 l 8.954579694207052 -3.3418810346732304" fill="#ff770a" stroke="none" /><path d="M 80.32549172779594 107.34259656027581 l -18.846448787420194 7.0335618113226355 a41.11615330152731,41.11615330152731 0 0,0 -0.24175463873945557,-0.6652049363251483 l 18.964727687164874 -6.70810907799137" fill="#fffe18" stroke="none" /><path d="M 80.20201598880116 107.00284435728193 l -37.58160344836306 13.293177704210096 a60.86333517438955,60.86333517438955 0 0,0 -0.3408612512325586,-0.9907023496967475 l 37.80485553053885 -12.644302651424052" fill="#30ff38" stroke="none" /><path d="M 79.86692584326677 105.97154293290107 l -17.453713290809482 5.176834766674624 a39.205266431426665,39.205266431426665 0 0,0 -0.18633210774754458,-0.6486465115452286 l 17.540238035443128 -4.875630779624799" fill="#ffe715" stroke="none" /><path d="M 79.76711848015287 105.62410040840567 l -4.307931133934216 1.197468448870055 a25.471263953375935,25.471263953375935 0 0,0 -0.11378610807012401,-0.4234404376001241 l 4.327905318346115 -1.1231370780943921" fill="#ff3004" stroke="none" /><path d="M 79.67330655649465 105.27499134158121 l -12.429464704142331 3.225577188787145 a33.841181450020244,33.841181450020244 0 0,0 -0.14147013534284394,-0.5651028674487382 l 12.483146153780234 -3.011146481941015" fill="#ffa20f" stroke="none" /><path d="M 79.58551787078972 104.9243191809786 l -13.387283374525353 3.229239707631091 a34.77125067810416,34.77125067810416 0 0,0 -0.13534201677690638,-0.5830498660452437 l 13.440885957232815 -2.998321184237273" fill="#ffaf10" stroke="none" /><path d="M 79.50377843672027 104.57218783832718 l -4.199073858252952 0.9367070104929903 a25.30228326479906,25.30228326479906 0 0,0 -0.09116769455702459,-0.42590511768210176 l 4.214575591534417 -0.8642880733947248" fill="#ff2e04" stroke="none" /><path d="M 79.4281124754447 104.21870165774334 l -12.922800285212208 2.6500941598497962 a34.1917309807148,34.1917309807148 0 0,0 -0.11327242933363384,-0.5775736768187576 l 12.966502647521509 -2.427256755963084" fill="#ffa70f" stroke="none" /><path d="M 79.35854240842038 103.8639653848113 l -13.810115075079041 2.5851762829062137 a35.049996967993486,35.049996967993486 0 0,0 -0.10590700017237312,-0.5939827003698378 l 13.852568517590603 -2.3470748318031625" fill="#ffb210" stroke="none" /><path d="M 79.29508885075956 103.50808413554451 l -10.169035207420578 1.7229647028093815 a31.313965503960457,31.313965503960457 0 0,0 -0.08546959841324157,-0.5322192709063667 l 10.19718656019511 -1.5476662022098011" fill="#ff810b" stroke="none" /><path d="M 79.23777060512086 103.15116336523772 l -10.092092059130488 1.5317156058001278 a31.20766745280313,31.20766745280313 0 0,0 -0.0760366628943366,-0.5318002431864514 l 10.116962773041424 -1.357769890633276" fill="#ff7f0b" stroke="none" /><path d="M 79.18660465613746 102.79330883721812 l -17.289161515600053 2.32033105851987 a38.444169287576806,38.444169287576806 0 0,0 -0.08237759981903,-0.6566305226010992 l 17.32654062466593 -2.022382781631362" fill="#ffdd14" stroke="none" /><path d="M 79.1416061653843 102.43462659150553 l -16.73940827330469 1.9538517122359327 a37.85305093607056,37.85305093607056 0 0,0 -0.069969919928653,-0.6478345587764976 l 16.770560494734394 -1.6654208315746528" fill="#ffd614" stroke="none" /><path d="M 79.10278846688536 102.07522291339032 l -8.496195338974749 0.8437249733602368 a29.53798612488261,29.53798612488261 0 0,0 -0.045889939166021056,-0.5063916547500932 l 8.509459874417844 -0.6973519300615775" fill="#ff6909" stroke="none" /><path d="M 79.07016306316243 101.71520430193888 l -15.607582648828247 1.2790445039263514 a36.659903926366496,36.659903926366496 0 0,0 -0.04612765813187845,-0.6293752466144287 l 15.62728686562446 -1.0101961208151622" fill="#ffc712" stroke="none" /><path d="M 79.0235259727143 100.99374915477108 l -8.600504930392555 0.4074442870648658 a29.61015074808615,29.61015074808615 0 0,0 -0.01973709316322025,-0.5093266747406782 l 8.606244156406976 -0.25934036531019083" fill="#ff6a09" stroke="none" /><path d="M 79.0095281055655 100.63252640178507 l -57.332047719613854 1.7276426196341392 a78.3580721847,78.3580721847 0 0,0 -0.02902210350363131,-1.348543109647753 l 57.35329188580249 -0.7405096941962573" fill="#46fff7" stroke="none" /><line stroke="#e1ed5e" stroke-width="0.3" x1="15.007084014347285" x2="10.007500721073583" y1="101.09737516637583" y2="101.16192664675087" /><path d="M 14.007167355692545 101.11028546245083 a86.0,86.0 0 0,1 10.666146001902534,-42.60595125391555" fill="none" id="id46" stroke="none" /><text fill="#e1ed5e" style="font-size:6.75px; font-family:Arial;" text-anchor="middle"><textPath startOffset="22.20632615414155" xlink:href="#id46">October</textPath></text><path d="M 79.00486145842228 99.54816195383935 l -13.887428882319654 -0.2988724613536527 a34.89064453902848,34.89064453902848 0 0,0 0.018090476113353387,-0.6003348308349564 l 13.880226711750655 0.5378774396136035" fill="#ffb010" stroke="none" /><path d="M 79.01574976396665 99.18683210126434 l -29.800457506468142 -1.1548077791354319 a50.82282428948615,50.82282428948615 0 0,0 0.04139976871314299,-0.8738836848087528 l 29.776164129521497 1.6676025705671937" fill="#90ff24" stroke="none" /><path d="M 79.03285615573316 98.82574320788736 l -41.036884296467356 -2.298254853888636 a62.1011903493691,62.1011903493691 0 0,0 0.0689601455652251,-1.0667829294111069 l 40.99124355989772 3.0042968475527543" fill="#32ff47" stroke="none" /><path d="M 79.05617556472873 98.46500227214037 l -18.301822958814203 -1.3413623067885119 a39.35091214228469,39.35091214228469 0 0,0 0.05532647586545598,-0.6751231423830772 l 18.276021999129252 1.6561993663793675" fill="#ffe915" stroke="none" /><path d="M 79.08570108090925 98.10471618934814 l -11.257061228647583 -1.020131058885142 a32.303189588909085,32.303189588909085 0 0,0 0.05495060865465421,-0.553345130067833 l 11.2378334943107 1.2137517196574052" fill="#ff8e0d" stroke="none" /><path d="M 79.12142395522702 97.74499172005258 l -4.444931631760294 -0.4800786036329836 a25.4707821101782,25.4707821101782 0 0,0 0.05083197556952719,-0.43549732411536063 l 4.436009303187179 0.556519666073206" fill="#ff3004" stroke="none" /><path d="M 79.21141760316559 97.0276538004421 l -16.183665250904838 -2.3139363226022214 a37.34825135170128,37.34825135170128 0 0,0 0.09647250124654329,-0.6356332468429183 l 16.141436856218995 2.5921686818372316" fill="#ffd013" stroke="none" /><path d="M 79.26566170972629 96.67025291283419 l -19.11516527274714 -3.0697225537927992 a40.36008109388239,40.36008109388239 0 0,0 0.11606048410249517,-0.6849955469802547 l 19.05949292712442 3.398303889088882" fill="#fff517" stroke="none" /><path d="M 79.32604984820605 96.31383870115002 l -8.79229142073511 -1.567663853562702 a29.93095506566343,29.93095506566343 0 0,0 0.0948017051847173,-0.5064344998720418 l 8.76400399164053 1.7187764308973166" fill="#ff6e0a" stroke="none" /><path d="M 79.3925641242962 95.95851677861259 l -11.095456234154687 -2.1760155156830265 a32.30682062157773,32.30682062157773 0 0,0 0.11172114572794987,-0.5447919835268034 l 11.056355792511741 2.3666831553732326" fill="#ff8e0d" stroke="none" /><path d="M 79.46518482838121 95.60439243477599 l -15.347398047532284 -3.2852079943468513 a36.69506987545829,36.69506987545829 0 0,0 0.13752895088338138,-0.6165153200929211 l 15.288574709646864 3.5489014839897317" fill="#ffc712" stroke="none" /><path d="M 79.54389044137918 95.25157060432595 l -19.177445558189767 -4.451616078878027 a40.68733866857219,40.68733866857219 0 0,0 0.1642357982749873,-0.6808634139339029 l 19.097976959653963 4.781064724471327" fill="#fff917" stroke="none" /><path d="M 79.71946130924805 94.55025226153421 l -25.01280675567917 -6.721393801615541 a46.9001474210736,46.9001474210736 0 0,0 0.21621689203561437,-0.7778472007021507 l 24.893403093077193 7.1509523057366335" fill="#bbff1f" stroke="none" /><path d="M 79.81627453868168 94.20196356495316 l -19.89926604976811 -5.716321786498888 a41.70403642013449,41.70403642013449 0 0,0 0.2041394766965917,-0.6882568322509844 l 19.79792067595981 6.058008005496411" fill="#f8ff18" stroke="none" /><path d="M 79.91906864156998 93.8553929516997 l -10.930315704813722 -3.3445906328319253 a32.430576884310106,32.430576884310106 0 0,0 0.16793559020963683,-0.532401713502918 l 10.871124630835881 3.532242512761258" fill="#ff900d" stroke="none" /><path d="M 80.02781315780177 93.51064311812611 l -8.532811487979233 -2.7724785166868635 a29.97192894615648,29.97192894615648 0 0,0 0.16365059446887867,-0.4892944476211172 l 8.483823599738582 2.918946067230303" fill="#ff6f0a" stroke="none" /><path d="M 80.2630227832202 92.82701384747504 l -37.197410884010026 -13.51861079081276 a60.577774244989406,60.577774244989406 0 0,0 0.3646072715881401,-0.976966216525608 l 36.95919902392026 14.15690014436771" fill="#30ff34" stroke="none" /><path d="M 80.38941819471856 92.48833698450439 l -8.085885413828594 -3.0972281706723206 a29.658773889343237,29.658773889343237 0 0,0 0.18671815289388852,-0.47517733279243246 l 8.031373711053014 3.235954508360517" fill="#ff6a09" stroke="none" /><path d="M 80.52162464483688 92.15188598940014 l -12.07530492433577 -4.865311815331905 a34.0186116032431,34.0186116032431 0 0,0 0.22351574492804932,-0.5412611054531224 l 11.989767492521521 5.072447491238339" fill="#ffa50f" stroke="none" /><path d="M 80.65960295795068 91.81776055985345 l -8.859323283945608 -3.7480670241311302 a30.619543412597086,30.619543412597086 0 0,0 0.2095387070840737,-0.4836442258250577 l 8.793493867018853 3.9000103945427873" fill="#ff770b" stroke="none" /><path d="M 80.803312248108 91.48605970444005 l -4.089140176992305 -1.8135782473024078 a25.47326876525222,25.47326876525222 0 0,0 0.18122130156659552,-0.39929711620817837 l 4.057316558462358 1.883697372352657" fill="#ff3004" stroke="none" /><path d="M 80.95270993114464 91.15688171328213 l -8.500858030437788 -3.9467080529568705 a30.37235785215936,30.37235785215936 0 0,0 0.22423739136587845,-0.4723011338810702 l 8.431662445230158 4.092451602478473" fill="#ff740a" stroke="none" /><path d="M 81.10775173730289 90.83032412892265 l -6.975561012136835 -3.3857078633947264 a28.753803529255585,28.753803529255585 0 0,0 0.21995288697522528,-0.4434115984349591 l 6.916248112208198 3.5052790503286473" fill="#ff5e08" stroke="none" /><path d="M 81.26839172434947 90.50648371742162 l -17.060679878321352 -8.646659690574603 a40.12672271235108,40.12672271235108 0 0,0 0.31755632347583584,-0.6134177408076398 l 16.9093141216854 8.93905015364258" fill="#fff216" stroke="none" /><path d="M 81.43458229118936 90.18545643968196 l -20.078307697139266 -10.614327595630849 a43.7112833254392,43.7112833254392 0 0,0 0.3573749199878369,-0.6621614508935428 l 19.892624677932957 10.958370029856864" fill="#e0ff1b" stroke="none" /><path d="M 81.6062741919709 89.86733742301443 l -4.63128293564067 -2.5512627389994975 a26.28750633033793,26.28750633033793 0 0,0 0.2217443274236296,-0.39445841558967715 l 4.58668096692461 2.630604664523959" fill="#ff3c05" stroke="none" /><line stroke="#e1ed5e" stroke-width="0.3" x1="26.266209847984243" x2="21.928928074336255" y1="57.711370442889674" y2="55.22380399835377" /><path d="M 25.398753493254645 57.213857153982495 a86.0,86.0 0 0,1 29.58750427330803,-30.492523968695096" fill="none" id="id47" stroke="none" /><text fill="#e1ed5e" style="font-size:6.75px; font-family:Arial;" text-anchor="middle"><textPath startOffset="21.46611528233685" xlink:href="#id47">November</textPath></text><path d="M 81.78341655067845 89.55222093294921 l -7.499517010427299 -4.301207032180989 a29.645411344948926,29.645411344948926 0 0,0 0.2576896684460999,-0.44047517470769365 l 7.424367667510874 4.429661619242574" fill="#ff6a09" stroke="none" /><path d="M 81.96595687620814 89.24020034530311 l -3.8432775424569483 -2.2930463285671503 a25.475359620556677,25.475359620556677 0 0,0 0.22792464788951594,-0.37464819237938557 l 3.8032370962812156 2.3588622941536106" fill="#ff3004" stroke="none" /><path d="M 82.15384107792192 88.93136811851018 l -11.045809132892366 -6.850885709301257 a33.997866532712074,33.997866532712074 0 0,0 0.31273569526823475,-0.494672766274682 l 10.926245841378169 7.040006123290154" fill="#ffa50f" stroke="none" /><path d="M 82.34701348167596 88.62581576622439 l -10.872230029333542 -7.005202618676652 a33.933609300557066,33.933609300557066 0 0,0 0.3205972504609663,-0.4882916073651324 l 10.750036143514654 7.191312290019452" fill="#ffa40f" stroke="none" /><path d="M 82.54541684631803 88.32363383020206 l -15.973277749961003 -10.685436501019353 a40.21780828540851,40.21780828540851 0 0,0 0.38987437196829516,-0.5720925328927943 l 15.786978912323967 10.958807057182563" fill="#fff316" stroke="none" /><path d="M 82.7489923806493 88.02491185347247 l -16.30887846014117 -11.321092740816102 a40.85312714596407,40.85312714596407 0 0,0 0.4059777179481099,-0.5742266910507011 l 16.111588122389183 11.600145932198588" fill="#fffb17" stroke="none" /><path d="M 83.17141714833178 87.43820079747576 l -16.314546770957897 -12.17809380762252 a41.35854624301614,41.35854624301614 0 0,0 0.4307671019381629,-0.5668390121985056 l 16.102503728795625 12.457117595702053" fill="#fdff18" stroke="none" /><path d="M 83.39014120810768 87.1503855733568 l -3.626761824680423 -2.8057126582653558 a25.58534893478236,25.58534893478236 0 0,0 0.2724789945639745,-0.34602065242111807 l 3.577928749522478 2.8677257046395215" fill="#ff3204" stroke="none" /><path d="M 83.6137871275137 86.86637796730984 l -6.719122871259664 -5.385406675053073 a29.610993973682184,29.610993973682184 0 0,0 0.3221979416239634,-0.3949765793175266 l 6.625426437559308 5.5002674239786815" fill="#ff6a09" stroke="none" /><path d="M 84.07557802195018 86.31012108654704 l -6.537916126214004 -5.620504168851609 a29.621740797860223,29.621740797860223 0 0,0 0.3357245392799464,-0.3837911842517327 l 6.440199723356214 5.732210909306285" fill="#ff6a09" stroke="none" /><path d="M 84.31358615837235 86.03803664274999 l -13.67037350735923 -12.167551864733055 a39.301049975661996,39.301049975661996 0 0,0 0.45412617652671494,-0.5014574665885007 l 13.45890369021647 12.401062118591112" fill="#ffe815" stroke="none" /><path d="M 84.5562425177563 85.77008943001954 l -6.33364603103371 -5.835834751170123 a29.612319042475953,29.612319042475953 0 0,0 0.3486253780731711,-0.3718892461269239 l 6.232253330990083 5.943993414175097" fill="#ff6a09" stroke="none" /><path d="M 84.80347519578584 85.50635884689758 l -6.234326749290541 -5.945970930824086 a29.615184288633913,29.615184288633913 0 0,0 0.35500953440319516,-0.36586853142157516 l 6.131052951184227 6.052403657795785" fill="#ff6a09" stroke="none" /><path d="M 85.05521093208273 85.24692304244772 l -3.184111030505555 -3.143265178314499 a25.474223847304874,25.474223847304874 0 0,0 0.3107421032477905,-0.30940767790292933 l 3.129533127090451 3.197608706867538" fill="#ff3004" stroke="none" /><path d="M 85.31137513191541 84.99185889309783 l -12.43421222835167 -12.704689060563172 a38.77691643298364,38.77691643298364 0 0,0 0.4810493567539454,-0.46276910006238464 l 12.213679627985298 12.916841247387872" fill="#ffe215" stroke="none" /><path d="M 85.57189188830299 84.74124197986013 l -6.5675514625801785 -6.945656199448848 a30.559020465224524,30.559020465224524 0 0,0 0.38532322372110006,-0.3581159424067975 l 6.447020355064223 7.057676727930294" fill="#ff770a" stroke="none" /><path d="M 85.83668400450813 84.49514656593479 l -9.866459185507715 -10.801001942848405 a35.62903482218511,35.62903482218511 0 0,0 0.4563723280823009,-0.4097355821976946 l 9.679075869829441 10.969236533815378" fill="#ffba11" stroke="none" /><path d="M 86.10567301691215 84.25364557470407 l -12.043987753450578 -13.649376475060432 a39.20338208034981,39.20338208034981 0 0,0 0.5098422266744518,-0.4421301549033535 l 11.807251728129353 13.854671623383465" fill="#ffe715" stroke="none" /><path d="M 86.37877921826538 84.01681056812374 l -7.828735571078597 -9.186266462431021 a33.06965584267655,33.06965584267655 0 0,0 0.4364288510549489,-0.3654966117366752 l 7.669449183064537 9.319664231561509" fill="#ff980e" stroke="none" /><path d="M 86.65592168130627 83.78471172551755 l -10.568781346501634 -12.842838010281776 a37.63242698190794,37.63242698190794 0 0,0 0.5037308251611388,-0.4073152951495405 l 10.346147122775994 13.02285940269545" fill="#ffd313" stroke="none" /><path d="M 86.93701828274178 83.55741782278169 l -7.496200740955325 -9.435586711205545 a33.050863957964914,33.050863957964914 0 0,0 0.4484962024702235,-0.3500583999568915 l 7.3326719833256755 9.563223500385657" fill="#ff980e" stroke="none" /><path d="M 87.22198572758235 83.33499621200491 l -18.030102176644967 -23.514742953474286 a50.63153253998561,50.63153253998561 0 0,0 0.696192845810861,-0.5243580178733993 l 17.62266317707572 23.821617560853543" fill="#92ff23" stroke="none" /><path d="M 87.51073957382395 83.11751280151077 l -5.125128186275677 -6.927945133890336 a29.61761931765103,29.61761931765103 0 0,0 0.41246721370941697,-0.2996749721677681 l 5.005115656212478 7.015139340874772" fill="#ff6a09" stroke="none" /><path d="M 88.09926311788651 82.69761687909137 l -20.75998926385829 -30.18277703199124 a57.633006750721535,57.633006750721535 0 0,0 0.8222180128453519,-0.5551652725753126 l 20.2373665566064 30.53565421686522" fill="#48ff2c" stroke="none" /><path d="M 88.39885842347998 82.49532879139004 l -2.852366945176336 -4.303864857806199 a26.163259620065,26.163259620065 0 0,0 0.377539541802198,-0.24556221993372412 l 2.7778603775898505 4.352326001899458" fill="#ff3a05" stroke="none" /><path d="M 89.00827224532344 82.1063720568725 l -1.1277042819780392 -1.83580973819166 a23.15451023261226,23.15451023261226 0 0,0 0.3414054621984933,-0.20569297096280534 l 1.0959367535618967 1.8549493186130845" fill="#ff0f01" stroke="none" /><line stroke="#e1ed5e" stroke-width="0.3" x1="56.762969772571076" x2="54.21961505331055" y1="26.818313649435495" y2="22.513508569990535" /><path d="M 56.25429882871897 25.957352633546506 a86.0,86.0 0 0,1 42.265352541879196,-11.944610805530505" fill="none" id="id48" stroke="none" /><text fill="#e1ed5e" style="font-size:6.75px; font-family:Arial;" text-anchor="middle"><textPath startOffset="22.20632615414155" xlink:href="#id48">December</textPath></text><path d="M 89.3179101791058 81.91981866633112 l -7.674958032357537 -12.990401249191768 a36.088257202654404,36.088257202654404 0 0,0 0.5375487986962972,-0.3113829605790316 l 7.45021250119592 13.120588367160847" fill="#ffc011" stroke="none" /><path d="M 89.63071344664047 81.73862282372117 l -4.104675310706202 -7.228754230027549 a29.31283628639842,29.31283628639842 0 0,0 0.4409151839927665,-0.2453688225232353 l 3.97963603764139 7.298338450110969" fill="#ff6609" stroke="none" /><path d="M 89.94658935756843 81.56283822128135 l -6.205872911411322 -11.381081198746728 a33.96309638338985,33.96309638338985 0 0,0 0.5156810246228788,-0.27545894418870415 l 6.009046840260138 11.486218869437183" fill="#ffa40f" stroke="none" /><path d="M 90.26544431104013 81.39251694778311 l -5.527027134853784 -10.564844151805703 a32.92325294965066,32.92325294965066 0 0,0 0.5044148262386857,-0.2583808655775971 l 5.344351821026334 10.658417542695805" fill="#ff960d" stroke="none" /><path d="M 90.58718382345135 81.22770947309562 l -2.9380677544368243 -5.8594856671514055 a27.55483137946463,27.55483137946463 0 0,0 0.4258254531104292,-0.20895070050164838 l 2.836771034315969 5.9091915277878835" fill="#ff4d07" stroke="none" /><path d="M 90.91171255644093 81.06846463323043 l -7.830386223106188 -16.31123956397963 a39.09340997480977,39.09340997480977 0 0,0 0.6091531208740467,-0.2860055581019619 l 7.548454890932533 16.4436101047216" fill="#ffe615" stroke="none" /><path d="M 91.23893434514133 80.91482961587045 l -12.70750245922493 -27.682117580816747 a51.459485427521116,51.459485427521116 0 0,0 0.8082027842140433,-0.36261703073114626 l 12.229117556544113 27.896754942064423" fill="#89ff24" stroke="none" /><path d="M 91.56875222667455 80.76684994638697 l -8.755497834580124 -19.972821126112493 a42.80762082545968,42.80762082545968 0 0,0 0.6774127471740049,-0.2900327856112604 l 8.41040132961581 20.120573439686538" fill="#ebff1a" stroke="none" /><path d="M 91.90106846888425 80.62456947434976 l -6.7837280572103165 -16.229011342101707 a38.58976337237793,38.58976337237793 0 0,0 0.6150769652143995,-0.2509053377738068 l 6.503367222407537 16.34337756605909" fill="#ffdf14" stroke="none" /><path d="M 92.23578459929587 80.48803036053334 l -5.300532076841544 -13.320575952461578 a35.336435540360924,35.336435540360924 0 0,0 0.5670939840954947,-0.22002365549540068 l 5.070454927746373 13.40984231184753" fill="#ffb610" stroke="none" /><path d="M 92.57280143429618 80.3572730644239 l -10.754126003705125 -28.441458600149954 a51.406706388683574,51.406706388683574 0 0,0 0.8303839705172208,-0.30583742424009414 l 10.262959707415334 28.622359292196368" fill="#89ff24" stroke="none" /><path d="M 92.91201910852362 80.23233633223022 l -2.9086235305526658 -8.111857603519866 a29.617559087251315,29.617559087251315 0 0,0 0.4813812339141834,-0.1679444603443596 l 2.7685602925751973 8.160722917036436" fill="#ff6a09" stroke="none" /><path d="M 93.25333710446033 80.11325718540243 l -8.661633337940732 -25.5313889567315 a47.96063267323001,47.96063267323001 0 0,0 0.7840813834686581,-0.2584993044978004 l 8.220869132229664 25.676701985488535" fill="#afff20" stroke="none" /><path d="M 93.59665428221793 80.00007090966166 l -5.005776320217356 -15.634822147494285 a37.41662145972266,37.41662145972266 0 0,0 0.6150840491258052,-0.19110960813911734 l 4.735906898380822 15.718671890515928" fill="#ffd113" stroke="none" /><path d="M 93.94186890950719 79.89281104454417 l -3.7267156510490884 -12.369124183610722 a33.91834519640027,33.91834519640027 0 0,0 0.5604760753230807,-0.16361833565275102 l 3.5132493580025863 12.431440848182172" fill="#ffa30f" stroke="none" /><path d="M 94.28887869178378 79.79150937346287 l -2.343477430558227 -8.292266812964746 a29.617051431025132,29.617051431025132 0 0,0 0.49178706423657303,-0.13442398201983366 l 2.2003924770979313 8.331377335810874" fill="#ff6a09" stroke="none" /><path d="M 94.63758080256005 79.69619591428918 l -3.32176372265957 -12.577241233975094 a34.008501500433496,34.008501500433496 0 0,0 0.5672797992735579,-0.14461225184644913 l 3.104775034701013 12.632556481990408" fill="#ffa50f" stroke="none" /><path d="M 94.98787191387505 79.60689891045804 l -7.0377451385452545 -28.634832467688845 a50.48700539369376,50.48700539369376 0 0,0 0.8457206006522023,-0.20015474203766195 l 6.543800850930518 28.751733121867378" fill="#93ff23" stroke="none" /><path d="M 95.33964822691252 79.52364482259891 l -1.9120073919811569 -8.400855636287089 a29.615691944860096,29.615691944860096 0 0,0 0.4980474804550145,-0.10885388869972021 l 1.7671171873726215 8.432523023082679" fill="#ff6a09" stroke="none" /><path d="M 95.692805502759 79.44645832069477 l -2.654239773313048 -12.665791582572886 a33.94091438760844,33.94091438760844 0 0,0 0.572847626303266,-0.11490784476576392 l 2.435825737542645 12.70960338341586" fill="#ffa40f" stroke="none" /><path d="M 96.04723909329186 79.375362276772 l -2.4315857107734025 -12.687479855553596 a33.91838821811435,33.91838821811435 0 0,0 0.5743592540327431,-0.10496048246252485 l 2.212831335637766 12.727455819366858" fill="#ffa30f" stroke="none" /><path d="M 96.40284397218896 79.31037775812273 l -1.9656008098988562 -11.305469632320243 a32.475069941015185,32.475069941015185 0 0,0 0.5515670941217665,-0.09101329653932051 l 1.770704509638204 11.337629191799191" fill="#ff900d" stroke="none" /><path d="M 96.75951476605007 79.25152402106235 l -5.366541000530649 -34.36138078116452 a55.77792764812991,55.77792764812991 0 0,0 0.9499008159227504,-0.139990688053659 l 4.77427120417925 34.44866595337915" fill="#5bff2a" stroke="none" /><path d="M 97.11714578562143 79.19881850522333 l -8.103073256612813 -58.46757586130932 a80.02641123514113,80.02641123514113 0 0,0 1.3661090361033994,-0.17736016047808753 l 7.095449492001556 58.598394344951544" fill="#48f7ff" stroke="none" /><path d="M 97.83486435360386 79.11191278185805 l -1.420413289047019 -13.703398545401562 a34.77681768790656,34.77681768790656 0 0,0 0.5959668021733997,-0.05659422895138307 l 1.184321359783383 13.725818318868125" fill="#ffaf10" stroke="none" /><path d="M 98.19473922651362 79.07773832637324 l -3.136912681762246 -36.35558304875732 a57.490665107505116,57.490665107505116 0 0,0 0.9866761773728276,-0.07658506109492288 l 2.5106463150270844 36.4041933720407" fill="#4aff2c" stroke="none" /><path d="M 98.55514903715128 79.0497635885617 l -0.8916249062001903 -12.928497855855584 a33.95920722043671,33.95920722043671 0 0,0 0.5835128931644317,-0.03519909122026663 l 0.6689499641961357 12.941930216456157" fill="#ffa40f" stroke="none" /><path d="M 99.27714615592234 79.0124445844662 l -0.25638507740112804 -7.4439612706742215 a28.448375172291723,28.448375172291723 0 0,0 0.4895469075833106,-0.012643552318815903 l 0.1282115346229384 7.447271615135397" fill="#ff5a08" stroke="none" /><path d="M 99.63851952072746 79.00311137660856 l -0.30114165791497294 -17.492058945558803 a38.49465096688229,38.49465096688229 0 0,0 0.6626221371875043,-0.0057033979320474095 l 4.284953661758509e-15 17.49465096688229" fill="#ffde14" stroke="none" /></svg>