<?xml version="1.0" encoding="utf-8" ?>
<svg baseProfile="full" height="200mm" version="1.1" viewBox="0,0,200,200" width="200mm" xmlns="http://www.w3.org/2000/svg" xmlns:ev="http://www.w3.org/2001/xml-events" xmlns:xlink="http://www.w3.org/1999/xlink"><defs /><rect fill="#1a1a1a" height="200" width="200" x="0" y="0" /><text alignment-baseline="middle" fill="#e1ed5e" style="dominant-baseline: central; font-size:9.0px; font-family:Arial;" text-anchor="middle" x="100.0" y="100.0">2018</text><line stroke="#e1ed5e" stroke-width="0.3" x1="100.0" x2="100.0" y1="15.0" y2="10.0" /><path d="M 100.0 14.0 a86.0,86.0 0 0,1 42.46469731375804,11.215312516191453" fill="none" id="id37" stroke="none" /><text fill="#e1ed5e" style="font-size:6.75px; font-family:Arial;" text-anchor="middle"><textPath startOffset="22.20632615414155" xlink:href="#id37">January</textPath></text><path d="M 101.44485096284872 79.0497635885617 l 0.4279188121271047 -6.204792403840044 a27.219530792955638,27.219530792955638 0 0,0 0.46715171136833644,0.03625996368028335 l -0.5346607128577823 6.196507177971296" fill="#ff4c07" stroke="none" /><path d="M 102.16513564639614 79.11191278185805 l 2.785412535343324 -26.872191621620132 a48.016165633581664,48.016165633581664 0 0,0 0.8213812126368849,0.0922917497046299 l -3.247560451489934 26.8202639184449" fill="#adff20" stroke="none" /><path d="M 103.2404852339499 79.25152402106235 l 0.4971910316030291 -3.1834603250403686 a24.222051918112527,24.222051918112527 0 0,0 0.4113951660275513,0.06788372736435022 l -0.5519154037694555 3.174430334736394" fill="#ff2203" stroke="none" /><path d="M 103.95276090670814 79.375362276772 l 2.4674701777497186 -12.87471711800016 a34.10903314308918,34.10903314308918 0 0,0 0.5756850993576152,0.11547701516690596 l -2.688721686574459 12.830336146756045" fill="#ffa90f" stroke="none" /><path d="M 104.307194497241 79.44645832069477 l 4.665279731630877 -22.26229195619438 a43.74586727555586,43.74586727555586 0 0,0 0.7356748245988874,0.16079002227440414 l -5.047797280383292 22.178688435824107" fill="#deff1b" stroke="none" /><path d="M 105.36241919743992 79.69619591428918 l 0.8206806633169265 -3.1073548693979647 a24.21390277318925,24.21390277318925 0 0,0 0.4020685241496635,0.10990051587659377 l -0.8740470766903008 3.0927678126950773" fill="#ff2203" stroke="none" /><path d="M 105.71112130821622 79.79150937346287 l 4.2614622291023485 -15.078951201450558 a36.66955103587187,36.66955103587187 0 0,0 0.6059377581494083,0.17688984751117656 l -4.520390204975183 15.003363025020677" fill="#ffca12" stroke="none" /><path d="M 106.0581310904928 79.89281104454417 l 3.046856756444904 -10.112644247363345 a31.561671731692144,31.561671731692144 0 0,0 0.5188357496896554,0.16120479299159346 l -3.2204778788452777 10.058699319489232" fill="#ff870c" stroke="none" /><path d="M 107.4271985657038 80.35727306442388 l 3.577806661841876 -9.462232450787523 a31.116053749474474,31.116053749474474 0 0,0 0.4993635215403872,0.19374528827989024 l -3.7401533483819303 9.399244458617087" fill="#ff810b" stroke="none" /><path d="M 107.76421540070413 80.48803036053334 l 2.245733447323237 -5.643671714534336 a27.074071874604485,27.074071874604485 0 0,0 0.43152993201683265,0.17603189434097982 l -2.3425472489284576 5.604178934009776" fill="#ff4a06" stroke="none" /><path d="M 108.09893153111575 80.62456947434976 l 3.593238611071904 -8.59626295190032 a30.317032813847547,30.317032813847547 0 0,0 0.47975440093550104,0.2054057971200852 l -3.7406767697977203 8.533137626817444" fill="#ff770a" stroke="none" /><path d="M 108.76106565485865 80.91482961587045 l 3.3899875621337388 -7.384774041445786 a29.12569402049037,29.12569402049037 0 0,0 0.45383627116787917,0.21308221459333337 l -3.516602044601216 7.32532684421245" fill="#ff6709" stroke="none" /><path d="M 109.41281617654863 81.2277094730956 l 10.643579759780257 -21.226843034996584 a44.745834483866574,44.745834483866574 0 0,0 0.6855477604415943,0.351164189717661 l -11.007388007810608 21.040486319966423" fill="#d2ff1c" stroke="none" /><path d="M 110.05341064243156 81.56283822128135 l 6.007174312662823 -11.016683648439908 a33.54804613605319,33.54804613605319 0 0,0 0.5046199825275788,0.2808204739361358 l -6.195918384262439 10.911647776943592" fill="#ffa20e" stroke="none" /><path d="M 110.36928655335952 81.73862282372117 l 3.1762119354115135 -5.5936349956069344 a27.432501435890174,27.432501435890174 0 0,0 0.40861790884743104,0.2366978672654665 l -3.2720265767242718 5.538132970951419" fill="#ff4f07" stroke="none" /><line stroke="#e1ed5e" stroke-width="0.3" x1="143.23703022742887" x2="145.7803849466894" y1="26.81831364943548" y2="22.513508569990506" /><path d="M 143.74570117128098 25.957352633546492 a86.0,86.0 0 0,1 28.547481713284135,27.462654790039103" fill="none" id="id38" stroke="none" /><text fill="#e1ed5e" style="font-size:6.75px; font-family:Arial;" text-anchor="middle"><textPath startOffset="19.985693538727396" xlink:href="#id38">February</textPath></text><path d="M 110.68208982089419 81.91981866633111 l 4.805697962278132 -8.133978654895667 a30.447557444278523,30.447557444278523 0 0,0 0.4489389893221996,0.2704807178539885 l -4.944999017817969 8.050051327583065" fill="#ff790b" stroke="none" /><path d="M 111.2981086023043 82.29822771554956 l 4.33745935283755 -6.795891282309887 a29.06211460837003,29.06211460837003 0 0,0 0.41937042984630907,0.2727701931194681 l -4.453796808468139 6.720222165030891" fill="#ff6609" stroke="none" /><path d="M 112.19680574252982 82.90503203632743 l 4.051640258871929 -5.678754084294817 a27.975961348603278,27.975961348603278 0 0,0 0.38960480599544794,0.2830644606709692 l -4.148790381221166 5.608170388807173" fill="#ff5708" stroke="none" /><path d="M 112.77801427241765 83.33499621200491 l 8.850215227962147 -11.54239361094841 a35.54486713075495,35.54486713075495 0 0,0 0.48233952206899,0.3764736477175672 l -9.047587305190568 11.388341574007617" fill="#ffbc11" stroke="none" /><path d="M 113.6212207817346 84.01681056812373 l 8.511718684091324 -9.987681302479226 a34.122619127178936,34.122619127178936 0 0,0 0.44376661381176696,0.3848300345487331 l -8.682379096549855 9.83968627451082" fill="#ffa90f" stroke="none" /><path d="M 114.16331599549186 84.49514656593476 l 6.679180183274915 -7.311826540787011 a30.90324468460765,30.90324468460765 0 0,0 0.38966359798299577,0.36214984725215166 l -6.804051665052757 7.195772107460218" fill="#ff7f0b" stroke="none" /><path d="M 114.68862486808459 84.99185889309783 l 9.809771924369464 -10.02316027468014 a35.024812551334634,35.024812551334634 0 0,0 0.4272430038810589,0.42540828664501024 l -9.980850728417844 9.852816137385012" fill="#ffb510" stroke="none" /><path d="M 114.94478906791727 85.2469230424477 l 18.261934055438417 -18.027669530110998 a46.66115944637097,46.66115944637097 0 0,0 0.5593467299856583,0.5764559732158874 l -18.569545049127182 17.710649361345" fill="#bcff1f" stroke="none" /><path d="M 115.19652480421416 85.50635884689758 l 4.440600725377671 -4.235209973794955 a27.136443458906548,27.136443458906548 0 0,0 0.3194769327877419,0.3407957170130057 l -4.512844980135875 4.158144839903895" fill="#ff4b07" stroke="none" /><path d="M 115.68641384162765 86.03803664274999 l 14.543988823641639 -12.94512825392015 a40.47059209198977,40.47059209198977 0 0,0 0.4586823906531219,0.5243532637850674 l -14.764663077872608 12.692859433932135" fill="#fff917" stroke="none" /><path d="M 116.15771136456269 86.58626213691792 l 7.861397817068776 -6.526340715978014 a31.217372400928046,31.217372400928046 0 0,0 0.3396769841440169,0.41640381870186255 l -7.9725732932892015 6.39005272766805" fill="#ff830c" stroke="none" /><path d="M 116.82858285166822 87.43820079747576 l 14.858942492174384 -11.091549038548232 a39.54213127071065,39.54213127071065 0 0,0 0.402458658735473,0.5489531582230475 l -15.047663763423483 10.83413343665369" fill="#ffee16" stroke="none" /><path d="M 117.04232023915458 87.72973835380427 l 10.227927847748868 -7.363982663696025 a33.603124562185855,33.603124562185855 0 0,0 0.33393085863268385,0.47232151794319427 l -10.353171326185434 7.186834645421038" fill="#ffa20f" stroke="none" /><path d="M 117.45458315368197 88.32363383020206 l 6.025444694615733 -4.030763609233399 a28.249347490732745,28.249347490732745 0 0,0 0.26689359957640657,0.4064972626722409 l -6.093934929550064 3.9264482825834848" fill="#ff5b08" stroke="none" /><path d="M 117.65298651832404 88.62581576622439 l 7.074170873627795 -4.558034570203194 a29.41543657170864,29.41543657170864 0 0,0 0.27058336143007533,0.4279978970475781 l -7.151581831303826 4.43558902544141" fill="#ff6b09" stroke="none" /><line stroke="#e1ed5e" stroke-width="0.3" x1="172.23445277983987" x2="176.4835382374775" y1="55.19839476539836" y2="52.563006222186495" /><path d="M 173.08426987136738 54.67131705675599 a86.0,86.0 0 0,1 12.851231095245387,41.99856678651699" fill="none" id="id39" stroke="none" /><text fill="#e1ed5e" style="font-size:6.75px; font-family:Arial;" text-anchor="middle"><textPath startOffset="22.20632615414155" xlink:href="#id39">March</textPath></text><path d="M 117.84615892207809 88.93136811851018 l 2.052019714602908 -1.2727136933875616 a23.414660442889478,23.414660442889478 0 0,0 0.20948784693863903,0.3443429392465534 l -2.073623359827771 1.2372029809339267" fill="#ff1702" stroke="none" /><path d="M 118.03404312379186 89.2402003453031 l 13.857874540781266 -8.268137803331346 a37.13700063589608,37.13700063589608 0 0,0 0.3228095326320104,0.5517861315155266 l -13.998143747883601 8.028372259461925" fill="#ffd013" stroke="none" /><path d="M 118.3937258080291 89.86733742301442 l 8.359314985383696 -4.604946219468958 a30.543776857673375,30.543776857673375 0 0,0 0.24971995741623845,0.46269315520361226 l -8.4373430420184 4.460372080932887" fill="#ff7a0b" stroke="none" /><path d="M 118.73160827565052 90.50648371742162 l 3.7205843651446644 -1.885659134625524 a25.171145932493324,25.171145932493324 0 0,0 0.19254726459731436,0.38816353603483916 l -3.752491642695387 1.8213360100917348" fill="#ff3004" stroke="none" /><path d="M 118.89224826269711 90.83032412892265 l 4.350631303213373 -2.111653326290456 a25.836018249234968,25.836018249234968 0 0,0 0.19074585396660654,0.40175941471128984 l -4.386335351021736 2.0364514959386257" fill="#ff3905" stroke="none" /><path d="M 119.196687751892 91.48605970444005 l 8.587595289097745 -3.808692130578827 a30.394302986111683,30.394302986111683 0 0,0 0.20799731937907615,0.48008649048510565 l -8.651883318319502 3.6603064955071187" fill="#ff780b" stroke="none" /><path d="M 119.7369772167798 92.82701384747503 l 8.69509769208807 -3.16004901131337 a30.251520611707996,30.251520611707996 0 0,0 0.17365369574094974,0.4909423823178228 l -8.748204468638829 3.009909002568933" fill="#ff760a" stroke="none" /><path d="M 119.85752413597 93.16781622104841 l 3.9022007181626104 -1.3425919699903965 a25.126708572544405,25.126708572544405 0 0,0 0.1371950668350479,0.4101957873190805 l -3.924733078769428 1.275223079749002" fill="#ff2f04" stroke="none" /><path d="M 119.97218684219823 93.5106431181261 l 6.221070182395932 -2.021348233907678 a27.54122029112439,27.54122029112439 0 0,0 0.14261698461864694,0.4521348148465934 l -6.254942650782785 1.913963252634665" fill="#ff5107" stroke="none" /><path d="M 120.08093135843002 93.85539295169968 l 9.638485493839829 -2.949300749216789 a31.079621893915046,31.079621893915046 0 0,0 0.15213342146154732,0.5129182675933387 l -9.68782481241308 2.7829530948769206" fill="#ff810b" stroke="none" /><path d="M 120.18372546131832 94.20196356495316 l 10.557093470185313 -3.0326617702781404 a31.984045700521094,31.984045700521094 0 0,0 0.14745136926764174,0.5304610280201508 l -10.607731610019318 2.850489438839038" fill="#ff8d0d" stroke="none" /><path d="M 120.28053869075195 94.5502522615342 l 18.50239031468942 -4.9719270928277055 a40.1587710037337,40.1587710037337 0 0,0 0.17364589117712123,0.6691284533224572 l -18.585232537736847 4.652702213956398" fill="#fff517" stroke="none" /><path d="M 120.45610955862082 95.25157060432595 l 8.170544855695523 -1.896609678408165 a29.387784660514605,29.387784660514605 0 0,0 0.11014207649323422,0.4937453322282979 l -8.201981319190795 1.7556861766299032" fill="#ff6a09" stroke="none" /><path d="M 120.53481517161879 95.60439243477599 l 4.022433428337438 -0.8610274141959174 a25.113555505083575,25.113555505083575 0 0,0 0.086845908707475,0.42349149355435517 l -4.03665863295991 0.7916602644781505" fill="#ff2f04" stroke="none" /><path d="M 120.6074358757038 95.95851677861258 l 4.037542456361617 -0.7918335979035321 a25.11445616499817,25.11445616499817 0 0,0 0.0795461843434488,0.4249388975252068 l -4.050574364614925 0.7222166229157626" fill="#ff2f04" stroke="none" /><path d="M 120.78858239683441 97.02765380044208 l 21.881482550155045 -3.128608784240623 a43.10401482802541,43.10401482802541 0 0,0 0.09869588045722937,0.7353989474406779 l -21.932094429670112 2.7514914947352804" fill="#e5ff1a" stroke="none" /><path d="M 120.91429891909075 98.10471618934814 l 17.756775542182943 -1.6091445065728942 a38.82953795527243,38.82953795527243 0 0,0 0.05459343577047328,0.6661781965017793 l -17.78184346177291 1.3032523928633462" fill="#ffe515" stroke="none" /><path d="M 120.94382443527127 98.46500227214037 l 12.357746164556325 -0.9057138701045632 a33.39089213422933,33.39089213422933 0 0,0 0.03707885097169233,0.5735934130441835 l -12.371505606532432 0.6928613928073444" fill="#ffa00e" stroke="none" /><path d="M 120.96714384426684 98.82574320788733 l 6.874597343540441 -0.3850091688048101 a27.885370047853424,27.885370047853424 0 0,0 0.022715145932976372,0.47948082914226386 l -6.880206097706914 0.2666172330395465" fill="#ff5607" stroke="none" /><path d="M 120.98425023603335 99.18683210126433 l 6.749228322387841 -0.26154166821643965 a27.754293966946925,27.754293966946925 0 0,0 0.014390344422855476,0.47754547368572237 l -6.752730361266342 0.14532604710571817" fill="#ff5407" stroke="none" /><line stroke="#e1ed5e" stroke-width="0.3" x1="184.98032266829074" x2="189.97916517819016" y1="98.17113171792111" y2="98.06355123074" /><path d="M 185.9800911702706 98.14961562048488 a86.0,86.0 0 0,1 -9.607161424134198,41.387399972396054" fill="none" id="id40" stroke="none" /><text fill="#e1ed5e" style="font-size:6.75px; font-family:Arial;" text-anchor="middle"><textPath startOffset="21.466115282336823" xlink:href="#id40">April</textPath></text><path d="M 120.99824983174949 100.27111621757518 l 15.640027849233867 0.2019342196245106 a36.641331418836,36.641331418836 0 0,0 -0.013571141853027298,0.6305976351322368 l -15.634234644695832 -0.4711216705468622" fill="#ffc912" stroke="none" /><path d="M 120.9904718944345 100.63252640178507 l 6.4391127408557685 0.19403607661349476 a27.442035616827855,27.442035616827855 0 0,0 -0.01829190327890031,0.4720327453833454 l -6.434818704725664 -0.3048460690108463" fill="#ff4f07" stroke="none" /><path d="M 120.95626037817324 101.35467743843564 l 10.56689659139097 0.6830768538049461 a31.58895167433274,31.58895167433274 0 0,0 -0.03974708625818111,0.5423174127858229 l -10.553572946468451 -0.8648674030875392" fill="#ff880c" stroke="none" /><path d="M 120.92983693683757 101.71520430193887 l 15.404285269912394 1.2623842432687158 a36.45592503393094,36.45592503393094 0 0,0 -0.05663758439641299,0.6249910242806297 l -15.380273089238907 -1.527356656097916" fill="#ffc712" stroke="none" /><path d="M 120.89721153311464 102.0752229133903 l 7.051979421468814 0.7003053616506962 a28.086666449070137,28.086666449070137 0 0,0 -0.05191713095526316,0.4806881537043253 l -7.038879989012499 -0.821589837239813" fill="#ff5808" stroke="none" /><path d="M 120.8583938346157 102.4346265915055 l 15.503061493022793 1.8095432495871173 a36.60831068465042,36.60831068465042 0 0,0 -0.07844374903960728,0.6252738613388175 l -15.469616234736339 -2.0761348652133296" fill="#ffc912" stroke="none" /><path d="M 120.81339534386255 102.79330883721812 l 6.463568620583233 0.8674578582472763 a27.52151841589236,27.52151841589236 0 0,0 -0.06705545748634358,0.46898571348103013 l -6.447679112080288 -0.9785890437087157" fill="#ff5107" stroke="none" /><path d="M 120.76222939487914 103.15116336523771 l 5.315055516707479 0.8066864068356785 a26.3759239303264,26.3759239303264 0 0,0 -0.0719915088945914,0.4482911946078823 l -5.300382253451599 -0.8980568311367657" fill="#ff4106" stroke="none" /><path d="M 120.70491114924044 103.5080841355445 l 6.097724123375318 1.033152429679694 a27.18462961120117,27.18462961120117 0 0,0 -0.08214102202486435,0.46069047366138177 l -6.0790366590112646 -1.137961654074294" fill="#ff4c07" stroke="none" /><path d="M 120.64145759157962 103.86396538481128 l 7.771543569696646 1.454789479213445 a28.906535390708335,28.906535390708335 0 0,0 -0.0957633145034722,0.48829507751802004 l -7.745350322217509 -1.5883482837994098" fill="#ff6409" stroke="none" /><path d="M 120.5718875245553 104.21870165774334 l 15.190971504888736 3.1152307533234613 a36.50710411098068,36.50710411098068 0 0,0 -0.13154024409258042,0.6145122283984207 l -15.135097222071712 -3.3762568011380507" fill="#ffc812" stroke="none" /><path d="M 120.49622156327973 104.57218783832717 l 10.200845120228596 2.275550147395314 a31.45157259173003,31.45157259173003 0 0,0 -0.12242065448772135,0.5273849754869034 l -10.160163899810321 -2.4508037802307827" fill="#ff860c" stroke="none" /><path d="M 120.32669344350535 105.2749913415812 l 15.05370407294392 3.906594983793436 a36.55234679021685,36.55234679021685 0 0,0 -0.1632879031720337,0.6076550322941119 l -14.98422809343011 -4.165140949263097" fill="#ffc812" stroke="none" /><path d="M 120.23288151984713 105.62410040840565 l 6.022334923758666 1.6740184175468193 a27.250668411954777,27.250668411954777 0 0,0 -0.12951511225183196,0.45085909653510053 l -5.9926271746207345 -1.777434989586502" fill="#ff4d07" stroke="none" /><path d="M 120.13307415673323 105.97154293290107 l 7.775570737221258 2.3062625272056345 a29.110385140911895,29.110385140911895 0 0,0 -0.14662378047351277,0.47917499818260123 l -7.7347201842416125 -2.439764497940293" fill="#ff6609" stroke="none" /><path d="M 120.02730092923936 106.31721596034902 l 7.789090732675786 2.456914612054763 a29.167396393758786,29.167396393758786 0 0,0 -0.15515353308874427,0.47751347452180753 l -7.745644948570795 -2.5906269865543656" fill="#ff6709" stroke="none" /><path d="M 119.9155931802556 106.66101706037122 l 15.201100645877247 5.084196580144686 a37.028802691144605,37.028802691144605 0 0,0 -0.2073774626510751,0.6027359777025524 l -15.111332352282941 -5.345105260936538" fill="#ffce13" stroke="none" /><path d="M 119.79798401119884 107.00284435728193 l 10.62125585479614 3.756897752212238 a32.266115419860505,32.266115419860505 0 0,0 -0.18971821171228212,0.5220230379024785 l -10.55501338207863 -3.939168587120848" fill="#ff910d" stroke="none" /><path d="M 119.67450827220406 107.3425965602758 l 9.447733270035135 3.5259277055970752 a31.084236715132477,31.084236715132477 0 0,0 -0.1913985534160082,0.4996812265718407 l -9.38564043702562 -3.6880324990020594" fill="#ff810b" stroke="none" /><path d="M 119.54520255179757 107.68017299344265 l 7.894057306928281 3.1019236345434176 a29.481631387864415,29.481631387864415 0 0,0 -0.18966149180608352,0.4707242686369566 l -7.8394932008648075 -3.2373472710231876" fill="#ff6b09" stroke="none" /><path d="M 119.26925614724726 108.34839909993367 l 5.680425905742167 2.461042717806852 a27.19063564825914,27.19063564825914 0 0,0 -0.18976333647981153,0.42786622770421234 l -5.637221484531082 -2.558457282003752" fill="#ff4c07" stroke="none" /><path d="M 119.12269723197855 108.67885076344098 l 11.38663458580214 5.167832815067147 a33.504476926088124,33.504476926088124 0 0,0 -0.2428681827454664,0.5231164590658927 l -11.295991786216842 -5.36306934141187" fill="#ffa10e" stroke="none" /><path d="M 118.97047184881838 109.00673069616215 l 3.549350328953922 1.6851474657027963 a24.929072376377135,24.929072376377135 0 0,0 -0.18737966143939125,0.3860576025875629 l -3.519817410899816 -1.7459940242556347" fill="#ff2c04" stroke="none" /><path d="M 118.64920377521936 109.65438752849418 l 36.29797806974873 18.79086909071085 a61.87346294524349,61.87346294524349 0 0,0 -0.4977793510494718,0.9416109391392508 l -35.96914621047437 -19.412895044936235" fill="#32ff45" stroke="none" /><line stroke="#e1ed5e" stroke-width="0.3" x1="174.80103733775053" x2="179.2010983576182" y1="140.37084112569926" y2="142.7455964860345" /><path d="M 175.68104954172406 140.8457921977663 a86.0,86.0 0 0,1 -30.038265399797805,32.042727171017184" fill="none" id="id41" stroke="none" /><text fill="#e1ed5e" style="font-size:6.75px; font-family:Arial;" text-anchor="middle"><textPath startOffset="22.206326154141568" xlink:href="#id41">May</textPath></text><path d="M 118.12598468904814 110.60418214915192 l 5.345674515475988 3.127361478267014 a27.193272627711288,27.193272627711288 0 0,0 -0.2398435306192406,0.40199155309195295 l -5.29105010915852 -3.218915125245071" fill="#ff4c07" stroke="none" /><path d="M 117.94076556474637 110.91462005526583 l 13.52966886816115 8.231042016384823 a36.83672921905219,36.83672921905219 0 0,0 -0.33422378453360896,0.5388751598379454 l -13.385980443959577 -8.462713507588042" fill="#ffcc13" stroke="none" /><path d="M 117.55443506779139 111.5257021239791 l 7.242233922308829 4.7550280358415655 a29.663731517485985,29.663731517485985 0 0,0 -0.28391990080689533,0.4244217289483001 l -7.159310916091212 -4.878986678995672" fill="#ff6e0a" stroke="none" /><path d="M 117.14729908036423 112.12312394758627 l 18.312525756828293 12.946938086454589 a43.42703291585822,43.42703291585822 0 0,0 -0.4367936623332907,0.6066681939276369 l -18.0869523021194 -13.260239885833357" fill="#e2ff1b" stroke="none" /><path d="M 116.93607887273984 112.41649034213515 l 5.533909303658894 4.0571216005453445 a27.861806457685475,27.861806457685475 0 0,0 -0.28689532076173385,0.38434316592360374 l -5.463252716202068 -4.151777645978264" fill="#ff5507" stroke="none" /><path d="M 116.71984013943494 112.70617746262583 l 2.7971443038586687 2.1256789309591078 a24.51319330156091,24.51319330156091 0 0,0 -0.2581976784057611,0.3337553047367559 l -2.760139808234839 -2.1735122298091163" fill="#ff2603" stroke="none" /><path d="M 116.27256486870786 113.27417163493432 l 7.892610039248681 6.438312654083274 a31.185536955083805,31.185536955083805 0 0,0 -0.34289834420936083,0.4130431449961459 l -7.7806156951457766 -6.57321705619319" fill="#ff820c" stroke="none" /><path d="M 116.0416608686014 113.55231037782055 l 1.6103175170109612 1.3604278868710786 a23.10805278419893,23.10805278419893 0 0,0 -0.2593136060871545,0.3016403077111019 l -1.5866614013530256 -1.3879452937437085" fill="#ff1202" stroke="none" /><path d="M 115.56566222782051 114.09645910891815 l 11.519042588536964 10.431789566458686 a36.54061053226046,36.54061053226046 0 0,0 -0.4262263716145937,0.4625845456568844 l -11.337769808926646 -10.628525366916906" fill="#ffc812" stroke="none" /><path d="M 115.32070863581623 114.36230785411682 l 2.991860448425858 2.8047019128341306 a25.100924500976628,25.100924500976628 0 0,0 -0.2982150579678526,0.3126772960312033 l -2.943138839079041 -2.855786325447841" fill="#ff2f04" stroke="none" /><path d="M 115.07121518719521 114.62390073753431 l 5.823839781680914 5.650987914429419 a29.114848995003946,29.114848995003946 0 0,0 -0.35209470725588904,0.35667007953725033 l -5.7257044493694895 -5.750398487947335" fill="#ff6609" stroke="none" /><path d="M 114.81725581225074 114.88116024355365 l 4.4610512948197725 4.480291088585963 a27.322498469234766,27.322498469234766 0 0,0 -0.33613184670186147,0.3289757583735331 l -4.383269495742117 -4.556416949882068" fill="#ff4e07" stroke="none" /><path d="M 114.29624159901734 115.38237550388516 l 7.03577228217984 7.570303737155393 a31.334969292623903,31.334969292623903 0 0,0 -0.398253210554443,0.3637948653490005 l -6.904419522158533 -7.690291369090976" fill="#ff840c" stroke="none" /><path d="M 113.75828350139079 115.86535959552629 l 5.825149105843893 6.7172685642383705 a29.891234957497126,29.891234957497126 0 0,0 -0.39162431831211797,0.3337507401737289 l -5.708659310954728 -6.816543694635046" fill="#ff710a" stroke="none" /><path d="M 113.48314897796784 116.09983520530334 l 10.060035673719696 12.012395381154573 a36.66850217952235,36.66850217952235 0 0,0 -0.4873940142775613,0.40109209213487984 l -9.851771530897443 -12.183782592146631" fill="#ffca12" stroke="none" /><path d="M 113.20401910651253 116.32954008644616 l 2.797311515354853 3.459462619357668 a25.44891372457029,25.44891372457029 0 0,0 -0.3430059213439138,0.2725046486697787 l -2.7373481012935885 -3.5071011820325726" fill="#ff3404" stroke="none" /><path d="M 112.92097659922987 116.55440617244103 l 5.03715644746583 6.453624704377961 a29.186709772625637,29.186709772625637 0 0,0 -0.3987061211221185,0.30571085197524883 l -4.925321597850218 -6.539374898180581" fill="#ff6709" stroke="none" /><path d="M 112.63410532772338 116.77436683061366 l 6.745584951527243 8.956147944697802 a32.21229246610993,32.21229246610993 0 0,0 -0.4457798251392569,0.32977725754754883 l -6.590420155969421 -9.070935150985122" fill="#ff900d" stroke="none" /><path d="M 112.34349029814194 116.9893568818739 l 5.3580469216550375 7.374718912002217 a30.11565389018803,30.11565389018803 0 0,0 -0.4220101878020841,0.30109306393135415 l -5.230309406004069 -7.465856237777791" fill="#ff740a" stroke="none" /><path d="M 111.7513745106137 117.40417183066458 l 8.710754942960875 12.90091432837711 a36.56633682612718,36.56633682612718 0 0,0 -0.5246839266718436,0.3477318964580474 l -8.487396317549067 -13.048944245926476" fill="#ffc912" stroke="none" /><path d="M 111.45004920935366 117.60387380957326 l 1.9505435555722699 2.9988624489334264 a24.57740075331343,24.57740075331343 0 0,0 -0.3566276794247658,0.22761665826353872 l -1.8986340741005736 -3.031993536020774" fill="#ff2703" stroke="none" /><path d="M 111.1453310114006 117.79835938074945 l 3.46104354209339 5.527058526264353 a27.521288090018555,27.521288090018555 0 0,0 -0.4036728179229018,0.24796881497001466 l -3.3653915242381793 -5.585815808062747" fill="#ff5107" stroke="none" /><line stroke="#e1ed5e" stroke-width="0.3" x1="143.8653032363475" x2="146.44561519142675" y1="172.8068346515853" y2="177.08958963109032" /><path d="M 144.38136562736335 173.6633856474863 a86.0,86.0 0 0,1 -40.68145358897372,12.25698825130547" fill="none" id="id42" stroke="none" /><text fill="#e1ed5e" style="font-size:6.75px; font-family:Arial;" text-anchor="middle"><textPath startOffset="21.466115282336833" xlink:href="#id42">June</textPath></text><path d="M 110.8373102113329 117.98757091392108 l 8.067204401948835 13.389799537657005 a36.63222692137823,36.63222692137823 0 0,0 -0.5429107606529506,0.32076124696963687 l -7.835525770267503 -13.526679356920392" fill="#ffc912" stroke="none" /><path d="M 109.57404056367764 118.69057910512821 l 7.0930185426870835 13.847092383250734 a36.55804870532238,36.55804870532238 0 0,0 -0.5625519324699163,0.2820752173269656 l -6.853612702534407 -13.967135441487002" fill="#ffc812" stroke="none" /><path d="M 109.2508944713604 118.85261126421891 l 6.4423569025277185 13.129027758853228 a35.624477165091584,35.624477165091584 0 0,0 -0.5528364674865871,0.2653951002103645 l -6.215407767040898 -13.237977135563153" fill="#ffbd11" stroke="none" /><path d="M 108.92500713936063 119.00905698771935 l 1.5574780045526126 3.3172173067618367 a24.66465119690066,24.66465119690066 0 0,0 -0.38586320435310906,0.17713087172346514 l -1.500146804432084 -3.343535248819376" fill="#ff2803" stroke="none" /><path d="M 108.59647513512805 119.15986991738527 l 1.9365189251443315 4.316123773417682 a25.730647944510714,25.730647944510714 0 0,0 -0.40566121724226006,0.17782995635474702 l -1.8619370332443177 -4.348818283066883" fill="#ff3805" stroke="none" /><path d="M 107.93186726928326 119.44442032107085 l 4.088864123299256 10.023565693927937 a31.825464379845,31.825464379845 0 0,0 -0.5090239395414405,0.20255113060040644 l -3.915719107715949 -10.092463668934412" fill="#ff8b0c" stroke="none" /><path d="M 107.59598834532513 119.57807347666477 l 1.7530405878258608 4.518326763514969 a25.846486154365913,25.846486154365913 0 0,0 -0.41616507892849336,0.15735802302049612 l -1.6750052881370925 -4.547833036642096" fill="#ff3905" stroke="none" /><path d="M 106.91757812671514 119.82793768551818 l 1.3411078372159473 3.844033582097755 a25.07126078891261,25.07126078891261 0 0,0 -0.40869768578423255,0.1386524448915485 l -1.2747404184944877 -3.8665490138874263" fill="#ff2e04" stroke="none" /><path d="M 106.57524785965236 119.94407469862006 l 5.050147745752637 15.318133404279521 a37.12914142926506,37.12914142926506 0 0,0 -0.6087033747236007,0.19488759836747815 l -4.785723025938096 -15.402793849306706" fill="#ffd013" stroke="none" /><path d="M 105.53697534728816 120.25689768951611 l 1.21528154237207 4.4460797319326035 a25.609179342348497,25.609179342348497 0 0,0 -0.4262215681859605,0.11256899002546289 l -1.138569531374612 -4.46634007126165" fill="#ff3605" stroke="none" /><path d="M 105.18746579009965 120.34920634021253 l 2.784635431181896 10.923468850538388 a32.272815363221206,32.272815363221206 0 0,0 -0.539488848826078,0.1325932333429699 l -2.596193297612607 -10.969783342195388" fill="#ff910d" stroke="none" /><path d="M 104.48393922423573 120.51570834832081 l 3.831033852906373 17.52842071854072 a38.94219477288891,38.94219477288891 0 0,0 -0.6560990962537304,0.13749194475199344 l -3.5287432952232645 -17.591768644019254" fill="#ffe615" stroke="none" /><path d="M 102.70371172650421 120.8252237178851 l 0.843386731560956 6.496150160269488 a27.55066928517555,27.55066928517555 0 0,0 -0.4708180801442922,0.0570095127166675 l -0.7314412283652835 -6.509705201711507" fill="#ff5107" stroke="none" /><path d="M 102.34483914955558 120.86867818915974 l 1.5807250993724515 14.068190310871989 a35.15671820948268,35.15671820948268 0 0,0 -0.6019623751643912,0.06239586146144563 l -1.3383301276024577 -14.093315540789193" fill="#ffb710" stroke="none" /><path d="M 101.98527174616119 120.90594882070398 l 0.21466095109789202 2.260491978558486 a23.27066142545592,23.27066142545592 0 0,0 -0.3990981401090793,0.034435866846005095 l -0.17571849324727107 -2.2638520976831544" fill="#ff1402" stroke="none" /><path d="M 101.62511606390274 120.93702456842531 l 0.6271003050103853 8.07918571756564 a29.1034866971854,29.1034866971854 0 0,0 -0.49980005210381284,0.03446913783367967 l -0.4879374921276421 -8.088783199915605" fill="#ff6609" stroke="none" /><path d="M 100.90346689309514 120.98055641714683 l 0.25584931545545425 5.941403097585641 a26.946909251049597,26.946909251049597 0 0,0 -0.4635890427463932,0.01596694398116992 l -0.15353992103440878 -5.944926839992905" fill="#ff4906" stroke="none" /><line stroke="#e1ed5e" stroke-width="0.3" x1="102.19456741930631" x2="102.32365962044197" y1="184.97166512339345" y2="189.96999836594603" /><path d="M 102.22038585953345 185.97133177190398 a86.0,86.0 0 0,1 -42.740103519485714,-10.115201625700543" fill="none" id="id43" stroke="none" /><text fill="#e1ed5e" style="font-size:6.75px; font-family:Arial;" text-anchor="middle"><textPath startOffset="22.20632615414155" xlink:href="#id43">July</textPath></text><path d="M 100.54218724476979 120.99299961872073 l 0.30203241550311444 11.694421889600708 a32.69832154251142,32.69832154251142 0 0,0 -0.5627853084911707,0.009688859463410499 l -0.10068741711927578 -11.697888226343277" fill="#ff970d" stroke="none" /><path d="M 99.81925306533755 120.99922214144158 l -0.15605949013341952 18.131028925674165 a39.13170053988577,39.13170053988577 0 0,0 -0.6735130465792174,-0.011595137891169496 l 0.46813222660530485 -18.125656310503835" fill="#ffe915" stroke="none" /><path d="M 99.45781275523022 120.99299961872073 l -0.09585296547335181 3.7113401081387494 a24.71257770144537,24.71257770144537 0 0,0 -0.4251500657710115,-0.014643027892852602 l 0.15972338291900634 -3.709140281819803" fill="#ff2904" stroke="none" /><path d="M 99.09653310690486 120.98055641714683 l -0.5632249212915952 13.079363867135154 a34.0914850754559,34.0914850754559 0 0,0 -0.5860682322734785,-0.03029303329864368 l 0.7882812219785627 -13.067731027074307" fill="#ffa90f" stroke="none" /><path d="M 98.73552117531835 120.96189622390904 l -0.5513887215874315 9.140645881404577 a30.157261416577136,30.157261416577136 0 0,0 -0.5178967380829748,-0.03571719125168727 l 0.7086482204493364 -9.129800345636605" fill="#ff750a" stroke="none" /><path d="M 97.65516085044442 120.86867818915974 l -0.771117806835627 6.862820146888668 a27.906006301804247,27.906006301804247 0 0,0 -0.4768904949463171,-0.057744797582475894 l 0.8891357248333335 -6.8485298205808425" fill="#ff5607" stroke="none" /><path d="M 96.22490169976321 120.6578951692458 l -1.2794621423167503 7.001405713684378 a28.117352410920372,28.117352410920372 0 0,0 -0.475360509446541,-0.09110397300297506 l 1.3997902663349864 -6.978344542332935" fill="#ff5908" stroke="none" /><path d="M 95.86986931433489 120.58985236759428 l -2.5679457244354404 12.801925018410422 a34.056937980271215,34.056937980271215 0 0,0 -0.5737921645233224,-0.12024372695258193 l 2.7879293503881497 -12.7558253107313" fill="#ffa80f" stroke="none" /><path d="M 94.81253420990036 120.34920634021253 l -5.18922198151891 20.3560954654636 a42.00710944829266,42.00710944829266 0 0,0 -0.6991374391448606,-0.18464855203946012 l 5.53884986347526 -20.263755564120558" fill="#f2ff19" stroke="none" /><path d="M 94.11515582081647 120.15858648285463 l -1.2107429257931002 4.147410744440623 a25.320522458622285,25.320522458622285 0 0,0 -0.41733649919890325,-0.12574006374512434 l 1.2819543994322493 -4.125955311589773" fill="#ff3204" stroke="none" /><path d="M 93.42475214034765 119.94407469862007 l -1.0243207337646938 3.1069747735150033 a24.271471413428344,24.271471413428344 0 0,0 -0.39565996623644833,-0.13422934254967428 l 1.077650432938368 -3.088882444067206" fill="#ff2303" stroke="none" /><path d="M 93.08242187328487 119.8279376855182 l -5.074058502467527 14.543835133723968 a36.40354537382244,36.40354537382244 0 0,0 -0.5898768768780943,-0.2115088612344545 l 5.323654939975348 -14.454338731449555" fill="#ffc612" stroke="none" /><path d="M 92.40401165467489 119.57807347666478 l -5.641783434431342 14.541261202264181 a36.59737149886151,36.59737149886151 0 0,0 -0.585346940892094,-0.23292162796506297 l 5.891251451365294 -14.441992729893052" fill="#ffc912" stroke="none" /><path d="M 92.06813273071674 119.44442032107085 l -1.360174501892739 3.334373083526835 a24.601127397877978,24.601127397877978 0 0,0 -0.3907227674157731,-0.16332214846834844 l 1.4173687288059744 -3.3104658920385135" fill="#ff2803" stroke="none" /><path d="M 91.7346041902142 119.30500536409082 l -1.4085197923923067 3.289797944747943 a24.5786447885797,24.5786447885797 0 0,0 -0.387499101639521,-0.1698682186098809 l 1.464939568689571 -3.26506517284361" fill="#ff2703" stroke="none" /><path d="M 90.7491055286396 118.85261126421891 l -4.454056201297742 9.077023889096596 a31.11093365261335,31.11093365261335 0 0,0 -0.4787322208658527,-0.24004627386001876 l 4.609642329846355 -8.999009774327275" fill="#ff810b" stroke="none" /><path d="M 90.10565033884886 118.52300852407294 l -5.534725653065487 10.361446073880687 a32.74703165896128,32.74703165896128 0 0,0 -0.4949124203604638,-0.26986571217629307 l 5.712260885294591 -10.264639709944628" fill="#ff970d" stroke="none" /><line stroke="#e1ed5e" stroke-width="0.3" x1="58.666819895761336" x2="56.23545636021788" y1="174.27360380694188" y2="178.64263932499728" /><path d="M 58.180547188652646 175.14741091055294 a86.0,86.0 0 0,1 -31.652253787137756,-30.449443065178592" fill="none" id="id44" stroke="none" /><text fill="#e1ed5e" style="font-size:6.75px; font-family:Arial;" text-anchor="middle"><textPath startOffset="22.20632615414155" xlink:href="#id44">August</textPath></text><path d="M 89.7882731507175 118.34994917583269 l -2.3994823323812646 4.311746631824411 a25.934437605285833,25.934437605285833 0 0,0 -0.38821535430602927,-0.22043880997333987 l 2.473346453608501 -4.269804656056438" fill="#ff3a05" stroke="none" /><path d="M 89.4739219176387 118.17145234162733 l -7.954248169583814 13.73163303522107 a36.869083456750175,36.869083456750175 0 0,0 -0.5464211113084102,-0.3228352240118154 l 8.189437151920608 -13.592679238915505" fill="#ffcc13" stroke="none" /><path d="M 89.1626897886671 117.98757091392108 l -5.487066679767118 9.107333746754978 a31.63256454120983,31.63256454120983 0 0,0 -0.4639756113417302,-0.2850117159520283 l 5.643021491041156 -9.011533563974574" fill="#ff880c" stroke="none" /><path d="M 88.8546689885994 117.79835938074946 l -5.237245557626911 8.363536130468269 a30.868002717699817,30.868002717699817 0 0,0 -0.44790676964515036,-0.2858752923628673 l 5.380434129318985 -8.272146409281598" fill="#ff7e0b" stroke="none" /><path d="M 88.54995079064634 117.60387380957326 l -5.823410719280318 8.953200599328573 a31.680445373543485,31.680445373543485 0 0,0 -0.4545771307731035,-0.3012689349430962 l 5.976662548793382 -8.851633643294159" fill="#ff890c" stroke="none" /><path d="M 87.95078237400918 117.19931262002967 l -8.894629145061318 12.696385114262313 a36.502019952181584,36.502019952181584 0 0,0 -0.5115022357258002,-0.36494326396368193 l 9.111858708636003 -12.541397588454412" fill="#ffc812" stroke="none" /><path d="M 87.65650970185807 116.9893568818739 l -2.4220135111831333 3.3336156079293717 a25.12057550225499,25.12057550225499 0 0,0 -0.3476388948900249,-0.25717494356744297 l 2.479037376491722 -3.29143071562216" fill="#ff2f04" stroke="none" /><path d="M 87.36589467227662 116.77436683061367 l -9.63131186174926 12.787542452611106 a37.00885411750645,37.00885411750645 0 0,0 -0.5055608113184826,-0.3876424719000803 l 9.85000140156123 -12.61986063888366" fill="#ffce13" stroke="none" /><path d="M 87.07902340077011 116.55440617244103 l -3.9968468071381253 5.1207758907583045 a27.49593181330452,27.49593181330452 0 0,0 -0.37059607050048904,-0.2944239317923618 l 4.084400370355972 -5.051218044960812" fill="#ff5007" stroke="none" /><path d="M 86.51685102203217 116.09983520530335 l -6.933790873611908 8.279437585062803 a31.799376954432805,31.799376954432805 0 0,0 -0.4166241154049714,-0.35505610961527884 l 7.075280465593936 -8.158857085224573" fill="#ff8b0c" stroke="none" /><path d="M 85.97065885151581 115.62618273729859 l -8.028631456352905 8.942462866900147 a33.01776040649119,33.01776040649119 0 0,0 -0.4196407203851367,-0.3833318484863729 l 8.181371726204897 -8.802938251827195" fill="#ff9b0e" stroke="none" /><path d="M 85.70375840098266 115.38237550388516 l -9.489924817972193 10.21090655488931 a34.939916991268134,34.939916991268134 0 0,0 -0.437022102045983,-0.41323167502873415 l 9.66428275440899 -10.046040243114648" fill="#ffb410" stroke="none" /><path d="M 85.44109423537348 115.13401014063109 l -2.6752889015891124 2.780967884560387 a24.85887977033778,24.85887977033778 0 0,0 -0.30582346535957955,-0.2993126281614344 l 2.722762319324486 -2.7345051534763827" fill="#ff2b04" stroke="none" /><path d="M 84.9287848128048 114.62390073753433 l -14.211895211239439 13.790085423104061 a40.80263673028816,40.80263673028816 0 0,0 -0.4847614547938671,-0.5082704473006128 l 14.447163217412264 -13.543407859220949" fill="#fffd17" stroke="none" /><path d="M 84.19399662182784 113.82643327865904 l -11.380183389660065 9.95491033193962 a36.119815266703924,36.119815266703924 0 0,0 -0.4053288105008779,-0.47148897803135825 l 11.549854709731724 -9.757544254746733" fill="#ffc312" stroke="none" /><path d="M 83.95833913139862 113.55231037782056 l -4.760115856246357 4.0214394286631086 a27.231426645904953,27.231426645904953 0 0,0 -0.2994212067211997,-0.3606721321090872 l 4.828633062861093 -3.9389060394402606" fill="#ff4d07" stroke="none" /><path d="M 83.72743513129214 113.27417163493432 l -12.15072736707999 9.911826553543245 a36.68070410334407,36.68070410334407 0 0,0 -0.39489762718961224,-0.49269550820500396 l 12.319542906324463 -9.70120321175998" fill="#ffca12" stroke="none" /><path d="M 83.50135304334701 112.99209946851258 l -4.86517543345434 3.8311531442106523 a27.19254926606828,27.19254926606828 0 0,0 -0.28641935810076763,-0.3702356300632591 l 4.930401608773177 -3.7468395200341402" fill="#ff4c07" stroke="none" /><path d="M 83.06392112726016 112.41649034213515 l -25.316750251039984 18.560682631931563 a52.39166741408967,52.39166741408967 0 0,0 -0.5269608985234352,-0.7319025987464026 l 25.632490941939025 -18.12214642773402" fill="#7dff26" stroke="none" /><path d="M 82.6465618267979 111.8261652097733 l -12.352004416123524 8.417746583642662 a35.947590797261036,35.947590797261036 0 0,0 -0.344064481819775,-0.5143297170386383 l 12.49507200335403 -8.203879952398202" fill="#ffc111" stroke="none" /><path d="M 82.44556493220864 111.52570212397912 l -3.400244238925313 2.232495782136269 a25.06764038498993,25.06764038498993 0 0,0 -0.23372009876162814,-0.36273878352072525 l 3.438169201063987 -2.173635398694096" fill="#ff2e04" stroke="none" /><path d="M 82.24976979558568 111.22182372390057 l -13.181826370740328 8.333645828138303 a36.59519795504988,36.59519795504988 0 0,0 -0.3320323442279959,-0.5353418602955098 l 13.32332335463628 -8.10550763647753" fill="#ffc912" stroke="none" /><path d="M 82.05923443525364 110.91462005526583 l -1.8843069673564823 1.1463554630355013 a23.20561637527008,23.20561637527008 0 0,0 -0.20467256875763307,-0.3430429979819531 l 1.9037604118123472 -1.113750371167437" fill="#ff1402" stroke="none" /><line stroke="#e1ed5e" stroke-width="0.3" x1="26.63291911575756" x2="22.317208475507996" y1="142.92168965132927" y2="145.44649492493687" /><path d="M 25.769776987707644 143.4266507060508 a86.0,86.0 0 0,1 -11.730757126820373,-40.83630448921669" fill="none" id="id45" stroke="none" /><text fill="#e1ed5e" style="font-size:6.75px; font-family:Arial;" text-anchor="middle"><textPath startOffset="21.46611528233685" xlink:href="#id45">September</textPath></text><path d="M 81.69416730710424 110.29060199501025 l -5.420649579385494 3.0472116899398936 a27.21843557060765,27.21843557060765 0 0,0 -0.22607320292085456,-0.41038853070208414 l 5.472299191757865 -2.953452640839987" fill="#ff4c07" stroke="none" /><path d="M 81.35079622478065 109.6543875284942 l -7.251051131069417 3.75375047921835 a29.165071044737765,29.165071044737765 0 0,0 -0.2269616526623372,-0.447816872560365 l 7.3145914535180205 -3.6283793949553003" fill="#ff6709" stroke="none" /><path d="M 81.18737489456691 109.33194174019688 l -9.445316872072496 4.685318836360771 a31.54353941578512,31.54353941578512 0 0,0 -0.23709737960128247,-0.48849082790274617 l 9.524567508288499 -4.52203905249274" fill="#ff870c" stroke="none" /><path d="M 81.02952815118164 109.00673069616217 l -3.2849286716263215 1.5596063259376902 a24.63636195524834,24.63636195524834 0 0,0 -0.1785847446814474,-0.384655652399109 l 3.3112880331475956 -1.502830606259754" fill="#ff2803" stroke="none" /><path d="M 80.87730276802145 108.67885076344099 l -12.561358152795922 5.700982004355512 a34.794524799963135,34.794524799963135 0 0,0 -0.24283084818919895,-0.5475194571949508 l 12.6576300857164 -5.483914210667866" fill="#ffb210" stroke="none" /><path d="M 80.58989483394504 108.01547362559985 l -9.656400239161176 3.987645650194275 a31.44736250976223,31.44736250976223 0 0,0 -0.20230745064614808,-0.5021105013904638 l 9.723610304064712 -3.820835780961006" fill="#ff860c" stroke="none" /><path d="M 80.20201598880116 107.00284435728193 l -3.0154216021254054 1.066599919432466 a24.198500090151303,24.198500090151303 0 0,0 -0.13552216609632886,-0.393890851195706 l 3.0333345991649625 -1.0145363651474633" fill="#ff2203" stroke="none" /><path d="M 80.0844068197444 106.66101706037122 l -13.082461636911217 4.375591495889316 a34.79480349335041,34.79480349335041 0 0,0 -0.1850880559321009,-0.5696424626700018 l 13.155841943859567 -4.14975013324151" fill="#ffb210" stroke="none" /><path d="M 79.97269907076064 106.31721596034903 l -5.883151034662638 1.8557236316879102 a27.16888776797382,27.16888776797382 0 0,0 -0.1368448069827289,-0.44721674700710223 l 5.914222614151497 -1.7541799121287602" fill="#ff4c07" stroke="none" /><path d="M 79.58551787078972 104.9243191809786 l -11.898633067088554 2.870152016046122 a33.23990365405001,33.23990365405001 0 0,0 -0.12938147205737713,-0.5573719953954601 l 11.946275105076486 -2.664911363302087" fill="#ff9e0e" stroke="none" /><path d="M 79.50377843672027 104.57218783832718 l -7.9385372350027765 1.7708865650152115 a29.13365924155155,29.13365924155155 0 0,0 -0.10497268247555135,-0.4903974253203352 l 7.967843956202769 -1.6339753202787124" fill="#ff6709" stroke="none" /><path d="M 79.4281124754447 104.21870165774334 l -4.350071396836276 0.8920743607619837 a25.44059881352752,25.44059881352752 0 0,0 -0.08428115069506142,-0.42974777163191247 l 4.364782480507004 -0.8170628620621163" fill="#ff3304" stroke="none" /><path d="M 79.35854240842038 103.8639653848113 l -12.321003308759881 2.306422890920967 a33.5350193093683,33.5350193093683 0 0,0 -0.10132934673349626,-0.5683087888573235 l 12.358879097832567 -2.09399535133043" fill="#ffa10e" stroke="none" /><path d="M 79.23777060512086 103.15116336523772 l -9.64605422463966 1.4640187290907252 a30.756521559644966,30.756521559644966 0 0,0 -0.07493745776322223,-0.5241124050595897 l 9.669825733419481 -1.2977608520507349" fill="#ff7d0b" stroke="none" /><path d="M 79.18660465613746 102.79330883721812 l -15.544873882018585 2.0862349881269076 a36.68424306218022,36.68424306218022 0 0,0 -0.07860645581999488,-0.6265707944671121 l 15.578481847085428 -1.818346439372387" fill="#ffca12" stroke="none" /><path d="M 79.10278846688536 102.07522291339032 l -4.849822379054523 0.4816174881006723 a25.873677514282463,25.873677514282463 0 0,0 -0.04019710355715348,-0.44357168818257897 l 4.857394078888753 -0.39806441136952714" fill="#ff3a05" stroke="none" /><path d="M 79.04373962182676 101.35467743843564 l -14.543590880324519 0.940142663045657 a35.57394606553548,35.57394606553548 0 0,0 -0.03424186968164804,-0.6114115855528302 l 14.5576191008937 -0.6896593611573891" fill="#ffbc11" stroke="none" /><path d="M 79.0235259727143 100.99374915477108 l -15.538025620168234 0.7361055917580996 a36.55545215078051,36.55545215078051 0 0,0 -0.024366588703376633,-0.6287933839310975 l 15.548394341722812 -0.4685349608130053" fill="#ffc812" stroke="none" /><path d="M 79.0095281055655 100.63252640178507 l -13.9393293285757 0.42004743237044295 a34.9456567423672,34.9456567423672 0 0,0 -0.01294310131301803,-0.6014150590758979 l 13.944494492573726 -0.18004255750441622" fill="#ffb410" stroke="none" /><line stroke="#e1ed5e" stroke-width="0.3" x1="15.007084014347285" x2="10.007500721073583" y1="101.09737516637583" y2="101.16192664675087" /><path d="M 14.007167355692545 101.11028546245083 a86.0,86.0 0 0,1 10.666146001902534,-42.60595125391555" fill="none" id="id46" stroke="none" /><text fill="#e1ed5e" style="font-size:6.75px; font-family:Arial;" text-anchor="middle"><textPath startOffset="22.20632615414155" xlink:href="#id46">October</textPath></text><path d="M 79.00019446554 99.90962569577889 l -31.790473199699132 -0.13681278579310707 a52.79076759059374,52.79076759059374 0 0,0 0.011732101742649216,-0.9086642091979036 l 31.783408090838766 0.6840132530514825" fill="#79ff26" stroke="none" /><path d="M 79.00486145842228 99.54816195383935 l -13.697088145583303 -0.294776123221784 a34.70025972858545,34.70025972858545 0 0,0 0.01799176335206254,-0.5970590348592468 l 13.689984687775594 0.5305053055060253" fill="#ffb110" stroke="none" /><path d="M 79.03285615573316 98.82574320788736 l -7.302167844476934 -0.40895508955399235 a28.313610564843128,28.313610564843128 0 0,0 0.03144079356682595,-0.4863751604541582 l 7.294046459905694 0.5345893142611623" fill="#ff5b08" stroke="none" /><path d="M 79.05617556472873 98.46500227214037 l -14.981116652830506 -1.0979838039593026 a36.02129903169072,36.02129903169072 0 0,0 0.05064511654299612,-0.6179987012007188 l 14.959997052468013 1.3556964223677996" fill="#ffc212" stroke="none" /><path d="M 79.08570108090925 98.10471618934814 l -17.874076778992208 -1.6197745131513566 a38.94731986049068,38.94731986049068 0 0,0 0.06625286725668322,-0.6671573317761815 l 17.8435467860533 1.9272073756319683" fill="#ffe615" stroke="none" /><path d="M 79.12142395522702 97.74499172005258 l -31.62824386413948 -3.416035252638146 a52.81218487901677,52.81218487901677 0 0,0 0.10539714406613296,-0.9029783654074297 l 31.56475636706976 3.9599573563704373" fill="#79ff26" stroke="none" /><path d="M 79.21141760316559 97.0276538004421 l -10.158830788668594 -1.452507030553894 a31.262144983706353,31.262144983706353 0 0,0 0.08075176780057862,-0.5320532555097027 l 10.132323127428712 1.627159398455689" fill="#ff830c" stroke="none" /><path d="M 79.26566170972629 96.67025291283419 l -6.401716805294294 -1.0280577844766947 a27.48373972822865,27.48373972822865 0 0,0 0.07903294669763904,-0.46645692520807497 l 6.383071997076432 1.1381004980005978" fill="#ff5007" stroke="none" /><path d="M 79.32604984820605 96.31383870115002 l -12.344332826534492 -2.200992146696572 a33.53901588491206,33.53901588491206 0 0,0 0.10622968392193227,-0.5674832192495366 l 12.304617418702698 2.413153443408681" fill="#ffa20e" stroke="none" /><path d="M 79.3925641242962 95.95851677861259 l -17.9632985897192 -3.5229210605825965 a39.3054928647798,39.3054928647798 0 0,0 0.13592345553564125,-0.6628110414244863 l 17.899995838268566 3.831607758170485" fill="#ffeb16" stroke="none" /><path d="M 79.46518482838121 95.60439243477599 l -17.94267303849438 -3.840743083840932 a39.349136851699186,39.349136851699186 0 0,0 0.14747609223112845,-0.6611064043164601 l 17.873902559261214 4.149027657707351" fill="#ffeb16" stroke="none" /><path d="M 79.54389044137918 95.25157060432595 l -6.662403345792915 -1.5465282781333096 a27.8395444334472,27.8395444334472 0 0,0 0.11237524874466387,-0.4658679551327513 l 6.634795296787436 1.6609814649254577" fill="#ff5507" stroke="none" /><path d="M 79.62865764111835 94.90015583598534 l -13.497238044343126 -3.3789531125693912 a34.91376149582153,34.91376149582153 0 0,0 0.15096655295361047,-0.5817357116629714 l 13.437075159519209 3.6107852497812263" fill="#ffb310" stroke="none" /><path d="M 79.71946130924805 94.55025226153421 l -6.05400524413988 -1.626820761075555 a27.26877382625499,27.26877382625499 0 0,0 0.12571324080072574,-0.4522574139671431 l 6.025105232772794 1.7307894784616404" fill="#ff4d07" stroke="none" /><path d="M 79.81627453868168 94.20196356495316 l -13.512277727591911 -3.8815767057075674 a35.05874415123442,35.05874415123442 0 0,0 0.1716110549245873,-0.5785871647804521 l 13.443460775555618 4.113593257234559" fill="#ffb510" stroke="none" /><path d="M 79.91906864156998 93.8553929516997 l -12.963165407536888 -3.966626652403506 a34.556466515383676,34.556466515383676 0 0,0 0.17894410637598382,-0.5673017180985572 l 12.8929658173927 4.189178536928478" fill="#ffaf10" stroke="none" /><path d="M 80.02781315780177 93.51064311812611 l -27.79252483972379 -9.030338728468552 a50.222789985173264,50.222789985173264 0 0,0 0.27422290543009015,-0.8198915834857535 l 27.632964640521926 9.507403414876627" fill="#94ff23" stroke="none" /><path d="M 80.14247586403 93.16781622104843 l -12.908756943126061 -4.441389530203192 a34.65144486036932,34.65144486036932 0 0,0 0.1989107106383943,-0.5623473645791082 l 12.830393151677859 4.662934521208911" fill="#ffb010" stroke="none" /><path d="M 80.2630227832202 92.82701384747504 l -9.423255468000894 -3.4246825256610216 a31.02627518158048,31.02627518158048 0 0,0 0.1867418485160764,-0.5003753118172418 l 9.36290903098319 3.5863809745076045" fill="#ff800b" stroke="none" /><path d="M 80.38941819471856 92.48833698450439 l -0.8004226298839292 -0.30659493559979883 a21.85713291907717,21.85713291907717 0 0,0 0.1376025691902487,-0.35018352955948007 l 0.7950265108119894 0.3203274700550423" fill="#ff0000" stroke="none" /><path d="M 80.52162464483688 92.15188598940014 l -18.199606059044402 -7.332879703518177 a40.621334955875824,40.621334955875824 0 0,0 0.26689825112582377,-0.6463152852805681 l 18.070686121032377 7.645069559252057" fill="#fffb17" stroke="none" /><path d="M 80.65960295795067 91.81776055985345 l -5.825439210668695 -2.464537742533278 a27.325321199873358,27.325321199873358 0 0,0 0.1869953577597434,-0.4316110674497108 l 5.782153143066274 2.564447954569588" fill="#ff4e07" stroke="none" /><path d="M 80.803312248108 91.48605970444005 l -14.275336739025247 -6.331267469988177 a36.61634357937525,36.61634357937525 0 0,0 0.2604950900967865,-0.5739664010955846 l 14.16423933196511 6.576055879925832" fill="#ffc912" stroke="none" /><path d="M 80.95270993114464 91.15688171328213 l -14.05742271689751 -6.52646394539788 a36.49857622725793,36.49857622725793 0 0,0 0.26946691335612283,-0.5675660421587261 l 13.942997609699635 6.767472403197138" fill="#ffc812" stroke="none" /><path d="M 81.10775173730289 90.83032412892265 l -16.94985200367473 -8.226900619515744 a39.84089638923437,39.84089638923437 0 0,0 0.30476386094719204,-0.6143853467266618 l 16.805728129774128 8.517445554741366" fill="#fff116" stroke="none" /><path d="M 81.26839172434947 90.50648371742162 l -14.198019992332267 -7.195812126436254 a36.91739563690096,36.91739563690096 0 0,0 0.2921582336737574,-0.564356715359642 l 14.072052325498396 7.439141564056231" fill="#ffcd13" stroke="none" /><path d="M 81.43458229118936 90.18545643968196 l -16.84516809693148 -8.90513958055217 a40.054164877081206,40.054164877081206 0 0,0 0.3274750334267999,-0.6067615021017182 l 16.68938496428621 9.193782065986362" fill="#fff417" stroke="none" /><path d="M 81.6062741919709 89.86733742301443 l -6.913791755518364 -3.808642127068801 a28.8934321616618,28.8934321616618 0 0,0 0.2437262249654245,-0.43356175851048934 l 6.847207889260509 3.927087395514075" fill="#ff6309" stroke="none" /><line stroke="#e1ed5e" stroke-width="0.3" x1="26.266209847984243" x2="21.928928074336255" y1="57.711370442889674" y2="55.22380399835377" /><path d="M 25.398753493254645 57.213857153982495 a86.0,86.0 0 0,1 29.58750427330803,-30.492523968695096" fill="none" id="id47" stroke="none" /><text fill="#e1ed5e" style="font-size:6.75px; font-family:Arial;" text-anchor="middle"><textPath startOffset="21.46611528233685" xlink:href="#id47">November</textPath></text><path d="M 81.78341655067845 89.55222093294921 l -13.345457675748 -7.65403642965142 a36.38458690513373,36.38458690513373 0 0,0 0.31626925418694984,-0.5406066755905105 l 13.211728747090728 7.882622517595823" fill="#ffc612" stroke="none" /><path d="M 82.15384107792192 88.93136811851018 l -19.263955361591414 -11.947984516439496 a43.66835481852321,43.66835481852321 0 0,0 0.4016914794418251,-0.6353794540595257 l 19.055436285903628 12.277811618213237" fill="#dfff1b" stroke="none" /><path d="M 82.54541684631803 88.32363383020206 l -1.8816053377552633 -1.2587131252138921 a23.263801532523296,23.263801532523296 0 0,0 0.22552099178856222,-0.33092422762095663 l 1.8596598802979607 1.2909153761052645" fill="#ff1402" stroke="none" /><path d="M 82.7489923806493 88.02491185347247 l -12.793436118649515 -8.880787058835182 a36.573708180980546,36.573708180980546 0 0,0 0.36345101639744265,-0.5140756876011433 l 12.638672482448193 9.099689246768111" fill="#ffc912" stroke="none" /><path d="M 82.95767976084542 87.72973835380427 l -5.15093191951619 -3.7086078355103247 a27.347115227967688,27.347115227967688 0 0,0 0.278338141148307,-0.37965291172359655 l 5.08633116585425 3.7967231909054244" fill="#ff4e07" stroke="none" /><path d="M 83.17141714833178 87.43820079747577 l -10.38787039559602 -7.7540897651038785 a33.96278363010773,33.96278363010773 0 0,0 0.3537370436603496,-0.4654764848668446 l 10.252857411711561 7.931751025851748" fill="#ffa70f" stroke="none" /><path d="M 83.6137871275137 86.86637796730984 l -8.442667110513923 -6.766834999653577 a31.81982827273567,31.81982827273567 0 0,0 0.3462323210566828,-0.4244398866450274 l 8.324936297380848 6.911159055906686" fill="#ff8b0c" stroke="none" /><path d="M 83.84228863543731 86.58626213691792 l -14.63442198962176 -12.149140179409518 a40.020197529712135,40.020197529712135 0 0,0 0.4445851109443167,-0.5262485419954748 l 14.42312626519032 12.399247671034109" fill="#fff417" stroke="none" /><path d="M 84.31358615837235 86.03803664274999 l -13.728114912266955 -12.218945598677417 a39.3783505948669,39.3783505948669 0 0,0 0.4550193901854953,-0.502443775419848 l 13.515751881465414 12.453442161366821" fill="#ffec16" stroke="none" /><path d="M 84.5562425177563 85.77008943001954 l -4.909488882012665 -4.523613363889987 a27.675789013185636,27.675789013185636 0 0,0 0.32582663972906917,-0.3475691416575 l 4.8308949203131375 4.607451922425537" fill="#ff5307" stroke="none" /><path d="M 84.80347519578584 85.50635884689758 l -7.747911166882371 -7.389547648931375 a31.706798863606608,31.706798863606608 0 0,0 0.3800825884546327,-0.3917085176052479 l 7.619564314724625 7.521820362086746" fill="#ff890c" stroke="none" /><path d="M 85.05521093208273 85.24692304244772 l -4.49319260802807 -4.435553826159237 a27.313708700723684,27.313708700723684 0 0,0 0.33318068256113875,-0.331749898825749 l 4.416176125299616 4.512239575635098" fill="#ff4e07" stroke="none" /><path d="M 85.31137513191541 84.99185889309783 l -4.250873669484997 -4.343341356471387 a27.077379459335706,27.077379459335706 0 0,0 0.3359100508676961,-0.3231452027935417 l 4.175480375004873 4.415869646027238" fill="#ff4a06" stroke="none" /><path d="M 85.57189188830299 84.74124197986013 l -8.909960479626033 -9.422921555280205 a33.96837871075109,33.96837871075109 0 0,0 0.4283123277560732,-0.39806962948549246 l 8.746440268075103 9.574895770840348" fill="#ffa70f" stroke="none" /><path d="M 86.10567301691215 84.25364557470407 l -2.7082415109988776 -3.0692332743712374 a25.093258478816733,25.093258478816733 0 0,0 0.32633926203448954,-0.28299819223581985 l 2.655008450317615 3.1153964600267376" fill="#ff2f04" stroke="none" /><path d="M 86.65592168130627 83.78471172551755 l -40.03223495608118 -48.64586482344734 a84.0,84.0 0 0,0 1.124386405741998,-0.9091756109434534 l 39.18894515177469 49.32774653165493" fill="#4dd2ff" stroke="none" /><path d="M 88.70189139769569 82.29822771554957 l -3.4370350483602103 -5.385114792341304 a27.388479572664345,27.388479572664345 0 0,0 0.39958598031944903,-0.25022070421795184 l 3.3438299156685187 5.443479837882187" fill="#ff4f07" stroke="none" /><path d="M 89.00827224532344 82.1063720568725 l -4.205327831504456 -6.8459275261620745 a29.034395177229555,29.034395177229555 0 0,0 0.4281023872046514,-0.2579268982204994 l 4.086863378082158 6.917301033841193" fill="#ff6509" stroke="none" /><line stroke="#e1ed5e" stroke-width="0.3" x1="56.76296977257108" x2="54.21961505331056" y1="26.818313649435495" y2="22.513508569990535" /><path d="M 56.25429882871898 25.957352633546506 a86.0,86.0 0 0,1 42.26535254187918,-11.944610805530505" fill="none" id="id48" stroke="none" /><text fill="#e1ed5e" style="font-size:6.75px; font-family:Arial;" text-anchor="middle"><textPath startOffset="22.20632615414155" xlink:href="#id48">December</textPath></text><path d="M 89.3179101791058 81.91981866633112 l -5.095905867230901 -8.62517575527456 a31.01807932774813,31.01807932774813 0 0,0 0.4620265031604499,-0.26763557237779434 l 4.946682631605129 8.711615485042403" fill="#ff800b" stroke="none" /><path d="M 90.26544431104013 81.39251694778311 l -4.861524036744154 -9.292743193636968 a31.48758752157651,31.48758752157651 0 0,0 0.48241909791419785,-0.24711379921107132 l 4.700844451241192 9.375049518160544" fill="#ff860c" stroke="none" /><path d="M 90.58718382345135 81.22770947309562 l -1.7337271115495159 -3.457629302637865 a24.86794649546524,24.86794649546524 0 0,0 0.38430300801075484,-0.18857581702123744 l 1.673952836528335 3.486960279793932" fill="#ff2b04" stroke="none" /><path d="M 90.91171255644093 81.06846463323043 l -5.619302427135962 -11.705398106800882 a33.984333044339,33.984333044339 0 0,0 0.5295435355504015,-0.24862779034451363 l 5.416980680285953 11.800390879785402" fill="#ffa70f" stroke="none" /><path d="M 91.23893434514133 80.91482961587045 l -3.09883220462846 -6.750519051796331 a28.42780374680886,28.42780374680886 0 0,0 0.4464760956387996,-0.20032080964732168 l 2.9821739905228863 6.802860191960182" fill="#ff5d08" stroke="none" /><path d="M 91.90106846888425 80.62456947434976 l -19.47251501582058 -46.584955114040234 a71.4909584383036,71.4909584383036 0 0,0 1.1394846175184237,-0.4648243862406049 l 18.667746528713774 46.913240386464416" fill="#3effb1" stroke="none" /><path d="M 92.57280143429618 80.3572730644239 l -5.537803059156256 -14.645838851852 a36.65783696416647,36.65783696416647 0 0,0 0.5921421998663298,-0.21809096950436013 l 5.284878533517358 14.738993089162681" fill="#ffca12" stroke="none" /><path d="M 92.91201910852362 80.23233633223022 l -1.631305275903355 -4.5495458477172965 a25.833169180121033,25.833169180121033 0 0,0 0.4198726444406197,-0.1464853212298465 l 1.55275062739945 4.576952022119353" fill="#ff3905" stroke="none" /><path d="M 93.59665428221793 80.00007090966166 l -2.787883961918662 -8.707554457918201 a30.142964597040418,30.142964597040418 0 0,0 0.4955139185124289,-0.1539585865199701 l 2.6375846706955044 8.754253179320697" fill="#ff740a" stroke="none" /><path d="M 93.94186890950719 79.89281104454417 l -1.735103546240067 -5.758880806703126 a27.01458996623947,27.01458996623947 0 0,0 0.44639652297503835,-0.1303153860550576 l 1.6357168055416074 5.787894521676883" fill="#ff4a06" stroke="none" /><path d="M 94.28887869178378 79.79150937346287 l -5.680104488215998 -20.098739304088777 a41.885950028925535,41.885950028925535 0 0,0 0.695510437474096,-0.19010927562065721 l 5.333296161518179 20.19353512053573" fill="#f4ff19" stroke="none" /><path d="M 94.98787191387505 79.60689891045804 l -4.447163739721912 -18.09440184837957 a39.632891444393145,39.632891444393145 0 0,0 0.6639005917772738,-0.15712382030584904 l 4.135039460982105 18.168271580826286" fill="#ffef16" stroke="none" /><path d="M 95.33964822691252 79.52364482259891 l -0.9836350741935322 -4.321832798212236 a25.43235565979161,25.43235565979161 0 0,0 0.427696259198609,-0.0934778365981458 l 0.9090960908414023 4.338124132906251" fill="#ff3304" stroke="none" /><path d="M 95.692805502759 79.44645832069477 l -3.199427916381734 -15.267379978175414 a36.59901376337986,36.59901376337986 0 0,0 0.617710469434115,-0.12390690905009648 l 2.9361510374804825 15.320190843302722" fill="#ffc912" stroke="none" /><path d="M 96.04723909329186 79.375362276772 l -3.9936930184724475 -20.83821248687051 a42.217461760864836,42.217461760864836 0 0,0 0.7148921608007416,-0.13064197291064297 l 3.6344057365688127 20.903869941131887" fill="#f0ff19" stroke="none" /><path d="M 97.11714578562143 79.19881850522333 l -1.2664931160124793 -9.138357755541135 a30.225702535913772,30.225702535913772 0 0,0 0.5159747228394181,-0.06698832759825869 l 1.1090036646652033 9.15880440630353" fill="#ff760a" stroke="none" /><path d="M 97.47563105711357 79.15227682838746 l -0.5142258685935259 -4.24677961053578 a25.277799119219274,25.277799119219274 0 0,0 0.43241081455315655,-0.048586393324239585 l 0.44104835053065145 4.255001957330618" fill="#ff3104" stroke="none" /><path d="M 97.83486435360386 79.11191278185805 l -1.009703440717539 -9.741086462306155 a30.793276596947575,30.793276596947575 0 0,0 0.5277012619905576,-0.05011159334733893 l 0.8418770516367451 9.757023600168674" fill="#ff7d0b" stroke="none" /><path d="M 98.19473922651362 79.07773832637324 l -0.37837993951358995 -4.385274539182314 a25.401568375321116,25.401568375321116 0 0,0 0.4359511641928192,-0.03383820072864089 l 0.30283858595843655 4.391138002099417" fill="#ff3304" stroke="none" /><path d="M 98.55514903715128 79.0497635885617 l -0.6566223284239487 -9.520977157663555 a30.54359255830508,30.54359255830508 0 0,0 0.5248232076102926,-0.03165876911306211 l 0.49263707197403317 9.530869196156925" fill="#ff7a0b" stroke="none" /><path d="M 98.91598698831166 79.02799685794201 l -1.3464427968191175 -26.049136182887825 a47.08391082793648,47.08391082793648 0 0,0 0.80975171630823,-0.03486961226221929 l 0.8978502481215634 26.068453521674236" fill="#b7ff1f" stroke="none" /><path d="M 99.27714615592234 79.0124445844662 l -0.31669092839633833 -9.19489944443168 a30.200351565964127,30.200351565964127 0 0,0 0.5196953649376219,-0.01342219802566465 l 0.15836892826383736 9.198988434599705" fill="#ff750a" stroke="none" /><path d="M 99.63851952072746 79.00311137660856 l -0.5336871803535922 -30.99965538434379 a52.00424899839615,52.00424899839615 0 0,0 0.8951676596261203,-0.007704990660918132 l 7.593850859170675e-15 31.00424899839615" fill="#81ff25" stroke="none" /></svg>