<?xml version="1.0" encoding="utf-8" ?>
<svg baseProfile="full" height="200mm" version="1.1" viewBox="0,0,200,200" width="200mm" xmlns="http://www.w3.org/2000/svg" xmlns:ev="http://www.w3.org/2001/xml-events" xmlns:xlink="http://www.w3.org/1999/xlink"><defs /><rect fill="#1a1a1a" height="200" width="200" x="0" y="0" /><text alignment-baseline="middle" fill="#e1ed5e" style="dominant-baseline: central; font-size:9.0px; font-family:Arial;" text-anchor="middle" x="100.0" y="100.0">2015</text><line stroke="#e1ed5e" stroke-width="0.3" x1="100.0" x2="100.0" y1="15.0" y2="10.0" /><path d="M 100.0 14.0 a86.0,86.0 0 0,1 42.46469731375804,11.215312516191453" fill="none" id="id1" stroke="none" /><text fill="#e1ed5e" style="font-size:6.75px; font-family:Arial;" text-anchor="middle"><textPath startOffset="22.20632615414155" xlink:href="#id1">January</textPath></text><line stroke="#e1ed5e" stroke-width="0.3" x1="143.23703022742887" x2="145.7803849466894" y1="26.81831364943548" y2="22.513508569990506" /><path d="M 143.74570117128098 25.957352633546492 a86.0,86.0 0 0,1 28.547481713284135,27.462654790039103" fill="none" id="id2" stroke="none" /><text fill="#e1ed5e" style="font-size:6.75px; font-family:Arial;" text-anchor="middle"><textPath startOffset="19.985693538727396" xlink:href="#id2">February</textPath></text><line stroke="#e1ed5e" stroke-width="0.3" x1="172.23445277983987" x2="176.4835382374775" y1="55.19839476539836" y2="52.563006222186495" /><path d="M 173.08426987136738 54.67131705675599 a86.0,86.0 0 0,1 12.851231095245387,41.99856678651699" fill="none" id="id3" stroke="none" /><text fill="#e1ed5e" style="font-size:6.75px; font-family:Arial;" text-anchor="middle"><textPath startOffset="22.20632615414155" xlink:href="#id3">March</textPath></text><line stroke="#e1ed5e" stroke-width="0.3" x1="184.98032266829074" x2="189.97916517819016" y1="98.17113171792111" y2="98.06355123074" /><path d="M 185.9800911702706 98.14961562048488 a86.0,86.0 0 0,1 -9.607161424134198,41.387399972396054" fill="none" id="id4" stroke="none" /><text fill="#e1ed5e" style="font-size:6.75px; font-family:Arial;" text-anchor="middle"><textPath startOffset="21.466115282336823" xlink:href="#id4">April</textPath></text><line stroke="#e1ed5e" stroke-width="0.3" x1="174.80103733775053" x2="179.2010983576182" y1="140.37084112569926" y2="142.7455964860345" /><path d="M 175.68104954172406 140.8457921977663 a86.0,86.0 0 0,1 -30.038265399797805,32.042727171017184" fill="none" id="id5" stroke="none" /><text fill="#e1ed5e" style="font-size:6.75px; font-family:Arial;" text-anchor="middle"><textPath startOffset="22.206326154141568" xlink:href="#id5">May</textPath></text><line stroke="#e1ed5e" stroke-width="0.3" x1="143.8653032363475" x2="146.44561519142675" y1="172.8068346515853" y2="177.08958963109032" /><path d="M 144.38136562736335 173.6633856474863 a86.0,86.0 0 0,1 -40.68145358897372,12.25698825130547" fill="none" id="id6" stroke="none" /><text fill="#e1ed5e" style="font-size:6.75px; font-family:Arial;" text-anchor="middle"><textPath startOffset="21.466115282336833" xlink:href="#id6">June</textPath></text><line stroke="#e1ed5e" stroke-width="0.3" x1="102.19456741930631" x2="102.32365962044197" y1="184.97166512339345" y2="189.96999836594603" /><path d="M 102.22038585953345 185.97133177190398 a86.0,86.0 0 0,1 -42.740103519485714,-10.115201625700543" fill="none" id="id7" stroke="none" /><text fill="#e1ed5e" style="font-size:6.75px; font-family:Arial;" text-anchor="middle"><textPath startOffset="22.20632615414155" xlink:href="#id7">July</textPath></text><path d="M 98.01472825383883 120.90594882070398 l -0.14064661522314095 1.481082348220511 a22.487745405835323,22.487745405835323 0 0,0 -0.3850409630367002,-0.03991107015626417 l 0.1661201748654345 -1.4784419096084862" fill="#ff0701" stroke="none" /><path d="M 97.65516085044442 120.86867818915974 l -0.8336109794209962 7.418998982418116 a28.46568504332538,28.46568504332538 0 0,0 -0.48645494029074776,-0.0589029187156408 l 0.9611933427631333 -7.403550534977127" fill="#ff5c08" stroke="none" /><path d="M 96.93821686468263 120.77559828337769 l -0.14298104717824622 0.9701917696414559 a21.98067102013479,21.98067102013479 0 0,0 -0.37384320867674936,-0.05838662072140657 l 0.15966011946351275 -0.9675868415729436" fill="#ff0000" stroke="none" /><path d="M 96.22490169976321 120.6578951692458 l -1.2597620020276157 6.89360363793794 a28.00776508016242,28.00776508016242 0 0,0 -0.473507792710745,-0.09074889543105677 l 1.3782374093100558 -6.8708975441584155" fill="#ff5607" stroke="none" /><path d="M 95.16358092515715 120.4354850818985 l -0.34796748649529735 1.4702787887526931 a22.510894135376116,22.510894135376116 0 0,0 -0.3763035925579577,-0.09248626762982542 l 0.37322436379646556 -1.4640712628088377" fill="#ff0801" stroke="none" /><path d="M 94.81253420990036 120.34920634021253 l -3.681159401407201 14.440321201426089 a35.902141152831845,35.902141152831845 0 0,0 -0.5975305455450317,-0.15781324794906007 l 3.929180389763722 -14.374816604173448" fill="#ffbf11" stroke="none" /><path d="M 94.11515582081647 120.15858648285463 l -4.007806587377594 13.728777387851716 a35.30181254970907,35.30181254970907 0 0,0 -0.5818495605273192,-0.17530649960215594 l 4.24353112234516 -13.657755519143834" fill="#ffb711" stroke="none" /><path d="M 93.42475214034765 119.94407469862007 l -1.8575600456339925 5.63436042230889 a26.932667755033698,26.932667755033698 0 0,0 -0.4390413021568406,-0.14894664704451657 l 1.954271080728059 -5.601550788366251" fill="#ff4706" stroke="none" /><path d="M 90.42595943632237 118.69057910512821 l -3.358535543431949 6.556581187889487 a28.366716898991168,28.366716898991168 0 0,0 -0.43267226134296505,-0.22635367778069865 l 3.4708987073014095 -6.497798091164071" fill="#ff5b08" stroke="none" /><line stroke="#e1ed5e" stroke-width="0.3" x1="58.666819895761336" x2="56.23545636021788" y1="174.27360380694188" y2="178.64263932499728" /><path d="M 58.180547188652646 175.14741091055294 a86.0,86.0 0 0,1 -31.652253787137756,-30.449443065178592" fill="none" id="id8" stroke="none" /><text fill="#e1ed5e" style="font-size:6.75px; font-family:Arial;" text-anchor="middle"><textPath startOffset="22.20632615414155" xlink:href="#id8">August</textPath></text><path d="M 89.7882731507175 118.34994917583269 l -4.817466601236502 8.656740294142567 a30.906923688727026,30.906923688727026 0 0,0 -0.46264902724873763,-0.2627041920697445 l 4.965764395406447 -8.57253293627819" fill="#ff7d0b" stroke="none" /><path d="M 88.8546689885994 117.79835938074946 l -0.8054926531534656 1.2863187019491797 a22.51770689438654,22.51770689438654 0 0,0 -0.32674071747109684,-0.2085413850920442 l 0.8275151726714859 -1.2722628880333313" fill="#ff0801" stroke="none" /><path d="M 88.24862548938628 117.40417183066458 l -4.920386937185049 7.28725475056396 a29.79285445183976,29.79285445183976 0 0,0 -0.42255221837679746,-0.29063526883639645 l 5.0450960401847365 -7.201478692362462" fill="#ff6e0a" stroke="none" /><path d="M 87.65650970185807 116.9893568818739 l -8.87370825516828 12.213611609949428 a36.09685420067814,36.09685420067814 0 0,0 -0.4995375405393737,-0.36954593023509336 l 9.082630766126218 -12.059055730974569" fill="#ffc112" stroke="none" /><path d="M 87.36589467227662 116.77436683061367 l -11.085891065728331 14.718794766788521 a39.42660848089079,39.42660848089079 0 0,0 -0.5385886336239343,-0.4129667976653077 l 11.337608427845753 -14.525788627295848" fill="#ffeb16" stroke="none" /><path d="M 86.79598089348748 116.32954008644616 l -4.331788622696211 5.357165525869355 a27.889384235422163,27.889384235422163 0 0,0 -0.3707028684095796,-0.30506322337828884 l 4.423361619650479 -5.281807183633886" fill="#ff5407" stroke="none" /><path d="M 86.51685102203217 116.09983520530335 l -10.486235173224525 12.521307781204667 a37.332307756708104,37.332307756708104 0 0,0 -0.489114604900978,-0.4168340774113605 l 10.70021525470256 -12.338949313570355" fill="#ffd113" stroke="none" /><path d="M 85.18274418774928 114.88116024355367 l -3.191828808650099 3.2055946508153177 a25.52367198292101,25.52367198292101 0 0,0 -0.30866551347953414,-0.3126765355298004 l 3.2465349471851668 -3.1501776213048527" fill="#ff3304" stroke="none" /><path d="M 84.43433777217949 114.09645910891817 l -11.146138787084206 10.094083202810143 a36.03751726736155,36.03751726736155 0 0,0 -0.41244277885026415,-0.46338383431415464 l 11.318240415582808 -9.900725198755124" fill="#ffc111" stroke="none" /><path d="M 84.19399662182784 113.82643327865904 l -3.128085414674264 2.7363188050224063 a25.15600276277785,25.15600276277785 0 0,0 -0.2822952609669897,-0.3283731643253915 l 3.174723185212032 -2.6820685415354846" fill="#ff2e04" stroke="none" /><path d="M 83.95833913139862 113.55231037782056 l -3.923454897233906 3.314611807108339 a26.136160994600026,26.136160994600026 0 0,0 -0.2873782914799845,-0.34616566490049533 l 3.979929188607427 -3.2465848850940824" fill="#ff3c05" stroke="none" /><path d="M 83.72743513129214 113.27417163493432 l -3.4456617414410937 2.810761900219587 a25.446680480555905,25.446680480555905 0 0,0 -0.2739542216341378,-0.3418000138758199 l 3.4935338751300926 -2.7510340527655077" fill="#ff3204" stroke="none" /><path d="M 83.28015986056508 112.70617746262583 l -5.986160969173063 4.5491597383614595 a28.518575494997698,28.518575494997698 0 0,0 -0.29365812574756617,-0.3934030483639188 l 6.063580361615713 -4.445443810488233" fill="#ff5d08" stroke="none" /><path d="M 83.06392112726016 112.41649034213515 l -12.47194617644319 9.143663088195341 a36.46466993176776,36.46466993176776 0 0,0 -0.3667654835210919,-0.5094051783950951 l 12.62749145233989 -8.927624304349107" fill="#ffc612" stroke="none" /><path d="M 82.85270091963577 112.12312394758628 l -5.564432180257173 3.934048196339186 a27.814663652727198,27.814663652727198 0 0,0 -0.2730328349030263,-0.39332416242888796 l 5.631325922322333 -3.8376827717232858" fill="#ff5307" stroke="none" /><path d="M 82.44556493220864 111.52570212397912 l -0.9137040954920511 0.5999100052740195 a22.09304491607016,22.09304491607016 0 0,0 -0.20598622608376302,-0.3196951972361419 l 0.9238951849528598 -0.5840932081164293" fill="#ff0200" stroke="none" /><path d="M 82.05923443525364 110.91462005526583 l -7.258466205503519 4.415831672909884 a29.49616978525681,29.49616978525681 0 0,0 -0.2601549875181685,-0.43603472316737524 l 7.33340206871992 -4.290234855856397" fill="#ff6a09" stroke="none" /><line stroke="#e1ed5e" stroke-width="0.3" x1="26.63291911575756" x2="22.317208475507996" y1="142.92168965132927" y2="145.44649492493687" /><path d="M 25.769776987707644 143.4266507060508 a86.0,86.0 0 0,1 -11.730757126820373,-40.83630448921669" fill="none" id="id9" stroke="none" /><text fill="#e1ed5e" style="font-size:6.75px; font-family:Arial;" text-anchor="middle"><textPath startOffset="21.46611528233685" xlink:href="#id9">September</textPath></text><path d="M 81.51974371655577 109.97397251340807 l -27.582041010539434 14.886293495251383 a52.342793754447655,52.342793754447655 0 0,0 -0.42110398653885855,-0.7965700453507221 l 27.83419750530318 -14.409308434814534" fill="#7eff26" stroke="none" /><path d="M 81.02952815118164 109.00673069616217 l -5.951053457032311 2.8254192237866502 a27.58771819665955,27.58771819665955 0 0,0 -0.19997861776197076,-0.4307361517262577 l 5.998806691634108 -2.7225630047815654" fill="#ff5007" stroke="none" /><path d="M 80.87730276802145 108.67885076344099 l -4.6802806144741576 2.1241489362766224 a26.13975051278831,26.13975051278831 0 0,0 -0.18242921335948692,-0.4113297162198478 l 4.716150912564925 -2.0432708835640785" fill="#ff3c05" stroke="none" /><path d="M 80.45479744820244 107.68017299344265 l -14.723605324140417 5.785554571608764 a36.81951944409561,36.81951944409561 0 0,0 -0.226713070797123,-0.5918762878502375 l 14.82101267453105 -5.5312547169253685" fill="#ffcb12" stroke="none" /><path d="M 80.32549172779594 107.34259656027581 l -4.058054352487481 1.5144803375890858 a25.331449621164552,25.331449621164552 0 0,0 -0.1489437838943915,-0.40982932446758175 l 4.083522397387097 -1.444403216115387" fill="#ff3004" stroke="none" /><path d="M 80.20201598880116 107.00284435728193 l -23.6265279771972 8.35705787183633 a46.06099041399808,46.06099041399808 0 0,0 -0.2579616575486778,-0.749757326011751 l 23.766880465689102 -7.949127842735281" fill="#c4ff1e" stroke="none" /><path d="M 80.0844068197444 106.66101706037122 l -4.969936319816393 1.6622568213572382 a26.240550043953284,26.240550043953284 0 0,0 -0.1395844179764515,-0.4295966652523161 l 4.997812988809093 -1.5764612561271185" fill="#ff3d05" stroke="none" /><path d="M 79.97269907076064 106.31721596034903 l -3.6373833943127503 1.1473406483303763 a24.814046213738543,24.814046213738543 0 0,0 -0.12498389310519817,-0.4084545941874475 l 3.656594059924079 -1.084559081590881" fill="#ff2904" stroke="none" /><path d="M 79.86692584326677 105.97154293290107 l -8.915305159990059 2.64431189734581 a30.29919628280799,30.29919628280799 0 0,0 -0.14400394692654395,-0.5012966307943129 l 8.959501743802706 -2.4904577910469015" fill="#ff750a" stroke="none" /><path d="M 79.67330655649465 105.27499134158121 l -3.586250206832187 0.9306697541516764 a24.705042069571768,24.705042069571768 0 0,0 -0.10327729397966631,-0.41254145144357435 l 3.601738815106912 -0.8688004633107103" fill="#ff2703" stroke="none" /><path d="M 79.4281124754447 104.21870165774334 l -61.715662573665874 12.656104973230022 a84.0,84.0 0 0,0 -0.2782802680973342,-1.4189450917281805 l 61.92437277473888 -11.591896154433886" fill="#4dd2ff" stroke="none" /><path d="M 79.35854240842038 103.8639653848113 l -3.6637456750483306 0.6858326939524761 a24.72738498890703,24.72738498890703 0 0,0 -0.07471621662831865,-0.41904822195014346 l 3.675008334015838 -0.622665721269119" fill="#ff2803" stroke="none" /><path d="M 79.29508885075956 103.50808413554451 l -7.261900828098115 1.2304017585645666 a28.36539830047302,28.36539830047302 0 0,0 -0.07742166035363515,-0.4821047529268399 l 7.282004242813041 -1.105217775944513" fill="#ff5b08" stroke="none" /><path d="M 79.23777060512086 103.15116336523772 l -11.663997228002787 1.7702896956808565 a32.79757419732932,32.79757419732932 0 0,0 -0.07991042895999335,-0.5588933540272893 l 11.692741707979378 -1.5692508696731664" fill="#ff960d" stroke="none" /><path d="M 79.18660465613746 102.79330883721812 l -11.192932124952494 1.5021727931686046 a32.293283519611535,32.293283519611535 0 0,0 -0.06919757237362627,-0.5515727359165563 l 11.217131206572967 -1.3092823029646397" fill="#ff900d" stroke="none" /><path d="M 79.1416061653843 102.43462659150553 l -14.66908231483004 1.7121998059792962 a35.76866968060614,35.76866968060614 0 0,0 -0.066117020731916,-0.6121614973570535 l 14.69638163706301 -1.4594419867374606" fill="#ffbd11" stroke="none" /><path d="M 79.07016306316243 101.71520430193888 l -8.034391616355345 0.658419991776418 a29.061325296161414,29.061325296161414 0 0,0 -0.03656667733808516,-0.49892325991773445 l 8.044534852357765 -0.5200235953619229" fill="#ff6409" stroke="none" /><path d="M 79.0095281055655 100.63252640178507 l -31.80656767895976 0.9584583857040487 a52.82100548369542,52.82100548369542 0 0,0 -0.019563736646050496,-0.9090499677149038 l 31.81835347829082 -0.41081860219901617" fill="#79ff26" stroke="none" /><line stroke="#e1ed5e" stroke-width="0.3" x1="15.007084014347285" x2="10.007500721073583" y1="101.09737516637583" y2="101.16192664675087" /><path d="M 14.007167355692545 101.11028546245083 a86.0,86.0 0 0,1 10.666146001902534,-42.60595125391555" fill="none" id="id10" stroke="none" /><text fill="#e1ed5e" style="font-size:6.75px; font-family:Arial;" text-anchor="middle"><textPath startOffset="22.20632615414155" xlink:href="#id10">October</textPath></text><path d="M 79.00019446554 99.90962569577889 l -7.767498918752462 -0.03342803861533992 a28.76757084850768,28.76757084850768 0 0,0 0.006393240399552331,-0.4951635145434319 l 7.765772671235194 0.16712781121924378" fill="#ff6008" stroke="none" /><path d="M 79.00486145842228 99.54816195383935 l -5.561000423702665 -0.11967873234884265 a26.562288082381013,26.562288082381013 0 0,0 0.013772300409435344,-0.4570356017553123 l 5.558116428837584 0.2153844815291494" fill="#ff4206" stroke="none" /><path d="M 79.03285615573316 98.82574320788736 l -9.53391100541457 -0.5339430032367869 a30.548850935577043,30.548850935577043 0 0,0 0.03392291187199696,-0.5247724320235866 l 9.52330750253816 0.6979744995133853" fill="#ff780b" stroke="none" /><path d="M 79.05617556472873 98.46500227214037 l -26.54653929869393 -1.9456273438487623 a47.617742475616396,47.617742475616396 0 0,0 0.06694944885442063,-0.816952852759458 l 26.509115366020012 2.4022941138159988" fill="#b2ff20" stroke="none" /><path d="M 79.26566170972629 96.67025291283419 l -31.432411469617396 -5.047760824016829 a52.83514379002888,52.83514379002888 0 0,0 0.15193409427577106,-0.8967236249115724 l 31.340865513821402 5.58807023724423" fill="#79ff26" stroke="none" /><path d="M 79.81627453868168 94.20196356495316 l -3.6386863264854488 -1.045259753314709 a24.785842856544853,24.785842856544853 0 0,0 0.12132564194136833,-0.4090497504188886 l 3.6201547874323734 1.1077388904801369" fill="#ff2803" stroke="none" /><path d="M 80.02781315780177 93.51064311812611 l -2.775726261668618 -0.9018881337670673 a23.918571308970655,23.918571308970655 0 0,0 0.13059848168568647,-0.3904728373516943 l 2.759790486211159 0.9495340740410838" fill="#ff1c02" stroke="none" /><path d="M 80.2630227832202 92.82701384747504 l -1.3760969610552207 -0.5001132816725841 a22.464157143455147,22.464157143455147 0 0,0 0.13520792314814836,-0.36229001288691903 l 1.3672844494054448 0.5237264315888446" fill="#ff0701" stroke="none" /><path d="M 80.803312248108 91.48605970444005 l -6.7917788586802255 -3.0122279661370506 a28.429789861442504,28.429789861442504 0 0,0 0.2022545111675384,-0.4456410055062715 l 6.738922030549336 3.128690980485393" fill="#ff5c08" stroke="none" /><path d="M 80.95270993114464 91.15688171328213 l -12.995994159542384 -6.033672674216501 a35.328331031018465,35.328331031018465 0 0,0 0.26082705960026664,-0.549368306711477 l 12.890208906100366 6.256483396568511" fill="#ffb711" stroke="none" /><path d="M 81.43458229118936 90.18545643968196 l -22.399374510272928 -11.841351501109582 a46.336724015237145,46.336724015237145 0 0,0 0.37884001057929284,-0.7019330037772303 l 22.19222640047516 12.225165488219286" fill="#c1ff1e" stroke="none" /><line stroke="#e1ed5e" stroke-width="0.3" x1="26.266209847984243" x2="21.928928074336255" y1="57.711370442889674" y2="55.22380399835377" /><path d="M 25.398753493254645 57.213857153982495 a86.0,86.0 0 0,1 29.58750427330803,-30.492523968695096" fill="none" id="id11" stroke="none" /><text fill="#e1ed5e" style="font-size:6.75px; font-family:Arial;" text-anchor="middle"><textPath startOffset="21.46611528233685" xlink:href="#id11">November</textPath></text><path d="M 82.15384107792192 88.93136811851018 l -7.00529033998773 -4.344855401929363 a29.24329189166562,29.24329189166562 0 0,0 0.2689998565901903,-0.42549317267039233 l 6.929462887151577 4.4647962223139706" fill="#ff6709" stroke="none" /><path d="M 82.34701348167596 88.62581576622439 l -2.091746012999117 -1.3477552082998085 a23.488341914688768,23.488341914688768 0 0,0 0.22191266979704005,-0.3379882206540554 l 2.0682367078441564 1.383561492931531" fill="#ff1602" stroke="none" /><path d="M 82.54541684631803 88.32363383020206 l -6.197525363419261 -4.145878182981892 a28.456381598225125,28.456381598225125 0 0,0 0.27585824233299544,-0.40478793150443687 l 6.125242655417525 4.251944137756744" fill="#ff5c08" stroke="none" /><path d="M 82.7489923806493 88.02491185347247 l -3.0147199153955526 -2.09272046714872 a24.6698794424212,24.6698794424212 0 0,0 0.24515678621871623,-0.34675688816249467 l 2.978250509372958 2.1443038556430007" fill="#ff2703" stroke="none" /><path d="M 82.95767976084542 87.72973835380427 l -3.151367971162965 -2.2689463058422614 a24.883199380467996,24.883199380467996 0 0,0 0.2532604775182669,-0.3454470067150699 l 3.111844881131065 2.322855756228832" fill="#ff2a04" stroke="none" /><path d="M 83.17141714833178 87.43820079747576 l -19.17046494419895 -14.309911498233207 a44.92238059357864,44.92238059357864 0 0,0 0.46788597420120126,-0.6156830970713647 l 18.921303029773643 14.637779371185598" fill="#d1ff1c" stroke="none" /><path d="M 83.6137871275137 86.86637796730984 l -6.009044009865497 -4.816275329602723 a28.70098162334129,28.70098162334129 0 0,0 0.31229607522958247,-0.382838061927877 l 5.925249442559522 4.918997561138682" fill="#ff5f08" stroke="none" /><path d="M 84.07557802195018 86.31012108654704 l -4.604265964986182 -3.958187219157872 a27.071779898698146,27.071779898698146 0 0,0 0.30682399444380676,-0.35075286553969665 l 4.535450106964532 4.036855640900512" fill="#ff4906" stroke="none" /><path d="M 84.5562425177563 85.77008943001954 l -23.33566042772029 -21.501526513847374 a52.731194273515015,52.731194273515015 0 0,0 0.6208035417112988,-0.6622299340224256 l 22.962089564038532 21.90002586474785" fill="#7aff26" stroke="none" /><path d="M 84.80347519578584 85.50635884689758 l -2.763563533750863 -2.6357406497883784 a24.818954330444974,24.818954330444974 0 0,0 0.2975151305949164,-0.3066154943963683 l 2.7177841394528284 2.6829203397348707" fill="#ff2904" stroke="none" /><path d="M 85.31137513191541 84.99185889309783 l -1.4448415729354136 -1.4762706787378692 a23.065657834149608,23.065657834149608 0 0,0 0.2861423982332502,-0.27526876039005876 l 1.4192159310897356 1.5009225258902417" fill="#ff1001" stroke="none" /><path d="M 86.65592168130627 83.78471172551755 l -7.761097081208244 -9.431031764984086 a33.21388505169743,33.21388505169743 0 0,0 0.44458620040483277,-0.359491121829559 l 7.597607482238911 9.563228984077778" fill="#ff9c0e" stroke="none" /><path d="M 86.93701828274178 83.55741782278169 l -10.058479517690422 -12.660767627730012 a37.16997362802964,37.16997362802964 0 0,0 0.5043920195033875,-0.3936859717560343 l 9.839054943027609 12.832031988709268" fill="#ffcf13" stroke="none" /><path d="M 87.51073957382395 83.11751280151077 l -5.317786176409812 -7.188372568433157 a29.941563062497384,29.941563062497384 0 0,0 0.4169785882531413,-0.30295267763354466 l 5.193262271802889 7.278844480883369" fill="#ff700a" stroke="none" /><path d="M 87.80319425747018 82.90503203632743 l -4.265571868932251 -5.978599314070484 a28.34430072418268,28.34430072418268 0 0,0 0.3996126102241333,-0.2799541710215451 l 4.162028119124458 6.051138327855972" fill="#ff5a08" stroke="none" /><path d="M 88.09926311788651 82.69761687909137 l -8.50256646120051 -12.361811195388178 a36.003599983255896,36.003599983255896 0 0,0 0.513643311402298,-0.3468142567131731 l 8.288518455391673 12.506337364400018" fill="#ffc011" stroke="none" /><path d="M 88.39885842347998 82.49532879139004 l -10.475256023195753 -15.805850769304783 a39.96195947925824,39.96195947925824 0 0,0 0.5766567350708297,-0.37507358124070794 l 10.201632262340635 15.983823274705026" fill="#fff216" stroke="none" /><path d="M 89.00827224532344 82.1063720568725 l -3.076838690310814 -5.008840101777199 a26.878385449370004,26.878385449370004 0 0,0 0.39631274923564436,-0.23877399704086136 l 2.99016387485752 5.061060708276679" fill="#ff4606" stroke="none" /><line stroke="#e1ed5e" stroke-width="0.3" x1="56.762969772571076" x2="54.21961505331055" y1="26.818313649435495" y2="22.513508569990535" /><path d="M 56.25429882871897 25.957352633546506 a86.0,86.0 0 0,1 42.265352541879196,-11.944610805530505" fill="none" id="id12" stroke="none" /><text fill="#e1ed5e" style="font-size:6.75px; font-family:Arial;" text-anchor="middle"><textPath startOffset="22.20632615414155" xlink:href="#id12">December</textPath></text><path d="M 89.3179101791058 81.91981866633112 l -4.461118064651284 -7.5507531683579545 a29.77014525513835,29.77014525513835 0 0,0 0.4434380338471105,-0.25686793114883244 l 4.330483298338853 7.626425256896834" fill="#ff6e0a" stroke="none" /><path d="M 89.63071344664047 81.73862282372117 l -7.233194822938722 -12.738397976705196 a35.64875047092804,35.64875047092804 0 0,0 0.5362181680213209,-0.2984048299527747 l 7.012852565845355 12.861018204218155" fill="#ffbc11" stroke="none" /><path d="M 90.58718382345135 81.22770947309562 l -5.426780693857435 -10.822808169216895 a33.1071518272008,33.1071518272008 0 0,0 0.5116296207321398,-0.251054432910213 l 5.239679806114869 10.914617762261937" fill="#ff9b0e" stroke="none" /><path d="M 90.91171255644093 81.06846463323043 l -5.7228679852185165 -11.921132373327477 a34.22363849470468,34.22363849470468 0 0,0 0.5332723906701353,-0.25037853782171704 l 5.516817383248773 12.017875893789203" fill="#ffa90f" stroke="none" /><path d="M 91.56875222667455 80.76684994638697 l -2.6268900823333468 -5.99239548951575 a27.542885847042573,27.542885847042573 0 0,0 0.43585468210950906,-0.18661022855163398 l 2.5233516424335294 6.03672524603017" fill="#ff4f07" stroke="none" /><path d="M 92.91201910852362 80.23233633223022 l -5.21940825723906 -14.556403093292111 a36.463864121562224,36.463864121562224 0 0,0 0.5926558583847759,-0.20676599188762376 l 4.968070394790999 14.644089938351945" fill="#ffc612" stroke="none" /><path d="M 93.25333710446033 80.11325718540243 l -0.5582680680965318 -1.6455740658359828 a22.7376930804973,22.7376930804973 0 0,0 0.3717257436721253,-0.12255213327228939 l 0.5298595021819972 1.654939923367506" fill="#ff0b01" stroke="none" /><path d="M 93.59665428221793 80.00007090966166 l -2.314575338986489 -7.229243069825928 a28.5907321361296,28.5907321361296 0 0,0 0.46999709230006526,-0.1460303844062434 l 2.189792873975695 7.268013589114696" fill="#ff5e08" stroke="none" /><path d="M 94.28887869178378 79.79150937346287 l -2.0290191467362595 -7.179573361345877 a28.460776926618948,28.460776926618948 0 0,0 0.472587285173562,-0.1291759571260568 l 1.905133972338975 7.2134358592982295" fill="#ff5c08" stroke="none" /><path d="M 94.98787191387505 79.60689891045804 l -1.3502260579453773 -5.493733603823823 a26.657227175687556,26.657227175687556 0 0,0 0.4465419567459767,-0.1056820539697835 l 1.2554604142368666 5.516161569934477" fill="#ff4306" stroke="none" /><path d="M 95.692805502759 79.44645832069477 l -2.3305319689224206 -11.121087285211582 a32.36265645276069,32.36265645276069 0 0,0 0.5462101202730246,-0.1095646116487436 l 2.138755439182259 11.159555852937537" fill="#ff910d" stroke="none" /><path d="M 96.40284397218896 79.31037775812273 l -0.9211479022617812 -5.298130517371905 a26.377611034367284,26.377611034367284 0 0,0 0.4480058794184509,-0.07392480876654503 l 0.8298128167044447 5.313201589078077" fill="#ff3f05" stroke="none" /><path d="M 97.47563105711357 79.15227682838746 l -0.4458513819026983 -3.682102892202531 a24.70899786512621,24.70899786512621 0 0,0 0.42268070266955377,-0.047493101882039854 l 0.38240397572342655 3.6892319475551694" fill="#ff2703" stroke="none" /><path d="M 98.19473922651362 79.07773832637324 l -1.639645660945329 -19.002847718268267 a40.073454309514844,40.073454309514844 0 0,0 0.6877555275852094,-0.05338306559577703 l 1.3122999439977854 19.028256046052505" fill="#fff316" stroke="none" /><path d="M 98.55514903715128 79.0497635885617 l -0.5096805669524099 -7.390332045677533 a28.40788647494663,28.40788647494663 0 0,0 0.4881258834483965,-0.029445086303571434 l 0.38239263466439044 7.39801040136141" fill="#ff5b08" stroke="none" /><path d="M 98.91598698831166 79.02799685794201 l -0.6712971447806249 -12.987340260488946 a34.00467788521914,34.00467788521914 0 0,0 0.5848143409473763,-0.025183335710841605 l 0.4476419714439244 12.99697132272398" fill="#ffa60f" stroke="none" /></svg>