<?xml version="1.0" encoding="utf-8" ?>
<svg baseProfile="full" height="200mm" version="1.1" viewBox="0,0,200,200" width="200mm" xmlns="http://www.w3.org/2000/svg" xmlns:ev="http://www.w3.org/2001/xml-events" xmlns:xlink="http://www.w3.org/1999/xlink"><defs /><rect fill="#1a1a1a" height="200" width="200" x="0" y="0" /><text alignment-baseline="middle" fill="#e1ed5e" style="dominant-baseline: central; font-size:9.0px; font-family:Arial;" text-anchor="middle" x="100.0" y="100.0">2021</text><line stroke="#e1ed5e" stroke-width="0.3" x1="100.0" x2="100.0" y1="15.0" y2="10.0" /><path d="M 100.0 14.0 a86.0,86.0 0 0,1 42.46469731375804,11.215312516191453" fill="none" id="id73" stroke="none" /><text fill="#e1ed5e" style="font-size:6.75px; font-family:Arial;" text-anchor="middle"><textPath startOffset="22.20632615414155" xlink:href="#id73">January</textPath></text><path d="M 100.0 79.0 l 0.0 -24.620692269252686 a45.620692269252686,45.620692269252686 0 0,0 0.7852852241063806,0.006759197847276916 l -0.42380474483385216 24.617044448013967" fill="#c9ff1d" stroke="none" /><path d="M 100.72285384407766 79.0124445844662 l 2.1685615322329816 -62.9626662466014 a84.0,84.0 0 0,0 1.4446366704426739,0.062209093903220936 l -3.2520390350649873 62.916009426173986" fill="#4dd2ff" stroke="none" /><path d="M 101.44485096284872 79.0497635885617 l 0.776620319376268 -11.260939509484286 a32.28768788356288,32.28768788356288 0 0,0 0.5541333083829871,0.043011409670636304 l -0.9703438171215962 11.245902837625184" fill="#ff900d" stroke="none" /><path d="M 101.80526077348638 79.07773832637324 l 2.432151607693349 -28.187679649084394 a49.29241321347848,49.29241321347848 0 0,0 0.8447190924102732,0.08021625624302198 l -2.9169958271938663 28.141637848326194" fill="#9fff22" stroke="none" /><path d="M 102.88285421437855 79.19881850522331 l 1.4543605267642241 -10.493911598156544 a31.594212815104967,31.594212815104967 0 0,0 0.5380509781723819,0.07929472780705869 l -1.6347804853652617 10.467322386188515" fill="#ff870c" stroke="none" /><path d="M 103.59715602781102 79.31037775812273 l 0.7537645903282211 -4.335398440496431 a25.400436421025937,25.400436421025937 0 0,0 0.43011995797297115,0.0786016730619781 l -0.828279669404093 4.321781286083715" fill="#ff3204" stroke="none" /><path d="M 103.95276090670814 79.375362276772 l 1.837896879571695 -9.589742007792125 a30.764272462193603,30.764272462193603 0 0,0 0.5192329309003295,0.10415324124880222 l -2.00269621993915 9.556684810466114" fill="#ff7c0b" stroke="none" /><path d="M 104.66035177308747 79.52364482259891 l 2.178560266750404 -9.572018587730248 a30.816805217570376,30.816805217570376 0 0,0 0.5162201009062369,0.12217261948196866 l -2.3430040546191644 9.533100056107411" fill="#ff7c0b" stroke="none" /><path d="M 105.01212808612495 79.60689891045804 l 3.121362491158907 -12.700046711799299 a34.07800024021631,34.07800024021631 0 0,0 0.5684390750255883,0.14490777704799612 l -3.33951045486952 12.644435938582435" fill="#ffa80f" stroke="none" /><path d="M 105.36241919743992 79.69619591428918 l 4.5990979960918095 -17.41363016308265 a39.01072507797167,39.01072507797167 0 0,0 0.6477677227429638,0.17705938819313982 l -4.898163608058485 17.331884234063217" fill="#ffe615" stroke="none" /><path d="M 106.0581310904928 79.89281104454417 l 3.7986132958596834 -12.607755455873525 a34.167572312563564,34.167572312563564 0 0,0 0.5616736067267245,0.17451472369701393 l -4.015072275297126 12.54050059729399" fill="#ffa90f" stroke="none" /><path d="M 106.40334571778207 80.00007090966166 l 2.4511309610484817 -7.655754908870114 a29.03857115493166,29.03857115493166 0 0,0 0.4747352521439943,0.15651274865999448 l -2.5825490354348934 7.612428435950884" fill="#ff6409" stroke="none" /><path d="M 106.74666289553966 80.11325718540242 l 6.636028317710633 -19.560631753506645 a41.65563328561363,41.65563328561363 0 0,0 0.6770389177390874,0.23620558439153655 l -6.971749239512994 19.4435053159429" fill="#f7ff18" stroke="none" /><path d="M 107.08798089147638 80.2323363322302 l 6.2572633097428785 -17.450876135461634 a39.53878156790998,39.53878156790998 0 0,0 0.6386787392977403,0.23523076971496162 l -6.556724374813195 17.34058209794035" fill="#ffed16" stroke="none" /><path d="M 107.76421540070413 80.48803036053334 l 5.947524030164188 -14.946508090957607 a37.086365226565064,37.086365226565064 0 0,0 0.5911145076032212,0.24113044965272926 l -6.203922407355797 14.841916755121298" fill="#ffce13" stroke="none" /><path d="M 108.09893153111575 80.62456947434976 l 2.6744309702285136 -6.398158974455634 a27.934624667343186,27.934624667343186 0 0,0 0.44205378557092634,0.18926436113580267 l -2.7841685135897554 6.35117508535704" fill="#ff5507" stroke="none" /><path d="M 109.08828744355905 81.06846463323043 l 5.292766917580127 -11.025201910756994 a33.229818429428555,33.229818429428555 0 0,0 0.5135252796369453,0.2519846245020457 l -5.4817634642275035 10.932462126120118" fill="#ff9d0e" stroke="none" /><path d="M 109.41281617654863 81.2277094730956 l 3.7911106567786663 -7.560737332362037 a29.45797073894878,29.45797073894878 0 0,0 0.45132348296067076,0.23118541747163812 l -3.9206946273280927 7.494359389577898" fill="#ff6a09" stroke="none" /><path d="M 110.05341064243156 81.56283822128135 l 5.373822840042313 -9.855167026985187 a32.225074122068705,32.225074122068705 0 0,0 0.4847202210966478,0.2697462782448372 l -5.542667150210997 9.76120535118017" fill="#ff8f0d" stroke="none" /><path d="M 110.36928655335952 81.73862282372117 l 6.26874490670924 -11.039902752634944 a33.6955352582327,33.6955352582327 0 0,0 0.5019082633383317,0.2907376620623224 l -6.4578499025128995 10.930360933182573" fill="#ffa30f" stroke="none" /><line stroke="#e1ed5e" stroke-width="0.3" x1="143.23703022742887" x2="145.7803849466894" y1="26.81831364943548" y2="22.513508569990506" /><path d="M 143.74570117128098 25.957352633546492 a86.0,86.0 0 0,1 28.547481713284135,27.462654790039103" fill="none" id="id74" stroke="none" /><text fill="#e1ed5e" style="font-size:6.75px; font-family:Arial;" text-anchor="middle"><textPath startOffset="19.985693538727396" xlink:href="#id74">February</textPath></text><path d="M 110.68208982089419 81.91981866633111 l 2.087841635904267 -3.5338174464042384 a25.10450343417159,25.10450343417159 0 0,0 0.37015745580900544,0.223015725404884 l -2.14836115793091 3.49735511154074" fill="#ff2d04" stroke="none" /><path d="M 110.99172775467656 82.1063720568725 l 3.896880488412238 -6.343800643062179 a28.445097993974567,28.445097993974567 0 0,0 0.41500158258323633,0.2598739529413042 l -4.005501223367737 6.275782348797931" fill="#ff5c08" stroke="none" /><path d="M 111.2981086023043 82.29822771554956 l 2.5535400496239253 -4.000862982362185 a25.74631134552606,25.74631134552606 0 0,0 0.3715229191485092,0.24164884119652077 l -2.6220299945567147 3.9563152170061358" fill="#ff3705" stroke="none" /><path d="M 111.60114157652 82.49532879139004 l 7.200283312431223 -10.864326683853585 a34.033712981064475,34.033712981064475 0 0,0 0.4855400305258121,0.3278387960150219 l -7.386228037363576 10.738775975539895" fill="#ffa70f" stroke="none" /><path d="M 112.19680574252982 82.90503203632743 l 17.447122607233446 -24.45377981129177 a51.03979750815537,51.03979750815537 0 0,0 0.7108013254102029,0.5164273918730868 l -17.865469248997435 24.14983318460201" fill="#8cff24" stroke="none" /><path d="M 112.48926042617603 83.11751280151076 l 7.762747476489287 -10.49337434122682 a34.0526301352968,34.0526301352968 0 0,0 0.46822990124810226,0.35266105419620514 l -7.942223531495773 10.358196697524768" fill="#ffa70f" stroke="none" /><path d="M 113.34407831869373 83.78471172551755 l 2.6028584391009835 -3.162908589090437 a25.096201020084496,25.096201020084496 0 0,0 0.331201093508349,0.27737139097969815 l -2.65691706956845 3.1176360407169197" fill="#ff2d04" stroke="none" /><path d="M 113.6212207817346 84.01681056812373 l 7.015871438473337 -8.232448767086904 a31.81645342725131,31.81645342725131 0 0,0 0.4137747969547022,0.3588214265145578 l -7.156540034074804 8.110462347152673" fill="#ff8a0c" stroke="none" /><path d="M 113.89432698308785 84.25364557470405 l 21.930006938515493 -24.853140582007633 a54.14519273005321,54.14519273005321 0 0,0 0.6935458056610377,0.6226722721278766 l -22.354563731772522 24.47196930111046" fill="#6bff28" stroke="none" /><path d="M 114.16331599549186 84.49514656593476 l 7.566152500686558 -8.282812133844319 a32.21836175687895,32.21836175687895 0 0,0 0.40624610429843594,0.37756147964552844 l -7.707606488779841 8.15134606812415" fill="#ff8f0d" stroke="none" /><path d="M 114.42810811169701 84.74124197986012 l 19.64752208997629 -20.778662243544808 a49.59681676179048,49.59681676179048 0 0,0 0.6152762776157518,0.5918952915836025 l -20.002281611204467 20.437383865198903" fill="#9cff22" stroke="none" /><path d="M 114.68862486808459 84.99185889309783 l 12.43525375898803 -12.705753247231295 a38.77840548614961,38.77840548614961 0 0,0 0.4730304386736531,0.47099909564140574 l -12.652119997829002 12.489818300939769" fill="#ffe315" stroke="none" /><path d="M 114.94478906791727 85.2469230424477 l 8.503238953359059 -8.394159201394833 a32.94851377353202,32.94851377353202 0 0,0 0.39496754165087317,0.4070487702983056 l -8.646470758713042 8.246546235546415" fill="#ff990e" stroke="none" /><path d="M 115.19652480421416 85.50635884689758 l 8.084381439742891 -7.710455189066768 a32.171765414913885,32.171765414913885 0 0,0 0.37875770097462863,0.4040323072827461 l -8.215906462687984 7.570153464905967" fill="#ff8f0d" stroke="none" /><path d="M 115.68641384162765 86.03803664274999 l 4.96514542577317 -4.419313375125732 a27.6470293971549,27.6470293971549 0 0,0 0.31334371163929925,0.3582060293412211 l -5.040481000990317 4.333191789581563" fill="#ff5107" stroke="none" /><path d="M 115.9244219780498 86.31012108654704 l 3.1180600120199617 -2.680528314828072 a25.11187673516035,25.11187673516035 0 0,0 0.27896830084441393,0.3302104770681705 l -3.163738926351493 2.6264588881307946" fill="#ff2e04" stroke="none" /><path d="M 116.15771136456269 86.58626213691792 l 12.534485046129088 -10.405823749658763 a37.29093254791131,37.29093254791131 0 0,0 0.4057635390035552,0.49741812079745124 l -12.711747077209052 10.188521459253211" fill="#ffd113" stroke="none" /><path d="M 116.38621287248628 86.86637796730983 l 7.701834608706487 -6.173054475502809 a30.870403127400333,30.870403127400333 0 0,0 0.3287637947553531,0.4174966328532193 l -7.806952484055804 6.0395654486965515" fill="#ff7d0b" stroke="none" /><path d="M 116.60985879189232 87.15038557335679 l 10.63025319346251 -8.223709575439685 a34.43992865078897,34.43992865078897 0 0,0 0.3587067148996397,0.47201598967943054 l -10.770235848586262 8.039508809879221" fill="#ffac0f" stroke="none" /><path d="M 116.82858285166822 87.43820079747576 l 10.567181045958295 -7.887937303222742 a34.186541250746274,34.186541250746274 0 0,0 0.3479496197204596,0.47460289026505936 l -10.70139327819238 7.704871969286189" fill="#ffa90f" stroke="none" /><path d="M 117.04232023915458 87.72973835380427 l 3.11199637640831 -2.240599240284974 a24.834684654876337,24.834684654876337 0 0,0 0.24679453707727875,0.3490733706064839 l -3.1501035332894713 2.186699369346697" fill="#ff2a04" stroke="none" /><path d="M 117.2510076193507 88.02491185347247 l 8.059825715333082 -5.5948687471738365 a30.81138863054802,30.81138863054802 0 0,0 0.29868785256914887,0.438287567500049 l -8.154938033570964 5.455303156403382" fill="#ff7c0b" stroke="none" /><path d="M 117.45458315368197 88.32363383020206 l 10.426526088244039 -6.974897963094981 a33.54438710596975,33.54438710596975 0 0,0 0.31691996508003034,0.48269084944591845 l -10.545042688681994 6.794389049671389" fill="#ffa10e" stroke="none" /><path d="M 117.65298651832404 88.62581576622439 l 19.672944102528966 -12.675684672996498 a44.40294237036163,44.40294237036163 0 0,0 0.4084487195921456,0.646067785222597 l -19.888220418367066 12.335169240059695" fill="#d7ff1c" stroke="none" /><line stroke="#e1ed5e" stroke-width="0.3" x1="172.23445277983987" x2="176.4835382374775" y1="55.19839476539836" y2="52.563006222186495" /><path d="M 173.08426987136738 54.67131705675599 a86.0,86.0 0 0,1 12.851231095245387,41.99856678651699" fill="none" id="id75" stroke="none" /><text fill="#e1ed5e" style="font-size:6.75px; font-family:Arial;" text-anchor="middle"><textPath startOffset="22.20632615414155" xlink:href="#id75">March</textPath></text><path d="M 117.84615892207809 88.93136811851018 l 3.965198354085155 -2.4593146967979167 a25.665943287817143,25.665943287817143 0 0,0 0.22962977456488443,0.3774509723008252 l -4.0069439269362634 2.39069595129001" fill="#ff3505" stroke="none" /><path d="M 118.03404312379186 89.2402003453031 l 13.121005762677283 -7.828493716324578 a36.27894322558808,36.27894322558808 0 0,0 0.31535095744149744,0.5390370087822696 l -13.253816394589105 7.601477295188413" fill="#ffc412" stroke="none" /><path d="M 118.21658344932153 89.55222093294921 l 9.913196093908102 -5.685527306788155 a32.42789033691296,32.42789033691296 0 0,0 0.2735406181995717,0.4865982372946393 l -10.009594353400107 5.514045559558722" fill="#ff920d" stroke="none" /><path d="M 118.3937258080291 89.86733742301442 l 3.617899754034985 -1.9930142390724093 a25.13053318439542,25.13053318439542 0 0,0 0.20546233381344267,0.3806905002357565 l -3.6516701870668924 1.930442755504194" fill="#ff2e04" stroke="none" /><path d="M 118.56541770881063 90.18545643968196 l 8.854070530398344 -4.680673619612833 a31.015152045306547,31.015152045306547 0 0,0 0.24544884281117485,0.4741290395136314 l -8.933328806369635 4.527571857838856" fill="#ff7f0b" stroke="none" /><path d="M 118.73160827565052 90.50648371742162 l 19.415124696380136 -9.839934709342176 a42.76629003895948,42.76629003895948 0 0,0 0.3271417275185354,0.6594977602185667 l -19.58162643685208 9.504277360624659" fill="#eaff1a" stroke="none" /><path d="M 118.89224826269711 90.83032412892265 l 25.90844789442706 -12.575108383668672 a49.7989760783132,49.7989760783132 0 0,0 0.3676630093339455,0.7743920634146894 l -26.12106909760276 12.127273904613443" fill="#9aff23" stroke="none" /><path d="M 119.04729006885535 91.15688171328212 l 17.289501017331684 -8.027026525132419 a40.06200409882163,40.06200409882163 0 0,0 0.2850081233413737,0.6279776205243406 l -17.425111457636405 7.7282268957660145" fill="#fff316" stroke="none" /><path d="M 119.196687751892 91.48605970444005 l 21.561375311740708 -9.5627050075984 a44.58682327902783,44.58682327902783 0 0,0 0.305120986847568,0.7042613058009288 l -21.722787008430956 9.190144557210868" fill="#d5ff1c" stroke="none" /><path d="M 119.34039704204932 91.81776055985345 l 3.8094496282578527 -1.611643697169943 a25.136339187840075,25.136339187840075 0 0,0 0.1651556989997402,0.39993762516040643 l -3.8366270141437906 1.5458315015562334" fill="#ff2e04" stroke="none" /><path d="M 119.47837535516314 92.15188598940014 l 13.005114527550331 -5.239945307146415 a35.02105668972872,35.02105668972872 0 0,0 0.22047664687336957,0.5610890177552559 l -13.093384724305402 5.015307284495374" fill="#ffb410" stroke="none" /><path d="M 119.61058180528143 92.48833698450437 l 6.820824470807757 -2.6126575652516157 a28.304082831871256,28.304082831871256 0 0,0 0.17035743793421196,0.4564732372742887 l -6.864786497243594 2.4948611909479936" fill="#ff5a08" stroke="none" /><path d="M 119.85752413597 93.16781622104841 l 11.45787739647719 -3.9421996193184303 a33.11709091619178,33.11709091619178 0 0,0 0.1808235841360419,0.5406395009065547 l -11.524038274385003 3.7443870154895613" fill="#ff9b0e" stroke="none" /><path d="M 120.18372546131832 94.20196356495316 l 12.70493514488923 -3.6496570970582125 a34.21875084726045,34.21875084726045 0 0,0 0.1577537036527754,0.5675240062487609 l -12.76587561910837 3.4304217873904994" fill="#ffa90f" stroke="none" /><path d="M 120.37134235888165 94.90015583598534 l 3.108895064647127 -0.7782933531163234 a24.2048352635498,24.2048352635498 0 0,0 0.09770362406853748,0.4050445988982186 l -3.1218314889764844 0.7246635225586987" fill="#ff2103" stroke="none" /><path d="M 120.6074358757038 95.95851677861258 l 12.999753286783303 -2.549481900979905 a34.24739383730466,34.24739383730466 0 0,0 0.10847336233629835,0.5794690390556129 l -13.04171237302946 2.3253347844617296" fill="#ffaa0f" stroke="none" /><path d="M 120.73433829027371 96.67025291283417 l 12.3024466793082 -1.9756616016367046 a33.46007355762409,33.46007355762409 0 0,0 0.08642913312326787,0.5694599994724311 l -12.33463170587077 1.763602489772191" fill="#ffa00e" stroke="none" /><path d="M 120.78858239683441 97.02765380044208 l 4.221659016827216 -0.6036117275801621 a25.264592826053953,25.264592826053953 0 0,0 0.057848700250064916,0.43104000975141893 l -4.231423716135117 0.5308533757640789" fill="#ff3004" stroke="none" /><path d="M 120.87857604477298 97.74499172005257 l 17.607777545861968 -1.9017429192606072 a38.71017945238045,38.71017945238045 0 0,0 0.06584947025694099,0.6630951790401736 l -17.637904141801137 1.5983722095159987" fill="#ffe315" stroke="none" /><path d="M 120.91429891909075 98.10471618934814 l 12.910067552170496 -1.1699288664042118 a33.96296948056468,33.96296948056468 0 0,0 0.04775115261601993,0.5826850111497499 l -12.92829318860601 0.947529938046693" fill="#ffa60f" stroke="none" /><path d="M 120.94382443527127 98.46500227214037 l 9.394515681995252 -0.6885351942656135 a30.419713669374303,30.419713669374303 0 0,0 0.033779511646891025,0.5225540940116581 l -9.404975784646558 0.5267220360009202" fill="#ff770b" stroke="none" /><path d="M 120.96714384426684 98.82574320788733 l 3.7588180848375954 -0.2105111549393682 a24.764708267748787,24.764708267748787 0 0,0 0.020173085791013318,0.42582195729550754 l -3.7618847788621053 0.1457780910208609" fill="#ff2903" stroke="none" /><path d="M 120.98425023603335 99.18683210126433 l 9.876817985799699 -0.38273997104342533 a30.884231047990063,30.884231047990063 0 0,0 0.016013187816808053,0.5313997453077388 l -9.881942868072151 0.2126700783106874" fill="#ff7d0b" stroke="none" /><line stroke="#e1ed5e" stroke-width="0.3" x1="184.98032266829074" x2="189.97916517819016" y1="98.17113171792111" y2="98.06355123074" /><path d="M 185.9800911702706 98.14961562048488 a86.0,86.0 0 0,1 -9.607161424134198,41.387399972396054" fill="none" id="id76" stroke="none" /><text fill="#e1ed5e" style="font-size:6.75px; font-family:Arial;" text-anchor="middle"><textPath startOffset="21.466115282336823" xlink:href="#id76">April</textPath></text><path d="M 120.99513854157772 99.54816195383933 l 7.281727875998728 -0.15671064468801965 a28.28341397191286,28.28341397191286 0 0,0 0.0062856424616010405,0.4868299356720292 l -7.283346525578044 0.03134445095552772" fill="#ff5a08" stroke="none" /><path d="M 120.99824983174949 100.27111621757518 l 15.829057265302495 0.2043748487581579 a36.830376590183526,36.830376590183526 0 0,0 -0.01364116001933411,0.6338511041894128 l -15.823194042598153 -0.4768157687376856" fill="#ffcb12" stroke="none" /><path d="M 120.9764740272857 100.99374915477107 l 12.898190710058612 0.6110448352532436 a33.9126565579563,33.9126565579563 0 0,0 -0.03264278762544082,0.582858901236639 l -12.885761571545642 -0.8329754528253059" fill="#ffa50f" stroke="none" /><path d="M 120.95626037817324 101.35467743843564 l 13.131279729499203 0.8488465053558606 a34.1586871580721,34.1586871580721 0 0,0 -0.04298047934402667,0.5864344924994184 l -13.11472269149084 -1.0747541343520493" fill="#ffa90f" stroke="none" /><path d="M 120.89721153311464 102.0752229133903 l 3.7663232554624813 0.37401929470757245 a24.784848913424558,24.784848913424558 0 0,0 -0.04581384726015697,0.424179326714977 l -3.7593271067012726 -0.43879494330734087" fill="#ff2904" stroke="none" /><path d="M 120.8583938346157 102.4346265915055 l 6.536492422646284 0.7629503207931019 a27.580868208930383,27.580868208930383 0 0,0 -0.05909987824111688,0.4710841784705974 l -6.522391035158319 -0.8753522535510943" fill="#ff5007" stroke="none" /><path d="M 120.81339534386255 102.79330883721812 l 53.163760783342305 7.1349628622535315 a74.64040599840928,74.64040599840928 0 0,0 -0.18185939073403679,1.2719241552262561 l -53.03306734159167 -8.049032489460197" fill="#41ffd2" stroke="none" /><path d="M 120.76222939487914 103.15116336523771 l 19.344106909215082 2.9359294643278813 a40.565637069481056,40.565637069481056 0 0,0 -0.11072148333520662,0.689462782420241 l -19.29070367151859 -3.2684714764413267" fill="#fff917" stroke="none" /><path d="M 120.70491114924044 103.5080841355445 l 8.028541124942217 1.360295513898383 a29.142964845805274,29.142964845805274 0 0,0 -0.08805832382144292,0.4938778446030039 l -8.003936358781585 -1.4982921092346053" fill="#ff6609" stroke="none" /><path d="M 120.64145759157962 103.86396538481128 l 9.117997487069522 1.706838119959372 a30.276377231546405,30.276377231546405 0 0,0 -0.10030140920251239,0.511434724619224 l -9.087266144891345 -1.8635365716465409" fill="#ff750a" stroke="none" /><path d="M 120.5718875245553 104.21870165774334 l 3.9963711367054415 0.8195406240313539 a25.079537853327267,25.079537853327267 0 0,0 -0.09036511142946309,0.4221557165038222 l -3.9816719865515355 -0.8882101599513451" fill="#ff2d04" stroke="none" /><path d="M 120.49622156327973 104.57218783832717 l 10.312682875125322 2.300498317536133 a31.566159216663813,31.566159216663813 0 0,0 -0.1228666661960078,0.5293063822529905 l -10.271555642998761 -2.4776733571376885" fill="#ff860c" stroke="none" /><path d="M 120.23288151984713 105.62410040840565 l 27.322097762548484 7.594678050880479 a49.35799994433286,49.35799994433286 0 0,0 -0.23458532490571024,0.8166222907001767 l -27.187319800756672 -8.063857817085237" fill="#9eff22" stroke="none" /><path d="M 120.02730092923936 106.31721596034902 l 8.864854540934628 2.7962430279561215 a30.295408603354804,30.295408603354804 0 0,0 -0.16115389998208524,0.4959807049264547 l -8.815408389936296 -2.9484226328603715" fill="#ff750a" stroke="none" /><path d="M 119.9155931802556 106.66101706037122 l 3.8767527561713484 1.2966280247830957 a25.087842483160898,25.087842483160898 0 0,0 -0.1405028718034127,0.40836711339715737 l -3.853859053424705 -1.3631678412695534" fill="#ff2d04" stroke="none" /><path d="M 119.79798401119884 107.00284435728193 l 10.285675285540462 3.6381978636530663 a31.910160391793863,31.910160391793863 0 0,0 -0.18762526837230908,0.5162641567142696 l -10.221525756162926 -3.814709817373467" fill="#ff8b0c" stroke="none" /><path d="M 119.54520255179757 107.68017299344265 l 14.104688720740581 5.542354913276874 a36.15453535723583,36.15453535723583 0 0,0 -0.23258967664291982,0.5772685028871678 l -14.007196429840272 -5.784322784006855" fill="#ffc212" stroke="none" /><path d="M 119.41010516605496 108.01547362559984 l 3.773003309864824 1.5580754591897479 a25.08205256124664,25.08205256124664 0 0,0 -0.16822773775878408,0.39764067839139317 l -3.745624590913729 -1.6227906632473046" fill="#ff2d04" stroke="none" /><path d="M 119.12269723197855 108.67885076344098 l 6.584075788985662 2.98818783221823 a28.23044400543454,28.23044400543454 0 0,0 -0.20463762645280756,0.4407712419614579 l -6.531663545693023 -3.1010791414585186" fill="#ff5908" stroke="none" /><path d="M 118.97047184881838 109.00673069616215 l 5.924285444936907 2.8127104056752006 a27.558086447988074,27.558086447988074 0 0,0 -0.20714067617833778,0.42677114596901883 l -5.874991512143855 -2.914270507609495" fill="#ff5007" stroke="none" /><path d="M 118.81262510543309 109.33194174019688 l 0.8505394095422529 0.4219073187876102 a21.94943302703826,21.94943302703826 0 0,0 -0.17080978774837102,0.3370239159562985 l -0.8431509520076128 -0.436485446446603" fill="#ff0000" stroke="none" /><path d="M 118.64920377521936 109.65438752849418 l 8.788715548570043 4.549774178367007 a30.89656334632442,30.89656334632442 0 0,0 -0.24856651818248643,0.47019417766311355 l -8.709096522162664 -4.700383371116255" fill="#ff7d0b" stroke="none" /><line stroke="#e1ed5e" stroke-width="0.3" x1="174.80103733775053" x2="179.2010983576182" y1="140.37084112569926" y2="142.7455964860345" /><path d="M 175.68104954172406 140.8457921977663 a86.0,86.0 0 0,1 -30.038265399797805,32.042727171017184" fill="none" id="id77" stroke="none" /><text fill="#e1ed5e" style="font-size:6.75px; font-family:Arial;" text-anchor="middle"><textPath startOffset="22.206326154141568" xlink:href="#id77">May</textPath></text><path d="M 118.48025628344425 109.97397251340804 l 2.4940077237434637 1.3460400171576292 a23.834060382892673,23.834060382892673 0 0,0 -0.19796297092065354,0.3593602944528901 l -2.4704683433713033 -1.3887708300083255" fill="#ff1b02" stroke="none" /><path d="M 118.12598468904814 110.60418214915192 l 15.012182546035731 8.782525247892725 a38.39248040175331,38.39248040175331 0 0,0 -0.33862007618027246,0.5675467250685277 l -14.85878159415723 -9.039634066847357" fill="#ffdf14" stroke="none" /><path d="M 117.94076556474637 110.91462005526583 l 9.06362298437722 5.514034551181118 a31.60913939179565,31.60913939179565 0 0,0 -0.28679327446673203,0.46240207540695577 l -8.967365070242526 -5.669232957953348" fill="#ff870c" stroke="none" /><path d="M 117.75023020441432 111.22182372390056 l 11.42352276519462 7.222033590589635 a34.514978414726556,34.514978414726556 0 0,0 -0.32180309115474026,0.49944554378155676 l -11.297514810662829 -7.417600734292645" fill="#ffad10" stroke="none" /><path d="M 117.35343817320211 111.8261652097733 l 7.6705964555393535 5.227421795917868 a30.282455958213326,30.282455958213326 0 0,0 -0.29725704762517424,0.4282209475822952 l -7.579478500752043 -5.358684005687183" fill="#ff750a" stroke="none" /><path d="M 117.14729908036423 112.12312394758627 l 8.275992875553381 5.8511189983596745 a31.135465041584222,31.135465041584222 0 0,0 -0.3131637805031229,0.4349571010405671 l -8.174049302674655 -5.992709704851373" fill="#ff810b" stroke="none" /><path d="M 116.93607887273984 112.41649034213515 l 5.983092859392338 4.386435329155063 a28.41877449859283,28.41877449859283 0 0,0 -0.2926304666501683,0.392026331065308 l -5.906701126047078 -4.488774539729686" fill="#ff5c08" stroke="none" /><path d="M 116.71984013943494 112.70617746262583 l 11.092895988933225 8.430003148020488 a34.93259826798025,34.93259826798025 0 0,0 -0.3679453616065305,0.4756189794103251 l -10.946143810108627 -8.619700121544064" fill="#ffb310" stroke="none" /><path d="M 116.498646956653 112.99209946851258 l 1.995542044899245 1.5714186023281942 a23.53998907019376,23.53998907019376 0 0,0 -0.2534271371045392,0.3161893197416125 l -1.9681969957398517 -1.605535755648057" fill="#ff1702" stroke="none" /><path d="M 116.27256486870786 113.27417163493432 l 7.231380186774855 5.8989214380888875 a30.33220946713181,30.33220946713181 0 0,0 -0.3335156427632223,0.40174107667380154 l -7.128768544118089 -6.022523771876459" fill="#ff760a" stroke="none" /><path d="M 116.0416608686014 113.55231037782055 l 5.672501069318973 4.7922403883004 a28.42582226562705,28.42582226562705 0 0,0 -0.3189884732621278,0.37105565991297684 l -5.589170086486065 -4.889173147374906" fill="#ff5c08" stroke="none" /><path d="M 115.32070863581623 114.36230785411682 l 7.44203444254466 6.976491248903162 a31.200750305249286,31.200750305249286 0 0,0 -0.3706848949152605,0.38866163033997053 l -7.320842996250435 -7.1035599958256395" fill="#ff820b" stroke="none" /><path d="M 115.07121518719521 114.62390073753431 l 2.508207506589194 2.433763777499685 a24.49489785555743,24.49489785555743 0 0,0 -0.29622423565361267,0.30007358677689433 l -2.4659426458800455 -2.476577858257244" fill="#ff2503" stroke="none" /><path d="M 114.81725581225074 114.88116024355365 l 5.01794413218816 5.039585714822655 a28.111764021029252,28.111764021029252 0 0,0 -0.34584169398254005,0.3384788875896281 l -4.930452485829826 -5.125214705334855" fill="#ff5808" stroke="none" /><path d="M 114.29624159901734 115.38237550388516 l 7.809848318664707 8.403188952426781 a32.47202315769705,32.47202315769705 0 0,0 -0.4127046481196081,0.37699591092450135 l -7.664044121078235 -8.536377629937865" fill="#ff930d" stroke="none" /><path d="M 113.75828350139079 115.86535959552629 l 0.8509316076097027 0.9812514725810446 a22.298822179234595,22.298822179234595 0 0,0 -0.29215122919889897,0.24897761560886233 l -0.8339149018337564 -0.9957534784128538" fill="#ff0500" stroke="none" /><path d="M 113.48314897796784 116.09983520530334 l 7.451764523342887 8.897934822984379 a32.60612073974029,32.60612073974029 0 0,0 -0.43339725193999945,0.3566564328119302 l -7.297497142858196 -9.024886374653487" fill="#ff940d" stroke="none" /><path d="M 112.63410532772338 116.77436683061366 l 5.974740933559665 7.932694364791459 a30.931020547171755,30.931020547171755 0 0,0 -0.428048545300015,0.3166600806175101 l -5.837307417841086 -8.034364394148739" fill="#ff7e0b" stroke="none" /><path d="M 112.34349029814194 116.9893568818739 l 2.395568052269014 3.2972165564014126 a25.075583800249916,25.075583800249916 0 0,0 -0.35138376431660784,0.25070298602231467 l -2.3384569601035214 -3.3379638042679467" fill="#ff2d04" stroke="none" /><path d="M 112.04921762599082 117.19931262002967 l 3.994631134160094 5.702022472390482 a27.962049854291998,27.962049854291998 0 0,0 -0.3965859067110753,0.2727754028992449 l -3.8958883428261357 -5.769938664654821" fill="#ff5507" stroke="none" /><path d="M 111.7513745106137 117.40417183066458 l 5.302267695326873 7.852832702957693 a30.475284912526313,30.475284912526313 0 0,0 -0.43728449558344845,0.289808319277971 l -5.16630850100346 -7.942939043326983" fill="#ff780b" stroke="none" /><path d="M 111.45004920935366 117.60387380957326 l 5.26302333243178 8.091633224185825 a30.652665063725625,30.652665063725625 0 0,0 -0.4447821362227373,0.2838810034757694 l -5.1229593941621125 -8.181028656485404" fill="#ff7a0b" stroke="none" /><path d="M 111.1453310114006 117.79835938074945 l 11.7445638699827 18.755294778979295 a43.12907279446003,43.12907279446003 0 0,0 -0.6326024527774893,0.38859609465286993 l -11.419982217272903 -18.954679340460544" fill="#e6ff1a" stroke="none" /><line stroke="#e1ed5e" stroke-width="0.3" x1="143.8653032363475" x2="146.44561519142675" y1="172.8068346515853" y2="177.08958963109032" /><path d="M 144.38136562736335 173.6633856474863 a86.0,86.0 0 0,1 -40.68145358897372,12.25698825130547" fill="none" id="id78" stroke="none" /><text fill="#e1ed5e" style="font-size:6.75px; font-family:Arial;" text-anchor="middle"><textPath startOffset="21.466115282336833" xlink:href="#id78">June</textPath></text><path d="M 110.8373102113329 117.98757091392108 l 8.51934744575498 14.140258360473966 a37.50836719371258,37.50836719371258 0 0,0 -0.5558956655213503,0.32843295764334085 l -8.274683909205246 -14.284809890411056" fill="#ffd413" stroke="none" /><path d="M 110.5260780823613 118.17145234162733 l 1.890023812950876 3.262799057051378 a24.770682657055183,24.770682657055183 0 0,0 -0.3707949827356664,0.21054706835191672 l -1.8335800632940116 -3.2948492911979237" fill="#ff2904" stroke="none" /><path d="M 110.21172684928248 118.3499491758327 l 6.10462283834375 10.96969400715083 a33.55390802136725,33.55390802136725 0 0,0 -0.5071069037447377,0.27651511681382973 l -5.914893122730362 -11.073149775724431" fill="#ffa10e" stroke="none" /><path d="M 109.57404056367764 118.69057910512821 l 7.4538227204418765 14.551459466399617 a37.349447872941965,37.349447872941965 0 0,0 -0.5747299109689348,0.28818150855706004 l -7.202238901790182 -14.677608815865979" fill="#ffd213" stroke="none" /><path d="M 109.2508944713604 118.85261126421891 l 5.625277476067715 11.463882745392045 a33.76966539431837,33.76966539431837 0 0,0 -0.5240526741847278,0.2515771302372337 l -5.427112133882754 -11.559014152128839" fill="#ffa40f" stroke="none" /><path d="M 108.92500713936063 119.00905698771935 l 1.7445400316833604 3.7156341011064318 a25.10479679100571,25.10479679100571 0 0,0 -0.3927490097905125,0.18029180727234762 l -1.6803230261254283 -3.7451129787128536" fill="#ff2d04" stroke="none" /><path d="M 108.59647513512805 119.15986991738527 l 4.093473409949914 9.123555505258567 a30.99978947855908,30.99978947855908 0 0,0 -0.4887328279196668,0.21424610922612097 l -3.9358199073724935 -9.192666167779143" fill="#ff7f0b" stroke="none" /><path d="M 107.93186726928326 119.44442032107085 l 8.37306791678916 20.525992987983173 a43.16809992944588,43.16809992944588 0 0,0 -0.6904407120771177,0.2747406084078379 l -8.018506128670177 -20.66708044079708" fill="#e5ff1a" stroke="none" /><path d="M 106.91757812671514 119.82793768551818 l 3.0416361902384095 8.718278527155928 a30.233630444783685,30.233630444783685 0 0,0 -0.4928517516399993,0.16720207309919757 l -2.8911147056611832 -8.769343587153248" fill="#ff750a" stroke="none" /><path d="M 106.57524785965236 119.94407469862006 l 1.2689673328750741 3.8490380617084763 a25.05282273142863,25.05282273142863 0 0,0 -0.4107215291262553,0.13150006346782725 l -1.2025244586578783 -3.8703109718360102" fill="#ff2d04" stroke="none" /><path d="M 106.2309692047433 120.05430185196036 l 2.9704120477551688 9.560236597708542 a31.01106745245555,31.01106745245555 0 0,0 -0.5111288816484018,0.15399893918651306 l -2.8054081916665212 -9.60995090600078" fill="#ff7f0b" stroke="none" /><path d="M 105.88484417918355 120.15858648285463 l 5.118147446363961 17.532259952521578 a39.26405136670158,39.26405136670158 0 0,0 -0.6504161754483446,0.18381410801327633 l -4.81560010281101 -17.617762853873373" fill="#ffe915" stroke="none" /><path d="M 104.83641907484287 120.43548508189849 l 2.94859269425082 12.458788430759638 a33.80295309836834,33.80295309836834 0 0,0 -0.5673742789615697,0.12913253867959246 l -2.733698265896388 -12.507697703016914" fill="#ffa40f" stroke="none" /><path d="M 104.13013068566511 120.58985236759428 l 0.7973449423354287 3.974986725169608 a25.05416803084708,25.05416803084708 0 0,0 -0.42357338290061824,0.08117884694605136 l -0.7288039448631062 -3.9881227704641273" fill="#ff2d04" stroke="none" /><path d="M 103.7750983002368 120.6578951692458 l 1.7748069528258996 9.712005638323673 a30.872841193832198,30.872841193832198 0 0,0 -0.5235901973696858,0.09103286722939649 l -1.6073677839841638 -9.741117084074075" fill="#ff7d0b" stroke="none" /><path d="M 103.41894727170886 120.7198165907248 l 1.8814312363403147 11.402021454851937 a32.55620511906832,32.55620511906832 0 0,0 -0.5537099469302863,0.08647810609030719 l -1.6848854258015113 -11.43271786828935" fill="#ff940d" stroke="none" /><path d="M 102.34483914955558 120.86867818915974 l 1.1082863712817357 9.86356425688885 a30.92563340701963,30.92563340701963 0 0,0 -0.5295166524994799,0.05488656609453893 l -0.938337122176653 -9.881180191439148" fill="#ff7e0b" stroke="none" /><path d="M 101.26447882468166 120.96189622390904 l 0.24576659683948573 4.074195469069683 a25.08160139409889,25.08160139409889 0 0,0 -0.4311789222174668,0.02228702517749103 l -0.17559960620853932 -4.077822301009376" fill="#ff2d04" stroke="none" /><path d="M 100.90346689309514 120.98055641714683 l 0.7193649821160871 16.705291258765588 a37.720772769752145,37.720772769752145 0 0,0 -0.6489403581341147,0.022350818052263743 l -0.4317042723073202 -16.715198875243946" fill="#ffd614" stroke="none" /><line stroke="#e1ed5e" stroke-width="0.3" x1="102.19456741930631" x2="102.32365962044197" y1="184.97166512339345" y2="189.96999836594603" /><path d="M 102.22038585953345 185.97133177190398 a86.0,86.0 0 0,1 -42.740103519485714,-10.115201625700543" fill="none" id="id79" stroke="none" /><text fill="#e1ed5e" style="font-size:6.75px; font-family:Arial;" text-anchor="middle"><textPath startOffset="22.20632615414155" xlink:href="#id79">July</textPath></text><path d="M 100.18074693466247 120.99922214144158 l 0.07996461694098624 9.290308340414615 a30.290652474392736,30.290652474392736 0 0,0 -0.521423103206877,0.0 l 0.07996461694097984 -9.290308340414615" fill="#ff750a" stroke="none" /><path d="M 98.37488393609728 120.93702456842531 l -1.3527915530866357 17.428558250119305 a38.480980740905366,38.480980740905366 0 0,0 -0.659959232034065,-0.056944059503523194 l 1.6525951028622425 -17.40268993833712" fill="#ffe015" stroke="none" /><path d="M 98.01472825383883 120.90594882070398 l -0.13561581428408576 1.4281053856649284 a22.434530111795883,22.434530111795883 0 0,0 -0.3841297970796226,-0.03981662407928025 l 0.16017820796930166 -1.4255593931298873" fill="#ff0701" stroke="none" /><path d="M 97.65516085044442 120.86867818915974 l -1.1077571907815456 9.858854638506504 a30.920894152087776,30.920894152087776 0 0,0 -0.5284124269483317,-0.06398338603421119 l 1.2772970407812667 -9.838325723746944" fill="#ff7e0b" stroke="none" /><path d="M 97.2962882734958 120.8252237178851 l -1.7885999520951281 13.776614488534978 a34.89223511730012,34.89223511730012 0 0,0 -0.5949481802424753,-0.08245439660143848 l 2.0254767235244344 -13.743785526440936" fill="#ffb210" stroke="none" /><path d="M 96.93821686468263 120.77559828337769 l -0.8063673421984272 5.471571051884119 a26.53067067057698,26.53067067057698 0 0,0 -0.4512287656163558,-0.07047265320101335 l 0.9004319714233001 -5.456880091336" fill="#ff4206" stroke="none" /><path d="M 96.58105272829116 120.7198165907248 l -1.223405941088576 7.41419644728497 a28.514454807610722,28.514454807610722 0 0,0 -0.48359297179258615,-0.08407883687551358 l 1.3508478843532121 -7.392039031888451" fill="#ff5d08" stroke="none" /><path d="M 96.22490169976321 120.6578951692458 l -0.6495109809515445 3.554219966915667 a24.613079585007593,24.613079585007593 0 0,0 -0.41611620751437906,-0.07974966153504953 l 0.7105948030376186 -3.5425131070321494" fill="#ff2603" stroke="none" /><path d="M 95.86986931433489 120.58985236759428 l -1.6581311825079899 8.266245998568479 a29.430908724879824,29.430908724879824 0 0,0 -0.49585270498832573,-0.10391075541585224 l 1.8001753489257024 -8.236479262426087" fill="#ff6a09" stroke="none" /><path d="M 95.51606077576429 120.51570834832081 l -0.9091378598482375 4.159647633101487 a25.25783983726211,25.25783983726211 0 0,0 -0.42394664821415007,-0.09648887688175217 l 0.9806046574552503 -4.143382022642048" fill="#ff3004" stroke="none" /><path d="M 95.16358092515715 120.4354850818985 l -3.004693762344665 12.69583417108308 a34.04654704912812,34.04654704912812 0 0,0 -0.569139452734865,-0.13988063038814053 l 3.2227864998227407 -12.64223228238091" fill="#ffa70f" stroke="none" /><path d="M 94.81253420990036 120.34920634021253 l -2.146689717167836 8.420958088327307 a29.690271104353375,29.690271104353375 0 0,0 -0.49414445268997065,-0.13050804116446282 l 2.291324612669296 -8.382758697859263" fill="#ff6d0a" stroke="none" /><path d="M 94.46302465271185 120.25689768951611 l -3.520359609377886 12.879155127970556 a34.351612958353364,34.351612958353364 0 0,0 -0.5690407368354663,-0.16081659622399072 l 3.741531514317966 -12.816649738408044" fill="#ffab0f" stroke="none" /><path d="M 94.11515582081647 120.15858648285463 l -3.594165621783258 12.31184655265978 a33.82573943494289,33.82573943494289 0 0,0 -0.5575207107855805,-0.16797641674756772 l 3.8055613070090843 -12.248154766806486" fill="#ffa40f" stroke="none" /><path d="M 93.08242187328487 119.8279376855182 l -3.3010278972268585 9.461776107970326 a31.02107740193778,31.02107740193778 0 0,0 -0.5026602784795545,-0.18023609206667743 l 3.4634077363361397 -9.403552474863691" fill="#ff7f0b" stroke="none" /><path d="M 92.7421414339146 119.70592522655815 l -2.3383676099002684 6.34893844421575 a27.765868935138442,27.765868935138442 0 0,0 -0.4470698634970133,-0.16904356812701535 l 2.4473076941575647 -6.307746625982102" fill="#ff5307" stroke="none" /><path d="M 92.40401165467489 119.57807347666478 l -3.7595730059127086 9.690009147518525 a31.393780181713495,31.393780181713495 0 0,0 -0.5021194812577319,-0.19980370415753798 l 3.9258135632122984 -9.623858598954921" fill="#ff840c" stroke="none" /><path d="M 92.06813273071674 119.44442032107085 l -1.5627202405930292 3.83089985885273 a25.137376980517608,25.137376980517608 0 0,0 -0.3992396503035298,-0.16688220620617042 l 1.6284313503940213 -3.8034326096265865" fill="#ff2e04" stroke="none" /><path d="M 91.7346041902142 119.30500536409082 l -6.066003561615627 14.168012517554022 a36.41197514620047,36.41197514620047 0 0,0 -0.5740596269420509,-0.2516508703940528 l 6.308983863215421 -14.061497093865517" fill="#ffc612" stroke="none" /><path d="M 91.40352486487194 119.15986991738527 l -2.5351690702247502 5.650398429653719 a27.19306746519505,27.19306746519505 0 0,0 -0.42541871217010996,-0.19528886528710626 l 2.6320557781622798 -5.605922494032539" fill="#ff4b07" stroke="none" /><path d="M 91.07499286063937 119.00905698771935 l -3.623137558081186 7.7167925179772405 a29.52502272901885,29.52502272901885 0 0,0 -0.4581824230662936,-0.21995540677181996 l 3.7554326491477217 -7.653282834705858" fill="#ff6b09" stroke="none" /><path d="M 90.7491055286396 118.85261126421891 l -1.7752149274335958 3.6177514553814394 a25.029827990311446,25.029827990311446 0 0,0 -0.3851567193543718,-0.19312557480661655 l 1.837225554470728 -3.5866580396655205" fill="#ff2c04" stroke="none" /><path d="M 90.10565033884886 118.52300852407294 l -2.3831541992171212 4.461453966964737 a26.058062419206745,26.058062419206745 0 0,0 -0.3938206942266327,-0.21474244279386948 l 2.4595977053123947 -4.419770872411102" fill="#ff3b05" stroke="none" /><line stroke="#e1ed5e" stroke-width="0.3" x1="58.666819895761336" x2="56.23545636021788" y1="174.27360380694188" y2="178.64263932499728" /><path d="M 58.180547188652646 175.14741091055294 a86.0,86.0 0 0,1 -31.652253787137756,-30.449443065178592" fill="none" id="id80" stroke="none" /><text fill="#e1ed5e" style="font-size:6.75px; font-family:Arial;" text-anchor="middle"><textPath startOffset="22.20632615414155" xlink:href="#id80">August</textPath></text><path d="M 89.7882731507175 118.34994917583269 l -7.460111596668281 13.405437754587172 a36.341415398419265,36.341415398419265 0 0,0 -0.5439985115391296,-0.30889655234095287 l 7.689758875128618 -13.275038036451585" fill="#ffc512" stroke="none" /><path d="M 89.1626897886671 117.98757091392108 l -5.496734663443972 9.12338049069705 a31.65129867848696,31.65129867848696 0 0,0 -0.4642503972442387,-0.28518051189664034 l 5.652964260620519 -9.027411511972032" fill="#ff880c" stroke="none" /><path d="M 88.54995079064634 117.60387380957326 l -2.091111109567028 3.2149779814520656 a24.835209132990826,24.835209132990826 0 0,0 -0.35635604161211965,-0.23617335287948715 l 2.14614184991911 -3.17850660748126" fill="#ff2a04" stroke="none" /><path d="M 87.95078237400918 117.19931262002967 l -13.378375426469667 19.09658107690236 a44.31652499576798,44.31652499576798 0 0,0 -0.6210067729026829,-0.4430718437135987 l 13.705109527221234 -18.863464971344545" fill="#d8ff1c" stroke="none" /><path d="M 87.07902340077011 116.55440617244103 l -5.844093822422564 7.487476051307363 a30.498196156332995,30.498196156332995 0 0,0 -0.4110612336993487,-0.32657190474182707 l 5.97211254883927 -7.385770232560405" fill="#ff780b" stroke="none" /><path d="M 85.97065885151581 115.62618273729859 l -8.941737370700155 9.95949992695053 a34.384554755444924,34.384554755444924 0 0,0 -0.43701205502903695,-0.39920015081320664 l 9.111848975196049 -9.804107009550746" fill="#ffac0f" stroke="none" /><path d="M 85.70375840098266 115.38237550388516 l -7.491119449084259 8.06024517088407 a32.00383673157724,32.00383673157724 0 0,0 -0.4002981462567778,-0.37850688263629423 l 7.6287534297318516 -7.930103651501847" fill="#ff8c0c" stroke="none" /><path d="M 85.18274418774928 114.88116024355367 l -2.8919612907667434 2.9044338527565117 a25.098679801147107,25.098679801147107 0 0,0 -0.3035259540109825,-0.30747018892288447 l 2.9415278698332594 -2.8542231698529625" fill="#ff2d04" stroke="none" /><path d="M 84.67929136418377 114.36230785411682 l -3.047357331965477 2.8567271386436435 a25.176993733936747,25.176993733936747 0 0,0 -0.2936759548093701,-0.3187272472400745 l 3.096079694770579 -2.8038486366022273" fill="#ff2e04" stroke="none" /><path d="M 84.4343377721795 114.09645910891817 l -8.199298831776224 7.425387947668297 a32.061866366311996,32.061866366311996 0 0,0 -0.3669421830905155,-0.41226343262956117 l 8.325899864515073 -7.283150345297869" fill="#ff8d0d" stroke="none" /><path d="M 84.19399662182784 113.82643327865904 l -10.252012853395723 8.96803374629057 a34.62091762036602,34.62091762036602 0 0,0 -0.3885085029891515,-0.4519231603706868 l 10.404863865955654 -8.790233486758353" fill="#ffaf10" stroke="none" /><path d="M 83.95833913139862 113.55231037782056 l -7.223974690104953 6.102955795147545 a30.45684301238008,30.45684301238008 0 0,0 -0.3348860420082455,-0.4033918108450916 l 7.327956732006735 -5.977702727188692" fill="#ff780b" stroke="none" /><path d="M 83.72743513129214 113.27417163493432 l -2.7291806159241507 2.226300046170267 a24.522050358798673,24.522050358798673 0 0,0 -0.26399982599109767,-0.32938037475282655 l 2.7670983539701095 -2.1789918378391806" fill="#ff2503" stroke="none" /><path d="M 83.28015986056508 112.70617746262583 l -3.928396430794813 2.98536958349841 a25.93403790698439,25.93403790698439 0 0,0 -0.2670449288803787,-0.35775032209384866 l 3.979202626370277 -2.917306381895256" fill="#ff3905" stroke="none" /><path d="M 82.6465618267979 111.8261652097733 l -19.689022348842634 13.41783851662903 a44.82637176557854,44.82637176557854 0 0,0 -0.42904578669454296,-0.6413652374115567 l 19.91707124094791 -13.076936365011651" fill="#d2ff1c" stroke="none" /><path d="M 82.44556493220864 111.52570212397912 l -11.142698569855876 7.315953152436321 a34.3297750148797,34.3297750148797 0 0,0 -0.320076332822555,-0.4967655765037277 l 11.266979766055476 -7.123065976011144" fill="#ffab0f" stroke="none" /><path d="M 82.05923443525364 110.91462005526583 l -9.533903500833954 5.800139017459063 a32.159611488984055,32.159611488984055 0 0,0 -0.283646432279748,-0.4754077358131607 l 9.632330808811934 -5.635169187759791" fill="#ff8e0d" stroke="none" /><line stroke="#e1ed5e" stroke-width="0.3" x1="26.63291911575756" x2="22.317208475507996" y1="142.92168965132927" y2="145.44649492493687" /><path d="M 25.769776987707644 143.4266507060508 a86.0,86.0 0 0,1 -11.730757126820373,-40.83630448921669" fill="none" id="id81" stroke="none" /><text fill="#e1ed5e" style="font-size:6.75px; font-family:Arial;" text-anchor="middle"><textPath startOffset="21.46611528233685" xlink:href="#id81">September</textPath></text><path d="M 81.87401531095188 110.60418214915194 l -5.938456609967559 3.4741547373688237 a27.88004491610699,27.88004491610699 0 0,0 -0.2387700202544717,-0.4163156562985788 l 5.997378626374408 -3.371419235211938" fill="#ff5407" stroke="none" /><path d="M 81.69416730710424 110.29060199501025 l -3.5834350150124252 2.0144237158240497 a25.110828312358894,25.110828312358894 0 0,0 -0.20856765885181683,-0.37861088338778465 l 3.6175790833157584 -1.9524423140384426" fill="#ff2e04" stroke="none" /><path d="M 81.51974371655577 109.97397251340807 l -10.941648979978549 5.905313460151116 a33.433519592766466,33.433519592766466 0 0,0 -0.2689766322100963,-0.5088024216510465 l 11.04167812041353 -5.716096023413943" fill="#ff9f0e" stroke="none" /><path d="M 81.35079622478065 109.6543875284942 l -9.718675194751967 5.031199064829548 a31.94374760176005,31.94374760176005 0 0,0 -0.24858522500435143,-0.4904822322199993 l 9.803839089542585 -4.863162620906864" fill="#ff8c0c" stroke="none" /><path d="M 81.18737489456691 109.33194174019688 l -11.445102189224365 5.677305864644922 a33.775843064256854,33.775843064256854 0 0,0 -0.2538765158469179,-0.523060818384746 l 11.541131961686002 -5.4794560902948914" fill="#ffa40f" stroke="none" /><path d="M 80.87730276802145 108.67885076344099 l -11.905078281039765 5.403128882647505 a34.07381698664106,34.07381698664106 0 0,0 -0.23780103126795255,-0.5361785478704275 l 11.996320397038998 -5.197401998284382" fill="#ffa80f" stroke="none" /><path d="M 80.73074385275274 108.34839909993369 l -3.78976180238244 1.6419130960845312 a25.130154129556292,25.130154129556292 0 0,0 -0.1685503596016242,-0.39840326112690794 l 3.817463143176371 -1.5764353092914645" fill="#ff2e04" stroke="none" /><path d="M 80.58989483394504 108.01547362559985 l -4.977259932693652 2.055377617841594 a26.384950658039664,26.384950658039664 0 0,0 -0.16973989794518926,-0.4212805064322423 l 5.011902444896229 -1.969397743566546" fill="#ff4006" stroke="none" /><path d="M 80.45479744820244 107.68017299344265 l -13.77101103676193 5.4112382195401 a35.79602122339754,35.79602122339754 0 0,0 -0.22041096723702175,-0.5754234841028154 l 13.86211628359246 -5.173391168604127" fill="#ffbe11" stroke="none" /><path d="M 80.32549172779594 107.34259656027581 l -8.806696727332476 3.286690584732953 a30.40001288546887,30.40001288546887 0 0,0 -0.17874590745161756,-0.49183196899430826 l 8.861966895789317 -3.1346108187325274" fill="#ff770a" stroke="none" /><path d="M 80.20201598880116 107.00284435728193 l -17.549462944502014 6.2075086778894955 a39.6149620903864,39.6149620903864 0 0,0 -0.22186108446027858,-0.6448321623131791 l 17.653714859905524 -5.904503812487019" fill="#ffee16" stroke="none" /><path d="M 79.97269907076064 106.31721596034903 l -7.4104945885069835 2.3374939465881597 a28.77041234405405,28.77041234405405 0 0,0 -0.14491139856952687,-0.47357883504262377 l 7.449632759582641 -2.2095881389934884" fill="#ff6108" stroke="none" /><path d="M 79.86692584326677 105.97154293290107 l -4.663195335293416 1.3831206765756536 a25.863991523540452,25.863991523540452 0 0,0 -0.12292460921736802,-0.4279166908793631 l 4.686312581396889 -1.3026465101916944" fill="#ff3805" stroke="none" /><path d="M 79.67330655649465 105.27499134158121 l -3.9354254261454042 1.021284406440854 a25.065783457538164,25.065783457538164 0 0,0 -0.10478534218580383,-0.4185653543929534 l 3.9524220826262693 -0.9533912126505086" fill="#ff2d04" stroke="none" /><path d="M 79.50377843672027 104.57218783832718 l -3.7500615765233114 0.8365437444273162 a24.84223467061253,24.84223467061253 0 0,0 -0.08951007459928205,-0.41816126908962753 l 3.7639056898470344 -0.7718686559215248" fill="#ff2a04" stroke="none" /><path d="M 79.35854240842038 103.8639653848113 l -9.170800936410894 1.7167226302730751 a30.330097877544834,30.330097877544834 0 0,0 -0.09164536259670672,-0.5139958630021219 l 9.198992741346789 -1.5586080165377394" fill="#ff760a" stroke="none" /><path d="M 79.23777060512086 103.15116336523772 l -6.518445719819413 0.9893295637920168 a27.593095448120323,27.593095448120323 0 0,0 -0.0672298530472685,-0.4702054356279455 l 6.53450962388328 -0.8769786561836707" fill="#ff5007" stroke="none" /><path d="M 79.18660465613746 102.79330883721812 l -6.317444313423439 0.847846914824625 a27.374084016090766,27.374084016090766 0 0,0 -0.05865678411781252,-0.4675522823436471 l 6.3311026067881 -0.7389768781935693" fill="#ff4d07" stroke="none" /><path d="M 79.1416061653843 102.43462659150553 l -1.8467041029814506 0.21555038951750846 a22.85924124695793,22.85924124695793 0 0,0 -0.042254434982815794,-0.3912235896704657 l 1.8501408394653183 -0.18373047796226066" fill="#ff0d01" stroke="none" /><path d="M 79.07016306316243 101.71520430193888 l -3.7845389363275603 0.31014371894218085 a24.79722584092369,24.79722584092369 0 0,0 -0.03120133534737499,-0.42571743123855693 l 3.7893168303392706 -0.24495315120686328" fill="#ff2904" stroke="none" /><path d="M 79.04373962182676 101.35467743843564 l -10.968870920292566 0.7090617167703094 a31.991764998590043,31.991764998590043 0 0,0 -0.03079382438904982,-0.5498444205876727 l 10.979451095569148 -0.5201455798471992" fill="#ff8c0c" stroke="none" /><path d="M 79.0235259727143 100.99374915477108 l -14.441417936105545 0.6841543935855543 a35.45761457639307,35.45761457639307 0 0,0 -0.02363480848827019,-0.6099093881714924 l 14.451054877445015 -0.43546775840006513" fill="#ffb911" stroke="none" /><path d="M 79.0095281055655 100.63252640178507 l -8.169285503550906 0.24617306322141852 a29.17299374865678,29.17299374865678 0 0,0 -0.01080503412703437,-0.502067478316927 l 8.172312600362947 -0.10551576911436268" fill="#ff6609" stroke="none" /><line stroke="#e1ed5e" stroke-width="0.3" x1="15.007084014347285" x2="10.007500721073583" y1="101.09737516637583" y2="101.16192664675087" /><path d="M 14.007167355692545 101.11028546245083 a86.0,86.0 0 0,1 10.666146001902534,-42.60595125391555" fill="none" id="id82" stroke="none" /><text fill="#e1ed5e" style="font-size:6.75px; font-family:Arial;" text-anchor="middle"><textPath startOffset="22.20632615414155" xlink:href="#id82">October</textPath></text><path d="M 79.00175016825051 100.2711162175752 l -11.817582035142179 0.15258119928681185 a32.8185670104159,32.8185670104159 0 0,0 -0.0024312349358443335,-0.5649333768191851 l 11.818457567367526 0.05086165573604866" fill="#ff970d" stroke="none" /><path d="M 79.00019446554 99.90962569577889 l -9.983686679716795 -0.04296557583642754 a30.98377913214538,30.98377913214538 0 0,0 0.0068857655559998055,-0.5333101306920539 l 9.981467907043081 0.21481196458895335" fill="#ff7f0b" stroke="none" /><path d="M 79.03285615573316 98.82574320788736 l -19.736231030711924 -1.1053199954487258 a40.76715830841588,40.76715830841588 0 0,0 0.04526981134198978,-0.7003039445677881 l 19.71428062836552 1.4448830042695258" fill="#fffc17" stroke="none" /><path d="M 79.05617556472873 98.46500227214037 l -12.130449075486398 -0.8890549969197846 a33.16298538848571,33.16298538848571 0 0,0 0.046626393413405555,-0.5689600999672951 l 12.113348198253494 1.0977290140948581" fill="#ff9c0e" stroke="none" /><path d="M 79.08570108090925 98.10471618934814 l -8.958369855608083 -0.8118203446765947 a29.99507880687537,29.99507880687537 0 0,0 0.051024306208078817,-0.5138078002515254 l 8.943068423717776 0.9659036756325503" fill="#ff710a" stroke="none" /><path d="M 79.16333360222342 97.38593545837743 l -3.4269323418793762 -0.4299258888361505 a24.45379523795352,24.45379523795352 0 0,0 0.055992205393395,-0.4172069666983488 l 3.4190241374281474 0.4888511975991587" fill="#ff2403" stroke="none" /><path d="M 79.21141760316559 97.0276538004421 l -21.364681181615428 -3.054716656611027 a42.581957646243524,42.581957646243524 0 0,0 0.10999144038695016,-0.7247061647071323 l 21.308933847789177 3.4220219337102513" fill="#ecff1a" stroke="none" /><path d="M 79.3925641242962 95.95851677861259 l -2.7133767721409425 -0.5321412505686338 a23.76506560829047,23.76506560829047 0 0,0 0.08218265700478103,-0.4007518221318835 l 2.703814819221167 0.5787687288639197" fill="#ff1a02" stroke="none" /><path d="M 79.46518482838121 95.60439243477599 l -6.03784826035451 -1.2924397550736124 a27.174626477412275,27.174626477412275 0 0,0 0.10184741118549491,-0.4565619740741306 l 6.014706462166977 1.3961798986977023" fill="#ff4b06" stroke="none" /><path d="M 79.62865764111835 94.90015583598534 l -10.849572066925724 -2.7161257129157157 a32.184388804211736,32.184388804211736 0 0,0 0.1391647885683161,-0.5362586992437531 l 10.8012109464871 2.9024808377083327" fill="#ff8f0d" stroke="none" /><path d="M 79.71946130924805 94.55025226153421 l -19.97961836647694 -5.368885001943707 a41.68840439072474,41.68840439072474 0 0,0 0.19218995519055085,-0.6914095251328358 l 19.884241640720028 5.712005830495485" fill="#f7ff18" stroke="none" /><path d="M 79.81627453868168 94.20196356495316 l -16.647936077811295 -4.782335160695162 a38.32121546659218,38.32121546659218 0 0,0 0.1875807126417773,-0.6324289116607075 l 16.56314946805781 5.0681934591024085" fill="#ffde14" stroke="none" /><path d="M 79.91906864156998 93.8553929516997 l -9.41414610108659 -2.8806546595848763 a30.845014884721703,30.845014884721703 0 0,0 0.1597250581810292,-0.5063720832420274 l 9.363165559137357 3.042276909253318" fill="#ff7d0b" stroke="none" /><path d="M 80.02781315780177 93.51064311812611 l -9.933489067241947 -3.2275862502611474 a31.444688509088728,31.444688509088728 0 0,0 0.17169205147408406,-0.5133373805307143 l 9.876459721996092 3.398096733714184" fill="#ff850c" stroke="none" /><path d="M 80.2630227832202 92.82701384747504 l -6.198541976604441 -2.25272873731789 a27.59520351465102,27.59520351465102 0 0,0 0.166090814457888,-0.4450408075894714 l 6.158846573644926 2.359092681936703" fill="#ff5007" stroke="none" /><path d="M 80.38941819471856 92.48833698450439 l -10.691968793976331 -4.095465772000469 a32.449499403073965,32.449499403073965 0 0,0 0.20428729162840917,-0.5198888745142175 l 10.61988795246623 4.27890365141045" fill="#ff920d" stroke="none" /><path d="M 80.52162464483688 92.15188598940014 l -9.348437809179277 -3.766618334931807 a31.07872527421683,31.07872527421683 0 0,0 0.2041995279554093,-0.49448535390529663 l 9.282216594337665 3.926978259290415" fill="#ff800b" stroke="none" /><path d="M 80.65960295795067 91.81776055985345 l -6.107825787142739 -2.584005537241439 a27.631939419399142,27.631939419399142 0 0,0 0.18909363807771254,-0.43645418772123634 l 6.062441439222348 2.688758869549275" fill="#ff5107" stroke="none" /><path d="M 81.43458229118936 90.18545643968196 l -6.34549206766501 -3.354522332142054 a28.177610302714918,28.177610302714918 0 0,0 0.23037464154068077,-0.4268492229304979 l 6.286809326905858 3.463252538405025" fill="#ff5808" stroke="none" /><path d="M 81.6062741919709 89.86733742301443 l -15.540855232341134 -8.56108457147684 a38.742895772465204,38.742895772465204 0 0,0 0.3268099019188573,-0.5813583490848432 l 15.391187689129845 8.827326430496468" fill="#ffe315" stroke="none" /><line stroke="#e1ed5e" stroke-width="0.3" x1="26.266209847984243" x2="21.928928074336255" y1="57.711370442889674" y2="55.22380399835377" /><path d="M 25.398753493254645 57.213857153982495 a86.0,86.0 0 0,1 29.58750427330803,-30.492523968695096" fill="none" id="id83" stroke="none" /><text fill="#e1ed5e" style="font-size:6.75px; font-family:Arial;" text-anchor="middle"><textPath startOffset="21.46611528233685" xlink:href="#id83">November</textPath></text><path d="M 81.78341655067845 89.55222093294921 l -5.389963156945241 -3.0913120673791763 a27.213526625930818,27.213526625930818 0 0,0 0.236550762338474,-0.4043419318926641 l 5.335952720136444 3.183633411625732" fill="#ff4b07" stroke="none" /><path d="M 81.96595687620814 89.24020034530311 l -9.090399902408883 -5.423680150900622 a31.58544646035248,31.58544646035248 0 0,0 0.2825907806655565,-0.46450494117139923 l 8.995693323457107 5.579352865279096" fill="#ff870c" stroke="none" /><path d="M 82.15384107792192 88.93136811851018 l -8.493413746878776 -5.267826572197719 a30.99440212671182,30.99440212671182 0 0,0 0.2851077696064842,-0.4509720227384913 l 8.401478381026328 5.413246242650425" fill="#ff7f0b" stroke="none" /><path d="M 82.34701348167596 88.62581576622439 l -6.527652118157314 -4.205901235399899 a28.765297636125872,28.765297636125872 0 0,0 0.27176818266372554,-0.41392158714015026 l 6.454287300135668 4.317640886517715" fill="#ff6108" stroke="none" /><path d="M 82.54541684631803 88.32363383020206 l -9.731966186165085 -6.510267231319408 a32.70874652863627,32.70874652863627 0 0,0 0.31708097866061247,-0.46527721044672155 l 9.618460741835733 6.676822465036545" fill="#ff960d" stroke="none" /><path d="M 82.7489923806493 88.02491185347247 l -11.112172112774743 -7.713708293804057 a34.52707154951988,34.52707154951988 0 0,0 0.343112576548255,-0.4853084067888858 l 10.97774691642261 7.9038432009247295" fill="#ffad10" stroke="none" /><path d="M 82.95767976084542 87.72973835380427 l -15.830498504801552 -11.397764853482256 a40.50676104753938,40.50676104753938 0 0,0 0.4122766324683612,-0.5623448633610466 l 15.631959259819558 11.668572160514804" fill="#fff917" stroke="none" /><path d="M 83.17141714833178 87.43820079747577 l -10.261946961424991 -7.660093442960096 a33.80564668394298,33.80564668394298 0 0,0 0.35210039457435244,-0.46332284651552186 l 10.12857062662653 7.835601065356642" fill="#ffa40f" stroke="none" /><path d="M 83.39014120810768 87.1503855733568 l -5.454820696321593 -4.219924057898654 a27.896580883557462,27.896580883557462 0 0,0 0.29709316571370764,-0.37727815017306326 l 5.381373450013914 4.3131946020247645" fill="#ff5507" stroke="none" /><path d="M 83.6137871275137 86.86637796730984 l -5.770925877882226 -4.625422594505549 a28.395817714477094,28.395817714477094 0 0,0 0.308975579356281,-0.378767526607061 l 5.690451806449552 4.724074290720693" fill="#ff5b08" stroke="none" /><path d="M 83.84228863543731 86.58626213691792 l -15.596210544800291 -12.947593578395981 a41.27022355153146,41.27022355153146 0 0,0 0.4584716730279053,-0.5426858514552902 l 15.371028258285262 13.214138379480387" fill="#fcff18" stroke="none" /><path d="M 84.07557802195018 86.31012108654704 l -4.911120567356804 -4.221983440853073 a27.476438018073868,27.476438018073868 0 0,0 0.3114102765809834,-0.3559957788415208 l 4.837718427197976 4.305894775897537" fill="#ff4f07" stroke="none" /><path d="M 84.31358615837235 86.03803664274999 l -8.322777504400134 -7.407831753017299 a32.14201941610049,32.14201941610049 0 0,0 0.37140311498854,-0.41011259590818755 l 8.19403074879555 7.549997136195042" fill="#ff8e0d" stroke="none" /><path d="M 84.5562425177563 85.77008943001954 l -11.094915182277642 -10.222878143926426 a36.08656291033526,36.08656291033526 0 0,0 0.42484655186684384,-0.4531966799623641 l 10.91730130844034 10.41234424076684" fill="#ffc212" stroke="none" /><path d="M 84.80347519578584 85.50635884689758 l -4.695340423403177 -4.478167216861968 a27.48846694634574,27.48846694634574 0 0,0 0.3295156888767127,-0.33959488263424015 l 4.617560470823351 4.558326295046332" fill="#ff4f07" stroke="none" /><path d="M 85.05521093208273 85.24692304244772 l -3.630508990930967 -3.5839367350638973 a26.10148978771604,26.10148978771604 0 0,0 0.3183936783767269,-0.31702639473659944 l 3.5682795123869244 3.645898980450608" fill="#ff3c05" stroke="none" /><path d="M 85.31137513191541 84.99185889309783 l -4.560413638418542 -4.659614634174513 a27.51992186245258,27.51992186245258 0 0,0 0.3414000371259804,-0.3284265652243008 l 4.479530357680133 4.737424286161123" fill="#ff4f07" stroke="none" /><path d="M 85.57189188830299 84.74124197986013 l -5.83462112431831 -6.1705298564399245 a29.492246014662904,29.492246014662904 0 0,0 0.3718721063745386,-0.3456145947888917 l 5.727541134148915 6.270049037303466" fill="#ff6a09" stroke="none" /><path d="M 85.83668400450813 84.49514656593479 l -13.476749549540292 -14.753255988903746 a40.98202544025902,40.98202544025902 0 0,0 0.52493878807105,-0.47129522697453274 l 13.22079977387327 14.983050224647558" fill="#fffe18" stroke="none" /><path d="M 86.10567301691215 84.25364557470407 l -9.606871737286246 -10.887408039108141 a35.519904902812065,35.519904902812065 0 0,0 0.4619383952588023,-0.40058842435189596 l 9.41803954338067 11.051161456879719" fill="#ffba11" stroke="none" /><path d="M 86.37877921826538 84.01681056812374 l -7.349362164031792 -8.623767983314725 a32.33060009214632,32.33060009214632 0 0,0 0.42667534005368785,-0.3573283267690792 l 7.199829287018994 8.748997467477617" fill="#ff910d" stroke="none" /><path d="M 86.65592168130627 83.78471172551755 l -4.11217316178157 -4.996978559355871 a27.471457551057483,27.471457551057483 0 0,0 0.3677206359086595,-0.29733784764868854 l 4.02554912730841 5.067022504268697" fill="#ff4f07" stroke="none" /><path d="M 86.93701828274178 83.55741782278169 l -7.079063257607947 -8.910529147963627 a32.38027531749229,32.38027531749229 0 0,0 0.4393963962123855,-0.3429558568339174 l 6.924634306236136 9.031063394020766" fill="#ff910d" stroke="none" /><path d="M 87.22198572758235 83.33499621200491 l -3.7475860911826513 -4.8875776058731955 a27.158962279821075,27.158962279821075 0 0,0 0.3734407056299591,-0.2812677972427307 l 3.6628992317943023 4.951361992621781" fill="#ff4a06" stroke="none" /><path d="M 87.51073957382395 83.11751280151077 l -7.246115584622917 -9.795011827904164 a33.183942209912914,33.183942209912914 0 0,0 0.4621333010064034,-0.3357594967886557 l 7.076436967262731 9.918290559509487" fill="#ff9c0e" stroke="none" /><path d="M 87.80319425747018 82.90503203632743 l -7.313079512773743 -10.249967296824938 a33.59138441737571,33.59138441737571 0 0,0 0.47358870972664846,-0.33177915622413484 l 7.135559663463434 10.374331295813015" fill="#ffa10e" stroke="none" /><path d="M 88.09926311788651 82.69761687909137 l -8.382276473637901 -12.186922575377954 a35.791336678568314,35.791336678568314 0 0,0 0.5106150690387669,-0.34476957395153424 l 8.171256710192594 12.329404061628155" fill="#ffbe11" stroke="none" /><path d="M 88.39885842347998 82.49532879139004 l -13.16396251314297 -19.862772475892537 a44.82896639547145,44.82896639547145 0 0,0 0.6468883341826646,-0.4207541669220702 l 12.820107153176018 20.086425566974142" fill="#d2ff1c" stroke="none" /><path d="M 88.70189139769569 82.29822771554957 l -4.970095674180989 -7.787100031800018 a30.23800724809049,30.23800724809049 0 0,0 0.441159347202107,-0.27625394274592435 l 4.835317174606639 7.871498315868873" fill="#ff750a" stroke="none" /><path d="M 89.00827224532344 82.1063720568725 l -4.7733526303448315 -7.770625138745785 a30.119622271811913,30.119622271811913 0 0,0 0.4441036955499422,-0.2675675074586761 l 4.638886868577242 7.8516392556630805" fill="#ff730a" stroke="none" /><line stroke="#e1ed5e" stroke-width="0.3" x1="56.76296977257108" x2="54.21961505331056" y1="26.818313649435495" y2="22.513508569990535" /><path d="M 56.25429882871898 25.957352633546506 a86.0,86.0 0 0,1 42.26535254187918,-11.944610805530505" fill="none" id="id84" stroke="none" /><text fill="#e1ed5e" style="font-size:6.75px; font-family:Arial;" text-anchor="middle"><textPath startOffset="22.20632615414155" xlink:href="#id84">December</textPath></text><path d="M 89.3179101791058 81.91981866633112 l -2.0501124293099418 -3.4699581353294895 a25.030331305705577,25.030331305705577 0 0,0 0.37283663904286835,-0.21597104627350486 l 1.990079057801751 3.5047333389930415" fill="#ff2c04" stroke="none" /><path d="M 90.26544431104013 81.39251694778311 l -27.90659262525594 -53.34310737042528 a81.20186887368787,81.20186887368787 0 0,0 1.244088080871499,-0.6372702356655993 l 26.984244056795678 53.81557013140338" fill="#4aecff" stroke="none" /><path d="M 91.90106846888425 80.62456947434976 l -3.583263968909612 -8.572400176237718 a30.291169218803752,30.291169218803752 0 0,0 0.4828068069791215,-0.1969490191237512 l 3.4351732923421103 8.632810081545047" fill="#ff750a" stroke="none" /><path d="M 92.57280143429618 80.3572730644239 l -3.529770548484386 -9.33519124549584 a30.98023425150582,30.98023425150582 0 0,0 0.5004306195150868,-0.18431282047513245 l 3.3685576031967313 9.394567333777294" fill="#ff7f0b" stroke="none" /><path d="M 92.91201910852362 80.23233633223022 l -2.423646919991704 -6.759306761314199 a28.180688844834673,28.180688844834673 0 0,0 0.4580274400302429,-0.15979678022201607 l 2.306937475898176 6.800024394708425" fill="#ff5908" stroke="none" /><path d="M 93.25333710446033 80.11325718540243 l -2.9787792927055112 -8.780373143387193 a30.271897249849474,30.271897249849474 0 0,0 0.4948982061517187,-0.16316015758655247 l 2.827198264311383 8.83034702523298" fill="#ff750a" stroke="none" /><path d="M 93.59665428221793 80.00007090966166 l -1.7738528771313375 -5.540374254789967 a26.817413593070945,26.817413593070945 0 0,0 0.44084587801877256,-0.1369729602282059 l 1.6782216264018361 5.570087349900698" fill="#ff4606" stroke="none" /><path d="M 93.94186890950719 79.89281104454417 l -1.1788489627337118 -3.9126487178245686 a25.086380411321564,25.086380411321564 0 0,0 0.41453425736381544,-0.12101391700229018 l 1.111324487646475 3.9323609637455577" fill="#ff2d04" stroke="none" /><path d="M 94.63758080256005 79.69619591428918 l -2.3675168663630943 -8.964162788168627 a30.27153442561159,30.27153442561159 0 0,0 0.5049452111979896,-0.12872177740848706 l 2.212862766480105 9.003587561745977" fill="#ff750a" stroke="none" /><path d="M 94.98787191387505 79.60689891045804 l -4.1202080947304305 -16.764100745627292 a38.26300056633909,38.26300056633909 0 0,0 0.6409532030941542,-0.1516929148049475 l 3.8310312046737427 16.832539572573108" fill="#ffdd14" stroke="none" /><path d="M 95.33964822691252 79.52364482259891 l -3.187966224959615 -14.007081845794868 a35.36528699630743,35.36528699630743 0 0,0 0.5947384959592782,-0.12998679962288814 l 2.9463850048468156 14.059882143513624" fill="#ffb811" stroke="none" /><path d="M 95.692805502759 79.44645832069477 l -1.3279513519598407 -6.3368634683387715 a27.474511055634892,27.474511055634892 0 0,0 0.4637090286468348,-0.09301566879850379 l 1.2186759138458694 6.358783093214486" fill="#ff4f07" stroke="none" /><path d="M 96.40284397218896 79.31037775812273 l -1.5814312266654509 -9.09585640107118 a30.23230894162344,30.23230894162344 0 0,0 0.5134753157363475,-0.08472782672277474 l 1.4246267047902177 9.121730490733581" fill="#ff750a" stroke="none" /><path d="M 96.75951476605007 79.25152402106235 l -2.435789391081079 -15.596095652932075 a36.78515978928024,36.78515978928024 0 0,0 0.6264530571683506,-0.09232289628167609 l 2.1669673534840794 15.635713033374719" fill="#ffca12" stroke="none" /><path d="M 97.11714578562143 79.19881850522333 l -1.6015090497092004 -11.555659055658994 a32.66610849627819,32.66610849627819 0 0,0 0.5576342272800029,-0.0723969269104299 l 1.4023600939213396 11.581514305733561" fill="#ff950d" stroke="none" /><path d="M 97.83486435360386 79.11191278185805 l -1.7169521403299814 -16.56424904198649 a37.65299585591536,37.65299585591536 0 0,0 0.6452555761104475,-0.06127479194038432 l 1.4315714371292976 16.591349378442054" fill="#ffd513" stroke="none" /><path d="M 98.55514903715128 79.0497635885617 l -0.711292754145381 -10.313694450331415 a31.338192810975077,31.338192810975077 0 0,0 0.5384766327133859,-0.032482381001167265 l 0.5336540725923722 10.324410100712889" fill="#ff830c" stroke="none" /><path d="M 98.91598698831166 79.02799685794201 l -0.2115447554981179 -4.0926789892333435 a25.098142566150038,25.098142566150038 0 0,0 0.4316392513221343,-0.018587294139217718 l 0.14106467178665946 4.095714009896754" fill="#ff2d04" stroke="none" /><path d="M 99.27714615592234 79.0124445844662 l -0.31799235623885147 -9.232685490930354 a30.238160017723345,30.238160017723345 0 0,0 0.520345982434303,-0.013439001556095334 l 0.1590197386096695 9.236791284628808" fill="#ff750a" stroke="none" /><path d="M 99.63851952072746 79.00311137660856 l -0.6165795731196271 -35.81452766219812 a56.819834757245076,56.819834757245076 0 0,0 0.978060052392154,-0.00841847165551774 l 8.773329196289459e-15 35.819834757245076" fill="#50ff2b" stroke="none" /></svg>