<?xml version="1.0" encoding="utf-8" ?>
<svg baseProfile="full" height="200mm" version="1.1" viewBox="0,0,200,200" width="200mm" xmlns="http://www.w3.org/2000/svg" xmlns:ev="http://www.w3.org/2001/xml-events" xmlns:xlink="http://www.w3.org/1999/xlink"><defs /><rect fill="#1a1a1a" height="200" width="200" x="0" y="0" /><text alignment-baseline="middle" fill="#e1ed5e" style="dominant-baseline: central; font-size:9.0px; font-family:Arial;" text-anchor="middle" x="100.0" y="100.0">2015</text><line stroke="#e1ed5e" stroke-width="0.3" x1="100.0" x2="100.0" y1="15.0" y2="10.0" /><path d="M 100.0 14.0 a86.0,86.0 0 0,1 42.46469731375804,11.215312516191453" fill="none" id="id1" stroke="none" /><text fill="#e1ed5e" style="font-size:6.75px; font-family:Arial;" text-anchor="middle"><textPath startOffset="22.20632615414155" xlink:href="#id1">January</textPath></text><line stroke="#e1ed5e" stroke-width="0.3" x1="143.23703022742887" x2="145.7803849466894" y1="26.81831364943548" y2="22.513508569990506" /><path d="M 143.74570117128098 25.957352633546492 a86.0,86.0 0 0,1 28.547481713284135,27.462654790039103" fill="none" id="id2" stroke="none" /><text fill="#e1ed5e" style="font-size:6.75px; font-family:Arial;" text-anchor="middle"><textPath startOffset="19.985693538727396" xlink:href="#id2">February</textPath></text><line stroke="#e1ed5e" stroke-width="0.3" x1="172.23445277983987" x2="176.4835382374775" y1="55.19839476539836" y2="52.563006222186495" /><path d="M 173.08426987136738 54.67131705675599 a86.0,86.0 0 0,1 12.851231095245387,41.99856678651699" fill="none" id="id3" stroke="none" /><text fill="#e1ed5e" style="font-size:6.75px; font-family:Arial;" text-anchor="middle"><textPath startOffset="22.20632615414155" xlink:href="#id3">March</textPath></text><line stroke="#e1ed5e" stroke-width="0.3" x1="184.98032266829074" x2="189.97916517819016" y1="98.17113171792111" y2="98.06355123074" /><path d="M 185.9800911702706 98.14961562048488 a86.0,86.0 0 0,1 -9.607161424134198,41.387399972396054" fill="none" id="id4" stroke="none" /><text fill="#e1ed5e" style="font-size:6.75px; font-family:Arial;" text-anchor="middle"><textPath startOffset="21.466115282336823" xlink:href="#id4">April</textPath></text><line stroke="#e1ed5e" stroke-width="0.3" x1="174.80103733775053" x2="179.2010983576182" y1="140.37084112569926" y2="142.7455964860345" /><path d="M 175.68104954172406 140.8457921977663 a86.0,86.0 0 0,1 -30.038265399797805,32.042727171017184" fill="none" id="id5" stroke="none" /><text fill="#e1ed5e" style="font-size:6.75px; font-family:Arial;" text-anchor="middle"><textPath startOffset="22.206326154141568" xlink:href="#id5">May</textPath></text><line stroke="#e1ed5e" stroke-width="0.3" x1="143.8653032363475" x2="146.44561519142675" y1="172.8068346515853" y2="177.08958963109032" /><path d="M 144.38136562736335 173.6633856474863 a86.0,86.0 0 0,1 -40.68145358897372,12.25698825130547" fill="none" id="id6" stroke="none" /><text fill="#e1ed5e" style="font-size:6.75px; font-family:Arial;" text-anchor="middle"><textPath startOffset="21.466115282336833" xlink:href="#id6">June</textPath></text><path d="M 104.48393922423573 120.51570834832081 l 0.5860452812015674 2.6813775715459918 a23.744673888244012,23.744673888244012 0 0,0 -0.4000508746302677,0.08383455040056945 l -0.5398029451419216 -2.6910681026731025" fill="#ff2303" stroke="none" /><path d="M 104.13013068566511 120.58985236759428 l 0.5073060434725961 2.52906199228585 a23.579440633658525,23.579440633658525 0 0,0 -0.39864119310631757,0.07640053343286181 l -0.46369723579457417 -2.53741972406718" fill="#ff2003" stroke="none" /><path d="M 103.7750983002368 120.6578951692458 l 0.35851209489612734 1.9618311059095657 a22.994319986938194,22.994319986938194 0 0,0 -0.38997384350708747,0.06780195140638341 l -0.3246892799169899 -1.9677116358369553" fill="#ff1802" stroke="none" /><path d="M 103.06178313531738 120.77559828337769 l 0.24872383533951284 1.6877049281869074 a22.705934193013427,22.705934193013427 0 0,0 -0.3871593259481636,0.05365675477260303 l -0.21963591820451878 -1.691736248452113" fill="#ff1402" stroke="none" /><path d="M 102.70371172650421 120.8252237178851 l 0.11457413123307647 0.8825023362591202 a21.889908762205778,21.889908762205778 0 0,0 -0.37408037936490274,0.04529592435771238 l -0.09936632881679343 -0.8843437893421835" fill="#ff0801" stroke="none" /><path d="M 101.98527174616119 120.90594882070398 l 0.0936318769115777 0.9859925879089025 a21.990428347628075,21.990428347628075 0 0,0 -0.37714179641408246,0.0325413811245247 l -0.07664576275595357 -0.9874582213120906" fill="#ff0a01" stroke="none" /><path d="M 101.62511606390274 120.93702456842531 l 0.13689274659557005 1.7636443712381007 a22.768949149147684,22.768949149147684 0 0,0 -0.3910157600530259,0.026966736141134443 l -0.10651422576361383 -1.7657394518955203" fill="#ff1502" stroke="none" /><line stroke="#e1ed5e" stroke-width="0.3" x1="102.19456741930631" x2="102.32365962044197" y1="184.97166512339345" y2="189.96999836594603" /><path d="M 102.22038585953345 185.97133177190398 a86.0,86.0 0 0,1 -42.740103519485714,-10.115201625700543" fill="none" id="id7" stroke="none" /><text fill="#e1ed5e" style="font-size:6.75px; font-family:Arial;" text-anchor="middle"><textPath startOffset="22.20632615414155" xlink:href="#id7">July</textPath></text><path d="M 100.18074693466247 120.99922214144158 l 0.5422408039873879 62.99766642432473 a84.0,84.0 0 0,0 -1.4459754772996436,0.0 l 0.5422408039873445 -62.99766642432473" fill="#4dd2ff" stroke="none" /><path d="M 99.45781275523022 120.99299961872073 l -0.576819999504314 22.33394855094069 a43.341396088604085,43.341396088604085 0 0,0 -0.7456363969914708,-0.025681225144048143 l 0.9611767481704278 -22.320710527370547" fill="#deff1b" stroke="none" /><path d="M 98.73552117531835 120.96189622390904 l -0.08048958795788558 1.334316049383569 a22.336741520793083,22.336741520793083 0 0,0 -0.3835933712025458,-0.026454844749235915 l 0.10344571993936139 -1.332732860118048" fill="#ff0f01" stroke="none" /><path d="M 98.37488393609728 120.93702456842531 l -0.08905788152038653 1.1473685448203543 a22.15081965741991,22.15081965741991 0 0,0 -0.37989255077629225,-0.03277872778546688 l 0.10879475003822046 -1.145665564756224" fill="#ff0c01" stroke="none" /><path d="M 98.01472825383883 120.90594882070398 l -0.10131093315830167 1.0668570626065135 a22.071656613477845,22.071656613477845 0 0,0 -0.3779165836724387,-0.03917259910532879 l 0.11966011343633368 -1.0649550950454238" fill="#ff0b01" stroke="none" /><path d="M 97.65516085044442 120.86867818915974 l -0.20917693910680857 1.8616399455974604 a22.87335481927429,22.87335481927429 0 0,0 -0.3908866565453756,-0.04733093047376495 l 0.24119101870357348 -1.8577634863983468" fill="#ff1602" stroke="none" /><path d="M 97.2962882734958 120.8252237178851 l -0.19626142715919714 1.511695232785147 a22.524382178003897,22.524382178003897 0 0,0 -0.38406367900590904,-0.05322772631400332 l 0.22225369735193726 -1.5080929409785389" fill="#ff1101" stroke="none" /><path d="M 96.22490169976321 120.6578951692458 l -0.1611700389476003 0.8819462446299609 a21.896551705074092,21.896551705074092 0 0,0 -0.37018976116698443,-0.07094774878670802 l 0.17632741468627977 -0.8790412974947847" fill="#ff0801" stroke="none" /><path d="M 95.86986931433489 120.58985236759428 l -0.3922997778748425 1.9557237107092365 a22.994681515518444,22.994681515518444 0 0,0 -0.3874149839001083,-0.08118657664160223 l 0.4259062232043376 -1.948681153341093" fill="#ff1802" stroke="none" /><path d="M 95.51606077576429 120.51570834832081 l -0.2551309622170273 1.1673201062093244 a22.194875741758253,22.194875741758253 0 0,0 -0.3725355469380441,-0.08478787761148618 l 0.275186658547934 -1.1627554950201515" fill="#ff0d01" stroke="none" /><path d="M 95.16358092515715 120.4354850818985 l -0.2090271764904125 0.8832095980061416 a21.90760759941823,21.90760759941823 0 0,0 -0.36621874699573564,-0.09000765795370476 l 0.22419920822935868 -0.8794806817384069" fill="#ff0901" stroke="none" /><path d="M 94.81253420990036 120.34920634021253 l -0.12831345607224695 0.5033434627796932 a21.51944103085168,21.51944103085168 0 0,0 -0.3581547764589162,-0.09459193168090765 l 0.1369586753426524 -0.5010601817952038" fill="#ff0300" stroke="none" /><path d="M 94.46302465271185 120.25689768951611 l -0.48132664601727054 1.7609225275646467 a22.825520059668175,22.825520059668175 0 0,0 -0.3781089047886415,-0.10685735332103638 l 0.511566718910526 -1.752376380905089" fill="#ff1602" stroke="none" /><path d="M 93.42475214034765 119.94407469862007 l -0.3067334528409142 0.9303854434999649 a21.979644060140384,21.979644060140384 0 0,0 -0.3582998771929798,-0.12155477191367219 l 0.3227030629711198 -0.9249676846881697" fill="#ff0a01" stroke="none" /><path d="M 93.08242187328487 119.8279376855182 l -0.6225675732825383 1.7844729502075345 a22.889956108835676,22.889956108835676 0 0,0 -0.3709049677086132,-0.1329933252536419 l 0.6531921016208782 -1.7734920839139348" fill="#ff1702" stroke="none" /><path d="M 92.7421414339146 119.70592522655815 l -0.4619392853574138 1.2542185733680766 a22.336582258275925,22.336582258275925 0 0,0 -0.35965064895050564,-0.13598910135036701 l 0.4834601550682024 -1.2460812219110764" fill="#ff0f01" stroke="none" /><path d="M 92.40401165467489 119.57807347666478 l -0.3243694676337905 0.8360372583811777 a21.896757408073412,21.896757408073412 0 0,0 -0.3502218722093414,-0.1393605107078024 l 0.33871241588499 -0.8303299032673087" fill="#ff0801" stroke="none" /><path d="M 92.06813273071674 119.44442032107085 l -0.6104839516927775 1.4965589000653212 a22.61628561728401,22.61628561728401 0 0,0 -0.3591988920724415,-0.1501451660181738 l 0.6361543032626812 -1.4858286910271743" fill="#ff1302" stroke="none" /><path d="M 91.40352486487194 119.15986991738527 l -0.8425131816047146 1.8777979008239487 a23.058143196552788,23.058143196552788 0 0,0 -0.3607303808688252,-0.1655936251489789 l 0.8747115582409593 -1.8630172053408953" fill="#ff1902" stroke="none" /><path d="M 91.07499286063937 119.00905698771935 l -0.5054943409416729 1.076634515120204 a22.189397497841732,22.189397497841732 0 0,0 -0.3443449309168451,-0.16530649264707856 l 0.52395193985876 -1.067773745973563" fill="#ff0d01" stroke="none" /><path d="M 90.7491055286396 118.85261126421891 l -0.1379962275009392 0.28122569564036387 a21.313258440736874,21.313258440736874 0 0,0 -0.3279664847462639,-0.16444920392431606 l 0.1428166199299636 -0.2788086508067457" fill="#ff0000" stroke="none" /><path d="M 90.42595943632237 118.69057910512821 l -0.6613226720506126 1.2910435916545517 a22.450565831708595,22.450565831708595 0 0,0 -0.34243430853924167,-0.17914544578282365 l 0.6834478831163499 -1.279468726927011" fill="#ff1001" stroke="none" /><path d="M 90.10565033884886 118.52300852407294 l -1.0317411080937038 1.931501310782735 a23.18979154891187,23.18979154891187 0 0,0 -0.35047194453076247,-0.19110524815626564 l 1.0648358644931069 -1.9134554108667035" fill="#ff1b02" stroke="none" /><line stroke="#e1ed5e" stroke-width="0.3" x1="58.666819895761336" x2="56.23545636021788" y1="174.27360380694188" y2="178.64263932499728" /><path d="M 58.180547188652646 175.14741091055294 a86.0,86.0 0 0,1 -31.652253787137756,-30.449443065178592" fill="none" id="id8" stroke="none" /><text fill="#e1ed5e" style="font-size:6.75px; font-family:Arial;" text-anchor="middle"><textPath startOffset="22.20632615414155" xlink:href="#id8">August</textPath></text><path d="M 89.4739219176387 118.17145234162733 l -0.568199533261767 0.9808981710389241 a22.133583667642753,22.133583667642753 0 0,0 -0.32803249365008974,-0.1938073792886618 l 0.5849998979402389 -0.9709722194565127" fill="#ff0c01" stroke="none" /><path d="M 88.8546689885994 117.79835938074946 l -0.7095748036964873 1.133144215348679 a22.336978763787624,22.336978763787624 0 0,0 -0.3241182817436907,-0.20686762253456153 l 0.7289748874871014 -1.1207621639903134" fill="#ff0f01" stroke="none" /><path d="M 88.54995079064634 117.60387380957326 l -0.8017507203411316 1.2326513405802593 a22.470453516776995,22.470453516776995 0 0,0 -0.32242457978059585,-0.21368543020361472 l 0.8228499988616893 -1.218667889285326" fill="#ff1101" stroke="none" /><path d="M 88.24862548938628 117.40417183066458 l -0.911664466985469 1.3502050352489108 a22.62916719141266,22.62916719141266 0 0,0 -0.32094960260379873,-0.2207520632456191 l 0.9347709542121603 -1.3343121826381927" fill="#ff1302" stroke="none" /><path d="M 87.95078237400918 117.19931262002967 l -0.5122137536084295 0.7311449382063758 a21.89271263576273,21.89271263576273 0 0,0 -0.30678224037916135,-0.21888098293685485 l 0.5247233218364753 -0.7222196934253018" fill="#ff0801" stroke="none" /><path d="M 87.65650970185807 116.9893568818739 l -1.2258846479578789 1.6872854660323942 a23.08559953346345,23.08559953346345 0 0,0 -0.3194772472058409,-0.23634162986059387 l 1.254746865582284 -1.665933887432031" fill="#ff1902" stroke="none" /><path d="M 86.79598089348748 116.32954008644616 l -0.5705722456415873 0.7056322989431648 a21.907452273570517,21.907452273570517 0 0,0 -0.2911916350969097,-0.23963089145916674 l 0.5826340092831856 -0.6957062886268174" fill="#ff0901" stroke="none" /><path d="M 86.51685102203217 116.09983520530335 l -0.8613080977229653 1.028462895202917 a22.34148707262214,22.34148707262214 0 0,0 -0.2927102094421783,-0.24945399069900584 l 0.8788837837422002 -1.0134845142809596" fill="#ff0f01" stroke="none" /><path d="M 85.18274418774928 114.88116024355367 l -1.3192758904820028 1.3249657143320588 a22.869765498495077,22.869765498495077 0 0,0 -0.2765710167202067,-0.28016497975813726 l 1.3418875322577428 -1.3020602405932569" fill="#ff1602" stroke="none" /><path d="M 84.9287848128048 114.62390073753433 l -0.9740809025549189 0.945170130766476 a22.35726938402637,22.35726938402637 0 0,0 -0.2656186781128757,-0.278500122071869 l 0.990206132046752 -0.9282628921121069" fill="#ff0f01" stroke="none" /><path d="M 84.67929136418377 114.36230785411682 l -0.6507350630261561 0.610027742763861 a21.891958501945705,21.891958501945705 0 0,0 -0.25535780338380903,-0.27714046179444585 l 0.6611392744056964 -0.5987360261680733" fill="#ff0801" stroke="none" /><path d="M 84.4343377721795 114.09645910891817 l -1.167710929910003 1.0574936763752434 a22.575386203889355,22.575386203889355 0 0,0 -0.25837115666075744,-0.2902827334821815 l 1.1857409362190943 -1.0372367731521954" fill="#ff1202" stroke="none" /><path d="M 84.19399662182784 113.82643327865904 l -1.0200553481129204 0.8923019231224272 a22.355254822984133,22.355254822984133 0 0,0 -0.2508658690233397,-0.2918136810028381 l 1.0352637267070413 -0.8746111429580588" fill="#ff0f01" stroke="none" /><path d="M 83.95833913139862 113.55231037782056 l -1.4021673793923706 1.184578559716021 a22.8355652328291,22.8355652328291 0 0,0 -0.2510868265215394,-0.30245025747408516 l 1.4223502058074464 -1.1602670451281747" fill="#ff1602" stroke="none" /><path d="M 83.50135304334701 112.99209946851258 l -0.4769018423008924 0.3755432908024988 a21.60701575799707,21.60701575799707 0 0,0 -0.22758688504432006,-0.29418672794062284 l 0.48329554456328083 -0.36727856874862325" fill="#ff0400" stroke="none" /><path d="M 83.28015986056508 112.70617746262583 l -1.0631774103358902 0.8079575365150201 a22.33534324675716,22.33534324675716 0 0,0 -0.229988872933774,-0.3081076795392551 l 1.0769275499647493 -0.7895369774664593" fill="#ff0f01" stroke="none" /><path d="M 83.06392112726016 112.41649034213515 l -3.105128477560987 2.27648902927479 a24.85022404056812,24.85022404056812 0 0,0 -0.24994616577911755,-0.3471533633577552 l 3.143854435715712 -2.2227020604658945" fill="#ff3204" stroke="none" /><path d="M 82.85270091963577 112.12312394758628 l -0.7642555265324974 0.5403279217536386 a21.93597049785881,21.93597049785881 0 0,0 -0.21532671709270523,-0.31019419579748253 l 0.7734431507873365 -0.5270924637691459" fill="#ff0901" stroke="none" /><path d="M 82.24976979558568 111.22182372390057 l -1.1510052657272725 0.727673841326328 a22.361735048048086,22.361735048048086 0 0,0 -0.20289053547759722,-0.32712414494277725 l 1.1633604408728255 -0.7077533650182865" fill="#ff0f01" stroke="none" /><path d="M 82.05923443525364 110.91462005526583 l -30.27535198057871 18.41860999269615 a56.437862966197294,56.437862966197294 0 0,0 -0.4977795979077263,-0.8343072383223277 l 30.587912454184668 -17.894740660487713" fill="#51ff2b" stroke="none" /><line stroke="#e1ed5e" stroke-width="0.3" x1="26.63291911575756" x2="22.317208475507996" y1="142.92168965132927" y2="145.44649492493687" /><path d="M 25.769776987707644 143.4266507060508 a86.0,86.0 0 0,1 -11.730757126820373,-40.83630448921669" fill="none" id="id9" stroke="none" /><text fill="#e1ed5e" style="font-size:6.75px; font-family:Arial;" text-anchor="middle"><textPath startOffset="21.46611528233685" xlink:href="#id9">September</textPath></text><path d="M 81.51974371655577 109.97397251340807 l -5.564023458290418 3.0029571119456056 a27.322666246180543,27.322666246180543 0 0,0 -0.21981409194765572,-0.4158054228615437 l 5.61489005846296 -2.9067366739979357" fill="#ff5507" stroke="none" /><path d="M 81.35079622478065 109.6543875284942 l -1.2718068171007375 0.6583935712036499 a22.432122437023526,22.432122437023526 0 0,0 -0.17456606134170083,-0.3444354001137113 l 1.282951548228705 -0.6364039593872536" fill="#ff1001" stroke="none" /><path d="M 80.87730276802145 108.67885076344099 l -1.209025200446822 0.5487170118643165 a22.327716948157544,22.327716948157544 0 0,0 -0.15582504649280893,-0.3513443432304233 l 1.218291331670911 -0.5278243321411974" fill="#ff0f01" stroke="none" /><path d="M 80.73074385275274 108.34839909993369 l -2.642250033876233 1.144753987183014 a23.879574088765622,23.879574088765622 0 0,0 -0.16016259904515512,-0.3785770728758285 l 2.6615636141136947 -1.0991023886410267" fill="#ff2503" stroke="none" /><path d="M 80.58989483394504 108.01547362559985 l -0.8241018079730313 0.3403158432221697 a21.891604544095888,21.891604544095888 0 0,0 -0.1408332639818307,-0.3495366115509841 l 0.8298376862122498 -0.3260798638283802" fill="#ff0801" stroke="none" /><path d="M 80.45479744820244 107.68017299344265 l -1.2425725255572548 0.4882616042421611 a22.335060251616706,22.335060251616706 0 0,0 -0.13752624076941325,-0.35903761782415616 l 1.2507930459201773 -0.466800419584847" fill="#ff0f01" stroke="none" /><path d="M 80.32549172779594 107.34259656027581 l -1.7568373664686276 0.6556579623502555 a22.87519729517022,22.87519729517022 0 0,0 -0.13450151860344928,-0.37009041309303775 l 1.7678631460773013 -0.6253197522511007" fill="#ff1602" stroke="none" /><path d="M 80.20201598880116 107.00284435728193 l -2.0971528420058045 0.741794464410663 a23.224479505449157,23.224479505449157 0 0,0 -0.13006722554342362,-0.37803624054789087 l 2.1096108984924564 -0.7055855207734751" fill="#ff1b02" stroke="none" /><path d="M 80.0844068197444 106.66101706037122 l -1.108288021279667 0.3706806697009555 a22.168634458246867,22.168634458246867 0 0,0 -0.11792420254163652,-0.36293337679691645 l 1.114504474837553 -0.35154839292623563" fill="#ff0c01" stroke="none" /><path d="M 79.97269907076064 106.31721596034903 l -1.2670758003177982 0.39967399985753466 a22.32861596780752,22.32861596780752 0 0,0 -0.11246522744695975,-0.3675428704911768 l 1.2737678002708883 -0.37780415681431007" fill="#ff0f01" stroke="none" /><path d="M 79.86692584326677 105.97154293290107 l -0.8537389267701848 0.2532220670826887 a21.890500741347438,21.890500741347438 0 0,0 -0.10403967410650818,-0.362175754287727 l 0.857971237762797 -0.23848883729036569" fill="#ff0801" stroke="none" /><path d="M 79.76711848015287 105.62410040840567 l -1.2877537576026037 0.35795476916890806 a22.336578227037382,22.336578227037382 0 0,0 -0.09978273197242171,-0.3713286657567903 l 1.293724565916798 -0.3357351702365789" fill="#ff0f01" stroke="none" /><path d="M 79.67330655649465 105.27499134158121 l -1.4093176176794628 0.3657327863707382 a22.456000212406654,22.456000212406654 0 0,0 -0.09387536880176259,-0.3749854339512985 l 1.4154043007762862 -0.3414195130220478" fill="#ff1001" stroke="none" /><path d="M 79.58551787078972 104.9243191809786 l -1.6462282940082238 0.39709817340186293 a22.693444582887885,22.693444582887885 0 0,0 -0.08833091987102687,-0.3805272909694303 l 1.6528197798098057 -0.3687022250838584" fill="#ff1402" stroke="none" /><path d="M 79.50377843672027 104.57218783832718 l -1.470433290804659 0.3280164194425631 a22.50657520029056,22.50657520029056 0 0,0 -0.08109436416907845,-0.3788458716939809 l 1.475861693698178 -0.3026567283324184" fill="#ff1101" stroke="none" /><path d="M 79.4281124754447 104.21870165774334 l -1.3582980848331863 0.2785478180043297 a22.386565027027753,22.386565027027753 0 0,0 -0.07416356330356773,-0.3781584114970807 l 1.3628915811124205 -0.2551256794392942" fill="#ff0f01" stroke="none" /><path d="M 79.29508885075956 103.50808413554451 l -1.2286740181723117 0.20817726769448788 a22.24618522608657,22.24618522608657 0 0,0 -0.060719633776812124,-0.3781012174896318 l 1.2320754063104147 -0.18699682051164238" fill="#ff0d01" stroke="none" /><path d="M 79.23777060512086 103.15116336523772 l -1.7691148737860174 0.2685053648692772 a22.789374909742087,22.789374909742087 0 0,0 -0.05552571399978391,-0.38834671438987883 l 1.7734746388024003 -0.23801317849899775" fill="#ff1502" stroke="none" /><path d="M 79.1416061653843 102.43462659150553 l -1.344885653266688 0.156977301317587 a22.354015987162455,22.354015987162455 0 0,0 -0.041320545372873246,-0.3825769317348843 l 1.347388500140613 -0.13380404769792062" fill="#ff0f01" stroke="none" /><path d="M 79.10278846688536 102.07522291339032 l -2.2190785278136804 0.2203682821621429 a23.229993652992498,23.229993652992498 0 0,0 -0.036089901019517034,-0.3982490504274276 l 2.2225430251102725 -0.18213784318614912" fill="#ff1b02" stroke="none" /><path d="M 79.0235259727143 100.99374915477108 l -1.4495550886013564 0.06867189129202331 a22.451180823861627,22.451180823861627 0 0,0 -0.014965173643146753,-0.3861846354753267 l 1.450522395095704 -0.043710008802699825" fill="#ff1001" stroke="none" /><path d="M 79.0095281055655 100.63252640178507 l -1.3233725248452344 0.03987847750976623 a22.323973237072316,22.323973237072316 0 0,0 -0.008268307831405699,-0.38419577523364473 l 1.3238628953616474 -0.01709288648599265" fill="#ff0f01" stroke="none" /><line stroke="#e1ed5e" stroke-width="0.3" x1="15.007084014347285" x2="10.007500721073583" y1="101.09737516637583" y2="101.16192664675087" /><path d="M 14.007167355692545 101.11028546245083 a86.0,86.0 0 0,1 10.666146001902534,-42.60595125391555" fill="none" id="id10" stroke="none" /><text fill="#e1ed5e" style="font-size:6.75px; font-family:Arial;" text-anchor="middle"><textPath startOffset="22.20632615414155" xlink:href="#id10">October</textPath></text><path d="M 79.00175016825051 100.2711162175752 l -2.5791924830354405 0.03330091393339272 a23.579407454322663,23.579407454322663 0 0,0 -0.0017467880042191723,-0.4058920144910117 l 2.579383568329163 0.011100578761294364" fill="#ff2003" stroke="none" /><path d="M 79.00486145842228 99.54816195383935 l -0.9040067684601757 -0.019455201553833266 a21.904216092695385,21.904216092695385 0 0,0 0.01135713321556399,-0.3768879605497471 l 0.9035379407889667 0.03501330952857475" fill="#ff0901" stroke="none" /><path d="M 79.01574976396665 99.18683210126434 l -0.9398320608064629 -0.03641975545726503 a21.940537453325113,21.940537453325113 0 0,0 0.017872544249722466,-0.3772611613865518 l 0.9390659083232415 0.052592023466825906" fill="#ff0901" stroke="none" /><path d="M 79.03285615573316 98.82574320788736 l -2.1957698394320686 -0.12297324170713035 a23.19921067793322,23.19921067793322 0 0,0 0.02576151819873856,-0.3985192842166262 l 2.193327730228917 0.16075159017676835" fill="#ff1b02" stroke="none" /><path d="M 79.05617556472873 98.46500227214037 l -1.3157665732810016 -0.09643409237993039 a22.3192957248232,22.3192957248232 0 0,0 0.03138041557431891,-0.3829205536846538 l 1.3139116738871857 0.11906856327236254" fill="#ff0e01" stroke="none" /><path d="M 79.08570108090925 98.10471618934814 l -4.4421422496362135 -0.40255331163231467 a25.460344934498814,25.460344934498814 0 0,0 0.04331031915153366,-0.4361290033164158 l 4.434554804802452 0.4789578456531608" fill="#ff3b05" stroke="none" /><path d="M 79.12142395522702 97.74499172005258 l -0.9742337688752057 -0.10522294292038059 a21.97989963982727,21.97989963982727 0 0,0 0.043865230234366864,-0.37581050460338555 l 0.9722781856372499 0.12197718584862792" fill="#ff0a01" stroke="none" /><path d="M 79.16333360222342 97.38593545837743 l -1.5129752050805727 -0.18981034492049448 a22.524835052793396,22.524835052793396 0 0,0 0.051575437614316884,-0.3842969165445187 l 1.509483768408422 0.2158256035296726" fill="#ff1101" stroke="none" /><path d="M 79.21141760316559 97.0276538004421 l -0.8811872885843235 -0.12599193337594705 a21.890148866672536,21.890148866672536 0 0,0 0.05654340798825347,-0.37255041118180976 l 0.8788879871567677 0.14114145694984884" fill="#ff0801" stroke="none" /><path d="M 79.26566170972629 96.67025291283419 l -1.947939144089937 -0.3128213980212873 a22.972897396251977,22.972897396251977 0 0,0 0.06606145282126535,-0.3898984340755484 l 1.9422658297484485 0.3463056204126636" fill="#ff1802" stroke="none" /><path d="M 79.3925641242962 95.95851677861259 l -1.3115230120660513 -0.25721289536937103 a22.33650704626766,22.33650704626766 0 0,0 0.07724251754760202,-0.3766619476838606 l 1.3069011986034547 0.2797504992166341" fill="#ff0f01" stroke="none" /><path d="M 79.46518482838121 95.60439243477599 l -1.4159634032228472 -0.30309595656302313 a22.448039888314987,22.448039888314987 0 0,0 0.08413270190535918,-0.37715040587670584 l 1.4105363143154503 0.32742453198968824" fill="#ff1001" stroke="none" /><path d="M 79.54389044137918 95.25157060432595 l -1.949879370918774 -0.4526209881872264 a23.001723087762684,23.001723087762684 0 0,0 0.09284722168218133,-0.38491167572956325 l 1.941799348975778 0.4861178955761864" fill="#ff1802" stroke="none" /><path d="M 79.62865764111835 94.90015583598534 l -1.3991868535165461 -0.35027809083780553 a22.442365623541587,22.442365623541587 0 0,0 0.09704043429168062,-0.37393637861030965 l 1.3929500873545582 0.374310894996979" fill="#ff1001" stroke="none" /><path d="M 79.71946130924805 94.55025226153421 l -1.4994441978836206 -0.40292778959062875 a22.552637660947088,22.552637660947088 0 0,0 0.10397112781919064,-0.3740394654950538 l 1.4922862994980692 0.4286785585046251" fill="#ff1202" stroke="none" /><path d="M 80.02781315780177 93.51064311812611 l -1.7900271993091958 -0.5816150938481836 a22.882145980432643,22.882145980432643 0 0,0 0.12493946582979844,-0.3735531002357229 l 1.7797504397076251 0.6123412970062286" fill="#ff1702" stroke="none" /><path d="M 80.14247586403 93.16781622104843 l -0.8418216714624586 -0.28963733490407556 a21.890254745740894,21.890254745740894 0 0,0 0.12565727475654812,-0.35525003692736373 l 0.8367113158961008 0.30408499825805035" fill="#ff0801" stroke="none" /><path d="M 80.2630227832202 92.82701384747504 l -1.0301713434055826 -0.3743939459328159 a22.096094805901938,22.096094805901938 0 0,0 0.1329926188332869,-0.3563540987031015 l 1.0235741360706683 0.3920711816652588" fill="#ff0b01" stroke="none" /><path d="M 80.38941819471856 92.48833698450439 l -1.5036665933494302 -0.5759664271591001 a22.610202021228858,22.610202021228858 0 0,0 0.14234354979449904,-0.3622488080738224 l 1.49352949367324 0.6017642401286859" fill="#ff1302" stroke="none" /><path d="M 80.52162464483688 92.15188598940014 l -1.7334533536081738 -0.6984329700560736 a22.868868412381346,22.868868412381346 0 0,0 0.15025751839818077,-0.3638604991206485 l 1.7211741483237908 0.7281680396300334" fill="#ff1602" stroke="none" /><path d="M 80.95270993114464 91.15688171328213 l -1.2395560415708453 -0.5754908262015822 a22.366634139496362,22.366634139496362 0 0,0 0.16513158831753608,-0.34780923880218745 l 1.2294662594115577 0.5967424806443018" fill="#ff0f01" stroke="none" /><path d="M 81.10775173730289 90.83032412892265 l -1.527127974297064 -0.7412176858594731 a22.6975050832653,22.6975050832653 0 0,0 0.17362509155074216,-0.35001758981959746 l 1.5141428697929091 0.7673948641780322" fill="#ff1402" stroke="none" /><path d="M 81.26839172434947 90.50648371742162 l -1.6783768032640183 -0.8506315782185793 a22.8816276931416,22.8816276931416 0 0,0 0.181081460787735,-0.34979174517056033 l 1.6634859093161691 0.879396045649475" fill="#ff1702" stroke="none" /><path d="M 81.43458229118936 90.18545643968196 l -0.49040436955683364 -0.25925056590036694 a21.55471371138642,21.55471371138642 0 0,0 0.17622713180521915,-0.3265221109722055 l 0.4858691385331427 0.26765366020504516" fill="#ff0300" stroke="none" /><path d="M 81.6062741919709 89.86733742301443 l -1.9421639317974377 -1.0698915486445262 a23.217356232957588,23.217356232957588 0 0,0 0.19584653552666637,-0.3483891335582546 l 1.9234597549783408 1.1031641921375654" fill="#ff1b02" stroke="none" /><line stroke="#e1ed5e" stroke-width="0.3" x1="26.266209847984243" x2="21.928928074336255" y1="57.711370442889674" y2="55.22380399835377" /><path d="M 25.398753493254645 57.213857153982495 a86.0,86.0 0 0,1 29.58750427330803,-30.492523968695096" fill="none" id="id11" stroke="none" /><text fill="#e1ed5e" style="font-size:6.75px; font-family:Arial;" text-anchor="middle"><textPath startOffset="21.46611528233685" xlink:href="#id11">November</textPath></text><path d="M 81.78341655067845 89.55222093294921 l -1.945479787469442 -1.1157933679188712 a23.24274083285249,23.24274083285249 0 0,0 0.2020351179919437,-0.3453435072939442 l 1.9259849950071757 1.1491162875667071" fill="#ff1c02" stroke="none" /><path d="M 83.6137871275137 86.86637796730984 l -1.4633518808246677 -1.172882999454242 a22.875380829997436,22.875380829997436 0 0,0 0.24890757209434272,-0.3051312522250519 l 1.4429458166539324 1.1978984212873762" fill="#ff1602" stroke="none" /><path d="M 83.84228863543731 86.58626213691792 l -1.5207784917649314 -1.2625132097042029 a22.97653910300111,22.97653910300111 0 0,0 0.25524679578705856,-0.3021316972281151 l 1.4988210824907486 1.288503856561434" fill="#ff1802" stroke="none" /><path d="M 84.07557802195018 86.31012108654704 l -0.8126594141967567 -0.6986256074830333 a22.07167768611353,22.07167768611353 0 0,0 0.25015423208487503,-0.2859695308044815 l 0.8005133185340382 0.7125106944904578" fill="#ff0b01" stroke="none" /><path d="M 84.31358615837235 86.03803664274999 l -0.3295701183603924 -0.29333957159674773 a21.441208076966692,21.441208076966692 0 0,0 0.24775454727383756,-0.2735767591331766 l 0.3244719304705099 0.29896911799948034" fill="#ff0200" stroke="none" /><path d="M 84.5562425177563 85.77008943001954 l -1.1750123071154386 -1.0826588068417367 a22.597749671852483,22.597749671852483 0 0,0 0.26604296041968034,-0.2837960808667384 l 1.1562020247253 1.1027243045865252" fill="#ff1202" stroke="none" /><path d="M 84.80347519578584 85.50635884689758 l -1.835198561745814 -1.7503152688736692 a23.53605151790854,23.53605151790854 0 0,0 0.2821364408753407,-0.2907664028153493 l 1.8047978571673597 1.781645867239142" fill="#ff2003" stroke="none" /><path d="M 85.31137513191541 84.99185889309783 l -0.9342581570478942 -0.9545807301345823 a22.33568809021972,22.33568809021972 0 0,0 0.277086714902313,-0.2665572002005107 l 0.9176881985331535 0.970521017097402" fill="#ff0f01" stroke="none" /><path d="M 85.57189188830299 84.74124197986013 l -1.8705162171918899 -1.9782049115461882 a23.72252191742203,23.72252191742203 0 0,0 0.29912079905890887,-0.27800018336291266 l 1.8361875343381249 2.0101096809837506" fill="#ff2203" stroke="none" /><path d="M 85.83668400450813 84.49514656593479 l -2.5854604020963308 -2.8303530477497305 a24.83347151622577,24.83347151622577 0 0,0 0.3180919513196736,-0.28558609461278117 l 2.5363574631806856 2.8744381511317907" fill="#ff3204" stroke="none" /><path d="M 86.10567301691215 84.25364557470407 l -0.5891104765494667 -0.667635242116732 a21.890386416168063,21.890386416168063 0 0,0 0.2846857276320919,-0.24687665766280467 l 0.5775309502706013 0.6776768931992172" fill="#ff0801" stroke="none" /><path d="M 86.65592168130627 83.78471172551755 l -1.2439358282980335 -1.5115902027157961 a22.957621333626577,22.957621333626577 0 0,0 0.30730044447264526,-0.2484822547834334 l 1.2177319852608877 1.532778554763366" fill="#ff1802" stroke="none" /><path d="M 86.93701828274178 83.55741782278169 l -1.295616928562764 -1.630813567620896 a23.08282887389118,23.08282887389118 0 0,0 0.3132311792326191,-0.24448190378169793 l 1.267353194170719 1.6528738606258133" fill="#ff1902" stroke="none" /><path d="M 87.22198572758235 83.33499621200491 l -1.6656488284898692 -2.172328457651763 a23.73740697518169,23.73740697518169 0 0,0 0.3263936935183874,-0.24583296310714456 l 1.6280089812130918 2.200678010264762" fill="#ff2303" stroke="none" /><path d="M 87.80319425747018 82.90503203632743 l -0.5576897697193507 -0.7816545535177788 a21.960209206519444,21.960209206519444 0 0,0 0.30960638639422017,-0.21689905930985456 l 0.5441522437414702 0.7911384555915759" fill="#ff0901" stroke="none" /><path d="M 88.70189139769569 82.29822771554957 l -1.758250337840247 -2.7548104019072834 a24.26809188992169,24.26809188992169 0 0,0 0.3540608839782153,-0.22171289306555145 l 1.7105703014897895 2.784667636295765" fill="#ff2a04" stroke="none" /><path d="M 89.00827224532344 82.1063720568725 l -1.332781476611872 -2.1696585290550328 a23.546315887139883,23.546315887139883 0 0,0 0.34718250473717094,-0.2091735744525869 l 1.295236905657054 2.192278712966239" fill="#ff2003" stroke="none" /><line stroke="#e1ed5e" stroke-width="0.3" x1="56.76296977257108" x2="54.21961505331056" y1="26.818313649435495" y2="22.513508569990535" /><path d="M 56.25429882871898 25.957352633546506 a86.0,86.0 0 0,1 42.26535254187918,-11.944610805530505" fill="none" id="id12" stroke="none" /><text fill="#e1ed5e" style="font-size:6.75px; font-family:Arial;" text-anchor="middle"><textPath startOffset="22.20632615414155" xlink:href="#id12">December</textPath></text><path d="M 89.3179101791058 81.91981866633112 l -0.6080532912252663 -1.0291725636291922 a22.195376497467205,22.195376497467205 0 0,0 0.330608871074768,-0.19150999745255778 l 0.5902476876851759 1.039486718471797" fill="#ff0d01" stroke="none" /><path d="M 89.63071344664047 81.73862282372117 l -0.4715701726736017 -0.8304834420344519 a21.955029410672154,21.955029410672154 0 0,0 0.330241186406957,-0.18377886269092664 l 0.4572048971945991 0.8384777022855631" fill="#ff0901" stroke="none" /><path d="M 89.94658935756843 81.56283822128135 l -0.18945254863582456 -0.34744102402887944 a21.39573669701311,21.39573669701311 0 0,0 0.32486364900089265,-0.17353091055564407 l 0.1834438531066266 0.35065066108627296" fill="#ff0100" stroke="none" /><path d="M 90.26544431104013 81.39251694778311 l -1.0307015666932642 -1.9701733234614163 a23.22349469171009,23.22349469171009 0 0,0 0.35580551707598757,-0.18225740540758 l 0.9966355620285129 1.9876232541815015" fill="#ff1b02" stroke="none" /><path d="M 90.58718382345135 81.22770947309562 l -0.5538662032877242 -1.1045936822876525 a22.235675917906534,22.235675917906534 0 0,0 0.3436245587049995,-0.16861507861146907 l 0.5347703775722986 1.1139639210339514" fill="#ff0d01" stroke="none" /><path d="M 90.91171255644093 81.06846463323043 l -2.0679802032990637 -4.3077467124217605 a25.778412273927117,25.778412273927117 0 0,0 0.4016789606728837,-0.188593657962754 l 1.9935230313265715 4.342705353024522" fill="#ff3f05" stroke="none" /><path d="M 91.23893434514133 80.91482961587045 l -0.669236974539979 -1.4578707875989436 a22.604140069141653,22.604140069141653 0 0,0 0.35501188530879046,-0.15928348458998415 l 0.6440429707644141 1.4691746027054566" fill="#ff1302" stroke="none" /><path d="M 91.90106846888425 80.62456947434976 l -0.6509689162845408 -1.5573416028239138 a22.687919843432983,22.687919843432983 0 0,0 0.361619654146804,-0.14751373665525613 l 0.6240653925493563 1.5683162256627468" fill="#ff1402" stroke="none" /><path d="M 92.57280143429618 80.3572730644239 l -0.5654358868983257 -1.4954094235753903 a22.598739217730827,22.598739217730827 0 0,0 0.36504246466242385,-0.13444822045525695 l 0.5396110964633335 1.5049209118369697" fill="#ff1202" stroke="none" /><path d="M 92.91201910852362 80.23233633223022 l -0.3206876572269345 -0.8943655248972685 a21.950121184703544,21.950121184703544 0 0,0 0.35676054158719234,-0.12446674778290959 l 0.30524511157645684 0.8997531258523879" fill="#ff0901" stroke="none" /><path d="M 93.25333710446033 80.11325718540243 l -0.6292801217616342 -1.8548921346115723 a22.958728746582388,22.958728746582388 0 0,0 0.37533933134184444,-0.123743476312768 l 0.5972579681773804 1.8654493351835741" fill="#ff1802" stroke="none" /><path d="M 93.94186890950719 79.89281104454417 l -0.542006148771112 -1.7989409416152329 a22.878818558755793,22.878818558755793 0 0,0 0.3780558974675807,-0.11036488344608801 l 0.51096003358011 1.8080041539800198" fill="#ff1602" stroke="none" /><path d="M 94.28887869178378 79.79150937346287 l -0.12845139550322207 -0.4545182428988245 a21.47232043586379,21.47232043586379 0 0,0 0.35654492663096676,-0.09745719701087592 l 0.12060857964853279 0.45666198073599634" fill="#ff0200" stroke="none" /><path d="M 94.98787191387505 79.60689891045804 l -0.37896795603299677 -1.5419262445571376 a22.587813986383136,22.587813986383136 0 0,0 0.3783741868431413,-0.08954894524609547 l 0.3523700822273215 1.548221101944104" fill="#ff1202" stroke="none" /><path d="M 95.33964822691252 79.52364482259891 l -0.7244449445459841 -3.1830198047836813 a24.26441963529865,24.26441963529865 0 0,0 0.40805506373323275,-0.08918503201822058 l 0.6695471566592304 3.19501833489777" fill="#ff2a04" stroke="none" /><path d="M 95.692805502759 79.44645832069477 l -0.30309358599234587 -1.4463351159122704 a22.47775200537528,22.47775200537528 0 0,0 0.3793747785891636,-0.07609901161236796 l 0.27815239793604585 1.451338083601849" fill="#ff1101" stroke="none" /><path d="M 96.40284397218896 79.31037775812273 l -0.32122183807821564 -1.8475591368006337 a22.875275508621026,22.875275508621026 0 0,0 0.388521079783408,-0.064109307141332 l 0.289371552155922 1.8528147068815926" fill="#ff1602" stroke="none" /><path d="M 96.75951476605007 79.25152402106235 l -0.06798478473111438 -0.4352992132623844 a21.440576141003785,21.440576141003785 0 0,0 0.36513405264306525,-0.053811267876077436 l 0.06048175165940035 0.4364049652994308" fill="#ff0200" stroke="none" /><path d="M 97.11714578562143 79.19881850522333 l -0.18348401652586205 -1.323925542300719 a22.336579674346694,22.336579674346694 0 0,0 0.38130165851257336,-0.04950389870580745 l 0.1606676295054309 1.3268877641706631" fill="#ff0f01" stroke="none" /><path d="M 97.83486435360386 79.11191278185805 l -0.19678756830286764 -1.8985027090558015 a22.908674378549357,22.908674378549357 0 0,0 0.3925836324053147,-0.037280546322188524 l 0.1640788088073166 1.9016087998931706" fill="#ff1702" stroke="none" /><path d="M 98.55514903715128 79.0497635885617 l -0.08152437612927628 -1.1820976675932695 a22.184905531944516,22.184905531944516 0 0,0 0.3811978980396844,-0.022994898216056492 l 0.06116442924996887 1.1833258351896323" fill="#ff0d01" stroke="none" /><path d="M 98.91598698831166 79.02799685794201 l -0.055591776918509396 -1.0755137693335761 a22.076949540919664,22.076949540919664 0 0,0 0.37968060569435425,-0.016349845560570803 l 0.03707033883483105 1.0763113414183394" fill="#ff0b01" stroke="none" /><path d="M 99.63851952072746 79.00311137660856 l -0.014085916001007406 -0.8181919256796412 a21.818313167605744,21.818313167605744 0 0,0 0.37556639527354296,-0.003232618534661927 l 2.0042892028170125e-16 0.8183131676057442" fill="#ff0701" stroke="none" /></svg>