<?xml version="1.0" encoding="utf-8" ?>
<svg baseProfile="full" height="200mm" version="1.1" viewBox="0,0,200,200" width="200mm" xmlns="http://www.w3.org/2000/svg" xmlns:ev="http://www.w3.org/2001/xml-events" xmlns:xlink="http://www.w3.org/1999/xlink"><defs /><rect fill="#1a1a1a" height="200" width="200" x="0" y="0" /><text alignment-baseline="middle" fill="#e1ed5e" style="dominant-baseline: central; font-size:9.0px; font-family:Arial;" text-anchor="middle" x="100.0" y="100.0">2024</text><line stroke="#e1ed5e" stroke-width="0.3" x1="100.0" x2="100.0" y1="15.0" y2="10.0" /><path d="M 100.0 14.0 a86.0,86.0 0 0,1 42.35913384403234,11.155469271406648" fill="none" id="id61" stroke="none" /><text fill="#e1ed5e" style="font-size:6.75px; font-family:Arial;" text-anchor="middle"><textPath startOffset="22.145653131862478" xlink:href="#id61">January</textPath></text><path d="M 100.0 79.0 l 0.0 -8.186615082822396 a29.186615082822396,29.186615082822396 0 0,0 0.501027058935445,0.004300714714950112 l -0.14053413408659024 8.185408766301881" fill="#ff6a09" stroke="none" /><path d="M 101.80034050326958 79.07731436759882 l 0.39804739628557007 -4.625914111332826 a25.643007979221863,25.643007979221863 0 0,0 0.4382517504697297,0.04150289641811038 l -0.4773987101403127 4.618399459409532" fill="#ff3905" stroke="none" /><path d="M 102.15924093988457 79.11130261209362 l 5.429194513737001 -52.52253195217596 a73.80239119334783,73.80239119334783 0 0,0 1.2590831971709555,0.14108289843923716 l -6.330013612508753 52.421593293229755" fill="#40ffca" stroke="none" /><path d="M 103.23170211078529 79.25015418208739 l 0.28767971761944866 -1.847110154621791 a22.869378384179228,22.869378384179228 0 0,0 0.38738820868782714,0.06374458232107982 l -0.3193454293603463 1.8418995738050428" fill="#ff1202" stroke="none" /><path d="M 104.29559338865022 79.4440306129975 l 0.20328217768900858 -0.9727788092186039 a21.993791857196843,21.993791857196843 0 0,0 0.3689066711028944,0.0804014919517853 l -0.21995126541103707 0.9691458591330998" fill="#ff0500" stroke="none" /><path d="M 105.69591212413111 79.78721728523813 l 0.876413353807507 -3.1100818100365575 a24.231208633290706,24.231208633290706 0 0,0 0.3993995360145716,0.11625938402263587 l -0.929672902203683 3.0945787317114055" fill="#ff2503" stroke="none" /><path d="M 106.72888874123014 80.10723608172694 l 4.201138103145327 -12.419918308628967 a34.11121398478099,34.11121398478099 0 0,0 0.553079593826437,0.19238979292122274 l -4.413723469016783 12.345970083139154" fill="#ffab0f" stroke="none" /><path d="M 107.74402155503746 80.48000691201159 l 0.6978000879771803 -1.7589120584577664 a22.8922728640894,22.8922728640894 0 0,0 0.3640367807701815,0.14805058956225584 l -0.7278913299378015 1.7466742123162171" fill="#ff1202" stroke="none" /><path d="M 108.4095320186766 80.7573450057729 l 1.9904361048404349 -4.554507333872449 a25.97044997377001,25.97044997377001 0 0,0 0.40697747657981065,0.18203584872963152 l -2.068326984275877 4.519667734232964" fill="#ff3e05" stroke="none" /><path d="M 109.06512990194946 81.05736502329252 l 7.241248433308043 -15.131424186024201 a37.774852511133574,37.774852511133574 0 0,0 0.5825237533984607,0.2849415584247256 l -7.499932435968572 15.004888877502255" fill="#ffda14" stroke="none" /><path d="M 109.3889696526874 81.21577127319529 l 1.4810485359557295 -2.9630891869938774 a24.312612608793344,24.312612608793344 0 0,0 0.37171990846222636,0.18980283387002217 l -1.5316956661315346 2.937228401451021" fill="#ff2703" stroke="none" /><path d="M 110.34350942703115 81.72400993836675 l 6.12821918989875 -10.82797611392968 a33.44187032416248,33.44187032416248 0 0,0 0.49718113352568477,0.2870476612770574 l -6.313192791284832 10.72118155537645" fill="#ffa30f" stroke="none" /><line stroke="#e1ed5e" stroke-width="0.3" x1="143.13028292997686" x2="145.6673583964461" y1="26.7553504044142" y2="22.446841604673864" /><path d="M 143.63769802327073 25.89364864446614 a86.0,86.0 0 0,1 29.32050498858742,28.57503671076993" fill="none" id="id62" stroke="none" /><text fill="#e1ed5e" style="font-size:6.75px; font-family:Arial;" text-anchor="middle"><textPath startOffset="20.669276256404974" xlink:href="#id62">February</textPath></text><path d="M 111.27062007382361 82.28071324371311 l 8.249022378479467 -12.968833305168607 a36.37000349700369,36.37000349700369 0 0,0 0.5239261244145954,0.33960258394968423 l -8.47043413515107 12.825316879515027" fill="#ffc812" stroke="none" /><path d="M 111.5731344415666 82.4767994020092 l 0.6846004029924533 -1.036572265851791 a22.242239821496053,22.242239821496053 0 0,0 0.31679697579267463,0.2131551435131339 l -0.7022936668821289 1.0246674482815383" fill="#ff0901" stroke="none" /><path d="M 113.31354834802062 83.75963576809568 l 20.9033271072887 -25.49866023744745 a53.971665988528606,53.971665988528606 0 0,0 0.711463922555541,0.5935285082870853 l -21.337965364006134 25.136069545248493" fill="#6bff28" stroke="none" /><path d="M 114.65682725009322 84.96080404539774 l 2.5816816435770455 -2.649032800049403 a24.69898024927415,24.69898024927415 0 0,0 0.3011018337316502,0.29852832924920514 l -2.6267753974386583 2.6043244605715383" fill="#ff2c04" stroke="none" /><path d="M 114.91283532996326 85.21462403516908 l 0.9703737946725207 -0.9620800513920927 a22.366463803645658,22.366463803645658 0 0,0 0.26798559545618406,0.2749768291804537 l -0.9867461912795166 0.9452805301438971" fill="#ff0b01" stroke="none" /><path d="M 115.16444852881244 85.47280134310134 l 10.078114283793505 -9.654605507705966 a34.9563532137385,34.9563532137385 0 0,0 0.41139327479191484,0.43688540143535115 l -10.24236339232168 9.48017864632612" fill="#ffb610" stroke="none" /><path d="M 115.6541949942343 86.00192230759917 l 0.9260125902524775 -0.8280461682807565 a22.242239821496053,22.242239821496053 0 0,0 0.2520669995378915,0.28680597417322673 l -0.9400906537489592 0.8120279162962319" fill="#ff0901" stroke="none" /><path d="M 116.1254893667686 86.54754324733833 l 0.47694583410740915 -0.3978851779788063 a21.62111991074803,21.62111991074803 0 0,0 0.23531312986783345,0.2870437570590374 l -0.4837057832138702 0.3896391392212737" fill="#ff0000" stroke="none" /><line stroke="#e1ed5e" stroke-width="0.3" x1="172.87174338648825" x2="177.1583165268699" y1="56.24261187166439" y2="53.66864786411523" /><path d="M 173.72905801456457 55.72781907015455 a86.0,86.0 0 0,1 12.242430191666344,42.057860355516425" fill="none" id="id63" stroke="none" /><text fill="#e1ed5e" style="font-size:6.75px; font-family:Arial;" text-anchor="middle"><textPath startOffset="22.145653131862474" xlink:href="#id63">March</textPath></text><path d="M 118.18653347947321 89.5 l 1.7928125411921363 -1.0350808032638172 a23.070161606527634,23.070161606527634 0 0,0 0.19507099832781707,0.3446717627032047 l -1.8103169045413294 1.0041522704614945" fill="#ff1502" stroke="none" /><path d="M 118.36410011445183 89.81374322990088 l 1.0863150689577283 -0.6025606567524235 a22.242239821496053,22.242239821496053 0 0,0 0.1823383342972089,0.3354819979122656 l -1.0964987528702785 0.5838238253655547" fill="#ff0901" stroke="none" /><path d="M 118.53625476483649 90.13048839642627 l 5.663788868150965 -3.015648558113714 a27.416591039566423,27.416591039566423 0 0,0 0.21762497630997898,0.4173245870030933 l -5.714721913435889 2.9179777280061225" fill="#ff5207" stroke="none" /><path d="M 118.70294669586156 90.45014215332178 l 0.5808386291229318 -0.29658034266925626 a21.65217590628543,21.65217590628543 0 0,0 0.16618569484427728,0.33248271307218225 l -0.5858442371789461 0.2865657734333236" fill="#ff0000" stroke="none" /><path d="M 119.16976305983485 91.42560881287824 l 2.156006764442529 -0.964354402436218 a23.361851939013125,23.361851939013125 0 0,0 0.1606028511109352,0.3674907531303169 l -2.1722434975704346 0.9272015795300517" fill="#ff1902" stroke="none" /><path d="M 119.31412917781788 91.75594674310238 l 56.58341360233856 -24.15209460908486 a82.52240542192331,82.52240542192331 0 0,0 0.5449392799382454,1.3076558936725196 l -56.98967872681329 23.17720620597106" fill="#4bdfff" stroke="none" /><path d="M 119.71291397450082 92.76114493625339 l 1.2957680208169093 -0.4758239655012204 a22.380370678447306,22.380370678447306 0 0,0 0.12933704666142304,0.36177873850335074 l -1.3037452375222758 0.45351027061695287" fill="#ff0b01" stroke="none" /><path d="M 119.94978838288452 93.4421083053983 l 3.0688426651894067 -1.0087895390083854 a24.230394966207626,24.230394966207626 0 0,0 0.12650029709283286,0.39626037891828747 l -3.0857076780594968 0.955960126398711" fill="#ff2503" stroke="none" /><path d="M 120.16314734710363 94.1308016681162 l 3.971907656484579 -1.1561644316002309 a25.136757984767577,25.136757984767577 0 0,0 0.11704333810032685,0.4153455161658101 l -3.991169486659488 1.0878109915314076" fill="#ff3204" stroke="none" /><path d="M 120.26092885502905 94.47779374421319 l 1.198520602105501 -0.326662119688238 a22.242239821496053,22.242239821496053 0 0,0 0.09724150409891695,0.36924182991377186 l -1.2039515870091484 0.30603978540166754" fill="#ff0901" stroke="none" /><path d="M 120.43855184770803 95.1765574152323 l 1.3435562809155295 -0.3170756239819806 a22.38046384643392,22.38046384643392 0 0,0 0.08503418705936942,0.37467631804405155 l -1.3488013295325652 0.29396497199890276" fill="#ff0b01" stroke="none" /><path d="M 120.592083275326 95.88100663000786 l 6.292444621634884 -1.2586651545165937 a27.41709414669413,27.41709414669413 0 0,0 0.08835316265504596,0.46230108150402466 l -6.313124076572087 1.1504615079792544" fill="#ff5207" stroke="none" /><path d="M 120.7213421655516 96.59031103205396 l 6.945366495649953 -1.1428574138372813 a28.03876685416272,28.03876685416272 0 0,0 0.07407375939771503,0.4756066722629403 l -6.963961747185934 1.0234625596428997" fill="#ff5b08" stroke="none" /><path d="M 120.98066250479742 99.09900007780936 l 3.0258415112890296 -0.129942653889468 a24.028630374400237,24.028630374400237 0 0,0 0.014160086758106913,0.4122554759524148 l -3.027626285043985 0.07798091337293327" fill="#ff2303" stroke="none" /><path d="M 120.99303781780057 99.45929381324524 l 6.613367318528241 -0.17033688289637983 a27.615560591775445,27.615560591775445 0 0,0 0.00813813265063739,0.47400542774040827 l -6.615316882777544 0.056784539186905174" fill="#ff5507" stroke="none" /><line stroke="#e1ed5e" stroke-width="0.3" x1="184.99686870605535" x2="189.99668451229388" y1="99.2704041080226" y2="99.22748670261217" /><path d="M 185.99683186730306 99.26182062694052 a86.0,86.0 0 0,1 -10.086455211305974,41.156179273409016" fill="none" id="id64" stroke="none" /><text fill="#e1ed5e" style="font-size:6.75px; font-family:Arial;" text-anchor="middle"><textPath startOffset="21.40746469413373" xlink:href="#id64">April</textPath></text><path d="M 120.99922638620191 100.18025310272382 l 7.696646811076967 0.06606645610419498 a28.69693035638776,28.69693035638776 0 0,0 -0.008456805543750286,0.49256652615146446 l -7.694378573934548 -0.19817989822473048" fill="#ff6409" stroke="none" /><path d="M 120.96210409425399 101.26102812881392 l 18.185992177522547 1.0940241295973714 a39.218869346835234,39.218869346835234 0 0,0 -0.04619616548692932,0.6716821075152829 l -18.16453205087055 -1.4060496612669977" fill="#ffec16" stroke="none" /><path d="M 120.7213421655516 103.40968896794604 l 6.132690255245747 1.0091318477383457 a27.21516185251084,27.21516185251084 0 0,0 -0.07981193855548868,0.460334052390747 l -6.114463499198025 -1.1142589330496808" fill="#ff4f07" stroke="none" /><path d="M 120.51834098615036 104.47187691870673 l 22.250051372380675 4.849295137426022 a43.772361524520086,43.772361524520086 0 0,0 -0.1663123339822815,0.7328028302109548 l -22.163528176840728 -5.230532301575994" fill="#dcff1b" stroke="none" /><path d="M 120.16314734710363 105.8691983318838 l 6.1606982382168045 1.7932894701667461 a27.416392281194984,27.416392281194984 0 0,0 -0.13541567141093458,0.45075472856677007 l -6.12900624680224 -1.8987818023242398" fill="#ff5207" stroke="none" /><path d="M 119.94978838288452 106.5578916946017 l 8.229056184067021 2.705054217527545 a29.66225628807502,29.66225628807502 0 0,0 -0.1631630014442596,0.4823624216045678 l -8.181407761050396 -2.845918313606273" fill="#ff710a" stroke="none" /><path d="M 119.58574465831526 107.57618678355244 l 7.163306699198513 2.7709209166044926 a28.680557635540442,28.680557635540442 0 0,0 -0.18156339689424683,0.45765836616273087 l -7.114684627338142 -2.8934802999807876" fill="#ff6309" stroke="none" /><path d="M 119.31412917781788 108.2440532568976 l 5.7169425838040375 2.440222838606444 a27.215956885996594,27.215956885996594 0 0,0 -0.1870981925154743,0.42811727937095057 l -5.674210509271597 -2.5380021877532393" fill="#ff4f07" stroke="none" /><line stroke="#e1ed5e" stroke-width="0.3" x1="174.33088141563837" x2="178.70328620479359" y1="141.23008692659167" y2="143.65538615756765" /><path d="M 175.20536237346943 141.71514677278685 a86.0,86.0 0 0,1 -30.301960400862466,31.631185727798858" fill="none" id="id65" stroke="none" /><text fill="#e1ed5e" style="font-size:6.75px; font-family:Arial;" text-anchor="middle"><textPath startOffset="22.145653131862474" xlink:href="#id65">May</textPath></text><path d="M 118.18653347947321 110.5 l 13.088674600148298 7.556749803731034 a36.113499607462074,36.113499607462074 0 0,0 -0.31457659511539104,0.5342198315185454 l -12.957024294903142 -7.780320803543129" fill="#ffc512" stroke="none" /><path d="M 118.00360718960297 110.81064883170644 l 3.092396564103213 1.8568952849738694 a24.607073136080768,24.607073136080768 0 0,0 -0.22056378405710533,0.3602743652453968 l -3.060064815590703 -1.9097067663438232" fill="#ff2b04" stroke="none" /><path d="M 117.81537515405839 111.11811171558189 l 11.709790487142445 7.307775316336801 a34.80299870777481,34.80299870777481 0 0,0 -0.3206554537295924,0.5041236327181404 l -11.582617341786962 -7.507712623733613" fill="#ffb410" stroke="none" /><path d="M 117.62189284568427 111.42229804090321 l 2.6951206473606275 1.7469446420952697 a24.2117737912834,24.2117737912834 0 0,0 -0.2290613210813178,0.3468280351200479 l -2.664734887358583 -1.7929525555543786" fill="#ff2503" stroke="none" /><path d="M 116.79662413953412 112.60449989151573 l 6.638482334729516 4.981640904316157 a29.29977070816247,29.29977070816247 0 0,0 -0.30534270873588704,0.3997034073679085 l -6.551987648639325 -5.094865224924942" fill="#ff6c09" stroke="none" /><path d="M 116.1254893667686 113.45245675266167 l 16.375920905702827 13.661375649346935 a42.32613350193617,42.32613350193617 0 0,0 -0.4702341453202553,0.5539346408003205 l -16.138992196875456 -13.940477072596813" fill="#edff1a" stroke="none" /><path d="M 115.16444852881244 114.52719865689866 l 2.391222412217298 2.2907369792648495 a24.311407636166493,24.311407636166493 0 0,0 -0.29128909732678787,0.29888827502615806 l -2.351546513739703 -2.3314479463587445" fill="#ff2703" stroke="none" /><path d="M 114.65682725009322 115.03919595460226 l 7.513517506234535 7.709530866161846 a31.765213025890155,31.765213025890155 0 0,0 -0.39377899728518057,0.37723137175791344 l -7.380066023084043 -7.83737436822534" fill="#ff8d0d" stroke="none" /><path d="M 114.39649973595853 115.28858382429668 l 10.667476972229863 11.328490874509932 a36.56051960722743,36.56051960722743 0 0,0 -0.4606107158744926,0.4263344020947229 l -10.471436485041403 -11.509943022737033" fill="#ffcb12" stroke="none" /><path d="M 113.03279911837588 116.46651593811092 l 0.46256748715443413 0.5844389091320247 a21.745343892897633,21.745343892897633 0 0,0 -0.2946908867812231,0.22915341598297398 l -0.45246665573798034 -0.5922933767357919" fill="#ff0200" stroke="none" /><path d="M 112.7482090630111 116.68781488649013 l 8.24797696189298 10.796866606735332 a34.586811711639854,34.586811711639854 0 0,0 -0.4749049419122597,0.3563775220000473 l -8.061419031069954 -10.936863155999394" fill="#ffb210" stroke="none" /><path d="M 112.45986205192187 116.90419585922612 l 11.681423556859889 15.848094537232804 a40.68801048292664,40.68801048292664 0 0,0 -0.565793891005602,0.4095911443073737 l -11.407648655480319 -16.046286452913254" fill="#fffe18" stroke="none" /><path d="M 112.16784306229584 117.11559508785304 l 0.5398349712035128 0.7593454923833306 a21.93167986612204,21.93167986612204 0 0,0 -0.30871962986815826,0.21551027802270048 l -0.5267202501615961 -0.7685005862111531" fill="#ff0500" stroke="none" /><path d="M 111.27062007382361 117.71928675628689 l 2.0268010356686865 3.18646787077518 a24.77644011334354,24.77644011334354 0 0,0 -0.36083448321685124,0.22518740473030613 l -1.97180242366212 -3.220791072347034" fill="#ff2d04" stroke="none" /><path d="M 110.96478420261333 117.91015095944535 l 0.3891683305884899 0.6356772208808228 a21.745343892897633,21.745343892897633 0 0,0 -0.3200368330804025,0.19217292285968865 l -0.3781987409506508 -0.6422641442764349" fill="#ff0200" stroke="none" /><line stroke="#e1ed5e" stroke-width="0.3" x1="143.1302829299769" x2="145.66735839644613" y1="173.24464959558577" y2="177.55315839532614" /><path d="M 143.63769802327073 174.10635135553383 a86.0,86.0 0 0,1 -40.68552437913181,11.842963189579606" fill="none" id="id66" stroke="none" /><text fill="#e1ed5e" style="font-size:6.75px; font-family:Arial;" text-anchor="middle"><textPath startOffset="21.407464694133747" xlink:href="#id66">June</textPath></text><path d="M 109.3889696526874 118.78422872680471 l 2.3810677538394653 4.763730521733835 a26.325656028328588,26.325656028328588 0 0,0 -0.40596637553459186,0.19857849750847398 l -2.298941129042804 -4.8039027693395315" fill="#ff4306" stroke="none" /><path d="M 109.06512990194946 118.94263497670748 l 2.525100858180131 5.276489620473141 a26.849570673044546,26.849570673044546 0 0,0 -0.4174613263073173,0.1953929795699025 l -2.4341508180013074 -5.319058831613577" fill="#ff4a06" stroke="none" /><path d="M 108.73861861582097 119.09545874513695 l 0.3003473173145288 0.6563130923929594 a21.721772392284745,21.721772392284745 0 0,0 -0.3403973409772178,0.15225540093972775 l -0.289036573481684 -0.6613722442425374" fill="#ff0100" stroke="none" /><path d="M 108.4095320186766 119.2426549942271 l 4.23952642659374 9.70086613436665 a31.586802542726886,31.586802542726886 0 0,0 -0.49871789574693687,0.212873014095174 l -4.072373455676371 -9.772213798121228" fill="#ff8a0c" stroke="none" /><path d="M 107.407793817531 119.65005319985036 l 2.1923565363774076 5.815486180366478 a27.21500657253315,27.21500657253315 0 0,0 -0.4385644505690215,0.16104694099955943 l -2.092202934154259 -5.85226397037476" fill="#ff4f07" stroke="none" /><path d="M 106.72888874123015 119.89276391827305 l 3.4699478703919544 10.258284309483518 a31.829262911086488,31.829262911086488 0 0,0 -0.5190856583085434,0.1706337662372857 l -3.293339474435677 -10.316338997122823" fill="#ff8e0d" stroke="none" /><path d="M 106.0420521117495 120.11202640906438 l 4.678555206181504 15.573388663763511 a37.2609751641753,37.2609751641753 0 0,0 -0.6141673086655665,0.17877515258228194 l -4.41052788513433 -15.651407510648312" fill="#ffd413" stroke="none" /><path d="M 105.69591212413111 120.21278271476187 l 3.122708710669425 11.081391579559138 a32.512973075240595,32.512973075240595 0 0,0 -0.5385055593561029,0.14677208483036297 l -2.932021750378627 -11.133364158533643" fill="#ff970d" stroke="none" /><path d="M 105.3480935250658 120.30758222061773 l 1.24625987205715 4.732251726982598 a25.893605018412263,25.893605018412263 0 0,0 -0.43081373965454917,0.10951116793616068 l -1.1648408391772036 -4.752948126754029" fill="#ff3d05" stroke="none" /><path d="M 104.29559338865022 120.5559693870025 l 1.2718184280343443 6.086111581597943 a27.21757800896365,27.21757800896365 0 0,0 -0.4581671181668544,0.09164625535187872 l -1.1671548243365313 -6.1070472336126835" fill="#ff4f07" stroke="none" /><path d="M 103.94208987418118 120.62667999033965 l 0.2089069167824894 1.0930892642664505 a22.112872966485455,22.112872966485455 0 0,0 -0.3734603801242947,0.06805692187846377 l -0.19011180310713754 -1.0965143600762777" fill="#ff0701" stroke="none" /><path d="M 103.2317021107853 120.74984581791261 l 0.7649168830823091 4.911315103736255 a25.970524508159297,25.970524508159297 0 0,0 -0.4410968612505111,0.06482604859918 l -0.6804949162241125 -4.923722225634318" fill="#ff3e05" stroke="none" /><path d="M 102.875027216393 120.80226474461374 l 0.08800705447110962 0.6367752054878001 a21.64282805162867,21.64282805162867 0 0,0 -0.3684662393077004,0.04770533162948632 l -0.07706299327263387 -0.6381921333176811" fill="#ff0000" stroke="none" /><path d="M 101.80034050326958 120.92268563240118 l 0.3882394775993187 4.511931229201412 a25.528603902861185,25.528603902861185 0 0,0 -0.4369415125138207,0.03382203647982794 l -0.3107289703102622 -4.517931032676294" fill="#ff3805" stroke="none" /><path d="M 101.44090949804482 120.95050786540614 l 0.40115452161579834 5.8326987029782345 a26.846477495889022,26.846477495889022 0 0,0 -0.4600407882021114,0.02767491143618665 l -0.30096938128122186 -5.838725592239112" fill="#ff4a06" stroke="none" /><path d="M 101.08105385017728 120.97215588758144 l 0.5551616976778864 10.769988622311159 a31.784287618349225,31.784287618349225 0 0,0 -0.5451372198944477,0.023410537803358385 l -0.37019871718260905 -10.777931728540349" fill="#ff8d0d" stroke="none" /><path d="M 100.72087961077811 120.9876233191556 l 0.3914601465611977 11.396935046643623 a32.40365597094894,32.40365597094894 0 0,0 -0.5560879136839068,0.014322852076868894 l -0.19575891880654714 -11.401975616070537" fill="#ff950d" stroke="none" /><line stroke="#e1ed5e" stroke-width="0.3" x1="101.45913802915013" x2="101.54496967792366" y1="184.9874750549273" y2="189.98673829345242" /><path d="M 101.47630435890484 185.9873277026323 a86.0,86.0 0 0,1 -42.54439059252881,-10.42667462771756" fill="none" id="id67" stroke="none" /><text fill="#e1ed5e" style="font-size:6.75px; font-family:Arial;" text-anchor="middle"><textPath startOffset="22.145653131862474" xlink:href="#id67">July</textPath></text><path d="M 99.63950707515114 120.99690560180557 l -0.04386757021714389 2.555066042464347 a23.555442592795067,23.555442592795067 0 0,0 -0.4042413281721075,-0.010411822671002637 l 0.08772221245999531 -2.553936502443297" fill="#ff1c02" stroke="none" /><path d="M 99.27912038922189 120.98762331915562 l -0.04107853654242606 1.1959567708178436 a22.196662042445364,22.196662042445364 0 0,0 -0.3806983746827615,-0.016348826253168164 l 0.06160267182602635 -1.1950753761388468" fill="#ff0801" stroke="none" /><path d="M 98.55909050195518 120.95050786540614 l -0.6559005134717755 9.536649515504072 a30.5591782839916,30.5591782839916 0 0,0 -0.5230436271170417,-0.04048688469794814 l 0.8195131353640532 -9.52398486381107" fill="#ff7d0b" stroke="none" /><path d="M 98.19965949673042 120.92268563240118 l -0.6130191461495801 7.124211702307119 a28.150537382101827,28.150537382101827 0 0,0 -0.4811066741610855,-0.04556130224777823 l 0.7352253836956808 -7.112638644554157" fill="#ff5c08" stroke="none" /><path d="M 97.48249496171623 120.84855314841334 l -0.44795419768900335 3.7097033596964506 a24.73665117186102,24.73665117186102 0 0,0 -0.4211381621948283,-0.05452476657585833 l 0.5115701817746257 -3.701466996920195" fill="#ff2d04" stroke="none" /><path d="M 96.76829788921471 120.74984581791261 l -0.9733006542953406 6.249288399355063 a27.32462802558107,27.32462802558107 0 0,0 -0.46285642425742557,-0.07616284847403165 l 1.0804345816058296 -6.231659552385363" fill="#ff5107" stroke="none" /><path d="M 96.05791012581884 120.62667999033965 l -1.576861756195947 8.250807026771502 a29.400137474540244,29.400137474540244 0 0,0 -0.4949072344344266,-0.09899530757235984 l 1.7182654761613316 -8.22252232253628" fill="#ff6d0a" stroke="none" /><path d="M 95.70440661134978 120.55596938700252 l -0.22750197864704266 1.0886793244694408 a22.112195945782737,22.112195945782737 0 0,0 -0.3708926887231733,-0.08083433524853506 l 0.24615708398935246 -1.084613531087187" fill="#ff0701" stroke="none" /><path d="M 93.27111125876986 119.89276391827306 l -1.162258373063575 3.4360103601836474 a24.627259533180077,24.627259533180077 0 0,0 -0.39930665339985844,-0.13889958193571295 l 1.2210707985084552 -3.415552345679344" fill="#ff2b04" stroke="none" /><path d="M 90.28995756902619 118.62028667847754 l -1.1877534817008224 2.2776739123282197 a23.56876561488061,23.56876561488061 0 0,0 -0.35713546746476765,-0.1901545206897868 l 1.2266777649521519 -2.2569489239158598" fill="#ff1c02" stroke="none" /><line stroke="#e1ed5e" stroke-width="0.3" x1="58.13341422392154" x2="55.67067388415222" y1="173.97424548756322" y2="178.32567169271397" /><path d="M 57.64086615596768 174.84453072859336 a86.0,86.0 0 0,1 -31.369924170532247,-30.572349798747897" fill="none" id="id68" stroke="none" /><text fill="#e1ed5e" style="font-size:6.75px; font-family:Arial;" text-anchor="middle"><textPath startOffset="22.145653131862474" xlink:href="#id68">August</textPath></text><path d="M 89.03521579738668 117.91015095944536 l -3.2953185130216682 5.382655138220272 a27.31126773630088,27.31126773630088 0 0,0 -0.39775073152328544,-0.24822587398743884 l 3.387233373334666 -5.325293467391286" fill="#ff5107" stroke="none" /><path d="M 88.72937992617639 117.7192867562869 l -0.7080211168819585 1.1131267949201473 a22.319221423234165,22.319221423234165 0 0,0 -0.32151834082692804,-0.20840430404962473 l 0.7270250899658962 -1.1008086491666278" fill="#ff0a01" stroke="none" /><path d="M 86.96720088162412 116.46651593811092 l -5.225092949773406 6.601734251718966 a29.419292812587713,29.419292812587713 0 0,0 -0.3933068473250944,-0.3168201554741888 l 5.337650567453762 -6.511065802451367" fill="#ff6d0a" stroke="none" /><path d="M 85.60350026404147 115.28858382429668 l -0.9040143787117201 0.9600319425410252 a22.318674837712706,22.318674837712706 0 0,0 -0.276674530442005,-0.26504794153236055 l 0.9203613950190395 -0.9443718707030822" fill="#ff0a01" stroke="none" /><path d="M 85.08716467003676 114.78537596483092 l -5.094105148042696 5.0505660494259335 a28.173431862012002,28.173431862012002 0 0,0 -0.33756225301716886,-0.34636860920701396 l 5.180054202210675 -4.9623747481511815" fill="#ff5c08" stroke="none" /><path d="M 83.8745106332314 113.45245675266167 l -2.386193394247748 1.9906473973904202 a24.107506391866128,24.107506391866128 0 0,0 -0.2623736793374316,-0.3200532274281533 l 2.420013892823809 -1.9493918882637717" fill="#ff2403" stroke="none" /><path d="M 83.4222238831116 112.89097897827486 l -17.43113621726197 13.55455695382776 a43.08099916306557,43.08099916306557 0 0,0 -0.4489614990684842,-0.5877050141383741 l 17.66124969368475 -13.253331026448516" fill="#e4ff1a" stroke="none" /><path d="M 83.20337586046588 112.60449989151573 l -5.67797679306686 4.260859639276606 a28.09889747272224,28.09889747272224 0 0,0 -0.2862046391112523,-0.3882915601468865 l 5.750283451761943 -4.16276176986084" fill="#ff5b08" stroke="none" /><path d="M 82.576782715395 111.72311816256416 l -1.5476976298123313 1.0413600368883755 a22.86542185034776,22.86542185034776 0 0,0 -0.21632383406819605,-0.327541856326205 l 1.565345902801254 -1.0146383022231096" fill="#ff1202" stroke="none" /><path d="M 81.99639281039703 110.81064883170644 l -6.42130086474576 3.8558066703203946 a28.49001668052027,28.49001668052027 0 0,0 -0.24817014522421607,-0.42144716176669733 l 6.4865447200997455 -3.745008340260138" fill="#ff6108" stroke="none" /><line stroke="#e1ed5e" stroke-width="0.3" x1="26.387840678322732" x2="22.057713659400548" y1="142.50000000000003" y2="145.00000000000006" /><path d="M 25.521815274538298 143.00000000000003 a86.0,86.0 0 0,1 -11.493303480769221,-40.785679425670985" fill="none" id="id69" stroke="none" /><text fill="#e1ed5e" style="font-size:6.75px; font-family:Arial;" text-anchor="middle"><textPath startOffset="21.40746469413373" xlink:href="#id69">September</textPath></text><path d="M 81.81346652052679 110.50000000000001 l -6.29253292053564 3.6329955755558383 a28.26599115111167,28.26599115111167 0 0,0 -0.23900461585897126,-0.4222982552428297 l 6.35397090141599 -3.524440550213887" fill="#ff5e08" stroke="none" /><path d="M 81.1358732173502 109.22738970284198 l -6.41090464638705 3.1358947170765408 a28.13677336487965,28.13677336487965 0 0,0 -0.20850788331696932,-0.4357012824041152 l 6.463791787663931 -3.025380932607321" fill="#ff5c08" stroke="none" /><path d="M 80.68587082218212 108.24405325689762 l -11.19458003356262 4.778300545451762 a33.171720430181736,33.171720430181736 0 0,0 -0.2190504912346315,-0.5256414364317599 l 11.274956369333736 -4.585426599578721" fill="#ff9f0e" stroke="none" /><path d="M 80.16572619554312 106.89939002012753 l -7.50163742642014 2.609458904556829 a28.942533591495746,28.942533591495746 0 0,0 -0.1592040269737728,-0.4706584170462441 l 7.54532687496628 -2.4802988130364234" fill="#ff6709" stroke="none" /><path d="M 80.05021161711548 106.5578916946017 l -5.937407960717561 1.9517439285950868 a27.249969412309156,27.249969412309156 0 0,0 -0.14226467340855362,-0.4456420631975882 l 5.97003734990337 -1.849532831706107" fill="#ff5007" stroke="none" /><path d="M 79.94057633289273 106.21446072829308 l -10.435150552419689 3.2328363156402573 a31.92444953740862,31.92444953740862 0 0,0 -0.1576819708513545,-0.5248719976825105 l 10.489108843274673 -3.0532267143670233" fill="#ff8f0d" stroke="none" /><path d="M 79.83685265289637 105.86919833188381 l -11.861465390268403 3.4526997042582788 a33.35376446482287,33.35376446482287 0 0,0 -0.15530387544570642,-0.5511186655856847 l 11.918987757788685 -3.248573114769598" fill="#ffa20e" stroke="none" /><path d="M 79.73907114497094 105.5222062557868 l -18.882668115760133 5.146555162445786 a40.571463542873886,40.571463542873886 0 0,0 -0.17737557773252924,-0.6735239598654247 l 18.968233174297396 -4.821650698207558" fill="#fffc17" stroke="none" /><path d="M 79.64726062577567 105.17358676015961 l -8.544751420658613 2.172042397140909 a29.81649278431197,29.81649278431197 0 0,0 -0.12183938078242361,-0.4971462513829268 l 8.58077832795733 -2.0250403211498824" fill="#ff730a" stroke="none" /><path d="M 79.56144815229197 104.8234425847677 l -6.039758635729908 1.4253665926221197 a27.20567114027461,27.20567114027461 0 0,0 -0.10336747909657003,-0.45545618547935496 l 6.063336976384144 -1.3214760732037385" fill="#ff4f07" stroke="none" /><path d="M 79.48165901384964 104.47187691870673 l -18.323486756097 3.9935186548526223 a39.75362253399375,39.75362253399375 0 0,0 -0.13959633946098737,-0.6680190187645734 l 18.389340806382357 -3.67838318480264" fill="#fff216" stroke="none" /><path d="M 79.407916724674 104.11899336999214 l -12.209455621046043 2.4422330699566257 a33.45131755800496,33.45131755800496 0 0,0 -0.10779879462843715,-0.564048844930743 l 12.249580707956637 -2.232281659992568" fill="#ffa30f" stroke="none" /><path d="M 79.34024301695615 103.76489593502545 l -6.1228716365812685 1.1157911757707022 a27.22370846248273,27.22370846248273 0 0,0 -0.07983700258096209,-0.460478615029166 l 6.141123456654465 -1.0105195278209436" fill="#ff4f07" stroke="none" /><path d="M 79.2786578344484 103.40968896794605 l -26.99100044125462 4.441358851328194 a48.35397180056451,48.35397180056451 0 0,0 -0.12774315260398136,-0.8202026764721182 l 27.063265085996868 -3.9773679929246253" fill="#a8ff21" stroke="none" /><path d="M 79.22317932658666 103.0534771498775 l -19.10509163818673 2.807790550850188 a40.31031367639988,40.31031367639988 0 0,0 -0.09473976282427352,-0.6854897292363994 l 19.15047591756622 -2.479412513413703" fill="#fff917" stroke="none" /><path d="M 79.17382384314188 102.69636545807758 l -26.341251093435158 3.4104023242643096 a47.56110602329554,47.56110602329554 0 0,0 -0.09788056083380423,-0.8105914561073368 l 26.395913740528623 -2.9577171912335736" fill="#b0ff20" stroke="none" /><path d="M 79.13060592940153 102.33845913500099 l -7.738532003240992 0.8671186519962724 a28.786961687450688,28.786961687450688 0 0,0 -0.05081256178455895,-0.4915654418254443 l 7.752276957507217 -0.7341486878878967" fill="#ff6509" stroke="none" /><path d="M 79.0935383218832 101.97986365728391 l -8.481507205227185 0.8032075505248075 a29.51945460939494,29.51945460939494 0 0,0 -0.04344473342451784,-0.504893656602103 l 8.494045561349443 -0.6574928465470427" fill="#ff6f0a" stroke="none" /><path d="M 79.03789590574601 101.26102812881392 l -19.005996732027814 1.1433535673454747 a40.04035632959146,40.04035632959146 0 0,0 -0.035385017669984635,-0.686459889614261 l 19.02282333915437 -0.8169218843544829" fill="#fff617" stroke="none" /><line stroke="#e1ed5e" stroke-width="0.3" x1="15.003131293944662" x2="10.003315487706104" y1="100.72959589197737" y2="100.7725132973878" /><path d="M 14.003168132696942 100.73817937305945 a86.0,86.0 0 0,1 10.791469493833604,-42.45332614584628" fill="none" id="id70" stroke="none" /><text fill="#e1ed5e" style="font-size:6.75px; font-family:Arial;" text-anchor="middle"><textPath startOffset="22.145653131862435" xlink:href="#id70">October</textPath></text><path d="M 79.00077361379809 100.18025310272382 l -45.567311499210874 0.3911405653454272 a66.5689902039531,66.5689902039531 0 0,0 0.0,-1.1427873361384726 l 45.567311499210874 0.3911405653454104" fill="#37ff7c" stroke="none" /><path d="M 79.00077361379809 99.81974689727619 l -4.729368174746168 -0.04059593776185025 a25.729542405187278,25.729542405187278 0 0,0 0.007582334909977355,-0.44163299574546666 l 4.727974408237524 0.1217758494763693" fill="#ff3b05" stroke="none" /><path d="M 79.06263194458094 98.37931529534042 l -6.176982133564625 -0.47813748310321497 a27.195459928941908,27.195459928941908 0 0,0 0.04002443549868031,-0.46514461016257147 l 6.167864075368202 0.5841031406414671" fill="#ff4f07" stroke="none" /><path d="M 79.0935383218832 98.0201363427161 l -7.010296264435315 -0.663882344819567 a28.041661272946808,28.041661272946808 0 0,0 0.0494970140108439,-0.4788387104834812 l 6.997866857942808 0.7841255775859609" fill="#ff5b08" stroke="none" /><path d="M 79.17382384314186 97.30363454192245 l -7.509648868900667 -0.9722743944872935 a28.572327491092597,28.572327491092597 0 0,0 0.06715243030789522,-0.48588153376218157 l 7.491851922037564 1.101044236449542" fill="#ff6209" stroke="none" /><path d="M 79.22317932658666 96.9465228501225 l -6.19262990816952 -0.9101033415781545 a27.259149564590015,27.259149564590015 0 0,0 0.07201414016301183,-0.46238243930500633 l 6.176094275868241 1.016273962814611" fill="#ff5007" stroke="none" /><path d="M 79.2786578344484 96.59031103205396 l -8.805138686256411 -1.448882220075253 a29.923549012128497,29.923549012128497 0 0,0 0.08775462986628595,-0.5061453851833408 l 8.77896923889789 1.5998206381791864" fill="#ff740a" stroke="none" /><path d="M 79.34024301695615 96.23510406497455 l -1.4244276869702654 -0.2595781747487882 a22.447886412745618,22.447886412745618 0 0,0 0.07233960495140171,-0.3785113809131778 l 1.4197617897367045 0.2839921206952805" fill="#ff0c01" stroke="none" /><path d="M 79.64726062577567 94.8264132398404 l -0.6019757935045761 -0.1530198927008338 a21.62111991074803,21.62111991074803 0 0,0 0.09452601164709815,-0.35893066277050106 l 0.5992603010527523 0.16333105984411944" fill="#ff0000" stroke="none" /><path d="M 79.73907114497095 94.47779374421319 l -5.7776003997158005 -1.574710680790317 a26.98835370590209,26.98835370590209 0 0,0 0.12566485341845943,-0.44594023251670356 l 5.749717054222759 1.6736588372100336" fill="#ff4c07" stroke="none" /><path d="M 80.05021161711548 93.44210830539832 l -9.83085029984457 -3.231595759057449 a31.348373242588043,31.348373242588043 0 0,0 0.17243781521474816,-0.5097817604906101 l 9.773927063057457 3.3998791940222204" fill="#ff870c" stroke="none" /><path d="M 80.16572619554312 93.10060997987247 l -1.4674708924883677 -0.5104625523615993 a22.553719034337973,22.553719034337973 0 0,0 0.13033883366113988,-0.36458091503638007 l 1.4584918887832845 0.5355784237789009" fill="#ff0d01" stroke="none" /><path d="M 80.28708602549916 92.7611449362534 l -28.074872722090955 -10.309482141059036 a50.90792370557378,50.90792370557378 0 0,0 0.3082821831459373,-0.8177551169212601 l 27.893759855130583 10.789905538174441" fill="#8cff24" stroke="none" /><path d="M 80.5471966667186 92.08871423366112 l -4.525313543942354 -1.8404056225233303 a25.885238533214483,25.885238533214483 0 0,0 0.17093398059834863,-0.41017932710533733 l 4.493053718807527 1.9178174590699315" fill="#ff3d05" stroke="none" /><path d="M 80.83023694016515 91.42560881287825 l -1.2956043878810102 -0.5795073632766589 a22.419302474452994,22.419302474452994 0 0,0 0.16015445991817337,-0.3499663981994082 l 1.28546546310779 0.6016627436907385" fill="#ff0c01" stroke="none" /><path d="M 80.9802524753101 91.09779779509293 l -22.688113549009614 -10.619182730947863 a46.05030016359115,46.05030016359115 0 0,0 0.34125628012510306,-0.7130943756833292 l 22.502478010924605 11.00708960869628" fill="#c1ff1e" stroke="none" /><path d="M 81.29705330413844 90.45014215332179 l -1.66407501345486 -0.8496885588739577 a22.868452915512215,22.868452915512215 0 0,0 0.18152317028773315,-0.3480946137538875 l 1.649243774192187 0.8781294157323317" fill="#ff1202" stroke="none" /><path d="M 81.46374523516351 90.13048839642627 l -4.34717347313574 -2.3146250189251516 a25.924977785104144,25.924977785104144 0 0,0 0.2125288327059241,-0.3910291145575999 l 4.306799290814466 2.388908966957371" fill="#ff3d05" stroke="none" /><path d="M 81.63589988554816 89.8137432299009 l -7.13871404408037 -3.9597243430452624 a29.163372775762205,29.163372775762205 0 0,0 0.24659247468664344,-0.43570527473673604 l 7.0696882043723575 4.081686387881104" fill="#ff6a09" stroke="none" /><line stroke="#e1ed5e" stroke-width="0.3" x1="26.387840678322718" x2="22.05771365940052" y1="57.49999999999999" y2="54.99999999999999" /><path d="M 25.521815274538284 56.99999999999999 a86.0,86.0 0 0,1 29.574782752854787,-30.34633250058573" fill="none" id="id71" stroke="none" /><text fill="#e1ed5e" style="font-size:6.75px; font-family:Arial;" text-anchor="middle"><textPath startOffset="21.40746469413373" xlink:href="#id71">November</textPath></text><path d="M 81.99639281039701 89.18935116829357 l -10.46984045857467 -6.2868383724239045 a33.212366517141085,33.212366517141085 0 0,0 0.29769673117976264,-0.4862652376042316 l 10.360375762939514 6.465640726152679" fill="#ffa00e" stroke="none" /><path d="M 82.576782715395 88.27688183743585 l -7.443792157097942 -5.008515569184434 a29.971915619578446,29.971915619578446 0 0,0 0.2908849528845478,-0.42440983946069094 l 7.356717467398081 5.13556014371516" fill="#ff750a" stroke="none" /><path d="M 82.98947788004972 87.6856937992154 l -2.617087643848389 -1.8945696301021686 a24.2308732285389,24.2308732285389 0 0,0 0.24680642130023733,-0.3348403110394284 l 2.5841792029643327 1.9392162504104602" fill="#ff2503" stroke="none" /><path d="M 83.2033758604659 87.39550010848427 l -3.4436861015008864 -2.584206250744034 a25.305472786124064,25.305472786124064 0 0,0 0.26371679435036444,-0.3452137492274513 l 3.398817329796215 2.6429409132123696" fill="#ff3505" stroke="none" /><path d="M 83.42222388311158 87.10902102172516 l -18.054150658782223 -14.03901675182306 a43.870206544060224,43.870206544060224 0 0,0 0.46739228088545304,-0.59053487839759 l 17.81049194725521 14.346871574135333" fill="#dbff1b" stroke="none" /><path d="M 85.08716467003674 85.21462403516908 l -15.276696097698942 -15.146126830162004 a42.51238251837307,42.51238251837307 0 0,0 0.5182625437727926,-0.5138329759984845 l 15.014441633796173 15.406139816389162" fill="#ebff1a" stroke="none" /><path d="M 85.60350026404147 84.71141617570332 l -5.729986213706973 -6.085046792416775 a29.358261570157616,29.358261570157616 0 0,0 0.3698724751162561,-0.34234844109217866 l 5.624683967276764 6.182512979641319" fill="#ff6d0a" stroke="none" /><path d="M 86.40962598614128 83.9905735841838 l -1.7761841057823897 -2.0923404104602494 a23.744579816816948,23.744579816816948 0 0,0 0.3130051960874309,-0.2611200669917007 l 1.7400045755330498 2.1225226613638317" fill="#ff1f03" stroke="none" /><path d="M 86.96720088162412 83.53348406188908 l -39.09839735512763 -49.399547814332756 a84.0,84.0 0 0,0 1.1383602214590214,-0.8851957935167807 l 38.244627189033366 50.06344465947034" fill="#4dd2ff" stroke="none" /><path d="M 88.12776184653039 82.6780497279521 l -2.7291272353772915 -3.9818781973710218 a25.82736879113009,25.82736879113009 0 0,0 0.36786008924357066,-0.2475126851172461 l 2.6603708580367313 4.028140556545377" fill="#ff3c05" stroke="none" /><path d="M 88.4268655584334 82.4767994020092 l -10.040640465458587 -15.20280939419536 a39.21921717398525,39.21921717398525 0 0,0 0.5649703184172636,-0.36620693462033077 l 9.778184514784297 15.372930170519597" fill="#ffec16" stroke="none" /><path d="M 88.72937992617638 82.28071324371311 l -5.688950374187191 -8.94397489776355 a31.599945440038315,31.599945440038315 0 0,0 0.46020937351676716,-0.28720468601256427 l 5.534576871880725 9.040315380617649" fill="#ff8b0c" stroke="none" /><path d="M 89.03521579738668 82.08984904055464 l -1.1159174864765409 -1.8227673497045378 a23.137230134490206,23.137230134490206 0 0,0 0.3405219018363406,-0.20447361806379602 l 1.084462828082766 1.8416549683042571" fill="#ff1602" stroke="none" /><line stroke="#e1ed5e" stroke-width="0.3" x1="56.869717070023135" x2="54.33264160355391" y1="26.7553504044142" y2="22.446841604673864" /><path d="M 56.362301976729285 25.89364864446614 a86.0,86.0 0 0,1 42.16139366436587,-11.88097634709845" fill="none" id="id72" stroke="none" /><text fill="#e1ed5e" style="font-size:6.75px; font-family:Arial;" text-anchor="middle"><textPath startOffset="22.145653131862474" xlink:href="#id72">December</textPath></text><path d="M 90.28995756902619 81.37971332152246 l -1.9999934028451614 -3.835251058970488 a25.325404524059966,25.325404524059966 0 0,0 0.38720466627463546,-0.19770946154230806 l 1.9338615148569436 3.86901847218563" fill="#ff3505" stroke="none" /><path d="M 90.93487009805054 81.0573650232925 l -9.087215889803405 -18.988786196882213 a42.05116371744802,42.05116371744802 0 0,0 0.6538180737420534,-0.306019871721165 l 8.759909102189829 19.14198230017392" fill="#f0ff19" stroke="none" /><path d="M 91.92203290615298 80.6158196554323 l -2.8904994654042855 -6.93614646758726 a28.514327313826946,28.514327313826946 0 0,0 0.45343963802895565,-0.18440995329937548 l 2.7710053661848892 6.984743677465927" fill="#ff6109" stroke="none" /><path d="M 92.25597844496254 80.48000691201159 l -1.3756296553094587 -3.4674853591807424 a24.73039028316068,24.73039028316068 0 0,0 0.39595443678852954,-0.15316368221989488 l 1.3159029560273998 3.490588929538678" fill="#ff2d04" stroke="none" /><path d="M 92.592206182469 80.34994680014964 l -1.7189771264886502 -4.559791054779386 a25.873045949366503,25.873045949366503 0 0,0 0.4169390204293748,-0.15310578350886203 l 1.6404489544051484 4.58862768729697" fill="#ff3d05" stroke="none" /><path d="M 92.93061703081487 80.22567764915836 l -2.3305407689169924 -6.518937312806958 a27.923002525197504,27.923002525197504 0 0,0 0.452743866047739,-0.15748781840360615 l 2.2182911308242494 6.557983563779151" fill="#ff5908" stroke="none" /><path d="M 93.27111125876988 80.10723608172694 l -0.3956005588976573 -1.1695227587682342 a22.234618680191176,22.234618680191176 0 0,0 0.3626119683351346,-0.11919775638062698 l 0.37546585291476164 1.1761414365508898" fill="#ff0901" stroke="none" /><path d="M 93.61358852112211 79.99465700312896 l -5.044018691105189 -15.800316708674941 a37.58590162308492,37.58590162308492 0 0,0 0.6163360617083438,-0.19094248740545577 l 4.772041996525229 15.884575783887039" fill="#ffd814" stroke="none" /><path d="M 95.35216902796891 79.52079915486377 l -1.389503627762782 -6.122409364548006 a27.278106144266044,27.278106144266044 0 0,0 0.45754162797444997,-0.09971906826519421 l 1.2841995831692135 6.1453598909469145" fill="#ff5007" stroke="none" /><path d="M 95.70440661134978 79.44403061299748 l -0.16613617125717342 -0.7950217214365757 a21.81219502889144,21.81219502889144 0 0,0 0.36717560004747063,-0.0734454033619117 l 0.15246408567872607 0.7977565214613536" fill="#ff0300" stroke="none" /><path d="M 96.05791012581881 79.37332000966035 l -0.4473405384106018 -2.34067472508305 a23.38303833916874,23.38303833916874 0 0,0 0.39491197728321725,-0.07196611747111735 l 0.407093827576346 2.3480090164855287" fill="#ff1902" stroke="none" /><path d="M 96.41257539226777 79.30868818359171 l -0.942017502269034 -5.433306621678162 a26.514364679612054,26.514364679612054 0 0,0 0.4491312385139529,-0.07390437438299093 l 0.8486087607020082 5.448676994556822" fill="#ff4606" stroke="none" /><path d="M 96.76829788921471 79.25015418208739 l -2.867973770882493 -18.414448954631016 a39.636448262831124,39.636448262831124 0 0,0 0.6732059999157977,-0.09893809886580436 l 2.5514426653590103 18.460968126795706" fill="#fff116" stroke="none" /><path d="M 97.12497278360702 79.19773525538626 l -1.8898952653214331 -13.674340689592512 a34.804321693184704,34.804321693184704 0 0,0 0.5925388999695659,-0.07671602364311887 l 1.6548785434610733 13.704768309436027" fill="#ffb410" stroke="none" /><path d="M 97.84075906011542 79.11130261209362 l -1.6337718829459629 -15.805260929126558 a36.8894771343578,36.8894771343578 0 0,0 0.6304594976199761,-0.05970516991088039 l 1.3622128219409713 15.830977854542622" fill="#ffcf13" stroke="none" /><path d="M 98.5590905019552 79.04949213459386 l -0.44763624762139365 -6.508532797763022 a27.523908137745465,27.523908137745465 0 0,0 0.4716492283216379,-0.02837324636747605 l 0.33584266716727196 6.515258021955192" fill="#ff5407" stroke="none" /></svg>